  0
SECTION
  2
HEADER
  9
$ANGBASE
  50
0.0
  9
$ANGDIR
  70
1
  9
$MEASUREMENT
  70
1
  0
ENDSEC
  0
SECTION
  2
TABLES
  0
TABLE
  2
LTYPE
  70
4
  0
LTYPE
  5
40F
  2
CONTINUOUS
  70
0
  3
Solid line
  72
65
  73
0
  40
0.0
  0
LTYPE
  5
410
  2
DASHDOT
 70
0
  3
Dash Dot ____ _ ____ _
 72
65
 73
4
 40
2.0
 49
1.25
 49
-0.25
 49
0.25
 49
-0.25
  0
LTYPE
  5
411
  2
DASHED
 70
0
  3
Dashed __ __ __ __ __
 72
65
 73
2
 40
0.75
 49
0.5
 49
-0.25
  0
LTYPE
  5
43B
  2
DOTTED
 70
0
  3
Dotted .  .  .  .
 72
65
 73
2
 40
0.2
 49
0.0
 49
-0.2
  0
ENDTAB
  0
TABLE
  2
STYLE
  70
4
  0
STYLE
  2
KICAD
  70
0
  40
0
  41
1
  42
1
  50
0
  71
0
  3
isocp.shx
  0
STYLE
  2
KICADB
  70
0
  40
0
  41
1
  42
1
  50
0
  71
0
  3
isocp.shx
  0
STYLE
  2
KICADI
  70
0
  40
0
  41
1
  42
1
  50
15
  71
0
  3
isocp.shx
  0
STYLE
  2
KICADBI
  70
0
  40
0
  41
1
  42
1
  50
15
  71
0
  3
isocp.shx
  0
ENDTAB
  0
TABLE
  2
LAYER
  70
1
  0
LAYER
  2
BLACK
  70
0
  62
7
  6
CONTINUOUS
  0
ENDTAB
  0
ENDSEC
  0
SECTION
  2
ENTITIES
0
LINE
8
BLACK
6
CONTINUOUS
10
68.0087
20
-93.96
11
65.4587
21
-93.96
0
LINE
8
BLACK
6
CONTINUOUS
10
65.4587
20
-93.96
11
65.4587
21
-91.46
0
LINE
8
BLACK
6
CONTINUOUS
10
65.4587
20
-91.46
11
68.0087
21
-91.46
0
LINE
8
BLACK
6
CONTINUOUS
10
68.0087
20
-91.46
11
68.0087
21
-93.96
0
LINE
8
BLACK
6
CONTINUOUS
10
106.109
20
-93.96
11
103.559
21
-93.96
0
LINE
8
BLACK
6
CONTINUOUS
10
103.559
20
-93.96
11
103.559
21
-91.46
0
LINE
8
BLACK
6
CONTINUOUS
10
103.559
20
-91.46
11
106.109
21
-91.46
0
LINE
8
BLACK
6
CONTINUOUS
10
106.109
20
-91.46
11
106.109
21
-93.96
0
LINE
8
BLACK
6
CONTINUOUS
10
87.0587
20
-93.96
11
84.5087
21
-93.96
0
LINE
8
BLACK
6
CONTINUOUS
10
84.5087
20
-93.96
11
84.5087
21
-91.46
0
LINE
8
BLACK
6
CONTINUOUS
10
84.5087
20
-91.46
11
87.0587
21
-91.46
0
LINE
8
BLACK
6
CONTINUOUS
10
87.0587
20
-91.46
11
87.0587
21
-93.96
0
LINE
8
BLACK
6
CONTINUOUS
10
119.036
20
-91.42
11
116.486
21
-91.42
0
LINE
8
BLACK
6
CONTINUOUS
10
116.486
20
-91.42
11
116.486
21
-88.92
0
LINE
8
BLACK
6
CONTINUOUS
10
116.486
20
-88.92
11
119.036
21
-88.92
0
LINE
8
BLACK
6
CONTINUOUS
10
119.036
20
-88.92
11
119.036
21
-91.42
0
LINE
8
BLACK
6
CONTINUOUS
10
80.9357
20
-91.42
11
78.3858
21
-91.42
0
LINE
8
BLACK
6
CONTINUOUS
10
78.3858
20
-91.42
11
78.3858
21
-88.92
0
LINE
8
BLACK
6
CONTINUOUS
10
78.3858
20
-88.92
11
80.9357
21
-88.92
0
LINE
8
BLACK
6
CONTINUOUS
10
80.9357
20
-88.92
11
80.9357
21
-91.42
0
LINE
8
BLACK
6
CONTINUOUS
10
99.9857
20
-91.42
11
97.4357
21
-91.42
0
LINE
8
BLACK
6
CONTINUOUS
10
97.4357
20
-91.42
11
97.4357
21
-88.92
0
LINE
8
BLACK
6
CONTINUOUS
10
97.4357
20
-88.92
11
99.9857
21
-88.92
0
LINE
8
BLACK
6
CONTINUOUS
10
99.9857
20
-88.92
11
99.9857
21
-91.42
0
LINE
8
BLACK
6
CONTINUOUS
10
68.0087
20
-74.91
11
65.4587
21
-74.91
0
LINE
8
BLACK
6
CONTINUOUS
10
65.4587
20
-74.91
11
65.4587
21
-72.41
0
LINE
8
BLACK
6
CONTINUOUS
10
65.4587
20
-72.41
11
68.0087
21
-72.41
0
LINE
8
BLACK
6
CONTINUOUS
10
68.0087
20
-72.41
11
68.0087
21
-74.91
0
LINE
8
BLACK
6
CONTINUOUS
10
87.0587
20
-74.91
11
84.5087
21
-74.91
0
LINE
8
BLACK
6
CONTINUOUS
10
84.5087
20
-74.91
11
84.5087
21
-72.41
0
LINE
8
BLACK
6
CONTINUOUS
10
84.5087
20
-72.41
11
87.0587
21
-72.41
0
LINE
8
BLACK
6
CONTINUOUS
10
87.0587
20
-72.41
11
87.0587
21
-74.91
0
LINE
8
BLACK
6
CONTINUOUS
10
106.109
20
-74.91
11
103.559
21
-74.91
0
LINE
8
BLACK
6
CONTINUOUS
10
103.559
20
-74.91
11
103.559
21
-72.41
0
LINE
8
BLACK
6
CONTINUOUS
10
103.559
20
-72.41
11
106.109
21
-72.41
0
LINE
8
BLACK
6
CONTINUOUS
10
106.109
20
-72.41
11
106.109
21
-74.91
0
LINE
8
BLACK
6
CONTINUOUS
10
99.9857
20
-72.37
11
97.4357
21
-72.37
0
LINE
8
BLACK
6
CONTINUOUS
10
97.4357
20
-72.37
11
97.4357
21
-69.87
0
LINE
8
BLACK
6
CONTINUOUS
10
97.4357
20
-69.87
11
99.9857
21
-69.87
0
LINE
8
BLACK
6
CONTINUOUS
10
99.9857
20
-69.87
11
99.9857
21
-72.37
0
LINE
8
BLACK
6
CONTINUOUS
10
119.036
20
-72.37
11
116.486
21
-72.37
0
LINE
8
BLACK
6
CONTINUOUS
10
116.486
20
-72.37
11
116.486
21
-69.87
0
LINE
8
BLACK
6
CONTINUOUS
10
116.486
20
-69.87
11
119.036
21
-69.87
0
LINE
8
BLACK
6
CONTINUOUS
10
119.036
20
-69.87
11
119.036
21
-72.37
0
LINE
8
BLACK
6
CONTINUOUS
10
80.9357
20
-72.37
11
78.3858
21
-72.37
0
LINE
8
BLACK
6
CONTINUOUS
10
78.3858
20
-72.37
11
78.3858
21
-69.87
0
LINE
8
BLACK
6
CONTINUOUS
10
78.3858
20
-69.87
11
80.9357
21
-69.87
0
LINE
8
BLACK
6
CONTINUOUS
10
80.9357
20
-69.87
11
80.9357
21
-72.37
0
LINE
8
BLACK
6
CONTINUOUS
10
106.109
20
-55.86
11
103.559
21
-55.86
0
LINE
8
BLACK
6
CONTINUOUS
10
103.559
20
-55.86
11
103.559
21
-53.36
0
LINE
8
BLACK
6
CONTINUOUS
10
103.559
20
-53.36
11
106.109
21
-53.36
0
LINE
8
BLACK
6
CONTINUOUS
10
106.109
20
-53.36
11
106.109
21
-55.86
0
LINE
8
BLACK
6
CONTINUOUS
10
87.0587
20
-55.86
11
84.5087
21
-55.86
0
LINE
8
BLACK
6
CONTINUOUS
10
84.5087
20
-55.86
11
84.5087
21
-53.36
0
LINE
8
BLACK
6
CONTINUOUS
10
84.5087
20
-53.36
11
87.0587
21
-53.36
0
LINE
8
BLACK
6
CONTINUOUS
10
87.0587
20
-53.36
11
87.0587
21
-55.86
0
LINE
8
BLACK
6
CONTINUOUS
10
68.0087
20
-55.86
11
65.4587
21
-55.86
0
LINE
8
BLACK
6
CONTINUOUS
10
65.4587
20
-55.86
11
65.4587
21
-53.36
0
LINE
8
BLACK
6
CONTINUOUS
10
65.4587
20
-53.36
11
68.0087
21
-53.36
0
LINE
8
BLACK
6
CONTINUOUS
10
68.0087
20
-53.36
11
68.0087
21
-55.86
0
LINE
8
BLACK
6
CONTINUOUS
10
119.036
20
-53.32
11
116.486
21
-53.32
0
LINE
8
BLACK
6
CONTINUOUS
10
116.486
20
-53.32
11
116.486
21
-50.82
0
LINE
8
BLACK
6
CONTINUOUS
10
116.486
20
-50.82
11
119.036
21
-50.82
0
LINE
8
BLACK
6
CONTINUOUS
10
119.036
20
-50.82
11
119.036
21
-53.32
0
LINE
8
BLACK
6
CONTINUOUS
10
80.9357
20
-53.32
11
78.3858
21
-53.32
0
LINE
8
BLACK
6
CONTINUOUS
10
78.3858
20
-53.32
11
78.3858
21
-50.82
0
LINE
8
BLACK
6
CONTINUOUS
10
78.3858
20
-50.82
11
80.9357
21
-50.82
0
LINE
8
BLACK
6
CONTINUOUS
10
80.9357
20
-50.82
11
80.9357
21
-53.32
0
LINE
8
BLACK
6
CONTINUOUS
10
99.9857
20
-53.32
11
97.4357
21
-53.32
0
LINE
8
BLACK
6
CONTINUOUS
10
97.4357
20
-53.32
11
97.4357
21
-50.82
0
LINE
8
BLACK
6
CONTINUOUS
10
97.4357
20
-50.82
11
99.9857
21
-50.82
0
LINE
8
BLACK
6
CONTINUOUS
10
99.9857
20
-50.82
11
99.9857
21
-53.32
  0
ENDSEC
  0
EOF
