  0
SECTION
  2
HEADER
  9
$ANGBASE
  50
0.0
  9
$ANGDIR
  70
1
  9
$MEASUREMENT
  70
1
  0
ENDSEC
  0
SECTION
  2
TABLES
  0
TABLE
  2
LTYPE
  70
4
  0
LTYPE
  5
40F
  2
CONTINUOUS
  70
0
  3
Solid line
  72
65
  73
0
  40
0.0
  0
LTYPE
  5
410
  2
DASHDOT
 70
0
  3
Dash Dot ____ _ ____ _
 72
65
 73
4
 40
2.0
 49
1.25
 49
-0.25
 49
0.25
 49
-0.25
  0
LTYPE
  5
411
  2
DASHED
 70
0
  3
Dashed __ __ __ __ __
 72
65
 73
2
 40
0.75
 49
0.5
 49
-0.25
  0
LTYPE
  5
43B
  2
DOTTED
 70
0
  3
Dotted .  .  .  .
 72
65
 73
2
 40
0.2
 49
0.0
 49
-0.2
  0
ENDTAB
  0
TABLE
  2
STYLE
  70
4
  0
STYLE
  2
KICAD
  70
0
  40
0
  41
1
  42
1
  50
0
  71
0
  3
isocp.shx
  0
STYLE
  2
KICADB
  70
0
  40
0
  41
1
  42
1
  50
0
  71
0
  3
isocp.shx
  0
STYLE
  2
KICADI
  70
0
  40
0
  41
1
  42
1
  50
15
  71
0
  3
isocp.shx
  0
STYLE
  2
KICADBI
  70
0
  40
0
  41
1
  42
1
  50
15
  71
0
  3
isocp.shx
  0
ENDTAB
  0
TABLE
  2
LAYER
  70
1
  0
LAYER
  2
BLACK
  70
0
  62
7
  6
CONTINUOUS
  0
ENDTAB
  0
ENDSEC
  0
SECTION
  2
ENTITIES
0
LINE
8
BLACK
6
CONTINUOUS
10
52.843
20
-107.396
11
53.0053
21
-107.468
0
LINE
8
BLACK
6
CONTINUOUS
10
53.0053
20
-107.468
11
53.1491
21
-107.573
0
LINE
8
BLACK
6
CONTINUOUS
10
53.1491
20
-107.573
11
53.268
21
-107.705
0
LINE
8
BLACK
6
CONTINUOUS
10
53.268
20
-107.705
11
53.3568
21
-107.859
0
LINE
8
BLACK
6
CONTINUOUS
10
53.3568
20
-107.859
11
53.4117
21
-108.028
0
LINE
8
BLACK
6
CONTINUOUS
10
53.4117
20
-108.028
11
53.4303
21
-108.205
0
LINE
8
BLACK
6
CONTINUOUS
10
53.4303
20
-108.205
11
53.4117
21
-108.381
0
LINE
8
BLACK
6
CONTINUOUS
10
53.4117
20
-108.381
11
53.3568
21
-108.55
0
LINE
8
BLACK
6
CONTINUOUS
10
53.3568
20
-108.55
11
53.268
21
-108.704
0
LINE
8
BLACK
6
CONTINUOUS
10
53.268
20
-108.704
11
53.1491
21
-108.836
0
LINE
8
BLACK
6
CONTINUOUS
10
53.1491
20
-108.836
11
53.0053
21
-108.941
0
LINE
8
BLACK
6
CONTINUOUS
10
53.0053
20
-108.941
11
52.843
21
-109.013
0
LINE
8
BLACK
6
CONTINUOUS
10
52.843
20
-109.013
11
52.6691
21
-109.05
0
LINE
8
BLACK
6
CONTINUOUS
10
52.6691
20
-109.05
11
52.4914
21
-109.05
0
LINE
8
BLACK
6
CONTINUOUS
10
52.4914
20
-109.05
11
52.3176
21
-109.013
0
LINE
8
BLACK
6
CONTINUOUS
10
52.3176
20
-109.013
11
52.1553
21
-108.941
0
LINE
8
BLACK
6
CONTINUOUS
10
52.1553
20
-108.941
11
52.0115
21
-108.836
0
LINE
8
BLACK
6
CONTINUOUS
10
52.0115
20
-108.836
11
51.8926
21
-108.704
0
LINE
8
BLACK
6
CONTINUOUS
10
51.8926
20
-108.704
11
51.8038
21
-108.55
0
LINE
8
BLACK
6
CONTINUOUS
10
51.8038
20
-108.55
11
51.7489
21
-108.381
0
LINE
8
BLACK
6
CONTINUOUS
10
51.7489
20
-108.381
11
51.7303
21
-108.205
0
LINE
8
BLACK
6
CONTINUOUS
10
51.7303
20
-108.205
11
51.7489
21
-108.028
0
LINE
8
BLACK
6
CONTINUOUS
10
51.7489
20
-108.028
11
51.8038
21
-107.859
0
LINE
8
BLACK
6
CONTINUOUS
10
51.8038
20
-107.859
11
51.8926
21
-107.705
0
LINE
8
BLACK
6
CONTINUOUS
10
51.8926
20
-107.705
11
52.0115
21
-107.573
0
LINE
8
BLACK
6
CONTINUOUS
10
52.0115
20
-107.573
11
52.1553
21
-107.468
0
LINE
8
BLACK
6
CONTINUOUS
10
52.1553
20
-107.468
11
52.3176
21
-107.396
0
LINE
8
BLACK
6
CONTINUOUS
10
52.3176
20
-107.396
11
52.4914
21
-107.359
0
LINE
8
BLACK
6
CONTINUOUS
10
52.4914
20
-107.359
11
52.6691
21
-107.359
0
LINE
8
BLACK
6
CONTINUOUS
10
52.6691
20
-107.359
11
52.843
21
-107.396
0
LINE
8
BLACK
6
CONTINUOUS
10
133.257
20
-107.396
11
133.419
21
-107.468
0
LINE
8
BLACK
6
CONTINUOUS
10
133.419
20
-107.468
11
133.563
21
-107.573
0
LINE
8
BLACK
6
CONTINUOUS
10
133.563
20
-107.573
11
133.682
21
-107.705
0
LINE
8
BLACK
6
CONTINUOUS
10
133.682
20
-107.705
11
133.771
21
-107.858
0
LINE
8
BLACK
6
CONTINUOUS
10
133.771
20
-107.858
11
133.826
21
-108.027
0
LINE
8
BLACK
6
CONTINUOUS
10
133.826
20
-108.027
11
133.844
21
-108.204
0
LINE
8
BLACK
6
CONTINUOUS
10
133.844
20
-108.204
11
133.826
21
-108.381
0
LINE
8
BLACK
6
CONTINUOUS
10
133.826
20
-108.381
11
133.771
21
-108.55
0
LINE
8
BLACK
6
CONTINUOUS
10
133.771
20
-108.55
11
133.682
21
-108.704
0
LINE
8
BLACK
6
CONTINUOUS
10
133.682
20
-108.704
11
133.563
21
-108.836
0
LINE
8
BLACK
6
CONTINUOUS
10
133.563
20
-108.836
11
133.419
21
-108.94
0
LINE
8
BLACK
6
CONTINUOUS
10
133.419
20
-108.94
11
133.257
21
-109.013
0
LINE
8
BLACK
6
CONTINUOUS
10
133.257
20
-109.013
11
133.083
21
-109.05
0
LINE
8
BLACK
6
CONTINUOUS
10
133.083
20
-109.05
11
132.906
21
-109.05
0
LINE
8
BLACK
6
CONTINUOUS
10
132.906
20
-109.05
11
132.732
21
-109.013
0
LINE
8
BLACK
6
CONTINUOUS
10
132.732
20
-109.013
11
132.569
21
-108.94
0
LINE
8
BLACK
6
CONTINUOUS
10
132.569
20
-108.94
11
132.426
21
-108.836
0
LINE
8
BLACK
6
CONTINUOUS
10
132.426
20
-108.836
11
132.307
21
-108.704
0
LINE
8
BLACK
6
CONTINUOUS
10
132.307
20
-108.704
11
132.218
21
-108.55
0
LINE
8
BLACK
6
CONTINUOUS
10
132.218
20
-108.55
11
132.163
21
-108.381
0
LINE
8
BLACK
6
CONTINUOUS
10
132.163
20
-108.381
11
132.144
21
-108.204
0
LINE
8
BLACK
6
CONTINUOUS
10
132.144
20
-108.204
11
132.163
21
-108.027
0
LINE
8
BLACK
6
CONTINUOUS
10
132.163
20
-108.027
11
132.218
21
-107.858
0
LINE
8
BLACK
6
CONTINUOUS
10
132.218
20
-107.858
11
132.307
21
-107.705
0
LINE
8
BLACK
6
CONTINUOUS
10
132.307
20
-107.705
11
132.426
21
-107.573
0
LINE
8
BLACK
6
CONTINUOUS
10
132.426
20
-107.573
11
132.569
21
-107.468
0
LINE
8
BLACK
6
CONTINUOUS
10
132.569
20
-107.468
11
132.732
21
-107.396
0
LINE
8
BLACK
6
CONTINUOUS
10
132.732
20
-107.396
11
132.906
21
-107.359
0
LINE
8
BLACK
6
CONTINUOUS
10
132.906
20
-107.359
11
133.083
21
-107.359
0
LINE
8
BLACK
6
CONTINUOUS
10
133.083
20
-107.359
11
133.257
21
-107.396
0
LINE
8
BLACK
6
CONTINUOUS
10
131.956
20
-106.623
11
131.106
21
-108.095
0
LINE
8
BLACK
6
CONTINUOUS
10
131.106
20
-108.095
11
129.634
21
-107.245
0
LINE
8
BLACK
6
CONTINUOUS
10
129.634
20
-107.245
11
130.484
21
-105.773
0
LINE
8
BLACK
6
CONTINUOUS
10
130.484
20
-105.773
11
131.956
21
-106.623
0
LINE
8
BLACK
6
CONTINUOUS
10
55.0427
20
-106.126
11
55.205
21
-106.198
0
LINE
8
BLACK
6
CONTINUOUS
10
55.205
20
-106.198
11
55.3488
21
-106.303
0
LINE
8
BLACK
6
CONTINUOUS
10
55.3488
20
-106.303
11
55.4677
21
-106.435
0
LINE
8
BLACK
6
CONTINUOUS
10
55.4677
20
-106.435
11
55.5565
21
-106.589
0
LINE
8
BLACK
6
CONTINUOUS
10
55.5565
20
-106.589
11
55.6114
21
-106.758
0
LINE
8
BLACK
6
CONTINUOUS
10
55.6114
20
-106.758
11
55.63
21
-106.935
0
LINE
8
BLACK
6
CONTINUOUS
10
55.63
20
-106.935
11
55.6114
21
-107.111
0
LINE
8
BLACK
6
CONTINUOUS
10
55.6114
20
-107.111
11
55.5565
21
-107.28
0
LINE
8
BLACK
6
CONTINUOUS
10
55.5565
20
-107.28
11
55.4677
21
-107.434
0
LINE
8
BLACK
6
CONTINUOUS
10
55.4677
20
-107.434
11
55.3488
21
-107.566
0
LINE
8
BLACK
6
CONTINUOUS
10
55.3488
20
-107.566
11
55.205
21
-107.671
0
LINE
8
BLACK
6
CONTINUOUS
10
55.205
20
-107.671
11
55.0427
21
-107.743
0
LINE
8
BLACK
6
CONTINUOUS
10
55.0427
20
-107.743
11
54.8689
21
-107.78
0
LINE
8
BLACK
6
CONTINUOUS
10
54.8689
20
-107.78
11
54.6912
21
-107.78
0
LINE
8
BLACK
6
CONTINUOUS
10
54.6912
20
-107.78
11
54.5173
21
-107.743
0
LINE
8
BLACK
6
CONTINUOUS
10
54.5173
20
-107.743
11
54.355
21
-107.671
0
LINE
8
BLACK
6
CONTINUOUS
10
54.355
20
-107.671
11
54.2112
21
-107.566
0
LINE
8
BLACK
6
CONTINUOUS
10
54.2112
20
-107.566
11
54.0923
21
-107.434
0
LINE
8
BLACK
6
CONTINUOUS
10
54.0923
20
-107.434
11
54.0035
21
-107.28
0
LINE
8
BLACK
6
CONTINUOUS
10
54.0035
20
-107.28
11
53.9486
21
-107.111
0
LINE
8
BLACK
6
CONTINUOUS
10
53.9486
20
-107.111
11
53.93
21
-106.935
0
LINE
8
BLACK
6
CONTINUOUS
10
53.93
20
-106.935
11
53.9486
21
-106.758
0
LINE
8
BLACK
6
CONTINUOUS
10
53.9486
20
-106.758
11
54.0035
21
-106.589
0
LINE
8
BLACK
6
CONTINUOUS
10
54.0035
20
-106.589
11
54.0923
21
-106.435
0
LINE
8
BLACK
6
CONTINUOUS
10
54.0923
20
-106.435
11
54.2112
21
-106.303
0
LINE
8
BLACK
6
CONTINUOUS
10
54.2112
20
-106.303
11
54.355
21
-106.198
0
LINE
8
BLACK
6
CONTINUOUS
10
54.355
20
-106.198
11
54.5173
21
-106.126
0
LINE
8
BLACK
6
CONTINUOUS
10
54.5173
20
-106.126
11
54.6912
21
-106.089
0
LINE
8
BLACK
6
CONTINUOUS
10
54.6912
20
-106.089
11
54.8689
21
-106.089
0
LINE
8
BLACK
6
CONTINUOUS
10
54.8689
20
-106.089
11
55.0427
21
-106.126
0
LINE
8
BLACK
6
CONTINUOUS
10
51.573
20
-105.196
11
51.7353
21
-105.269
0
LINE
8
BLACK
6
CONTINUOUS
10
51.7353
20
-105.269
11
51.8791
21
-105.373
0
LINE
8
BLACK
6
CONTINUOUS
10
51.8791
20
-105.373
11
51.998
21
-105.505
0
LINE
8
BLACK
6
CONTINUOUS
10
51.998
20
-105.505
11
52.0868
21
-105.659
0
LINE
8
BLACK
6
CONTINUOUS
10
52.0868
20
-105.659
11
52.1417
21
-105.828
0
LINE
8
BLACK
6
CONTINUOUS
10
52.1417
20
-105.828
11
52.1603
21
-106.005
0
LINE
8
BLACK
6
CONTINUOUS
10
52.1603
20
-106.005
11
52.1417
21
-106.182
0
LINE
8
BLACK
6
CONTINUOUS
10
52.1417
20
-106.182
11
52.0868
21
-106.351
0
LINE
8
BLACK
6
CONTINUOUS
10
52.0868
20
-106.351
11
51.998
21
-106.505
0
LINE
8
BLACK
6
CONTINUOUS
10
51.998
20
-106.505
11
51.8791
21
-106.637
0
LINE
8
BLACK
6
CONTINUOUS
10
51.8791
20
-106.637
11
51.7353
21
-106.741
0
LINE
8
BLACK
6
CONTINUOUS
10
51.7353
20
-106.741
11
51.573
21
-106.813
0
LINE
8
BLACK
6
CONTINUOUS
10
51.573
20
-106.813
11
51.3991
21
-106.85
0
LINE
8
BLACK
6
CONTINUOUS
10
51.3991
20
-106.85
11
51.2214
21
-106.85
0
LINE
8
BLACK
6
CONTINUOUS
10
51.2214
20
-106.85
11
51.0476
21
-106.813
0
LINE
8
BLACK
6
CONTINUOUS
10
51.0476
20
-106.813
11
50.8853
21
-106.741
0
LINE
8
BLACK
6
CONTINUOUS
10
50.8853
20
-106.741
11
50.7415
21
-106.637
0
LINE
8
BLACK
6
CONTINUOUS
10
50.7415
20
-106.637
11
50.6226
21
-106.505
0
LINE
8
BLACK
6
CONTINUOUS
10
50.6226
20
-106.505
11
50.5338
21
-106.351
0
LINE
8
BLACK
6
CONTINUOUS
10
50.5338
20
-106.351
11
50.4789
21
-106.182
0
LINE
8
BLACK
6
CONTINUOUS
10
50.4789
20
-106.182
11
50.4603
21
-106.005
0
LINE
8
BLACK
6
CONTINUOUS
10
50.4603
20
-106.005
11
50.4789
21
-105.828
0
LINE
8
BLACK
6
CONTINUOUS
10
50.4789
20
-105.828
11
50.5338
21
-105.659
0
LINE
8
BLACK
6
CONTINUOUS
10
50.5338
20
-105.659
11
50.6226
21
-105.505
0
LINE
8
BLACK
6
CONTINUOUS
10
50.6226
20
-105.505
11
50.7415
21
-105.373
0
LINE
8
BLACK
6
CONTINUOUS
10
50.7415
20
-105.373
11
50.8853
21
-105.269
0
LINE
8
BLACK
6
CONTINUOUS
10
50.8853
20
-105.269
11
51.0476
21
-105.196
0
LINE
8
BLACK
6
CONTINUOUS
10
51.0476
20
-105.196
11
51.2214
21
-105.16
0
LINE
8
BLACK
6
CONTINUOUS
10
51.2214
20
-105.16
11
51.3991
21
-105.16
0
LINE
8
BLACK
6
CONTINUOUS
10
51.3991
20
-105.16
11
51.573
21
-105.196
0
LINE
8
BLACK
6
CONTINUOUS
10
134.527
20
-105.196
11
134.689
21
-105.268
0
LINE
8
BLACK
6
CONTINUOUS
10
134.689
20
-105.268
11
134.833
21
-105.373
0
LINE
8
BLACK
6
CONTINUOUS
10
134.833
20
-105.373
11
134.952
21
-105.505
0
LINE
8
BLACK
6
CONTINUOUS
10
134.952
20
-105.505
11
135.041
21
-105.659
0
LINE
8
BLACK
6
CONTINUOUS
10
135.041
20
-105.659
11
135.096
21
-105.828
0
LINE
8
BLACK
6
CONTINUOUS
10
135.096
20
-105.828
11
135.114
21
-106.005
0
LINE
8
BLACK
6
CONTINUOUS
10
135.114
20
-106.005
11
135.096
21
-106.181
0
LINE
8
BLACK
6
CONTINUOUS
10
135.096
20
-106.181
11
135.041
21
-106.35
0
LINE
8
BLACK
6
CONTINUOUS
10
135.041
20
-106.35
11
134.952
21
-106.504
0
LINE
8
BLACK
6
CONTINUOUS
10
134.952
20
-106.504
11
134.833
21
-106.636
0
LINE
8
BLACK
6
CONTINUOUS
10
134.833
20
-106.636
11
134.689
21
-106.741
0
LINE
8
BLACK
6
CONTINUOUS
10
134.689
20
-106.741
11
134.527
21
-106.813
0
LINE
8
BLACK
6
CONTINUOUS
10
134.527
20
-106.813
11
134.353
21
-106.85
0
LINE
8
BLACK
6
CONTINUOUS
10
134.353
20
-106.85
11
134.176
21
-106.85
0
LINE
8
BLACK
6
CONTINUOUS
10
134.176
20
-106.85
11
134.002
21
-106.813
0
LINE
8
BLACK
6
CONTINUOUS
10
134.002
20
-106.813
11
133.839
21
-106.741
0
LINE
8
BLACK
6
CONTINUOUS
10
133.839
20
-106.741
11
133.696
21
-106.636
0
LINE
8
BLACK
6
CONTINUOUS
10
133.696
20
-106.636
11
133.577
21
-106.504
0
LINE
8
BLACK
6
CONTINUOUS
10
133.577
20
-106.504
11
133.488
21
-106.35
0
LINE
8
BLACK
6
CONTINUOUS
10
133.488
20
-106.35
11
133.433
21
-106.181
0
LINE
8
BLACK
6
CONTINUOUS
10
133.433
20
-106.181
11
133.414
21
-106.005
0
LINE
8
BLACK
6
CONTINUOUS
10
133.414
20
-106.005
11
133.433
21
-105.828
0
LINE
8
BLACK
6
CONTINUOUS
10
133.433
20
-105.828
11
133.488
21
-105.659
0
LINE
8
BLACK
6
CONTINUOUS
10
133.488
20
-105.659
11
133.577
21
-105.505
0
LINE
8
BLACK
6
CONTINUOUS
10
133.577
20
-105.505
11
133.696
21
-105.373
0
LINE
8
BLACK
6
CONTINUOUS
10
133.696
20
-105.373
11
133.839
21
-105.268
0
LINE
8
BLACK
6
CONTINUOUS
10
133.839
20
-105.268
11
134.002
21
-105.196
0
LINE
8
BLACK
6
CONTINUOUS
10
134.002
20
-105.196
11
134.176
21
-105.159
0
LINE
8
BLACK
6
CONTINUOUS
10
134.176
20
-105.159
11
134.353
21
-105.159
0
LINE
8
BLACK
6
CONTINUOUS
10
134.353
20
-105.159
11
134.527
21
-105.196
0
LINE
8
BLACK
6
CONTINUOUS
10
53.7727
20
-103.926
11
53.935
21
-103.999
0
LINE
8
BLACK
6
CONTINUOUS
10
53.935
20
-103.999
11
54.0788
21
-104.103
0
LINE
8
BLACK
6
CONTINUOUS
10
54.0788
20
-104.103
11
54.1977
21
-104.235
0
LINE
8
BLACK
6
CONTINUOUS
10
54.1977
20
-104.235
11
54.2865
21
-104.389
0
LINE
8
BLACK
6
CONTINUOUS
10
54.2865
20
-104.389
11
54.3414
21
-104.558
0
LINE
8
BLACK
6
CONTINUOUS
10
54.3414
20
-104.558
11
54.36
21
-104.735
0
LINE
8
BLACK
6
CONTINUOUS
10
54.36
20
-104.735
11
54.3414
21
-104.912
0
LINE
8
BLACK
6
CONTINUOUS
10
54.3414
20
-104.912
11
54.2865
21
-105.081
0
LINE
8
BLACK
6
CONTINUOUS
10
54.2865
20
-105.081
11
54.1977
21
-105.235
0
LINE
8
BLACK
6
CONTINUOUS
10
54.1977
20
-105.235
11
54.0788
21
-105.367
0
LINE
8
BLACK
6
CONTINUOUS
10
54.0788
20
-105.367
11
53.935
21
-105.471
0
LINE
8
BLACK
6
CONTINUOUS
10
53.935
20
-105.471
11
53.7727
21
-105.543
0
LINE
8
BLACK
6
CONTINUOUS
10
53.7727
20
-105.543
11
53.5989
21
-105.58
0
LINE
8
BLACK
6
CONTINUOUS
10
53.5989
20
-105.58
11
53.4212
21
-105.58
0
LINE
8
BLACK
6
CONTINUOUS
10
53.4212
20
-105.58
11
53.2473
21
-105.543
0
LINE
8
BLACK
6
CONTINUOUS
10
53.2473
20
-105.543
11
53.085
21
-105.471
0
LINE
8
BLACK
6
CONTINUOUS
10
53.085
20
-105.471
11
52.9412
21
-105.367
0
LINE
8
BLACK
6
CONTINUOUS
10
52.9412
20
-105.367
11
52.8223
21
-105.235
0
LINE
8
BLACK
6
CONTINUOUS
10
52.8223
20
-105.235
11
52.7335
21
-105.081
0
LINE
8
BLACK
6
CONTINUOUS
10
52.7335
20
-105.081
11
52.6786
21
-104.912
0
LINE
8
BLACK
6
CONTINUOUS
10
52.6786
20
-104.912
11
52.66
21
-104.735
0
LINE
8
BLACK
6
CONTINUOUS
10
52.66
20
-104.735
11
52.6786
21
-104.558
0
LINE
8
BLACK
6
CONTINUOUS
10
52.6786
20
-104.558
11
52.7335
21
-104.389
0
LINE
8
BLACK
6
CONTINUOUS
10
52.7335
20
-104.389
11
52.8223
21
-104.235
0
LINE
8
BLACK
6
CONTINUOUS
10
52.8223
20
-104.235
11
52.9412
21
-104.103
0
LINE
8
BLACK
6
CONTINUOUS
10
52.9412
20
-104.103
11
53.085
21
-103.999
0
LINE
8
BLACK
6
CONTINUOUS
10
53.085
20
-103.999
11
53.2473
21
-103.926
0
LINE
8
BLACK
6
CONTINUOUS
10
53.2473
20
-103.926
11
53.4212
21
-103.89
0
LINE
8
BLACK
6
CONTINUOUS
10
53.4212
20
-103.89
11
53.5989
21
-103.89
0
LINE
8
BLACK
6
CONTINUOUS
10
53.5989
20
-103.89
11
53.7727
21
-103.926
0
LINE
8
BLACK
6
CONTINUOUS
10
132.327
20
-103.926
11
132.49
21
-103.998
0
LINE
8
BLACK
6
CONTINUOUS
10
132.49
20
-103.998
11
132.634
21
-104.103
0
LINE
8
BLACK
6
CONTINUOUS
10
132.634
20
-104.103
11
132.752
21
-104.235
0
LINE
8
BLACK
6
CONTINUOUS
10
132.752
20
-104.235
11
132.841
21
-104.389
0
LINE
8
BLACK
6
CONTINUOUS
10
132.841
20
-104.389
11
132.896
21
-104.558
0
LINE
8
BLACK
6
CONTINUOUS
10
132.896
20
-104.558
11
132.915
21
-104.735
0
LINE
8
BLACK
6
CONTINUOUS
10
132.915
20
-104.735
11
132.896
21
-104.911
0
LINE
8
BLACK
6
CONTINUOUS
10
132.896
20
-104.911
11
132.841
21
-105.08
0
LINE
8
BLACK
6
CONTINUOUS
10
132.841
20
-105.08
11
132.752
21
-105.234
0
LINE
8
BLACK
6
CONTINUOUS
10
132.752
20
-105.234
11
132.634
21
-105.366
0
LINE
8
BLACK
6
CONTINUOUS
10
132.634
20
-105.366
11
132.49
21
-105.471
0
LINE
8
BLACK
6
CONTINUOUS
10
132.49
20
-105.471
11
132.327
21
-105.543
0
LINE
8
BLACK
6
CONTINUOUS
10
132.327
20
-105.543
11
132.154
21
-105.58
0
LINE
8
BLACK
6
CONTINUOUS
10
132.154
20
-105.58
11
131.976
21
-105.58
0
LINE
8
BLACK
6
CONTINUOUS
10
131.976
20
-105.58
11
131.802
21
-105.543
0
LINE
8
BLACK
6
CONTINUOUS
10
131.802
20
-105.543
11
131.64
21
-105.471
0
LINE
8
BLACK
6
CONTINUOUS
10
131.64
20
-105.471
11
131.496
21
-105.366
0
LINE
8
BLACK
6
CONTINUOUS
10
131.496
20
-105.366
11
131.377
21
-105.234
0
LINE
8
BLACK
6
CONTINUOUS
10
131.377
20
-105.234
11
131.288
21
-105.08
0
LINE
8
BLACK
6
CONTINUOUS
10
131.288
20
-105.08
11
131.233
21
-104.911
0
LINE
8
BLACK
6
CONTINUOUS
10
131.233
20
-104.911
11
131.215
21
-104.735
0
LINE
8
BLACK
6
CONTINUOUS
10
131.215
20
-104.735
11
131.233
21
-104.558
0
LINE
8
BLACK
6
CONTINUOUS
10
131.233
20
-104.558
11
131.288
21
-104.389
0
LINE
8
BLACK
6
CONTINUOUS
10
131.288
20
-104.389
11
131.377
21
-104.235
0
LINE
8
BLACK
6
CONTINUOUS
10
131.377
20
-104.235
11
131.496
21
-104.103
0
LINE
8
BLACK
6
CONTINUOUS
10
131.496
20
-104.103
11
131.64
21
-103.998
0
LINE
8
BLACK
6
CONTINUOUS
10
131.64
20
-103.998
11
131.802
21
-103.926
0
LINE
8
BLACK
6
CONTINUOUS
10
131.802
20
-103.926
11
131.976
21
-103.889
0
LINE
8
BLACK
6
CONTINUOUS
10
131.976
20
-103.889
11
132.154
21
-103.889
0
LINE
8
BLACK
6
CONTINUOUS
10
132.154
20
-103.889
11
132.327
21
-103.926
0
LINE
8
BLACK
6
CONTINUOUS
10
50.303
20
-102.997
11
50.4653
21
-103.069
0
LINE
8
BLACK
6
CONTINUOUS
10
50.4653
20
-103.069
11
50.6091
21
-103.174
0
LINE
8
BLACK
6
CONTINUOUS
10
50.6091
20
-103.174
11
50.728
21
-103.306
0
LINE
8
BLACK
6
CONTINUOUS
10
50.728
20
-103.306
11
50.8168
21
-103.459
0
LINE
8
BLACK
6
CONTINUOUS
10
50.8168
20
-103.459
11
50.8717
21
-103.628
0
LINE
8
BLACK
6
CONTINUOUS
10
50.8717
20
-103.628
11
50.8903
21
-103.805
0
LINE
8
BLACK
6
CONTINUOUS
10
50.8903
20
-103.805
11
50.8717
21
-103.982
0
LINE
8
BLACK
6
CONTINUOUS
10
50.8717
20
-103.982
11
50.8168
21
-104.151
0
LINE
8
BLACK
6
CONTINUOUS
10
50.8168
20
-104.151
11
50.728
21
-104.305
0
LINE
8
BLACK
6
CONTINUOUS
10
50.728
20
-104.305
11
50.6091
21
-104.437
0
LINE
8
BLACK
6
CONTINUOUS
10
50.6091
20
-104.437
11
50.4653
21
-104.541
0
LINE
8
BLACK
6
CONTINUOUS
10
50.4653
20
-104.541
11
50.303
21
-104.614
0
LINE
8
BLACK
6
CONTINUOUS
10
50.303
20
-104.614
11
50.1291
21
-104.651
0
LINE
8
BLACK
6
CONTINUOUS
10
50.1291
20
-104.651
11
49.9514
21
-104.651
0
LINE
8
BLACK
6
CONTINUOUS
10
49.9514
20
-104.651
11
49.7776
21
-104.614
0
LINE
8
BLACK
6
CONTINUOUS
10
49.7776
20
-104.614
11
49.6153
21
-104.541
0
LINE
8
BLACK
6
CONTINUOUS
10
49.6153
20
-104.541
11
49.4715
21
-104.437
0
LINE
8
BLACK
6
CONTINUOUS
10
49.4715
20
-104.437
11
49.3526
21
-104.305
0
LINE
8
BLACK
6
CONTINUOUS
10
49.3526
20
-104.305
11
49.2638
21
-104.151
0
LINE
8
BLACK
6
CONTINUOUS
10
49.2638
20
-104.151
11
49.2089
21
-103.982
0
LINE
8
BLACK
6
CONTINUOUS
10
49.2089
20
-103.982
11
49.1903
21
-103.805
0
LINE
8
BLACK
6
CONTINUOUS
10
49.1903
20
-103.805
11
49.2089
21
-103.628
0
LINE
8
BLACK
6
CONTINUOUS
10
49.2089
20
-103.628
11
49.2638
21
-103.459
0
LINE
8
BLACK
6
CONTINUOUS
10
49.2638
20
-103.459
11
49.3526
21
-103.306
0
LINE
8
BLACK
6
CONTINUOUS
10
49.3526
20
-103.306
11
49.4715
21
-103.174
0
LINE
8
BLACK
6
CONTINUOUS
10
49.4715
20
-103.174
11
49.6153
21
-103.069
0
LINE
8
BLACK
6
CONTINUOUS
10
49.6153
20
-103.069
11
49.7776
21
-102.997
0
LINE
8
BLACK
6
CONTINUOUS
10
49.7776
20
-102.997
11
49.9514
21
-102.96
0
LINE
8
BLACK
6
CONTINUOUS
10
49.9514
20
-102.96
11
50.1291
21
-102.96
0
LINE
8
BLACK
6
CONTINUOUS
10
50.1291
20
-102.96
11
50.303
21
-102.997
0
LINE
8
BLACK
6
CONTINUOUS
10
135.797
20
-102.996
11
135.959
21
-103.069
0
LINE
8
BLACK
6
CONTINUOUS
10
135.959
20
-103.069
11
136.103
21
-103.173
0
LINE
8
BLACK
6
CONTINUOUS
10
136.103
20
-103.173
11
136.222
21
-103.305
0
LINE
8
BLACK
6
CONTINUOUS
10
136.222
20
-103.305
11
136.311
21
-103.459
0
LINE
8
BLACK
6
CONTINUOUS
10
136.311
20
-103.459
11
136.366
21
-103.628
0
LINE
8
BLACK
6
CONTINUOUS
10
136.366
20
-103.628
11
136.384
21
-103.805
0
LINE
8
BLACK
6
CONTINUOUS
10
136.384
20
-103.805
11
136.366
21
-103.982
0
LINE
8
BLACK
6
CONTINUOUS
10
136.366
20
-103.982
11
136.311
21
-104.151
0
LINE
8
BLACK
6
CONTINUOUS
10
136.311
20
-104.151
11
136.222
21
-104.304
0
LINE
8
BLACK
6
CONTINUOUS
10
136.222
20
-104.304
11
136.103
21
-104.436
0
LINE
8
BLACK
6
CONTINUOUS
10
136.103
20
-104.436
11
135.959
21
-104.541
0
LINE
8
BLACK
6
CONTINUOUS
10
135.959
20
-104.541
11
135.797
21
-104.613
0
LINE
8
BLACK
6
CONTINUOUS
10
135.797
20
-104.613
11
135.623
21
-104.65
0
LINE
8
BLACK
6
CONTINUOUS
10
135.623
20
-104.65
11
135.446
21
-104.65
0
LINE
8
BLACK
6
CONTINUOUS
10
135.446
20
-104.65
11
135.272
21
-104.613
0
LINE
8
BLACK
6
CONTINUOUS
10
135.272
20
-104.613
11
135.109
21
-104.541
0
LINE
8
BLACK
6
CONTINUOUS
10
135.109
20
-104.541
11
134.966
21
-104.436
0
LINE
8
BLACK
6
CONTINUOUS
10
134.966
20
-104.436
11
134.847
21
-104.304
0
LINE
8
BLACK
6
CONTINUOUS
10
134.847
20
-104.304
11
134.758
21
-104.151
0
LINE
8
BLACK
6
CONTINUOUS
10
134.758
20
-104.151
11
134.703
21
-103.982
0
LINE
8
BLACK
6
CONTINUOUS
10
134.703
20
-103.982
11
134.684
21
-103.805
0
LINE
8
BLACK
6
CONTINUOUS
10
134.684
20
-103.805
11
134.703
21
-103.628
0
LINE
8
BLACK
6
CONTINUOUS
10
134.703
20
-103.628
11
134.758
21
-103.459
0
LINE
8
BLACK
6
CONTINUOUS
10
134.758
20
-103.459
11
134.847
21
-103.305
0
LINE
8
BLACK
6
CONTINUOUS
10
134.847
20
-103.305
11
134.966
21
-103.173
0
LINE
8
BLACK
6
CONTINUOUS
10
134.966
20
-103.173
11
135.109
21
-103.069
0
LINE
8
BLACK
6
CONTINUOUS
10
135.109
20
-103.069
11
135.272
21
-102.996
0
LINE
8
BLACK
6
CONTINUOUS
10
135.272
20
-102.996
11
135.446
21
-102.959
0
LINE
8
BLACK
6
CONTINUOUS
10
135.446
20
-102.959
11
135.623
21
-102.959
0
LINE
8
BLACK
6
CONTINUOUS
10
135.623
20
-102.959
11
135.797
21
-102.996
0
LINE
8
BLACK
6
CONTINUOUS
10
52.5027
20
-101.727
11
52.665
21
-101.799
0
LINE
8
BLACK
6
CONTINUOUS
10
52.665
20
-101.799
11
52.8088
21
-101.904
0
LINE
8
BLACK
6
CONTINUOUS
10
52.8088
20
-101.904
11
52.9277
21
-102.036
0
LINE
8
BLACK
6
CONTINUOUS
10
52.9277
20
-102.036
11
53.0165
21
-102.189
0
LINE
8
BLACK
6
CONTINUOUS
10
53.0165
20
-102.189
11
53.0714
21
-102.358
0
LINE
8
BLACK
6
CONTINUOUS
10
53.0714
20
-102.358
11
53.09
21
-102.535
0
LINE
8
BLACK
6
CONTINUOUS
10
53.09
20
-102.535
11
53.0714
21
-102.712
0
LINE
8
BLACK
6
CONTINUOUS
10
53.0714
20
-102.712
11
53.0165
21
-102.881
0
LINE
8
BLACK
6
CONTINUOUS
10
53.0165
20
-102.881
11
52.9277
21
-103.035
0
LINE
8
BLACK
6
CONTINUOUS
10
52.9277
20
-103.035
11
52.8088
21
-103.167
0
LINE
8
BLACK
6
CONTINUOUS
10
52.8088
20
-103.167
11
52.665
21
-103.271
0
LINE
8
BLACK
6
CONTINUOUS
10
52.665
20
-103.271
11
52.5027
21
-103.344
0
LINE
8
BLACK
6
CONTINUOUS
10
52.5027
20
-103.344
11
52.3289
21
-103.381
0
LINE
8
BLACK
6
CONTINUOUS
10
52.3289
20
-103.381
11
52.1512
21
-103.381
0
LINE
8
BLACK
6
CONTINUOUS
10
52.1512
20
-103.381
11
51.9773
21
-103.344
0
LINE
8
BLACK
6
CONTINUOUS
10
51.9773
20
-103.344
11
51.815
21
-103.271
0
LINE
8
BLACK
6
CONTINUOUS
10
51.815
20
-103.271
11
51.6712
21
-103.167
0
LINE
8
BLACK
6
CONTINUOUS
10
51.6712
20
-103.167
11
51.5523
21
-103.035
0
LINE
8
BLACK
6
CONTINUOUS
10
51.5523
20
-103.035
11
51.4635
21
-102.881
0
LINE
8
BLACK
6
CONTINUOUS
10
51.4635
20
-102.881
11
51.4086
21
-102.712
0
LINE
8
BLACK
6
CONTINUOUS
10
51.4086
20
-102.712
11
51.39
21
-102.535
0
LINE
8
BLACK
6
CONTINUOUS
10
51.39
20
-102.535
11
51.4086
21
-102.358
0
LINE
8
BLACK
6
CONTINUOUS
10
51.4086
20
-102.358
11
51.4635
21
-102.189
0
LINE
8
BLACK
6
CONTINUOUS
10
51.4635
20
-102.189
11
51.5523
21
-102.036
0
LINE
8
BLACK
6
CONTINUOUS
10
51.5523
20
-102.036
11
51.6712
21
-101.904
0
LINE
8
BLACK
6
CONTINUOUS
10
51.6712
20
-101.904
11
51.815
21
-101.799
0
LINE
8
BLACK
6
CONTINUOUS
10
51.815
20
-101.799
11
51.9773
21
-101.727
0
LINE
8
BLACK
6
CONTINUOUS
10
51.9773
20
-101.727
11
52.1512
21
-101.69
0
LINE
8
BLACK
6
CONTINUOUS
10
52.1512
20
-101.69
11
52.3289
21
-101.69
0
LINE
8
BLACK
6
CONTINUOUS
10
52.3289
20
-101.69
11
52.5027
21
-101.727
0
LINE
8
BLACK
6
CONTINUOUS
10
133.597
20
-101.726
11
133.76
21
-101.799
0
LINE
8
BLACK
6
CONTINUOUS
10
133.76
20
-101.799
11
133.904
21
-101.903
0
LINE
8
BLACK
6
CONTINUOUS
10
133.904
20
-101.903
11
134.022
21
-102.035
0
LINE
8
BLACK
6
CONTINUOUS
10
134.022
20
-102.035
11
134.111
21
-102.189
0
LINE
8
BLACK
6
CONTINUOUS
10
134.111
20
-102.189
11
134.166
21
-102.358
0
LINE
8
BLACK
6
CONTINUOUS
10
134.166
20
-102.358
11
134.185
21
-102.535
0
LINE
8
BLACK
6
CONTINUOUS
10
134.185
20
-102.535
11
134.166
21
-102.712
0
LINE
8
BLACK
6
CONTINUOUS
10
134.166
20
-102.712
11
134.111
21
-102.881
0
LINE
8
BLACK
6
CONTINUOUS
10
134.111
20
-102.881
11
134.022
21
-103.034
0
LINE
8
BLACK
6
CONTINUOUS
10
134.022
20
-103.034
11
133.904
21
-103.166
0
LINE
8
BLACK
6
CONTINUOUS
10
133.904
20
-103.166
11
133.76
21
-103.271
0
LINE
8
BLACK
6
CONTINUOUS
10
133.76
20
-103.271
11
133.597
21
-103.343
0
LINE
8
BLACK
6
CONTINUOUS
10
133.597
20
-103.343
11
133.424
21
-103.38
0
LINE
8
BLACK
6
CONTINUOUS
10
133.424
20
-103.38
11
133.246
21
-103.38
0
LINE
8
BLACK
6
CONTINUOUS
10
133.246
20
-103.38
11
133.072
21
-103.343
0
LINE
8
BLACK
6
CONTINUOUS
10
133.072
20
-103.343
11
132.91
21
-103.271
0
LINE
8
BLACK
6
CONTINUOUS
10
132.91
20
-103.271
11
132.766
21
-103.166
0
LINE
8
BLACK
6
CONTINUOUS
10
132.766
20
-103.166
11
132.647
21
-103.034
0
LINE
8
BLACK
6
CONTINUOUS
10
132.647
20
-103.034
11
132.558
21
-102.881
0
LINE
8
BLACK
6
CONTINUOUS
10
132.558
20
-102.881
11
132.503
21
-102.712
0
LINE
8
BLACK
6
CONTINUOUS
10
132.503
20
-102.712
11
132.485
21
-102.535
0
LINE
8
BLACK
6
CONTINUOUS
10
132.485
20
-102.535
11
132.503
21
-102.358
0
LINE
8
BLACK
6
CONTINUOUS
10
132.503
20
-102.358
11
132.558
21
-102.189
0
LINE
8
BLACK
6
CONTINUOUS
10
132.558
20
-102.189
11
132.647
21
-102.035
0
LINE
8
BLACK
6
CONTINUOUS
10
132.647
20
-102.035
11
132.766
21
-101.903
0
LINE
8
BLACK
6
CONTINUOUS
10
132.766
20
-101.903
11
132.91
21
-101.799
0
LINE
8
BLACK
6
CONTINUOUS
10
132.91
20
-101.799
11
133.072
21
-101.726
0
LINE
8
BLACK
6
CONTINUOUS
10
133.072
20
-101.726
11
133.246
21
-101.689
0
LINE
8
BLACK
6
CONTINUOUS
10
133.246
20
-101.689
11
133.424
21
-101.689
0
LINE
8
BLACK
6
CONTINUOUS
10
133.424
20
-101.689
11
133.597
21
-101.726
0
LINE
8
BLACK
6
CONTINUOUS
10
49.033
20
-100.797
11
49.1953
21
-100.869
0
LINE
8
BLACK
6
CONTINUOUS
10
49.1953
20
-100.869
11
49.3391
21
-100.974
0
LINE
8
BLACK
6
CONTINUOUS
10
49.3391
20
-100.974
11
49.458
21
-101.106
0
LINE
8
BLACK
6
CONTINUOUS
10
49.458
20
-101.106
11
49.5468
21
-101.26
0
LINE
8
BLACK
6
CONTINUOUS
10
49.5468
20
-101.26
11
49.6017
21
-101.429
0
LINE
8
BLACK
6
CONTINUOUS
10
49.6017
20
-101.429
11
49.6203
21
-101.605
0
LINE
8
BLACK
6
CONTINUOUS
10
49.6203
20
-101.605
11
49.6017
21
-101.782
0
LINE
8
BLACK
6
CONTINUOUS
10
49.6017
20
-101.782
11
49.5468
21
-101.951
0
LINE
8
BLACK
6
CONTINUOUS
10
49.5468
20
-101.951
11
49.458
21
-102.105
0
LINE
8
BLACK
6
CONTINUOUS
10
49.458
20
-102.105
11
49.3391
21
-102.237
0
LINE
8
BLACK
6
CONTINUOUS
10
49.3391
20
-102.237
11
49.1953
21
-102.342
0
LINE
8
BLACK
6
CONTINUOUS
10
49.1953
20
-102.342
11
49.033
21
-102.414
0
LINE
8
BLACK
6
CONTINUOUS
10
49.033
20
-102.414
11
48.8591
21
-102.451
0
LINE
8
BLACK
6
CONTINUOUS
10
48.8591
20
-102.451
11
48.6814
21
-102.451
0
LINE
8
BLACK
6
CONTINUOUS
10
48.6814
20
-102.451
11
48.5076
21
-102.414
0
LINE
8
BLACK
6
CONTINUOUS
10
48.5076
20
-102.414
11
48.3453
21
-102.342
0
LINE
8
BLACK
6
CONTINUOUS
10
48.3453
20
-102.342
11
48.2015
21
-102.237
0
LINE
8
BLACK
6
CONTINUOUS
10
48.2015
20
-102.237
11
48.0826
21
-102.105
0
LINE
8
BLACK
6
CONTINUOUS
10
48.0826
20
-102.105
11
47.9938
21
-101.951
0
LINE
8
BLACK
6
CONTINUOUS
10
47.9938
20
-101.951
11
47.9389
21
-101.782
0
LINE
8
BLACK
6
CONTINUOUS
10
47.9389
20
-101.782
11
47.9203
21
-101.605
0
LINE
8
BLACK
6
CONTINUOUS
10
47.9203
20
-101.605
11
47.9389
21
-101.429
0
LINE
8
BLACK
6
CONTINUOUS
10
47.9389
20
-101.429
11
47.9938
21
-101.26
0
LINE
8
BLACK
6
CONTINUOUS
10
47.9938
20
-101.26
11
48.0826
21
-101.106
0
LINE
8
BLACK
6
CONTINUOUS
10
48.0826
20
-101.106
11
48.2015
21
-100.974
0
LINE
8
BLACK
6
CONTINUOUS
10
48.2015
20
-100.974
11
48.3453
21
-100.869
0
LINE
8
BLACK
6
CONTINUOUS
10
48.3453
20
-100.869
11
48.5076
21
-100.797
0
LINE
8
BLACK
6
CONTINUOUS
10
48.5076
20
-100.797
11
48.6814
21
-100.76
0
LINE
8
BLACK
6
CONTINUOUS
10
48.6814
20
-100.76
11
48.8591
21
-100.76
0
LINE
8
BLACK
6
CONTINUOUS
10
48.8591
20
-100.76
11
49.033
21
-100.797
0
LINE
8
BLACK
6
CONTINUOUS
10
137.067
20
-100.797
11
137.229
21
-100.869
0
LINE
8
BLACK
6
CONTINUOUS
10
137.229
20
-100.869
11
137.373
21
-100.973
0
LINE
8
BLACK
6
CONTINUOUS
10
137.373
20
-100.973
11
137.492
21
-101.105
0
LINE
8
BLACK
6
CONTINUOUS
10
137.492
20
-101.105
11
137.581
21
-101.259
0
LINE
8
BLACK
6
CONTINUOUS
10
137.581
20
-101.259
11
137.636
21
-101.428
0
LINE
8
BLACK
6
CONTINUOUS
10
137.636
20
-101.428
11
137.654
21
-101.605
0
LINE
8
BLACK
6
CONTINUOUS
10
137.654
20
-101.605
11
137.636
21
-101.782
0
LINE
8
BLACK
6
CONTINUOUS
10
137.636
20
-101.782
11
137.581
21
-101.951
0
LINE
8
BLACK
6
CONTINUOUS
10
137.581
20
-101.951
11
137.492
21
-102.105
0
LINE
8
BLACK
6
CONTINUOUS
10
137.492
20
-102.105
11
137.373
21
-102.237
0
LINE
8
BLACK
6
CONTINUOUS
10
137.373
20
-102.237
11
137.229
21
-102.341
0
LINE
8
BLACK
6
CONTINUOUS
10
137.229
20
-102.341
11
137.067
21
-102.413
0
LINE
8
BLACK
6
CONTINUOUS
10
137.067
20
-102.413
11
136.893
21
-102.45
0
LINE
8
BLACK
6
CONTINUOUS
10
136.893
20
-102.45
11
136.716
21
-102.45
0
LINE
8
BLACK
6
CONTINUOUS
10
136.716
20
-102.45
11
136.542
21
-102.413
0
LINE
8
BLACK
6
CONTINUOUS
10
136.542
20
-102.413
11
136.379
21
-102.341
0
LINE
8
BLACK
6
CONTINUOUS
10
136.379
20
-102.341
11
136.236
21
-102.237
0
LINE
8
BLACK
6
CONTINUOUS
10
136.236
20
-102.237
11
136.117
21
-102.105
0
LINE
8
BLACK
6
CONTINUOUS
10
136.117
20
-102.105
11
136.028
21
-101.951
0
LINE
8
BLACK
6
CONTINUOUS
10
136.028
20
-101.951
11
135.973
21
-101.782
0
LINE
8
BLACK
6
CONTINUOUS
10
135.973
20
-101.782
11
135.954
21
-101.605
0
LINE
8
BLACK
6
CONTINUOUS
10
135.954
20
-101.605
11
135.973
21
-101.428
0
LINE
8
BLACK
6
CONTINUOUS
10
135.973
20
-101.428
11
136.028
21
-101.259
0
LINE
8
BLACK
6
CONTINUOUS
10
136.028
20
-101.259
11
136.117
21
-101.105
0
LINE
8
BLACK
6
CONTINUOUS
10
136.117
20
-101.105
11
136.236
21
-100.973
0
LINE
8
BLACK
6
CONTINUOUS
10
136.236
20
-100.973
11
136.379
21
-100.869
0
LINE
8
BLACK
6
CONTINUOUS
10
136.379
20
-100.869
11
136.542
21
-100.797
0
LINE
8
BLACK
6
CONTINUOUS
10
136.542
20
-100.797
11
136.716
21
-100.76
0
LINE
8
BLACK
6
CONTINUOUS
10
136.716
20
-100.76
11
136.893
21
-100.76
0
LINE
8
BLACK
6
CONTINUOUS
10
136.893
20
-100.76
11
137.067
21
-100.797
0
LINE
8
BLACK
6
CONTINUOUS
10
51.2327
20
-99.5271
11
51.395
21
-99.5994
0
LINE
8
BLACK
6
CONTINUOUS
10
51.395
20
-99.5994
11
51.5388
21
-99.7038
0
LINE
8
BLACK
6
CONTINUOUS
10
51.5388
20
-99.7038
11
51.6577
21
-99.8359
0
LINE
8
BLACK
6
CONTINUOUS
10
51.6577
20
-99.8359
11
51.7465
21
-99.9898
0
LINE
8
BLACK
6
CONTINUOUS
10
51.7465
20
-99.9898
11
51.8014
21
-100.159
0
LINE
8
BLACK
6
CONTINUOUS
10
51.8014
20
-100.159
11
51.82
21
-100.335
0
LINE
8
BLACK
6
CONTINUOUS
10
51.82
20
-100.335
11
51.8014
21
-100.512
0
LINE
8
BLACK
6
CONTINUOUS
10
51.8014
20
-100.512
11
51.7465
21
-100.681
0
LINE
8
BLACK
6
CONTINUOUS
10
51.7465
20
-100.681
11
51.6577
21
-100.835
0
LINE
8
BLACK
6
CONTINUOUS
10
51.6577
20
-100.835
11
51.5388
21
-100.967
0
LINE
8
BLACK
6
CONTINUOUS
10
51.5388
20
-100.967
11
51.395
21
-101.072
0
LINE
8
BLACK
6
CONTINUOUS
10
51.395
20
-101.072
11
51.2327
21
-101.144
0
LINE
8
BLACK
6
CONTINUOUS
10
51.2327
20
-101.144
11
51.0589
21
-101.181
0
LINE
8
BLACK
6
CONTINUOUS
10
51.0589
20
-101.181
11
50.8812
21
-101.181
0
LINE
8
BLACK
6
CONTINUOUS
10
50.8812
20
-101.181
11
50.7073
21
-101.144
0
LINE
8
BLACK
6
CONTINUOUS
10
50.7073
20
-101.144
11
50.545
21
-101.072
0
LINE
8
BLACK
6
CONTINUOUS
10
50.545
20
-101.072
11
50.4012
21
-100.967
0
LINE
8
BLACK
6
CONTINUOUS
10
50.4012
20
-100.967
11
50.2823
21
-100.835
0
LINE
8
BLACK
6
CONTINUOUS
10
50.2823
20
-100.835
11
50.1935
21
-100.681
0
LINE
8
BLACK
6
CONTINUOUS
10
50.1935
20
-100.681
11
50.1386
21
-100.512
0
LINE
8
BLACK
6
CONTINUOUS
10
50.1386
20
-100.512
11
50.12
21
-100.335
0
LINE
8
BLACK
6
CONTINUOUS
10
50.12
20
-100.335
11
50.1386
21
-100.159
0
LINE
8
BLACK
6
CONTINUOUS
10
50.1386
20
-100.159
11
50.1935
21
-99.9898
0
LINE
8
BLACK
6
CONTINUOUS
10
50.1935
20
-99.9898
11
50.2823
21
-99.8359
0
LINE
8
BLACK
6
CONTINUOUS
10
50.2823
20
-99.8359
11
50.4012
21
-99.7038
0
LINE
8
BLACK
6
CONTINUOUS
10
50.4012
20
-99.7038
11
50.545
21
-99.5994
0
LINE
8
BLACK
6
CONTINUOUS
10
50.545
20
-99.5994
11
50.7073
21
-99.5271
0
LINE
8
BLACK
6
CONTINUOUS
10
50.7073
20
-99.5271
11
50.8812
21
-99.4901
0
LINE
8
BLACK
6
CONTINUOUS
10
50.8812
20
-99.4901
11
51.0589
21
-99.4901
0
LINE
8
BLACK
6
CONTINUOUS
10
51.0589
20
-99.4901
11
51.2327
21
-99.5271
0
LINE
8
BLACK
6
CONTINUOUS
10
134.867
20
-99.5267
11
135.03
21
-99.599
0
LINE
8
BLACK
6
CONTINUOUS
10
135.03
20
-99.599
11
135.174
21
-99.7034
0
LINE
8
BLACK
6
CONTINUOUS
10
135.174
20
-99.7034
11
135.292
21
-99.8355
0
LINE
8
BLACK
6
CONTINUOUS
10
135.292
20
-99.8355
11
135.381
21
-99.9894
0
LINE
8
BLACK
6
CONTINUOUS
10
135.381
20
-99.9894
11
135.436
21
-100.158
0
LINE
8
BLACK
6
CONTINUOUS
10
135.436
20
-100.158
11
135.455
21
-100.335
0
LINE
8
BLACK
6
CONTINUOUS
10
135.455
20
-100.335
11
135.436
21
-100.512
0
LINE
8
BLACK
6
CONTINUOUS
10
135.436
20
-100.512
11
135.381
21
-100.681
0
LINE
8
BLACK
6
CONTINUOUS
10
135.381
20
-100.681
11
135.292
21
-100.835
0
LINE
8
BLACK
6
CONTINUOUS
10
135.292
20
-100.835
11
135.174
21
-100.967
0
LINE
8
BLACK
6
CONTINUOUS
10
135.174
20
-100.967
11
135.03
21
-101.071
0
LINE
8
BLACK
6
CONTINUOUS
10
135.03
20
-101.071
11
134.867
21
-101.143
0
LINE
8
BLACK
6
CONTINUOUS
10
134.867
20
-101.143
11
134.694
21
-101.18
0
LINE
8
BLACK
6
CONTINUOUS
10
134.694
20
-101.18
11
134.516
21
-101.18
0
LINE
8
BLACK
6
CONTINUOUS
10
134.516
20
-101.18
11
134.342
21
-101.143
0
LINE
8
BLACK
6
CONTINUOUS
10
134.342
20
-101.143
11
134.18
21
-101.071
0
LINE
8
BLACK
6
CONTINUOUS
10
134.18
20
-101.071
11
134.036
21
-100.967
0
LINE
8
BLACK
6
CONTINUOUS
10
134.036
20
-100.967
11
133.917
21
-100.835
0
LINE
8
BLACK
6
CONTINUOUS
10
133.917
20
-100.835
11
133.828
21
-100.681
0
LINE
8
BLACK
6
CONTINUOUS
10
133.828
20
-100.681
11
133.773
21
-100.512
0
LINE
8
BLACK
6
CONTINUOUS
10
133.773
20
-100.512
11
133.755
21
-100.335
0
LINE
8
BLACK
6
CONTINUOUS
10
133.755
20
-100.335
11
133.773
21
-100.158
0
LINE
8
BLACK
6
CONTINUOUS
10
133.773
20
-100.158
11
133.828
21
-99.9894
0
LINE
8
BLACK
6
CONTINUOUS
10
133.828
20
-99.9894
11
133.917
21
-99.8355
0
LINE
8
BLACK
6
CONTINUOUS
10
133.917
20
-99.8355
11
134.036
21
-99.7034
0
LINE
8
BLACK
6
CONTINUOUS
10
134.036
20
-99.7034
11
134.18
21
-99.599
0
LINE
8
BLACK
6
CONTINUOUS
10
134.18
20
-99.599
11
134.342
21
-99.5267
0
LINE
8
BLACK
6
CONTINUOUS
10
134.342
20
-99.5267
11
134.516
21
-99.4898
0
LINE
8
BLACK
6
CONTINUOUS
10
134.516
20
-99.4898
11
134.694
21
-99.4898
0
LINE
8
BLACK
6
CONTINUOUS
10
134.694
20
-99.4898
11
134.867
21
-99.5267
0
LINE
8
BLACK
6
CONTINUOUS
10
47.763
20
-98.5974
11
47.9253
21
-98.6696
0
LINE
8
BLACK
6
CONTINUOUS
10
47.9253
20
-98.6696
11
48.0691
21
-98.7741
0
LINE
8
BLACK
6
CONTINUOUS
10
48.0691
20
-98.7741
11
48.188
21
-98.9062
0
LINE
8
BLACK
6
CONTINUOUS
10
48.188
20
-98.9062
11
48.2768
21
-99.06
0
LINE
8
BLACK
6
CONTINUOUS
10
48.2768
20
-99.06
11
48.3317
21
-99.229
0
LINE
8
BLACK
6
CONTINUOUS
10
48.3317
20
-99.229
11
48.3503
21
-99.4058
0
LINE
8
BLACK
6
CONTINUOUS
10
48.3503
20
-99.4058
11
48.3317
21
-99.5825
0
LINE
8
BLACK
6
CONTINUOUS
10
48.3317
20
-99.5825
11
48.2768
21
-99.7515
0
LINE
8
BLACK
6
CONTINUOUS
10
48.2768
20
-99.7515
11
48.188
21
-99.9054
0
LINE
8
BLACK
6
CONTINUOUS
10
48.188
20
-99.9054
11
48.0691
21
-100.037
0
LINE
8
BLACK
6
CONTINUOUS
10
48.0691
20
-100.037
11
47.9253
21
-100.142
0
LINE
8
BLACK
6
CONTINUOUS
10
47.9253
20
-100.142
11
47.763
21
-100.214
0
LINE
8
BLACK
6
CONTINUOUS
10
47.763
20
-100.214
11
47.5891
21
-100.251
0
LINE
8
BLACK
6
CONTINUOUS
10
47.5891
20
-100.251
11
47.4114
21
-100.251
0
LINE
8
BLACK
6
CONTINUOUS
10
47.4114
20
-100.251
11
47.2376
21
-100.214
0
LINE
8
BLACK
6
CONTINUOUS
10
47.2376
20
-100.214
11
47.0753
21
-100.142
0
LINE
8
BLACK
6
CONTINUOUS
10
47.0753
20
-100.142
11
46.9315
21
-100.037
0
LINE
8
BLACK
6
CONTINUOUS
10
46.9315
20
-100.037
11
46.8126
21
-99.9054
0
LINE
8
BLACK
6
CONTINUOUS
10
46.8126
20
-99.9054
11
46.7238
21
-99.7515
0
LINE
8
BLACK
6
CONTINUOUS
10
46.7238
20
-99.7515
11
46.6689
21
-99.5825
0
LINE
8
BLACK
6
CONTINUOUS
10
46.6689
20
-99.5825
11
46.6503
21
-99.4058
0
LINE
8
BLACK
6
CONTINUOUS
10
46.6503
20
-99.4058
11
46.6689
21
-99.229
0
LINE
8
BLACK
6
CONTINUOUS
10
46.6689
20
-99.229
11
46.7238
21
-99.06
0
LINE
8
BLACK
6
CONTINUOUS
10
46.7238
20
-99.06
11
46.8126
21
-98.9062
0
LINE
8
BLACK
6
CONTINUOUS
10
46.8126
20
-98.9062
11
46.9315
21
-98.7741
0
LINE
8
BLACK
6
CONTINUOUS
10
46.9315
20
-98.7741
11
47.0753
21
-98.6696
0
LINE
8
BLACK
6
CONTINUOUS
10
47.0753
20
-98.6696
11
47.2376
21
-98.5974
0
LINE
8
BLACK
6
CONTINUOUS
10
47.2376
20
-98.5974
11
47.4114
21
-98.5604
0
LINE
8
BLACK
6
CONTINUOUS
10
47.4114
20
-98.5604
11
47.5891
21
-98.5604
0
LINE
8
BLACK
6
CONTINUOUS
10
47.5891
20
-98.5604
11
47.763
21
-98.5974
0
LINE
8
BLACK
6
CONTINUOUS
10
138.337
20
-98.597
11
138.499
21
-98.6693
0
LINE
8
BLACK
6
CONTINUOUS
10
138.499
20
-98.6693
11
138.643
21
-98.7737
0
LINE
8
BLACK
6
CONTINUOUS
10
138.643
20
-98.7737
11
138.762
21
-98.9058
0
LINE
8
BLACK
6
CONTINUOUS
10
138.762
20
-98.9058
11
138.851
21
-99.0597
0
LINE
8
BLACK
6
CONTINUOUS
10
138.851
20
-99.0597
11
138.906
21
-99.2287
0
LINE
8
BLACK
6
CONTINUOUS
10
138.906
20
-99.2287
11
138.924
21
-99.4054
0
LINE
8
BLACK
6
CONTINUOUS
10
138.924
20
-99.4054
11
138.906
21
-99.5821
0
LINE
8
BLACK
6
CONTINUOUS
10
138.906
20
-99.5821
11
138.851
21
-99.7511
0
LINE
8
BLACK
6
CONTINUOUS
10
138.851
20
-99.7511
11
138.762
21
-99.905
0
LINE
8
BLACK
6
CONTINUOUS
10
138.762
20
-99.905
11
138.643
21
-100.037
0
LINE
8
BLACK
6
CONTINUOUS
10
138.643
20
-100.037
11
138.499
21
-100.142
0
LINE
8
BLACK
6
CONTINUOUS
10
138.499
20
-100.142
11
138.337
21
-100.214
0
LINE
8
BLACK
6
CONTINUOUS
10
138.337
20
-100.214
11
138.163
21
-100.251
0
LINE
8
BLACK
6
CONTINUOUS
10
138.163
20
-100.251
11
137.986
21
-100.251
0
LINE
8
BLACK
6
CONTINUOUS
10
137.986
20
-100.251
11
137.812
21
-100.214
0
LINE
8
BLACK
6
CONTINUOUS
10
137.812
20
-100.214
11
137.649
21
-100.142
0
LINE
8
BLACK
6
CONTINUOUS
10
137.649
20
-100.142
11
137.506
21
-100.037
0
LINE
8
BLACK
6
CONTINUOUS
10
137.506
20
-100.037
11
137.387
21
-99.905
0
LINE
8
BLACK
6
CONTINUOUS
10
137.387
20
-99.905
11
137.298
21
-99.7511
0
LINE
8
BLACK
6
CONTINUOUS
10
137.298
20
-99.7511
11
137.243
21
-99.5821
0
LINE
8
BLACK
6
CONTINUOUS
10
137.243
20
-99.5821
11
137.224
21
-99.4054
0
LINE
8
BLACK
6
CONTINUOUS
10
137.224
20
-99.4054
11
137.243
21
-99.2287
0
LINE
8
BLACK
6
CONTINUOUS
10
137.243
20
-99.2287
11
137.298
21
-99.0597
0
LINE
8
BLACK
6
CONTINUOUS
10
137.298
20
-99.0597
11
137.387
21
-98.9058
0
LINE
8
BLACK
6
CONTINUOUS
10
137.387
20
-98.9058
11
137.506
21
-98.7737
0
LINE
8
BLACK
6
CONTINUOUS
10
137.506
20
-98.7737
11
137.649
21
-98.6693
0
LINE
8
BLACK
6
CONTINUOUS
10
137.649
20
-98.6693
11
137.812
21
-98.597
0
LINE
8
BLACK
6
CONTINUOUS
10
137.812
20
-98.597
11
137.986
21
-98.5601
0
LINE
8
BLACK
6
CONTINUOUS
10
137.986
20
-98.5601
11
138.163
21
-98.5601
0
LINE
8
BLACK
6
CONTINUOUS
10
138.163
20
-98.5601
11
138.337
21
-98.597
0
LINE
8
BLACK
6
CONTINUOUS
10
49.9627
20
-97.3274
11
50.125
21
-97.3996
0
LINE
8
BLACK
6
CONTINUOUS
10
50.125
20
-97.3996
11
50.2688
21
-97.5041
0
LINE
8
BLACK
6
CONTINUOUS
10
50.2688
20
-97.5041
11
50.3877
21
-97.6362
0
LINE
8
BLACK
6
CONTINUOUS
10
50.3877
20
-97.6362
11
50.4765
21
-97.79
0
LINE
8
BLACK
6
CONTINUOUS
10
50.4765
20
-97.79
11
50.5314
21
-97.959
0
LINE
8
BLACK
6
CONTINUOUS
10
50.5314
20
-97.959
11
50.55
21
-98.1358
0
LINE
8
BLACK
6
CONTINUOUS
10
50.55
20
-98.1358
11
50.5314
21
-98.3125
0
LINE
8
BLACK
6
CONTINUOUS
10
50.5314
20
-98.3125
11
50.4765
21
-98.4815
0
LINE
8
BLACK
6
CONTINUOUS
10
50.4765
20
-98.4815
11
50.3877
21
-98.6354
0
LINE
8
BLACK
6
CONTINUOUS
10
50.3877
20
-98.6354
11
50.2688
21
-98.7674
0
LINE
8
BLACK
6
CONTINUOUS
10
50.2688
20
-98.7674
11
50.125
21
-98.8719
0
LINE
8
BLACK
6
CONTINUOUS
10
50.125
20
-98.8719
11
49.9627
21
-98.9442
0
LINE
8
BLACK
6
CONTINUOUS
10
49.9627
20
-98.9442
11
49.7889
21
-98.9811
0
LINE
8
BLACK
6
CONTINUOUS
10
49.7889
20
-98.9811
11
49.6112
21
-98.9811
0
LINE
8
BLACK
6
CONTINUOUS
10
49.6112
20
-98.9811
11
49.4373
21
-98.9442
0
LINE
8
BLACK
6
CONTINUOUS
10
49.4373
20
-98.9442
11
49.275
21
-98.8719
0
LINE
8
BLACK
6
CONTINUOUS
10
49.275
20
-98.8719
11
49.1312
21
-98.7674
0
LINE
8
BLACK
6
CONTINUOUS
10
49.1312
20
-98.7674
11
49.0123
21
-98.6354
0
LINE
8
BLACK
6
CONTINUOUS
10
49.0123
20
-98.6354
11
48.9235
21
-98.4815
0
LINE
8
BLACK
6
CONTINUOUS
10
48.9235
20
-98.4815
11
48.8686
21
-98.3125
0
LINE
8
BLACK
6
CONTINUOUS
10
48.8686
20
-98.3125
11
48.85
21
-98.1358
0
LINE
8
BLACK
6
CONTINUOUS
10
48.85
20
-98.1358
11
48.8686
21
-97.959
0
LINE
8
BLACK
6
CONTINUOUS
10
48.8686
20
-97.959
11
48.9235
21
-97.79
0
LINE
8
BLACK
6
CONTINUOUS
10
48.9235
20
-97.79
11
49.0123
21
-97.6362
0
LINE
8
BLACK
6
CONTINUOUS
10
49.0123
20
-97.6362
11
49.1312
21
-97.5041
0
LINE
8
BLACK
6
CONTINUOUS
10
49.1312
20
-97.5041
11
49.275
21
-97.3996
0
LINE
8
BLACK
6
CONTINUOUS
10
49.275
20
-97.3996
11
49.4373
21
-97.3274
0
LINE
8
BLACK
6
CONTINUOUS
10
49.4373
20
-97.3274
11
49.6112
21
-97.2904
0
LINE
8
BLACK
6
CONTINUOUS
10
49.6112
20
-97.2904
11
49.7889
21
-97.2904
0
LINE
8
BLACK
6
CONTINUOUS
10
49.7889
20
-97.2904
11
49.9627
21
-97.3274
0
LINE
8
BLACK
6
CONTINUOUS
10
136.137
20
-97.327
11
136.3
21
-97.3993
0
LINE
8
BLACK
6
CONTINUOUS
10
136.3
20
-97.3993
11
136.444
21
-97.5037
0
LINE
8
BLACK
6
CONTINUOUS
10
136.444
20
-97.5037
11
136.562
21
-97.6358
0
LINE
8
BLACK
6
CONTINUOUS
10
136.562
20
-97.6358
11
136.651
21
-97.7897
0
LINE
8
BLACK
6
CONTINUOUS
10
136.651
20
-97.7897
11
136.706
21
-97.9587
0
LINE
8
BLACK
6
CONTINUOUS
10
136.706
20
-97.9587
11
136.725
21
-98.1354
0
LINE
8
BLACK
6
CONTINUOUS
10
136.725
20
-98.1354
11
136.706
21
-98.3121
0
LINE
8
BLACK
6
CONTINUOUS
10
136.706
20
-98.3121
11
136.651
21
-98.4811
0
LINE
8
BLACK
6
CONTINUOUS
10
136.651
20
-98.4811
11
136.562
21
-98.635
0
LINE
8
BLACK
6
CONTINUOUS
10
136.562
20
-98.635
11
136.444
21
-98.7671
0
LINE
8
BLACK
6
CONTINUOUS
10
136.444
20
-98.7671
11
136.3
21
-98.8715
0
LINE
8
BLACK
6
CONTINUOUS
10
136.3
20
-98.8715
11
136.137
21
-98.9438
0
LINE
8
BLACK
6
CONTINUOUS
10
136.137
20
-98.9438
11
135.964
21
-98.9807
0
LINE
8
BLACK
6
CONTINUOUS
10
135.964
20
-98.9807
11
135.786
21
-98.9807
0
LINE
8
BLACK
6
CONTINUOUS
10
135.786
20
-98.9807
11
135.612
21
-98.9438
0
LINE
8
BLACK
6
CONTINUOUS
10
135.612
20
-98.9438
11
135.45
21
-98.8715
0
LINE
8
BLACK
6
CONTINUOUS
10
135.45
20
-98.8715
11
135.306
21
-98.7671
0
LINE
8
BLACK
6
CONTINUOUS
10
135.306
20
-98.7671
11
135.187
21
-98.635
0
LINE
8
BLACK
6
CONTINUOUS
10
135.187
20
-98.635
11
135.098
21
-98.4811
0
LINE
8
BLACK
6
CONTINUOUS
10
135.098
20
-98.4811
11
135.043
21
-98.3121
0
LINE
8
BLACK
6
CONTINUOUS
10
135.043
20
-98.3121
11
135.025
21
-98.1354
0
LINE
8
BLACK
6
CONTINUOUS
10
135.025
20
-98.1354
11
135.043
21
-97.9587
0
LINE
8
BLACK
6
CONTINUOUS
10
135.043
20
-97.9587
11
135.098
21
-97.7897
0
LINE
8
BLACK
6
CONTINUOUS
10
135.098
20
-97.7897
11
135.187
21
-97.6358
0
LINE
8
BLACK
6
CONTINUOUS
10
135.187
20
-97.6358
11
135.306
21
-97.5037
0
LINE
8
BLACK
6
CONTINUOUS
10
135.306
20
-97.5037
11
135.45
21
-97.3993
0
LINE
8
BLACK
6
CONTINUOUS
10
135.45
20
-97.3993
11
135.612
21
-97.327
0
LINE
8
BLACK
6
CONTINUOUS
10
135.612
20
-97.327
11
135.786
21
-97.2901
0
LINE
8
BLACK
6
CONTINUOUS
10
135.786
20
-97.2901
11
135.964
21
-97.2901
0
LINE
8
BLACK
6
CONTINUOUS
10
135.964
20
-97.2901
11
136.137
21
-97.327
0
LINE
8
BLACK
6
CONTINUOUS
10
46.493
20
-96.3977
11
46.6553
21
-96.4699
0
LINE
8
BLACK
6
CONTINUOUS
10
46.6553
20
-96.4699
11
46.7991
21
-96.5744
0
LINE
8
BLACK
6
CONTINUOUS
10
46.7991
20
-96.5744
11
46.918
21
-96.7064
0
LINE
8
BLACK
6
CONTINUOUS
10
46.918
20
-96.7064
11
47.0068
21
-96.8603
0
LINE
8
BLACK
6
CONTINUOUS
10
47.0068
20
-96.8603
11
47.0617
21
-97.0293
0
LINE
8
BLACK
6
CONTINUOUS
10
47.0617
20
-97.0293
11
47.0803
21
-97.2061
0
LINE
8
BLACK
6
CONTINUOUS
10
47.0803
20
-97.2061
11
47.0617
21
-97.3828
0
LINE
8
BLACK
6
CONTINUOUS
10
47.0617
20
-97.3828
11
47.0068
21
-97.5518
0
LINE
8
BLACK
6
CONTINUOUS
10
47.0068
20
-97.5518
11
46.918
21
-97.7057
0
LINE
8
BLACK
6
CONTINUOUS
10
46.918
20
-97.7057
11
46.7991
21
-97.8377
0
LINE
8
BLACK
6
CONTINUOUS
10
46.7991
20
-97.8377
11
46.6553
21
-97.9422
0
LINE
8
BLACK
6
CONTINUOUS
10
46.6553
20
-97.9422
11
46.493
21
-98.0145
0
LINE
8
BLACK
6
CONTINUOUS
10
46.493
20
-98.0145
11
46.3191
21
-98.0514
0
LINE
8
BLACK
6
CONTINUOUS
10
46.3191
20
-98.0514
11
46.1414
21
-98.0514
0
LINE
8
BLACK
6
CONTINUOUS
10
46.1414
20
-98.0514
11
45.9676
21
-98.0145
0
LINE
8
BLACK
6
CONTINUOUS
10
45.9676
20
-98.0145
11
45.8053
21
-97.9422
0
LINE
8
BLACK
6
CONTINUOUS
10
45.8053
20
-97.9422
11
45.6615
21
-97.8377
0
LINE
8
BLACK
6
CONTINUOUS
10
45.6615
20
-97.8377
11
45.5426
21
-97.7057
0
LINE
8
BLACK
6
CONTINUOUS
10
45.5426
20
-97.7057
11
45.4538
21
-97.5518
0
LINE
8
BLACK
6
CONTINUOUS
10
45.4538
20
-97.5518
11
45.3989
21
-97.3828
0
LINE
8
BLACK
6
CONTINUOUS
10
45.3989
20
-97.3828
11
45.3803
21
-97.2061
0
LINE
8
BLACK
6
CONTINUOUS
10
45.3803
20
-97.2061
11
45.3989
21
-97.0293
0
LINE
8
BLACK
6
CONTINUOUS
10
45.3989
20
-97.0293
11
45.4538
21
-96.8603
0
LINE
8
BLACK
6
CONTINUOUS
10
45.4538
20
-96.8603
11
45.5426
21
-96.7064
0
LINE
8
BLACK
6
CONTINUOUS
10
45.5426
20
-96.7064
11
45.6615
21
-96.5744
0
LINE
8
BLACK
6
CONTINUOUS
10
45.6615
20
-96.5744
11
45.8053
21
-96.4699
0
LINE
8
BLACK
6
CONTINUOUS
10
45.8053
20
-96.4699
11
45.9676
21
-96.3977
0
LINE
8
BLACK
6
CONTINUOUS
10
45.9676
20
-96.3977
11
46.1414
21
-96.3607
0
LINE
8
BLACK
6
CONTINUOUS
10
46.1414
20
-96.3607
11
46.3191
21
-96.3607
0
LINE
8
BLACK
6
CONTINUOUS
10
46.3191
20
-96.3607
11
46.493
21
-96.3977
0
LINE
8
BLACK
6
CONTINUOUS
10
139.607
20
-96.3973
11
139.769
21
-96.4696
0
LINE
8
BLACK
6
CONTINUOUS
10
139.769
20
-96.4696
11
139.913
21
-96.574
0
LINE
8
BLACK
6
CONTINUOUS
10
139.913
20
-96.574
11
140.032
21
-96.7061
0
LINE
8
BLACK
6
CONTINUOUS
10
140.032
20
-96.7061
11
140.121
21
-96.86
0
LINE
8
BLACK
6
CONTINUOUS
10
140.121
20
-96.86
11
140.176
21
-97.029
0
LINE
8
BLACK
6
CONTINUOUS
10
140.176
20
-97.029
11
140.194
21
-97.2057
0
LINE
8
BLACK
6
CONTINUOUS
10
140.194
20
-97.2057
11
140.176
21
-97.3824
0
LINE
8
BLACK
6
CONTINUOUS
10
140.176
20
-97.3824
11
140.121
21
-97.5514
0
LINE
8
BLACK
6
CONTINUOUS
10
140.121
20
-97.5514
11
140.032
21
-97.7053
0
LINE
8
BLACK
6
CONTINUOUS
10
140.032
20
-97.7053
11
139.913
21
-97.8374
0
LINE
8
BLACK
6
CONTINUOUS
10
139.913
20
-97.8374
11
139.769
21
-97.9418
0
LINE
8
BLACK
6
CONTINUOUS
10
139.769
20
-97.9418
11
139.607
21
-98.0141
0
LINE
8
BLACK
6
CONTINUOUS
10
139.607
20
-98.0141
11
139.433
21
-98.051
0
LINE
8
BLACK
6
CONTINUOUS
10
139.433
20
-98.051
11
139.256
21
-98.051
0
LINE
8
BLACK
6
CONTINUOUS
10
139.256
20
-98.051
11
139.082
21
-98.0141
0
LINE
8
BLACK
6
CONTINUOUS
10
139.082
20
-98.0141
11
138.919
21
-97.9418
0
LINE
8
BLACK
6
CONTINUOUS
10
138.919
20
-97.9418
11
138.776
21
-97.8374
0
LINE
8
BLACK
6
CONTINUOUS
10
138.776
20
-97.8374
11
138.657
21
-97.7053
0
LINE
8
BLACK
6
CONTINUOUS
10
138.657
20
-97.7053
11
138.568
21
-97.5514
0
LINE
8
BLACK
6
CONTINUOUS
10
138.568
20
-97.5514
11
138.513
21
-97.3824
0
LINE
8
BLACK
6
CONTINUOUS
10
138.513
20
-97.3824
11
138.494
21
-97.2057
0
LINE
8
BLACK
6
CONTINUOUS
10
138.494
20
-97.2057
11
138.513
21
-97.029
0
LINE
8
BLACK
6
CONTINUOUS
10
138.513
20
-97.029
11
138.568
21
-96.86
0
LINE
8
BLACK
6
CONTINUOUS
10
138.568
20
-96.86
11
138.657
21
-96.7061
0
LINE
8
BLACK
6
CONTINUOUS
10
138.657
20
-96.7061
11
138.776
21
-96.574
0
LINE
8
BLACK
6
CONTINUOUS
10
138.776
20
-96.574
11
138.919
21
-96.4696
0
LINE
8
BLACK
6
CONTINUOUS
10
138.919
20
-96.4696
11
139.082
21
-96.3973
0
LINE
8
BLACK
6
CONTINUOUS
10
139.082
20
-96.3973
11
139.256
21
-96.3603
0
LINE
8
BLACK
6
CONTINUOUS
10
139.256
20
-96.3603
11
139.433
21
-96.3603
0
LINE
8
BLACK
6
CONTINUOUS
10
139.433
20
-96.3603
11
139.607
21
-96.3973
0
LINE
8
BLACK
6
CONTINUOUS
10
48.6927
20
-95.1277
11
48.855
21
-95.1999
0
LINE
8
BLACK
6
CONTINUOUS
10
48.855
20
-95.1999
11
48.9988
21
-95.3044
0
LINE
8
BLACK
6
CONTINUOUS
10
48.9988
20
-95.3044
11
49.1177
21
-95.4364
0
LINE
8
BLACK
6
CONTINUOUS
10
49.1177
20
-95.4364
11
49.2065
21
-95.5903
0
LINE
8
BLACK
6
CONTINUOUS
10
49.2065
20
-95.5903
11
49.2614
21
-95.7593
0
LINE
8
BLACK
6
CONTINUOUS
10
49.2614
20
-95.7593
11
49.28
21
-95.9361
0
LINE
8
BLACK
6
CONTINUOUS
10
49.28
20
-95.9361
11
49.2614
21
-96.1128
0
LINE
8
BLACK
6
CONTINUOUS
10
49.2614
20
-96.1128
11
49.2065
21
-96.2818
0
LINE
8
BLACK
6
CONTINUOUS
10
49.2065
20
-96.2818
11
49.1177
21
-96.4357
0
LINE
8
BLACK
6
CONTINUOUS
10
49.1177
20
-96.4357
11
48.9988
21
-96.5677
0
LINE
8
BLACK
6
CONTINUOUS
10
48.9988
20
-96.5677
11
48.855
21
-96.6722
0
LINE
8
BLACK
6
CONTINUOUS
10
48.855
20
-96.6722
11
48.6927
21
-96.7445
0
LINE
8
BLACK
6
CONTINUOUS
10
48.6927
20
-96.7445
11
48.5189
21
-96.7814
0
LINE
8
BLACK
6
CONTINUOUS
10
48.5189
20
-96.7814
11
48.3412
21
-96.7814
0
LINE
8
BLACK
6
CONTINUOUS
10
48.3412
20
-96.7814
11
48.1673
21
-96.7445
0
LINE
8
BLACK
6
CONTINUOUS
10
48.1673
20
-96.7445
11
48.005
21
-96.6722
0
LINE
8
BLACK
6
CONTINUOUS
10
48.005
20
-96.6722
11
47.8612
21
-96.5677
0
LINE
8
BLACK
6
CONTINUOUS
10
47.8612
20
-96.5677
11
47.7423
21
-96.4357
0
LINE
8
BLACK
6
CONTINUOUS
10
47.7423
20
-96.4357
11
47.6535
21
-96.2818
0
LINE
8
BLACK
6
CONTINUOUS
10
47.6535
20
-96.2818
11
47.5986
21
-96.1128
0
LINE
8
BLACK
6
CONTINUOUS
10
47.5986
20
-96.1128
11
47.58
21
-95.9361
0
LINE
8
BLACK
6
CONTINUOUS
10
47.58
20
-95.9361
11
47.5986
21
-95.7593
0
LINE
8
BLACK
6
CONTINUOUS
10
47.5986
20
-95.7593
11
47.6535
21
-95.5903
0
LINE
8
BLACK
6
CONTINUOUS
10
47.6535
20
-95.5903
11
47.7423
21
-95.4364
0
LINE
8
BLACK
6
CONTINUOUS
10
47.7423
20
-95.4364
11
47.8612
21
-95.3044
0
LINE
8
BLACK
6
CONTINUOUS
10
47.8612
20
-95.3044
11
48.005
21
-95.1999
0
LINE
8
BLACK
6
CONTINUOUS
10
48.005
20
-95.1999
11
48.1673
21
-95.1277
0
LINE
8
BLACK
6
CONTINUOUS
10
48.1673
20
-95.1277
11
48.3412
21
-95.0907
0
LINE
8
BLACK
6
CONTINUOUS
10
48.3412
20
-95.0907
11
48.5189
21
-95.0907
0
LINE
8
BLACK
6
CONTINUOUS
10
48.5189
20
-95.0907
11
48.6927
21
-95.1277
0
LINE
8
BLACK
6
CONTINUOUS
10
137.407
20
-95.1273
11
137.57
21
-95.1996
0
LINE
8
BLACK
6
CONTINUOUS
10
137.57
20
-95.1996
11
137.714
21
-95.304
0
LINE
8
BLACK
6
CONTINUOUS
10
137.714
20
-95.304
11
137.832
21
-95.4361
0
LINE
8
BLACK
6
CONTINUOUS
10
137.832
20
-95.4361
11
137.921
21
-95.59
0
LINE
8
BLACK
6
CONTINUOUS
10
137.921
20
-95.59
11
137.976
21
-95.759
0
LINE
8
BLACK
6
CONTINUOUS
10
137.976
20
-95.759
11
137.995
21
-95.9357
0
LINE
8
BLACK
6
CONTINUOUS
10
137.995
20
-95.9357
11
137.976
21
-96.1124
0
LINE
8
BLACK
6
CONTINUOUS
10
137.976
20
-96.1124
11
137.921
21
-96.2814
0
LINE
8
BLACK
6
CONTINUOUS
10
137.921
20
-96.2814
11
137.832
21
-96.4353
0
LINE
8
BLACK
6
CONTINUOUS
10
137.832
20
-96.4353
11
137.714
21
-96.5674
0
LINE
8
BLACK
6
CONTINUOUS
10
137.714
20
-96.5674
11
137.57
21
-96.6718
0
LINE
8
BLACK
6
CONTINUOUS
10
137.57
20
-96.6718
11
137.407
21
-96.7441
0
LINE
8
BLACK
6
CONTINUOUS
10
137.407
20
-96.7441
11
137.234
21
-96.781
0
LINE
8
BLACK
6
CONTINUOUS
10
137.234
20
-96.781
11
137.056
21
-96.781
0
LINE
8
BLACK
6
CONTINUOUS
10
137.056
20
-96.781
11
136.882
21
-96.7441
0
LINE
8
BLACK
6
CONTINUOUS
10
136.882
20
-96.7441
11
136.72
21
-96.6718
0
LINE
8
BLACK
6
CONTINUOUS
10
136.72
20
-96.6718
11
136.576
21
-96.5674
0
LINE
8
BLACK
6
CONTINUOUS
10
136.576
20
-96.5674
11
136.457
21
-96.4353
0
LINE
8
BLACK
6
CONTINUOUS
10
136.457
20
-96.4353
11
136.368
21
-96.2814
0
LINE
8
BLACK
6
CONTINUOUS
10
136.368
20
-96.2814
11
136.313
21
-96.1124
0
LINE
8
BLACK
6
CONTINUOUS
10
136.313
20
-96.1124
11
136.295
21
-95.9357
0
LINE
8
BLACK
6
CONTINUOUS
10
136.295
20
-95.9357
11
136.313
21
-95.759
0
LINE
8
BLACK
6
CONTINUOUS
10
136.313
20
-95.759
11
136.368
21
-95.59
0
LINE
8
BLACK
6
CONTINUOUS
10
136.368
20
-95.59
11
136.457
21
-95.4361
0
LINE
8
BLACK
6
CONTINUOUS
10
136.457
20
-95.4361
11
136.576
21
-95.304
0
LINE
8
BLACK
6
CONTINUOUS
10
136.576
20
-95.304
11
136.72
21
-95.1996
0
LINE
8
BLACK
6
CONTINUOUS
10
136.72
20
-95.1996
11
136.882
21
-95.1273
0
LINE
8
BLACK
6
CONTINUOUS
10
136.882
20
-95.1273
11
137.056
21
-95.0903
0
LINE
8
BLACK
6
CONTINUOUS
10
137.056
20
-95.0903
11
137.234
21
-95.0903
0
LINE
8
BLACK
6
CONTINUOUS
10
137.234
20
-95.0903
11
137.407
21
-95.1273
0
LINE
8
BLACK
6
CONTINUOUS
10
45.223
20
-94.198
11
45.3853
21
-94.2702
0
LINE
8
BLACK
6
CONTINUOUS
10
45.3853
20
-94.2702
11
45.5291
21
-94.3747
0
LINE
8
BLACK
6
CONTINUOUS
10
45.5291
20
-94.3747
11
45.648
21
-94.5067
0
LINE
8
BLACK
6
CONTINUOUS
10
45.648
20
-94.5067
11
45.7368
21
-94.6606
0
LINE
8
BLACK
6
CONTINUOUS
10
45.7368
20
-94.6606
11
45.7917
21
-94.8296
0
LINE
8
BLACK
6
CONTINUOUS
10
45.7917
20
-94.8296
11
45.8103
21
-95.0064
0
LINE
8
BLACK
6
CONTINUOUS
10
45.8103
20
-95.0064
11
45.7917
21
-95.1831
0
LINE
8
BLACK
6
CONTINUOUS
10
45.7917
20
-95.1831
11
45.7368
21
-95.3521
0
LINE
8
BLACK
6
CONTINUOUS
10
45.7368
20
-95.3521
11
45.648
21
-95.506
0
LINE
8
BLACK
6
CONTINUOUS
10
45.648
20
-95.506
11
45.5291
21
-95.638
0
LINE
8
BLACK
6
CONTINUOUS
10
45.5291
20
-95.638
11
45.3853
21
-95.7425
0
LINE
8
BLACK
6
CONTINUOUS
10
45.3853
20
-95.7425
11
45.223
21
-95.8148
0
LINE
8
BLACK
6
CONTINUOUS
10
45.223
20
-95.8148
11
45.0491
21
-95.8517
0
LINE
8
BLACK
6
CONTINUOUS
10
45.0491
20
-95.8517
11
44.8714
21
-95.8517
0
LINE
8
BLACK
6
CONTINUOUS
10
44.8714
20
-95.8517
11
44.6976
21
-95.8148
0
LINE
8
BLACK
6
CONTINUOUS
10
44.6976
20
-95.8148
11
44.5353
21
-95.7425
0
LINE
8
BLACK
6
CONTINUOUS
10
44.5353
20
-95.7425
11
44.3915
21
-95.638
0
LINE
8
BLACK
6
CONTINUOUS
10
44.3915
20
-95.638
11
44.2726
21
-95.506
0
LINE
8
BLACK
6
CONTINUOUS
10
44.2726
20
-95.506
11
44.1838
21
-95.3521
0
LINE
8
BLACK
6
CONTINUOUS
10
44.1838
20
-95.3521
11
44.1289
21
-95.1831
0
LINE
8
BLACK
6
CONTINUOUS
10
44.1289
20
-95.1831
11
44.1103
21
-95.0064
0
LINE
8
BLACK
6
CONTINUOUS
10
44.1103
20
-95.0064
11
44.1289
21
-94.8296
0
LINE
8
BLACK
6
CONTINUOUS
10
44.1289
20
-94.8296
11
44.1838
21
-94.6606
0
LINE
8
BLACK
6
CONTINUOUS
10
44.1838
20
-94.6606
11
44.2726
21
-94.5067
0
LINE
8
BLACK
6
CONTINUOUS
10
44.2726
20
-94.5067
11
44.3915
21
-94.3747
0
LINE
8
BLACK
6
CONTINUOUS
10
44.3915
20
-94.3747
11
44.5353
21
-94.2702
0
LINE
8
BLACK
6
CONTINUOUS
10
44.5353
20
-94.2702
11
44.6976
21
-94.198
0
LINE
8
BLACK
6
CONTINUOUS
10
44.6976
20
-94.198
11
44.8714
21
-94.161
0
LINE
8
BLACK
6
CONTINUOUS
10
44.8714
20
-94.161
11
45.0491
21
-94.161
0
LINE
8
BLACK
6
CONTINUOUS
10
45.0491
20
-94.161
11
45.223
21
-94.198
0
LINE
8
BLACK
6
CONTINUOUS
10
140.877
20
-94.1976
11
141.039
21
-94.2699
0
LINE
8
BLACK
6
CONTINUOUS
10
141.039
20
-94.2699
11
141.183
21
-94.3743
0
LINE
8
BLACK
6
CONTINUOUS
10
141.183
20
-94.3743
11
141.302
21
-94.5064
0
LINE
8
BLACK
6
CONTINUOUS
10
141.302
20
-94.5064
11
141.391
21
-94.6603
0
LINE
8
BLACK
6
CONTINUOUS
10
141.391
20
-94.6603
11
141.446
21
-94.8293
0
LINE
8
BLACK
6
CONTINUOUS
10
141.446
20
-94.8293
11
141.464
21
-95.006
0
LINE
8
BLACK
6
CONTINUOUS
10
141.464
20
-95.006
11
141.446
21
-95.1827
0
LINE
8
BLACK
6
CONTINUOUS
10
141.446
20
-95.1827
11
141.391
21
-95.3517
0
LINE
8
BLACK
6
CONTINUOUS
10
141.391
20
-95.3517
11
141.302
21
-95.5056
0
LINE
8
BLACK
6
CONTINUOUS
10
141.302
20
-95.5056
11
141.183
21
-95.6377
0
LINE
8
BLACK
6
CONTINUOUS
10
141.183
20
-95.6377
11
141.039
21
-95.7421
0
LINE
8
BLACK
6
CONTINUOUS
10
141.039
20
-95.7421
11
140.877
21
-95.8144
0
LINE
8
BLACK
6
CONTINUOUS
10
140.877
20
-95.8144
11
140.703
21
-95.8513
0
LINE
8
BLACK
6
CONTINUOUS
10
140.703
20
-95.8513
11
140.526
21
-95.8513
0
LINE
8
BLACK
6
CONTINUOUS
10
140.526
20
-95.8513
11
140.352
21
-95.8144
0
LINE
8
BLACK
6
CONTINUOUS
10
140.352
20
-95.8144
11
140.189
21
-95.7421
0
LINE
8
BLACK
6
CONTINUOUS
10
140.189
20
-95.7421
11
140.046
21
-95.6377
0
LINE
8
BLACK
6
CONTINUOUS
10
140.046
20
-95.6377
11
139.927
21
-95.5056
0
LINE
8
BLACK
6
CONTINUOUS
10
139.927
20
-95.5056
11
139.838
21
-95.3517
0
LINE
8
BLACK
6
CONTINUOUS
10
139.838
20
-95.3517
11
139.783
21
-95.1827
0
LINE
8
BLACK
6
CONTINUOUS
10
139.783
20
-95.1827
11
139.764
21
-95.006
0
LINE
8
BLACK
6
CONTINUOUS
10
139.764
20
-95.006
11
139.783
21
-94.8293
0
LINE
8
BLACK
6
CONTINUOUS
10
139.783
20
-94.8293
11
139.838
21
-94.6603
0
LINE
8
BLACK
6
CONTINUOUS
10
139.838
20
-94.6603
11
139.927
21
-94.5064
0
LINE
8
BLACK
6
CONTINUOUS
10
139.927
20
-94.5064
11
140.046
21
-94.3743
0
LINE
8
BLACK
6
CONTINUOUS
10
140.046
20
-94.3743
11
140.189
21
-94.2699
0
LINE
8
BLACK
6
CONTINUOUS
10
140.189
20
-94.2699
11
140.352
21
-94.1976
0
LINE
8
BLACK
6
CONTINUOUS
10
140.352
20
-94.1976
11
140.526
21
-94.1606
0
LINE
8
BLACK
6
CONTINUOUS
10
140.526
20
-94.1606
11
140.703
21
-94.1606
0
LINE
8
BLACK
6
CONTINUOUS
10
140.703
20
-94.1606
11
140.877
21
-94.1976
0
LINE
8
BLACK
6
CONTINUOUS
10
48.3211
20
-94.0475
11
46.8489
21
-94.8975
0
LINE
8
BLACK
6
CONTINUOUS
10
46.8489
20
-94.8975
11
45.9989
21
-93.4252
0
LINE
8
BLACK
6
CONTINUOUS
10
45.9989
20
-93.4252
11
47.4711
21
-92.5752
0
LINE
8
BLACK
6
CONTINUOUS
10
47.4711
20
-92.5752
11
48.3211
21
-94.0475
0
LINE
8
BLACK
6
CONTINUOUS
10
138.677
20
-92.9276
11
138.84
21
-92.9999
0
LINE
8
BLACK
6
CONTINUOUS
10
138.84
20
-92.9999
11
138.984
21
-93.1043
0
LINE
8
BLACK
6
CONTINUOUS
10
138.984
20
-93.1043
11
139.102
21
-93.2364
0
LINE
8
BLACK
6
CONTINUOUS
10
139.102
20
-93.2364
11
139.191
21
-93.3903
0
LINE
8
BLACK
6
CONTINUOUS
10
139.191
20
-93.3903
11
139.246
21
-93.5593
0
LINE
8
BLACK
6
CONTINUOUS
10
139.246
20
-93.5593
11
139.265
21
-93.736
0
LINE
8
BLACK
6
CONTINUOUS
10
139.265
20
-93.736
11
139.246
21
-93.9127
0
LINE
8
BLACK
6
CONTINUOUS
10
139.246
20
-93.9127
11
139.191
21
-94.0817
0
LINE
8
BLACK
6
CONTINUOUS
10
139.191
20
-94.0817
11
139.102
21
-94.2356
0
LINE
8
BLACK
6
CONTINUOUS
10
139.102
20
-94.2356
11
138.984
21
-94.3677
0
LINE
8
BLACK
6
CONTINUOUS
10
138.984
20
-94.3677
11
138.84
21
-94.4721
0
LINE
8
BLACK
6
CONTINUOUS
10
138.84
20
-94.4721
11
138.677
21
-94.5444
0
LINE
8
BLACK
6
CONTINUOUS
10
138.677
20
-94.5444
11
138.504
21
-94.5813
0
LINE
8
BLACK
6
CONTINUOUS
10
138.504
20
-94.5813
11
138.326
21
-94.5813
0
LINE
8
BLACK
6
CONTINUOUS
10
138.326
20
-94.5813
11
138.152
21
-94.5444
0
LINE
8
BLACK
6
CONTINUOUS
10
138.152
20
-94.5444
11
137.99
21
-94.4721
0
LINE
8
BLACK
6
CONTINUOUS
10
137.99
20
-94.4721
11
137.846
21
-94.3677
0
LINE
8
BLACK
6
CONTINUOUS
10
137.846
20
-94.3677
11
137.727
21
-94.2356
0
LINE
8
BLACK
6
CONTINUOUS
10
137.727
20
-94.2356
11
137.638
21
-94.0817
0
LINE
8
BLACK
6
CONTINUOUS
10
137.638
20
-94.0817
11
137.583
21
-93.9127
0
LINE
8
BLACK
6
CONTINUOUS
10
137.583
20
-93.9127
11
137.565
21
-93.736
0
LINE
8
BLACK
6
CONTINUOUS
10
137.565
20
-93.736
11
137.583
21
-93.5593
0
LINE
8
BLACK
6
CONTINUOUS
10
137.583
20
-93.5593
11
137.638
21
-93.3903
0
LINE
8
BLACK
6
CONTINUOUS
10
137.638
20
-93.3903
11
137.727
21
-93.2364
0
LINE
8
BLACK
6
CONTINUOUS
10
137.727
20
-93.2364
11
137.846
21
-93.1043
0
LINE
8
BLACK
6
CONTINUOUS
10
137.846
20
-93.1043
11
137.99
21
-92.9999
0
LINE
8
BLACK
6
CONTINUOUS
10
137.99
20
-92.9999
11
138.152
21
-92.9276
0
LINE
8
BLACK
6
CONTINUOUS
10
138.152
20
-92.9276
11
138.326
21
-92.8906
0
LINE
8
BLACK
6
CONTINUOUS
10
138.326
20
-92.8906
11
138.504
21
-92.8906
0
LINE
8
BLACK
6
CONTINUOUS
10
138.504
20
-92.8906
11
138.677
21
-92.9276
0
LINE
8
BLACK
6
CONTINUOUS
10
68.0087
20
-93.96
11
65.4587
21
-93.96
0
LINE
8
BLACK
6
CONTINUOUS
10
65.4587
20
-93.96
11
65.4587
21
-91.46
0
LINE
8
BLACK
6
CONTINUOUS
10
65.4587
20
-91.46
11
68.0087
21
-91.46
0
LINE
8
BLACK
6
CONTINUOUS
10
68.0087
20
-91.46
11
68.0087
21
-93.96
0
LINE
8
BLACK
6
CONTINUOUS
10
106.109
20
-93.96
11
103.559
21
-93.96
0
LINE
8
BLACK
6
CONTINUOUS
10
103.559
20
-93.96
11
103.559
21
-91.46
0
LINE
8
BLACK
6
CONTINUOUS
10
103.559
20
-91.46
11
106.109
21
-91.46
0
LINE
8
BLACK
6
CONTINUOUS
10
106.109
20
-91.46
11
106.109
21
-93.96
0
LINE
8
BLACK
6
CONTINUOUS
10
87.0587
20
-93.96
11
84.5087
21
-93.96
0
LINE
8
BLACK
6
CONTINUOUS
10
84.5087
20
-93.96
11
84.5087
21
-91.46
0
LINE
8
BLACK
6
CONTINUOUS
10
84.5087
20
-91.46
11
87.0587
21
-91.46
0
LINE
8
BLACK
6
CONTINUOUS
10
87.0587
20
-91.46
11
87.0587
21
-93.96
0
LINE
8
BLACK
6
CONTINUOUS
10
80.9357
20
-91.42
11
78.3858
21
-91.42
0
LINE
8
BLACK
6
CONTINUOUS
10
78.3858
20
-91.42
11
78.3858
21
-88.92
0
LINE
8
BLACK
6
CONTINUOUS
10
78.3858
20
-88.92
11
80.9357
21
-88.92
0
LINE
8
BLACK
6
CONTINUOUS
10
80.9357
20
-88.92
11
80.9357
21
-91.42
0
LINE
8
BLACK
6
CONTINUOUS
10
119.036
20
-91.42
11
116.486
21
-91.42
0
LINE
8
BLACK
6
CONTINUOUS
10
116.486
20
-91.42
11
116.486
21
-88.92
0
LINE
8
BLACK
6
CONTINUOUS
10
116.486
20
-88.92
11
119.036
21
-88.92
0
LINE
8
BLACK
6
CONTINUOUS
10
119.036
20
-88.92
11
119.036
21
-91.42
0
LINE
8
BLACK
6
CONTINUOUS
10
99.9857
20
-91.42
11
97.4357
21
-91.42
0
LINE
8
BLACK
6
CONTINUOUS
10
97.4357
20
-91.42
11
97.4357
21
-88.92
0
LINE
8
BLACK
6
CONTINUOUS
10
97.4357
20
-88.92
11
99.9857
21
-88.92
0
LINE
8
BLACK
6
CONTINUOUS
10
99.9857
20
-88.92
11
99.9857
21
-91.42
0
LINE
8
BLACK
6
CONTINUOUS
10
106.109
20
-74.91
11
103.559
21
-74.91
0
LINE
8
BLACK
6
CONTINUOUS
10
103.559
20
-74.91
11
103.559
21
-72.41
0
LINE
8
BLACK
6
CONTINUOUS
10
103.559
20
-72.41
11
106.109
21
-72.41
0
LINE
8
BLACK
6
CONTINUOUS
10
106.109
20
-72.41
11
106.109
21
-74.91
0
LINE
8
BLACK
6
CONTINUOUS
10
87.0587
20
-74.91
11
84.5087
21
-74.91
0
LINE
8
BLACK
6
CONTINUOUS
10
84.5087
20
-74.91
11
84.5087
21
-72.41
0
LINE
8
BLACK
6
CONTINUOUS
10
84.5087
20
-72.41
11
87.0587
21
-72.41
0
LINE
8
BLACK
6
CONTINUOUS
10
87.0587
20
-72.41
11
87.0587
21
-74.91
0
LINE
8
BLACK
6
CONTINUOUS
10
68.0087
20
-74.91
11
65.4587
21
-74.91
0
LINE
8
BLACK
6
CONTINUOUS
10
65.4587
20
-74.91
11
65.4587
21
-72.41
0
LINE
8
BLACK
6
CONTINUOUS
10
65.4587
20
-72.41
11
68.0087
21
-72.41
0
LINE
8
BLACK
6
CONTINUOUS
10
68.0087
20
-72.41
11
68.0087
21
-74.91
0
LINE
8
BLACK
6
CONTINUOUS
10
80.9357
20
-72.37
11
78.3858
21
-72.37
0
LINE
8
BLACK
6
CONTINUOUS
10
78.3858
20
-72.37
11
78.3858
21
-69.87
0
LINE
8
BLACK
6
CONTINUOUS
10
78.3858
20
-69.87
11
80.9357
21
-69.87
0
LINE
8
BLACK
6
CONTINUOUS
10
80.9357
20
-69.87
11
80.9357
21
-72.37
0
LINE
8
BLACK
6
CONTINUOUS
10
119.036
20
-72.37
11
116.486
21
-72.37
0
LINE
8
BLACK
6
CONTINUOUS
10
116.486
20
-72.37
11
116.486
21
-69.87
0
LINE
8
BLACK
6
CONTINUOUS
10
116.486
20
-69.87
11
119.036
21
-69.87
0
LINE
8
BLACK
6
CONTINUOUS
10
119.036
20
-69.87
11
119.036
21
-72.37
0
LINE
8
BLACK
6
CONTINUOUS
10
99.9857
20
-72.37
11
97.4357
21
-72.37
0
LINE
8
BLACK
6
CONTINUOUS
10
97.4357
20
-72.37
11
97.4357
21
-69.87
0
LINE
8
BLACK
6
CONTINUOUS
10
97.4357
20
-69.87
11
99.9857
21
-69.87
0
LINE
8
BLACK
6
CONTINUOUS
10
99.9857
20
-69.87
11
99.9857
21
-72.37
0
LINE
8
BLACK
6
CONTINUOUS
10
53.9578
20
-61.5322
11
53.1078
21
-63.0045
0
LINE
8
BLACK
6
CONTINUOUS
10
53.1078
20
-63.0045
11
51.6356
21
-62.1545
0
LINE
8
BLACK
6
CONTINUOUS
10
51.6356
20
-62.1545
11
52.4856
21
-60.6822
0
LINE
8
BLACK
6
CONTINUOUS
10
52.4856
20
-60.6822
11
53.9578
21
-61.5322
0
LINE
8
BLACK
6
CONTINUOUS
10
133.187
20
-60.983
11
133.349
21
-61.0553
0
LINE
8
BLACK
6
CONTINUOUS
10
133.349
20
-61.0553
11
133.493
21
-61.1597
0
LINE
8
BLACK
6
CONTINUOUS
10
133.493
20
-61.1597
11
133.612
21
-61.2918
0
LINE
8
BLACK
6
CONTINUOUS
10
133.612
20
-61.2918
11
133.7
21
-61.4457
0
LINE
8
BLACK
6
CONTINUOUS
10
133.7
20
-61.4457
11
133.755
21
-61.6147
0
LINE
8
BLACK
6
CONTINUOUS
10
133.755
20
-61.6147
11
133.774
21
-61.7914
0
LINE
8
BLACK
6
CONTINUOUS
10
133.774
20
-61.7914
11
133.755
21
-61.9681
0
LINE
8
BLACK
6
CONTINUOUS
10
133.755
20
-61.9681
11
133.7
21
-62.1371
0
LINE
8
BLACK
6
CONTINUOUS
10
133.7
20
-62.1371
11
133.612
21
-62.291
0
LINE
8
BLACK
6
CONTINUOUS
10
133.612
20
-62.291
11
133.493
21
-62.4231
0
LINE
8
BLACK
6
CONTINUOUS
10
133.493
20
-62.4231
11
133.349
21
-62.5275
0
LINE
8
BLACK
6
CONTINUOUS
10
133.349
20
-62.5275
11
133.187
21
-62.5998
0
LINE
8
BLACK
6
CONTINUOUS
10
133.187
20
-62.5998
11
133.013
21
-62.6367
0
LINE
8
BLACK
6
CONTINUOUS
10
133.013
20
-62.6367
11
132.835
21
-62.6367
0
LINE
8
BLACK
6
CONTINUOUS
10
132.835
20
-62.6367
11
132.661
21
-62.5998
0
LINE
8
BLACK
6
CONTINUOUS
10
132.661
20
-62.5998
11
132.499
21
-62.5275
0
LINE
8
BLACK
6
CONTINUOUS
10
132.499
20
-62.5275
11
132.355
21
-62.4231
0
LINE
8
BLACK
6
CONTINUOUS
10
132.355
20
-62.4231
11
132.236
21
-62.291
0
LINE
8
BLACK
6
CONTINUOUS
10
132.236
20
-62.291
11
132.147
21
-62.1371
0
LINE
8
BLACK
6
CONTINUOUS
10
132.147
20
-62.1371
11
132.092
21
-61.9681
0
LINE
8
BLACK
6
CONTINUOUS
10
132.092
20
-61.9681
11
132.074
21
-61.7914
0
LINE
8
BLACK
6
CONTINUOUS
10
132.074
20
-61.7914
11
132.092
21
-61.6147
0
LINE
8
BLACK
6
CONTINUOUS
10
132.092
20
-61.6147
11
132.147
21
-61.4457
0
LINE
8
BLACK
6
CONTINUOUS
10
132.147
20
-61.4457
11
132.236
21
-61.2918
0
LINE
8
BLACK
6
CONTINUOUS
10
132.236
20
-61.2918
11
132.355
21
-61.1597
0
LINE
8
BLACK
6
CONTINUOUS
10
132.355
20
-61.1597
11
132.499
21
-61.0553
0
LINE
8
BLACK
6
CONTINUOUS
10
132.499
20
-61.0553
11
132.661
21
-60.983
0
LINE
8
BLACK
6
CONTINUOUS
10
132.661
20
-60.983
11
132.835
21
-60.9461
0
LINE
8
BLACK
6
CONTINUOUS
10
132.835
20
-60.9461
11
133.013
21
-60.9461
0
LINE
8
BLACK
6
CONTINUOUS
10
133.013
20
-60.9461
11
133.187
21
-60.983
0
LINE
8
BLACK
6
CONTINUOUS
10
50.8596
20
-59.765
11
51.022
21
-59.8372
0
LINE
8
BLACK
6
CONTINUOUS
10
51.022
20
-59.8372
11
51.1657
21
-59.9417
0
LINE
8
BLACK
6
CONTINUOUS
10
51.1657
20
-59.9417
11
51.2846
21
-60.0737
0
LINE
8
BLACK
6
CONTINUOUS
10
51.2846
20
-60.0737
11
51.3735
21
-60.2276
0
LINE
8
BLACK
6
CONTINUOUS
10
51.3735
20
-60.2276
11
51.4284
21
-60.3966
0
LINE
8
BLACK
6
CONTINUOUS
10
51.4284
20
-60.3966
11
51.447
21
-60.5734
0
LINE
8
BLACK
6
CONTINUOUS
10
51.447
20
-60.5734
11
51.4284
21
-60.7501
0
LINE
8
BLACK
6
CONTINUOUS
10
51.4284
20
-60.7501
11
51.3735
21
-60.9191
0
LINE
8
BLACK
6
CONTINUOUS
10
51.3735
20
-60.9191
11
51.2846
21
-61.073
0
LINE
8
BLACK
6
CONTINUOUS
10
51.2846
20
-61.073
11
51.1657
21
-61.205
0
LINE
8
BLACK
6
CONTINUOUS
10
51.1657
20
-61.205
11
51.022
21
-61.3095
0
LINE
8
BLACK
6
CONTINUOUS
10
51.022
20
-61.3095
11
50.8596
21
-61.3818
0
LINE
8
BLACK
6
CONTINUOUS
10
50.8596
20
-61.3818
11
50.6858
21
-61.4187
0
LINE
8
BLACK
6
CONTINUOUS
10
50.6858
20
-61.4187
11
50.5081
21
-61.4187
0
LINE
8
BLACK
6
CONTINUOUS
10
50.5081
20
-61.4187
11
50.3343
21
-61.3818
0
LINE
8
BLACK
6
CONTINUOUS
10
50.3343
20
-61.3818
11
50.172
21
-61.3095
0
LINE
8
BLACK
6
CONTINUOUS
10
50.172
20
-61.3095
11
50.0282
21
-61.205
0
LINE
8
BLACK
6
CONTINUOUS
10
50.0282
20
-61.205
11
49.9093
21
-61.073
0
LINE
8
BLACK
6
CONTINUOUS
10
49.9093
20
-61.073
11
49.8205
21
-60.9191
0
LINE
8
BLACK
6
CONTINUOUS
10
49.8205
20
-60.9191
11
49.7656
21
-60.7501
0
LINE
8
BLACK
6
CONTINUOUS
10
49.7656
20
-60.7501
11
49.747
21
-60.5734
0
LINE
8
BLACK
6
CONTINUOUS
10
49.747
20
-60.5734
11
49.7656
21
-60.3966
0
LINE
8
BLACK
6
CONTINUOUS
10
49.7656
20
-60.3966
11
49.8205
21
-60.2276
0
LINE
8
BLACK
6
CONTINUOUS
10
49.8205
20
-60.2276
11
49.9093
21
-60.0737
0
LINE
8
BLACK
6
CONTINUOUS
10
49.9093
20
-60.0737
11
50.0282
21
-59.9417
0
LINE
8
BLACK
6
CONTINUOUS
10
50.0282
20
-59.9417
11
50.172
21
-59.8372
0
LINE
8
BLACK
6
CONTINUOUS
10
50.172
20
-59.8372
11
50.3343
21
-59.765
0
LINE
8
BLACK
6
CONTINUOUS
10
50.3343
20
-59.765
11
50.5081
21
-59.728
0
LINE
8
BLACK
6
CONTINUOUS
10
50.5081
20
-59.728
11
50.6858
21
-59.728
0
LINE
8
BLACK
6
CONTINUOUS
10
50.6858
20
-59.728
11
50.8596
21
-59.765
0
LINE
8
BLACK
6
CONTINUOUS
10
135.386
20
-59.713
11
135.549
21
-59.7853
0
LINE
8
BLACK
6
CONTINUOUS
10
135.549
20
-59.7853
11
135.692
21
-59.8897
0
LINE
8
BLACK
6
CONTINUOUS
10
135.692
20
-59.8897
11
135.811
21
-60.0218
0
LINE
8
BLACK
6
CONTINUOUS
10
135.811
20
-60.0218
11
135.9
21
-60.1757
0
LINE
8
BLACK
6
CONTINUOUS
10
135.9
20
-60.1757
11
135.955
21
-60.3447
0
LINE
8
BLACK
6
CONTINUOUS
10
135.955
20
-60.3447
11
135.974
21
-60.5214
0
LINE
8
BLACK
6
CONTINUOUS
10
135.974
20
-60.5214
11
135.955
21
-60.6981
0
LINE
8
BLACK
6
CONTINUOUS
10
135.955
20
-60.6981
11
135.9
21
-60.8671
0
LINE
8
BLACK
6
CONTINUOUS
10
135.9
20
-60.8671
11
135.811
21
-61.021
0
LINE
8
BLACK
6
CONTINUOUS
10
135.811
20
-61.021
11
135.692
21
-61.1531
0
LINE
8
BLACK
6
CONTINUOUS
10
135.692
20
-61.1531
11
135.549
21
-61.2575
0
LINE
8
BLACK
6
CONTINUOUS
10
135.549
20
-61.2575
11
135.386
21
-61.3298
0
LINE
8
BLACK
6
CONTINUOUS
10
135.386
20
-61.3298
11
135.212
21
-61.3667
0
LINE
8
BLACK
6
CONTINUOUS
10
135.212
20
-61.3667
11
135.035
21
-61.3667
0
LINE
8
BLACK
6
CONTINUOUS
10
135.035
20
-61.3667
11
134.861
21
-61.3298
0
LINE
8
BLACK
6
CONTINUOUS
10
134.861
20
-61.3298
11
134.699
21
-61.2575
0
LINE
8
BLACK
6
CONTINUOUS
10
134.699
20
-61.2575
11
134.555
21
-61.1531
0
LINE
8
BLACK
6
CONTINUOUS
10
134.555
20
-61.1531
11
134.436
21
-61.021
0
LINE
8
BLACK
6
CONTINUOUS
10
134.436
20
-61.021
11
134.347
21
-60.8671
0
LINE
8
BLACK
6
CONTINUOUS
10
134.347
20
-60.8671
11
134.292
21
-60.6981
0
LINE
8
BLACK
6
CONTINUOUS
10
134.292
20
-60.6981
11
134.274
21
-60.5214
0
LINE
8
BLACK
6
CONTINUOUS
10
134.274
20
-60.5214
11
134.292
21
-60.3447
0
LINE
8
BLACK
6
CONTINUOUS
10
134.292
20
-60.3447
11
134.347
21
-60.1757
0
LINE
8
BLACK
6
CONTINUOUS
10
134.347
20
-60.1757
11
134.436
21
-60.0218
0
LINE
8
BLACK
6
CONTINUOUS
10
134.436
20
-60.0218
11
134.555
21
-59.8897
0
LINE
8
BLACK
6
CONTINUOUS
10
134.555
20
-59.8897
11
134.699
21
-59.7853
0
LINE
8
BLACK
6
CONTINUOUS
10
134.699
20
-59.7853
11
134.861
21
-59.713
0
LINE
8
BLACK
6
CONTINUOUS
10
134.861
20
-59.713
11
135.035
21
-59.6761
0
LINE
8
BLACK
6
CONTINUOUS
10
135.035
20
-59.6761
11
135.212
21
-59.6761
0
LINE
8
BLACK
6
CONTINUOUS
10
135.212
20
-59.6761
11
135.386
21
-59.713
0
LINE
8
BLACK
6
CONTINUOUS
10
54.3294
20
-58.8353
11
54.4917
21
-58.9075
0
LINE
8
BLACK
6
CONTINUOUS
10
54.4917
20
-58.9075
11
54.6355
21
-59.012
0
LINE
8
BLACK
6
CONTINUOUS
10
54.6355
20
-59.012
11
54.7544
21
-59.144
0
LINE
8
BLACK
6
CONTINUOUS
10
54.7544
20
-59.144
11
54.8432
21
-59.2979
0
LINE
8
BLACK
6
CONTINUOUS
10
54.8432
20
-59.2979
11
54.8981
21
-59.4669
0
LINE
8
BLACK
6
CONTINUOUS
10
54.8981
20
-59.4669
11
54.9167
21
-59.6437
0
LINE
8
BLACK
6
CONTINUOUS
10
54.9167
20
-59.6437
11
54.8981
21
-59.8204
0
LINE
8
BLACK
6
CONTINUOUS
10
54.8981
20
-59.8204
11
54.8432
21
-59.9894
0
LINE
8
BLACK
6
CONTINUOUS
10
54.8432
20
-59.9894
11
54.7544
21
-60.1433
0
LINE
8
BLACK
6
CONTINUOUS
10
54.7544
20
-60.1433
11
54.6355
21
-60.2753
0
LINE
8
BLACK
6
CONTINUOUS
10
54.6355
20
-60.2753
11
54.4917
21
-60.3798
0
LINE
8
BLACK
6
CONTINUOUS
10
54.4917
20
-60.3798
11
54.3294
21
-60.4521
0
LINE
8
BLACK
6
CONTINUOUS
10
54.3294
20
-60.4521
11
54.1555
21
-60.489
0
LINE
8
BLACK
6
CONTINUOUS
10
54.1555
20
-60.489
11
53.9778
21
-60.489
0
LINE
8
BLACK
6
CONTINUOUS
10
53.9778
20
-60.489
11
53.804
21
-60.4521
0
LINE
8
BLACK
6
CONTINUOUS
10
53.804
20
-60.4521
11
53.6417
21
-60.3798
0
LINE
8
BLACK
6
CONTINUOUS
10
53.6417
20
-60.3798
11
53.4979
21
-60.2753
0
LINE
8
BLACK
6
CONTINUOUS
10
53.4979
20
-60.2753
11
53.379
21
-60.1433
0
LINE
8
BLACK
6
CONTINUOUS
10
53.379
20
-60.1433
11
53.2902
21
-59.9894
0
LINE
8
BLACK
6
CONTINUOUS
10
53.2902
20
-59.9894
11
53.2353
21
-59.8204
0
LINE
8
BLACK
6
CONTINUOUS
10
53.2353
20
-59.8204
11
53.2167
21
-59.6437
0
LINE
8
BLACK
6
CONTINUOUS
10
53.2167
20
-59.6437
11
53.2353
21
-59.4669
0
LINE
8
BLACK
6
CONTINUOUS
10
53.2353
20
-59.4669
11
53.2902
21
-59.2979
0
LINE
8
BLACK
6
CONTINUOUS
10
53.2902
20
-59.2979
11
53.379
21
-59.144
0
LINE
8
BLACK
6
CONTINUOUS
10
53.379
20
-59.144
11
53.4979
21
-59.012
0
LINE
8
BLACK
6
CONTINUOUS
10
53.4979
20
-59.012
11
53.6417
21
-58.9075
0
LINE
8
BLACK
6
CONTINUOUS
10
53.6417
20
-58.9075
11
53.804
21
-58.8353
0
LINE
8
BLACK
6
CONTINUOUS
10
53.804
20
-58.8353
11
53.9778
21
-58.7983
0
LINE
8
BLACK
6
CONTINUOUS
10
53.9778
20
-58.7983
11
54.1555
21
-58.7983
0
LINE
8
BLACK
6
CONTINUOUS
10
54.1555
20
-58.7983
11
54.3294
21
-58.8353
0
LINE
8
BLACK
6
CONTINUOUS
10
131.917
20
-58.7833
11
132.079
21
-58.8556
0
LINE
8
BLACK
6
CONTINUOUS
10
132.079
20
-58.8556
11
132.223
21
-58.96
0
LINE
8
BLACK
6
CONTINUOUS
10
132.223
20
-58.96
11
132.342
21
-59.0921
0
LINE
8
BLACK
6
CONTINUOUS
10
132.342
20
-59.0921
11
132.43
21
-59.246
0
LINE
8
BLACK
6
CONTINUOUS
10
132.43
20
-59.246
11
132.485
21
-59.415
0
LINE
8
BLACK
6
CONTINUOUS
10
132.485
20
-59.415
11
132.504
21
-59.5917
0
LINE
8
BLACK
6
CONTINUOUS
10
132.504
20
-59.5917
11
132.485
21
-59.7684
0
LINE
8
BLACK
6
CONTINUOUS
10
132.485
20
-59.7684
11
132.43
21
-59.9374
0
LINE
8
BLACK
6
CONTINUOUS
10
132.43
20
-59.9374
11
132.342
21
-60.0913
0
LINE
8
BLACK
6
CONTINUOUS
10
132.342
20
-60.0913
11
132.223
21
-60.2234
0
LINE
8
BLACK
6
CONTINUOUS
10
132.223
20
-60.2234
11
132.079
21
-60.3278
0
LINE
8
BLACK
6
CONTINUOUS
10
132.079
20
-60.3278
11
131.917
21
-60.4001
0
LINE
8
BLACK
6
CONTINUOUS
10
131.917
20
-60.4001
11
131.743
21
-60.437
0
LINE
8
BLACK
6
CONTINUOUS
10
131.743
20
-60.437
11
131.565
21
-60.437
0
LINE
8
BLACK
6
CONTINUOUS
10
131.565
20
-60.437
11
131.391
21
-60.4001
0
LINE
8
BLACK
6
CONTINUOUS
10
131.391
20
-60.4001
11
131.229
21
-60.3278
0
LINE
8
BLACK
6
CONTINUOUS
10
131.229
20
-60.3278
11
131.085
21
-60.2234
0
LINE
8
BLACK
6
CONTINUOUS
10
131.085
20
-60.2234
11
130.966
21
-60.0913
0
LINE
8
BLACK
6
CONTINUOUS
10
130.966
20
-60.0913
11
130.877
21
-59.9374
0
LINE
8
BLACK
6
CONTINUOUS
10
130.877
20
-59.9374
11
130.822
21
-59.7684
0
LINE
8
BLACK
6
CONTINUOUS
10
130.822
20
-59.7684
11
130.804
21
-59.5917
0
LINE
8
BLACK
6
CONTINUOUS
10
130.804
20
-59.5917
11
130.822
21
-59.415
0
LINE
8
BLACK
6
CONTINUOUS
10
130.822
20
-59.415
11
130.877
21
-59.246
0
LINE
8
BLACK
6
CONTINUOUS
10
130.877
20
-59.246
11
130.966
21
-59.0921
0
LINE
8
BLACK
6
CONTINUOUS
10
130.966
20
-59.0921
11
131.085
21
-58.96
0
LINE
8
BLACK
6
CONTINUOUS
10
131.085
20
-58.96
11
131.229
21
-58.8556
0
LINE
8
BLACK
6
CONTINUOUS
10
131.229
20
-58.8556
11
131.391
21
-58.7833
0
LINE
8
BLACK
6
CONTINUOUS
10
131.391
20
-58.7833
11
131.565
21
-58.7464
0
LINE
8
BLACK
6
CONTINUOUS
10
131.565
20
-58.7464
11
131.743
21
-58.7464
0
LINE
8
BLACK
6
CONTINUOUS
10
131.743
20
-58.7464
11
131.917
21
-58.7833
0
LINE
8
BLACK
6
CONTINUOUS
10
52.1296
20
-57.5653
11
52.292
21
-57.6375
0
LINE
8
BLACK
6
CONTINUOUS
10
52.292
20
-57.6375
11
52.4357
21
-57.742
0
LINE
8
BLACK
6
CONTINUOUS
10
52.4357
20
-57.742
11
52.5546
21
-57.874
0
LINE
8
BLACK
6
CONTINUOUS
10
52.5546
20
-57.874
11
52.6435
21
-58.0279
0
LINE
8
BLACK
6
CONTINUOUS
10
52.6435
20
-58.0279
11
52.6984
21
-58.1969
0
LINE
8
BLACK
6
CONTINUOUS
10
52.6984
20
-58.1969
11
52.717
21
-58.3737
0
LINE
8
BLACK
6
CONTINUOUS
10
52.717
20
-58.3737
11
52.6984
21
-58.5504
0
LINE
8
BLACK
6
CONTINUOUS
10
52.6984
20
-58.5504
11
52.6435
21
-58.7194
0
LINE
8
BLACK
6
CONTINUOUS
10
52.6435
20
-58.7194
11
52.5546
21
-58.8733
0
LINE
8
BLACK
6
CONTINUOUS
10
52.5546
20
-58.8733
11
52.4357
21
-59.0053
0
LINE
8
BLACK
6
CONTINUOUS
10
52.4357
20
-59.0053
11
52.292
21
-59.1098
0
LINE
8
BLACK
6
CONTINUOUS
10
52.292
20
-59.1098
11
52.1296
21
-59.1821
0
LINE
8
BLACK
6
CONTINUOUS
10
52.1296
20
-59.1821
11
51.9558
21
-59.219
0
LINE
8
BLACK
6
CONTINUOUS
10
51.9558
20
-59.219
11
51.7781
21
-59.219
0
LINE
8
BLACK
6
CONTINUOUS
10
51.7781
20
-59.219
11
51.6043
21
-59.1821
0
LINE
8
BLACK
6
CONTINUOUS
10
51.6043
20
-59.1821
11
51.442
21
-59.1098
0
LINE
8
BLACK
6
CONTINUOUS
10
51.442
20
-59.1098
11
51.2982
21
-59.0053
0
LINE
8
BLACK
6
CONTINUOUS
10
51.2982
20
-59.0053
11
51.1793
21
-58.8733
0
LINE
8
BLACK
6
CONTINUOUS
10
51.1793
20
-58.8733
11
51.0905
21
-58.7194
0
LINE
8
BLACK
6
CONTINUOUS
10
51.0905
20
-58.7194
11
51.0356
21
-58.5504
0
LINE
8
BLACK
6
CONTINUOUS
10
51.0356
20
-58.5504
11
51.017
21
-58.3737
0
LINE
8
BLACK
6
CONTINUOUS
10
51.017
20
-58.3737
11
51.0356
21
-58.1969
0
LINE
8
BLACK
6
CONTINUOUS
10
51.0356
20
-58.1969
11
51.0905
21
-58.0279
0
LINE
8
BLACK
6
CONTINUOUS
10
51.0905
20
-58.0279
11
51.1793
21
-57.874
0
LINE
8
BLACK
6
CONTINUOUS
10
51.1793
20
-57.874
11
51.2982
21
-57.742
0
LINE
8
BLACK
6
CONTINUOUS
10
51.2982
20
-57.742
11
51.442
21
-57.6375
0
LINE
8
BLACK
6
CONTINUOUS
10
51.442
20
-57.6375
11
51.6043
21
-57.5653
0
LINE
8
BLACK
6
CONTINUOUS
10
51.6043
20
-57.5653
11
51.7781
21
-57.5283
0
LINE
8
BLACK
6
CONTINUOUS
10
51.7781
20
-57.5283
11
51.9558
21
-57.5283
0
LINE
8
BLACK
6
CONTINUOUS
10
51.9558
20
-57.5283
11
52.1296
21
-57.5653
0
LINE
8
BLACK
6
CONTINUOUS
10
134.116
20
-57.5133
11
134.279
21
-57.5856
0
LINE
8
BLACK
6
CONTINUOUS
10
134.279
20
-57.5856
11
134.422
21
-57.69
0
LINE
8
BLACK
6
CONTINUOUS
10
134.422
20
-57.69
11
134.541
21
-57.8221
0
LINE
8
BLACK
6
CONTINUOUS
10
134.541
20
-57.8221
11
134.63
21
-57.976
0
LINE
8
BLACK
6
CONTINUOUS
10
134.63
20
-57.976
11
134.685
21
-58.145
0
LINE
8
BLACK
6
CONTINUOUS
10
134.685
20
-58.145
11
134.704
21
-58.3217
0
LINE
8
BLACK
6
CONTINUOUS
10
134.704
20
-58.3217
11
134.685
21
-58.4984
0
LINE
8
BLACK
6
CONTINUOUS
10
134.685
20
-58.4984
11
134.63
21
-58.6674
0
LINE
8
BLACK
6
CONTINUOUS
10
134.63
20
-58.6674
11
134.541
21
-58.8213
0
LINE
8
BLACK
6
CONTINUOUS
10
134.541
20
-58.8213
11
134.422
21
-58.9534
0
LINE
8
BLACK
6
CONTINUOUS
10
134.422
20
-58.9534
11
134.279
21
-59.0578
0
LINE
8
BLACK
6
CONTINUOUS
10
134.279
20
-59.0578
11
134.116
21
-59.1301
0
LINE
8
BLACK
6
CONTINUOUS
10
134.116
20
-59.1301
11
133.942
21
-59.167
0
LINE
8
BLACK
6
CONTINUOUS
10
133.942
20
-59.167
11
133.765
21
-59.167
0
LINE
8
BLACK
6
CONTINUOUS
10
133.765
20
-59.167
11
133.591
21
-59.1301
0
LINE
8
BLACK
6
CONTINUOUS
10
133.591
20
-59.1301
11
133.429
21
-59.0578
0
LINE
8
BLACK
6
CONTINUOUS
10
133.429
20
-59.0578
11
133.285
21
-58.9534
0
LINE
8
BLACK
6
CONTINUOUS
10
133.285
20
-58.9534
11
133.166
21
-58.8213
0
LINE
8
BLACK
6
CONTINUOUS
10
133.166
20
-58.8213
11
133.077
21
-58.6674
0
LINE
8
BLACK
6
CONTINUOUS
10
133.077
20
-58.6674
11
133.022
21
-58.4984
0
LINE
8
BLACK
6
CONTINUOUS
10
133.022
20
-58.4984
11
133.004
21
-58.3217
0
LINE
8
BLACK
6
CONTINUOUS
10
133.004
20
-58.3217
11
133.022
21
-58.145
0
LINE
8
BLACK
6
CONTINUOUS
10
133.022
20
-58.145
11
133.077
21
-57.976
0
LINE
8
BLACK
6
CONTINUOUS
10
133.077
20
-57.976
11
133.166
21
-57.8221
0
LINE
8
BLACK
6
CONTINUOUS
10
133.166
20
-57.8221
11
133.285
21
-57.69
0
LINE
8
BLACK
6
CONTINUOUS
10
133.285
20
-57.69
11
133.429
21
-57.5856
0
LINE
8
BLACK
6
CONTINUOUS
10
133.429
20
-57.5856
11
133.591
21
-57.5133
0
LINE
8
BLACK
6
CONTINUOUS
10
133.591
20
-57.5133
11
133.765
21
-57.4764
0
LINE
8
BLACK
6
CONTINUOUS
10
133.765
20
-57.4764
11
133.942
21
-57.4764
0
LINE
8
BLACK
6
CONTINUOUS
10
133.942
20
-57.4764
11
134.116
21
-57.5133
0
LINE
8
BLACK
6
CONTINUOUS
10
55.5994
20
-56.6356
11
55.7617
21
-56.7078
0
LINE
8
BLACK
6
CONTINUOUS
10
55.7617
20
-56.7078
11
55.9055
21
-56.8123
0
LINE
8
BLACK
6
CONTINUOUS
10
55.9055
20
-56.8123
11
56.0244
21
-56.9443
0
LINE
8
BLACK
6
CONTINUOUS
10
56.0244
20
-56.9443
11
56.1132
21
-57.0982
0
LINE
8
BLACK
6
CONTINUOUS
10
56.1132
20
-57.0982
11
56.1681
21
-57.2672
0
LINE
8
BLACK
6
CONTINUOUS
10
56.1681
20
-57.2672
11
56.1867
21
-57.444
0
LINE
8
BLACK
6
CONTINUOUS
10
56.1867
20
-57.444
11
56.1681
21
-57.6207
0
LINE
8
BLACK
6
CONTINUOUS
10
56.1681
20
-57.6207
11
56.1132
21
-57.7897
0
LINE
8
BLACK
6
CONTINUOUS
10
56.1132
20
-57.7897
11
56.0244
21
-57.9436
0
LINE
8
BLACK
6
CONTINUOUS
10
56.0244
20
-57.9436
11
55.9055
21
-58.0756
0
LINE
8
BLACK
6
CONTINUOUS
10
55.9055
20
-58.0756
11
55.7617
21
-58.1801
0
LINE
8
BLACK
6
CONTINUOUS
10
55.7617
20
-58.1801
11
55.5994
21
-58.2524
0
LINE
8
BLACK
6
CONTINUOUS
10
55.5994
20
-58.2524
11
55.4255
21
-58.2893
0
LINE
8
BLACK
6
CONTINUOUS
10
55.4255
20
-58.2893
11
55.2478
21
-58.2893
0
LINE
8
BLACK
6
CONTINUOUS
10
55.2478
20
-58.2893
11
55.074
21
-58.2524
0
LINE
8
BLACK
6
CONTINUOUS
10
55.074
20
-58.2524
11
54.9117
21
-58.1801
0
LINE
8
BLACK
6
CONTINUOUS
10
54.9117
20
-58.1801
11
54.7679
21
-58.0756
0
LINE
8
BLACK
6
CONTINUOUS
10
54.7679
20
-58.0756
11
54.649
21
-57.9436
0
LINE
8
BLACK
6
CONTINUOUS
10
54.649
20
-57.9436
11
54.5602
21
-57.7897
0
LINE
8
BLACK
6
CONTINUOUS
10
54.5602
20
-57.7897
11
54.5053
21
-57.6207
0
LINE
8
BLACK
6
CONTINUOUS
10
54.5053
20
-57.6207
11
54.4867
21
-57.444
0
LINE
8
BLACK
6
CONTINUOUS
10
54.4867
20
-57.444
11
54.5053
21
-57.2672
0
LINE
8
BLACK
6
CONTINUOUS
10
54.5053
20
-57.2672
11
54.5602
21
-57.0982
0
LINE
8
BLACK
6
CONTINUOUS
10
54.5602
20
-57.0982
11
54.649
21
-56.9443
0
LINE
8
BLACK
6
CONTINUOUS
10
54.649
20
-56.9443
11
54.7679
21
-56.8123
0
LINE
8
BLACK
6
CONTINUOUS
10
54.7679
20
-56.8123
11
54.9117
21
-56.7078
0
LINE
8
BLACK
6
CONTINUOUS
10
54.9117
20
-56.7078
11
55.074
21
-56.6356
0
LINE
8
BLACK
6
CONTINUOUS
10
55.074
20
-56.6356
11
55.2478
21
-56.5986
0
LINE
8
BLACK
6
CONTINUOUS
10
55.2478
20
-56.5986
11
55.4255
21
-56.5986
0
LINE
8
BLACK
6
CONTINUOUS
10
55.4255
20
-56.5986
11
55.5994
21
-56.6356
0
LINE
8
BLACK
6
CONTINUOUS
10
130.647
20
-56.5836
11
130.809
21
-56.6559
0
LINE
8
BLACK
6
CONTINUOUS
10
130.809
20
-56.6559
11
130.953
21
-56.7603
0
LINE
8
BLACK
6
CONTINUOUS
10
130.953
20
-56.7603
11
131.072
21
-56.8924
0
LINE
8
BLACK
6
CONTINUOUS
10
131.072
20
-56.8924
11
131.16
21
-57.0463
0
LINE
8
BLACK
6
CONTINUOUS
10
131.16
20
-57.0463
11
131.215
21
-57.2153
0
LINE
8
BLACK
6
CONTINUOUS
10
131.215
20
-57.2153
11
131.234
21
-57.392
0
LINE
8
BLACK
6
CONTINUOUS
10
131.234
20
-57.392
11
131.215
21
-57.5687
0
LINE
8
BLACK
6
CONTINUOUS
10
131.215
20
-57.5687
11
131.16
21
-57.7377
0
LINE
8
BLACK
6
CONTINUOUS
10
131.16
20
-57.7377
11
131.072
21
-57.8916
0
LINE
8
BLACK
6
CONTINUOUS
10
131.072
20
-57.8916
11
130.953
21
-58.0237
0
LINE
8
BLACK
6
CONTINUOUS
10
130.953
20
-58.0237
11
130.809
21
-58.1281
0
LINE
8
BLACK
6
CONTINUOUS
10
130.809
20
-58.1281
11
130.647
21
-58.2004
0
LINE
8
BLACK
6
CONTINUOUS
10
130.647
20
-58.2004
11
130.473
21
-58.2373
0
LINE
8
BLACK
6
CONTINUOUS
10
130.473
20
-58.2373
11
130.295
21
-58.2373
0
LINE
8
BLACK
6
CONTINUOUS
10
130.295
20
-58.2373
11
130.121
21
-58.2004
0
LINE
8
BLACK
6
CONTINUOUS
10
130.121
20
-58.2004
11
129.959
21
-58.1281
0
LINE
8
BLACK
6
CONTINUOUS
10
129.959
20
-58.1281
11
129.815
21
-58.0237
0
LINE
8
BLACK
6
CONTINUOUS
10
129.815
20
-58.0237
11
129.696
21
-57.8916
0
LINE
8
BLACK
6
CONTINUOUS
10
129.696
20
-57.8916
11
129.607
21
-57.7377
0
LINE
8
BLACK
6
CONTINUOUS
10
129.607
20
-57.7377
11
129.552
21
-57.5687
0
LINE
8
BLACK
6
CONTINUOUS
10
129.552
20
-57.5687
11
129.534
21
-57.392
0
LINE
8
BLACK
6
CONTINUOUS
10
129.534
20
-57.392
11
129.552
21
-57.2153
0
LINE
8
BLACK
6
CONTINUOUS
10
129.552
20
-57.2153
11
129.607
21
-57.0463
0
LINE
8
BLACK
6
CONTINUOUS
10
129.607
20
-57.0463
11
129.696
21
-56.8924
0
LINE
8
BLACK
6
CONTINUOUS
10
129.696
20
-56.8924
11
129.815
21
-56.7603
0
LINE
8
BLACK
6
CONTINUOUS
10
129.815
20
-56.7603
11
129.959
21
-56.6559
0
LINE
8
BLACK
6
CONTINUOUS
10
129.959
20
-56.6559
11
130.121
21
-56.5836
0
LINE
8
BLACK
6
CONTINUOUS
10
130.121
20
-56.5836
11
130.295
21
-56.5467
0
LINE
8
BLACK
6
CONTINUOUS
10
130.295
20
-56.5467
11
130.473
21
-56.5467
0
LINE
8
BLACK
6
CONTINUOUS
10
130.473
20
-56.5467
11
130.647
21
-56.5836
0
LINE
8
BLACK
6
CONTINUOUS
10
53.3996
20
-55.3656
11
53.562
21
-55.4378
0
LINE
8
BLACK
6
CONTINUOUS
10
53.562
20
-55.4378
11
53.7057
21
-55.5423
0
LINE
8
BLACK
6
CONTINUOUS
10
53.7057
20
-55.5423
11
53.8246
21
-55.6743
0
LINE
8
BLACK
6
CONTINUOUS
10
53.8246
20
-55.6743
11
53.9135
21
-55.8282
0
LINE
8
BLACK
6
CONTINUOUS
10
53.9135
20
-55.8282
11
53.9684
21
-55.9972
0
LINE
8
BLACK
6
CONTINUOUS
10
53.9684
20
-55.9972
11
53.987
21
-56.174
0
LINE
8
BLACK
6
CONTINUOUS
10
53.987
20
-56.174
11
53.9684
21
-56.3507
0
LINE
8
BLACK
6
CONTINUOUS
10
53.9684
20
-56.3507
11
53.9135
21
-56.5197
0
LINE
8
BLACK
6
CONTINUOUS
10
53.9135
20
-56.5197
11
53.8246
21
-56.6736
0
LINE
8
BLACK
6
CONTINUOUS
10
53.8246
20
-56.6736
11
53.7057
21
-56.8056
0
LINE
8
BLACK
6
CONTINUOUS
10
53.7057
20
-56.8056
11
53.562
21
-56.9101
0
LINE
8
BLACK
6
CONTINUOUS
10
53.562
20
-56.9101
11
53.3996
21
-56.9824
0
LINE
8
BLACK
6
CONTINUOUS
10
53.3996
20
-56.9824
11
53.2258
21
-57.0193
0
LINE
8
BLACK
6
CONTINUOUS
10
53.2258
20
-57.0193
11
53.0481
21
-57.0193
0
LINE
8
BLACK
6
CONTINUOUS
10
53.0481
20
-57.0193
11
52.8743
21
-56.9824
0
LINE
8
BLACK
6
CONTINUOUS
10
52.8743
20
-56.9824
11
52.712
21
-56.9101
0
LINE
8
BLACK
6
CONTINUOUS
10
52.712
20
-56.9101
11
52.5682
21
-56.8056
0
LINE
8
BLACK
6
CONTINUOUS
10
52.5682
20
-56.8056
11
52.4493
21
-56.6736
0
LINE
8
BLACK
6
CONTINUOUS
10
52.4493
20
-56.6736
11
52.3605
21
-56.5197
0
LINE
8
BLACK
6
CONTINUOUS
10
52.3605
20
-56.5197
11
52.3056
21
-56.3507
0
LINE
8
BLACK
6
CONTINUOUS
10
52.3056
20
-56.3507
11
52.287
21
-56.174
0
LINE
8
BLACK
6
CONTINUOUS
10
52.287
20
-56.174
11
52.3056
21
-55.9972
0
LINE
8
BLACK
6
CONTINUOUS
10
52.3056
20
-55.9972
11
52.3605
21
-55.8282
0
LINE
8
BLACK
6
CONTINUOUS
10
52.3605
20
-55.8282
11
52.4493
21
-55.6743
0
LINE
8
BLACK
6
CONTINUOUS
10
52.4493
20
-55.6743
11
52.5682
21
-55.5423
0
LINE
8
BLACK
6
CONTINUOUS
10
52.5682
20
-55.5423
11
52.712
21
-55.4378
0
LINE
8
BLACK
6
CONTINUOUS
10
52.712
20
-55.4378
11
52.8743
21
-55.3656
0
LINE
8
BLACK
6
CONTINUOUS
10
52.8743
20
-55.3656
11
53.0481
21
-55.3286
0
LINE
8
BLACK
6
CONTINUOUS
10
53.0481
20
-55.3286
11
53.2258
21
-55.3286
0
LINE
8
BLACK
6
CONTINUOUS
10
53.2258
20
-55.3286
11
53.3996
21
-55.3656
0
LINE
8
BLACK
6
CONTINUOUS
10
132.846
20
-55.3136
11
133.009
21
-55.3859
0
LINE
8
BLACK
6
CONTINUOUS
10
133.009
20
-55.3859
11
133.152
21
-55.4903
0
LINE
8
BLACK
6
CONTINUOUS
10
133.152
20
-55.4903
11
133.271
21
-55.6224
0
LINE
8
BLACK
6
CONTINUOUS
10
133.271
20
-55.6224
11
133.36
21
-55.7763
0
LINE
8
BLACK
6
CONTINUOUS
10
133.36
20
-55.7763
11
133.415
21
-55.9453
0
LINE
8
BLACK
6
CONTINUOUS
10
133.415
20
-55.9453
11
133.434
21
-56.122
0
LINE
8
BLACK
6
CONTINUOUS
10
133.434
20
-56.122
11
133.415
21
-56.2987
0
LINE
8
BLACK
6
CONTINUOUS
10
133.415
20
-56.2987
11
133.36
21
-56.4677
0
LINE
8
BLACK
6
CONTINUOUS
10
133.36
20
-56.4677
11
133.271
21
-56.6216
0
LINE
8
BLACK
6
CONTINUOUS
10
133.271
20
-56.6216
11
133.152
21
-56.7537
0
LINE
8
BLACK
6
CONTINUOUS
10
133.152
20
-56.7537
11
133.009
21
-56.8581
0
LINE
8
BLACK
6
CONTINUOUS
10
133.009
20
-56.8581
11
132.846
21
-56.9304
0
LINE
8
BLACK
6
CONTINUOUS
10
132.846
20
-56.9304
11
132.672
21
-56.9673
0
LINE
8
BLACK
6
CONTINUOUS
10
132.672
20
-56.9673
11
132.495
21
-56.9673
0
LINE
8
BLACK
6
CONTINUOUS
10
132.495
20
-56.9673
11
132.321
21
-56.9304
0
LINE
8
BLACK
6
CONTINUOUS
10
132.321
20
-56.9304
11
132.159
21
-56.8581
0
LINE
8
BLACK
6
CONTINUOUS
10
132.159
20
-56.8581
11
132.015
21
-56.7537
0
LINE
8
BLACK
6
CONTINUOUS
10
132.015
20
-56.7537
11
131.896
21
-56.6216
0
LINE
8
BLACK
6
CONTINUOUS
10
131.896
20
-56.6216
11
131.807
21
-56.4677
0
LINE
8
BLACK
6
CONTINUOUS
10
131.807
20
-56.4677
11
131.752
21
-56.2987
0
LINE
8
BLACK
6
CONTINUOUS
10
131.752
20
-56.2987
11
131.734
21
-56.122
0
LINE
8
BLACK
6
CONTINUOUS
10
131.734
20
-56.122
11
131.752
21
-55.9453
0
LINE
8
BLACK
6
CONTINUOUS
10
131.752
20
-55.9453
11
131.807
21
-55.7763
0
LINE
8
BLACK
6
CONTINUOUS
10
131.807
20
-55.7763
11
131.896
21
-55.6224
0
LINE
8
BLACK
6
CONTINUOUS
10
131.896
20
-55.6224
11
132.015
21
-55.4903
0
LINE
8
BLACK
6
CONTINUOUS
10
132.015
20
-55.4903
11
132.159
21
-55.3859
0
LINE
8
BLACK
6
CONTINUOUS
10
132.159
20
-55.3859
11
132.321
21
-55.3136
0
LINE
8
BLACK
6
CONTINUOUS
10
132.321
20
-55.3136
11
132.495
21
-55.2767
0
LINE
8
BLACK
6
CONTINUOUS
10
132.495
20
-55.2767
11
132.672
21
-55.2767
0
LINE
8
BLACK
6
CONTINUOUS
10
132.672
20
-55.2767
11
132.846
21
-55.3136
0
LINE
8
BLACK
6
CONTINUOUS
10
56.8694
20
-54.4359
11
57.0317
21
-54.5081
0
LINE
8
BLACK
6
CONTINUOUS
10
57.0317
20
-54.5081
11
57.1755
21
-54.6126
0
LINE
8
BLACK
6
CONTINUOUS
10
57.1755
20
-54.6126
11
57.2944
21
-54.7446
0
LINE
8
BLACK
6
CONTINUOUS
10
57.2944
20
-54.7446
11
57.3832
21
-54.8985
0
LINE
8
BLACK
6
CONTINUOUS
10
57.3832
20
-54.8985
11
57.4381
21
-55.0675
0
LINE
8
BLACK
6
CONTINUOUS
10
57.4381
20
-55.0675
11
57.4567
21
-55.2443
0
LINE
8
BLACK
6
CONTINUOUS
10
57.4567
20
-55.2443
11
57.4381
21
-55.421
0
LINE
8
BLACK
6
CONTINUOUS
10
57.4381
20
-55.421
11
57.3832
21
-55.59
0
LINE
8
BLACK
6
CONTINUOUS
10
57.3832
20
-55.59
11
57.2944
21
-55.7439
0
LINE
8
BLACK
6
CONTINUOUS
10
57.2944
20
-55.7439
11
57.1755
21
-55.8759
0
LINE
8
BLACK
6
CONTINUOUS
10
57.1755
20
-55.8759
11
57.0317
21
-55.9804
0
LINE
8
BLACK
6
CONTINUOUS
10
57.0317
20
-55.9804
11
56.8694
21
-56.0526
0
LINE
8
BLACK
6
CONTINUOUS
10
56.8694
20
-56.0526
11
56.6955
21
-56.0896
0
LINE
8
BLACK
6
CONTINUOUS
10
56.6955
20
-56.0896
11
56.5178
21
-56.0896
0
LINE
8
BLACK
6
CONTINUOUS
10
56.5178
20
-56.0896
11
56.344
21
-56.0526
0
LINE
8
BLACK
6
CONTINUOUS
10
56.344
20
-56.0526
11
56.1817
21
-55.9804
0
LINE
8
BLACK
6
CONTINUOUS
10
56.1817
20
-55.9804
11
56.0379
21
-55.8759
0
LINE
8
BLACK
6
CONTINUOUS
10
56.0379
20
-55.8759
11
55.919
21
-55.7439
0
LINE
8
BLACK
6
CONTINUOUS
10
55.919
20
-55.7439
11
55.8302
21
-55.59
0
LINE
8
BLACK
6
CONTINUOUS
10
55.8302
20
-55.59
11
55.7753
21
-55.421
0
LINE
8
BLACK
6
CONTINUOUS
10
55.7753
20
-55.421
11
55.7567
21
-55.2443
0
LINE
8
BLACK
6
CONTINUOUS
10
55.7567
20
-55.2443
11
55.7753
21
-55.0675
0
LINE
8
BLACK
6
CONTINUOUS
10
55.7753
20
-55.0675
11
55.8302
21
-54.8985
0
LINE
8
BLACK
6
CONTINUOUS
10
55.8302
20
-54.8985
11
55.919
21
-54.7446
0
LINE
8
BLACK
6
CONTINUOUS
10
55.919
20
-54.7446
11
56.0379
21
-54.6126
0
LINE
8
BLACK
6
CONTINUOUS
10
56.0379
20
-54.6126
11
56.1817
21
-54.5081
0
LINE
8
BLACK
6
CONTINUOUS
10
56.1817
20
-54.5081
11
56.344
21
-54.4359
0
LINE
8
BLACK
6
CONTINUOUS
10
56.344
20
-54.4359
11
56.5178
21
-54.3989
0
LINE
8
BLACK
6
CONTINUOUS
10
56.5178
20
-54.3989
11
56.6955
21
-54.3989
0
LINE
8
BLACK
6
CONTINUOUS
10
56.6955
20
-54.3989
11
56.8694
21
-54.4359
0
LINE
8
BLACK
6
CONTINUOUS
10
129.377
20
-54.3839
11
129.539
21
-54.4562
0
LINE
8
BLACK
6
CONTINUOUS
10
129.539
20
-54.4562
11
129.683
21
-54.5606
0
LINE
8
BLACK
6
CONTINUOUS
10
129.683
20
-54.5606
11
129.802
21
-54.6927
0
LINE
8
BLACK
6
CONTINUOUS
10
129.802
20
-54.6927
11
129.89
21
-54.8466
0
LINE
8
BLACK
6
CONTINUOUS
10
129.89
20
-54.8466
11
129.945
21
-55.0156
0
LINE
8
BLACK
6
CONTINUOUS
10
129.945
20
-55.0156
11
129.964
21
-55.1923
0
LINE
8
BLACK
6
CONTINUOUS
10
129.964
20
-55.1923
11
129.945
21
-55.369
0
LINE
8
BLACK
6
CONTINUOUS
10
129.945
20
-55.369
11
129.89
21
-55.538
0
LINE
8
BLACK
6
CONTINUOUS
10
129.89
20
-55.538
11
129.802
21
-55.6919
0
LINE
8
BLACK
6
CONTINUOUS
10
129.802
20
-55.6919
11
129.683
21
-55.824
0
LINE
8
BLACK
6
CONTINUOUS
10
129.683
20
-55.824
11
129.539
21
-55.9284
0
LINE
8
BLACK
6
CONTINUOUS
10
129.539
20
-55.9284
11
129.377
21
-56.0007
0
LINE
8
BLACK
6
CONTINUOUS
10
129.377
20
-56.0007
11
129.203
21
-56.0376
0
LINE
8
BLACK
6
CONTINUOUS
10
129.203
20
-56.0376
11
129.025
21
-56.0376
0
LINE
8
BLACK
6
CONTINUOUS
10
129.025
20
-56.0376
11
128.851
21
-56.0007
0
LINE
8
BLACK
6
CONTINUOUS
10
128.851
20
-56.0007
11
128.689
21
-55.9284
0
LINE
8
BLACK
6
CONTINUOUS
10
128.689
20
-55.9284
11
128.545
21
-55.824
0
LINE
8
BLACK
6
CONTINUOUS
10
128.545
20
-55.824
11
128.426
21
-55.6919
0
LINE
8
BLACK
6
CONTINUOUS
10
128.426
20
-55.6919
11
128.337
21
-55.538
0
LINE
8
BLACK
6
CONTINUOUS
10
128.337
20
-55.538
11
128.282
21
-55.369
0
LINE
8
BLACK
6
CONTINUOUS
10
128.282
20
-55.369
11
128.264
21
-55.1923
0
LINE
8
BLACK
6
CONTINUOUS
10
128.264
20
-55.1923
11
128.282
21
-55.0156
0
LINE
8
BLACK
6
CONTINUOUS
10
128.282
20
-55.0156
11
128.337
21
-54.8466
0
LINE
8
BLACK
6
CONTINUOUS
10
128.337
20
-54.8466
11
128.426
21
-54.6927
0
LINE
8
BLACK
6
CONTINUOUS
10
128.426
20
-54.6927
11
128.545
21
-54.5606
0
LINE
8
BLACK
6
CONTINUOUS
10
128.545
20
-54.5606
11
128.689
21
-54.4562
0
LINE
8
BLACK
6
CONTINUOUS
10
128.689
20
-54.4562
11
128.851
21
-54.3839
0
LINE
8
BLACK
6
CONTINUOUS
10
128.851
20
-54.3839
11
129.025
21
-54.3469
0
LINE
8
BLACK
6
CONTINUOUS
10
129.025
20
-54.3469
11
129.203
21
-54.3469
0
LINE
8
BLACK
6
CONTINUOUS
10
129.203
20
-54.3469
11
129.377
21
-54.3839
0
LINE
8
BLACK
6
CONTINUOUS
10
68.0087
20
-55.86
11
65.4587
21
-55.86
0
LINE
8
BLACK
6
CONTINUOUS
10
65.4587
20
-55.86
11
65.4587
21
-53.36
0
LINE
8
BLACK
6
CONTINUOUS
10
65.4587
20
-53.36
11
68.0087
21
-53.36
0
LINE
8
BLACK
6
CONTINUOUS
10
68.0087
20
-53.36
11
68.0087
21
-55.86
0
LINE
8
BLACK
6
CONTINUOUS
10
106.109
20
-55.86
11
103.559
21
-55.86
0
LINE
8
BLACK
6
CONTINUOUS
10
103.559
20
-55.86
11
103.559
21
-53.36
0
LINE
8
BLACK
6
CONTINUOUS
10
103.559
20
-53.36
11
106.109
21
-53.36
0
LINE
8
BLACK
6
CONTINUOUS
10
106.109
20
-53.36
11
106.109
21
-55.86
0
LINE
8
BLACK
6
CONTINUOUS
10
87.0587
20
-55.86
11
84.5087
21
-55.86
0
LINE
8
BLACK
6
CONTINUOUS
10
84.5087
20
-55.86
11
84.5087
21
-53.36
0
LINE
8
BLACK
6
CONTINUOUS
10
84.5087
20
-53.36
11
87.0587
21
-53.36
0
LINE
8
BLACK
6
CONTINUOUS
10
87.0587
20
-53.36
11
87.0587
21
-55.86
0
LINE
8
BLACK
6
CONTINUOUS
10
54.6696
20
-53.1659
11
54.832
21
-53.2381
0
LINE
8
BLACK
6
CONTINUOUS
10
54.832
20
-53.2381
11
54.9757
21
-53.3426
0
LINE
8
BLACK
6
CONTINUOUS
10
54.9757
20
-53.3426
11
55.0946
21
-53.4746
0
LINE
8
BLACK
6
CONTINUOUS
10
55.0946
20
-53.4746
11
55.1835
21
-53.6285
0
LINE
8
BLACK
6
CONTINUOUS
10
55.1835
20
-53.6285
11
55.2384
21
-53.7975
0
LINE
8
BLACK
6
CONTINUOUS
10
55.2384
20
-53.7975
11
55.257
21
-53.9743
0
LINE
8
BLACK
6
CONTINUOUS
10
55.257
20
-53.9743
11
55.2384
21
-54.151
0
LINE
8
BLACK
6
CONTINUOUS
10
55.2384
20
-54.151
11
55.1835
21
-54.32
0
LINE
8
BLACK
6
CONTINUOUS
10
55.1835
20
-54.32
11
55.0946
21
-54.4739
0
LINE
8
BLACK
6
CONTINUOUS
10
55.0946
20
-54.4739
11
54.9757
21
-54.6059
0
LINE
8
BLACK
6
CONTINUOUS
10
54.9757
20
-54.6059
11
54.832
21
-54.7104
0
LINE
8
BLACK
6
CONTINUOUS
10
54.832
20
-54.7104
11
54.6696
21
-54.7826
0
LINE
8
BLACK
6
CONTINUOUS
10
54.6696
20
-54.7826
11
54.4958
21
-54.8196
0
LINE
8
BLACK
6
CONTINUOUS
10
54.4958
20
-54.8196
11
54.3181
21
-54.8196
0
LINE
8
BLACK
6
CONTINUOUS
10
54.3181
20
-54.8196
11
54.1443
21
-54.7826
0
LINE
8
BLACK
6
CONTINUOUS
10
54.1443
20
-54.7826
11
53.982
21
-54.7104
0
LINE
8
BLACK
6
CONTINUOUS
10
53.982
20
-54.7104
11
53.8382
21
-54.6059
0
LINE
8
BLACK
6
CONTINUOUS
10
53.8382
20
-54.6059
11
53.7193
21
-54.4739
0
LINE
8
BLACK
6
CONTINUOUS
10
53.7193
20
-54.4739
11
53.6305
21
-54.32
0
LINE
8
BLACK
6
CONTINUOUS
10
53.6305
20
-54.32
11
53.5756
21
-54.151
0
LINE
8
BLACK
6
CONTINUOUS
10
53.5756
20
-54.151
11
53.557
21
-53.9743
0
LINE
8
BLACK
6
CONTINUOUS
10
53.557
20
-53.9743
11
53.5756
21
-53.7975
0
LINE
8
BLACK
6
CONTINUOUS
10
53.5756
20
-53.7975
11
53.6305
21
-53.6285
0
LINE
8
BLACK
6
CONTINUOUS
10
53.6305
20
-53.6285
11
53.7193
21
-53.4746
0
LINE
8
BLACK
6
CONTINUOUS
10
53.7193
20
-53.4746
11
53.8382
21
-53.3426
0
LINE
8
BLACK
6
CONTINUOUS
10
53.8382
20
-53.3426
11
53.982
21
-53.2381
0
LINE
8
BLACK
6
CONTINUOUS
10
53.982
20
-53.2381
11
54.1443
21
-53.1659
0
LINE
8
BLACK
6
CONTINUOUS
10
54.1443
20
-53.1659
11
54.3181
21
-53.1289
0
LINE
8
BLACK
6
CONTINUOUS
10
54.3181
20
-53.1289
11
54.4958
21
-53.1289
0
LINE
8
BLACK
6
CONTINUOUS
10
54.4958
20
-53.1289
11
54.6696
21
-53.1659
0
LINE
8
BLACK
6
CONTINUOUS
10
131.576
20
-53.1139
11
131.739
21
-53.1862
0
LINE
8
BLACK
6
CONTINUOUS
10
131.739
20
-53.1862
11
131.882
21
-53.2906
0
LINE
8
BLACK
6
CONTINUOUS
10
131.882
20
-53.2906
11
132.001
21
-53.4227
0
LINE
8
BLACK
6
CONTINUOUS
10
132.001
20
-53.4227
11
132.09
21
-53.5766
0
LINE
8
BLACK
6
CONTINUOUS
10
132.09
20
-53.5766
11
132.145
21
-53.7456
0
LINE
8
BLACK
6
CONTINUOUS
10
132.145
20
-53.7456
11
132.164
21
-53.9223
0
LINE
8
BLACK
6
CONTINUOUS
10
132.164
20
-53.9223
11
132.145
21
-54.099
0
LINE
8
BLACK
6
CONTINUOUS
10
132.145
20
-54.099
11
132.09
21
-54.268
0
LINE
8
BLACK
6
CONTINUOUS
10
132.09
20
-54.268
11
132.001
21
-54.4219
0
LINE
8
BLACK
6
CONTINUOUS
10
132.001
20
-54.4219
11
131.882
21
-54.554
0
LINE
8
BLACK
6
CONTINUOUS
10
131.882
20
-54.554
11
131.739
21
-54.6584
0
LINE
8
BLACK
6
CONTINUOUS
10
131.739
20
-54.6584
11
131.576
21
-54.7307
0
LINE
8
BLACK
6
CONTINUOUS
10
131.576
20
-54.7307
11
131.402
21
-54.7676
0
LINE
8
BLACK
6
CONTINUOUS
10
131.402
20
-54.7676
11
131.225
21
-54.7676
0
LINE
8
BLACK
6
CONTINUOUS
10
131.225
20
-54.7676
11
131.051
21
-54.7307
0
LINE
8
BLACK
6
CONTINUOUS
10
131.051
20
-54.7307
11
130.889
21
-54.6584
0
LINE
8
BLACK
6
CONTINUOUS
10
130.889
20
-54.6584
11
130.745
21
-54.554
0
LINE
8
BLACK
6
CONTINUOUS
10
130.745
20
-54.554
11
130.626
21
-54.4219
0
LINE
8
BLACK
6
CONTINUOUS
10
130.626
20
-54.4219
11
130.537
21
-54.268
0
LINE
8
BLACK
6
CONTINUOUS
10
130.537
20
-54.268
11
130.482
21
-54.099
0
LINE
8
BLACK
6
CONTINUOUS
10
130.482
20
-54.099
11
130.464
21
-53.9223
0
LINE
8
BLACK
6
CONTINUOUS
10
130.464
20
-53.9223
11
130.482
21
-53.7456
0
LINE
8
BLACK
6
CONTINUOUS
10
130.482
20
-53.7456
11
130.537
21
-53.5766
0
LINE
8
BLACK
6
CONTINUOUS
10
130.537
20
-53.5766
11
130.626
21
-53.4227
0
LINE
8
BLACK
6
CONTINUOUS
10
130.626
20
-53.4227
11
130.745
21
-53.2906
0
LINE
8
BLACK
6
CONTINUOUS
10
130.745
20
-53.2906
11
130.889
21
-53.1862
0
LINE
8
BLACK
6
CONTINUOUS
10
130.889
20
-53.1862
11
131.051
21
-53.1139
0
LINE
8
BLACK
6
CONTINUOUS
10
131.051
20
-53.1139
11
131.225
21
-53.0769
0
LINE
8
BLACK
6
CONTINUOUS
10
131.225
20
-53.0769
11
131.402
21
-53.0769
0
LINE
8
BLACK
6
CONTINUOUS
10
131.402
20
-53.0769
11
131.576
21
-53.1139
0
LINE
8
BLACK
6
CONTINUOUS
10
58.1394
20
-52.2361
11
58.3017
21
-52.3084
0
LINE
8
BLACK
6
CONTINUOUS
10
58.3017
20
-52.3084
11
58.4455
21
-52.4129
0
LINE
8
BLACK
6
CONTINUOUS
10
58.4455
20
-52.4129
11
58.5644
21
-52.5449
0
LINE
8
BLACK
6
CONTINUOUS
10
58.5644
20
-52.5449
11
58.6532
21
-52.6988
0
LINE
8
BLACK
6
CONTINUOUS
10
58.6532
20
-52.6988
11
58.7081
21
-52.8678
0
LINE
8
BLACK
6
CONTINUOUS
10
58.7081
20
-52.8678
11
58.7267
21
-53.0445
0
LINE
8
BLACK
6
CONTINUOUS
10
58.7267
20
-53.0445
11
58.7081
21
-53.2213
0
LINE
8
BLACK
6
CONTINUOUS
10
58.7081
20
-53.2213
11
58.6532
21
-53.3903
0
LINE
8
BLACK
6
CONTINUOUS
10
58.6532
20
-53.3903
11
58.5644
21
-53.5442
0
LINE
8
BLACK
6
CONTINUOUS
10
58.5644
20
-53.5442
11
58.4455
21
-53.6762
0
LINE
8
BLACK
6
CONTINUOUS
10
58.4455
20
-53.6762
11
58.3017
21
-53.7807
0
LINE
8
BLACK
6
CONTINUOUS
10
58.3017
20
-53.7807
11
58.1394
21
-53.8529
0
LINE
8
BLACK
6
CONTINUOUS
10
58.1394
20
-53.8529
11
57.9655
21
-53.8899
0
LINE
8
BLACK
6
CONTINUOUS
10
57.9655
20
-53.8899
11
57.7878
21
-53.8899
0
LINE
8
BLACK
6
CONTINUOUS
10
57.7878
20
-53.8899
11
57.614
21
-53.8529
0
LINE
8
BLACK
6
CONTINUOUS
10
57.614
20
-53.8529
11
57.4517
21
-53.7807
0
LINE
8
BLACK
6
CONTINUOUS
10
57.4517
20
-53.7807
11
57.3079
21
-53.6762
0
LINE
8
BLACK
6
CONTINUOUS
10
57.3079
20
-53.6762
11
57.189
21
-53.5442
0
LINE
8
BLACK
6
CONTINUOUS
10
57.189
20
-53.5442
11
57.1002
21
-53.3903
0
LINE
8
BLACK
6
CONTINUOUS
10
57.1002
20
-53.3903
11
57.0453
21
-53.2213
0
LINE
8
BLACK
6
CONTINUOUS
10
57.0453
20
-53.2213
11
57.0267
21
-53.0445
0
LINE
8
BLACK
6
CONTINUOUS
10
57.0267
20
-53.0445
11
57.0453
21
-52.8678
0
LINE
8
BLACK
6
CONTINUOUS
10
57.0453
20
-52.8678
11
57.1002
21
-52.6988
0
LINE
8
BLACK
6
CONTINUOUS
10
57.1002
20
-52.6988
11
57.189
21
-52.5449
0
LINE
8
BLACK
6
CONTINUOUS
10
57.189
20
-52.5449
11
57.3079
21
-52.4129
0
LINE
8
BLACK
6
CONTINUOUS
10
57.3079
20
-52.4129
11
57.4517
21
-52.3084
0
LINE
8
BLACK
6
CONTINUOUS
10
57.4517
20
-52.3084
11
57.614
21
-52.2361
0
LINE
8
BLACK
6
CONTINUOUS
10
57.614
20
-52.2361
11
57.7878
21
-52.1992
0
LINE
8
BLACK
6
CONTINUOUS
10
57.7878
20
-52.1992
11
57.9655
21
-52.1992
0
LINE
8
BLACK
6
CONTINUOUS
10
57.9655
20
-52.1992
11
58.1394
21
-52.2361
0
LINE
8
BLACK
6
CONTINUOUS
10
128.107
20
-52.1842
11
128.269
21
-52.2565
0
LINE
8
BLACK
6
CONTINUOUS
10
128.269
20
-52.2565
11
128.413
21
-52.3609
0
LINE
8
BLACK
6
CONTINUOUS
10
128.413
20
-52.3609
11
128.532
21
-52.493
0
LINE
8
BLACK
6
CONTINUOUS
10
128.532
20
-52.493
11
128.62
21
-52.6469
0
LINE
8
BLACK
6
CONTINUOUS
10
128.62
20
-52.6469
11
128.675
21
-52.8159
0
LINE
8
BLACK
6
CONTINUOUS
10
128.675
20
-52.8159
11
128.694
21
-52.9926
0
LINE
8
BLACK
6
CONTINUOUS
10
128.694
20
-52.9926
11
128.675
21
-53.1693
0
LINE
8
BLACK
6
CONTINUOUS
10
128.675
20
-53.1693
11
128.62
21
-53.3383
0
LINE
8
BLACK
6
CONTINUOUS
10
128.62
20
-53.3383
11
128.532
21
-53.4922
0
LINE
8
BLACK
6
CONTINUOUS
10
128.532
20
-53.4922
11
128.413
21
-53.6243
0
LINE
8
BLACK
6
CONTINUOUS
10
128.413
20
-53.6243
11
128.269
21
-53.7287
0
LINE
8
BLACK
6
CONTINUOUS
10
128.269
20
-53.7287
11
128.107
21
-53.801
0
LINE
8
BLACK
6
CONTINUOUS
10
128.107
20
-53.801
11
127.933
21
-53.8379
0
LINE
8
BLACK
6
CONTINUOUS
10
127.933
20
-53.8379
11
127.755
21
-53.8379
0
LINE
8
BLACK
6
CONTINUOUS
10
127.755
20
-53.8379
11
127.581
21
-53.801
0
LINE
8
BLACK
6
CONTINUOUS
10
127.581
20
-53.801
11
127.419
21
-53.7287
0
LINE
8
BLACK
6
CONTINUOUS
10
127.419
20
-53.7287
11
127.275
21
-53.6243
0
LINE
8
BLACK
6
CONTINUOUS
10
127.275
20
-53.6243
11
127.156
21
-53.4922
0
LINE
8
BLACK
6
CONTINUOUS
10
127.156
20
-53.4922
11
127.067
21
-53.3383
0
LINE
8
BLACK
6
CONTINUOUS
10
127.067
20
-53.3383
11
127.012
21
-53.1693
0
LINE
8
BLACK
6
CONTINUOUS
10
127.012
20
-53.1693
11
126.994
21
-52.9926
0
LINE
8
BLACK
6
CONTINUOUS
10
126.994
20
-52.9926
11
127.012
21
-52.8159
0
LINE
8
BLACK
6
CONTINUOUS
10
127.012
20
-52.8159
11
127.067
21
-52.6469
0
LINE
8
BLACK
6
CONTINUOUS
10
127.067
20
-52.6469
11
127.156
21
-52.493
0
LINE
8
BLACK
6
CONTINUOUS
10
127.156
20
-52.493
11
127.275
21
-52.3609
0
LINE
8
BLACK
6
CONTINUOUS
10
127.275
20
-52.3609
11
127.419
21
-52.2565
0
LINE
8
BLACK
6
CONTINUOUS
10
127.419
20
-52.2565
11
127.581
21
-52.1842
0
LINE
8
BLACK
6
CONTINUOUS
10
127.581
20
-52.1842
11
127.755
21
-52.1472
0
LINE
8
BLACK
6
CONTINUOUS
10
127.755
20
-52.1472
11
127.933
21
-52.1472
0
LINE
8
BLACK
6
CONTINUOUS
10
127.933
20
-52.1472
11
128.107
21
-52.1842
0
LINE
8
BLACK
6
CONTINUOUS
10
119.036
20
-53.32
11
116.486
21
-53.32
0
LINE
8
BLACK
6
CONTINUOUS
10
116.486
20
-53.32
11
116.486
21
-50.82
0
LINE
8
BLACK
6
CONTINUOUS
10
116.486
20
-50.82
11
119.036
21
-50.82
0
LINE
8
BLACK
6
CONTINUOUS
10
119.036
20
-50.82
11
119.036
21
-53.32
0
LINE
8
BLACK
6
CONTINUOUS
10
80.9357
20
-53.32
11
78.3858
21
-53.32
0
LINE
8
BLACK
6
CONTINUOUS
10
78.3858
20
-53.32
11
78.3858
21
-50.82
0
LINE
8
BLACK
6
CONTINUOUS
10
78.3858
20
-50.82
11
80.9357
21
-50.82
0
LINE
8
BLACK
6
CONTINUOUS
10
80.9357
20
-50.82
11
80.9357
21
-53.32
0
LINE
8
BLACK
6
CONTINUOUS
10
99.9857
20
-53.32
11
97.4357
21
-53.32
0
LINE
8
BLACK
6
CONTINUOUS
10
97.4357
20
-53.32
11
97.4357
21
-50.82
0
LINE
8
BLACK
6
CONTINUOUS
10
97.4357
20
-50.82
11
99.9857
21
-50.82
0
LINE
8
BLACK
6
CONTINUOUS
10
99.9857
20
-50.82
11
99.9857
21
-53.32
0
LINE
8
BLACK
6
CONTINUOUS
10
55.9396
20
-50.9661
11
56.102
21
-51.0384
0
LINE
8
BLACK
6
CONTINUOUS
10
56.102
20
-51.0384
11
56.2457
21
-51.1429
0
LINE
8
BLACK
6
CONTINUOUS
10
56.2457
20
-51.1429
11
56.3646
21
-51.2749
0
LINE
8
BLACK
6
CONTINUOUS
10
56.3646
20
-51.2749
11
56.4535
21
-51.4288
0
LINE
8
BLACK
6
CONTINUOUS
10
56.4535
20
-51.4288
11
56.5084
21
-51.5978
0
LINE
8
BLACK
6
CONTINUOUS
10
56.5084
20
-51.5978
11
56.527
21
-51.7745
0
LINE
8
BLACK
6
CONTINUOUS
10
56.527
20
-51.7745
11
56.5084
21
-51.9513
0
LINE
8
BLACK
6
CONTINUOUS
10
56.5084
20
-51.9513
11
56.4535
21
-52.1203
0
LINE
8
BLACK
6
CONTINUOUS
10
56.4535
20
-52.1203
11
56.3646
21
-52.2742
0
LINE
8
BLACK
6
CONTINUOUS
10
56.3646
20
-52.2742
11
56.2457
21
-52.4062
0
LINE
8
BLACK
6
CONTINUOUS
10
56.2457
20
-52.4062
11
56.102
21
-52.5107
0
LINE
8
BLACK
6
CONTINUOUS
10
56.102
20
-52.5107
11
55.9396
21
-52.5829
0
LINE
8
BLACK
6
CONTINUOUS
10
55.9396
20
-52.5829
11
55.7658
21
-52.6199
0
LINE
8
BLACK
6
CONTINUOUS
10
55.7658
20
-52.6199
11
55.5881
21
-52.6199
0
LINE
8
BLACK
6
CONTINUOUS
10
55.5881
20
-52.6199
11
55.4143
21
-52.5829
0
LINE
8
BLACK
6
CONTINUOUS
10
55.4143
20
-52.5829
11
55.252
21
-52.5107
0
LINE
8
BLACK
6
CONTINUOUS
10
55.252
20
-52.5107
11
55.1082
21
-52.4062
0
LINE
8
BLACK
6
CONTINUOUS
10
55.1082
20
-52.4062
11
54.9893
21
-52.2742
0
LINE
8
BLACK
6
CONTINUOUS
10
54.9893
20
-52.2742
11
54.9005
21
-52.1203
0
LINE
8
BLACK
6
CONTINUOUS
10
54.9005
20
-52.1203
11
54.8456
21
-51.9513
0
LINE
8
BLACK
6
CONTINUOUS
10
54.8456
20
-51.9513
11
54.827
21
-51.7745
0
LINE
8
BLACK
6
CONTINUOUS
10
54.827
20
-51.7745
11
54.8456
21
-51.5978
0
LINE
8
BLACK
6
CONTINUOUS
10
54.8456
20
-51.5978
11
54.9005
21
-51.4288
0
LINE
8
BLACK
6
CONTINUOUS
10
54.9005
20
-51.4288
11
54.9893
21
-51.2749
0
LINE
8
BLACK
6
CONTINUOUS
10
54.9893
20
-51.2749
11
55.1082
21
-51.1429
0
LINE
8
BLACK
6
CONTINUOUS
10
55.1082
20
-51.1429
11
55.252
21
-51.0384
0
LINE
8
BLACK
6
CONTINUOUS
10
55.252
20
-51.0384
11
55.4143
21
-50.9661
0
LINE
8
BLACK
6
CONTINUOUS
10
55.4143
20
-50.9661
11
55.5881
21
-50.9292
0
LINE
8
BLACK
6
CONTINUOUS
10
55.5881
20
-50.9292
11
55.7658
21
-50.9292
0
LINE
8
BLACK
6
CONTINUOUS
10
55.7658
20
-50.9292
11
55.9396
21
-50.9661
0
LINE
8
BLACK
6
CONTINUOUS
10
130.306
20
-50.9142
11
130.469
21
-50.9865
0
LINE
8
BLACK
6
CONTINUOUS
10
130.469
20
-50.9865
11
130.612
21
-51.0909
0
LINE
8
BLACK
6
CONTINUOUS
10
130.612
20
-51.0909
11
130.731
21
-51.223
0
LINE
8
BLACK
6
CONTINUOUS
10
130.731
20
-51.223
11
130.82
21
-51.3769
0
LINE
8
BLACK
6
CONTINUOUS
10
130.82
20
-51.3769
11
130.875
21
-51.5459
0
LINE
8
BLACK
6
CONTINUOUS
10
130.875
20
-51.5459
11
130.894
21
-51.7226
0
LINE
8
BLACK
6
CONTINUOUS
10
130.894
20
-51.7226
11
130.875
21
-51.8993
0
LINE
8
BLACK
6
CONTINUOUS
10
130.875
20
-51.8993
11
130.82
21
-52.0683
0
LINE
8
BLACK
6
CONTINUOUS
10
130.82
20
-52.0683
11
130.731
21
-52.2222
0
LINE
8
BLACK
6
CONTINUOUS
10
130.731
20
-52.2222
11
130.612
21
-52.3543
0
LINE
8
BLACK
6
CONTINUOUS
10
130.612
20
-52.3543
11
130.469
21
-52.4587
0
LINE
8
BLACK
6
CONTINUOUS
10
130.469
20
-52.4587
11
130.306
21
-52.531
0
LINE
8
BLACK
6
CONTINUOUS
10
130.306
20
-52.531
11
130.132
21
-52.5679
0
LINE
8
BLACK
6
CONTINUOUS
10
130.132
20
-52.5679
11
129.955
21
-52.5679
0
LINE
8
BLACK
6
CONTINUOUS
10
129.955
20
-52.5679
11
129.781
21
-52.531
0
LINE
8
BLACK
6
CONTINUOUS
10
129.781
20
-52.531
11
129.619
21
-52.4587
0
LINE
8
BLACK
6
CONTINUOUS
10
129.619
20
-52.4587
11
129.475
21
-52.3543
0
LINE
8
BLACK
6
CONTINUOUS
10
129.475
20
-52.3543
11
129.356
21
-52.2222
0
LINE
8
BLACK
6
CONTINUOUS
10
129.356
20
-52.2222
11
129.267
21
-52.0683
0
LINE
8
BLACK
6
CONTINUOUS
10
129.267
20
-52.0683
11
129.212
21
-51.8993
0
LINE
8
BLACK
6
CONTINUOUS
10
129.212
20
-51.8993
11
129.194
21
-51.7226
0
LINE
8
BLACK
6
CONTINUOUS
10
129.194
20
-51.7226
11
129.212
21
-51.5459
0
LINE
8
BLACK
6
CONTINUOUS
10
129.212
20
-51.5459
11
129.267
21
-51.3769
0
LINE
8
BLACK
6
CONTINUOUS
10
129.267
20
-51.3769
11
129.356
21
-51.223
0
LINE
8
BLACK
6
CONTINUOUS
10
129.356
20
-51.223
11
129.475
21
-51.0909
0
LINE
8
BLACK
6
CONTINUOUS
10
129.475
20
-51.0909
11
129.619
21
-50.9865
0
LINE
8
BLACK
6
CONTINUOUS
10
129.619
20
-50.9865
11
129.781
21
-50.9142
0
LINE
8
BLACK
6
CONTINUOUS
10
129.781
20
-50.9142
11
129.955
21
-50.8772
0
LINE
8
BLACK
6
CONTINUOUS
10
129.955
20
-50.8772
11
130.132
21
-50.8772
0
LINE
8
BLACK
6
CONTINUOUS
10
130.132
20
-50.8772
11
130.306
21
-50.9142
0
LINE
8
BLACK
6
CONTINUOUS
10
59.4094
20
-50.0364
11
59.5717
21
-50.1087
0
LINE
8
BLACK
6
CONTINUOUS
10
59.5717
20
-50.1087
11
59.7155
21
-50.2132
0
LINE
8
BLACK
6
CONTINUOUS
10
59.7155
20
-50.2132
11
59.8344
21
-50.3452
0
LINE
8
BLACK
6
CONTINUOUS
10
59.8344
20
-50.3452
11
59.9232
21
-50.4991
0
LINE
8
BLACK
6
CONTINUOUS
10
59.9232
20
-50.4991
11
59.9781
21
-50.6681
0
LINE
8
BLACK
6
CONTINUOUS
10
59.9781
20
-50.6681
11
59.9967
21
-50.8448
0
LINE
8
BLACK
6
CONTINUOUS
10
59.9967
20
-50.8448
11
59.9781
21
-51.0216
0
LINE
8
BLACK
6
CONTINUOUS
10
59.9781
20
-51.0216
11
59.9232
21
-51.1906
0
LINE
8
BLACK
6
CONTINUOUS
10
59.9232
20
-51.1906
11
59.8344
21
-51.3445
0
LINE
8
BLACK
6
CONTINUOUS
10
59.8344
20
-51.3445
11
59.7155
21
-51.4765
0
LINE
8
BLACK
6
CONTINUOUS
10
59.7155
20
-51.4765
11
59.5717
21
-51.581
0
LINE
8
BLACK
6
CONTINUOUS
10
59.5717
20
-51.581
11
59.4094
21
-51.6532
0
LINE
8
BLACK
6
CONTINUOUS
10
59.4094
20
-51.6532
11
59.2355
21
-51.6902
0
LINE
8
BLACK
6
CONTINUOUS
10
59.2355
20
-51.6902
11
59.0578
21
-51.6902
0
LINE
8
BLACK
6
CONTINUOUS
10
59.0578
20
-51.6902
11
58.884
21
-51.6532
0
LINE
8
BLACK
6
CONTINUOUS
10
58.884
20
-51.6532
11
58.7217
21
-51.581
0
LINE
8
BLACK
6
CONTINUOUS
10
58.7217
20
-51.581
11
58.5779
21
-51.4765
0
LINE
8
BLACK
6
CONTINUOUS
10
58.5779
20
-51.4765
11
58.459
21
-51.3445
0
LINE
8
BLACK
6
CONTINUOUS
10
58.459
20
-51.3445
11
58.3702
21
-51.1906
0
LINE
8
BLACK
6
CONTINUOUS
10
58.3702
20
-51.1906
11
58.3153
21
-51.0216
0
LINE
8
BLACK
6
CONTINUOUS
10
58.3153
20
-51.0216
11
58.2967
21
-50.8448
0
LINE
8
BLACK
6
CONTINUOUS
10
58.2967
20
-50.8448
11
58.3153
21
-50.6681
0
LINE
8
BLACK
6
CONTINUOUS
10
58.3153
20
-50.6681
11
58.3702
21
-50.4991
0
LINE
8
BLACK
6
CONTINUOUS
10
58.3702
20
-50.4991
11
58.459
21
-50.3452
0
LINE
8
BLACK
6
CONTINUOUS
10
58.459
20
-50.3452
11
58.5779
21
-50.2132
0
LINE
8
BLACK
6
CONTINUOUS
10
58.5779
20
-50.2132
11
58.7217
21
-50.1087
0
LINE
8
BLACK
6
CONTINUOUS
10
58.7217
20
-50.1087
11
58.884
21
-50.0364
0
LINE
8
BLACK
6
CONTINUOUS
10
58.884
20
-50.0364
11
59.0578
21
-49.9995
0
LINE
8
BLACK
6
CONTINUOUS
10
59.0578
20
-49.9995
11
59.2355
21
-49.9995
0
LINE
8
BLACK
6
CONTINUOUS
10
59.2355
20
-49.9995
11
59.4094
21
-50.0364
0
LINE
8
BLACK
6
CONTINUOUS
10
126.837
20
-49.9845
11
126.999
21
-50.0568
0
LINE
8
BLACK
6
CONTINUOUS
10
126.999
20
-50.0568
11
127.143
21
-50.1612
0
LINE
8
BLACK
6
CONTINUOUS
10
127.143
20
-50.1612
11
127.262
21
-50.2933
0
LINE
8
BLACK
6
CONTINUOUS
10
127.262
20
-50.2933
11
127.35
21
-50.4472
0
LINE
8
BLACK
6
CONTINUOUS
10
127.35
20
-50.4472
11
127.405
21
-50.6162
0
LINE
8
BLACK
6
CONTINUOUS
10
127.405
20
-50.6162
11
127.424
21
-50.7929
0
LINE
8
BLACK
6
CONTINUOUS
10
127.424
20
-50.7929
11
127.405
21
-50.9696
0
LINE
8
BLACK
6
CONTINUOUS
10
127.405
20
-50.9696
11
127.35
21
-51.1386
0
LINE
8
BLACK
6
CONTINUOUS
10
127.35
20
-51.1386
11
127.262
21
-51.2925
0
LINE
8
BLACK
6
CONTINUOUS
10
127.262
20
-51.2925
11
127.143
21
-51.4246
0
LINE
8
BLACK
6
CONTINUOUS
10
127.143
20
-51.4246
11
126.999
21
-51.529
0
LINE
8
BLACK
6
CONTINUOUS
10
126.999
20
-51.529
11
126.837
21
-51.6013
0
LINE
8
BLACK
6
CONTINUOUS
10
126.837
20
-51.6013
11
126.663
21
-51.6382
0
LINE
8
BLACK
6
CONTINUOUS
10
126.663
20
-51.6382
11
126.485
21
-51.6382
0
LINE
8
BLACK
6
CONTINUOUS
10
126.485
20
-51.6382
11
126.311
21
-51.6013
0
LINE
8
BLACK
6
CONTINUOUS
10
126.311
20
-51.6013
11
126.149
21
-51.529
0
LINE
8
BLACK
6
CONTINUOUS
10
126.149
20
-51.529
11
126.005
21
-51.4246
0
LINE
8
BLACK
6
CONTINUOUS
10
126.005
20
-51.4246
11
125.886
21
-51.2925
0
LINE
8
BLACK
6
CONTINUOUS
10
125.886
20
-51.2925
11
125.797
21
-51.1386
0
LINE
8
BLACK
6
CONTINUOUS
10
125.797
20
-51.1386
11
125.742
21
-50.9696
0
LINE
8
BLACK
6
CONTINUOUS
10
125.742
20
-50.9696
11
125.724
21
-50.7929
0
LINE
8
BLACK
6
CONTINUOUS
10
125.724
20
-50.7929
11
125.742
21
-50.6162
0
LINE
8
BLACK
6
CONTINUOUS
10
125.742
20
-50.6162
11
125.797
21
-50.4472
0
LINE
8
BLACK
6
CONTINUOUS
10
125.797
20
-50.4472
11
125.886
21
-50.2933
0
LINE
8
BLACK
6
CONTINUOUS
10
125.886
20
-50.2933
11
126.005
21
-50.1612
0
LINE
8
BLACK
6
CONTINUOUS
10
126.005
20
-50.1612
11
126.149
21
-50.0568
0
LINE
8
BLACK
6
CONTINUOUS
10
126.149
20
-50.0568
11
126.311
21
-49.9845
0
LINE
8
BLACK
6
CONTINUOUS
10
126.311
20
-49.9845
11
126.485
21
-49.9475
0
LINE
8
BLACK
6
CONTINUOUS
10
126.485
20
-49.9475
11
126.663
21
-49.9475
0
LINE
8
BLACK
6
CONTINUOUS
10
126.663
20
-49.9475
11
126.837
21
-49.9845
0
LINE
8
BLACK
6
CONTINUOUS
10
57.2096
20
-48.7664
11
57.372
21
-48.8387
0
LINE
8
BLACK
6
CONTINUOUS
10
57.372
20
-48.8387
11
57.5157
21
-48.9432
0
LINE
8
BLACK
6
CONTINUOUS
10
57.5157
20
-48.9432
11
57.6346
21
-49.0752
0
LINE
8
BLACK
6
CONTINUOUS
10
57.6346
20
-49.0752
11
57.7235
21
-49.2291
0
LINE
8
BLACK
6
CONTINUOUS
10
57.7235
20
-49.2291
11
57.7784
21
-49.3981
0
LINE
8
BLACK
6
CONTINUOUS
10
57.7784
20
-49.3981
11
57.797
21
-49.5748
0
LINE
8
BLACK
6
CONTINUOUS
10
57.797
20
-49.5748
11
57.7784
21
-49.7516
0
LINE
8
BLACK
6
CONTINUOUS
10
57.7784
20
-49.7516
11
57.7235
21
-49.9206
0
LINE
8
BLACK
6
CONTINUOUS
10
57.7235
20
-49.9206
11
57.6346
21
-50.0745
0
LINE
8
BLACK
6
CONTINUOUS
10
57.6346
20
-50.0745
11
57.5157
21
-50.2065
0
LINE
8
BLACK
6
CONTINUOUS
10
57.5157
20
-50.2065
11
57.372
21
-50.311
0
LINE
8
BLACK
6
CONTINUOUS
10
57.372
20
-50.311
11
57.2096
21
-50.3832
0
LINE
8
BLACK
6
CONTINUOUS
10
57.2096
20
-50.3832
11
57.0358
21
-50.4202
0
LINE
8
BLACK
6
CONTINUOUS
10
57.0358
20
-50.4202
11
56.8581
21
-50.4202
0
LINE
8
BLACK
6
CONTINUOUS
10
56.8581
20
-50.4202
11
56.6843
21
-50.3832
0
LINE
8
BLACK
6
CONTINUOUS
10
56.6843
20
-50.3832
11
56.522
21
-50.311
0
LINE
8
BLACK
6
CONTINUOUS
10
56.522
20
-50.311
11
56.3782
21
-50.2065
0
LINE
8
BLACK
6
CONTINUOUS
10
56.3782
20
-50.2065
11
56.2593
21
-50.0745
0
LINE
8
BLACK
6
CONTINUOUS
10
56.2593
20
-50.0745
11
56.1705
21
-49.9206
0
LINE
8
BLACK
6
CONTINUOUS
10
56.1705
20
-49.9206
11
56.1156
21
-49.7516
0
LINE
8
BLACK
6
CONTINUOUS
10
56.1156
20
-49.7516
11
56.097
21
-49.5748
0
LINE
8
BLACK
6
CONTINUOUS
10
56.097
20
-49.5748
11
56.1156
21
-49.3981
0
LINE
8
BLACK
6
CONTINUOUS
10
56.1156
20
-49.3981
11
56.1705
21
-49.2291
0
LINE
8
BLACK
6
CONTINUOUS
10
56.1705
20
-49.2291
11
56.2593
21
-49.0752
0
LINE
8
BLACK
6
CONTINUOUS
10
56.2593
20
-49.0752
11
56.3782
21
-48.9432
0
LINE
8
BLACK
6
CONTINUOUS
10
56.3782
20
-48.9432
11
56.522
21
-48.8387
0
LINE
8
BLACK
6
CONTINUOUS
10
56.522
20
-48.8387
11
56.6843
21
-48.7664
0
LINE
8
BLACK
6
CONTINUOUS
10
56.6843
20
-48.7664
11
56.8581
21
-48.7295
0
LINE
8
BLACK
6
CONTINUOUS
10
56.8581
20
-48.7295
11
57.0358
21
-48.7295
0
LINE
8
BLACK
6
CONTINUOUS
10
57.0358
20
-48.7295
11
57.2096
21
-48.7664
0
LINE
8
BLACK
6
CONTINUOUS
10
129.036
20
-48.7145
11
129.199
21
-48.7868
0
LINE
8
BLACK
6
CONTINUOUS
10
129.199
20
-48.7868
11
129.342
21
-48.8912
0
LINE
8
BLACK
6
CONTINUOUS
10
129.342
20
-48.8912
11
129.461
21
-49.0233
0
LINE
8
BLACK
6
CONTINUOUS
10
129.461
20
-49.0233
11
129.55
21
-49.1772
0
LINE
8
BLACK
6
CONTINUOUS
10
129.55
20
-49.1772
11
129.605
21
-49.3462
0
LINE
8
BLACK
6
CONTINUOUS
10
129.605
20
-49.3462
11
129.624
21
-49.5229
0
LINE
8
BLACK
6
CONTINUOUS
10
129.624
20
-49.5229
11
129.605
21
-49.6996
0
LINE
8
BLACK
6
CONTINUOUS
10
129.605
20
-49.6996
11
129.55
21
-49.8686
0
LINE
8
BLACK
6
CONTINUOUS
10
129.55
20
-49.8686
11
129.461
21
-50.0225
0
LINE
8
BLACK
6
CONTINUOUS
10
129.461
20
-50.0225
11
129.342
21
-50.1546
0
LINE
8
BLACK
6
CONTINUOUS
10
129.342
20
-50.1546
11
129.199
21
-50.259
0
LINE
8
BLACK
6
CONTINUOUS
10
129.199
20
-50.259
11
129.036
21
-50.3313
0
LINE
8
BLACK
6
CONTINUOUS
10
129.036
20
-50.3313
11
128.862
21
-50.3682
0
LINE
8
BLACK
6
CONTINUOUS
10
128.862
20
-50.3682
11
128.685
21
-50.3682
0
LINE
8
BLACK
6
CONTINUOUS
10
128.685
20
-50.3682
11
128.511
21
-50.3313
0
LINE
8
BLACK
6
CONTINUOUS
10
128.511
20
-50.3313
11
128.349
21
-50.259
0
LINE
8
BLACK
6
CONTINUOUS
10
128.349
20
-50.259
11
128.205
21
-50.1546
0
LINE
8
BLACK
6
CONTINUOUS
10
128.205
20
-50.1546
11
128.086
21
-50.0225
0
LINE
8
BLACK
6
CONTINUOUS
10
128.086
20
-50.0225
11
127.997
21
-49.8686
0
LINE
8
BLACK
6
CONTINUOUS
10
127.997
20
-49.8686
11
127.942
21
-49.6996
0
LINE
8
BLACK
6
CONTINUOUS
10
127.942
20
-49.6996
11
127.924
21
-49.5229
0
LINE
8
BLACK
6
CONTINUOUS
10
127.924
20
-49.5229
11
127.942
21
-49.3462
0
LINE
8
BLACK
6
CONTINUOUS
10
127.942
20
-49.3462
11
127.997
21
-49.1772
0
LINE
8
BLACK
6
CONTINUOUS
10
127.997
20
-49.1772
11
128.086
21
-49.0233
0
LINE
8
BLACK
6
CONTINUOUS
10
128.086
20
-49.0233
11
128.205
21
-48.8912
0
LINE
8
BLACK
6
CONTINUOUS
10
128.205
20
-48.8912
11
128.349
21
-48.7868
0
LINE
8
BLACK
6
CONTINUOUS
10
128.349
20
-48.7868
11
128.511
21
-48.7145
0
LINE
8
BLACK
6
CONTINUOUS
10
128.511
20
-48.7145
11
128.685
21
-48.6775
0
LINE
8
BLACK
6
CONTINUOUS
10
128.685
20
-48.6775
11
128.862
21
-48.6775
0
LINE
8
BLACK
6
CONTINUOUS
10
128.862
20
-48.6775
11
129.036
21
-48.7145
0
LINE
8
BLACK
6
CONTINUOUS
10
126.465
20
-48.9043
11
124.993
21
-49.7543
0
LINE
8
BLACK
6
CONTINUOUS
10
124.993
20
-49.7543
11
124.143
21
-48.2821
0
LINE
8
BLACK
6
CONTINUOUS
10
124.143
20
-48.2821
11
125.615
21
-47.4321
0
LINE
8
BLACK
6
CONTINUOUS
10
125.615
20
-47.4321
11
126.465
21
-48.9043
0
LINE
8
BLACK
6
CONTINUOUS
10
60.6794
20
-47.8367
11
60.8417
21
-47.909
0
LINE
8
BLACK
6
CONTINUOUS
10
60.8417
20
-47.909
11
60.9855
21
-48.0135
0
LINE
8
BLACK
6
CONTINUOUS
10
60.9855
20
-48.0135
11
61.1044
21
-48.1455
0
LINE
8
BLACK
6
CONTINUOUS
10
61.1044
20
-48.1455
11
61.1932
21
-48.2994
0
LINE
8
BLACK
6
CONTINUOUS
10
61.1932
20
-48.2994
11
61.2481
21
-48.4684
0
LINE
8
BLACK
6
CONTINUOUS
10
61.2481
20
-48.4684
11
61.2667
21
-48.6451
0
LINE
8
BLACK
6
CONTINUOUS
10
61.2667
20
-48.6451
11
61.2481
21
-48.8219
0
LINE
8
BLACK
6
CONTINUOUS
10
61.2481
20
-48.8219
11
61.1932
21
-48.9909
0
LINE
8
BLACK
6
CONTINUOUS
10
61.1932
20
-48.9909
11
61.1044
21
-49.1448
0
LINE
8
BLACK
6
CONTINUOUS
10
61.1044
20
-49.1448
11
60.9855
21
-49.2768
0
LINE
8
BLACK
6
CONTINUOUS
10
60.9855
20
-49.2768
11
60.8417
21
-49.3813
0
LINE
8
BLACK
6
CONTINUOUS
10
60.8417
20
-49.3813
11
60.6794
21
-49.4535
0
LINE
8
BLACK
6
CONTINUOUS
10
60.6794
20
-49.4535
11
60.5055
21
-49.4905
0
LINE
8
BLACK
6
CONTINUOUS
10
60.5055
20
-49.4905
11
60.3278
21
-49.4905
0
LINE
8
BLACK
6
CONTINUOUS
10
60.3278
20
-49.4905
11
60.154
21
-49.4535
0
LINE
8
BLACK
6
CONTINUOUS
10
60.154
20
-49.4535
11
59.9917
21
-49.3813
0
LINE
8
BLACK
6
CONTINUOUS
10
59.9917
20
-49.3813
11
59.8479
21
-49.2768
0
LINE
8
BLACK
6
CONTINUOUS
10
59.8479
20
-49.2768
11
59.729
21
-49.1448
0
LINE
8
BLACK
6
CONTINUOUS
10
59.729
20
-49.1448
11
59.6402
21
-48.9909
0
LINE
8
BLACK
6
CONTINUOUS
10
59.6402
20
-48.9909
11
59.5853
21
-48.8219
0
LINE
8
BLACK
6
CONTINUOUS
10
59.5853
20
-48.8219
11
59.5667
21
-48.6451
0
LINE
8
BLACK
6
CONTINUOUS
10
59.5667
20
-48.6451
11
59.5853
21
-48.4684
0
LINE
8
BLACK
6
CONTINUOUS
10
59.5853
20
-48.4684
11
59.6402
21
-48.2994
0
LINE
8
BLACK
6
CONTINUOUS
10
59.6402
20
-48.2994
11
59.729
21
-48.1455
0
LINE
8
BLACK
6
CONTINUOUS
10
59.729
20
-48.1455
11
59.8479
21
-48.0135
0
LINE
8
BLACK
6
CONTINUOUS
10
59.8479
20
-48.0135
11
59.9917
21
-47.909
0
LINE
8
BLACK
6
CONTINUOUS
10
59.9917
20
-47.909
11
60.154
21
-47.8367
0
LINE
8
BLACK
6
CONTINUOUS
10
60.154
20
-47.8367
11
60.3278
21
-47.7998
0
LINE
8
BLACK
6
CONTINUOUS
10
60.3278
20
-47.7998
11
60.5055
21
-47.7998
0
LINE
8
BLACK
6
CONTINUOUS
10
60.5055
20
-47.7998
11
60.6794
21
-47.8367
0
LINE
8
BLACK
6
CONTINUOUS
10
58.4796
20
-46.5667
11
58.642
21
-46.639
0
LINE
8
BLACK
6
CONTINUOUS
10
58.642
20
-46.639
11
58.7857
21
-46.7435
0
LINE
8
BLACK
6
CONTINUOUS
10
58.7857
20
-46.7435
11
58.9046
21
-46.8755
0
LINE
8
BLACK
6
CONTINUOUS
10
58.9046
20
-46.8755
11
58.9935
21
-47.0294
0
LINE
8
BLACK
6
CONTINUOUS
10
58.9935
20
-47.0294
11
59.0484
21
-47.1984
0
LINE
8
BLACK
6
CONTINUOUS
10
59.0484
20
-47.1984
11
59.067
21
-47.3751
0
LINE
8
BLACK
6
CONTINUOUS
10
59.067
20
-47.3751
11
59.0484
21
-47.5519
0
LINE
8
BLACK
6
CONTINUOUS
10
59.0484
20
-47.5519
11
58.9935
21
-47.7209
0
LINE
8
BLACK
6
CONTINUOUS
10
58.9935
20
-47.7209
11
58.9046
21
-47.8748
0
LINE
8
BLACK
6
CONTINUOUS
10
58.9046
20
-47.8748
11
58.7857
21
-48.0068
0
LINE
8
BLACK
6
CONTINUOUS
10
58.7857
20
-48.0068
11
58.642
21
-48.1113
0
LINE
8
BLACK
6
CONTINUOUS
10
58.642
20
-48.1113
11
58.4796
21
-48.1835
0
LINE
8
BLACK
6
CONTINUOUS
10
58.4796
20
-48.1835
11
58.3058
21
-48.2205
0
LINE
8
BLACK
6
CONTINUOUS
10
58.3058
20
-48.2205
11
58.1281
21
-48.2205
0
LINE
8
BLACK
6
CONTINUOUS
10
58.1281
20
-48.2205
11
57.9543
21
-48.1835
0
LINE
8
BLACK
6
CONTINUOUS
10
57.9543
20
-48.1835
11
57.792
21
-48.1113
0
LINE
8
BLACK
6
CONTINUOUS
10
57.792
20
-48.1113
11
57.6482
21
-48.0068
0
LINE
8
BLACK
6
CONTINUOUS
10
57.6482
20
-48.0068
11
57.5293
21
-47.8748
0
LINE
8
BLACK
6
CONTINUOUS
10
57.5293
20
-47.8748
11
57.4405
21
-47.7209
0
LINE
8
BLACK
6
CONTINUOUS
10
57.4405
20
-47.7209
11
57.3856
21
-47.5519
0
LINE
8
BLACK
6
CONTINUOUS
10
57.3856
20
-47.5519
11
57.367
21
-47.3751
0
LINE
8
BLACK
6
CONTINUOUS
10
57.367
20
-47.3751
11
57.3856
21
-47.1984
0
LINE
8
BLACK
6
CONTINUOUS
10
57.3856
20
-47.1984
11
57.4405
21
-47.0294
0
LINE
8
BLACK
6
CONTINUOUS
10
57.4405
20
-47.0294
11
57.5293
21
-46.8755
0
LINE
8
BLACK
6
CONTINUOUS
10
57.5293
20
-46.8755
11
57.6482
21
-46.7435
0
LINE
8
BLACK
6
CONTINUOUS
10
57.6482
20
-46.7435
11
57.792
21
-46.639
0
LINE
8
BLACK
6
CONTINUOUS
10
57.792
20
-46.639
11
57.9543
21
-46.5667
0
LINE
8
BLACK
6
CONTINUOUS
10
57.9543
20
-46.5667
11
58.1281
21
-46.5298
0
LINE
8
BLACK
6
CONTINUOUS
10
58.1281
20
-46.5298
11
58.3058
21
-46.5298
0
LINE
8
BLACK
6
CONTINUOUS
10
58.3058
20
-46.5298
11
58.4796
21
-46.5667
0
LINE
8
BLACK
6
CONTINUOUS
10
127.766
20
-46.5148
11
127.929
21
-46.5871
0
LINE
8
BLACK
6
CONTINUOUS
10
127.929
20
-46.5871
11
128.072
21
-46.6915
0
LINE
8
BLACK
6
CONTINUOUS
10
128.072
20
-46.6915
11
128.191
21
-46.8236
0
LINE
8
BLACK
6
CONTINUOUS
10
128.191
20
-46.8236
11
128.28
21
-46.9775
0
LINE
8
BLACK
6
CONTINUOUS
10
128.28
20
-46.9775
11
128.335
21
-47.1465
0
LINE
8
BLACK
6
CONTINUOUS
10
128.335
20
-47.1465
11
128.354
21
-47.3232
0
LINE
8
BLACK
6
CONTINUOUS
10
128.354
20
-47.3232
11
128.335
21
-47.4999
0
LINE
8
BLACK
6
CONTINUOUS
10
128.335
20
-47.4999
11
128.28
21
-47.6689
0
LINE
8
BLACK
6
CONTINUOUS
10
128.28
20
-47.6689
11
128.191
21
-47.8228
0
LINE
8
BLACK
6
CONTINUOUS
10
128.191
20
-47.8228
11
128.072
21
-47.9549
0
LINE
8
BLACK
6
CONTINUOUS
10
128.072
20
-47.9549
11
127.929
21
-48.0593
0
LINE
8
BLACK
6
CONTINUOUS
10
127.929
20
-48.0593
11
127.766
21
-48.1316
0
LINE
8
BLACK
6
CONTINUOUS
10
127.766
20
-48.1316
11
127.592
21
-48.1685
0
LINE
8
BLACK
6
CONTINUOUS
10
127.592
20
-48.1685
11
127.415
21
-48.1685
0
LINE
8
BLACK
6
CONTINUOUS
10
127.415
20
-48.1685
11
127.241
21
-48.1316
0
LINE
8
BLACK
6
CONTINUOUS
10
127.241
20
-48.1316
11
127.079
21
-48.0593
0
LINE
8
BLACK
6
CONTINUOUS
10
127.079
20
-48.0593
11
126.935
21
-47.9549
0
LINE
8
BLACK
6
CONTINUOUS
10
126.935
20
-47.9549
11
126.816
21
-47.8228
0
LINE
8
BLACK
6
CONTINUOUS
10
126.816
20
-47.8228
11
126.727
21
-47.6689
0
LINE
8
BLACK
6
CONTINUOUS
10
126.727
20
-47.6689
11
126.672
21
-47.4999
0
LINE
8
BLACK
6
CONTINUOUS
10
126.672
20
-47.4999
11
126.654
21
-47.3232
0
LINE
8
BLACK
6
CONTINUOUS
10
126.654
20
-47.3232
11
126.672
21
-47.1465
0
LINE
8
BLACK
6
CONTINUOUS
10
126.672
20
-47.1465
11
126.727
21
-46.9775
0
LINE
8
BLACK
6
CONTINUOUS
10
126.727
20
-46.9775
11
126.816
21
-46.8236
0
LINE
8
BLACK
6
CONTINUOUS
10
126.816
20
-46.8236
11
126.935
21
-46.6915
0
LINE
8
BLACK
6
CONTINUOUS
10
126.935
20
-46.6915
11
127.079
21
-46.5871
0
LINE
8
BLACK
6
CONTINUOUS
10
127.079
20
-46.5871
11
127.241
21
-46.5148
0
LINE
8
BLACK
6
CONTINUOUS
10
127.241
20
-46.5148
11
127.415
21
-46.4778
0
LINE
8
BLACK
6
CONTINUOUS
10
127.415
20
-46.4778
11
127.592
21
-46.4778
0
LINE
8
BLACK
6
CONTINUOUS
10
127.592
20
-46.4778
11
127.766
21
-46.5148
0
LINE
8
BLACK
6
CONTINUOUS
10
82.1503
20
-34.8808
11
80.4503
21
-34.8808
0
LINE
8
BLACK
6
CONTINUOUS
10
80.4503
20
-34.8808
11
80.4503
21
-33.1808
0
LINE
8
BLACK
6
CONTINUOUS
10
80.4503
20
-33.1808
11
82.1503
21
-33.1808
0
LINE
8
BLACK
6
CONTINUOUS
10
82.1503
20
-33.1808
11
82.1503
21
-34.8808
0
LINE
8
BLACK
6
CONTINUOUS
10
94.263
20
-33.2224
11
94.4253
21
-33.2946
0
LINE
8
BLACK
6
CONTINUOUS
10
94.4253
20
-33.2946
11
94.5691
21
-33.3991
0
LINE
8
BLACK
6
CONTINUOUS
10
94.5691
20
-33.3991
11
94.688
21
-33.5312
0
LINE
8
BLACK
6
CONTINUOUS
10
94.688
20
-33.5312
11
94.7768
21
-33.685
0
LINE
8
BLACK
6
CONTINUOUS
10
94.7768
20
-33.685
11
94.8317
21
-33.854
0
LINE
8
BLACK
6
CONTINUOUS
10
94.8317
20
-33.854
11
94.8503
21
-34.0308
0
LINE
8
BLACK
6
CONTINUOUS
10
94.8503
20
-34.0308
11
94.8317
21
-34.2075
0
LINE
8
BLACK
6
CONTINUOUS
10
94.8317
20
-34.2075
11
94.7768
21
-34.3765
0
LINE
8
BLACK
6
CONTINUOUS
10
94.7768
20
-34.3765
11
94.688
21
-34.5304
0
LINE
8
BLACK
6
CONTINUOUS
10
94.688
20
-34.5304
11
94.5691
21
-34.6624
0
LINE
8
BLACK
6
CONTINUOUS
10
94.5691
20
-34.6624
11
94.4253
21
-34.7669
0
LINE
8
BLACK
6
CONTINUOUS
10
94.4253
20
-34.7669
11
94.263
21
-34.8392
0
LINE
8
BLACK
6
CONTINUOUS
10
94.263
20
-34.8392
11
94.0891
21
-34.8761
0
LINE
8
BLACK
6
CONTINUOUS
10
94.0891
20
-34.8761
11
93.9114
21
-34.8761
0
LINE
8
BLACK
6
CONTINUOUS
10
93.9114
20
-34.8761
11
93.7376
21
-34.8392
0
LINE
8
BLACK
6
CONTINUOUS
10
93.7376
20
-34.8392
11
93.5753
21
-34.7669
0
LINE
8
BLACK
6
CONTINUOUS
10
93.5753
20
-34.7669
11
93.4315
21
-34.6624
0
LINE
8
BLACK
6
CONTINUOUS
10
93.4315
20
-34.6624
11
93.3126
21
-34.5304
0
LINE
8
BLACK
6
CONTINUOUS
10
93.3126
20
-34.5304
11
93.2238
21
-34.3765
0
LINE
8
BLACK
6
CONTINUOUS
10
93.2238
20
-34.3765
11
93.1689
21
-34.2075
0
LINE
8
BLACK
6
CONTINUOUS
10
93.1689
20
-34.2075
11
93.1503
21
-34.0308
0
LINE
8
BLACK
6
CONTINUOUS
10
93.1503
20
-34.0308
11
93.1689
21
-33.854
0
LINE
8
BLACK
6
CONTINUOUS
10
93.1689
20
-33.854
11
93.2238
21
-33.685
0
LINE
8
BLACK
6
CONTINUOUS
10
93.2238
20
-33.685
11
93.3126
21
-33.5312
0
LINE
8
BLACK
6
CONTINUOUS
10
93.3126
20
-33.5312
11
93.4315
21
-33.3991
0
LINE
8
BLACK
6
CONTINUOUS
10
93.4315
20
-33.3991
11
93.5753
21
-33.2946
0
LINE
8
BLACK
6
CONTINUOUS
10
93.5753
20
-33.2946
11
93.7376
21
-33.2224
0
LINE
8
BLACK
6
CONTINUOUS
10
93.7376
20
-33.2224
11
93.9114
21
-33.1854
0
LINE
8
BLACK
6
CONTINUOUS
10
93.9114
20
-33.1854
11
94.0891
21
-33.1854
0
LINE
8
BLACK
6
CONTINUOUS
10
94.0891
20
-33.1854
11
94.263
21
-33.2224
0
LINE
8
BLACK
6
CONTINUOUS
10
91.723
20
-33.2224
11
91.8853
21
-33.2946
0
LINE
8
BLACK
6
CONTINUOUS
10
91.8853
20
-33.2946
11
92.0291
21
-33.3991
0
LINE
8
BLACK
6
CONTINUOUS
10
92.0291
20
-33.3991
11
92.148
21
-33.5312
0
LINE
8
BLACK
6
CONTINUOUS
10
92.148
20
-33.5312
11
92.2368
21
-33.685
0
LINE
8
BLACK
6
CONTINUOUS
10
92.2368
20
-33.685
11
92.2917
21
-33.854
0
LINE
8
BLACK
6
CONTINUOUS
10
92.2917
20
-33.854
11
92.3103
21
-34.0308
0
LINE
8
BLACK
6
CONTINUOUS
10
92.3103
20
-34.0308
11
92.2917
21
-34.2075
0
LINE
8
BLACK
6
CONTINUOUS
10
92.2917
20
-34.2075
11
92.2368
21
-34.3765
0
LINE
8
BLACK
6
CONTINUOUS
10
92.2368
20
-34.3765
11
92.148
21
-34.5304
0
LINE
8
BLACK
6
CONTINUOUS
10
92.148
20
-34.5304
11
92.0291
21
-34.6624
0
LINE
8
BLACK
6
CONTINUOUS
10
92.0291
20
-34.6624
11
91.8853
21
-34.7669
0
LINE
8
BLACK
6
CONTINUOUS
10
91.8853
20
-34.7669
11
91.723
21
-34.8392
0
LINE
8
BLACK
6
CONTINUOUS
10
91.723
20
-34.8392
11
91.5491
21
-34.8761
0
LINE
8
BLACK
6
CONTINUOUS
10
91.5491
20
-34.8761
11
91.3714
21
-34.8761
0
LINE
8
BLACK
6
CONTINUOUS
10
91.3714
20
-34.8761
11
91.1976
21
-34.8392
0
LINE
8
BLACK
6
CONTINUOUS
10
91.1976
20
-34.8392
11
91.0353
21
-34.7669
0
LINE
8
BLACK
6
CONTINUOUS
10
91.0353
20
-34.7669
11
90.8915
21
-34.6624
0
LINE
8
BLACK
6
CONTINUOUS
10
90.8915
20
-34.6624
11
90.7726
21
-34.5304
0
LINE
8
BLACK
6
CONTINUOUS
10
90.7726
20
-34.5304
11
90.6838
21
-34.3765
0
LINE
8
BLACK
6
CONTINUOUS
10
90.6838
20
-34.3765
11
90.6289
21
-34.2075
0
LINE
8
BLACK
6
CONTINUOUS
10
90.6289
20
-34.2075
11
90.6103
21
-34.0308
0
LINE
8
BLACK
6
CONTINUOUS
10
90.6103
20
-34.0308
11
90.6289
21
-33.854
0
LINE
8
BLACK
6
CONTINUOUS
10
90.6289
20
-33.854
11
90.6838
21
-33.685
0
LINE
8
BLACK
6
CONTINUOUS
10
90.6838
20
-33.685
11
90.7726
21
-33.5312
0
LINE
8
BLACK
6
CONTINUOUS
10
90.7726
20
-33.5312
11
90.8915
21
-33.3991
0
LINE
8
BLACK
6
CONTINUOUS
10
90.8915
20
-33.3991
11
91.0353
21
-33.2946
0
LINE
8
BLACK
6
CONTINUOUS
10
91.0353
20
-33.2946
11
91.1976
21
-33.2224
0
LINE
8
BLACK
6
CONTINUOUS
10
91.1976
20
-33.2224
11
91.3714
21
-33.1854
0
LINE
8
BLACK
6
CONTINUOUS
10
91.3714
20
-33.1854
11
91.5491
21
-33.1854
0
LINE
8
BLACK
6
CONTINUOUS
10
91.5491
20
-33.1854
11
91.723
21
-33.2224
0
LINE
8
BLACK
6
CONTINUOUS
10
104.423
20
-33.2224
11
104.585
21
-33.2946
0
LINE
8
BLACK
6
CONTINUOUS
10
104.585
20
-33.2946
11
104.729
21
-33.3991
0
LINE
8
BLACK
6
CONTINUOUS
10
104.729
20
-33.3991
11
104.848
21
-33.5312
0
LINE
8
BLACK
6
CONTINUOUS
10
104.848
20
-33.5312
11
104.937
21
-33.685
0
LINE
8
BLACK
6
CONTINUOUS
10
104.937
20
-33.685
11
104.992
21
-33.854
0
LINE
8
BLACK
6
CONTINUOUS
10
104.992
20
-33.854
11
105.01
21
-34.0308
0
LINE
8
BLACK
6
CONTINUOUS
10
105.01
20
-34.0308
11
104.992
21
-34.2075
0
LINE
8
BLACK
6
CONTINUOUS
10
104.992
20
-34.2075
11
104.937
21
-34.3765
0
LINE
8
BLACK
6
CONTINUOUS
10
104.937
20
-34.3765
11
104.848
21
-34.5304
0
LINE
8
BLACK
6
CONTINUOUS
10
104.848
20
-34.5304
11
104.729
21
-34.6624
0
LINE
8
BLACK
6
CONTINUOUS
10
104.729
20
-34.6624
11
104.585
21
-34.7669
0
LINE
8
BLACK
6
CONTINUOUS
10
104.585
20
-34.7669
11
104.423
21
-34.8392
0
LINE
8
BLACK
6
CONTINUOUS
10
104.423
20
-34.8392
11
104.249
21
-34.8761
0
LINE
8
BLACK
6
CONTINUOUS
10
104.249
20
-34.8761
11
104.071
21
-34.8761
0
LINE
8
BLACK
6
CONTINUOUS
10
104.071
20
-34.8761
11
103.898
21
-34.8392
0
LINE
8
BLACK
6
CONTINUOUS
10
103.898
20
-34.8392
11
103.735
21
-34.7669
0
LINE
8
BLACK
6
CONTINUOUS
10
103.735
20
-34.7669
11
103.592
21
-34.6624
0
LINE
8
BLACK
6
CONTINUOUS
10
103.592
20
-34.6624
11
103.473
21
-34.5304
0
LINE
8
BLACK
6
CONTINUOUS
10
103.473
20
-34.5304
11
103.384
21
-34.3765
0
LINE
8
BLACK
6
CONTINUOUS
10
103.384
20
-34.3765
11
103.329
21
-34.2075
0
LINE
8
BLACK
6
CONTINUOUS
10
103.329
20
-34.2075
11
103.31
21
-34.0308
0
LINE
8
BLACK
6
CONTINUOUS
10
103.31
20
-34.0308
11
103.329
21
-33.854
0
LINE
8
BLACK
6
CONTINUOUS
10
103.329
20
-33.854
11
103.384
21
-33.685
0
LINE
8
BLACK
6
CONTINUOUS
10
103.384
20
-33.685
11
103.473
21
-33.5312
0
LINE
8
BLACK
6
CONTINUOUS
10
103.473
20
-33.5312
11
103.592
21
-33.3991
0
LINE
8
BLACK
6
CONTINUOUS
10
103.592
20
-33.3991
11
103.735
21
-33.2946
0
LINE
8
BLACK
6
CONTINUOUS
10
103.735
20
-33.2946
11
103.898
21
-33.2224
0
LINE
8
BLACK
6
CONTINUOUS
10
103.898
20
-33.2224
11
104.071
21
-33.1854
0
LINE
8
BLACK
6
CONTINUOUS
10
104.071
20
-33.1854
11
104.249
21
-33.1854
0
LINE
8
BLACK
6
CONTINUOUS
10
104.249
20
-33.1854
11
104.423
21
-33.2224
0
LINE
8
BLACK
6
CONTINUOUS
10
89.183
20
-33.2224
11
89.3453
21
-33.2946
0
LINE
8
BLACK
6
CONTINUOUS
10
89.3453
20
-33.2946
11
89.4891
21
-33.3991
0
LINE
8
BLACK
6
CONTINUOUS
10
89.4891
20
-33.3991
11
89.608
21
-33.5312
0
LINE
8
BLACK
6
CONTINUOUS
10
89.608
20
-33.5312
11
89.6968
21
-33.685
0
LINE
8
BLACK
6
CONTINUOUS
10
89.6968
20
-33.685
11
89.7517
21
-33.854
0
LINE
8
BLACK
6
CONTINUOUS
10
89.7517
20
-33.854
11
89.7703
21
-34.0308
0
LINE
8
BLACK
6
CONTINUOUS
10
89.7703
20
-34.0308
11
89.7517
21
-34.2075
0
LINE
8
BLACK
6
CONTINUOUS
10
89.7517
20
-34.2075
11
89.6968
21
-34.3765
0
LINE
8
BLACK
6
CONTINUOUS
10
89.6968
20
-34.3765
11
89.608
21
-34.5304
0
LINE
8
BLACK
6
CONTINUOUS
10
89.608
20
-34.5304
11
89.4891
21
-34.6624
0
LINE
8
BLACK
6
CONTINUOUS
10
89.4891
20
-34.6624
11
89.3453
21
-34.7669
0
LINE
8
BLACK
6
CONTINUOUS
10
89.3453
20
-34.7669
11
89.183
21
-34.8392
0
LINE
8
BLACK
6
CONTINUOUS
10
89.183
20
-34.8392
11
89.0091
21
-34.8761
0
LINE
8
BLACK
6
CONTINUOUS
10
89.0091
20
-34.8761
11
88.8314
21
-34.8761
0
LINE
8
BLACK
6
CONTINUOUS
10
88.8314
20
-34.8761
11
88.6576
21
-34.8392
0
LINE
8
BLACK
6
CONTINUOUS
10
88.6576
20
-34.8392
11
88.4953
21
-34.7669
0
LINE
8
BLACK
6
CONTINUOUS
10
88.4953
20
-34.7669
11
88.3515
21
-34.6624
0
LINE
8
BLACK
6
CONTINUOUS
10
88.3515
20
-34.6624
11
88.2326
21
-34.5304
0
LINE
8
BLACK
6
CONTINUOUS
10
88.2326
20
-34.5304
11
88.1438
21
-34.3765
0
LINE
8
BLACK
6
CONTINUOUS
10
88.1438
20
-34.3765
11
88.0889
21
-34.2075
0
LINE
8
BLACK
6
CONTINUOUS
10
88.0889
20
-34.2075
11
88.0703
21
-34.0308
0
LINE
8
BLACK
6
CONTINUOUS
10
88.0703
20
-34.0308
11
88.0889
21
-33.854
0
LINE
8
BLACK
6
CONTINUOUS
10
88.0889
20
-33.854
11
88.1438
21
-33.685
0
LINE
8
BLACK
6
CONTINUOUS
10
88.1438
20
-33.685
11
88.2326
21
-33.5312
0
LINE
8
BLACK
6
CONTINUOUS
10
88.2326
20
-33.5312
11
88.3515
21
-33.3991
0
LINE
8
BLACK
6
CONTINUOUS
10
88.3515
20
-33.3991
11
88.4953
21
-33.2946
0
LINE
8
BLACK
6
CONTINUOUS
10
88.4953
20
-33.2946
11
88.6576
21
-33.2224
0
LINE
8
BLACK
6
CONTINUOUS
10
88.6576
20
-33.2224
11
88.8314
21
-33.1854
0
LINE
8
BLACK
6
CONTINUOUS
10
88.8314
20
-33.1854
11
89.0091
21
-33.1854
0
LINE
8
BLACK
6
CONTINUOUS
10
89.0091
20
-33.1854
11
89.183
21
-33.2224
0
LINE
8
BLACK
6
CONTINUOUS
10
86.643
20
-33.2224
11
86.8053
21
-33.2946
0
LINE
8
BLACK
6
CONTINUOUS
10
86.8053
20
-33.2946
11
86.9491
21
-33.3991
0
LINE
8
BLACK
6
CONTINUOUS
10
86.9491
20
-33.3991
11
87.068
21
-33.5312
0
LINE
8
BLACK
6
CONTINUOUS
10
87.068
20
-33.5312
11
87.1568
21
-33.685
0
LINE
8
BLACK
6
CONTINUOUS
10
87.1568
20
-33.685
11
87.2117
21
-33.854
0
LINE
8
BLACK
6
CONTINUOUS
10
87.2117
20
-33.854
11
87.2303
21
-34.0308
0
LINE
8
BLACK
6
CONTINUOUS
10
87.2303
20
-34.0308
11
87.2117
21
-34.2075
0
LINE
8
BLACK
6
CONTINUOUS
10
87.2117
20
-34.2075
11
87.1568
21
-34.3765
0
LINE
8
BLACK
6
CONTINUOUS
10
87.1568
20
-34.3765
11
87.068
21
-34.5304
0
LINE
8
BLACK
6
CONTINUOUS
10
87.068
20
-34.5304
11
86.9491
21
-34.6624
0
LINE
8
BLACK
6
CONTINUOUS
10
86.9491
20
-34.6624
11
86.8053
21
-34.7669
0
LINE
8
BLACK
6
CONTINUOUS
10
86.8053
20
-34.7669
11
86.643
21
-34.8392
0
LINE
8
BLACK
6
CONTINUOUS
10
86.643
20
-34.8392
11
86.4691
21
-34.8761
0
LINE
8
BLACK
6
CONTINUOUS
10
86.4691
20
-34.8761
11
86.2914
21
-34.8761
0
LINE
8
BLACK
6
CONTINUOUS
10
86.2914
20
-34.8761
11
86.1176
21
-34.8392
0
LINE
8
BLACK
6
CONTINUOUS
10
86.1176
20
-34.8392
11
85.9553
21
-34.7669
0
LINE
8
BLACK
6
CONTINUOUS
10
85.9553
20
-34.7669
11
85.8115
21
-34.6624
0
LINE
8
BLACK
6
CONTINUOUS
10
85.8115
20
-34.6624
11
85.6926
21
-34.5304
0
LINE
8
BLACK
6
CONTINUOUS
10
85.6926
20
-34.5304
11
85.6038
21
-34.3765
0
LINE
8
BLACK
6
CONTINUOUS
10
85.6038
20
-34.3765
11
85.5489
21
-34.2075
0
LINE
8
BLACK
6
CONTINUOUS
10
85.5489
20
-34.2075
11
85.5303
21
-34.0308
0
LINE
8
BLACK
6
CONTINUOUS
10
85.5303
20
-34.0308
11
85.5489
21
-33.854
0
LINE
8
BLACK
6
CONTINUOUS
10
85.5489
20
-33.854
11
85.6038
21
-33.685
0
LINE
8
BLACK
6
CONTINUOUS
10
85.6038
20
-33.685
11
85.6926
21
-33.5312
0
LINE
8
BLACK
6
CONTINUOUS
10
85.6926
20
-33.5312
11
85.8115
21
-33.3991
0
LINE
8
BLACK
6
CONTINUOUS
10
85.8115
20
-33.3991
11
85.9553
21
-33.2946
0
LINE
8
BLACK
6
CONTINUOUS
10
85.9553
20
-33.2946
11
86.1176
21
-33.2224
0
LINE
8
BLACK
6
CONTINUOUS
10
86.1176
20
-33.2224
11
86.2914
21
-33.1854
0
LINE
8
BLACK
6
CONTINUOUS
10
86.2914
20
-33.1854
11
86.4691
21
-33.1854
0
LINE
8
BLACK
6
CONTINUOUS
10
86.4691
20
-33.1854
11
86.643
21
-33.2224
0
LINE
8
BLACK
6
CONTINUOUS
10
101.883
20
-33.2224
11
102.045
21
-33.2946
0
LINE
8
BLACK
6
CONTINUOUS
10
102.045
20
-33.2946
11
102.189
21
-33.3991
0
LINE
8
BLACK
6
CONTINUOUS
10
102.189
20
-33.3991
11
102.308
21
-33.5312
0
LINE
8
BLACK
6
CONTINUOUS
10
102.308
20
-33.5312
11
102.397
21
-33.685
0
LINE
8
BLACK
6
CONTINUOUS
10
102.397
20
-33.685
11
102.452
21
-33.854
0
LINE
8
BLACK
6
CONTINUOUS
10
102.452
20
-33.854
11
102.47
21
-34.0308
0
LINE
8
BLACK
6
CONTINUOUS
10
102.47
20
-34.0308
11
102.452
21
-34.2075
0
LINE
8
BLACK
6
CONTINUOUS
10
102.452
20
-34.2075
11
102.397
21
-34.3765
0
LINE
8
BLACK
6
CONTINUOUS
10
102.397
20
-34.3765
11
102.308
21
-34.5304
0
LINE
8
BLACK
6
CONTINUOUS
10
102.308
20
-34.5304
11
102.189
21
-34.6624
0
LINE
8
BLACK
6
CONTINUOUS
10
102.189
20
-34.6624
11
102.045
21
-34.7669
0
LINE
8
BLACK
6
CONTINUOUS
10
102.045
20
-34.7669
11
101.883
21
-34.8392
0
LINE
8
BLACK
6
CONTINUOUS
10
101.883
20
-34.8392
11
101.709
21
-34.8761
0
LINE
8
BLACK
6
CONTINUOUS
10
101.709
20
-34.8761
11
101.531
21
-34.8761
0
LINE
8
BLACK
6
CONTINUOUS
10
101.531
20
-34.8761
11
101.358
21
-34.8392
0
LINE
8
BLACK
6
CONTINUOUS
10
101.358
20
-34.8392
11
101.195
21
-34.7669
0
LINE
8
BLACK
6
CONTINUOUS
10
101.195
20
-34.7669
11
101.052
21
-34.6624
0
LINE
8
BLACK
6
CONTINUOUS
10
101.052
20
-34.6624
11
100.933
21
-34.5304
0
LINE
8
BLACK
6
CONTINUOUS
10
100.933
20
-34.5304
11
100.844
21
-34.3765
0
LINE
8
BLACK
6
CONTINUOUS
10
100.844
20
-34.3765
11
100.789
21
-34.2075
0
LINE
8
BLACK
6
CONTINUOUS
10
100.789
20
-34.2075
11
100.77
21
-34.0308
0
LINE
8
BLACK
6
CONTINUOUS
10
100.77
20
-34.0308
11
100.789
21
-33.854
0
LINE
8
BLACK
6
CONTINUOUS
10
100.789
20
-33.854
11
100.844
21
-33.685
0
LINE
8
BLACK
6
CONTINUOUS
10
100.844
20
-33.685
11
100.933
21
-33.5312
0
LINE
8
BLACK
6
CONTINUOUS
10
100.933
20
-33.5312
11
101.052
21
-33.3991
0
LINE
8
BLACK
6
CONTINUOUS
10
101.052
20
-33.3991
11
101.195
21
-33.2946
0
LINE
8
BLACK
6
CONTINUOUS
10
101.195
20
-33.2946
11
101.358
21
-33.2224
0
LINE
8
BLACK
6
CONTINUOUS
10
101.358
20
-33.2224
11
101.531
21
-33.1854
0
LINE
8
BLACK
6
CONTINUOUS
10
101.531
20
-33.1854
11
101.709
21
-33.1854
0
LINE
8
BLACK
6
CONTINUOUS
10
101.709
20
-33.1854
11
101.883
21
-33.2224
0
LINE
8
BLACK
6
CONTINUOUS
10
84.103
20
-33.2224
11
84.2653
21
-33.2946
0
LINE
8
BLACK
6
CONTINUOUS
10
84.2653
20
-33.2946
11
84.4091
21
-33.3991
0
LINE
8
BLACK
6
CONTINUOUS
10
84.4091
20
-33.3991
11
84.528
21
-33.5312
0
LINE
8
BLACK
6
CONTINUOUS
10
84.528
20
-33.5312
11
84.6168
21
-33.685
0
LINE
8
BLACK
6
CONTINUOUS
10
84.6168
20
-33.685
11
84.6717
21
-33.854
0
LINE
8
BLACK
6
CONTINUOUS
10
84.6717
20
-33.854
11
84.6903
21
-34.0308
0
LINE
8
BLACK
6
CONTINUOUS
10
84.6903
20
-34.0308
11
84.6717
21
-34.2075
0
LINE
8
BLACK
6
CONTINUOUS
10
84.6717
20
-34.2075
11
84.6168
21
-34.3765
0
LINE
8
BLACK
6
CONTINUOUS
10
84.6168
20
-34.3765
11
84.528
21
-34.5304
0
LINE
8
BLACK
6
CONTINUOUS
10
84.528
20
-34.5304
11
84.4091
21
-34.6624
0
LINE
8
BLACK
6
CONTINUOUS
10
84.4091
20
-34.6624
11
84.2653
21
-34.7669
0
LINE
8
BLACK
6
CONTINUOUS
10
84.2653
20
-34.7669
11
84.103
21
-34.8392
0
LINE
8
BLACK
6
CONTINUOUS
10
84.103
20
-34.8392
11
83.9291
21
-34.8761
0
LINE
8
BLACK
6
CONTINUOUS
10
83.9291
20
-34.8761
11
83.7514
21
-34.8761
0
LINE
8
BLACK
6
CONTINUOUS
10
83.7514
20
-34.8761
11
83.5776
21
-34.8392
0
LINE
8
BLACK
6
CONTINUOUS
10
83.5776
20
-34.8392
11
83.4153
21
-34.7669
0
LINE
8
BLACK
6
CONTINUOUS
10
83.4153
20
-34.7669
11
83.2715
21
-34.6624
0
LINE
8
BLACK
6
CONTINUOUS
10
83.2715
20
-34.6624
11
83.1526
21
-34.5304
0
LINE
8
BLACK
6
CONTINUOUS
10
83.1526
20
-34.5304
11
83.0638
21
-34.3765
0
LINE
8
BLACK
6
CONTINUOUS
10
83.0638
20
-34.3765
11
83.0089
21
-34.2075
0
LINE
8
BLACK
6
CONTINUOUS
10
83.0089
20
-34.2075
11
82.9903
21
-34.0308
0
LINE
8
BLACK
6
CONTINUOUS
10
82.9903
20
-34.0308
11
83.0089
21
-33.854
0
LINE
8
BLACK
6
CONTINUOUS
10
83.0089
20
-33.854
11
83.0638
21
-33.685
0
LINE
8
BLACK
6
CONTINUOUS
10
83.0638
20
-33.685
11
83.1526
21
-33.5312
0
LINE
8
BLACK
6
CONTINUOUS
10
83.1526
20
-33.5312
11
83.2715
21
-33.3991
0
LINE
8
BLACK
6
CONTINUOUS
10
83.2715
20
-33.3991
11
83.4153
21
-33.2946
0
LINE
8
BLACK
6
CONTINUOUS
10
83.4153
20
-33.2946
11
83.5776
21
-33.2224
0
LINE
8
BLACK
6
CONTINUOUS
10
83.5776
20
-33.2224
11
83.7514
21
-33.1854
0
LINE
8
BLACK
6
CONTINUOUS
10
83.7514
20
-33.1854
11
83.9291
21
-33.1854
0
LINE
8
BLACK
6
CONTINUOUS
10
83.9291
20
-33.1854
11
84.103
21
-33.2224
0
LINE
8
BLACK
6
CONTINUOUS
10
96.803
20
-33.2224
11
96.9653
21
-33.2946
0
LINE
8
BLACK
6
CONTINUOUS
10
96.9653
20
-33.2946
11
97.1091
21
-33.3991
0
LINE
8
BLACK
6
CONTINUOUS
10
97.1091
20
-33.3991
11
97.228
21
-33.5312
0
LINE
8
BLACK
6
CONTINUOUS
10
97.228
20
-33.5312
11
97.3168
21
-33.685
0
LINE
8
BLACK
6
CONTINUOUS
10
97.3168
20
-33.685
11
97.3717
21
-33.854
0
LINE
8
BLACK
6
CONTINUOUS
10
97.3717
20
-33.854
11
97.3903
21
-34.0308
0
LINE
8
BLACK
6
CONTINUOUS
10
97.3903
20
-34.0308
11
97.3717
21
-34.2075
0
LINE
8
BLACK
6
CONTINUOUS
10
97.3717
20
-34.2075
11
97.3168
21
-34.3765
0
LINE
8
BLACK
6
CONTINUOUS
10
97.3168
20
-34.3765
11
97.228
21
-34.5304
0
LINE
8
BLACK
6
CONTINUOUS
10
97.228
20
-34.5304
11
97.1091
21
-34.6624
0
LINE
8
BLACK
6
CONTINUOUS
10
97.1091
20
-34.6624
11
96.9653
21
-34.7669
0
LINE
8
BLACK
6
CONTINUOUS
10
96.9653
20
-34.7669
11
96.803
21
-34.8392
0
LINE
8
BLACK
6
CONTINUOUS
10
96.803
20
-34.8392
11
96.6291
21
-34.8761
0
LINE
8
BLACK
6
CONTINUOUS
10
96.6291
20
-34.8761
11
96.4514
21
-34.8761
0
LINE
8
BLACK
6
CONTINUOUS
10
96.4514
20
-34.8761
11
96.2776
21
-34.8392
0
LINE
8
BLACK
6
CONTINUOUS
10
96.2776
20
-34.8392
11
96.1153
21
-34.7669
0
LINE
8
BLACK
6
CONTINUOUS
10
96.1153
20
-34.7669
11
95.9715
21
-34.6624
0
LINE
8
BLACK
6
CONTINUOUS
10
95.9715
20
-34.6624
11
95.8526
21
-34.5304
0
LINE
8
BLACK
6
CONTINUOUS
10
95.8526
20
-34.5304
11
95.7638
21
-34.3765
0
LINE
8
BLACK
6
CONTINUOUS
10
95.7638
20
-34.3765
11
95.7089
21
-34.2075
0
LINE
8
BLACK
6
CONTINUOUS
10
95.7089
20
-34.2075
11
95.6903
21
-34.0308
0
LINE
8
BLACK
6
CONTINUOUS
10
95.6903
20
-34.0308
11
95.7089
21
-33.854
0
LINE
8
BLACK
6
CONTINUOUS
10
95.7089
20
-33.854
11
95.7638
21
-33.685
0
LINE
8
BLACK
6
CONTINUOUS
10
95.7638
20
-33.685
11
95.8526
21
-33.5312
0
LINE
8
BLACK
6
CONTINUOUS
10
95.8526
20
-33.5312
11
95.9715
21
-33.3991
0
LINE
8
BLACK
6
CONTINUOUS
10
95.9715
20
-33.3991
11
96.1153
21
-33.2946
0
LINE
8
BLACK
6
CONTINUOUS
10
96.1153
20
-33.2946
11
96.2776
21
-33.2224
0
LINE
8
BLACK
6
CONTINUOUS
10
96.2776
20
-33.2224
11
96.4514
21
-33.1854
0
LINE
8
BLACK
6
CONTINUOUS
10
96.4514
20
-33.1854
11
96.6291
21
-33.1854
0
LINE
8
BLACK
6
CONTINUOUS
10
96.6291
20
-33.1854
11
96.803
21
-33.2224
0
LINE
8
BLACK
6
CONTINUOUS
10
99.343
20
-33.2224
11
99.5053
21
-33.2946
0
LINE
8
BLACK
6
CONTINUOUS
10
99.5053
20
-33.2946
11
99.6491
21
-33.3991
0
LINE
8
BLACK
6
CONTINUOUS
10
99.6491
20
-33.3991
11
99.768
21
-33.5312
0
LINE
8
BLACK
6
CONTINUOUS
10
99.768
20
-33.5312
11
99.8568
21
-33.685
0
LINE
8
BLACK
6
CONTINUOUS
10
99.8568
20
-33.685
11
99.9117
21
-33.854
0
LINE
8
BLACK
6
CONTINUOUS
10
99.9117
20
-33.854
11
99.9303
21
-34.0308
0
LINE
8
BLACK
6
CONTINUOUS
10
99.9303
20
-34.0308
11
99.9117
21
-34.2075
0
LINE
8
BLACK
6
CONTINUOUS
10
99.9117
20
-34.2075
11
99.8568
21
-34.3765
0
LINE
8
BLACK
6
CONTINUOUS
10
99.8568
20
-34.3765
11
99.768
21
-34.5304
0
LINE
8
BLACK
6
CONTINUOUS
10
99.768
20
-34.5304
11
99.6491
21
-34.6624
0
LINE
8
BLACK
6
CONTINUOUS
10
99.6491
20
-34.6624
11
99.5053
21
-34.7669
0
LINE
8
BLACK
6
CONTINUOUS
10
99.5053
20
-34.7669
11
99.343
21
-34.8392
0
LINE
8
BLACK
6
CONTINUOUS
10
99.343
20
-34.8392
11
99.1691
21
-34.8761
0
LINE
8
BLACK
6
CONTINUOUS
10
99.1691
20
-34.8761
11
98.9914
21
-34.8761
0
LINE
8
BLACK
6
CONTINUOUS
10
98.9914
20
-34.8761
11
98.8176
21
-34.8392
0
LINE
8
BLACK
6
CONTINUOUS
10
98.8176
20
-34.8392
11
98.6553
21
-34.7669
0
LINE
8
BLACK
6
CONTINUOUS
10
98.6553
20
-34.7669
11
98.5115
21
-34.6624
0
LINE
8
BLACK
6
CONTINUOUS
10
98.5115
20
-34.6624
11
98.3926
21
-34.5304
0
LINE
8
BLACK
6
CONTINUOUS
10
98.3926
20
-34.5304
11
98.3038
21
-34.3765
0
LINE
8
BLACK
6
CONTINUOUS
10
98.3038
20
-34.3765
11
98.2489
21
-34.2075
0
LINE
8
BLACK
6
CONTINUOUS
10
98.2489
20
-34.2075
11
98.2303
21
-34.0308
0
LINE
8
BLACK
6
CONTINUOUS
10
98.2303
20
-34.0308
11
98.2489
21
-33.854
0
LINE
8
BLACK
6
CONTINUOUS
10
98.2489
20
-33.854
11
98.3038
21
-33.685
0
LINE
8
BLACK
6
CONTINUOUS
10
98.3038
20
-33.685
11
98.3926
21
-33.5312
0
LINE
8
BLACK
6
CONTINUOUS
10
98.3926
20
-33.5312
11
98.5115
21
-33.3991
0
LINE
8
BLACK
6
CONTINUOUS
10
98.5115
20
-33.3991
11
98.6553
21
-33.2946
0
LINE
8
BLACK
6
CONTINUOUS
10
98.6553
20
-33.2946
11
98.8176
21
-33.2224
0
LINE
8
BLACK
6
CONTINUOUS
10
98.8176
20
-33.2224
11
98.9914
21
-33.1854
0
LINE
8
BLACK
6
CONTINUOUS
10
98.9914
20
-33.1854
11
99.1691
21
-33.1854
0
LINE
8
BLACK
6
CONTINUOUS
10
99.1691
20
-33.1854
11
99.343
21
-33.2224
0
LINE
8
BLACK
6
CONTINUOUS
10
104.423
20
-30.6824
11
104.585
21
-30.7546
0
LINE
8
BLACK
6
CONTINUOUS
10
104.585
20
-30.7546
11
104.729
21
-30.8591
0
LINE
8
BLACK
6
CONTINUOUS
10
104.729
20
-30.8591
11
104.848
21
-30.9912
0
LINE
8
BLACK
6
CONTINUOUS
10
104.848
20
-30.9912
11
104.937
21
-31.145
0
LINE
8
BLACK
6
CONTINUOUS
10
104.937
20
-31.145
11
104.992
21
-31.314
0
LINE
8
BLACK
6
CONTINUOUS
10
104.992
20
-31.314
11
105.01
21
-31.4908
0
LINE
8
BLACK
6
CONTINUOUS
10
105.01
20
-31.4908
11
104.992
21
-31.6675
0
LINE
8
BLACK
6
CONTINUOUS
10
104.992
20
-31.6675
11
104.937
21
-31.8365
0
LINE
8
BLACK
6
CONTINUOUS
10
104.937
20
-31.8365
11
104.848
21
-31.9904
0
LINE
8
BLACK
6
CONTINUOUS
10
104.848
20
-31.9904
11
104.729
21
-32.1224
0
LINE
8
BLACK
6
CONTINUOUS
10
104.729
20
-32.1224
11
104.585
21
-32.2269
0
LINE
8
BLACK
6
CONTINUOUS
10
104.585
20
-32.2269
11
104.423
21
-32.2992
0
LINE
8
BLACK
6
CONTINUOUS
10
104.423
20
-32.2992
11
104.249
21
-32.3361
0
LINE
8
BLACK
6
CONTINUOUS
10
104.249
20
-32.3361
11
104.071
21
-32.3361
0
LINE
8
BLACK
6
CONTINUOUS
10
104.071
20
-32.3361
11
103.898
21
-32.2992
0
LINE
8
BLACK
6
CONTINUOUS
10
103.898
20
-32.2992
11
103.735
21
-32.2269
0
LINE
8
BLACK
6
CONTINUOUS
10
103.735
20
-32.2269
11
103.592
21
-32.1224
0
LINE
8
BLACK
6
CONTINUOUS
10
103.592
20
-32.1224
11
103.473
21
-31.9904
0
LINE
8
BLACK
6
CONTINUOUS
10
103.473
20
-31.9904
11
103.384
21
-31.8365
0
LINE
8
BLACK
6
CONTINUOUS
10
103.384
20
-31.8365
11
103.329
21
-31.6675
0
LINE
8
BLACK
6
CONTINUOUS
10
103.329
20
-31.6675
11
103.31
21
-31.4908
0
LINE
8
BLACK
6
CONTINUOUS
10
103.31
20
-31.4908
11
103.329
21
-31.314
0
LINE
8
BLACK
6
CONTINUOUS
10
103.329
20
-31.314
11
103.384
21
-31.145
0
LINE
8
BLACK
6
CONTINUOUS
10
103.384
20
-31.145
11
103.473
21
-30.9912
0
LINE
8
BLACK
6
CONTINUOUS
10
103.473
20
-30.9912
11
103.592
21
-30.8591
0
LINE
8
BLACK
6
CONTINUOUS
10
103.592
20
-30.8591
11
103.735
21
-30.7546
0
LINE
8
BLACK
6
CONTINUOUS
10
103.735
20
-30.7546
11
103.898
21
-30.6824
0
LINE
8
BLACK
6
CONTINUOUS
10
103.898
20
-30.6824
11
104.071
21
-30.6454
0
LINE
8
BLACK
6
CONTINUOUS
10
104.071
20
-30.6454
11
104.249
21
-30.6454
0
LINE
8
BLACK
6
CONTINUOUS
10
104.249
20
-30.6454
11
104.423
21
-30.6824
0
LINE
8
BLACK
6
CONTINUOUS
10
94.263
20
-30.6824
11
94.4253
21
-30.7546
0
LINE
8
BLACK
6
CONTINUOUS
10
94.4253
20
-30.7546
11
94.5691
21
-30.8591
0
LINE
8
BLACK
6
CONTINUOUS
10
94.5691
20
-30.8591
11
94.688
21
-30.9912
0
LINE
8
BLACK
6
CONTINUOUS
10
94.688
20
-30.9912
11
94.7768
21
-31.145
0
LINE
8
BLACK
6
CONTINUOUS
10
94.7768
20
-31.145
11
94.8317
21
-31.314
0
LINE
8
BLACK
6
CONTINUOUS
10
94.8317
20
-31.314
11
94.8503
21
-31.4908
0
LINE
8
BLACK
6
CONTINUOUS
10
94.8503
20
-31.4908
11
94.8317
21
-31.6675
0
LINE
8
BLACK
6
CONTINUOUS
10
94.8317
20
-31.6675
11
94.7768
21
-31.8365
0
LINE
8
BLACK
6
CONTINUOUS
10
94.7768
20
-31.8365
11
94.688
21
-31.9904
0
LINE
8
BLACK
6
CONTINUOUS
10
94.688
20
-31.9904
11
94.5691
21
-32.1224
0
LINE
8
BLACK
6
CONTINUOUS
10
94.5691
20
-32.1224
11
94.4253
21
-32.2269
0
LINE
8
BLACK
6
CONTINUOUS
10
94.4253
20
-32.2269
11
94.263
21
-32.2992
0
LINE
8
BLACK
6
CONTINUOUS
10
94.263
20
-32.2992
11
94.0891
21
-32.3361
0
LINE
8
BLACK
6
CONTINUOUS
10
94.0891
20
-32.3361
11
93.9114
21
-32.3361
0
LINE
8
BLACK
6
CONTINUOUS
10
93.9114
20
-32.3361
11
93.7376
21
-32.2992
0
LINE
8
BLACK
6
CONTINUOUS
10
93.7376
20
-32.2992
11
93.5753
21
-32.2269
0
LINE
8
BLACK
6
CONTINUOUS
10
93.5753
20
-32.2269
11
93.4315
21
-32.1224
0
LINE
8
BLACK
6
CONTINUOUS
10
93.4315
20
-32.1224
11
93.3126
21
-31.9904
0
LINE
8
BLACK
6
CONTINUOUS
10
93.3126
20
-31.9904
11
93.2238
21
-31.8365
0
LINE
8
BLACK
6
CONTINUOUS
10
93.2238
20
-31.8365
11
93.1689
21
-31.6675
0
LINE
8
BLACK
6
CONTINUOUS
10
93.1689
20
-31.6675
11
93.1503
21
-31.4908
0
LINE
8
BLACK
6
CONTINUOUS
10
93.1503
20
-31.4908
11
93.1689
21
-31.314
0
LINE
8
BLACK
6
CONTINUOUS
10
93.1689
20
-31.314
11
93.2238
21
-31.145
0
LINE
8
BLACK
6
CONTINUOUS
10
93.2238
20
-31.145
11
93.3126
21
-30.9912
0
LINE
8
BLACK
6
CONTINUOUS
10
93.3126
20
-30.9912
11
93.4315
21
-30.8591
0
LINE
8
BLACK
6
CONTINUOUS
10
93.4315
20
-30.8591
11
93.5753
21
-30.7546
0
LINE
8
BLACK
6
CONTINUOUS
10
93.5753
20
-30.7546
11
93.7376
21
-30.6824
0
LINE
8
BLACK
6
CONTINUOUS
10
93.7376
20
-30.6824
11
93.9114
21
-30.6454
0
LINE
8
BLACK
6
CONTINUOUS
10
93.9114
20
-30.6454
11
94.0891
21
-30.6454
0
LINE
8
BLACK
6
CONTINUOUS
10
94.0891
20
-30.6454
11
94.263
21
-30.6824
0
LINE
8
BLACK
6
CONTINUOUS
10
101.883
20
-30.6824
11
102.045
21
-30.7546
0
LINE
8
BLACK
6
CONTINUOUS
10
102.045
20
-30.7546
11
102.189
21
-30.8591
0
LINE
8
BLACK
6
CONTINUOUS
10
102.189
20
-30.8591
11
102.308
21
-30.9912
0
LINE
8
BLACK
6
CONTINUOUS
10
102.308
20
-30.9912
11
102.397
21
-31.145
0
LINE
8
BLACK
6
CONTINUOUS
10
102.397
20
-31.145
11
102.452
21
-31.314
0
LINE
8
BLACK
6
CONTINUOUS
10
102.452
20
-31.314
11
102.47
21
-31.4908
0
LINE
8
BLACK
6
CONTINUOUS
10
102.47
20
-31.4908
11
102.452
21
-31.6675
0
LINE
8
BLACK
6
CONTINUOUS
10
102.452
20
-31.6675
11
102.397
21
-31.8365
0
LINE
8
BLACK
6
CONTINUOUS
10
102.397
20
-31.8365
11
102.308
21
-31.9904
0
LINE
8
BLACK
6
CONTINUOUS
10
102.308
20
-31.9904
11
102.189
21
-32.1224
0
LINE
8
BLACK
6
CONTINUOUS
10
102.189
20
-32.1224
11
102.045
21
-32.2269
0
LINE
8
BLACK
6
CONTINUOUS
10
102.045
20
-32.2269
11
101.883
21
-32.2992
0
LINE
8
BLACK
6
CONTINUOUS
10
101.883
20
-32.2992
11
101.709
21
-32.3361
0
LINE
8
BLACK
6
CONTINUOUS
10
101.709
20
-32.3361
11
101.531
21
-32.3361
0
LINE
8
BLACK
6
CONTINUOUS
10
101.531
20
-32.3361
11
101.358
21
-32.2992
0
LINE
8
BLACK
6
CONTINUOUS
10
101.358
20
-32.2992
11
101.195
21
-32.2269
0
LINE
8
BLACK
6
CONTINUOUS
10
101.195
20
-32.2269
11
101.052
21
-32.1224
0
LINE
8
BLACK
6
CONTINUOUS
10
101.052
20
-32.1224
11
100.933
21
-31.9904
0
LINE
8
BLACK
6
CONTINUOUS
10
100.933
20
-31.9904
11
100.844
21
-31.8365
0
LINE
8
BLACK
6
CONTINUOUS
10
100.844
20
-31.8365
11
100.789
21
-31.6675
0
LINE
8
BLACK
6
CONTINUOUS
10
100.789
20
-31.6675
11
100.77
21
-31.4908
0
LINE
8
BLACK
6
CONTINUOUS
10
100.77
20
-31.4908
11
100.789
21
-31.314
0
LINE
8
BLACK
6
CONTINUOUS
10
100.789
20
-31.314
11
100.844
21
-31.145
0
LINE
8
BLACK
6
CONTINUOUS
10
100.844
20
-31.145
11
100.933
21
-30.9912
0
LINE
8
BLACK
6
CONTINUOUS
10
100.933
20
-30.9912
11
101.052
21
-30.8591
0
LINE
8
BLACK
6
CONTINUOUS
10
101.052
20
-30.8591
11
101.195
21
-30.7546
0
LINE
8
BLACK
6
CONTINUOUS
10
101.195
20
-30.7546
11
101.358
21
-30.6824
0
LINE
8
BLACK
6
CONTINUOUS
10
101.358
20
-30.6824
11
101.531
21
-30.6454
0
LINE
8
BLACK
6
CONTINUOUS
10
101.531
20
-30.6454
11
101.709
21
-30.6454
0
LINE
8
BLACK
6
CONTINUOUS
10
101.709
20
-30.6454
11
101.883
21
-30.6824
0
LINE
8
BLACK
6
CONTINUOUS
10
99.343
20
-30.6824
11
99.5053
21
-30.7546
0
LINE
8
BLACK
6
CONTINUOUS
10
99.5053
20
-30.7546
11
99.6491
21
-30.8591
0
LINE
8
BLACK
6
CONTINUOUS
10
99.6491
20
-30.8591
11
99.768
21
-30.9912
0
LINE
8
BLACK
6
CONTINUOUS
10
99.768
20
-30.9912
11
99.8568
21
-31.145
0
LINE
8
BLACK
6
CONTINUOUS
10
99.8568
20
-31.145
11
99.9117
21
-31.314
0
LINE
8
BLACK
6
CONTINUOUS
10
99.9117
20
-31.314
11
99.9303
21
-31.4908
0
LINE
8
BLACK
6
CONTINUOUS
10
99.9303
20
-31.4908
11
99.9117
21
-31.6675
0
LINE
8
BLACK
6
CONTINUOUS
10
99.9117
20
-31.6675
11
99.8568
21
-31.8365
0
LINE
8
BLACK
6
CONTINUOUS
10
99.8568
20
-31.8365
11
99.768
21
-31.9904
0
LINE
8
BLACK
6
CONTINUOUS
10
99.768
20
-31.9904
11
99.6491
21
-32.1224
0
LINE
8
BLACK
6
CONTINUOUS
10
99.6491
20
-32.1224
11
99.5053
21
-32.2269
0
LINE
8
BLACK
6
CONTINUOUS
10
99.5053
20
-32.2269
11
99.343
21
-32.2992
0
LINE
8
BLACK
6
CONTINUOUS
10
99.343
20
-32.2992
11
99.1691
21
-32.3361
0
LINE
8
BLACK
6
CONTINUOUS
10
99.1691
20
-32.3361
11
98.9914
21
-32.3361
0
LINE
8
BLACK
6
CONTINUOUS
10
98.9914
20
-32.3361
11
98.8176
21
-32.2992
0
LINE
8
BLACK
6
CONTINUOUS
10
98.8176
20
-32.2992
11
98.6553
21
-32.2269
0
LINE
8
BLACK
6
CONTINUOUS
10
98.6553
20
-32.2269
11
98.5115
21
-32.1224
0
LINE
8
BLACK
6
CONTINUOUS
10
98.5115
20
-32.1224
11
98.3926
21
-31.9904
0
LINE
8
BLACK
6
CONTINUOUS
10
98.3926
20
-31.9904
11
98.3038
21
-31.8365
0
LINE
8
BLACK
6
CONTINUOUS
10
98.3038
20
-31.8365
11
98.2489
21
-31.6675
0
LINE
8
BLACK
6
CONTINUOUS
10
98.2489
20
-31.6675
11
98.2303
21
-31.4908
0
LINE
8
BLACK
6
CONTINUOUS
10
98.2303
20
-31.4908
11
98.2489
21
-31.314
0
LINE
8
BLACK
6
CONTINUOUS
10
98.2489
20
-31.314
11
98.3038
21
-31.145
0
LINE
8
BLACK
6
CONTINUOUS
10
98.3038
20
-31.145
11
98.3926
21
-30.9912
0
LINE
8
BLACK
6
CONTINUOUS
10
98.3926
20
-30.9912
11
98.5115
21
-30.8591
0
LINE
8
BLACK
6
CONTINUOUS
10
98.5115
20
-30.8591
11
98.6553
21
-30.7546
0
LINE
8
BLACK
6
CONTINUOUS
10
98.6553
20
-30.7546
11
98.8176
21
-30.6824
0
LINE
8
BLACK
6
CONTINUOUS
10
98.8176
20
-30.6824
11
98.9914
21
-30.6454
0
LINE
8
BLACK
6
CONTINUOUS
10
98.9914
20
-30.6454
11
99.1691
21
-30.6454
0
LINE
8
BLACK
6
CONTINUOUS
10
99.1691
20
-30.6454
11
99.343
21
-30.6824
0
LINE
8
BLACK
6
CONTINUOUS
10
96.803
20
-30.6824
11
96.9653
21
-30.7546
0
LINE
8
BLACK
6
CONTINUOUS
10
96.9653
20
-30.7546
11
97.1091
21
-30.8591
0
LINE
8
BLACK
6
CONTINUOUS
10
97.1091
20
-30.8591
11
97.228
21
-30.9912
0
LINE
8
BLACK
6
CONTINUOUS
10
97.228
20
-30.9912
11
97.3168
21
-31.145
0
LINE
8
BLACK
6
CONTINUOUS
10
97.3168
20
-31.145
11
97.3717
21
-31.314
0
LINE
8
BLACK
6
CONTINUOUS
10
97.3717
20
-31.314
11
97.3903
21
-31.4908
0
LINE
8
BLACK
6
CONTINUOUS
10
97.3903
20
-31.4908
11
97.3717
21
-31.6675
0
LINE
8
BLACK
6
CONTINUOUS
10
97.3717
20
-31.6675
11
97.3168
21
-31.8365
0
LINE
8
BLACK
6
CONTINUOUS
10
97.3168
20
-31.8365
11
97.228
21
-31.9904
0
LINE
8
BLACK
6
CONTINUOUS
10
97.228
20
-31.9904
11
97.1091
21
-32.1224
0
LINE
8
BLACK
6
CONTINUOUS
10
97.1091
20
-32.1224
11
96.9653
21
-32.2269
0
LINE
8
BLACK
6
CONTINUOUS
10
96.9653
20
-32.2269
11
96.803
21
-32.2992
0
LINE
8
BLACK
6
CONTINUOUS
10
96.803
20
-32.2992
11
96.6291
21
-32.3361
0
LINE
8
BLACK
6
CONTINUOUS
10
96.6291
20
-32.3361
11
96.4514
21
-32.3361
0
LINE
8
BLACK
6
CONTINUOUS
10
96.4514
20
-32.3361
11
96.2776
21
-32.2992
0
LINE
8
BLACK
6
CONTINUOUS
10
96.2776
20
-32.2992
11
96.1153
21
-32.2269
0
LINE
8
BLACK
6
CONTINUOUS
10
96.1153
20
-32.2269
11
95.9715
21
-32.1224
0
LINE
8
BLACK
6
CONTINUOUS
10
95.9715
20
-32.1224
11
95.8526
21
-31.9904
0
LINE
8
BLACK
6
CONTINUOUS
10
95.8526
20
-31.9904
11
95.7638
21
-31.8365
0
LINE
8
BLACK
6
CONTINUOUS
10
95.7638
20
-31.8365
11
95.7089
21
-31.6675
0
LINE
8
BLACK
6
CONTINUOUS
10
95.7089
20
-31.6675
11
95.6903
21
-31.4908
0
LINE
8
BLACK
6
CONTINUOUS
10
95.6903
20
-31.4908
11
95.7089
21
-31.314
0
LINE
8
BLACK
6
CONTINUOUS
10
95.7089
20
-31.314
11
95.7638
21
-31.145
0
LINE
8
BLACK
6
CONTINUOUS
10
95.7638
20
-31.145
11
95.8526
21
-30.9912
0
LINE
8
BLACK
6
CONTINUOUS
10
95.8526
20
-30.9912
11
95.9715
21
-30.8591
0
LINE
8
BLACK
6
CONTINUOUS
10
95.9715
20
-30.8591
11
96.1153
21
-30.7546
0
LINE
8
BLACK
6
CONTINUOUS
10
96.1153
20
-30.7546
11
96.2776
21
-30.6824
0
LINE
8
BLACK
6
CONTINUOUS
10
96.2776
20
-30.6824
11
96.4514
21
-30.6454
0
LINE
8
BLACK
6
CONTINUOUS
10
96.4514
20
-30.6454
11
96.6291
21
-30.6454
0
LINE
8
BLACK
6
CONTINUOUS
10
96.6291
20
-30.6454
11
96.803
21
-30.6824
0
LINE
8
BLACK
6
CONTINUOUS
10
81.563
20
-30.6824
11
81.7253
21
-30.7546
0
LINE
8
BLACK
6
CONTINUOUS
10
81.7253
20
-30.7546
11
81.8691
21
-30.8591
0
LINE
8
BLACK
6
CONTINUOUS
10
81.8691
20
-30.8591
11
81.988
21
-30.9912
0
LINE
8
BLACK
6
CONTINUOUS
10
81.988
20
-30.9912
11
82.0768
21
-31.145
0
LINE
8
BLACK
6
CONTINUOUS
10
82.0768
20
-31.145
11
82.1317
21
-31.314
0
LINE
8
BLACK
6
CONTINUOUS
10
82.1317
20
-31.314
11
82.1503
21
-31.4908
0
LINE
8
BLACK
6
CONTINUOUS
10
82.1503
20
-31.4908
11
82.1317
21
-31.6675
0
LINE
8
BLACK
6
CONTINUOUS
10
82.1317
20
-31.6675
11
82.0768
21
-31.8365
0
LINE
8
BLACK
6
CONTINUOUS
10
82.0768
20
-31.8365
11
81.988
21
-31.9904
0
LINE
8
BLACK
6
CONTINUOUS
10
81.988
20
-31.9904
11
81.8691
21
-32.1224
0
LINE
8
BLACK
6
CONTINUOUS
10
81.8691
20
-32.1224
11
81.7253
21
-32.2269
0
LINE
8
BLACK
6
CONTINUOUS
10
81.7253
20
-32.2269
11
81.563
21
-32.2992
0
LINE
8
BLACK
6
CONTINUOUS
10
81.563
20
-32.2992
11
81.3891
21
-32.3361
0
LINE
8
BLACK
6
CONTINUOUS
10
81.3891
20
-32.3361
11
81.2114
21
-32.3361
0
LINE
8
BLACK
6
CONTINUOUS
10
81.2114
20
-32.3361
11
81.0376
21
-32.2992
0
LINE
8
BLACK
6
CONTINUOUS
10
81.0376
20
-32.2992
11
80.8753
21
-32.2269
0
LINE
8
BLACK
6
CONTINUOUS
10
80.8753
20
-32.2269
11
80.7315
21
-32.1224
0
LINE
8
BLACK
6
CONTINUOUS
10
80.7315
20
-32.1224
11
80.6126
21
-31.9904
0
LINE
8
BLACK
6
CONTINUOUS
10
80.6126
20
-31.9904
11
80.5238
21
-31.8365
0
LINE
8
BLACK
6
CONTINUOUS
10
80.5238
20
-31.8365
11
80.4689
21
-31.6675
0
LINE
8
BLACK
6
CONTINUOUS
10
80.4689
20
-31.6675
11
80.4503
21
-31.4908
0
LINE
8
BLACK
6
CONTINUOUS
10
80.4503
20
-31.4908
11
80.4689
21
-31.314
0
LINE
8
BLACK
6
CONTINUOUS
10
80.4689
20
-31.314
11
80.5238
21
-31.145
0
LINE
8
BLACK
6
CONTINUOUS
10
80.5238
20
-31.145
11
80.6126
21
-30.9912
0
LINE
8
BLACK
6
CONTINUOUS
10
80.6126
20
-30.9912
11
80.7315
21
-30.8591
0
LINE
8
BLACK
6
CONTINUOUS
10
80.7315
20
-30.8591
11
80.8753
21
-30.7546
0
LINE
8
BLACK
6
CONTINUOUS
10
80.8753
20
-30.7546
11
81.0376
21
-30.6824
0
LINE
8
BLACK
6
CONTINUOUS
10
81.0376
20
-30.6824
11
81.2114
21
-30.6454
0
LINE
8
BLACK
6
CONTINUOUS
10
81.2114
20
-30.6454
11
81.3891
21
-30.6454
0
LINE
8
BLACK
6
CONTINUOUS
10
81.3891
20
-30.6454
11
81.563
21
-30.6824
0
LINE
8
BLACK
6
CONTINUOUS
10
84.103
20
-30.6824
11
84.2653
21
-30.7546
0
LINE
8
BLACK
6
CONTINUOUS
10
84.2653
20
-30.7546
11
84.4091
21
-30.8591
0
LINE
8
BLACK
6
CONTINUOUS
10
84.4091
20
-30.8591
11
84.528
21
-30.9912
0
LINE
8
BLACK
6
CONTINUOUS
10
84.528
20
-30.9912
11
84.6168
21
-31.145
0
LINE
8
BLACK
6
CONTINUOUS
10
84.6168
20
-31.145
11
84.6717
21
-31.314
0
LINE
8
BLACK
6
CONTINUOUS
10
84.6717
20
-31.314
11
84.6903
21
-31.4908
0
LINE
8
BLACK
6
CONTINUOUS
10
84.6903
20
-31.4908
11
84.6717
21
-31.6675
0
LINE
8
BLACK
6
CONTINUOUS
10
84.6717
20
-31.6675
11
84.6168
21
-31.8365
0
LINE
8
BLACK
6
CONTINUOUS
10
84.6168
20
-31.8365
11
84.528
21
-31.9904
0
LINE
8
BLACK
6
CONTINUOUS
10
84.528
20
-31.9904
11
84.4091
21
-32.1224
0
LINE
8
BLACK
6
CONTINUOUS
10
84.4091
20
-32.1224
11
84.2653
21
-32.2269
0
LINE
8
BLACK
6
CONTINUOUS
10
84.2653
20
-32.2269
11
84.103
21
-32.2992
0
LINE
8
BLACK
6
CONTINUOUS
10
84.103
20
-32.2992
11
83.9291
21
-32.3361
0
LINE
8
BLACK
6
CONTINUOUS
10
83.9291
20
-32.3361
11
83.7514
21
-32.3361
0
LINE
8
BLACK
6
CONTINUOUS
10
83.7514
20
-32.3361
11
83.5776
21
-32.2992
0
LINE
8
BLACK
6
CONTINUOUS
10
83.5776
20
-32.2992
11
83.4153
21
-32.2269
0
LINE
8
BLACK
6
CONTINUOUS
10
83.4153
20
-32.2269
11
83.2715
21
-32.1224
0
LINE
8
BLACK
6
CONTINUOUS
10
83.2715
20
-32.1224
11
83.1526
21
-31.9904
0
LINE
8
BLACK
6
CONTINUOUS
10
83.1526
20
-31.9904
11
83.0638
21
-31.8365
0
LINE
8
BLACK
6
CONTINUOUS
10
83.0638
20
-31.8365
11
83.0089
21
-31.6675
0
LINE
8
BLACK
6
CONTINUOUS
10
83.0089
20
-31.6675
11
82.9903
21
-31.4908
0
LINE
8
BLACK
6
CONTINUOUS
10
82.9903
20
-31.4908
11
83.0089
21
-31.314
0
LINE
8
BLACK
6
CONTINUOUS
10
83.0089
20
-31.314
11
83.0638
21
-31.145
0
LINE
8
BLACK
6
CONTINUOUS
10
83.0638
20
-31.145
11
83.1526
21
-30.9912
0
LINE
8
BLACK
6
CONTINUOUS
10
83.1526
20
-30.9912
11
83.2715
21
-30.8591
0
LINE
8
BLACK
6
CONTINUOUS
10
83.2715
20
-30.8591
11
83.4153
21
-30.7546
0
LINE
8
BLACK
6
CONTINUOUS
10
83.4153
20
-30.7546
11
83.5776
21
-30.6824
0
LINE
8
BLACK
6
CONTINUOUS
10
83.5776
20
-30.6824
11
83.7514
21
-30.6454
0
LINE
8
BLACK
6
CONTINUOUS
10
83.7514
20
-30.6454
11
83.9291
21
-30.6454
0
LINE
8
BLACK
6
CONTINUOUS
10
83.9291
20
-30.6454
11
84.103
21
-30.6824
0
LINE
8
BLACK
6
CONTINUOUS
10
86.643
20
-30.6824
11
86.8053
21
-30.7546
0
LINE
8
BLACK
6
CONTINUOUS
10
86.8053
20
-30.7546
11
86.9491
21
-30.8591
0
LINE
8
BLACK
6
CONTINUOUS
10
86.9491
20
-30.8591
11
87.068
21
-30.9912
0
LINE
8
BLACK
6
CONTINUOUS
10
87.068
20
-30.9912
11
87.1568
21
-31.145
0
LINE
8
BLACK
6
CONTINUOUS
10
87.1568
20
-31.145
11
87.2117
21
-31.314
0
LINE
8
BLACK
6
CONTINUOUS
10
87.2117
20
-31.314
11
87.2303
21
-31.4908
0
LINE
8
BLACK
6
CONTINUOUS
10
87.2303
20
-31.4908
11
87.2117
21
-31.6675
0
LINE
8
BLACK
6
CONTINUOUS
10
87.2117
20
-31.6675
11
87.1568
21
-31.8365
0
LINE
8
BLACK
6
CONTINUOUS
10
87.1568
20
-31.8365
11
87.068
21
-31.9904
0
LINE
8
BLACK
6
CONTINUOUS
10
87.068
20
-31.9904
11
86.9491
21
-32.1224
0
LINE
8
BLACK
6
CONTINUOUS
10
86.9491
20
-32.1224
11
86.8053
21
-32.2269
0
LINE
8
BLACK
6
CONTINUOUS
10
86.8053
20
-32.2269
11
86.643
21
-32.2992
0
LINE
8
BLACK
6
CONTINUOUS
10
86.643
20
-32.2992
11
86.4691
21
-32.3361
0
LINE
8
BLACK
6
CONTINUOUS
10
86.4691
20
-32.3361
11
86.2914
21
-32.3361
0
LINE
8
BLACK
6
CONTINUOUS
10
86.2914
20
-32.3361
11
86.1176
21
-32.2992
0
LINE
8
BLACK
6
CONTINUOUS
10
86.1176
20
-32.2992
11
85.9553
21
-32.2269
0
LINE
8
BLACK
6
CONTINUOUS
10
85.9553
20
-32.2269
11
85.8115
21
-32.1224
0
LINE
8
BLACK
6
CONTINUOUS
10
85.8115
20
-32.1224
11
85.6926
21
-31.9904
0
LINE
8
BLACK
6
CONTINUOUS
10
85.6926
20
-31.9904
11
85.6038
21
-31.8365
0
LINE
8
BLACK
6
CONTINUOUS
10
85.6038
20
-31.8365
11
85.5489
21
-31.6675
0
LINE
8
BLACK
6
CONTINUOUS
10
85.5489
20
-31.6675
11
85.5303
21
-31.4908
0
LINE
8
BLACK
6
CONTINUOUS
10
85.5303
20
-31.4908
11
85.5489
21
-31.314
0
LINE
8
BLACK
6
CONTINUOUS
10
85.5489
20
-31.314
11
85.6038
21
-31.145
0
LINE
8
BLACK
6
CONTINUOUS
10
85.6038
20
-31.145
11
85.6926
21
-30.9912
0
LINE
8
BLACK
6
CONTINUOUS
10
85.6926
20
-30.9912
11
85.8115
21
-30.8591
0
LINE
8
BLACK
6
CONTINUOUS
10
85.8115
20
-30.8591
11
85.9553
21
-30.7546
0
LINE
8
BLACK
6
CONTINUOUS
10
85.9553
20
-30.7546
11
86.1176
21
-30.6824
0
LINE
8
BLACK
6
CONTINUOUS
10
86.1176
20
-30.6824
11
86.2914
21
-30.6454
0
LINE
8
BLACK
6
CONTINUOUS
10
86.2914
20
-30.6454
11
86.4691
21
-30.6454
0
LINE
8
BLACK
6
CONTINUOUS
10
86.4691
20
-30.6454
11
86.643
21
-30.6824
0
LINE
8
BLACK
6
CONTINUOUS
10
89.183
20
-30.6824
11
89.3453
21
-30.7546
0
LINE
8
BLACK
6
CONTINUOUS
10
89.3453
20
-30.7546
11
89.4891
21
-30.8591
0
LINE
8
BLACK
6
CONTINUOUS
10
89.4891
20
-30.8591
11
89.608
21
-30.9912
0
LINE
8
BLACK
6
CONTINUOUS
10
89.608
20
-30.9912
11
89.6968
21
-31.145
0
LINE
8
BLACK
6
CONTINUOUS
10
89.6968
20
-31.145
11
89.7517
21
-31.314
0
LINE
8
BLACK
6
CONTINUOUS
10
89.7517
20
-31.314
11
89.7703
21
-31.4908
0
LINE
8
BLACK
6
CONTINUOUS
10
89.7703
20
-31.4908
11
89.7517
21
-31.6675
0
LINE
8
BLACK
6
CONTINUOUS
10
89.7517
20
-31.6675
11
89.6968
21
-31.8365
0
LINE
8
BLACK
6
CONTINUOUS
10
89.6968
20
-31.8365
11
89.608
21
-31.9904
0
LINE
8
BLACK
6
CONTINUOUS
10
89.608
20
-31.9904
11
89.4891
21
-32.1224
0
LINE
8
BLACK
6
CONTINUOUS
10
89.4891
20
-32.1224
11
89.3453
21
-32.2269
0
LINE
8
BLACK
6
CONTINUOUS
10
89.3453
20
-32.2269
11
89.183
21
-32.2992
0
LINE
8
BLACK
6
CONTINUOUS
10
89.183
20
-32.2992
11
89.0091
21
-32.3361
0
LINE
8
BLACK
6
CONTINUOUS
10
89.0091
20
-32.3361
11
88.8314
21
-32.3361
0
LINE
8
BLACK
6
CONTINUOUS
10
88.8314
20
-32.3361
11
88.6576
21
-32.2992
0
LINE
8
BLACK
6
CONTINUOUS
10
88.6576
20
-32.2992
11
88.4953
21
-32.2269
0
LINE
8
BLACK
6
CONTINUOUS
10
88.4953
20
-32.2269
11
88.3515
21
-32.1224
0
LINE
8
BLACK
6
CONTINUOUS
10
88.3515
20
-32.1224
11
88.2326
21
-31.9904
0
LINE
8
BLACK
6
CONTINUOUS
10
88.2326
20
-31.9904
11
88.1438
21
-31.8365
0
LINE
8
BLACK
6
CONTINUOUS
10
88.1438
20
-31.8365
11
88.0889
21
-31.6675
0
LINE
8
BLACK
6
CONTINUOUS
10
88.0889
20
-31.6675
11
88.0703
21
-31.4908
0
LINE
8
BLACK
6
CONTINUOUS
10
88.0703
20
-31.4908
11
88.0889
21
-31.314
0
LINE
8
BLACK
6
CONTINUOUS
10
88.0889
20
-31.314
11
88.1438
21
-31.145
0
LINE
8
BLACK
6
CONTINUOUS
10
88.1438
20
-31.145
11
88.2326
21
-30.9912
0
LINE
8
BLACK
6
CONTINUOUS
10
88.2326
20
-30.9912
11
88.3515
21
-30.8591
0
LINE
8
BLACK
6
CONTINUOUS
10
88.3515
20
-30.8591
11
88.4953
21
-30.7546
0
LINE
8
BLACK
6
CONTINUOUS
10
88.4953
20
-30.7546
11
88.6576
21
-30.6824
0
LINE
8
BLACK
6
CONTINUOUS
10
88.6576
20
-30.6824
11
88.8314
21
-30.6454
0
LINE
8
BLACK
6
CONTINUOUS
10
88.8314
20
-30.6454
11
89.0091
21
-30.6454
0
LINE
8
BLACK
6
CONTINUOUS
10
89.0091
20
-30.6454
11
89.183
21
-30.6824
0
LINE
8
BLACK
6
CONTINUOUS
10
91.723
20
-30.6824
11
91.8853
21
-30.7546
0
LINE
8
BLACK
6
CONTINUOUS
10
91.8853
20
-30.7546
11
92.0291
21
-30.8591
0
LINE
8
BLACK
6
CONTINUOUS
10
92.0291
20
-30.8591
11
92.148
21
-30.9912
0
LINE
8
BLACK
6
CONTINUOUS
10
92.148
20
-30.9912
11
92.2368
21
-31.145
0
LINE
8
BLACK
6
CONTINUOUS
10
92.2368
20
-31.145
11
92.2917
21
-31.314
0
LINE
8
BLACK
6
CONTINUOUS
10
92.2917
20
-31.314
11
92.3103
21
-31.4908
0
LINE
8
BLACK
6
CONTINUOUS
10
92.3103
20
-31.4908
11
92.2917
21
-31.6675
0
LINE
8
BLACK
6
CONTINUOUS
10
92.2917
20
-31.6675
11
92.2368
21
-31.8365
0
LINE
8
BLACK
6
CONTINUOUS
10
92.2368
20
-31.8365
11
92.148
21
-31.9904
0
LINE
8
BLACK
6
CONTINUOUS
10
92.148
20
-31.9904
11
92.0291
21
-32.1224
0
LINE
8
BLACK
6
CONTINUOUS
10
92.0291
20
-32.1224
11
91.8853
21
-32.2269
0
LINE
8
BLACK
6
CONTINUOUS
10
91.8853
20
-32.2269
11
91.723
21
-32.2992
0
LINE
8
BLACK
6
CONTINUOUS
10
91.723
20
-32.2992
11
91.5491
21
-32.3361
0
LINE
8
BLACK
6
CONTINUOUS
10
91.5491
20
-32.3361
11
91.3714
21
-32.3361
0
LINE
8
BLACK
6
CONTINUOUS
10
91.3714
20
-32.3361
11
91.1976
21
-32.2992
0
LINE
8
BLACK
6
CONTINUOUS
10
91.1976
20
-32.2992
11
91.0353
21
-32.2269
0
LINE
8
BLACK
6
CONTINUOUS
10
91.0353
20
-32.2269
11
90.8915
21
-32.1224
0
LINE
8
BLACK
6
CONTINUOUS
10
90.8915
20
-32.1224
11
90.7726
21
-31.9904
0
LINE
8
BLACK
6
CONTINUOUS
10
90.7726
20
-31.9904
11
90.6838
21
-31.8365
0
LINE
8
BLACK
6
CONTINUOUS
10
90.6838
20
-31.8365
11
90.6289
21
-31.6675
0
LINE
8
BLACK
6
CONTINUOUS
10
90.6289
20
-31.6675
11
90.6103
21
-31.4908
0
LINE
8
BLACK
6
CONTINUOUS
10
90.6103
20
-31.4908
11
90.6289
21
-31.314
0
LINE
8
BLACK
6
CONTINUOUS
10
90.6289
20
-31.314
11
90.6838
21
-31.145
0
LINE
8
BLACK
6
CONTINUOUS
10
90.6838
20
-31.145
11
90.7726
21
-30.9912
0
LINE
8
BLACK
6
CONTINUOUS
10
90.7726
20
-30.9912
11
90.8915
21
-30.8591
0
LINE
8
BLACK
6
CONTINUOUS
10
90.8915
20
-30.8591
11
91.0353
21
-30.7546
0
LINE
8
BLACK
6
CONTINUOUS
10
91.0353
20
-30.7546
11
91.1976
21
-30.6824
0
LINE
8
BLACK
6
CONTINUOUS
10
91.1976
20
-30.6824
11
91.3714
21
-30.6454
0
LINE
8
BLACK
6
CONTINUOUS
10
91.3714
20
-30.6454
11
91.5491
21
-30.6454
0
LINE
8
BLACK
6
CONTINUOUS
10
91.5491
20
-30.6454
11
91.723
21
-30.6824
  0
ENDSEC
  0
EOF
