  0
SECTION
  2
HEADER
  9
$ANGBASE
  50
0.0
  9
$ANGDIR
  70
1
  9
$MEASUREMENT
  70
1
  0
ENDSEC
  0
SECTION
  2
TABLES
  0
TABLE
  2
LTYPE
  70
4
  0
LTYPE
  5
40F
  2
CONTINUOUS
  70
0
  3
Solid line
  72
65
  73
0
  40
0.0
  0
LTYPE
  5
410
  2
DASHDOT
 70
0
  3
Dash Dot ____ _ ____ _
 72
65
 73
4
 40
2.0
 49
1.25
 49
-0.25
 49
0.25
 49
-0.25
  0
LTYPE
  5
411
  2
DASHED
 70
0
  3
Dashed __ __ __ __ __
 72
65
 73
2
 40
0.75
 49
0.5
 49
-0.25
  0
LTYPE
  5
43B
  2
DOTTED
 70
0
  3
Dotted .  .  .  .
 72
65
 73
2
 40
0.2
 49
0.0
 49
-0.2
  0
ENDTAB
  0
TABLE
  2
STYLE
  70
4
  0
STYLE
  2
KICAD
  70
0
  40
0
  41
1
  42
1
  50
0
  71
0
  3
isocp.shx
  0
STYLE
  2
KICADB
  70
0
  40
0
  41
1
  42
1
  50
0
  71
0
  3
isocp.shx
  0
STYLE
  2
KICADI
  70
0
  40
0
  41
1
  42
1
  50
15
  71
0
  3
isocp.shx
  0
STYLE
  2
KICADBI
  70
0
  40
0
  41
1
  42
1
  50
15
  71
0
  3
isocp.shx
  0
ENDTAB
  0
TABLE
  2
LAYER
  70
1
  0
LAYER
  2
BLACK
  70
0
  62
7
  6
CONTINUOUS
  0
ENDTAB
  0
ENDSEC
  0
SECTION
  2
ENTITIES
0
LINE
8
BLACK
6
CONTINUOUS
10
117.864
20
-38.0325
11
117.769
21
-37.9849
0
LINE
8
BLACK
6
CONTINUOUS
10
117.769
20
-37.9849
11
117.626
21
-37.9849
0
LINE
8
BLACK
6
CONTINUOUS
10
117.626
20
-37.9849
11
117.483
21
-38.0325
0
LINE
8
BLACK
6
CONTINUOUS
10
117.483
20
-38.0325
11
117.388
21
-38.1277
0
LINE
8
BLACK
6
CONTINUOUS
10
117.388
20
-38.1277
11
117.341
21
-38.223
0
LINE
8
BLACK
6
CONTINUOUS
10
117.341
20
-38.223
11
117.293
21
-38.4135
0
LINE
8
BLACK
6
CONTINUOUS
10
117.293
20
-38.4135
11
117.293
21
-38.5563
0
LINE
8
BLACK
6
CONTINUOUS
10
117.293
20
-38.5563
11
117.341
21
-38.7468
0
LINE
8
BLACK
6
CONTINUOUS
10
117.341
20
-38.7468
11
117.388
21
-38.842
0
LINE
8
BLACK
6
CONTINUOUS
10
117.388
20
-38.842
11
117.483
21
-38.9373
0
LINE
8
BLACK
6
CONTINUOUS
10
117.483
20
-38.9373
11
117.626
21
-38.9849
0
LINE
8
BLACK
6
CONTINUOUS
10
117.626
20
-38.9849
11
117.722
21
-38.9849
0
LINE
8
BLACK
6
CONTINUOUS
10
117.722
20
-38.9849
11
117.864
21
-38.9373
0
LINE
8
BLACK
6
CONTINUOUS
10
117.864
20
-38.9373
11
117.912
21
-38.8896
0
LINE
8
BLACK
6
CONTINUOUS
10
117.912
20
-38.8896
11
117.912
21
-38.5563
0
LINE
8
BLACK
6
CONTINUOUS
10
117.912
20
-38.5563
11
117.722
21
-38.5563
0
LINE
8
BLACK
6
CONTINUOUS
10
117.602
20
-37.4849
11
117.602
21
-36.4849
0
LINE
8
BLACK
6
CONTINUOUS
10
125.269
20
-36.4849
11
125.602
21
-37.4849
0
LINE
8
BLACK
6
CONTINUOUS
10
125.602
20
-37.4849
11
125.936
21
-36.4849
0
LINE
8
BLACK
6
CONTINUOUS
10
125.507
20
-37.9849
11
125.698
21
-37.9849
0
LINE
8
BLACK
6
CONTINUOUS
10
125.698
20
-37.9849
11
125.793
21
-38.0325
0
LINE
8
BLACK
6
CONTINUOUS
10
125.793
20
-38.0325
11
125.888
21
-38.1277
0
LINE
8
BLACK
6
CONTINUOUS
10
125.888
20
-38.1277
11
125.936
21
-38.3182
0
LINE
8
BLACK
6
CONTINUOUS
10
125.936
20
-38.3182
11
125.936
21
-38.6515
0
LINE
8
BLACK
6
CONTINUOUS
10
125.936
20
-38.6515
11
125.888
21
-38.842
0
LINE
8
BLACK
6
CONTINUOUS
10
125.888
20
-38.842
11
125.793
21
-38.9373
0
LINE
8
BLACK
6
CONTINUOUS
10
125.793
20
-38.9373
11
125.698
21
-38.9849
0
LINE
8
BLACK
6
CONTINUOUS
10
125.698
20
-38.9849
11
125.507
21
-38.9849
0
LINE
8
BLACK
6
CONTINUOUS
10
125.507
20
-38.9849
11
125.412
21
-38.9373
0
LINE
8
BLACK
6
CONTINUOUS
10
125.412
20
-38.9373
11
125.317
21
-38.842
0
LINE
8
BLACK
6
CONTINUOUS
10
125.317
20
-38.842
11
125.269
21
-38.6515
0
LINE
8
BLACK
6
CONTINUOUS
10
125.269
20
-38.6515
11
125.269
21
-38.3182
0
LINE
8
BLACK
6
CONTINUOUS
10
125.269
20
-38.3182
11
125.317
21
-38.1277
0
LINE
8
BLACK
6
CONTINUOUS
10
125.317
20
-38.1277
11
125.412
21
-38.0325
0
LINE
8
BLACK
6
CONTINUOUS
10
125.412
20
-38.0325
11
125.507
21
-37.9849
0
LINE
8
BLACK
6
CONTINUOUS
10
39.34
20
-81.0974
11
39.34
21
-80.0974
0
LINE
8
BLACK
6
CONTINUOUS
10
47.0067
20
-80.0974
11
47.34
21
-81.0974
0
LINE
8
BLACK
6
CONTINUOUS
10
47.34
20
-81.0974
11
47.6733
21
-80.0974
0
LINE
8
BLACK
6
CONTINUOUS
10
47.2448
20
-81.5974
11
47.4352
21
-81.5974
0
LINE
8
BLACK
6
CONTINUOUS
10
47.4352
20
-81.5974
11
47.5305
21
-81.645
0
LINE
8
BLACK
6
CONTINUOUS
10
47.5305
20
-81.645
11
47.6257
21
-81.7402
0
LINE
8
BLACK
6
CONTINUOUS
10
47.6257
20
-81.7402
11
47.6733
21
-81.9307
0
LINE
8
BLACK
6
CONTINUOUS
10
47.6733
20
-81.9307
11
47.6733
21
-82.264
0
LINE
8
BLACK
6
CONTINUOUS
10
47.6733
20
-82.264
11
47.6257
21
-82.4545
0
LINE
8
BLACK
6
CONTINUOUS
10
47.6257
20
-82.4545
11
47.5305
21
-82.5498
0
LINE
8
BLACK
6
CONTINUOUS
10
47.5305
20
-82.5498
11
47.4352
21
-82.5974
0
LINE
8
BLACK
6
CONTINUOUS
10
47.4352
20
-82.5974
11
47.2448
21
-82.5974
0
LINE
8
BLACK
6
CONTINUOUS
10
47.2448
20
-82.5974
11
47.1495
21
-82.5498
0
LINE
8
BLACK
6
CONTINUOUS
10
47.1495
20
-82.5498
11
47.0543
21
-82.4545
0
LINE
8
BLACK
6
CONTINUOUS
10
47.0543
20
-82.4545
11
47.0067
21
-82.264
0
LINE
8
BLACK
6
CONTINUOUS
10
47.0067
20
-82.264
11
47.0067
21
-81.9307
0
LINE
8
BLACK
6
CONTINUOUS
10
47.0067
20
-81.9307
11
47.0543
21
-81.7402
0
LINE
8
BLACK
6
CONTINUOUS
10
47.0543
20
-81.7402
11
47.1495
21
-81.645
0
LINE
8
BLACK
6
CONTINUOUS
10
47.1495
20
-81.645
11
47.2448
21
-81.5974
0
LINE
8
BLACK
6
CONTINUOUS
10
39.6019
20
-81.645
11
39.5067
21
-81.5974
0
LINE
8
BLACK
6
CONTINUOUS
10
39.5067
20
-81.5974
11
39.3638
21
-81.5974
0
LINE
8
BLACK
6
CONTINUOUS
10
39.3638
20
-81.5974
11
39.221
21
-81.645
0
LINE
8
BLACK
6
CONTINUOUS
10
39.221
20
-81.645
11
39.1257
21
-81.7402
0
LINE
8
BLACK
6
CONTINUOUS
10
39.1257
20
-81.7402
11
39.0781
21
-81.8355
0
LINE
8
BLACK
6
CONTINUOUS
10
39.0781
20
-81.8355
11
39.0305
21
-82.026
0
LINE
8
BLACK
6
CONTINUOUS
10
39.0305
20
-82.026
11
39.0305
21
-82.1688
0
LINE
8
BLACK
6
CONTINUOUS
10
39.0305
20
-82.1688
11
39.0781
21
-82.3593
0
LINE
8
BLACK
6
CONTINUOUS
10
39.0781
20
-82.3593
11
39.1257
21
-82.4545
0
LINE
8
BLACK
6
CONTINUOUS
10
39.1257
20
-82.4545
11
39.221
21
-82.5498
0
LINE
8
BLACK
6
CONTINUOUS
10
39.221
20
-82.5498
11
39.3638
21
-82.5974
0
LINE
8
BLACK
6
CONTINUOUS
10
39.3638
20
-82.5974
11
39.459
21
-82.5974
0
LINE
8
BLACK
6
CONTINUOUS
10
39.459
20
-82.5974
11
39.6019
21
-82.5498
0
LINE
8
BLACK
6
CONTINUOUS
10
39.6019
20
-82.5498
11
39.6495
21
-82.5021
0
LINE
8
BLACK
6
CONTINUOUS
10
39.6495
20
-82.5021
11
39.6495
21
-82.1688
0
LINE
8
BLACK
6
CONTINUOUS
10
39.6495
20
-82.1688
11
39.459
21
-82.1688
0
LINE
8
BLACK
6
CONTINUOUS
10
70.5004
20
-119.829
11
70.8337
21
-120.829
0
LINE
8
BLACK
6
CONTINUOUS
10
70.8337
20
-120.829
11
71.1671
21
-119.829
0
LINE
8
BLACK
6
CONTINUOUS
10
63.0957
20
-121.376
11
63.0004
21
-121.329
0
LINE
8
BLACK
6
CONTINUOUS
10
63.0004
20
-121.329
11
62.8576
21
-121.329
0
LINE
8
BLACK
6
CONTINUOUS
10
62.8576
20
-121.329
11
62.7147
21
-121.376
0
LINE
8
BLACK
6
CONTINUOUS
10
62.7147
20
-121.376
11
62.6195
21
-121.471
0
LINE
8
BLACK
6
CONTINUOUS
10
62.6195
20
-121.471
11
62.5718
21
-121.567
0
LINE
8
BLACK
6
CONTINUOUS
10
62.5718
20
-121.567
11
62.5242
21
-121.757
0
LINE
8
BLACK
6
CONTINUOUS
10
62.5242
20
-121.757
11
62.5242
21
-121.9
0
LINE
8
BLACK
6
CONTINUOUS
10
62.5242
20
-121.9
11
62.5718
21
-122.091
0
LINE
8
BLACK
6
CONTINUOUS
10
62.5718
20
-122.091
11
62.6195
21
-122.186
0
LINE
8
BLACK
6
CONTINUOUS
10
62.6195
20
-122.186
11
62.7147
21
-122.281
0
LINE
8
BLACK
6
CONTINUOUS
10
62.7147
20
-122.281
11
62.8576
21
-122.329
0
LINE
8
BLACK
6
CONTINUOUS
10
62.8576
20
-122.329
11
62.9528
21
-122.329
0
LINE
8
BLACK
6
CONTINUOUS
10
62.9528
20
-122.329
11
63.0957
21
-122.281
0
LINE
8
BLACK
6
CONTINUOUS
10
63.0957
20
-122.281
11
63.1433
21
-122.233
0
LINE
8
BLACK
6
CONTINUOUS
10
63.1433
20
-122.233
11
63.1433
21
-121.9
0
LINE
8
BLACK
6
CONTINUOUS
10
63.1433
20
-121.9
11
62.9528
21
-121.9
0
LINE
8
BLACK
6
CONTINUOUS
10
70.7385
20
-121.329
11
70.929
21
-121.329
0
LINE
8
BLACK
6
CONTINUOUS
10
70.929
20
-121.329
11
71.0242
21
-121.376
0
LINE
8
BLACK
6
CONTINUOUS
10
71.0242
20
-121.376
11
71.1195
21
-121.471
0
LINE
8
BLACK
6
CONTINUOUS
10
71.1195
20
-121.471
11
71.1671
21
-121.662
0
LINE
8
BLACK
6
CONTINUOUS
10
71.1671
20
-121.662
11
71.1671
21
-121.995
0
LINE
8
BLACK
6
CONTINUOUS
10
71.1671
20
-121.995
11
71.1195
21
-122.186
0
LINE
8
BLACK
6
CONTINUOUS
10
71.1195
20
-122.186
11
71.0242
21
-122.281
0
LINE
8
BLACK
6
CONTINUOUS
10
71.0242
20
-122.281
11
70.929
21
-122.329
0
LINE
8
BLACK
6
CONTINUOUS
10
70.929
20
-122.329
11
70.7385
21
-122.329
0
LINE
8
BLACK
6
CONTINUOUS
10
70.7385
20
-122.329
11
70.6433
21
-122.281
0
LINE
8
BLACK
6
CONTINUOUS
10
70.6433
20
-122.281
11
70.548
21
-122.186
0
LINE
8
BLACK
6
CONTINUOUS
10
70.548
20
-122.186
11
70.5004
21
-121.995
0
LINE
8
BLACK
6
CONTINUOUS
10
70.5004
20
-121.995
11
70.5004
21
-121.662
0
LINE
8
BLACK
6
CONTINUOUS
10
70.5004
20
-121.662
11
70.548
21
-121.471
0
LINE
8
BLACK
6
CONTINUOUS
10
70.548
20
-121.471
11
70.6433
21
-121.376
0
LINE
8
BLACK
6
CONTINUOUS
10
70.6433
20
-121.376
11
70.7385
21
-121.329
0
LINE
8
BLACK
6
CONTINUOUS
10
62.8337
20
-120.829
11
62.8337
21
-119.829
0
LINE
8
BLACK
6
CONTINUOUS
10
65.215
20
-35.1036
11
65.215
21
-34.1036
0
LINE
8
BLACK
6
CONTINUOUS
10
72.8817
20
-34.1036
11
73.215
21
-35.1036
0
LINE
8
BLACK
6
CONTINUOUS
10
73.215
20
-35.1036
11
73.5483
21
-34.1036
0
LINE
8
BLACK
6
CONTINUOUS
10
73.1198
20
-35.6036
11
73.3102
21
-35.6036
0
LINE
8
BLACK
6
CONTINUOUS
10
73.3102
20
-35.6036
11
73.4055
21
-35.6512
0
LINE
8
BLACK
6
CONTINUOUS
10
73.4055
20
-35.6512
11
73.5007
21
-35.7465
0
LINE
8
BLACK
6
CONTINUOUS
10
73.5007
20
-35.7465
11
73.5483
21
-35.937
0
LINE
8
BLACK
6
CONTINUOUS
10
73.5483
20
-35.937
11
73.5483
21
-36.2703
0
LINE
8
BLACK
6
CONTINUOUS
10
73.5483
20
-36.2703
11
73.5007
21
-36.4608
0
LINE
8
BLACK
6
CONTINUOUS
10
73.5007
20
-36.4608
11
73.4055
21
-36.556
0
LINE
8
BLACK
6
CONTINUOUS
10
73.4055
20
-36.556
11
73.3102
21
-36.6036
0
LINE
8
BLACK
6
CONTINUOUS
10
73.3102
20
-36.6036
11
73.1198
21
-36.6036
0
LINE
8
BLACK
6
CONTINUOUS
10
73.1198
20
-36.6036
11
73.0245
21
-36.556
0
LINE
8
BLACK
6
CONTINUOUS
10
73.0245
20
-36.556
11
72.9293
21
-36.4608
0
LINE
8
BLACK
6
CONTINUOUS
10
72.9293
20
-36.4608
11
72.8817
21
-36.2703
0
LINE
8
BLACK
6
CONTINUOUS
10
72.8817
20
-36.2703
11
72.8817
21
-35.937
0
LINE
8
BLACK
6
CONTINUOUS
10
72.8817
20
-35.937
11
72.9293
21
-35.7465
0
LINE
8
BLACK
6
CONTINUOUS
10
72.9293
20
-35.7465
11
73.0245
21
-35.6512
0
LINE
8
BLACK
6
CONTINUOUS
10
73.0245
20
-35.6512
11
73.1198
21
-35.6036
0
LINE
8
BLACK
6
CONTINUOUS
10
65.4769
20
-35.6512
11
65.3817
21
-35.6036
0
LINE
8
BLACK
6
CONTINUOUS
10
65.3817
20
-35.6036
11
65.2388
21
-35.6036
0
LINE
8
BLACK
6
CONTINUOUS
10
65.2388
20
-35.6036
11
65.096
21
-35.6512
0
LINE
8
BLACK
6
CONTINUOUS
10
65.096
20
-35.6512
11
65.0007
21
-35.7465
0
LINE
8
BLACK
6
CONTINUOUS
10
65.0007
20
-35.7465
11
64.9531
21
-35.8417
0
LINE
8
BLACK
6
CONTINUOUS
10
64.9531
20
-35.8417
11
64.9055
21
-36.0322
0
LINE
8
BLACK
6
CONTINUOUS
10
64.9055
20
-36.0322
11
64.9055
21
-36.1751
0
LINE
8
BLACK
6
CONTINUOUS
10
64.9055
20
-36.1751
11
64.9531
21
-36.3655
0
LINE
8
BLACK
6
CONTINUOUS
10
64.9531
20
-36.3655
11
65.0007
21
-36.4608
0
LINE
8
BLACK
6
CONTINUOUS
10
65.0007
20
-36.4608
11
65.096
21
-36.556
0
LINE
8
BLACK
6
CONTINUOUS
10
65.096
20
-36.556
11
65.2388
21
-36.6036
0
LINE
8
BLACK
6
CONTINUOUS
10
65.2388
20
-36.6036
11
65.334
21
-36.6036
0
LINE
8
BLACK
6
CONTINUOUS
10
65.334
20
-36.6036
11
65.4769
21
-36.556
0
LINE
8
BLACK
6
CONTINUOUS
10
65.4769
20
-36.556
11
65.5245
21
-36.5084
0
LINE
8
BLACK
6
CONTINUOUS
10
65.5245
20
-36.5084
11
65.5245
21
-36.1751
0
LINE
8
BLACK
6
CONTINUOUS
10
65.5245
20
-36.1751
11
65.334
21
-36.1751
0
LINE
8
BLACK
6
CONTINUOUS
10
139.034
20
-80.3474
11
139.034
21
-79.3474
0
LINE
8
BLACK
6
CONTINUOUS
10
146.7
20
-79.3474
11
147.034
21
-80.3474
0
LINE
8
BLACK
6
CONTINUOUS
10
147.034
20
-80.3474
11
147.367
21
-79.3474
0
LINE
8
BLACK
6
CONTINUOUS
10
139.296
20
-80.895
11
139.2
21
-80.8474
0
LINE
8
BLACK
6
CONTINUOUS
10
139.2
20
-80.8474
11
139.058
21
-80.8474
0
LINE
8
BLACK
6
CONTINUOUS
10
139.058
20
-80.8474
11
138.915
21
-80.895
0
LINE
8
BLACK
6
CONTINUOUS
10
138.915
20
-80.895
11
138.819
21
-80.9902
0
LINE
8
BLACK
6
CONTINUOUS
10
138.819
20
-80.9902
11
138.772
21
-81.0855
0
LINE
8
BLACK
6
CONTINUOUS
10
138.772
20
-81.0855
11
138.724
21
-81.276
0
LINE
8
BLACK
6
CONTINUOUS
10
138.724
20
-81.276
11
138.724
21
-81.4188
0
LINE
8
BLACK
6
CONTINUOUS
10
138.724
20
-81.4188
11
138.772
21
-81.6093
0
LINE
8
BLACK
6
CONTINUOUS
10
138.772
20
-81.6093
11
138.819
21
-81.7045
0
LINE
8
BLACK
6
CONTINUOUS
10
138.819
20
-81.7045
11
138.915
21
-81.7998
0
LINE
8
BLACK
6
CONTINUOUS
10
138.915
20
-81.7998
11
139.058
21
-81.8474
0
LINE
8
BLACK
6
CONTINUOUS
10
139.058
20
-81.8474
11
139.153
21
-81.8474
0
LINE
8
BLACK
6
CONTINUOUS
10
139.153
20
-81.8474
11
139.296
21
-81.7998
0
LINE
8
BLACK
6
CONTINUOUS
10
139.296
20
-81.7998
11
139.343
21
-81.7521
0
LINE
8
BLACK
6
CONTINUOUS
10
139.343
20
-81.7521
11
139.343
21
-81.4188
0
LINE
8
BLACK
6
CONTINUOUS
10
139.343
20
-81.4188
11
139.153
21
-81.4188
0
LINE
8
BLACK
6
CONTINUOUS
10
146.939
20
-80.8474
11
147.129
21
-80.8474
0
LINE
8
BLACK
6
CONTINUOUS
10
147.129
20
-80.8474
11
147.224
21
-80.895
0
LINE
8
BLACK
6
CONTINUOUS
10
147.224
20
-80.895
11
147.319
21
-80.9902
0
LINE
8
BLACK
6
CONTINUOUS
10
147.319
20
-80.9902
11
147.367
21
-81.1807
0
LINE
8
BLACK
6
CONTINUOUS
10
147.367
20
-81.1807
11
147.367
21
-81.514
0
LINE
8
BLACK
6
CONTINUOUS
10
147.367
20
-81.514
11
147.319
21
-81.7045
0
LINE
8
BLACK
6
CONTINUOUS
10
147.319
20
-81.7045
11
147.224
21
-81.7998
0
LINE
8
BLACK
6
CONTINUOUS
10
147.224
20
-81.7998
11
147.129
21
-81.8474
0
LINE
8
BLACK
6
CONTINUOUS
10
147.129
20
-81.8474
11
146.939
21
-81.8474
0
LINE
8
BLACK
6
CONTINUOUS
10
146.939
20
-81.8474
11
146.843
21
-81.7998
0
LINE
8
BLACK
6
CONTINUOUS
10
146.843
20
-81.7998
11
146.748
21
-81.7045
0
LINE
8
BLACK
6
CONTINUOUS
10
146.748
20
-81.7045
11
146.7
21
-81.514
0
LINE
8
BLACK
6
CONTINUOUS
10
146.7
20
-81.514
11
146.7
21
-81.1807
0
LINE
8
BLACK
6
CONTINUOUS
10
146.7
20
-81.1807
11
146.748
21
-80.9902
0
LINE
8
BLACK
6
CONTINUOUS
10
146.748
20
-80.9902
11
146.843
21
-80.895
0
LINE
8
BLACK
6
CONTINUOUS
10
146.843
20
-80.895
11
146.939
21
-80.8474
0
LINE
8
BLACK
6
CONTINUOUS
10
117.864
20
-121.376
11
117.769
21
-121.329
0
LINE
8
BLACK
6
CONTINUOUS
10
117.769
20
-121.329
11
117.626
21
-121.329
0
LINE
8
BLACK
6
CONTINUOUS
10
117.626
20
-121.329
11
117.483
21
-121.376
0
LINE
8
BLACK
6
CONTINUOUS
10
117.483
20
-121.376
11
117.388
21
-121.471
0
LINE
8
BLACK
6
CONTINUOUS
10
117.388
20
-121.471
11
117.341
21
-121.567
0
LINE
8
BLACK
6
CONTINUOUS
10
117.341
20
-121.567
11
117.293
21
-121.757
0
LINE
8
BLACK
6
CONTINUOUS
10
117.293
20
-121.757
11
117.293
21
-121.9
0
LINE
8
BLACK
6
CONTINUOUS
10
117.293
20
-121.9
11
117.341
21
-122.091
0
LINE
8
BLACK
6
CONTINUOUS
10
117.341
20
-122.091
11
117.388
21
-122.186
0
LINE
8
BLACK
6
CONTINUOUS
10
117.388
20
-122.186
11
117.483
21
-122.281
0
LINE
8
BLACK
6
CONTINUOUS
10
117.483
20
-122.281
11
117.626
21
-122.329
0
LINE
8
BLACK
6
CONTINUOUS
10
117.626
20
-122.329
11
117.722
21
-122.329
0
LINE
8
BLACK
6
CONTINUOUS
10
117.722
20
-122.329
11
117.864
21
-122.281
0
LINE
8
BLACK
6
CONTINUOUS
10
117.864
20
-122.281
11
117.912
21
-122.233
0
LINE
8
BLACK
6
CONTINUOUS
10
117.912
20
-122.233
11
117.912
21
-121.9
0
LINE
8
BLACK
6
CONTINUOUS
10
117.912
20
-121.9
11
117.722
21
-121.9
0
LINE
8
BLACK
6
CONTINUOUS
10
117.602
20
-120.829
11
117.602
21
-119.829
0
LINE
8
BLACK
6
CONTINUOUS
10
125.269
20
-119.829
11
125.602
21
-120.829
0
LINE
8
BLACK
6
CONTINUOUS
10
125.602
20
-120.829
11
125.936
21
-119.829
0
LINE
8
BLACK
6
CONTINUOUS
10
125.507
20
-121.329
11
125.698
21
-121.329
0
LINE
8
BLACK
6
CONTINUOUS
10
125.698
20
-121.329
11
125.793
21
-121.376
0
LINE
8
BLACK
6
CONTINUOUS
10
125.793
20
-121.376
11
125.888
21
-121.471
0
LINE
8
BLACK
6
CONTINUOUS
10
125.888
20
-121.471
11
125.936
21
-121.662
0
LINE
8
BLACK
6
CONTINUOUS
10
125.936
20
-121.662
11
125.936
21
-121.995
0
LINE
8
BLACK
6
CONTINUOUS
10
125.936
20
-121.995
11
125.888
21
-122.186
0
LINE
8
BLACK
6
CONTINUOUS
10
125.888
20
-122.186
11
125.793
21
-122.281
0
LINE
8
BLACK
6
CONTINUOUS
10
125.793
20
-122.281
11
125.698
21
-122.329
0
LINE
8
BLACK
6
CONTINUOUS
10
125.698
20
-122.329
11
125.507
21
-122.329
0
LINE
8
BLACK
6
CONTINUOUS
10
125.507
20
-122.329
11
125.412
21
-122.281
0
LINE
8
BLACK
6
CONTINUOUS
10
125.412
20
-122.281
11
125.317
21
-122.186
0
LINE
8
BLACK
6
CONTINUOUS
10
125.317
20
-122.186
11
125.269
21
-121.995
0
LINE
8
BLACK
6
CONTINUOUS
10
125.269
20
-121.995
11
125.269
21
-121.662
0
LINE
8
BLACK
6
CONTINUOUS
10
125.269
20
-121.662
11
125.317
21
-121.471
0
LINE
8
BLACK
6
CONTINUOUS
10
125.317
20
-121.471
11
125.412
21
-121.376
0
LINE
8
BLACK
6
CONTINUOUS
10
125.412
20
-121.376
11
125.507
21
-121.329
0
LINE
8
BLACK
6
CONTINUOUS
10
64.2938
20
-66.675
11
83.3438
21
-66.675
0
LINE
8
BLACK
6
CONTINUOUS
10
83.3438
20
-66.675
11
83.3438
21
-85.725
0
LINE
8
BLACK
6
CONTINUOUS
10
83.3438
20
-85.725
11
64.2938
21
-85.725
0
LINE
8
BLACK
6
CONTINUOUS
10
64.2938
20
-85.725
11
64.2938
21
-66.675
0
LINE
8
BLACK
6
CONTINUOUS
10
64.2938
20
-47.625
11
83.3438
21
-47.625
0
LINE
8
BLACK
6
CONTINUOUS
10
83.3438
20
-47.625
11
83.3438
21
-66.675
0
LINE
8
BLACK
6
CONTINUOUS
10
83.3438
20
-66.675
11
64.2938
21
-66.675
0
LINE
8
BLACK
6
CONTINUOUS
10
64.2938
20
-66.675
11
64.2938
21
-47.625
0
LINE
8
BLACK
6
CONTINUOUS
10
83.3438
20
-85.725
11
102.394
21
-85.725
0
LINE
8
BLACK
6
CONTINUOUS
10
102.394
20
-85.725
11
102.394
21
-104.775
0
LINE
8
BLACK
6
CONTINUOUS
10
102.394
20
-104.775
11
83.3438
21
-104.775
0
LINE
8
BLACK
6
CONTINUOUS
10
83.3438
20
-104.775
11
83.3438
21
-85.725
0
LINE
8
BLACK
6
CONTINUOUS
10
102.394
20
-47.625
11
121.444
21
-47.625
0
LINE
8
BLACK
6
CONTINUOUS
10
121.444
20
-47.625
11
121.444
21
-66.675
0
LINE
8
BLACK
6
CONTINUOUS
10
121.444
20
-66.675
11
102.394
21
-66.675
0
LINE
8
BLACK
6
CONTINUOUS
10
102.394
20
-66.675
11
102.394
21
-47.625
0
LINE
8
BLACK
6
CONTINUOUS
10
102.394
20
-85.725
11
121.444
21
-85.725
0
LINE
8
BLACK
6
CONTINUOUS
10
121.444
20
-85.725
11
121.444
21
-104.775
0
LINE
8
BLACK
6
CONTINUOUS
10
121.444
20
-104.775
11
102.394
21
-104.775
0
LINE
8
BLACK
6
CONTINUOUS
10
102.394
20
-104.775
11
102.394
21
-85.725
0
LINE
8
BLACK
6
CONTINUOUS
10
83.3438
20
-66.675
11
102.394
21
-66.675
0
LINE
8
BLACK
6
CONTINUOUS
10
102.394
20
-66.675
11
102.394
21
-85.725
0
LINE
8
BLACK
6
CONTINUOUS
10
102.394
20
-85.725
11
83.3438
21
-85.725
0
LINE
8
BLACK
6
CONTINUOUS
10
83.3438
20
-85.725
11
83.3438
21
-66.675
0
LINE
8
BLACK
6
CONTINUOUS
10
102.394
20
-66.675
11
121.444
21
-66.675
0
LINE
8
BLACK
6
CONTINUOUS
10
121.444
20
-66.675
11
121.444
21
-85.725
0
LINE
8
BLACK
6
CONTINUOUS
10
121.444
20
-85.725
11
102.394
21
-85.725
0
LINE
8
BLACK
6
CONTINUOUS
10
102.394
20
-85.725
11
102.394
21
-66.675
0
LINE
8
BLACK
6
CONTINUOUS
10
83.3438
20
-47.625
11
102.394
21
-47.625
0
LINE
8
BLACK
6
CONTINUOUS
10
102.394
20
-47.625
11
102.394
21
-66.675
0
LINE
8
BLACK
6
CONTINUOUS
10
102.394
20
-66.675
11
83.3438
21
-66.675
0
LINE
8
BLACK
6
CONTINUOUS
10
83.3438
20
-66.675
11
83.3438
21
-47.625
0
LINE
8
BLACK
6
CONTINUOUS
10
64.2938
20
-85.725
11
83.3438
21
-85.725
0
LINE
8
BLACK
6
CONTINUOUS
10
83.3438
20
-85.725
11
83.3438
21
-104.775
0
LINE
8
BLACK
6
CONTINUOUS
10
83.3438
20
-104.775
11
64.2938
21
-104.775
0
LINE
8
BLACK
6
CONTINUOUS
10
64.2938
20
-104.775
11
64.2938
21
-85.725
  0
ENDSEC
  0
EOF
