  0
SECTION
  2
HEADER
  9
$ANGBASE
  50
0.0
  9
$ANGDIR
  70
1
  9
$MEASUREMENT
  70
1
  0
ENDSEC
  0
SECTION
  2
TABLES
  0
TABLE
  2
LTYPE
  70
4
  0
LTYPE
  5
40F
  2
CONTINUOUS
  70
0
  3
Solid line
  72
65
  73
0
  40
0.0
  0
LTYPE
  5
410
  2
DASHDOT
 70
0
  3
Dash Dot ____ _ ____ _
 72
65
 73
4
 40
2.0
 49
1.25
 49
-0.25
 49
0.25
 49
-0.25
  0
LTYPE
  5
411
  2
DASHED
 70
0
  3
Dashed __ __ __ __ __
 72
65
 73
2
 40
0.75
 49
0.5
 49
-0.25
  0
LTYPE
  5
43B
  2
DOTTED
 70
0
  3
Dotted .  .  .  .
 72
65
 73
2
 40
0.2
 49
0.0
 49
-0.2
  0
ENDTAB
  0
TABLE
  2
STYLE
  70
4
  0
STYLE
  2
KICAD
  70
0
  40
0
  41
1
  42
1
  50
0
  71
0
  3
isocp.shx
  0
STYLE
  2
KICADB
  70
0
  40
0
  41
1
  42
1
  50
0
  71
0
  3
isocp.shx
  0
STYLE
  2
KICADI
  70
0
  40
0
  41
1
  42
1
  50
15
  71
0
  3
isocp.shx
  0
STYLE
  2
KICADBI
  70
0
  40
0
  41
1
  42
1
  50
15
  71
0
  3
isocp.shx
  0
ENDTAB
  0
TABLE
  2
LAYER
  70
1
  0
LAYER
  2
BLACK
  70
0
  62
7
  6
CONTINUOUS
  0
ENDTAB
  0
ENDSEC
  0
SECTION
  2
ENTITIES
0
LINE
8
BLACK
6
CONTINUOUS
10
75.1521
20
-82.6048
11
75.0092
21
-82.6524
0
LINE
8
BLACK
6
CONTINUOUS
10
75.0092
20
-82.6524
11
74.7711
21
-82.6524
0
LINE
8
BLACK
6
CONTINUOUS
10
74.7711
20
-82.6524
11
74.6759
21
-82.6048
0
LINE
8
BLACK
6
CONTINUOUS
10
74.6759
20
-82.6048
11
74.6283
21
-82.5571
0
LINE
8
BLACK
6
CONTINUOUS
10
74.6283
20
-82.5571
11
74.5807
21
-82.4619
0
LINE
8
BLACK
6
CONTINUOUS
10
74.5807
20
-82.4619
11
74.5807
21
-82.3667
0
LINE
8
BLACK
6
CONTINUOUS
10
74.5807
20
-82.3667
11
74.6283
21
-82.2714
0
LINE
8
BLACK
6
CONTINUOUS
10
74.6283
20
-82.2714
11
74.6759
21
-82.2238
0
LINE
8
BLACK
6
CONTINUOUS
10
74.6759
20
-82.2238
11
74.7711
21
-82.1762
0
LINE
8
BLACK
6
CONTINUOUS
10
74.7711
20
-82.1762
11
74.9616
21
-82.1286
0
LINE
8
BLACK
6
CONTINUOUS
10
74.9616
20
-82.1286
11
75.0568
21
-82.081
0
LINE
8
BLACK
6
CONTINUOUS
10
75.0568
20
-82.081
11
75.1045
21
-82.0333
0
LINE
8
BLACK
6
CONTINUOUS
10
75.1045
20
-82.0333
11
75.1521
21
-81.9381
0
LINE
8
BLACK
6
CONTINUOUS
10
75.1521
20
-81.9381
11
75.1521
21
-81.8429
0
LINE
8
BLACK
6
CONTINUOUS
10
75.1521
20
-81.8429
11
75.1045
21
-81.7476
0
LINE
8
BLACK
6
CONTINUOUS
10
75.1045
20
-81.7476
11
75.0568
21
-81.7
0
LINE
8
BLACK
6
CONTINUOUS
10
75.0568
20
-81.7
11
74.9616
21
-81.6524
0
LINE
8
BLACK
6
CONTINUOUS
10
74.9616
20
-81.6524
11
74.7235
21
-81.6524
0
LINE
8
BLACK
6
CONTINUOUS
10
74.7235
20
-81.6524
11
74.5807
21
-81.7
0
LINE
8
BLACK
6
CONTINUOUS
10
74.2473
20
-81.6524
11
74.0092
21
-82.6524
0
LINE
8
BLACK
6
CONTINUOUS
10
74.0092
20
-82.6524
11
73.8187
21
-81.9381
0
LINE
8
BLACK
6
CONTINUOUS
10
73.8187
20
-81.9381
11
73.6283
21
-82.6524
0
LINE
8
BLACK
6
CONTINUOUS
10
73.6283
20
-82.6524
11
73.3902
21
-81.6524
0
LINE
8
BLACK
6
CONTINUOUS
10
72.5807
20
-81.9857
11
72.5807
21
-82.6524
0
LINE
8
BLACK
6
CONTINUOUS
10
72.8187
20
-81.6048
11
73.0568
21
-82.319
0
LINE
8
BLACK
6
CONTINUOUS
10
73.0568
20
-82.319
11
72.4378
21
-82.319
0
LINE
8
BLACK
6
CONTINUOUS
10
75.1521
20
-63.5548
11
75.0092
21
-63.6024
0
LINE
8
BLACK
6
CONTINUOUS
10
75.0092
20
-63.6024
11
74.7711
21
-63.6024
0
LINE
8
BLACK
6
CONTINUOUS
10
74.7711
20
-63.6024
11
74.6759
21
-63.5548
0
LINE
8
BLACK
6
CONTINUOUS
10
74.6759
20
-63.5548
11
74.6283
21
-63.5071
0
LINE
8
BLACK
6
CONTINUOUS
10
74.6283
20
-63.5071
11
74.5807
21
-63.4119
0
LINE
8
BLACK
6
CONTINUOUS
10
74.5807
20
-63.4119
11
74.5807
21
-63.3167
0
LINE
8
BLACK
6
CONTINUOUS
10
74.5807
20
-63.3167
11
74.6283
21
-63.2214
0
LINE
8
BLACK
6
CONTINUOUS
10
74.6283
20
-63.2214
11
74.6759
21
-63.1738
0
LINE
8
BLACK
6
CONTINUOUS
10
74.6759
20
-63.1738
11
74.7711
21
-63.1262
0
LINE
8
BLACK
6
CONTINUOUS
10
74.7711
20
-63.1262
11
74.9616
21
-63.0786
0
LINE
8
BLACK
6
CONTINUOUS
10
74.9616
20
-63.0786
11
75.0568
21
-63.031
0
LINE
8
BLACK
6
CONTINUOUS
10
75.0568
20
-63.031
11
75.1045
21
-62.9833
0
LINE
8
BLACK
6
CONTINUOUS
10
75.1045
20
-62.9833
11
75.1521
21
-62.8881
0
LINE
8
BLACK
6
CONTINUOUS
10
75.1521
20
-62.8881
11
75.1521
21
-62.7929
0
LINE
8
BLACK
6
CONTINUOUS
10
75.1521
20
-62.7929
11
75.1045
21
-62.6976
0
LINE
8
BLACK
6
CONTINUOUS
10
75.1045
20
-62.6976
11
75.0568
21
-62.65
0
LINE
8
BLACK
6
CONTINUOUS
10
75.0568
20
-62.65
11
74.9616
21
-62.6024
0
LINE
8
BLACK
6
CONTINUOUS
10
74.9616
20
-62.6024
11
74.7235
21
-62.6024
0
LINE
8
BLACK
6
CONTINUOUS
10
74.7235
20
-62.6024
11
74.5807
21
-62.65
0
LINE
8
BLACK
6
CONTINUOUS
10
74.2473
20
-62.6024
11
74.0092
21
-63.6024
0
LINE
8
BLACK
6
CONTINUOUS
10
74.0092
20
-63.6024
11
73.8187
21
-62.8881
0
LINE
8
BLACK
6
CONTINUOUS
10
73.8187
20
-62.8881
11
73.6283
21
-63.6024
0
LINE
8
BLACK
6
CONTINUOUS
10
73.6283
20
-63.6024
11
73.3902
21
-62.6024
0
LINE
8
BLACK
6
CONTINUOUS
10
72.4854
20
-63.6024
11
73.0568
21
-63.6024
0
LINE
8
BLACK
6
CONTINUOUS
10
72.7711
20
-63.6024
11
72.7711
21
-62.6024
0
LINE
8
BLACK
6
CONTINUOUS
10
72.7711
20
-62.6024
11
72.8664
21
-62.7452
0
LINE
8
BLACK
6
CONTINUOUS
10
72.8664
20
-62.7452
11
72.9616
21
-62.8405
0
LINE
8
BLACK
6
CONTINUOUS
10
72.9616
20
-62.8405
11
73.0568
21
-62.8881
0
LINE
8
BLACK
6
CONTINUOUS
10
94.2021
20
-101.655
11
94.0592
21
-101.702
0
LINE
8
BLACK
6
CONTINUOUS
10
94.0592
20
-101.702
11
93.8211
21
-101.702
0
LINE
8
BLACK
6
CONTINUOUS
10
93.8211
20
-101.702
11
93.7259
21
-101.655
0
LINE
8
BLACK
6
CONTINUOUS
10
93.7259
20
-101.655
11
93.6783
21
-101.607
0
LINE
8
BLACK
6
CONTINUOUS
10
93.6783
20
-101.607
11
93.6307
21
-101.512
0
LINE
8
BLACK
6
CONTINUOUS
10
93.6307
20
-101.512
11
93.6307
21
-101.417
0
LINE
8
BLACK
6
CONTINUOUS
10
93.6307
20
-101.417
11
93.6783
21
-101.321
0
LINE
8
BLACK
6
CONTINUOUS
10
93.6783
20
-101.321
11
93.7259
21
-101.274
0
LINE
8
BLACK
6
CONTINUOUS
10
93.7259
20
-101.274
11
93.8211
21
-101.226
0
LINE
8
BLACK
6
CONTINUOUS
10
93.8211
20
-101.226
11
94.0116
21
-101.179
0
LINE
8
BLACK
6
CONTINUOUS
10
94.0116
20
-101.179
11
94.1068
21
-101.131
0
LINE
8
BLACK
6
CONTINUOUS
10
94.1068
20
-101.131
11
94.1545
21
-101.083
0
LINE
8
BLACK
6
CONTINUOUS
10
94.1545
20
-101.083
11
94.2021
21
-100.988
0
LINE
8
BLACK
6
CONTINUOUS
10
94.2021
20
-100.988
11
94.2021
21
-100.893
0
LINE
8
BLACK
6
CONTINUOUS
10
94.2021
20
-100.893
11
94.1545
21
-100.798
0
LINE
8
BLACK
6
CONTINUOUS
10
94.1545
20
-100.798
11
94.1068
21
-100.75
0
LINE
8
BLACK
6
CONTINUOUS
10
94.1068
20
-100.75
11
94.0116
21
-100.702
0
LINE
8
BLACK
6
CONTINUOUS
10
94.0116
20
-100.702
11
93.7735
21
-100.702
0
LINE
8
BLACK
6
CONTINUOUS
10
93.7735
20
-100.702
11
93.6307
21
-100.75
0
LINE
8
BLACK
6
CONTINUOUS
10
93.2973
20
-100.702
11
93.0592
21
-101.702
0
LINE
8
BLACK
6
CONTINUOUS
10
93.0592
20
-101.702
11
92.8687
21
-100.988
0
LINE
8
BLACK
6
CONTINUOUS
10
92.8687
20
-100.988
11
92.6783
21
-101.702
0
LINE
8
BLACK
6
CONTINUOUS
10
92.6783
20
-101.702
11
92.4402
21
-100.702
0
LINE
8
BLACK
6
CONTINUOUS
10
91.9164
20
-101.131
11
92.0116
21
-101.083
0
LINE
8
BLACK
6
CONTINUOUS
10
92.0116
20
-101.083
11
92.0592
21
-101.036
0
LINE
8
BLACK
6
CONTINUOUS
10
92.0592
20
-101.036
11
92.1068
21
-100.94
0
LINE
8
BLACK
6
CONTINUOUS
10
92.1068
20
-100.94
11
92.1068
21
-100.893
0
LINE
8
BLACK
6
CONTINUOUS
10
92.1068
20
-100.893
11
92.0592
21
-100.798
0
LINE
8
BLACK
6
CONTINUOUS
10
92.0592
20
-100.798
11
92.0116
21
-100.75
0
LINE
8
BLACK
6
CONTINUOUS
10
92.0116
20
-100.75
11
91.9164
21
-100.702
0
LINE
8
BLACK
6
CONTINUOUS
10
91.9164
20
-100.702
11
91.7259
21
-100.702
0
LINE
8
BLACK
6
CONTINUOUS
10
91.7259
20
-100.702
11
91.6307
21
-100.75
0
LINE
8
BLACK
6
CONTINUOUS
10
91.6307
20
-100.75
11
91.583
21
-100.798
0
LINE
8
BLACK
6
CONTINUOUS
10
91.583
20
-100.798
11
91.5354
21
-100.893
0
LINE
8
BLACK
6
CONTINUOUS
10
91.5354
20
-100.893
11
91.5354
21
-100.94
0
LINE
8
BLACK
6
CONTINUOUS
10
91.5354
20
-100.94
11
91.583
21
-101.036
0
LINE
8
BLACK
6
CONTINUOUS
10
91.583
20
-101.036
11
91.6307
21
-101.083
0
LINE
8
BLACK
6
CONTINUOUS
10
91.6307
20
-101.083
11
91.7259
21
-101.131
0
LINE
8
BLACK
6
CONTINUOUS
10
91.7259
20
-101.131
11
91.9164
21
-101.131
0
LINE
8
BLACK
6
CONTINUOUS
10
91.9164
20
-101.131
11
92.0116
21
-101.179
0
LINE
8
BLACK
6
CONTINUOUS
10
92.0116
20
-101.179
11
92.0592
21
-101.226
0
LINE
8
BLACK
6
CONTINUOUS
10
92.0592
20
-101.226
11
92.1068
21
-101.321
0
LINE
8
BLACK
6
CONTINUOUS
10
92.1068
20
-101.321
11
92.1068
21
-101.512
0
LINE
8
BLACK
6
CONTINUOUS
10
92.1068
20
-101.512
11
92.0592
21
-101.607
0
LINE
8
BLACK
6
CONTINUOUS
10
92.0592
20
-101.607
11
92.0116
21
-101.655
0
LINE
8
BLACK
6
CONTINUOUS
10
92.0116
20
-101.655
11
91.9164
21
-101.702
0
LINE
8
BLACK
6
CONTINUOUS
10
91.9164
20
-101.702
11
91.7259
21
-101.702
0
LINE
8
BLACK
6
CONTINUOUS
10
91.7259
20
-101.702
11
91.6307
21
-101.655
0
LINE
8
BLACK
6
CONTINUOUS
10
91.6307
20
-101.655
11
91.583
21
-101.607
0
LINE
8
BLACK
6
CONTINUOUS
10
91.583
20
-101.607
11
91.5354
21
-101.512
0
LINE
8
BLACK
6
CONTINUOUS
10
91.5354
20
-101.512
11
91.5354
21
-101.321
0
LINE
8
BLACK
6
CONTINUOUS
10
91.5354
20
-101.321
11
91.583
21
-101.226
0
LINE
8
BLACK
6
CONTINUOUS
10
91.583
20
-101.226
11
91.6307
21
-101.179
0
LINE
8
BLACK
6
CONTINUOUS
10
91.6307
20
-101.179
11
91.7259
21
-101.131
0
LINE
8
BLACK
6
CONTINUOUS
10
113.252
20
-63.5548
11
113.109
21
-63.6024
0
LINE
8
BLACK
6
CONTINUOUS
10
113.109
20
-63.6024
11
112.871
21
-63.6024
0
LINE
8
BLACK
6
CONTINUOUS
10
112.871
20
-63.6024
11
112.776
21
-63.5548
0
LINE
8
BLACK
6
CONTINUOUS
10
112.776
20
-63.5548
11
112.728
21
-63.5071
0
LINE
8
BLACK
6
CONTINUOUS
10
112.728
20
-63.5071
11
112.681
21
-63.4119
0
LINE
8
BLACK
6
CONTINUOUS
10
112.681
20
-63.4119
11
112.681
21
-63.3167
0
LINE
8
BLACK
6
CONTINUOUS
10
112.681
20
-63.3167
11
112.728
21
-63.2214
0
LINE
8
BLACK
6
CONTINUOUS
10
112.728
20
-63.2214
11
112.776
21
-63.1738
0
LINE
8
BLACK
6
CONTINUOUS
10
112.776
20
-63.1738
11
112.871
21
-63.1262
0
LINE
8
BLACK
6
CONTINUOUS
10
112.871
20
-63.1262
11
113.062
21
-63.0786
0
LINE
8
BLACK
6
CONTINUOUS
10
113.062
20
-63.0786
11
113.157
21
-63.031
0
LINE
8
BLACK
6
CONTINUOUS
10
113.157
20
-63.031
11
113.204
21
-62.9833
0
LINE
8
BLACK
6
CONTINUOUS
10
113.204
20
-62.9833
11
113.252
21
-62.8881
0
LINE
8
BLACK
6
CONTINUOUS
10
113.252
20
-62.8881
11
113.252
21
-62.7929
0
LINE
8
BLACK
6
CONTINUOUS
10
113.252
20
-62.7929
11
113.204
21
-62.6976
0
LINE
8
BLACK
6
CONTINUOUS
10
113.204
20
-62.6976
11
113.157
21
-62.65
0
LINE
8
BLACK
6
CONTINUOUS
10
113.157
20
-62.65
11
113.062
21
-62.6024
0
LINE
8
BLACK
6
CONTINUOUS
10
113.062
20
-62.6024
11
112.824
21
-62.6024
0
LINE
8
BLACK
6
CONTINUOUS
10
112.824
20
-62.6024
11
112.681
21
-62.65
0
LINE
8
BLACK
6
CONTINUOUS
10
112.347
20
-62.6024
11
112.109
21
-63.6024
0
LINE
8
BLACK
6
CONTINUOUS
10
112.109
20
-63.6024
11
111.919
21
-62.8881
0
LINE
8
BLACK
6
CONTINUOUS
10
111.919
20
-62.8881
11
111.728
21
-63.6024
0
LINE
8
BLACK
6
CONTINUOUS
10
111.728
20
-63.6024
11
111.49
21
-62.6024
0
LINE
8
BLACK
6
CONTINUOUS
10
111.204
20
-62.6024
11
110.585
21
-62.6024
0
LINE
8
BLACK
6
CONTINUOUS
10
110.585
20
-62.6024
11
110.919
21
-62.9833
0
LINE
8
BLACK
6
CONTINUOUS
10
110.919
20
-62.9833
11
110.776
21
-62.9833
0
LINE
8
BLACK
6
CONTINUOUS
10
110.776
20
-62.9833
11
110.681
21
-63.031
0
LINE
8
BLACK
6
CONTINUOUS
10
110.681
20
-63.031
11
110.633
21
-63.0786
0
LINE
8
BLACK
6
CONTINUOUS
10
110.633
20
-63.0786
11
110.585
21
-63.1738
0
LINE
8
BLACK
6
CONTINUOUS
10
110.585
20
-63.1738
11
110.585
21
-63.4119
0
LINE
8
BLACK
6
CONTINUOUS
10
110.585
20
-63.4119
11
110.633
21
-63.5071
0
LINE
8
BLACK
6
CONTINUOUS
10
110.633
20
-63.5071
11
110.681
21
-63.5548
0
LINE
8
BLACK
6
CONTINUOUS
10
110.681
20
-63.5548
11
110.776
21
-63.6024
0
LINE
8
BLACK
6
CONTINUOUS
10
110.776
20
-63.6024
11
111.062
21
-63.6024
0
LINE
8
BLACK
6
CONTINUOUS
10
111.062
20
-63.6024
11
111.157
21
-63.5548
0
LINE
8
BLACK
6
CONTINUOUS
10
111.157
20
-63.5548
11
111.204
21
-63.5071
0
LINE
8
BLACK
6
CONTINUOUS
10
113.252
20
-101.655
11
113.109
21
-101.702
0
LINE
8
BLACK
6
CONTINUOUS
10
113.109
20
-101.702
11
112.871
21
-101.702
0
LINE
8
BLACK
6
CONTINUOUS
10
112.871
20
-101.702
11
112.776
21
-101.655
0
LINE
8
BLACK
6
CONTINUOUS
10
112.776
20
-101.655
11
112.728
21
-101.607
0
LINE
8
BLACK
6
CONTINUOUS
10
112.728
20
-101.607
11
112.681
21
-101.512
0
LINE
8
BLACK
6
CONTINUOUS
10
112.681
20
-101.512
11
112.681
21
-101.417
0
LINE
8
BLACK
6
CONTINUOUS
10
112.681
20
-101.417
11
112.728
21
-101.321
0
LINE
8
BLACK
6
CONTINUOUS
10
112.728
20
-101.321
11
112.776
21
-101.274
0
LINE
8
BLACK
6
CONTINUOUS
10
112.776
20
-101.274
11
112.871
21
-101.226
0
LINE
8
BLACK
6
CONTINUOUS
10
112.871
20
-101.226
11
113.062
21
-101.179
0
LINE
8
BLACK
6
CONTINUOUS
10
113.062
20
-101.179
11
113.157
21
-101.131
0
LINE
8
BLACK
6
CONTINUOUS
10
113.157
20
-101.131
11
113.204
21
-101.083
0
LINE
8
BLACK
6
CONTINUOUS
10
113.204
20
-101.083
11
113.252
21
-100.988
0
LINE
8
BLACK
6
CONTINUOUS
10
113.252
20
-100.988
11
113.252
21
-100.893
0
LINE
8
BLACK
6
CONTINUOUS
10
113.252
20
-100.893
11
113.204
21
-100.798
0
LINE
8
BLACK
6
CONTINUOUS
10
113.204
20
-100.798
11
113.157
21
-100.75
0
LINE
8
BLACK
6
CONTINUOUS
10
113.157
20
-100.75
11
113.062
21
-100.702
0
LINE
8
BLACK
6
CONTINUOUS
10
113.062
20
-100.702
11
112.824
21
-100.702
0
LINE
8
BLACK
6
CONTINUOUS
10
112.824
20
-100.702
11
112.681
21
-100.75
0
LINE
8
BLACK
6
CONTINUOUS
10
112.347
20
-100.702
11
112.109
21
-101.702
0
LINE
8
BLACK
6
CONTINUOUS
10
112.109
20
-101.702
11
111.919
21
-100.988
0
LINE
8
BLACK
6
CONTINUOUS
10
111.919
20
-100.988
11
111.728
21
-101.702
0
LINE
8
BLACK
6
CONTINUOUS
10
111.728
20
-101.702
11
111.49
21
-100.702
0
LINE
8
BLACK
6
CONTINUOUS
10
111.062
20
-101.702
11
110.871
21
-101.702
0
LINE
8
BLACK
6
CONTINUOUS
10
110.871
20
-101.702
11
110.776
21
-101.655
0
LINE
8
BLACK
6
CONTINUOUS
10
110.776
20
-101.655
11
110.728
21
-101.607
0
LINE
8
BLACK
6
CONTINUOUS
10
110.728
20
-101.607
11
110.633
21
-101.464
0
LINE
8
BLACK
6
CONTINUOUS
10
110.633
20
-101.464
11
110.585
21
-101.274
0
LINE
8
BLACK
6
CONTINUOUS
10
110.585
20
-101.274
11
110.585
21
-100.893
0
LINE
8
BLACK
6
CONTINUOUS
10
110.585
20
-100.893
11
110.633
21
-100.798
0
LINE
8
BLACK
6
CONTINUOUS
10
110.633
20
-100.798
11
110.681
21
-100.75
0
LINE
8
BLACK
6
CONTINUOUS
10
110.681
20
-100.75
11
110.776
21
-100.702
0
LINE
8
BLACK
6
CONTINUOUS
10
110.776
20
-100.702
11
110.966
21
-100.702
0
LINE
8
BLACK
6
CONTINUOUS
10
110.966
20
-100.702
11
111.062
21
-100.75
0
LINE
8
BLACK
6
CONTINUOUS
10
111.062
20
-100.75
11
111.109
21
-100.798
0
LINE
8
BLACK
6
CONTINUOUS
10
111.109
20
-100.798
11
111.157
21
-100.893
0
LINE
8
BLACK
6
CONTINUOUS
10
111.157
20
-100.893
11
111.157
21
-101.131
0
LINE
8
BLACK
6
CONTINUOUS
10
111.157
20
-101.131
11
111.109
21
-101.226
0
LINE
8
BLACK
6
CONTINUOUS
10
111.109
20
-101.226
11
111.062
21
-101.274
0
LINE
8
BLACK
6
CONTINUOUS
10
111.062
20
-101.274
11
110.966
21
-101.321
0
LINE
8
BLACK
6
CONTINUOUS
10
110.966
20
-101.321
11
110.776
21
-101.321
0
LINE
8
BLACK
6
CONTINUOUS
10
110.776
20
-101.321
11
110.681
21
-101.274
0
LINE
8
BLACK
6
CONTINUOUS
10
110.681
20
-101.274
11
110.633
21
-101.226
0
LINE
8
BLACK
6
CONTINUOUS
10
110.633
20
-101.226
11
110.585
21
-101.131
0
LINE
8
BLACK
6
CONTINUOUS
10
94.2021
20
-82.6048
11
94.0592
21
-82.6524
0
LINE
8
BLACK
6
CONTINUOUS
10
94.0592
20
-82.6524
11
93.8211
21
-82.6524
0
LINE
8
BLACK
6
CONTINUOUS
10
93.8211
20
-82.6524
11
93.7259
21
-82.6048
0
LINE
8
BLACK
6
CONTINUOUS
10
93.7259
20
-82.6048
11
93.6783
21
-82.5571
0
LINE
8
BLACK
6
CONTINUOUS
10
93.6783
20
-82.5571
11
93.6307
21
-82.4619
0
LINE
8
BLACK
6
CONTINUOUS
10
93.6307
20
-82.4619
11
93.6307
21
-82.3667
0
LINE
8
BLACK
6
CONTINUOUS
10
93.6307
20
-82.3667
11
93.6783
21
-82.2714
0
LINE
8
BLACK
6
CONTINUOUS
10
93.6783
20
-82.2714
11
93.7259
21
-82.2238
0
LINE
8
BLACK
6
CONTINUOUS
10
93.7259
20
-82.2238
11
93.8211
21
-82.1762
0
LINE
8
BLACK
6
CONTINUOUS
10
93.8211
20
-82.1762
11
94.0116
21
-82.1286
0
LINE
8
BLACK
6
CONTINUOUS
10
94.0116
20
-82.1286
11
94.1068
21
-82.081
0
LINE
8
BLACK
6
CONTINUOUS
10
94.1068
20
-82.081
11
94.1545
21
-82.0333
0
LINE
8
BLACK
6
CONTINUOUS
10
94.1545
20
-82.0333
11
94.2021
21
-81.9381
0
LINE
8
BLACK
6
CONTINUOUS
10
94.2021
20
-81.9381
11
94.2021
21
-81.8429
0
LINE
8
BLACK
6
CONTINUOUS
10
94.2021
20
-81.8429
11
94.1545
21
-81.7476
0
LINE
8
BLACK
6
CONTINUOUS
10
94.1545
20
-81.7476
11
94.1068
21
-81.7
0
LINE
8
BLACK
6
CONTINUOUS
10
94.1068
20
-81.7
11
94.0116
21
-81.6524
0
LINE
8
BLACK
6
CONTINUOUS
10
94.0116
20
-81.6524
11
93.7735
21
-81.6524
0
LINE
8
BLACK
6
CONTINUOUS
10
93.7735
20
-81.6524
11
93.6307
21
-81.7
0
LINE
8
BLACK
6
CONTINUOUS
10
93.2973
20
-81.6524
11
93.0592
21
-82.6524
0
LINE
8
BLACK
6
CONTINUOUS
10
93.0592
20
-82.6524
11
92.8687
21
-81.9381
0
LINE
8
BLACK
6
CONTINUOUS
10
92.8687
20
-81.9381
11
92.6783
21
-82.6524
0
LINE
8
BLACK
6
CONTINUOUS
10
92.6783
20
-82.6524
11
92.4402
21
-81.6524
0
LINE
8
BLACK
6
CONTINUOUS
10
91.583
20
-81.6524
11
92.0592
21
-81.6524
0
LINE
8
BLACK
6
CONTINUOUS
10
92.0592
20
-81.6524
11
92.1068
21
-82.1286
0
LINE
8
BLACK
6
CONTINUOUS
10
92.1068
20
-82.1286
11
92.0592
21
-82.081
0
LINE
8
BLACK
6
CONTINUOUS
10
92.0592
20
-82.081
11
91.964
21
-82.0333
0
LINE
8
BLACK
6
CONTINUOUS
10
91.964
20
-82.0333
11
91.7259
21
-82.0333
0
LINE
8
BLACK
6
CONTINUOUS
10
91.7259
20
-82.0333
11
91.6307
21
-82.081
0
LINE
8
BLACK
6
CONTINUOUS
10
91.6307
20
-82.081
11
91.583
21
-82.1286
0
LINE
8
BLACK
6
CONTINUOUS
10
91.583
20
-82.1286
11
91.5354
21
-82.2238
0
LINE
8
BLACK
6
CONTINUOUS
10
91.5354
20
-82.2238
11
91.5354
21
-82.4619
0
LINE
8
BLACK
6
CONTINUOUS
10
91.5354
20
-82.4619
11
91.583
21
-82.5571
0
LINE
8
BLACK
6
CONTINUOUS
10
91.583
20
-82.5571
11
91.6307
21
-82.6048
0
LINE
8
BLACK
6
CONTINUOUS
10
91.6307
20
-82.6048
11
91.7259
21
-82.6524
0
LINE
8
BLACK
6
CONTINUOUS
10
91.7259
20
-82.6524
11
91.964
21
-82.6524
0
LINE
8
BLACK
6
CONTINUOUS
10
91.964
20
-82.6524
11
92.0592
21
-82.6048
0
LINE
8
BLACK
6
CONTINUOUS
10
92.0592
20
-82.6048
11
92.1068
21
-82.5571
0
LINE
8
BLACK
6
CONTINUOUS
10
113.252
20
-82.6048
11
113.109
21
-82.6524
0
LINE
8
BLACK
6
CONTINUOUS
10
113.109
20
-82.6524
11
112.871
21
-82.6524
0
LINE
8
BLACK
6
CONTINUOUS
10
112.871
20
-82.6524
11
112.776
21
-82.6048
0
LINE
8
BLACK
6
CONTINUOUS
10
112.776
20
-82.6048
11
112.728
21
-82.5571
0
LINE
8
BLACK
6
CONTINUOUS
10
112.728
20
-82.5571
11
112.681
21
-82.4619
0
LINE
8
BLACK
6
CONTINUOUS
10
112.681
20
-82.4619
11
112.681
21
-82.3667
0
LINE
8
BLACK
6
CONTINUOUS
10
112.681
20
-82.3667
11
112.728
21
-82.2714
0
LINE
8
BLACK
6
CONTINUOUS
10
112.728
20
-82.2714
11
112.776
21
-82.2238
0
LINE
8
BLACK
6
CONTINUOUS
10
112.776
20
-82.2238
11
112.871
21
-82.1762
0
LINE
8
BLACK
6
CONTINUOUS
10
112.871
20
-82.1762
11
113.062
21
-82.1286
0
LINE
8
BLACK
6
CONTINUOUS
10
113.062
20
-82.1286
11
113.157
21
-82.081
0
LINE
8
BLACK
6
CONTINUOUS
10
113.157
20
-82.081
11
113.204
21
-82.0333
0
LINE
8
BLACK
6
CONTINUOUS
10
113.204
20
-82.0333
11
113.252
21
-81.9381
0
LINE
8
BLACK
6
CONTINUOUS
10
113.252
20
-81.9381
11
113.252
21
-81.8429
0
LINE
8
BLACK
6
CONTINUOUS
10
113.252
20
-81.8429
11
113.204
21
-81.7476
0
LINE
8
BLACK
6
CONTINUOUS
10
113.204
20
-81.7476
11
113.157
21
-81.7
0
LINE
8
BLACK
6
CONTINUOUS
10
113.157
20
-81.7
11
113.062
21
-81.6524
0
LINE
8
BLACK
6
CONTINUOUS
10
113.062
20
-81.6524
11
112.824
21
-81.6524
0
LINE
8
BLACK
6
CONTINUOUS
10
112.824
20
-81.6524
11
112.681
21
-81.7
0
LINE
8
BLACK
6
CONTINUOUS
10
112.347
20
-81.6524
11
112.109
21
-82.6524
0
LINE
8
BLACK
6
CONTINUOUS
10
112.109
20
-82.6524
11
111.919
21
-81.9381
0
LINE
8
BLACK
6
CONTINUOUS
10
111.919
20
-81.9381
11
111.728
21
-82.6524
0
LINE
8
BLACK
6
CONTINUOUS
10
111.728
20
-82.6524
11
111.49
21
-81.6524
0
LINE
8
BLACK
6
CONTINUOUS
10
110.681
20
-81.6524
11
110.871
21
-81.6524
0
LINE
8
BLACK
6
CONTINUOUS
10
110.871
20
-81.6524
11
110.966
21
-81.7
0
LINE
8
BLACK
6
CONTINUOUS
10
110.966
20
-81.7
11
111.014
21
-81.7476
0
LINE
8
BLACK
6
CONTINUOUS
10
111.014
20
-81.7476
11
111.109
21
-81.8905
0
LINE
8
BLACK
6
CONTINUOUS
10
111.109
20
-81.8905
11
111.157
21
-82.081
0
LINE
8
BLACK
6
CONTINUOUS
10
111.157
20
-82.081
11
111.157
21
-82.4619
0
LINE
8
BLACK
6
CONTINUOUS
10
111.157
20
-82.4619
11
111.109
21
-82.5571
0
LINE
8
BLACK
6
CONTINUOUS
10
111.109
20
-82.5571
11
111.062
21
-82.6048
0
LINE
8
BLACK
6
CONTINUOUS
10
111.062
20
-82.6048
11
110.966
21
-82.6524
0
LINE
8
BLACK
6
CONTINUOUS
10
110.966
20
-82.6524
11
110.776
21
-82.6524
0
LINE
8
BLACK
6
CONTINUOUS
10
110.776
20
-82.6524
11
110.681
21
-82.6048
0
LINE
8
BLACK
6
CONTINUOUS
10
110.681
20
-82.6048
11
110.633
21
-82.5571
0
LINE
8
BLACK
6
CONTINUOUS
10
110.633
20
-82.5571
11
110.585
21
-82.4619
0
LINE
8
BLACK
6
CONTINUOUS
10
110.585
20
-82.4619
11
110.585
21
-82.2238
0
LINE
8
BLACK
6
CONTINUOUS
10
110.585
20
-82.2238
11
110.633
21
-82.1286
0
LINE
8
BLACK
6
CONTINUOUS
10
110.633
20
-82.1286
11
110.681
21
-82.081
0
LINE
8
BLACK
6
CONTINUOUS
10
110.681
20
-82.081
11
110.776
21
-82.0333
0
LINE
8
BLACK
6
CONTINUOUS
10
110.776
20
-82.0333
11
110.966
21
-82.0333
0
LINE
8
BLACK
6
CONTINUOUS
10
110.966
20
-82.0333
11
111.062
21
-82.081
0
LINE
8
BLACK
6
CONTINUOUS
10
111.062
20
-82.081
11
111.109
21
-82.1286
0
LINE
8
BLACK
6
CONTINUOUS
10
111.109
20
-82.1286
11
111.157
21
-82.2238
0
LINE
8
BLACK
6
CONTINUOUS
10
94.2021
20
-63.5548
11
94.0592
21
-63.6024
0
LINE
8
BLACK
6
CONTINUOUS
10
94.0592
20
-63.6024
11
93.8211
21
-63.6024
0
LINE
8
BLACK
6
CONTINUOUS
10
93.8211
20
-63.6024
11
93.7259
21
-63.5548
0
LINE
8
BLACK
6
CONTINUOUS
10
93.7259
20
-63.5548
11
93.6783
21
-63.5071
0
LINE
8
BLACK
6
CONTINUOUS
10
93.6783
20
-63.5071
11
93.6307
21
-63.4119
0
LINE
8
BLACK
6
CONTINUOUS
10
93.6307
20
-63.4119
11
93.6307
21
-63.3167
0
LINE
8
BLACK
6
CONTINUOUS
10
93.6307
20
-63.3167
11
93.6783
21
-63.2214
0
LINE
8
BLACK
6
CONTINUOUS
10
93.6783
20
-63.2214
11
93.7259
21
-63.1738
0
LINE
8
BLACK
6
CONTINUOUS
10
93.7259
20
-63.1738
11
93.8211
21
-63.1262
0
LINE
8
BLACK
6
CONTINUOUS
10
93.8211
20
-63.1262
11
94.0116
21
-63.0786
0
LINE
8
BLACK
6
CONTINUOUS
10
94.0116
20
-63.0786
11
94.1068
21
-63.031
0
LINE
8
BLACK
6
CONTINUOUS
10
94.1068
20
-63.031
11
94.1545
21
-62.9833
0
LINE
8
BLACK
6
CONTINUOUS
10
94.1545
20
-62.9833
11
94.2021
21
-62.8881
0
LINE
8
BLACK
6
CONTINUOUS
10
94.2021
20
-62.8881
11
94.2021
21
-62.7929
0
LINE
8
BLACK
6
CONTINUOUS
10
94.2021
20
-62.7929
11
94.1545
21
-62.6976
0
LINE
8
BLACK
6
CONTINUOUS
10
94.1545
20
-62.6976
11
94.1068
21
-62.65
0
LINE
8
BLACK
6
CONTINUOUS
10
94.1068
20
-62.65
11
94.0116
21
-62.6024
0
LINE
8
BLACK
6
CONTINUOUS
10
94.0116
20
-62.6024
11
93.7735
21
-62.6024
0
LINE
8
BLACK
6
CONTINUOUS
10
93.7735
20
-62.6024
11
93.6307
21
-62.65
0
LINE
8
BLACK
6
CONTINUOUS
10
93.2973
20
-62.6024
11
93.0592
21
-63.6024
0
LINE
8
BLACK
6
CONTINUOUS
10
93.0592
20
-63.6024
11
92.8687
21
-62.8881
0
LINE
8
BLACK
6
CONTINUOUS
10
92.8687
20
-62.8881
11
92.6783
21
-63.6024
0
LINE
8
BLACK
6
CONTINUOUS
10
92.6783
20
-63.6024
11
92.4402
21
-62.6024
0
LINE
8
BLACK
6
CONTINUOUS
10
92.1068
20
-62.6976
11
92.0592
21
-62.65
0
LINE
8
BLACK
6
CONTINUOUS
10
92.0592
20
-62.65
11
91.964
21
-62.6024
0
LINE
8
BLACK
6
CONTINUOUS
10
91.964
20
-62.6024
11
91.7259
21
-62.6024
0
LINE
8
BLACK
6
CONTINUOUS
10
91.7259
20
-62.6024
11
91.6307
21
-62.65
0
LINE
8
BLACK
6
CONTINUOUS
10
91.6307
20
-62.65
11
91.583
21
-62.6976
0
LINE
8
BLACK
6
CONTINUOUS
10
91.583
20
-62.6976
11
91.5354
21
-62.7929
0
LINE
8
BLACK
6
CONTINUOUS
10
91.5354
20
-62.7929
11
91.5354
21
-62.8881
0
LINE
8
BLACK
6
CONTINUOUS
10
91.5354
20
-62.8881
11
91.583
21
-63.031
0
LINE
8
BLACK
6
CONTINUOUS
10
91.583
20
-63.031
11
92.1545
21
-63.6024
0
LINE
8
BLACK
6
CONTINUOUS
10
92.1545
20
-63.6024
11
91.5354
21
-63.6024
0
LINE
8
BLACK
6
CONTINUOUS
10
75.1521
20
-101.655
11
75.0092
21
-101.702
0
LINE
8
BLACK
6
CONTINUOUS
10
75.0092
20
-101.702
11
74.7711
21
-101.702
0
LINE
8
BLACK
6
CONTINUOUS
10
74.7711
20
-101.702
11
74.6759
21
-101.655
0
LINE
8
BLACK
6
CONTINUOUS
10
74.6759
20
-101.655
11
74.6283
21
-101.607
0
LINE
8
BLACK
6
CONTINUOUS
10
74.6283
20
-101.607
11
74.5807
21
-101.512
0
LINE
8
BLACK
6
CONTINUOUS
10
74.5807
20
-101.512
11
74.5807
21
-101.417
0
LINE
8
BLACK
6
CONTINUOUS
10
74.5807
20
-101.417
11
74.6283
21
-101.321
0
LINE
8
BLACK
6
CONTINUOUS
10
74.6283
20
-101.321
11
74.6759
21
-101.274
0
LINE
8
BLACK
6
CONTINUOUS
10
74.6759
20
-101.274
11
74.7711
21
-101.226
0
LINE
8
BLACK
6
CONTINUOUS
10
74.7711
20
-101.226
11
74.9616
21
-101.179
0
LINE
8
BLACK
6
CONTINUOUS
10
74.9616
20
-101.179
11
75.0568
21
-101.131
0
LINE
8
BLACK
6
CONTINUOUS
10
75.0568
20
-101.131
11
75.1045
21
-101.083
0
LINE
8
BLACK
6
CONTINUOUS
10
75.1045
20
-101.083
11
75.1521
21
-100.988
0
LINE
8
BLACK
6
CONTINUOUS
10
75.1521
20
-100.988
11
75.1521
21
-100.893
0
LINE
8
BLACK
6
CONTINUOUS
10
75.1521
20
-100.893
11
75.1045
21
-100.798
0
LINE
8
BLACK
6
CONTINUOUS
10
75.1045
20
-100.798
11
75.0568
21
-100.75
0
LINE
8
BLACK
6
CONTINUOUS
10
75.0568
20
-100.75
11
74.9616
21
-100.702
0
LINE
8
BLACK
6
CONTINUOUS
10
74.9616
20
-100.702
11
74.7235
21
-100.702
0
LINE
8
BLACK
6
CONTINUOUS
10
74.7235
20
-100.702
11
74.5807
21
-100.75
0
LINE
8
BLACK
6
CONTINUOUS
10
74.2473
20
-100.702
11
74.0092
21
-101.702
0
LINE
8
BLACK
6
CONTINUOUS
10
74.0092
20
-101.702
11
73.8187
21
-100.988
0
LINE
8
BLACK
6
CONTINUOUS
10
73.8187
20
-100.988
11
73.6283
21
-101.702
0
LINE
8
BLACK
6
CONTINUOUS
10
73.6283
20
-101.702
11
73.3902
21
-100.702
0
LINE
8
BLACK
6
CONTINUOUS
10
73.1045
20
-100.702
11
72.4378
21
-100.702
0
LINE
8
BLACK
6
CONTINUOUS
10
72.4378
20
-100.702
11
72.8664
21
-101.702
0
LINE
8
BLACK
6
CONTINUOUS
10
77.9827
20
-28.0474
11
78.697
21
-28.0474
0
LINE
8
BLACK
6
CONTINUOUS
10
78.697
20
-28.0474
11
78.8398
21
-27.9998
0
LINE
8
BLACK
6
CONTINUOUS
10
78.8398
20
-27.9998
11
78.9351
21
-27.9046
0
LINE
8
BLACK
6
CONTINUOUS
10
78.9351
20
-27.9046
11
78.9827
21
-27.7617
0
LINE
8
BLACK
6
CONTINUOUS
10
78.9827
20
-27.7617
11
78.9827
21
-27.6665
0
LINE
8
BLACK
6
CONTINUOUS
10
78.0779
20
-28.476
11
78.0303
21
-28.5236
0
LINE
8
BLACK
6
CONTINUOUS
10
78.0303
20
-28.5236
11
77.9827
21
-28.6189
0
LINE
8
BLACK
6
CONTINUOUS
10
77.9827
20
-28.6189
11
77.9827
21
-28.857
0
LINE
8
BLACK
6
CONTINUOUS
10
77.9827
20
-28.857
11
78.0303
21
-28.9522
0
LINE
8
BLACK
6
CONTINUOUS
10
78.0303
20
-28.9522
11
78.0779
21
-28.9998
0
LINE
8
BLACK
6
CONTINUOUS
10
78.0779
20
-28.9998
11
78.1732
21
-29.0474
0
LINE
8
BLACK
6
CONTINUOUS
10
78.1732
20
-29.0474
11
78.2684
21
-29.0474
0
LINE
8
BLACK
6
CONTINUOUS
10
78.2684
20
-29.0474
11
78.4112
21
-28.9998
0
LINE
8
BLACK
6
CONTINUOUS
10
78.4112
20
-28.9998
11
78.9827
21
-28.4284
0
LINE
8
BLACK
6
CONTINUOUS
10
78.9827
20
-28.4284
11
78.9827
21
-29.0474
0
LINE
8
BLACK
6
CONTINUOUS
10
128.827
20
-42.7284
11
129.184
21
-43.347
0
LINE
8
BLACK
6
CONTINUOUS
10
129.184
20
-43.347
11
129.297
21
-43.4469
0
LINE
8
BLACK
6
CONTINUOUS
10
129.297
20
-43.4469
11
129.427
21
-43.4817
0
LINE
8
BLACK
6
CONTINUOUS
10
129.427
20
-43.4817
11
129.574
21
-43.4515
0
LINE
8
BLACK
6
CONTINUOUS
10
129.574
20
-43.4515
11
129.657
21
-43.4039
0
LINE
8
BLACK
6
CONTINUOUS
10
128.497
20
-42.9188
11
127.961
21
-43.2284
0
LINE
8
BLACK
6
CONTINUOUS
10
127.961
20
-43.2284
11
128.44
21
-43.3916
0
LINE
8
BLACK
6
CONTINUOUS
10
128.44
20
-43.3916
11
128.316
21
-43.463
0
LINE
8
BLACK
6
CONTINUOUS
10
128.316
20
-43.463
11
128.258
21
-43.5519
0
LINE
8
BLACK
6
CONTINUOUS
10
128.258
20
-43.5519
11
128.24
21
-43.617
0
LINE
8
BLACK
6
CONTINUOUS
10
128.24
20
-43.617
11
128.247
21
-43.7232
0
LINE
8
BLACK
6
CONTINUOUS
10
128.247
20
-43.7232
11
128.366
21
-43.9294
0
LINE
8
BLACK
6
CONTINUOUS
10
128.366
20
-43.9294
11
128.454
21
-43.9881
0
LINE
8
BLACK
6
CONTINUOUS
10
128.454
20
-43.9881
11
128.519
21
-44.0055
0
LINE
8
BLACK
6
CONTINUOUS
10
128.519
20
-44.0055
11
128.626
21
-43.9992
0
LINE
8
BLACK
6
CONTINUOUS
10
128.626
20
-43.9992
11
128.873
21
-43.8563
0
LINE
8
BLACK
6
CONTINUOUS
10
128.873
20
-43.8563
11
128.932
21
-43.7674
0
LINE
8
BLACK
6
CONTINUOUS
10
128.932
20
-43.7674
11
128.949
21
-43.7024
0
LINE
8
BLACK
6
CONTINUOUS
10
45.9562
20
-61.7248
11
46.3133
21
-61.1063
0
LINE
8
BLACK
6
CONTINUOUS
10
46.3133
20
-61.1063
11
46.3435
21
-60.9587
0
LINE
8
BLACK
6
CONTINUOUS
10
46.3435
20
-60.9587
11
46.3086
21
-60.8286
0
LINE
8
BLACK
6
CONTINUOUS
10
46.3086
20
-60.8286
11
46.2087
21
-60.716
0
LINE
8
BLACK
6
CONTINUOUS
10
46.2087
20
-60.716
11
46.1262
21
-60.6683
0
LINE
8
BLACK
6
CONTINUOUS
10
47.3222
20
-61.3588
11
46.8273
21
-61.0731
0
LINE
8
BLACK
6
CONTINUOUS
10
47.0747
20
-61.216
11
46.5747
21
-62.082
0
LINE
8
BLACK
6
CONTINUOUS
10
46.5747
20
-62.082
11
46.5637
21
-61.9106
0
LINE
8
BLACK
6
CONTINUOUS
10
46.5637
20
-61.9106
11
46.5288
21
-61.7805
0
LINE
8
BLACK
6
CONTINUOUS
10
46.5288
20
-61.7805
11
46.4702
21
-61.6917
0
LINE
8
BLACK
6
CONTINUOUS
10
41.1425
20
-93.9571
11
41.4996
21
-94.5757
0
LINE
8
BLACK
6
CONTINUOUS
10
41.4996
20
-94.5757
11
41.6123
21
-94.6756
0
LINE
8
BLACK
6
CONTINUOUS
10
41.6123
20
-94.6756
11
41.7424
21
-94.7104
0
LINE
8
BLACK
6
CONTINUOUS
10
41.7424
20
-94.7104
11
41.8899
21
-94.6802
0
LINE
8
BLACK
6
CONTINUOUS
10
41.8899
20
-94.6802
11
41.9724
21
-94.6326
0
LINE
8
BLACK
6
CONTINUOUS
10
40.5256
20
-94.6981
11
40.8589
21
-95.2755
0
LINE
8
BLACK
6
CONTINUOUS
10
40.5413
20
-94.2492
11
41.1047
21
-94.7487
0
LINE
8
BLACK
6
CONTINUOUS
10
41.1047
20
-94.7487
11
40.5686
21
-95.0582
0
LINE
8
BLACK
6
CONTINUOUS
10
133.995
20
-112.035
11
134.352
21
-111.417
0
LINE
8
BLACK
6
CONTINUOUS
10
134.352
20
-111.417
11
134.382
21
-111.269
0
LINE
8
BLACK
6
CONTINUOUS
10
134.382
20
-111.269
11
134.347
21
-111.139
0
LINE
8
BLACK
6
CONTINUOUS
10
134.347
20
-111.139
11
134.247
21
-111.026
0
LINE
8
BLACK
6
CONTINUOUS
10
134.247
20
-111.026
11
134.165
21
-110.979
0
LINE
8
BLACK
6
CONTINUOUS
10
134.819
20
-112.511
11
134.407
21
-112.273
0
LINE
8
BLACK
6
CONTINUOUS
10
134.407
20
-112.273
11
134.604
21
-111.837
0
LINE
8
BLACK
6
CONTINUOUS
10
134.604
20
-111.837
11
134.621
21
-111.902
0
LINE
8
BLACK
6
CONTINUOUS
10
134.621
20
-111.902
11
134.68
21
-111.991
0
LINE
8
BLACK
6
CONTINUOUS
10
134.68
20
-111.991
11
134.886
21
-112.11
0
LINE
8
BLACK
6
CONTINUOUS
10
134.886
20
-112.11
11
134.992
21
-112.116
0
LINE
8
BLACK
6
CONTINUOUS
10
134.992
20
-112.116
11
135.058
21
-112.099
0
LINE
8
BLACK
6
CONTINUOUS
10
135.058
20
-112.099
11
135.146
21
-112.04
0
LINE
8
BLACK
6
CONTINUOUS
10
135.146
20
-112.04
11
135.265
21
-111.834
0
LINE
8
BLACK
6
CONTINUOUS
10
135.265
20
-111.834
11
135.272
21
-111.728
0
LINE
8
BLACK
6
CONTINUOUS
10
135.272
20
-111.728
11
135.254
21
-111.663
0
LINE
8
BLACK
6
CONTINUOUS
10
135.254
20
-111.663
11
135.196
21
-111.574
0
LINE
8
BLACK
6
CONTINUOUS
10
135.196
20
-111.574
11
134.99
21
-111.455
0
LINE
8
BLACK
6
CONTINUOUS
10
134.99
20
-111.455
11
134.883
21
-111.448
0
LINE
8
BLACK
6
CONTINUOUS
10
134.883
20
-111.448
11
134.818
21
-111.466
0
LINE
8
BLACK
6
CONTINUOUS
10
72.7304
20
-73.6079
11
72.6763
21
-73.6218
0
LINE
8
BLACK
6
CONTINUOUS
10
72.6763
20
-73.6218
11
72.6285
21
-73.6379
0
LINE
8
BLACK
6
CONTINUOUS
10
72.6285
20
-73.6379
11
72.5842
21
-73.6563
0
LINE
8
BLACK
6
CONTINUOUS
10
72.5842
20
-73.6563
11
72.5403
21
-73.6772
0
LINE
8
BLACK
6
CONTINUOUS
10
72.5403
20
-73.6772
11
72.4941
21
-73.7008
0
LINE
8
BLACK
6
CONTINUOUS
10
72.4941
20
-73.7008
11
72.4427
21
-73.7273
0
LINE
8
BLACK
6
CONTINUOUS
10
72.4427
20
-73.7273
11
72.4122
21
-73.7425
0
LINE
8
BLACK
6
CONTINUOUS
10
72.4122
20
-73.7425
11
72.2843
21
-73.8124
0
LINE
8
BLACK
6
CONTINUOUS
10
72.2843
20
-73.8124
11
72.1743
21
-73.8895
0
LINE
8
BLACK
6
CONTINUOUS
10
72.1743
20
-73.8895
11
72.0631
21
-73.9882
0
LINE
8
BLACK
6
CONTINUOUS
10
72.0631
20
-73.9882
11
72.0153
21
-74.0354
0
LINE
8
BLACK
6
CONTINUOUS
10
72.0153
20
-74.0354
11
71.8218
21
-74.2616
0
LINE
8
BLACK
6
CONTINUOUS
10
71.8218
20
-74.2616
11
71.6759
21
-74.5006
0
LINE
8
BLACK
6
CONTINUOUS
10
71.6759
20
-74.5006
11
71.5778
21
-74.7518
0
LINE
8
BLACK
6
CONTINUOUS
10
71.5778
20
-74.7518
11
71.5277
21
-75.0147
0
LINE
8
BLACK
6
CONTINUOUS
10
71.5277
20
-75.0147
11
71.525
21
-75.0456
0
LINE
8
BLACK
6
CONTINUOUS
10
71.525
20
-75.0456
11
71.5113
21
-75.2277
0
LINE
8
BLACK
6
CONTINUOUS
10
71.5113
20
-75.2277
11
67.7481
21
-75.2277
0
LINE
8
BLACK
6
CONTINUOUS
10
67.7481
20
-75.2277
11
67.7481
21
-75.0045
0
LINE
8
BLACK
6
CONTINUOUS
10
67.7481
20
-75.0045
11
68.0458
21
-75.0045
0
LINE
8
BLACK
6
CONTINUOUS
10
68.0458
20
-75.0045
11
68.0458
21
-73.6863
0
LINE
8
BLACK
6
CONTINUOUS
10
68.0458
20
-73.6863
11
68.4779
21
-73.6863
0
LINE
8
BLACK
6
CONTINUOUS
10
68.4779
20
-73.6863
11
68.5041
21
-73.9458
0
LINE
8
BLACK
6
CONTINUOUS
10
68.5041
20
-73.9458
11
68.5734
21
-74.1947
0
LINE
8
BLACK
6
CONTINUOUS
10
68.5734
20
-74.1947
11
68.6837
21
-74.4282
0
LINE
8
BLACK
6
CONTINUOUS
10
68.6837
20
-74.4282
11
68.8328
21
-74.6412
0
LINE
8
BLACK
6
CONTINUOUS
10
68.8328
20
-74.6412
11
69.0187
21
-74.8288
0
LINE
8
BLACK
6
CONTINUOUS
10
69.0187
20
-74.8288
11
69.2392
21
-74.9861
0
LINE
8
BLACK
6
CONTINUOUS
10
69.2392
20
-74.9861
11
69.375
21
-75.0581
0
LINE
8
BLACK
6
CONTINUOUS
10
69.375
20
-75.0581
11
69.6215
21
-75.1483
0
LINE
8
BLACK
6
CONTINUOUS
10
69.6215
20
-75.1483
11
69.8755
21
-75.1929
0
LINE
8
BLACK
6
CONTINUOUS
10
69.8755
20
-75.1929
11
70.1311
21
-75.1939
0
LINE
8
BLACK
6
CONTINUOUS
10
70.1311
20
-75.1939
11
70.3826
21
-75.1534
0
LINE
8
BLACK
6
CONTINUOUS
10
70.3826
20
-75.1534
11
70.624
21
-75.0732
0
LINE
8
BLACK
6
CONTINUOUS
10
70.624
20
-75.0732
11
70.8495
21
-74.9555
0
LINE
8
BLACK
6
CONTINUOUS
10
70.8495
20
-74.9555
11
71.0532
21
-74.8023
0
LINE
8
BLACK
6
CONTINUOUS
10
71.0532
20
-74.8023
11
71.2294
21
-74.6155
0
LINE
8
BLACK
6
CONTINUOUS
10
71.2294
20
-74.6155
11
71.3721
21
-74.3972
0
LINE
8
BLACK
6
CONTINUOUS
10
71.3721
20
-74.3972
11
71.3882
21
-74.366
0
LINE
8
BLACK
6
CONTINUOUS
10
71.3882
20
-74.366
11
71.4922
21
-74.1073
0
LINE
8
BLACK
6
CONTINUOUS
10
71.4922
20
-74.1073
11
71.5492
21
-73.8466
0
LINE
8
BLACK
6
CONTINUOUS
10
71.5492
20
-73.8466
11
71.5615
21
-73.5884
0
LINE
8
BLACK
6
CONTINUOUS
10
71.5615
20
-73.5884
11
71.5313
21
-73.3369
0
LINE
8
BLACK
6
CONTINUOUS
10
71.5313
20
-73.3369
11
71.4607
21
-73.0966
0
LINE
8
BLACK
6
CONTINUOUS
10
71.4607
20
-73.0966
11
71.3521
21
-72.872
0
LINE
8
BLACK
6
CONTINUOUS
10
71.3521
20
-72.872
11
71.2076
21
-72.6674
0
LINE
8
BLACK
6
CONTINUOUS
10
71.2076
20
-72.6674
11
71.0295
21
-72.4873
0
LINE
8
BLACK
6
CONTINUOUS
10
71.0295
20
-72.4873
11
70.82
21
-72.336
0
LINE
8
BLACK
6
CONTINUOUS
10
70.82
20
-72.336
11
70.5813
21
-72.2179
0
LINE
8
BLACK
6
CONTINUOUS
10
70.5813
20
-72.2179
11
70.3156
21
-72.1376
0
LINE
8
BLACK
6
CONTINUOUS
10
70.3156
20
-72.1376
11
70.2594
21
-72.1264
0
LINE
8
BLACK
6
CONTINUOUS
10
70.2594
20
-72.1264
11
70.1059
21
-72.1123
0
LINE
8
BLACK
6
CONTINUOUS
10
70.1059
20
-72.1123
11
69.9273
21
-72.1177
0
LINE
8
BLACK
6
CONTINUOUS
10
69.9273
20
-72.1177
11
69.7433
21
-72.1408
0
LINE
8
BLACK
6
CONTINUOUS
10
69.7433
20
-72.1408
11
69.5737
21
-72.1799
0
LINE
8
BLACK
6
CONTINUOUS
10
69.5737
20
-72.1799
11
69.54
21
-72.1905
0
LINE
8
BLACK
6
CONTINUOUS
10
69.54
20
-72.1905
11
69.3639
21
-72.2582
0
LINE
8
BLACK
6
CONTINUOUS
10
69.3639
20
-72.2582
11
69.2158
21
-72.3372
0
LINE
8
BLACK
6
CONTINUOUS
10
69.2158
20
-72.3372
11
69.0763
21
-72.4391
0
LINE
8
BLACK
6
CONTINUOUS
10
69.0763
20
-72.4391
11
68.973
21
-72.5305
0
LINE
8
BLACK
6
CONTINUOUS
10
68.973
20
-72.5305
11
68.7992
21
-72.7173
0
LINE
8
BLACK
6
CONTINUOUS
10
68.7992
20
-72.7173
11
68.6669
21
-72.9169
0
LINE
8
BLACK
6
CONTINUOUS
10
68.6669
20
-72.9169
11
68.5679
21
-73.1418
0
LINE
8
BLACK
6
CONTINUOUS
10
68.5679
20
-73.1418
11
68.5632
21
-73.1554
0
LINE
8
BLACK
6
CONTINUOUS
10
68.5632
20
-73.1554
11
68.4969
21
-73.4212
0
LINE
8
BLACK
6
CONTINUOUS
10
68.4969
20
-73.4212
11
68.4779
21
-73.6863
0
LINE
8
BLACK
6
CONTINUOUS
10
68.4779
20
-73.6863
11
68.0458
21
-73.6863
0
LINE
8
BLACK
6
CONTINUOUS
10
68.0458
20
-73.6863
11
68.0458
21
-72.3008
0
LINE
8
BLACK
6
CONTINUOUS
10
68.0458
20
-72.3008
11
67.7481
21
-72.3008
0
LINE
8
BLACK
6
CONTINUOUS
10
67.7481
20
-72.3008
11
67.7485
21
-71.6745
0
LINE
8
BLACK
6
CONTINUOUS
10
67.7485
20
-71.6745
11
67.7498
21
-71.438
0
LINE
8
BLACK
6
CONTINUOUS
10
67.7498
20
-71.438
11
67.7541
21
-71.2436
0
LINE
8
BLACK
6
CONTINUOUS
10
67.7541
20
-71.2436
11
67.7622
21
-71.0839
0
LINE
8
BLACK
6
CONTINUOUS
10
67.7622
20
-71.0839
11
67.769
21
-71.0151
0
LINE
8
BLACK
6
CONTINUOUS
10
67.769
20
-71.0151
11
74.8237
21
-71.0151
0
LINE
8
BLACK
6
CONTINUOUS
10
74.8237
20
-71.0151
11
74.8276
21
-71.2742
0
LINE
8
BLACK
6
CONTINUOUS
10
74.8276
20
-71.2742
11
74.8752
21
-71.5256
0
LINE
8
BLACK
6
CONTINUOUS
10
74.8752
20
-71.5256
11
74.9633
21
-71.7643
0
LINE
8
BLACK
6
CONTINUOUS
10
74.9633
20
-71.7643
11
75.0892
21
-71.9856
0
LINE
8
BLACK
6
CONTINUOUS
10
75.0892
20
-71.9856
11
75.2496
21
-72.1844
0
LINE
8
BLACK
6
CONTINUOUS
10
75.2496
20
-72.1844
11
75.4418
21
-72.356
0
LINE
8
BLACK
6
CONTINUOUS
10
75.4418
20
-72.356
11
75.6626
21
-72.4954
0
LINE
8
BLACK
6
CONTINUOUS
10
75.6626
20
-72.4954
11
75.9092
21
-72.5977
0
LINE
8
BLACK
6
CONTINUOUS
10
75.9092
20
-72.5977
11
76.0081
21
-72.6256
0
LINE
8
BLACK
6
CONTINUOUS
10
76.0081
20
-72.6256
11
76.1438
21
-72.6479
0
LINE
8
BLACK
6
CONTINUOUS
10
76.1438
20
-72.6479
11
76.3061
21
-72.6575
0
LINE
8
BLACK
6
CONTINUOUS
10
76.3061
20
-72.6575
11
76.4761
21
-72.6547
0
LINE
8
BLACK
6
CONTINUOUS
10
76.4761
20
-72.6547
11
76.6351
21
-72.6398
0
LINE
8
BLACK
6
CONTINUOUS
10
76.6351
20
-72.6398
11
76.7632
21
-72.6134
0
LINE
8
BLACK
6
CONTINUOUS
10
76.7632
20
-72.6134
11
77.0171
21
-72.5139
0
LINE
8
BLACK
6
CONTINUOUS
10
77.0171
20
-72.5139
11
77.252
21
-72.3746
0
LINE
8
BLACK
6
CONTINUOUS
10
77.252
20
-72.3746
11
77.4599
21
-72.2015
0
LINE
8
BLACK
6
CONTINUOUS
10
77.4599
20
-72.2015
11
77.6324
21
-72.0007
0
LINE
8
BLACK
6
CONTINUOUS
10
77.6324
20
-72.0007
11
77.66
21
-71.9606
0
LINE
8
BLACK
6
CONTINUOUS
10
77.66
20
-71.9606
11
77.7803
21
-71.7371
0
LINE
8
BLACK
6
CONTINUOUS
10
77.7803
20
-71.7371
11
77.8624
21
-71.4918
0
LINE
8
BLACK
6
CONTINUOUS
10
77.8624
20
-71.4918
11
77.9041
21
-71.2359
0
LINE
8
BLACK
6
CONTINUOUS
10
77.9041
20
-71.2359
11
77.9032
21
-70.9806
0
LINE
8
BLACK
6
CONTINUOUS
10
77.9032
20
-70.9806
11
77.8825
21
-70.8382
0
LINE
8
BLACK
6
CONTINUOUS
10
77.8825
20
-70.8382
11
77.8051
21
-70.5718
0
LINE
8
BLACK
6
CONTINUOUS
10
77.8051
20
-70.5718
11
77.6883
21
-70.3307
0
LINE
8
BLACK
6
CONTINUOUS
10
77.6883
20
-70.3307
11
77.5367
21
-70.1176
0
LINE
8
BLACK
6
CONTINUOUS
10
77.5367
20
-70.1176
11
77.3545
21
-69.9356
0
LINE
8
BLACK
6
CONTINUOUS
10
77.3545
20
-69.9356
11
77.1461
21
-69.7875
0
LINE
8
BLACK
6
CONTINUOUS
10
77.1461
20
-69.7875
11
76.9159
21
-69.6762
0
LINE
8
BLACK
6
CONTINUOUS
10
76.9159
20
-69.6762
11
76.6682
21
-69.6048
0
LINE
8
BLACK
6
CONTINUOUS
10
76.6682
20
-69.6048
11
76.4074
21
-69.576
0
LINE
8
BLACK
6
CONTINUOUS
10
76.4074
20
-69.576
11
76.1379
21
-69.5929
0
LINE
8
BLACK
6
CONTINUOUS
10
76.1379
20
-69.5929
11
76.0453
21
-69.6095
0
LINE
8
BLACK
6
CONTINUOUS
10
76.0453
20
-69.6095
11
75.7889
21
-69.6877
0
LINE
8
BLACK
6
CONTINUOUS
10
75.7889
20
-69.6877
11
75.553
21
-69.8085
0
LINE
8
BLACK
6
CONTINUOUS
10
75.553
20
-69.8085
11
75.3419
21
-69.9677
0
LINE
8
BLACK
6
CONTINUOUS
10
75.3419
20
-69.9677
11
75.1602
21
-70.1608
0
LINE
8
BLACK
6
CONTINUOUS
10
75.1602
20
-70.1608
11
75.0123
21
-70.3835
0
LINE
8
BLACK
6
CONTINUOUS
10
75.0123
20
-70.3835
11
74.9028
21
-70.6313
0
LINE
8
BLACK
6
CONTINUOUS
10
74.9028
20
-70.6313
11
74.8663
21
-70.7532
0
LINE
8
BLACK
6
CONTINUOUS
10
74.8663
20
-70.7532
11
74.8237
21
-71.0151
0
LINE
8
BLACK
6
CONTINUOUS
10
74.8237
20
-71.0151
11
67.769
21
-71.0151
0
LINE
8
BLACK
6
CONTINUOUS
10
67.769
20
-71.0151
11
67.7754
21
-70.9514
0
LINE
8
BLACK
6
CONTINUOUS
10
67.7754
20
-70.9514
11
67.7945
21
-70.8386
0
LINE
8
BLACK
6
CONTINUOUS
10
67.7945
20
-70.8386
11
67.8206
21
-70.7381
0
LINE
8
BLACK
6
CONTINUOUS
10
67.8206
20
-70.7381
11
67.8548
21
-70.6424
0
LINE
8
BLACK
6
CONTINUOUS
10
67.8548
20
-70.6424
11
67.898
21
-70.5442
0
LINE
8
BLACK
6
CONTINUOUS
10
67.898
20
-70.5442
11
67.9057
21
-70.528
0
LINE
8
BLACK
6
CONTINUOUS
10
67.9057
20
-70.528
11
68.0494
21
-70.2757
0
LINE
8
BLACK
6
CONTINUOUS
10
68.0494
20
-70.2757
11
68.2215
21
-70.0626
0
LINE
8
BLACK
6
CONTINUOUS
10
68.2215
20
-70.0626
11
68.4262
21
-69.8842
0
LINE
8
BLACK
6
CONTINUOUS
10
68.4262
20
-69.8842
11
68.6676
21
-69.7365
0
LINE
8
BLACK
6
CONTINUOUS
10
68.6676
20
-69.7365
11
68.7031
21
-69.7187
0
LINE
8
BLACK
6
CONTINUOUS
10
68.7031
20
-69.7187
11
68.7432
21
-69.6986
0
LINE
8
BLACK
6
CONTINUOUS
10
68.7432
20
-69.6986
11
68.7791
21
-69.68
0
LINE
8
BLACK
6
CONTINUOUS
10
68.7791
20
-69.68
11
68.8129
21
-69.6631
0
LINE
8
BLACK
6
CONTINUOUS
10
68.8129
20
-69.6631
11
68.8466
21
-69.6477
0
LINE
8
BLACK
6
CONTINUOUS
10
68.8466
20
-69.6477
11
68.8826
21
-69.6337
0
LINE
8
BLACK
6
CONTINUOUS
10
68.8826
20
-69.6337
11
68.923
21
-69.6211
0
LINE
8
BLACK
6
CONTINUOUS
10
68.923
20
-69.6211
11
68.9699
21
-69.6098
0
LINE
8
BLACK
6
CONTINUOUS
10
68.9699
20
-69.6098
11
69.0254
21
-69.5997
0
LINE
8
BLACK
6
CONTINUOUS
10
69.0254
20
-69.5997
11
69.0918
21
-69.5908
0
LINE
8
BLACK
6
CONTINUOUS
10
69.0918
20
-69.5908
11
69.1712
21
-69.5829
0
LINE
8
BLACK
6
CONTINUOUS
10
69.1712
20
-69.5829
11
69.2657
21
-69.5761
0
LINE
8
BLACK
6
CONTINUOUS
10
69.2657
20
-69.5761
11
69.3776
21
-69.5702
0
LINE
8
BLACK
6
CONTINUOUS
10
69.3776
20
-69.5702
11
69.5089
21
-69.5652
0
LINE
8
BLACK
6
CONTINUOUS
10
69.5089
20
-69.5652
11
69.6619
21
-69.561
0
LINE
8
BLACK
6
CONTINUOUS
10
69.6619
20
-69.561
11
69.8387
21
-69.5576
0
LINE
8
BLACK
6
CONTINUOUS
10
69.8387
20
-69.5576
11
70.0414
21
-69.5548
0
LINE
8
BLACK
6
CONTINUOUS
10
70.0414
20
-69.5548
11
70.2722
21
-69.5526
0
LINE
8
BLACK
6
CONTINUOUS
10
70.2722
20
-69.5526
11
70.5333
21
-69.5509
0
LINE
8
BLACK
6
CONTINUOUS
10
70.5333
20
-69.5509
11
70.8269
21
-69.5497
0
LINE
8
BLACK
6
CONTINUOUS
10
70.8269
20
-69.5497
11
71.155
21
-69.5488
0
LINE
8
BLACK
6
CONTINUOUS
10
71.155
20
-69.5488
11
71.5199
21
-69.5483
0
LINE
8
BLACK
6
CONTINUOUS
10
71.5199
20
-69.5483
11
71.9237
21
-69.548
0
LINE
8
BLACK
6
CONTINUOUS
10
71.9237
20
-69.548
11
72.3686
21
-69.5479
0
LINE
8
BLACK
6
CONTINUOUS
10
72.3686
20
-69.5479
11
72.8567
21
-69.5479
0
LINE
8
BLACK
6
CONTINUOUS
10
72.8567
20
-69.5479
11
73.3902
21
-69.5479
0
LINE
8
BLACK
6
CONTINUOUS
10
73.3902
20
-69.5479
11
73.9431
21
-69.5479
0
LINE
8
BLACK
6
CONTINUOUS
10
73.9431
20
-69.5479
11
78.6374
21
-69.5475
0
LINE
8
BLACK
6
CONTINUOUS
10
78.6374
20
-69.5475
11
78.6374
21
-69.7707
0
LINE
8
BLACK
6
CONTINUOUS
10
78.6374
20
-69.7707
11
78.3397
21
-69.7707
0
LINE
8
BLACK
6
CONTINUOUS
10
78.3397
20
-69.7707
11
78.3397
21
-72.4744
0
LINE
8
BLACK
6
CONTINUOUS
10
78.3397
20
-72.4744
11
78.6374
21
-72.4744
0
LINE
8
BLACK
6
CONTINUOUS
10
78.6374
20
-72.4744
11
78.6374
21
-73.5396
0
LINE
8
BLACK
6
CONTINUOUS
10
78.6374
20
-73.5396
11
75.7662
21
-73.5473
0
LINE
8
BLACK
6
CONTINUOUS
10
75.7662
20
-73.5473
11
75.3207
21
-73.5485
0
LINE
8
BLACK
6
CONTINUOUS
10
75.3207
20
-73.5485
11
74.922
21
-73.5494
0
LINE
8
BLACK
6
CONTINUOUS
10
74.922
20
-73.5494
11
74.5671
21
-73.5503
0
LINE
8
BLACK
6
CONTINUOUS
10
74.5671
20
-73.5503
11
74.2531
21
-73.5514
0
LINE
8
BLACK
6
CONTINUOUS
10
74.2531
20
-73.5514
11
73.9772
21
-73.5528
0
LINE
8
BLACK
6
CONTINUOUS
10
73.9772
20
-73.5528
11
73.7365
21
-73.5547
0
LINE
8
BLACK
6
CONTINUOUS
10
73.7365
20
-73.5547
11
73.528
21
-73.5573
0
LINE
8
BLACK
6
CONTINUOUS
10
73.528
20
-73.5573
11
73.349
21
-73.5607
0
LINE
8
BLACK
6
CONTINUOUS
10
73.349
20
-73.5607
11
73.1965
21
-73.5651
0
LINE
8
BLACK
6
CONTINUOUS
10
73.1965
20
-73.5651
11
73.0675
21
-73.5706
0
LINE
8
BLACK
6
CONTINUOUS
10
73.0675
20
-73.5706
11
72.9594
21
-73.5775
0
LINE
8
BLACK
6
CONTINUOUS
10
72.9594
20
-73.5775
11
72.8691
21
-73.5859
0
LINE
8
BLACK
6
CONTINUOUS
10
72.8691
20
-73.5859
11
72.8508
21
-73.5884
0
LINE
8
BLACK
6
CONTINUOUS
10
72.8508
20
-73.5884
11
72.7937
21
-73.596
0
LINE
8
BLACK
6
CONTINUOUS
10
72.7937
20
-73.596
11
72.7304
21
-73.6079
0
LINE
8
BLACK
6
CONTINUOUS
10
72.7304
20
-54.5579
11
72.6763
21
-54.5718
0
LINE
8
BLACK
6
CONTINUOUS
10
72.6763
20
-54.5718
11
72.6285
21
-54.5879
0
LINE
8
BLACK
6
CONTINUOUS
10
72.6285
20
-54.5879
11
72.5842
21
-54.6063
0
LINE
8
BLACK
6
CONTINUOUS
10
72.5842
20
-54.6063
11
72.5403
21
-54.6272
0
LINE
8
BLACK
6
CONTINUOUS
10
72.5403
20
-54.6272
11
72.4941
21
-54.6508
0
LINE
8
BLACK
6
CONTINUOUS
10
72.4941
20
-54.6508
11
72.4427
21
-54.6773
0
LINE
8
BLACK
6
CONTINUOUS
10
72.4427
20
-54.6773
11
72.4122
21
-54.6925
0
LINE
8
BLACK
6
CONTINUOUS
10
72.4122
20
-54.6925
11
72.2843
21
-54.7624
0
LINE
8
BLACK
6
CONTINUOUS
10
72.2843
20
-54.7624
11
72.1743
21
-54.8395
0
LINE
8
BLACK
6
CONTINUOUS
10
72.1743
20
-54.8395
11
72.0631
21
-54.9382
0
LINE
8
BLACK
6
CONTINUOUS
10
72.0631
20
-54.9382
11
72.0153
21
-54.9854
0
LINE
8
BLACK
6
CONTINUOUS
10
72.0153
20
-54.9854
11
71.8218
21
-55.2116
0
LINE
8
BLACK
6
CONTINUOUS
10
71.8218
20
-55.2116
11
71.6759
21
-55.4506
0
LINE
8
BLACK
6
CONTINUOUS
10
71.6759
20
-55.4506
11
71.5778
21
-55.7018
0
LINE
8
BLACK
6
CONTINUOUS
10
71.5778
20
-55.7018
11
71.5277
21
-55.9647
0
LINE
8
BLACK
6
CONTINUOUS
10
71.5277
20
-55.9647
11
71.525
21
-55.9956
0
LINE
8
BLACK
6
CONTINUOUS
10
71.525
20
-55.9956
11
71.5113
21
-56.1777
0
LINE
8
BLACK
6
CONTINUOUS
10
71.5113
20
-56.1777
11
67.7481
21
-56.1777
0
LINE
8
BLACK
6
CONTINUOUS
10
67.7481
20
-56.1777
11
67.7481
21
-55.9545
0
LINE
8
BLACK
6
CONTINUOUS
10
67.7481
20
-55.9545
11
68.0458
21
-55.9545
0
LINE
8
BLACK
6
CONTINUOUS
10
68.0458
20
-55.9545
11
68.0458
21
-54.6363
0
LINE
8
BLACK
6
CONTINUOUS
10
68.0458
20
-54.6363
11
68.4779
21
-54.6363
0
LINE
8
BLACK
6
CONTINUOUS
10
68.4779
20
-54.6363
11
68.5041
21
-54.8958
0
LINE
8
BLACK
6
CONTINUOUS
10
68.5041
20
-54.8958
11
68.5734
21
-55.1447
0
LINE
8
BLACK
6
CONTINUOUS
10
68.5734
20
-55.1447
11
68.6837
21
-55.3782
0
LINE
8
BLACK
6
CONTINUOUS
10
68.6837
20
-55.3782
11
68.8328
21
-55.5912
0
LINE
8
BLACK
6
CONTINUOUS
10
68.8328
20
-55.5912
11
69.0187
21
-55.7788
0
LINE
8
BLACK
6
CONTINUOUS
10
69.0187
20
-55.7788
11
69.2392
21
-55.9361
0
LINE
8
BLACK
6
CONTINUOUS
10
69.2392
20
-55.9361
11
69.375
21
-56.0082
0
LINE
8
BLACK
6
CONTINUOUS
10
69.375
20
-56.0082
11
69.6215
21
-56.0983
0
LINE
8
BLACK
6
CONTINUOUS
10
69.6215
20
-56.0983
11
69.8755
21
-56.1429
0
LINE
8
BLACK
6
CONTINUOUS
10
69.8755
20
-56.1429
11
70.1311
21
-56.1439
0
LINE
8
BLACK
6
CONTINUOUS
10
70.1311
20
-56.1439
11
70.3826
21
-56.1033
0
LINE
8
BLACK
6
CONTINUOUS
10
70.3826
20
-56.1033
11
70.624
21
-56.0232
0
LINE
8
BLACK
6
CONTINUOUS
10
70.624
20
-56.0232
11
70.8495
21
-55.9055
0
LINE
8
BLACK
6
CONTINUOUS
10
70.8495
20
-55.9055
11
71.0532
21
-55.7523
0
LINE
8
BLACK
6
CONTINUOUS
10
71.0532
20
-55.7523
11
71.2294
21
-55.5655
0
LINE
8
BLACK
6
CONTINUOUS
10
71.2294
20
-55.5655
11
71.3721
21
-55.3472
0
LINE
8
BLACK
6
CONTINUOUS
10
71.3721
20
-55.3472
11
71.3882
21
-55.316
0
LINE
8
BLACK
6
CONTINUOUS
10
71.3882
20
-55.316
11
71.4922
21
-55.0573
0
LINE
8
BLACK
6
CONTINUOUS
10
71.4922
20
-55.0573
11
71.5492
21
-54.7966
0
LINE
8
BLACK
6
CONTINUOUS
10
71.5492
20
-54.7966
11
71.5615
21
-54.5384
0
LINE
8
BLACK
6
CONTINUOUS
10
71.5615
20
-54.5384
11
71.5313
21
-54.2869
0
LINE
8
BLACK
6
CONTINUOUS
10
71.5313
20
-54.2869
11
71.4607
21
-54.0466
0
LINE
8
BLACK
6
CONTINUOUS
10
71.4607
20
-54.0466
11
71.3521
21
-53.822
0
LINE
8
BLACK
6
CONTINUOUS
10
71.3521
20
-53.822
11
71.2076
21
-53.6174
0
LINE
8
BLACK
6
CONTINUOUS
10
71.2076
20
-53.6174
11
71.0295
21
-53.4373
0
LINE
8
BLACK
6
CONTINUOUS
10
71.0295
20
-53.4373
11
70.82
21
-53.286
0
LINE
8
BLACK
6
CONTINUOUS
10
70.82
20
-53.286
11
70.5813
21
-53.1679
0
LINE
8
BLACK
6
CONTINUOUS
10
70.5813
20
-53.1679
11
70.3156
21
-53.0876
0
LINE
8
BLACK
6
CONTINUOUS
10
70.3156
20
-53.0876
11
70.2594
21
-53.0764
0
LINE
8
BLACK
6
CONTINUOUS
10
70.2594
20
-53.0764
11
70.1059
21
-53.0623
0
LINE
8
BLACK
6
CONTINUOUS
10
70.1059
20
-53.0623
11
69.9273
21
-53.0677
0
LINE
8
BLACK
6
CONTINUOUS
10
69.9273
20
-53.0677
11
69.7433
21
-53.0908
0
LINE
8
BLACK
6
CONTINUOUS
10
69.7433
20
-53.0908
11
69.5737
21
-53.1299
0
LINE
8
BLACK
6
CONTINUOUS
10
69.5737
20
-53.1299
11
69.54
21
-53.1405
0
LINE
8
BLACK
6
CONTINUOUS
10
69.54
20
-53.1405
11
69.3639
21
-53.2082
0
LINE
8
BLACK
6
CONTINUOUS
10
69.3639
20
-53.2082
11
69.2158
21
-53.2872
0
LINE
8
BLACK
6
CONTINUOUS
10
69.2158
20
-53.2872
11
69.0763
21
-53.3891
0
LINE
8
BLACK
6
CONTINUOUS
10
69.0763
20
-53.3891
11
68.973
21
-53.4805
0
LINE
8
BLACK
6
CONTINUOUS
10
68.973
20
-53.4805
11
68.7992
21
-53.6673
0
LINE
8
BLACK
6
CONTINUOUS
10
68.7992
20
-53.6673
11
68.6669
21
-53.8669
0
LINE
8
BLACK
6
CONTINUOUS
10
68.6669
20
-53.8669
11
68.5679
21
-54.0918
0
LINE
8
BLACK
6
CONTINUOUS
10
68.5679
20
-54.0918
11
68.5632
21
-54.1054
0
LINE
8
BLACK
6
CONTINUOUS
10
68.5632
20
-54.1054
11
68.4969
21
-54.3712
0
LINE
8
BLACK
6
CONTINUOUS
10
68.4969
20
-54.3712
11
68.4779
21
-54.6363
0
LINE
8
BLACK
6
CONTINUOUS
10
68.4779
20
-54.6363
11
68.0458
21
-54.6363
0
LINE
8
BLACK
6
CONTINUOUS
10
68.0458
20
-54.6363
11
68.0458
21
-53.2508
0
LINE
8
BLACK
6
CONTINUOUS
10
68.0458
20
-53.2508
11
67.7481
21
-53.2508
0
LINE
8
BLACK
6
CONTINUOUS
10
67.7481
20
-53.2508
11
67.7485
21
-52.6245
0
LINE
8
BLACK
6
CONTINUOUS
10
67.7485
20
-52.6245
11
67.7498
21
-52.388
0
LINE
8
BLACK
6
CONTINUOUS
10
67.7498
20
-52.388
11
67.7541
21
-52.1936
0
LINE
8
BLACK
6
CONTINUOUS
10
67.7541
20
-52.1936
11
67.7622
21
-52.0339
0
LINE
8
BLACK
6
CONTINUOUS
10
67.7622
20
-52.0339
11
67.769
21
-51.9651
0
LINE
8
BLACK
6
CONTINUOUS
10
67.769
20
-51.9651
11
74.8237
21
-51.9651
0
LINE
8
BLACK
6
CONTINUOUS
10
74.8237
20
-51.9651
11
74.8276
21
-52.2242
0
LINE
8
BLACK
6
CONTINUOUS
10
74.8276
20
-52.2242
11
74.8752
21
-52.4756
0
LINE
8
BLACK
6
CONTINUOUS
10
74.8752
20
-52.4756
11
74.9633
21
-52.7143
0
LINE
8
BLACK
6
CONTINUOUS
10
74.9633
20
-52.7143
11
75.0892
21
-52.9356
0
LINE
8
BLACK
6
CONTINUOUS
10
75.0892
20
-52.9356
11
75.2496
21
-53.1344
0
LINE
8
BLACK
6
CONTINUOUS
10
75.2496
20
-53.1344
11
75.4418
21
-53.306
0
LINE
8
BLACK
6
CONTINUOUS
10
75.4418
20
-53.306
11
75.6626
21
-53.4454
0
LINE
8
BLACK
6
CONTINUOUS
10
75.6626
20
-53.4454
11
75.9092
21
-53.5477
0
LINE
8
BLACK
6
CONTINUOUS
10
75.9092
20
-53.5477
11
76.0081
21
-53.5756
0
LINE
8
BLACK
6
CONTINUOUS
10
76.0081
20
-53.5756
11
76.1438
21
-53.5979
0
LINE
8
BLACK
6
CONTINUOUS
10
76.1438
20
-53.5979
11
76.3061
21
-53.6075
0
LINE
8
BLACK
6
CONTINUOUS
10
76.3061
20
-53.6075
11
76.4761
21
-53.6047
0
LINE
8
BLACK
6
CONTINUOUS
10
76.4761
20
-53.6047
11
76.6351
21
-53.5898
0
LINE
8
BLACK
6
CONTINUOUS
10
76.6351
20
-53.5898
11
76.7632
21
-53.5634
0
LINE
8
BLACK
6
CONTINUOUS
10
76.7632
20
-53.5634
11
77.0171
21
-53.4639
0
LINE
8
BLACK
6
CONTINUOUS
10
77.0171
20
-53.4639
11
77.252
21
-53.3246
0
LINE
8
BLACK
6
CONTINUOUS
10
77.252
20
-53.3246
11
77.4599
21
-53.1515
0
LINE
8
BLACK
6
CONTINUOUS
10
77.4599
20
-53.1515
11
77.6324
21
-52.9507
0
LINE
8
BLACK
6
CONTINUOUS
10
77.6324
20
-52.9507
11
77.66
21
-52.9106
0
LINE
8
BLACK
6
CONTINUOUS
10
77.66
20
-52.9106
11
77.7803
21
-52.6871
0
LINE
8
BLACK
6
CONTINUOUS
10
77.7803
20
-52.6871
11
77.8624
21
-52.4418
0
LINE
8
BLACK
6
CONTINUOUS
10
77.8624
20
-52.4418
11
77.9041
21
-52.1859
0
LINE
8
BLACK
6
CONTINUOUS
10
77.9041
20
-52.1859
11
77.9032
21
-51.9306
0
LINE
8
BLACK
6
CONTINUOUS
10
77.9032
20
-51.9306
11
77.8825
21
-51.7882
0
LINE
8
BLACK
6
CONTINUOUS
10
77.8825
20
-51.7882
11
77.8051
21
-51.5218
0
LINE
8
BLACK
6
CONTINUOUS
10
77.8051
20
-51.5218
11
77.6883
21
-51.2807
0
LINE
8
BLACK
6
CONTINUOUS
10
77.6883
20
-51.2807
11
77.5367
21
-51.0676
0
LINE
8
BLACK
6
CONTINUOUS
10
77.5367
20
-51.0676
11
77.3545
21
-50.8856
0
LINE
8
BLACK
6
CONTINUOUS
10
77.3545
20
-50.8856
11
77.1461
21
-50.7375
0
LINE
8
BLACK
6
CONTINUOUS
10
77.1461
20
-50.7375
11
76.9159
21
-50.6262
0
LINE
8
BLACK
6
CONTINUOUS
10
76.9159
20
-50.6262
11
76.6682
21
-50.5548
0
LINE
8
BLACK
6
CONTINUOUS
10
76.6682
20
-50.5548
11
76.4074
21
-50.526
0
LINE
8
BLACK
6
CONTINUOUS
10
76.4074
20
-50.526
11
76.1379
21
-50.5429
0
LINE
8
BLACK
6
CONTINUOUS
10
76.1379
20
-50.5429
11
76.0453
21
-50.5595
0
LINE
8
BLACK
6
CONTINUOUS
10
76.0453
20
-50.5595
11
75.7889
21
-50.6377
0
LINE
8
BLACK
6
CONTINUOUS
10
75.7889
20
-50.6377
11
75.553
21
-50.7585
0
LINE
8
BLACK
6
CONTINUOUS
10
75.553
20
-50.7585
11
75.3419
21
-50.9177
0
LINE
8
BLACK
6
CONTINUOUS
10
75.3419
20
-50.9177
11
75.1602
21
-51.1108
0
LINE
8
BLACK
6
CONTINUOUS
10
75.1602
20
-51.1108
11
75.0123
21
-51.3335
0
LINE
8
BLACK
6
CONTINUOUS
10
75.0123
20
-51.3335
11
74.9028
21
-51.5814
0
LINE
8
BLACK
6
CONTINUOUS
10
74.9028
20
-51.5814
11
74.8663
21
-51.7032
0
LINE
8
BLACK
6
CONTINUOUS
10
74.8663
20
-51.7032
11
74.8237
21
-51.9651
0
LINE
8
BLACK
6
CONTINUOUS
10
74.8237
20
-51.9651
11
67.769
21
-51.9651
0
LINE
8
BLACK
6
CONTINUOUS
10
67.769
20
-51.9651
11
67.7754
21
-51.9014
0
LINE
8
BLACK
6
CONTINUOUS
10
67.7754
20
-51.9014
11
67.7945
21
-51.7886
0
LINE
8
BLACK
6
CONTINUOUS
10
67.7945
20
-51.7886
11
67.8206
21
-51.6881
0
LINE
8
BLACK
6
CONTINUOUS
10
67.8206
20
-51.6881
11
67.8548
21
-51.5924
0
LINE
8
BLACK
6
CONTINUOUS
10
67.8548
20
-51.5924
11
67.898
21
-51.4942
0
LINE
8
BLACK
6
CONTINUOUS
10
67.898
20
-51.4942
11
67.9057
21
-51.478
0
LINE
8
BLACK
6
CONTINUOUS
10
67.9057
20
-51.478
11
68.0494
21
-51.2257
0
LINE
8
BLACK
6
CONTINUOUS
10
68.0494
20
-51.2257
11
68.2215
21
-51.0125
0
LINE
8
BLACK
6
CONTINUOUS
10
68.2215
20
-51.0125
11
68.4262
21
-50.8342
0
LINE
8
BLACK
6
CONTINUOUS
10
68.4262
20
-50.8342
11
68.6676
21
-50.6865
0
LINE
8
BLACK
6
CONTINUOUS
10
68.6676
20
-50.6865
11
68.7031
21
-50.6687
0
LINE
8
BLACK
6
CONTINUOUS
10
68.7031
20
-50.6687
11
68.7432
21
-50.6486
0
LINE
8
BLACK
6
CONTINUOUS
10
68.7432
20
-50.6486
11
68.7791
21
-50.63
0
LINE
8
BLACK
6
CONTINUOUS
10
68.7791
20
-50.63
11
68.8129
21
-50.6131
0
LINE
8
BLACK
6
CONTINUOUS
10
68.8129
20
-50.6131
11
68.8466
21
-50.5977
0
LINE
8
BLACK
6
CONTINUOUS
10
68.8466
20
-50.5977
11
68.8826
21
-50.5837
0
LINE
8
BLACK
6
CONTINUOUS
10
68.8826
20
-50.5837
11
68.923
21
-50.5711
0
LINE
8
BLACK
6
CONTINUOUS
10
68.923
20
-50.5711
11
68.9699
21
-50.5598
0
LINE
8
BLACK
6
CONTINUOUS
10
68.9699
20
-50.5598
11
69.0254
21
-50.5497
0
LINE
8
BLACK
6
CONTINUOUS
10
69.0254
20
-50.5497
11
69.0918
21
-50.5408
0
LINE
8
BLACK
6
CONTINUOUS
10
69.0918
20
-50.5408
11
69.1712
21
-50.5329
0
LINE
8
BLACK
6
CONTINUOUS
10
69.1712
20
-50.5329
11
69.2657
21
-50.5261
0
LINE
8
BLACK
6
CONTINUOUS
10
69.2657
20
-50.5261
11
69.3776
21
-50.5202
0
LINE
8
BLACK
6
CONTINUOUS
10
69.3776
20
-50.5202
11
69.5089
21
-50.5152
0
LINE
8
BLACK
6
CONTINUOUS
10
69.5089
20
-50.5152
11
69.6619
21
-50.511
0
LINE
8
BLACK
6
CONTINUOUS
10
69.6619
20
-50.511
11
69.8387
21
-50.5076
0
LINE
8
BLACK
6
CONTINUOUS
10
69.8387
20
-50.5076
11
70.0414
21
-50.5048
0
LINE
8
BLACK
6
CONTINUOUS
10
70.0414
20
-50.5048
11
70.2722
21
-50.5026
0
LINE
8
BLACK
6
CONTINUOUS
10
70.2722
20
-50.5026
11
70.5333
21
-50.5009
0
LINE
8
BLACK
6
CONTINUOUS
10
70.5333
20
-50.5009
11
70.8269
21
-50.4997
0
LINE
8
BLACK
6
CONTINUOUS
10
70.8269
20
-50.4997
11
71.155
21
-50.4988
0
LINE
8
BLACK
6
CONTINUOUS
10
71.155
20
-50.4988
11
71.5199
21
-50.4983
0
LINE
8
BLACK
6
CONTINUOUS
10
71.5199
20
-50.4983
11
71.9237
21
-50.498
0
LINE
8
BLACK
6
CONTINUOUS
10
71.9237
20
-50.498
11
72.3686
21
-50.4979
0
LINE
8
BLACK
6
CONTINUOUS
10
72.3686
20
-50.4979
11
72.8567
21
-50.4979
0
LINE
8
BLACK
6
CONTINUOUS
10
72.8567
20
-50.4979
11
73.3902
21
-50.4979
0
LINE
8
BLACK
6
CONTINUOUS
10
73.3902
20
-50.4979
11
73.9431
21
-50.4979
0
LINE
8
BLACK
6
CONTINUOUS
10
73.9431
20
-50.4979
11
78.6374
21
-50.4975
0
LINE
8
BLACK
6
CONTINUOUS
10
78.6374
20
-50.4975
11
78.6374
21
-50.7207
0
LINE
8
BLACK
6
CONTINUOUS
10
78.6374
20
-50.7207
11
78.3397
21
-50.7207
0
LINE
8
BLACK
6
CONTINUOUS
10
78.3397
20
-50.7207
11
78.3397
21
-53.4244
0
LINE
8
BLACK
6
CONTINUOUS
10
78.3397
20
-53.4244
11
78.6374
21
-53.4244
0
LINE
8
BLACK
6
CONTINUOUS
10
78.6374
20
-53.4244
11
78.6374
21
-54.4896
0
LINE
8
BLACK
6
CONTINUOUS
10
78.6374
20
-54.4896
11
75.7662
21
-54.4973
0
LINE
8
BLACK
6
CONTINUOUS
10
75.7662
20
-54.4973
11
75.3207
21
-54.4985
0
LINE
8
BLACK
6
CONTINUOUS
10
75.3207
20
-54.4985
11
74.922
21
-54.4994
0
LINE
8
BLACK
6
CONTINUOUS
10
74.922
20
-54.4994
11
74.5671
21
-54.5003
0
LINE
8
BLACK
6
CONTINUOUS
10
74.5671
20
-54.5003
11
74.2531
21
-54.5014
0
LINE
8
BLACK
6
CONTINUOUS
10
74.2531
20
-54.5014
11
73.9772
21
-54.5028
0
LINE
8
BLACK
6
CONTINUOUS
10
73.9772
20
-54.5028
11
73.7365
21
-54.5047
0
LINE
8
BLACK
6
CONTINUOUS
10
73.7365
20
-54.5047
11
73.528
21
-54.5073
0
LINE
8
BLACK
6
CONTINUOUS
10
73.528
20
-54.5073
11
73.349
21
-54.5107
0
LINE
8
BLACK
6
CONTINUOUS
10
73.349
20
-54.5107
11
73.1965
21
-54.5151
0
LINE
8
BLACK
6
CONTINUOUS
10
73.1965
20
-54.5151
11
73.0675
21
-54.5206
0
LINE
8
BLACK
6
CONTINUOUS
10
73.0675
20
-54.5206
11
72.9594
21
-54.5275
0
LINE
8
BLACK
6
CONTINUOUS
10
72.9594
20
-54.5275
11
72.8691
21
-54.5359
0
LINE
8
BLACK
6
CONTINUOUS
10
72.8691
20
-54.5359
11
72.8508
21
-54.5384
0
LINE
8
BLACK
6
CONTINUOUS
10
72.8508
20
-54.5384
11
72.7937
21
-54.546
0
LINE
8
BLACK
6
CONTINUOUS
10
72.7937
20
-54.546
11
72.7304
21
-54.5579
0
LINE
8
BLACK
6
CONTINUOUS
10
91.7804
20
-92.6579
11
91.7263
21
-92.6718
0
LINE
8
BLACK
6
CONTINUOUS
10
91.7263
20
-92.6718
11
91.6785
21
-92.6879
0
LINE
8
BLACK
6
CONTINUOUS
10
91.6785
20
-92.6879
11
91.6342
21
-92.7063
0
LINE
8
BLACK
6
CONTINUOUS
10
91.6342
20
-92.7063
11
91.5903
21
-92.7272
0
LINE
8
BLACK
6
CONTINUOUS
10
91.5903
20
-92.7272
11
91.5441
21
-92.7508
0
LINE
8
BLACK
6
CONTINUOUS
10
91.5441
20
-92.7508
11
91.4927
21
-92.7773
0
LINE
8
BLACK
6
CONTINUOUS
10
91.4927
20
-92.7773
11
91.4622
21
-92.7925
0
LINE
8
BLACK
6
CONTINUOUS
10
91.4622
20
-92.7925
11
91.3343
21
-92.8624
0
LINE
8
BLACK
6
CONTINUOUS
10
91.3343
20
-92.8624
11
91.2243
21
-92.9395
0
LINE
8
BLACK
6
CONTINUOUS
10
91.2243
20
-92.9395
11
91.1131
21
-93.0382
0
LINE
8
BLACK
6
CONTINUOUS
10
91.1131
20
-93.0382
11
91.0653
21
-93.0854
0
LINE
8
BLACK
6
CONTINUOUS
10
91.0653
20
-93.0854
11
90.8718
21
-93.3116
0
LINE
8
BLACK
6
CONTINUOUS
10
90.8718
20
-93.3116
11
90.7259
21
-93.5506
0
LINE
8
BLACK
6
CONTINUOUS
10
90.7259
20
-93.5506
11
90.6278
21
-93.8018
0
LINE
8
BLACK
6
CONTINUOUS
10
90.6278
20
-93.8018
11
90.5777
21
-94.0647
0
LINE
8
BLACK
6
CONTINUOUS
10
90.5777
20
-94.0647
11
90.575
21
-94.0956
0
LINE
8
BLACK
6
CONTINUOUS
10
90.575
20
-94.0956
11
90.5613
21
-94.2777
0
LINE
8
BLACK
6
CONTINUOUS
10
90.5613
20
-94.2777
11
86.7981
21
-94.2777
0
LINE
8
BLACK
6
CONTINUOUS
10
86.7981
20
-94.2777
11
86.7981
21
-94.0545
0
LINE
8
BLACK
6
CONTINUOUS
10
86.7981
20
-94.0545
11
87.0958
21
-94.0545
0
LINE
8
BLACK
6
CONTINUOUS
10
87.0958
20
-94.0545
11
87.0958
21
-92.7363
0
LINE
8
BLACK
6
CONTINUOUS
10
87.0958
20
-92.7363
11
87.5279
21
-92.7363
0
LINE
8
BLACK
6
CONTINUOUS
10
87.5279
20
-92.7363
11
87.5541
21
-92.9958
0
LINE
8
BLACK
6
CONTINUOUS
10
87.5541
20
-92.9958
11
87.6234
21
-93.2447
0
LINE
8
BLACK
6
CONTINUOUS
10
87.6234
20
-93.2447
11
87.7337
21
-93.4782
0
LINE
8
BLACK
6
CONTINUOUS
10
87.7337
20
-93.4782
11
87.8828
21
-93.6912
0
LINE
8
BLACK
6
CONTINUOUS
10
87.8828
20
-93.6912
11
88.0687
21
-93.8788
0
LINE
8
BLACK
6
CONTINUOUS
10
88.0687
20
-93.8788
11
88.2892
21
-94.0361
0
LINE
8
BLACK
6
CONTINUOUS
10
88.2892
20
-94.0361
11
88.425
21
-94.1081
0
LINE
8
BLACK
6
CONTINUOUS
10
88.425
20
-94.1081
11
88.6715
21
-94.1983
0
LINE
8
BLACK
6
CONTINUOUS
10
88.6715
20
-94.1983
11
88.9255
21
-94.2429
0
LINE
8
BLACK
6
CONTINUOUS
10
88.9255
20
-94.2429
11
89.1811
21
-94.2439
0
LINE
8
BLACK
6
CONTINUOUS
10
89.1811
20
-94.2439
11
89.4326
21
-94.2034
0
LINE
8
BLACK
6
CONTINUOUS
10
89.4326
20
-94.2034
11
89.674
21
-94.1232
0
LINE
8
BLACK
6
CONTINUOUS
10
89.674
20
-94.1232
11
89.8995
21
-94.0055
0
LINE
8
BLACK
6
CONTINUOUS
10
89.8995
20
-94.0055
11
90.1032
21
-93.8523
0
LINE
8
BLACK
6
CONTINUOUS
10
90.1032
20
-93.8523
11
90.2794
21
-93.6655
0
LINE
8
BLACK
6
CONTINUOUS
10
90.2794
20
-93.6655
11
90.4221
21
-93.4472
0
LINE
8
BLACK
6
CONTINUOUS
10
90.4221
20
-93.4472
11
90.4382
21
-93.416
0
LINE
8
BLACK
6
CONTINUOUS
10
90.4382
20
-93.416
11
90.5422
21
-93.1573
0
LINE
8
BLACK
6
CONTINUOUS
10
90.5422
20
-93.1573
11
90.5992
21
-92.8966
0
LINE
8
BLACK
6
CONTINUOUS
10
90.5992
20
-92.8966
11
90.6115
21
-92.6384
0
LINE
8
BLACK
6
CONTINUOUS
10
90.6115
20
-92.6384
11
90.5813
21
-92.3869
0
LINE
8
BLACK
6
CONTINUOUS
10
90.5813
20
-92.3869
11
90.5107
21
-92.1466
0
LINE
8
BLACK
6
CONTINUOUS
10
90.5107
20
-92.1466
11
90.4021
21
-91.922
0
LINE
8
BLACK
6
CONTINUOUS
10
90.4021
20
-91.922
11
90.2576
21
-91.7174
0
LINE
8
BLACK
6
CONTINUOUS
10
90.2576
20
-91.7174
11
90.0795
21
-91.5373
0
LINE
8
BLACK
6
CONTINUOUS
10
90.0795
20
-91.5373
11
89.87
21
-91.386
0
LINE
8
BLACK
6
CONTINUOUS
10
89.87
20
-91.386
11
89.6313
21
-91.2679
0
LINE
8
BLACK
6
CONTINUOUS
10
89.6313
20
-91.2679
11
89.3656
21
-91.1876
0
LINE
8
BLACK
6
CONTINUOUS
10
89.3656
20
-91.1876
11
89.3094
21
-91.1764
0
LINE
8
BLACK
6
CONTINUOUS
10
89.3094
20
-91.1764
11
89.1559
21
-91.1623
0
LINE
8
BLACK
6
CONTINUOUS
10
89.1559
20
-91.1623
11
88.9773
21
-91.1677
0
LINE
8
BLACK
6
CONTINUOUS
10
88.9773
20
-91.1677
11
88.7933
21
-91.1908
0
LINE
8
BLACK
6
CONTINUOUS
10
88.7933
20
-91.1908
11
88.6237
21
-91.2299
0
LINE
8
BLACK
6
CONTINUOUS
10
88.6237
20
-91.2299
11
88.59
21
-91.2405
0
LINE
8
BLACK
6
CONTINUOUS
10
88.59
20
-91.2405
11
88.4139
21
-91.3082
0
LINE
8
BLACK
6
CONTINUOUS
10
88.4139
20
-91.3082
11
88.2658
21
-91.3872
0
LINE
8
BLACK
6
CONTINUOUS
10
88.2658
20
-91.3872
11
88.1263
21
-91.4891
0
LINE
8
BLACK
6
CONTINUOUS
10
88.1263
20
-91.4891
11
88.023
21
-91.5805
0
LINE
8
BLACK
6
CONTINUOUS
10
88.023
20
-91.5805
11
87.8492
21
-91.7673
0
LINE
8
BLACK
6
CONTINUOUS
10
87.8492
20
-91.7673
11
87.7169
21
-91.9669
0
LINE
8
BLACK
6
CONTINUOUS
10
87.7169
20
-91.9669
11
87.6179
21
-92.1918
0
LINE
8
BLACK
6
CONTINUOUS
10
87.6179
20
-92.1918
11
87.6132
21
-92.2054
0
LINE
8
BLACK
6
CONTINUOUS
10
87.6132
20
-92.2054
11
87.5469
21
-92.4712
0
LINE
8
BLACK
6
CONTINUOUS
10
87.5469
20
-92.4712
11
87.5279
21
-92.7363
0
LINE
8
BLACK
6
CONTINUOUS
10
87.5279
20
-92.7363
11
87.0958
21
-92.7363
0
LINE
8
BLACK
6
CONTINUOUS
10
87.0958
20
-92.7363
11
87.0958
21
-91.3508
0
LINE
8
BLACK
6
CONTINUOUS
10
87.0958
20
-91.3508
11
86.7981
21
-91.3508
0
LINE
8
BLACK
6
CONTINUOUS
10
86.7981
20
-91.3508
11
86.7985
21
-90.7245
0
LINE
8
BLACK
6
CONTINUOUS
10
86.7985
20
-90.7245
11
86.7998
21
-90.488
0
LINE
8
BLACK
6
CONTINUOUS
10
86.7998
20
-90.488
11
86.8041
21
-90.2936
0
LINE
8
BLACK
6
CONTINUOUS
10
86.8041
20
-90.2936
11
86.8122
21
-90.1339
0
LINE
8
BLACK
6
CONTINUOUS
10
86.8122
20
-90.1339
11
86.819
21
-90.0651
0
LINE
8
BLACK
6
CONTINUOUS
10
86.819
20
-90.0651
11
93.8737
21
-90.0651
0
LINE
8
BLACK
6
CONTINUOUS
10
93.8737
20
-90.0651
11
93.8776
21
-90.3242
0
LINE
8
BLACK
6
CONTINUOUS
10
93.8776
20
-90.3242
11
93.9252
21
-90.5756
0
LINE
8
BLACK
6
CONTINUOUS
10
93.9252
20
-90.5756
11
94.0133
21
-90.8143
0
LINE
8
BLACK
6
CONTINUOUS
10
94.0133
20
-90.8143
11
94.1392
21
-91.0356
0
LINE
8
BLACK
6
CONTINUOUS
10
94.1392
20
-91.0356
11
94.2996
21
-91.2344
0
LINE
8
BLACK
6
CONTINUOUS
10
94.2996
20
-91.2344
11
94.4918
21
-91.406
0
LINE
8
BLACK
6
CONTINUOUS
10
94.4918
20
-91.406
11
94.7126
21
-91.5454
0
LINE
8
BLACK
6
CONTINUOUS
10
94.7126
20
-91.5454
11
94.9592
21
-91.6477
0
LINE
8
BLACK
6
CONTINUOUS
10
94.9592
20
-91.6477
11
95.0581
21
-91.6756
0
LINE
8
BLACK
6
CONTINUOUS
10
95.0581
20
-91.6756
11
95.1938
21
-91.6979
0
LINE
8
BLACK
6
CONTINUOUS
10
95.1938
20
-91.6979
11
95.3561
21
-91.7075
0
LINE
8
BLACK
6
CONTINUOUS
10
95.3561
20
-91.7075
11
95.5261
21
-91.7047
0
LINE
8
BLACK
6
CONTINUOUS
10
95.5261
20
-91.7047
11
95.6851
21
-91.6898
0
LINE
8
BLACK
6
CONTINUOUS
10
95.6851
20
-91.6898
11
95.8132
21
-91.6634
0
LINE
8
BLACK
6
CONTINUOUS
10
95.8132
20
-91.6634
11
96.0671
21
-91.5639
0
LINE
8
BLACK
6
CONTINUOUS
10
96.0671
20
-91.5639
11
96.302
21
-91.4246
0
LINE
8
BLACK
6
CONTINUOUS
10
96.302
20
-91.4246
11
96.5099
21
-91.2515
0
LINE
8
BLACK
6
CONTINUOUS
10
96.5099
20
-91.2515
11
96.6824
21
-91.0507
0
LINE
8
BLACK
6
CONTINUOUS
10
96.6824
20
-91.0507
11
96.71
21
-91.0106
0
LINE
8
BLACK
6
CONTINUOUS
10
96.71
20
-91.0106
11
96.8303
21
-90.7871
0
LINE
8
BLACK
6
CONTINUOUS
10
96.8303
20
-90.7871
11
96.9124
21
-90.5418
0
LINE
8
BLACK
6
CONTINUOUS
10
96.9124
20
-90.5418
11
96.9541
21
-90.2859
0
LINE
8
BLACK
6
CONTINUOUS
10
96.9541
20
-90.2859
11
96.9532
21
-90.0306
0
LINE
8
BLACK
6
CONTINUOUS
10
96.9532
20
-90.0306
11
96.9325
21
-89.8882
0
LINE
8
BLACK
6
CONTINUOUS
10
96.9325
20
-89.8882
11
96.8551
21
-89.6218
0
LINE
8
BLACK
6
CONTINUOUS
10
96.8551
20
-89.6218
11
96.7383
21
-89.3807
0
LINE
8
BLACK
6
CONTINUOUS
10
96.7383
20
-89.3807
11
96.5867
21
-89.1676
0
LINE
8
BLACK
6
CONTINUOUS
10
96.5867
20
-89.1676
11
96.4045
21
-88.9856
0
LINE
8
BLACK
6
CONTINUOUS
10
96.4045
20
-88.9856
11
96.1961
21
-88.8375
0
LINE
8
BLACK
6
CONTINUOUS
10
96.1961
20
-88.8375
11
95.9659
21
-88.7262
0
LINE
8
BLACK
6
CONTINUOUS
10
95.9659
20
-88.7262
11
95.7182
21
-88.6548
0
LINE
8
BLACK
6
CONTINUOUS
10
95.7182
20
-88.6548
11
95.4574
21
-88.626
0
LINE
8
BLACK
6
CONTINUOUS
10
95.4574
20
-88.626
11
95.1879
21
-88.6429
0
LINE
8
BLACK
6
CONTINUOUS
10
95.1879
20
-88.6429
11
95.0953
21
-88.6595
0
LINE
8
BLACK
6
CONTINUOUS
10
95.0953
20
-88.6595
11
94.8389
21
-88.7377
0
LINE
8
BLACK
6
CONTINUOUS
10
94.8389
20
-88.7377
11
94.603
21
-88.8585
0
LINE
8
BLACK
6
CONTINUOUS
10
94.603
20
-88.8585
11
94.3919
21
-89.0177
0
LINE
8
BLACK
6
CONTINUOUS
10
94.3919
20
-89.0177
11
94.2102
21
-89.2108
0
LINE
8
BLACK
6
CONTINUOUS
10
94.2102
20
-89.2108
11
94.0623
21
-89.4335
0
LINE
8
BLACK
6
CONTINUOUS
10
94.0623
20
-89.4335
11
93.9528
21
-89.6813
0
LINE
8
BLACK
6
CONTINUOUS
10
93.9528
20
-89.6813
11
93.9163
21
-89.8032
0
LINE
8
BLACK
6
CONTINUOUS
10
93.9163
20
-89.8032
11
93.8737
21
-90.0651
0
LINE
8
BLACK
6
CONTINUOUS
10
93.8737
20
-90.0651
11
86.819
21
-90.0651
0
LINE
8
BLACK
6
CONTINUOUS
10
86.819
20
-90.0651
11
86.8254
21
-90.0014
0
LINE
8
BLACK
6
CONTINUOUS
10
86.8254
20
-90.0014
11
86.8445
21
-89.8886
0
LINE
8
BLACK
6
CONTINUOUS
10
86.8445
20
-89.8886
11
86.8706
21
-89.7881
0
LINE
8
BLACK
6
CONTINUOUS
10
86.8706
20
-89.7881
11
86.9048
21
-89.6924
0
LINE
8
BLACK
6
CONTINUOUS
10
86.9048
20
-89.6924
11
86.948
21
-89.5942
0
LINE
8
BLACK
6
CONTINUOUS
10
86.948
20
-89.5942
11
86.9557
21
-89.578
0
LINE
8
BLACK
6
CONTINUOUS
10
86.9557
20
-89.578
11
87.0994
21
-89.3257
0
LINE
8
BLACK
6
CONTINUOUS
10
87.0994
20
-89.3257
11
87.2715
21
-89.1125
0
LINE
8
BLACK
6
CONTINUOUS
10
87.2715
20
-89.1125
11
87.4762
21
-88.9342
0
LINE
8
BLACK
6
CONTINUOUS
10
87.4762
20
-88.9342
11
87.7176
21
-88.7865
0
LINE
8
BLACK
6
CONTINUOUS
10
87.7176
20
-88.7865
11
87.7531
21
-88.7687
0
LINE
8
BLACK
6
CONTINUOUS
10
87.7531
20
-88.7687
11
87.7932
21
-88.7486
0
LINE
8
BLACK
6
CONTINUOUS
10
87.7932
20
-88.7486
11
87.8291
21
-88.73
0
LINE
8
BLACK
6
CONTINUOUS
10
87.8291
20
-88.73
11
87.8629
21
-88.7131
0
LINE
8
BLACK
6
CONTINUOUS
10
87.8629
20
-88.7131
11
87.8966
21
-88.6977
0
LINE
8
BLACK
6
CONTINUOUS
10
87.8966
20
-88.6977
11
87.9326
21
-88.6837
0
LINE
8
BLACK
6
CONTINUOUS
10
87.9326
20
-88.6837
11
87.973
21
-88.6711
0
LINE
8
BLACK
6
CONTINUOUS
10
87.973
20
-88.6711
11
88.0199
21
-88.6598
0
LINE
8
BLACK
6
CONTINUOUS
10
88.0199
20
-88.6598
11
88.0754
21
-88.6497
0
LINE
8
BLACK
6
CONTINUOUS
10
88.0754
20
-88.6497
11
88.1418
21
-88.6408
0
LINE
8
BLACK
6
CONTINUOUS
10
88.1418
20
-88.6408
11
88.2212
21
-88.6329
0
LINE
8
BLACK
6
CONTINUOUS
10
88.2212
20
-88.6329
11
88.3157
21
-88.6261
0
LINE
8
BLACK
6
CONTINUOUS
10
88.3157
20
-88.6261
11
88.4276
21
-88.6202
0
LINE
8
BLACK
6
CONTINUOUS
10
88.4276
20
-88.6202
11
88.5589
21
-88.6152
0
LINE
8
BLACK
6
CONTINUOUS
10
88.5589
20
-88.6152
11
88.7119
21
-88.611
0
LINE
8
BLACK
6
CONTINUOUS
10
88.7119
20
-88.611
11
88.8887
21
-88.6076
0
LINE
8
BLACK
6
CONTINUOUS
10
88.8887
20
-88.6076
11
89.0914
21
-88.6048
0
LINE
8
BLACK
6
CONTINUOUS
10
89.0914
20
-88.6048
11
89.3222
21
-88.6026
0
LINE
8
BLACK
6
CONTINUOUS
10
89.3222
20
-88.6026
11
89.5833
21
-88.6009
0
LINE
8
BLACK
6
CONTINUOUS
10
89.5833
20
-88.6009
11
89.8769
21
-88.5997
0
LINE
8
BLACK
6
CONTINUOUS
10
89.8769
20
-88.5997
11
90.205
21
-88.5988
0
LINE
8
BLACK
6
CONTINUOUS
10
90.205
20
-88.5988
11
90.5699
21
-88.5983
0
LINE
8
BLACK
6
CONTINUOUS
10
90.5699
20
-88.5983
11
90.9737
21
-88.598
0
LINE
8
BLACK
6
CONTINUOUS
10
90.9737
20
-88.598
11
91.4186
21
-88.5979
0
LINE
8
BLACK
6
CONTINUOUS
10
91.4186
20
-88.5979
11
91.9067
21
-88.5979
0
LINE
8
BLACK
6
CONTINUOUS
10
91.9067
20
-88.5979
11
92.4402
21
-88.5979
0
LINE
8
BLACK
6
CONTINUOUS
10
92.4402
20
-88.5979
11
92.9931
21
-88.5979
0
LINE
8
BLACK
6
CONTINUOUS
10
92.9931
20
-88.5979
11
97.6874
21
-88.5975
0
LINE
8
BLACK
6
CONTINUOUS
10
97.6874
20
-88.5975
11
97.6874
21
-88.8207
0
LINE
8
BLACK
6
CONTINUOUS
10
97.6874
20
-88.8207
11
97.3897
21
-88.8207
0
LINE
8
BLACK
6
CONTINUOUS
10
97.3897
20
-88.8207
11
97.3897
21
-91.5244
0
LINE
8
BLACK
6
CONTINUOUS
10
97.3897
20
-91.5244
11
97.6874
21
-91.5244
0
LINE
8
BLACK
6
CONTINUOUS
10
97.6874
20
-91.5244
11
97.6874
21
-92.5896
0
LINE
8
BLACK
6
CONTINUOUS
10
97.6874
20
-92.5896
11
94.8162
21
-92.5973
0
LINE
8
BLACK
6
CONTINUOUS
10
94.8162
20
-92.5973
11
94.3707
21
-92.5985
0
LINE
8
BLACK
6
CONTINUOUS
10
94.3707
20
-92.5985
11
93.972
21
-92.5994
0
LINE
8
BLACK
6
CONTINUOUS
10
93.972
20
-92.5994
11
93.6171
21
-92.6003
0
LINE
8
BLACK
6
CONTINUOUS
10
93.6171
20
-92.6003
11
93.3031
21
-92.6014
0
LINE
8
BLACK
6
CONTINUOUS
10
93.3031
20
-92.6014
11
93.0272
21
-92.6028
0
LINE
8
BLACK
6
CONTINUOUS
10
93.0272
20
-92.6028
11
92.7865
21
-92.6047
0
LINE
8
BLACK
6
CONTINUOUS
10
92.7865
20
-92.6047
11
92.578
21
-92.6073
0
LINE
8
BLACK
6
CONTINUOUS
10
92.578
20
-92.6073
11
92.399
21
-92.6107
0
LINE
8
BLACK
6
CONTINUOUS
10
92.399
20
-92.6107
11
92.2465
21
-92.6151
0
LINE
8
BLACK
6
CONTINUOUS
10
92.2465
20
-92.6151
11
92.1175
21
-92.6206
0
LINE
8
BLACK
6
CONTINUOUS
10
92.1175
20
-92.6206
11
92.0094
21
-92.6275
0
LINE
8
BLACK
6
CONTINUOUS
10
92.0094
20
-92.6275
11
91.919
21
-92.6359
0
LINE
8
BLACK
6
CONTINUOUS
10
91.919
20
-92.6359
11
91.9008
21
-92.6384
0
LINE
8
BLACK
6
CONTINUOUS
10
91.9008
20
-92.6384
11
91.8437
21
-92.646
0
LINE
8
BLACK
6
CONTINUOUS
10
91.8437
20
-92.646
11
91.7804
21
-92.6579
0
LINE
8
BLACK
6
CONTINUOUS
10
110.83
20
-54.5579
11
110.776
21
-54.5718
0
LINE
8
BLACK
6
CONTINUOUS
10
110.776
20
-54.5718
11
110.729
21
-54.5879
0
LINE
8
BLACK
6
CONTINUOUS
10
110.729
20
-54.5879
11
110.684
21
-54.6063
0
LINE
8
BLACK
6
CONTINUOUS
10
110.684
20
-54.6063
11
110.64
21
-54.6272
0
LINE
8
BLACK
6
CONTINUOUS
10
110.64
20
-54.6272
11
110.594
21
-54.6508
0
LINE
8
BLACK
6
CONTINUOUS
10
110.594
20
-54.6508
11
110.543
21
-54.6773
0
LINE
8
BLACK
6
CONTINUOUS
10
110.543
20
-54.6773
11
110.512
21
-54.6925
0
LINE
8
BLACK
6
CONTINUOUS
10
110.512
20
-54.6925
11
110.384
21
-54.7624
0
LINE
8
BLACK
6
CONTINUOUS
10
110.384
20
-54.7624
11
110.274
21
-54.8395
0
LINE
8
BLACK
6
CONTINUOUS
10
110.274
20
-54.8395
11
110.163
21
-54.9382
0
LINE
8
BLACK
6
CONTINUOUS
10
110.163
20
-54.9382
11
110.115
21
-54.9854
0
LINE
8
BLACK
6
CONTINUOUS
10
110.115
20
-54.9854
11
109.922
21
-55.2116
0
LINE
8
BLACK
6
CONTINUOUS
10
109.922
20
-55.2116
11
109.776
21
-55.4506
0
LINE
8
BLACK
6
CONTINUOUS
10
109.776
20
-55.4506
11
109.678
21
-55.7018
0
LINE
8
BLACK
6
CONTINUOUS
10
109.678
20
-55.7018
11
109.628
21
-55.9647
0
LINE
8
BLACK
6
CONTINUOUS
10
109.628
20
-55.9647
11
109.625
21
-55.9956
0
LINE
8
BLACK
6
CONTINUOUS
10
109.625
20
-55.9956
11
109.611
21
-56.1777
0
LINE
8
BLACK
6
CONTINUOUS
10
109.611
20
-56.1777
11
105.848
21
-56.1777
0
LINE
8
BLACK
6
CONTINUOUS
10
105.848
20
-56.1777
11
105.848
21
-55.9545
0
LINE
8
BLACK
6
CONTINUOUS
10
105.848
20
-55.9545
11
106.146
21
-55.9545
0
LINE
8
BLACK
6
CONTINUOUS
10
106.146
20
-55.9545
11
106.146
21
-54.6363
0
LINE
8
BLACK
6
CONTINUOUS
10
106.146
20
-54.6363
11
106.578
21
-54.6363
0
LINE
8
BLACK
6
CONTINUOUS
10
106.578
20
-54.6363
11
106.604
21
-54.8958
0
LINE
8
BLACK
6
CONTINUOUS
10
106.604
20
-54.8958
11
106.673
21
-55.1447
0
LINE
8
BLACK
6
CONTINUOUS
10
106.673
20
-55.1447
11
106.784
21
-55.3782
0
LINE
8
BLACK
6
CONTINUOUS
10
106.784
20
-55.3782
11
106.933
21
-55.5912
0
LINE
8
BLACK
6
CONTINUOUS
10
106.933
20
-55.5912
11
107.119
21
-55.7788
0
LINE
8
BLACK
6
CONTINUOUS
10
107.119
20
-55.7788
11
107.339
21
-55.9361
0
LINE
8
BLACK
6
CONTINUOUS
10
107.339
20
-55.9361
11
107.475
21
-56.0082
0
LINE
8
BLACK
6
CONTINUOUS
10
107.475
20
-56.0082
11
107.721
21
-56.0983
0
LINE
8
BLACK
6
CONTINUOUS
10
107.721
20
-56.0983
11
107.975
21
-56.1429
0
LINE
8
BLACK
6
CONTINUOUS
10
107.975
20
-56.1429
11
108.231
21
-56.1439
0
LINE
8
BLACK
6
CONTINUOUS
10
108.231
20
-56.1439
11
108.483
21
-56.1033
0
LINE
8
BLACK
6
CONTINUOUS
10
108.483
20
-56.1033
11
108.724
21
-56.0232
0
LINE
8
BLACK
6
CONTINUOUS
10
108.724
20
-56.0232
11
108.949
21
-55.9055
0
LINE
8
BLACK
6
CONTINUOUS
10
108.949
20
-55.9055
11
109.153
21
-55.7523
0
LINE
8
BLACK
6
CONTINUOUS
10
109.153
20
-55.7523
11
109.329
21
-55.5655
0
LINE
8
BLACK
6
CONTINUOUS
10
109.329
20
-55.5655
11
109.472
21
-55.3472
0
LINE
8
BLACK
6
CONTINUOUS
10
109.472
20
-55.3472
11
109.488
21
-55.316
0
LINE
8
BLACK
6
CONTINUOUS
10
109.488
20
-55.316
11
109.592
21
-55.0573
0
LINE
8
BLACK
6
CONTINUOUS
10
109.592
20
-55.0573
11
109.649
21
-54.7966
0
LINE
8
BLACK
6
CONTINUOUS
10
109.649
20
-54.7966
11
109.662
21
-54.5384
0
LINE
8
BLACK
6
CONTINUOUS
10
109.662
20
-54.5384
11
109.631
21
-54.2869
0
LINE
8
BLACK
6
CONTINUOUS
10
109.631
20
-54.2869
11
109.561
21
-54.0466
0
LINE
8
BLACK
6
CONTINUOUS
10
109.561
20
-54.0466
11
109.452
21
-53.822
0
LINE
8
BLACK
6
CONTINUOUS
10
109.452
20
-53.822
11
109.308
21
-53.6174
0
LINE
8
BLACK
6
CONTINUOUS
10
109.308
20
-53.6174
11
109.13
21
-53.4373
0
LINE
8
BLACK
6
CONTINUOUS
10
109.13
20
-53.4373
11
108.92
21
-53.286
0
LINE
8
BLACK
6
CONTINUOUS
10
108.92
20
-53.286
11
108.681
21
-53.1679
0
LINE
8
BLACK
6
CONTINUOUS
10
108.681
20
-53.1679
11
108.416
21
-53.0876
0
LINE
8
BLACK
6
CONTINUOUS
10
108.416
20
-53.0876
11
108.359
21
-53.0764
0
LINE
8
BLACK
6
CONTINUOUS
10
108.359
20
-53.0764
11
108.206
21
-53.0623
0
LINE
8
BLACK
6
CONTINUOUS
10
108.206
20
-53.0623
11
108.027
21
-53.0677
0
LINE
8
BLACK
6
CONTINUOUS
10
108.027
20
-53.0677
11
107.843
21
-53.0908
0
LINE
8
BLACK
6
CONTINUOUS
10
107.843
20
-53.0908
11
107.674
21
-53.1299
0
LINE
8
BLACK
6
CONTINUOUS
10
107.674
20
-53.1299
11
107.64
21
-53.1405
0
LINE
8
BLACK
6
CONTINUOUS
10
107.64
20
-53.1405
11
107.464
21
-53.2082
0
LINE
8
BLACK
6
CONTINUOUS
10
107.464
20
-53.2082
11
107.316
21
-53.2872
0
LINE
8
BLACK
6
CONTINUOUS
10
107.316
20
-53.2872
11
107.176
21
-53.3891
0
LINE
8
BLACK
6
CONTINUOUS
10
107.176
20
-53.3891
11
107.073
21
-53.4805
0
LINE
8
BLACK
6
CONTINUOUS
10
107.073
20
-53.4805
11
106.899
21
-53.6673
0
LINE
8
BLACK
6
CONTINUOUS
10
106.899
20
-53.6673
11
106.767
21
-53.8669
0
LINE
8
BLACK
6
CONTINUOUS
10
106.767
20
-53.8669
11
106.668
21
-54.0918
0
LINE
8
BLACK
6
CONTINUOUS
10
106.668
20
-54.0918
11
106.663
21
-54.1054
0
LINE
8
BLACK
6
CONTINUOUS
10
106.663
20
-54.1054
11
106.597
21
-54.3712
0
LINE
8
BLACK
6
CONTINUOUS
10
106.597
20
-54.3712
11
106.578
21
-54.6363
0
LINE
8
BLACK
6
CONTINUOUS
10
106.578
20
-54.6363
11
106.146
21
-54.6363
0
LINE
8
BLACK
6
CONTINUOUS
10
106.146
20
-54.6363
11
106.146
21
-53.2508
0
LINE
8
BLACK
6
CONTINUOUS
10
106.146
20
-53.2508
11
105.848
21
-53.2508
0
LINE
8
BLACK
6
CONTINUOUS
10
105.848
20
-53.2508
11
105.849
21
-52.6245
0
LINE
8
BLACK
6
CONTINUOUS
10
105.849
20
-52.6245
11
105.85
21
-52.388
0
LINE
8
BLACK
6
CONTINUOUS
10
105.85
20
-52.388
11
105.854
21
-52.1936
0
LINE
8
BLACK
6
CONTINUOUS
10
105.854
20
-52.1936
11
105.862
21
-52.0339
0
LINE
8
BLACK
6
CONTINUOUS
10
105.862
20
-52.0339
11
105.869
21
-51.9651
0
LINE
8
BLACK
6
CONTINUOUS
10
105.869
20
-51.9651
11
112.924
21
-51.9651
0
LINE
8
BLACK
6
CONTINUOUS
10
112.924
20
-51.9651
11
112.928
21
-52.2242
0
LINE
8
BLACK
6
CONTINUOUS
10
112.928
20
-52.2242
11
112.975
21
-52.4756
0
LINE
8
BLACK
6
CONTINUOUS
10
112.975
20
-52.4756
11
113.063
21
-52.7143
0
LINE
8
BLACK
6
CONTINUOUS
10
113.063
20
-52.7143
11
113.189
21
-52.9356
0
LINE
8
BLACK
6
CONTINUOUS
10
113.189
20
-52.9356
11
113.35
21
-53.1344
0
LINE
8
BLACK
6
CONTINUOUS
10
113.35
20
-53.1344
11
113.542
21
-53.306
0
LINE
8
BLACK
6
CONTINUOUS
10
113.542
20
-53.306
11
113.763
21
-53.4454
0
LINE
8
BLACK
6
CONTINUOUS
10
113.763
20
-53.4454
11
114.009
21
-53.5477
0
LINE
8
BLACK
6
CONTINUOUS
10
114.009
20
-53.5477
11
114.108
21
-53.5756
0
LINE
8
BLACK
6
CONTINUOUS
10
114.108
20
-53.5756
11
114.244
21
-53.5979
0
LINE
8
BLACK
6
CONTINUOUS
10
114.244
20
-53.5979
11
114.406
21
-53.6075
0
LINE
8
BLACK
6
CONTINUOUS
10
114.406
20
-53.6075
11
114.576
21
-53.6047
0
LINE
8
BLACK
6
CONTINUOUS
10
114.576
20
-53.6047
11
114.735
21
-53.5898
0
LINE
8
BLACK
6
CONTINUOUS
10
114.735
20
-53.5898
11
114.863
21
-53.5634
0
LINE
8
BLACK
6
CONTINUOUS
10
114.863
20
-53.5634
11
115.117
21
-53.4639
0
LINE
8
BLACK
6
CONTINUOUS
10
115.117
20
-53.4639
11
115.352
21
-53.3246
0
LINE
8
BLACK
6
CONTINUOUS
10
115.352
20
-53.3246
11
115.56
21
-53.1515
0
LINE
8
BLACK
6
CONTINUOUS
10
115.56
20
-53.1515
11
115.732
21
-52.9507
0
LINE
8
BLACK
6
CONTINUOUS
10
115.732
20
-52.9507
11
115.76
21
-52.9106
0
LINE
8
BLACK
6
CONTINUOUS
10
115.76
20
-52.9106
11
115.88
21
-52.6871
0
LINE
8
BLACK
6
CONTINUOUS
10
115.88
20
-52.6871
11
115.962
21
-52.4418
0
LINE
8
BLACK
6
CONTINUOUS
10
115.962
20
-52.4418
11
116.004
21
-52.1859
0
LINE
8
BLACK
6
CONTINUOUS
10
116.004
20
-52.1859
11
116.003
21
-51.9306
0
LINE
8
BLACK
6
CONTINUOUS
10
116.003
20
-51.9306
11
115.982
21
-51.7882
0
LINE
8
BLACK
6
CONTINUOUS
10
115.982
20
-51.7882
11
115.905
21
-51.5218
0
LINE
8
BLACK
6
CONTINUOUS
10
115.905
20
-51.5218
11
115.788
21
-51.2807
0
LINE
8
BLACK
6
CONTINUOUS
10
115.788
20
-51.2807
11
115.637
21
-51.0676
0
LINE
8
BLACK
6
CONTINUOUS
10
115.637
20
-51.0676
11
115.455
21
-50.8856
0
LINE
8
BLACK
6
CONTINUOUS
10
115.455
20
-50.8856
11
115.246
21
-50.7375
0
LINE
8
BLACK
6
CONTINUOUS
10
115.246
20
-50.7375
11
115.016
21
-50.6262
0
LINE
8
BLACK
6
CONTINUOUS
10
115.016
20
-50.6262
11
114.768
21
-50.5548
0
LINE
8
BLACK
6
CONTINUOUS
10
114.768
20
-50.5548
11
114.507
21
-50.526
0
LINE
8
BLACK
6
CONTINUOUS
10
114.507
20
-50.526
11
114.238
21
-50.5429
0
LINE
8
BLACK
6
CONTINUOUS
10
114.238
20
-50.5429
11
114.145
21
-50.5595
0
LINE
8
BLACK
6
CONTINUOUS
10
114.145
20
-50.5595
11
113.889
21
-50.6377
0
LINE
8
BLACK
6
CONTINUOUS
10
113.889
20
-50.6377
11
113.653
21
-50.7585
0
LINE
8
BLACK
6
CONTINUOUS
10
113.653
20
-50.7585
11
113.442
21
-50.9177
0
LINE
8
BLACK
6
CONTINUOUS
10
113.442
20
-50.9177
11
113.26
21
-51.1108
0
LINE
8
BLACK
6
CONTINUOUS
10
113.26
20
-51.1108
11
113.112
21
-51.3335
0
LINE
8
BLACK
6
CONTINUOUS
10
113.112
20
-51.3335
11
113.003
21
-51.5814
0
LINE
8
BLACK
6
CONTINUOUS
10
113.003
20
-51.5814
11
112.966
21
-51.7032
0
LINE
8
BLACK
6
CONTINUOUS
10
112.966
20
-51.7032
11
112.924
21
-51.9651
0
LINE
8
BLACK
6
CONTINUOUS
10
112.924
20
-51.9651
11
105.869
21
-51.9651
0
LINE
8
BLACK
6
CONTINUOUS
10
105.869
20
-51.9651
11
105.875
21
-51.9014
0
LINE
8
BLACK
6
CONTINUOUS
10
105.875
20
-51.9014
11
105.894
21
-51.7886
0
LINE
8
BLACK
6
CONTINUOUS
10
105.894
20
-51.7886
11
105.921
21
-51.6881
0
LINE
8
BLACK
6
CONTINUOUS
10
105.921
20
-51.6881
11
105.955
21
-51.5924
0
LINE
8
BLACK
6
CONTINUOUS
10
105.955
20
-51.5924
11
105.998
21
-51.4942
0
LINE
8
BLACK
6
CONTINUOUS
10
105.998
20
-51.4942
11
106.006
21
-51.478
0
LINE
8
BLACK
6
CONTINUOUS
10
106.006
20
-51.478
11
106.149
21
-51.2257
0
LINE
8
BLACK
6
CONTINUOUS
10
106.149
20
-51.2257
11
106.321
21
-51.0125
0
LINE
8
BLACK
6
CONTINUOUS
10
106.321
20
-51.0125
11
106.526
21
-50.8342
0
LINE
8
BLACK
6
CONTINUOUS
10
106.526
20
-50.8342
11
106.768
21
-50.6865
0
LINE
8
BLACK
6
CONTINUOUS
10
106.768
20
-50.6865
11
106.803
21
-50.6687
0
LINE
8
BLACK
6
CONTINUOUS
10
106.803
20
-50.6687
11
106.843
21
-50.6486
0
LINE
8
BLACK
6
CONTINUOUS
10
106.843
20
-50.6486
11
106.879
21
-50.63
0
LINE
8
BLACK
6
CONTINUOUS
10
106.879
20
-50.63
11
106.913
21
-50.6131
0
LINE
8
BLACK
6
CONTINUOUS
10
106.913
20
-50.6131
11
106.947
21
-50.5977
0
LINE
8
BLACK
6
CONTINUOUS
10
106.947
20
-50.5977
11
106.983
21
-50.5837
0
LINE
8
BLACK
6
CONTINUOUS
10
106.983
20
-50.5837
11
107.023
21
-50.5711
0
LINE
8
BLACK
6
CONTINUOUS
10
107.023
20
-50.5711
11
107.07
21
-50.5598
0
LINE
8
BLACK
6
CONTINUOUS
10
107.07
20
-50.5598
11
107.125
21
-50.5497
0
LINE
8
BLACK
6
CONTINUOUS
10
107.125
20
-50.5497
11
107.192
21
-50.5408
0
LINE
8
BLACK
6
CONTINUOUS
10
107.192
20
-50.5408
11
107.271
21
-50.5329
0
LINE
8
BLACK
6
CONTINUOUS
10
107.271
20
-50.5329
11
107.366
21
-50.5261
0
LINE
8
BLACK
6
CONTINUOUS
10
107.366
20
-50.5261
11
107.478
21
-50.5202
0
LINE
8
BLACK
6
CONTINUOUS
10
107.478
20
-50.5202
11
107.609
21
-50.5152
0
LINE
8
BLACK
6
CONTINUOUS
10
107.609
20
-50.5152
11
107.762
21
-50.511
0
LINE
8
BLACK
6
CONTINUOUS
10
107.762
20
-50.511
11
107.939
21
-50.5076
0
LINE
8
BLACK
6
CONTINUOUS
10
107.939
20
-50.5076
11
108.141
21
-50.5048
0
LINE
8
BLACK
6
CONTINUOUS
10
108.141
20
-50.5048
11
108.372
21
-50.5026
0
LINE
8
BLACK
6
CONTINUOUS
10
108.372
20
-50.5026
11
108.633
21
-50.5009
0
LINE
8
BLACK
6
CONTINUOUS
10
108.633
20
-50.5009
11
108.927
21
-50.4997
0
LINE
8
BLACK
6
CONTINUOUS
10
108.927
20
-50.4997
11
109.255
21
-50.4988
0
LINE
8
BLACK
6
CONTINUOUS
10
109.255
20
-50.4988
11
109.62
21
-50.4983
0
LINE
8
BLACK
6
CONTINUOUS
10
109.62
20
-50.4983
11
110.024
21
-50.498
0
LINE
8
BLACK
6
CONTINUOUS
10
110.024
20
-50.498
11
110.469
21
-50.4979
0
LINE
8
BLACK
6
CONTINUOUS
10
110.469
20
-50.4979
11
110.957
21
-50.4979
0
LINE
8
BLACK
6
CONTINUOUS
10
110.957
20
-50.4979
11
111.49
21
-50.4979
0
LINE
8
BLACK
6
CONTINUOUS
10
111.49
20
-50.4979
11
112.043
21
-50.4979
0
LINE
8
BLACK
6
CONTINUOUS
10
112.043
20
-50.4979
11
116.737
21
-50.4975
0
LINE
8
BLACK
6
CONTINUOUS
10
116.737
20
-50.4975
11
116.737
21
-50.7207
0
LINE
8
BLACK
6
CONTINUOUS
10
116.737
20
-50.7207
11
116.44
21
-50.7207
0
LINE
8
BLACK
6
CONTINUOUS
10
116.44
20
-50.7207
11
116.44
21
-53.4244
0
LINE
8
BLACK
6
CONTINUOUS
10
116.44
20
-53.4244
11
116.737
21
-53.4244
0
LINE
8
BLACK
6
CONTINUOUS
10
116.737
20
-53.4244
11
116.737
21
-54.4896
0
LINE
8
BLACK
6
CONTINUOUS
10
116.737
20
-54.4896
11
113.866
21
-54.4973
0
LINE
8
BLACK
6
CONTINUOUS
10
113.866
20
-54.4973
11
113.421
21
-54.4985
0
LINE
8
BLACK
6
CONTINUOUS
10
113.421
20
-54.4985
11
113.022
21
-54.4994
0
LINE
8
BLACK
6
CONTINUOUS
10
113.022
20
-54.4994
11
112.667
21
-54.5003
0
LINE
8
BLACK
6
CONTINUOUS
10
112.667
20
-54.5003
11
112.353
21
-54.5014
0
LINE
8
BLACK
6
CONTINUOUS
10
112.353
20
-54.5014
11
112.077
21
-54.5028
0
LINE
8
BLACK
6
CONTINUOUS
10
112.077
20
-54.5028
11
111.836
21
-54.5047
0
LINE
8
BLACK
6
CONTINUOUS
10
111.836
20
-54.5047
11
111.628
21
-54.5073
0
LINE
8
BLACK
6
CONTINUOUS
10
111.628
20
-54.5073
11
111.449
21
-54.5107
0
LINE
8
BLACK
6
CONTINUOUS
10
111.449
20
-54.5107
11
111.296
21
-54.5151
0
LINE
8
BLACK
6
CONTINUOUS
10
111.296
20
-54.5151
11
111.168
21
-54.5206
0
LINE
8
BLACK
6
CONTINUOUS
10
111.168
20
-54.5206
11
111.059
21
-54.5275
0
LINE
8
BLACK
6
CONTINUOUS
10
111.059
20
-54.5275
11
110.969
21
-54.5359
0
LINE
8
BLACK
6
CONTINUOUS
10
110.969
20
-54.5359
11
110.951
21
-54.5384
0
LINE
8
BLACK
6
CONTINUOUS
10
110.951
20
-54.5384
11
110.894
21
-54.546
0
LINE
8
BLACK
6
CONTINUOUS
10
110.894
20
-54.546
11
110.83
21
-54.5579
0
LINE
8
BLACK
6
CONTINUOUS
10
110.83
20
-92.6579
11
110.776
21
-92.6718
0
LINE
8
BLACK
6
CONTINUOUS
10
110.776
20
-92.6718
11
110.729
21
-92.6879
0
LINE
8
BLACK
6
CONTINUOUS
10
110.729
20
-92.6879
11
110.684
21
-92.7063
0
LINE
8
BLACK
6
CONTINUOUS
10
110.684
20
-92.7063
11
110.64
21
-92.7272
0
LINE
8
BLACK
6
CONTINUOUS
10
110.64
20
-92.7272
11
110.594
21
-92.7508
0
LINE
8
BLACK
6
CONTINUOUS
10
110.594
20
-92.7508
11
110.543
21
-92.7773
0
LINE
8
BLACK
6
CONTINUOUS
10
110.543
20
-92.7773
11
110.512
21
-92.7925
0
LINE
8
BLACK
6
CONTINUOUS
10
110.512
20
-92.7925
11
110.384
21
-92.8624
0
LINE
8
BLACK
6
CONTINUOUS
10
110.384
20
-92.8624
11
110.274
21
-92.9395
0
LINE
8
BLACK
6
CONTINUOUS
10
110.274
20
-92.9395
11
110.163
21
-93.0382
0
LINE
8
BLACK
6
CONTINUOUS
10
110.163
20
-93.0382
11
110.115
21
-93.0854
0
LINE
8
BLACK
6
CONTINUOUS
10
110.115
20
-93.0854
11
109.922
21
-93.3116
0
LINE
8
BLACK
6
CONTINUOUS
10
109.922
20
-93.3116
11
109.776
21
-93.5506
0
LINE
8
BLACK
6
CONTINUOUS
10
109.776
20
-93.5506
11
109.678
21
-93.8018
0
LINE
8
BLACK
6
CONTINUOUS
10
109.678
20
-93.8018
11
109.628
21
-94.0647
0
LINE
8
BLACK
6
CONTINUOUS
10
109.628
20
-94.0647
11
109.625
21
-94.0956
0
LINE
8
BLACK
6
CONTINUOUS
10
109.625
20
-94.0956
11
109.611
21
-94.2777
0
LINE
8
BLACK
6
CONTINUOUS
10
109.611
20
-94.2777
11
105.848
21
-94.2777
0
LINE
8
BLACK
6
CONTINUOUS
10
105.848
20
-94.2777
11
105.848
21
-94.0545
0
LINE
8
BLACK
6
CONTINUOUS
10
105.848
20
-94.0545
11
106.146
21
-94.0545
0
LINE
8
BLACK
6
CONTINUOUS
10
106.146
20
-94.0545
11
106.146
21
-92.7363
0
LINE
8
BLACK
6
CONTINUOUS
10
106.146
20
-92.7363
11
106.578
21
-92.7363
0
LINE
8
BLACK
6
CONTINUOUS
10
106.578
20
-92.7363
11
106.604
21
-92.9958
0
LINE
8
BLACK
6
CONTINUOUS
10
106.604
20
-92.9958
11
106.673
21
-93.2447
0
LINE
8
BLACK
6
CONTINUOUS
10
106.673
20
-93.2447
11
106.784
21
-93.4782
0
LINE
8
BLACK
6
CONTINUOUS
10
106.784
20
-93.4782
11
106.933
21
-93.6912
0
LINE
8
BLACK
6
CONTINUOUS
10
106.933
20
-93.6912
11
107.119
21
-93.8788
0
LINE
8
BLACK
6
CONTINUOUS
10
107.119
20
-93.8788
11
107.339
21
-94.0361
0
LINE
8
BLACK
6
CONTINUOUS
10
107.339
20
-94.0361
11
107.475
21
-94.1081
0
LINE
8
BLACK
6
CONTINUOUS
10
107.475
20
-94.1081
11
107.721
21
-94.1983
0
LINE
8
BLACK
6
CONTINUOUS
10
107.721
20
-94.1983
11
107.975
21
-94.2429
0
LINE
8
BLACK
6
CONTINUOUS
10
107.975
20
-94.2429
11
108.231
21
-94.2439
0
LINE
8
BLACK
6
CONTINUOUS
10
108.231
20
-94.2439
11
108.483
21
-94.2034
0
LINE
8
BLACK
6
CONTINUOUS
10
108.483
20
-94.2034
11
108.724
21
-94.1232
0
LINE
8
BLACK
6
CONTINUOUS
10
108.724
20
-94.1232
11
108.949
21
-94.0055
0
LINE
8
BLACK
6
CONTINUOUS
10
108.949
20
-94.0055
11
109.153
21
-93.8523
0
LINE
8
BLACK
6
CONTINUOUS
10
109.153
20
-93.8523
11
109.329
21
-93.6655
0
LINE
8
BLACK
6
CONTINUOUS
10
109.329
20
-93.6655
11
109.472
21
-93.4472
0
LINE
8
BLACK
6
CONTINUOUS
10
109.472
20
-93.4472
11
109.488
21
-93.416
0
LINE
8
BLACK
6
CONTINUOUS
10
109.488
20
-93.416
11
109.592
21
-93.1573
0
LINE
8
BLACK
6
CONTINUOUS
10
109.592
20
-93.1573
11
109.649
21
-92.8966
0
LINE
8
BLACK
6
CONTINUOUS
10
109.649
20
-92.8966
11
109.662
21
-92.6384
0
LINE
8
BLACK
6
CONTINUOUS
10
109.662
20
-92.6384
11
109.631
21
-92.3869
0
LINE
8
BLACK
6
CONTINUOUS
10
109.631
20
-92.3869
11
109.561
21
-92.1466
0
LINE
8
BLACK
6
CONTINUOUS
10
109.561
20
-92.1466
11
109.452
21
-91.922
0
LINE
8
BLACK
6
CONTINUOUS
10
109.452
20
-91.922
11
109.308
21
-91.7174
0
LINE
8
BLACK
6
CONTINUOUS
10
109.308
20
-91.7174
11
109.13
21
-91.5373
0
LINE
8
BLACK
6
CONTINUOUS
10
109.13
20
-91.5373
11
108.92
21
-91.386
0
LINE
8
BLACK
6
CONTINUOUS
10
108.92
20
-91.386
11
108.681
21
-91.2679
0
LINE
8
BLACK
6
CONTINUOUS
10
108.681
20
-91.2679
11
108.416
21
-91.1876
0
LINE
8
BLACK
6
CONTINUOUS
10
108.416
20
-91.1876
11
108.359
21
-91.1764
0
LINE
8
BLACK
6
CONTINUOUS
10
108.359
20
-91.1764
11
108.206
21
-91.1623
0
LINE
8
BLACK
6
CONTINUOUS
10
108.206
20
-91.1623
11
108.027
21
-91.1677
0
LINE
8
BLACK
6
CONTINUOUS
10
108.027
20
-91.1677
11
107.843
21
-91.1908
0
LINE
8
BLACK
6
CONTINUOUS
10
107.843
20
-91.1908
11
107.674
21
-91.2299
0
LINE
8
BLACK
6
CONTINUOUS
10
107.674
20
-91.2299
11
107.64
21
-91.2405
0
LINE
8
BLACK
6
CONTINUOUS
10
107.64
20
-91.2405
11
107.464
21
-91.3082
0
LINE
8
BLACK
6
CONTINUOUS
10
107.464
20
-91.3082
11
107.316
21
-91.3872
0
LINE
8
BLACK
6
CONTINUOUS
10
107.316
20
-91.3872
11
107.176
21
-91.4891
0
LINE
8
BLACK
6
CONTINUOUS
10
107.176
20
-91.4891
11
107.073
21
-91.5805
0
LINE
8
BLACK
6
CONTINUOUS
10
107.073
20
-91.5805
11
106.899
21
-91.7673
0
LINE
8
BLACK
6
CONTINUOUS
10
106.899
20
-91.7673
11
106.767
21
-91.9669
0
LINE
8
BLACK
6
CONTINUOUS
10
106.767
20
-91.9669
11
106.668
21
-92.1918
0
LINE
8
BLACK
6
CONTINUOUS
10
106.668
20
-92.1918
11
106.663
21
-92.2054
0
LINE
8
BLACK
6
CONTINUOUS
10
106.663
20
-92.2054
11
106.597
21
-92.4712
0
LINE
8
BLACK
6
CONTINUOUS
10
106.597
20
-92.4712
11
106.578
21
-92.7363
0
LINE
8
BLACK
6
CONTINUOUS
10
106.578
20
-92.7363
11
106.146
21
-92.7363
0
LINE
8
BLACK
6
CONTINUOUS
10
106.146
20
-92.7363
11
106.146
21
-91.3508
0
LINE
8
BLACK
6
CONTINUOUS
10
106.146
20
-91.3508
11
105.848
21
-91.3508
0
LINE
8
BLACK
6
CONTINUOUS
10
105.848
20
-91.3508
11
105.849
21
-90.7245
0
LINE
8
BLACK
6
CONTINUOUS
10
105.849
20
-90.7245
11
105.85
21
-90.488
0
LINE
8
BLACK
6
CONTINUOUS
10
105.85
20
-90.488
11
105.854
21
-90.2936
0
LINE
8
BLACK
6
CONTINUOUS
10
105.854
20
-90.2936
11
105.862
21
-90.1339
0
LINE
8
BLACK
6
CONTINUOUS
10
105.862
20
-90.1339
11
105.869
21
-90.0651
0
LINE
8
BLACK
6
CONTINUOUS
10
105.869
20
-90.0651
11
112.924
21
-90.0651
0
LINE
8
BLACK
6
CONTINUOUS
10
112.924
20
-90.0651
11
112.928
21
-90.3242
0
LINE
8
BLACK
6
CONTINUOUS
10
112.928
20
-90.3242
11
112.975
21
-90.5756
0
LINE
8
BLACK
6
CONTINUOUS
10
112.975
20
-90.5756
11
113.063
21
-90.8143
0
LINE
8
BLACK
6
CONTINUOUS
10
113.063
20
-90.8143
11
113.189
21
-91.0356
0
LINE
8
BLACK
6
CONTINUOUS
10
113.189
20
-91.0356
11
113.35
21
-91.2344
0
LINE
8
BLACK
6
CONTINUOUS
10
113.35
20
-91.2344
11
113.542
21
-91.406
0
LINE
8
BLACK
6
CONTINUOUS
10
113.542
20
-91.406
11
113.763
21
-91.5454
0
LINE
8
BLACK
6
CONTINUOUS
10
113.763
20
-91.5454
11
114.009
21
-91.6477
0
LINE
8
BLACK
6
CONTINUOUS
10
114.009
20
-91.6477
11
114.108
21
-91.6756
0
LINE
8
BLACK
6
CONTINUOUS
10
114.108
20
-91.6756
11
114.244
21
-91.6979
0
LINE
8
BLACK
6
CONTINUOUS
10
114.244
20
-91.6979
11
114.406
21
-91.7075
0
LINE
8
BLACK
6
CONTINUOUS
10
114.406
20
-91.7075
11
114.576
21
-91.7047
0
LINE
8
BLACK
6
CONTINUOUS
10
114.576
20
-91.7047
11
114.735
21
-91.6898
0
LINE
8
BLACK
6
CONTINUOUS
10
114.735
20
-91.6898
11
114.863
21
-91.6634
0
LINE
8
BLACK
6
CONTINUOUS
10
114.863
20
-91.6634
11
115.117
21
-91.5639
0
LINE
8
BLACK
6
CONTINUOUS
10
115.117
20
-91.5639
11
115.352
21
-91.4246
0
LINE
8
BLACK
6
CONTINUOUS
10
115.352
20
-91.4246
11
115.56
21
-91.2515
0
LINE
8
BLACK
6
CONTINUOUS
10
115.56
20
-91.2515
11
115.732
21
-91.0507
0
LINE
8
BLACK
6
CONTINUOUS
10
115.732
20
-91.0507
11
115.76
21
-91.0106
0
LINE
8
BLACK
6
CONTINUOUS
10
115.76
20
-91.0106
11
115.88
21
-90.7871
0
LINE
8
BLACK
6
CONTINUOUS
10
115.88
20
-90.7871
11
115.962
21
-90.5418
0
LINE
8
BLACK
6
CONTINUOUS
10
115.962
20
-90.5418
11
116.004
21
-90.2859
0
LINE
8
BLACK
6
CONTINUOUS
10
116.004
20
-90.2859
11
116.003
21
-90.0306
0
LINE
8
BLACK
6
CONTINUOUS
10
116.003
20
-90.0306
11
115.982
21
-89.8882
0
LINE
8
BLACK
6
CONTINUOUS
10
115.982
20
-89.8882
11
115.905
21
-89.6218
0
LINE
8
BLACK
6
CONTINUOUS
10
115.905
20
-89.6218
11
115.788
21
-89.3807
0
LINE
8
BLACK
6
CONTINUOUS
10
115.788
20
-89.3807
11
115.637
21
-89.1676
0
LINE
8
BLACK
6
CONTINUOUS
10
115.637
20
-89.1676
11
115.455
21
-88.9856
0
LINE
8
BLACK
6
CONTINUOUS
10
115.455
20
-88.9856
11
115.246
21
-88.8375
0
LINE
8
BLACK
6
CONTINUOUS
10
115.246
20
-88.8375
11
115.016
21
-88.7262
0
LINE
8
BLACK
6
CONTINUOUS
10
115.016
20
-88.7262
11
114.768
21
-88.6548
0
LINE
8
BLACK
6
CONTINUOUS
10
114.768
20
-88.6548
11
114.507
21
-88.626
0
LINE
8
BLACK
6
CONTINUOUS
10
114.507
20
-88.626
11
114.238
21
-88.6429
0
LINE
8
BLACK
6
CONTINUOUS
10
114.238
20
-88.6429
11
114.145
21
-88.6595
0
LINE
8
BLACK
6
CONTINUOUS
10
114.145
20
-88.6595
11
113.889
21
-88.7377
0
LINE
8
BLACK
6
CONTINUOUS
10
113.889
20
-88.7377
11
113.653
21
-88.8585
0
LINE
8
BLACK
6
CONTINUOUS
10
113.653
20
-88.8585
11
113.442
21
-89.0177
0
LINE
8
BLACK
6
CONTINUOUS
10
113.442
20
-89.0177
11
113.26
21
-89.2108
0
LINE
8
BLACK
6
CONTINUOUS
10
113.26
20
-89.2108
11
113.112
21
-89.4335
0
LINE
8
BLACK
6
CONTINUOUS
10
113.112
20
-89.4335
11
113.003
21
-89.6813
0
LINE
8
BLACK
6
CONTINUOUS
10
113.003
20
-89.6813
11
112.966
21
-89.8032
0
LINE
8
BLACK
6
CONTINUOUS
10
112.966
20
-89.8032
11
112.924
21
-90.0651
0
LINE
8
BLACK
6
CONTINUOUS
10
112.924
20
-90.0651
11
105.869
21
-90.0651
0
LINE
8
BLACK
6
CONTINUOUS
10
105.869
20
-90.0651
11
105.875
21
-90.0014
0
LINE
8
BLACK
6
CONTINUOUS
10
105.875
20
-90.0014
11
105.894
21
-89.8886
0
LINE
8
BLACK
6
CONTINUOUS
10
105.894
20
-89.8886
11
105.921
21
-89.7881
0
LINE
8
BLACK
6
CONTINUOUS
10
105.921
20
-89.7881
11
105.955
21
-89.6924
0
LINE
8
BLACK
6
CONTINUOUS
10
105.955
20
-89.6924
11
105.998
21
-89.5942
0
LINE
8
BLACK
6
CONTINUOUS
10
105.998
20
-89.5942
11
106.006
21
-89.578
0
LINE
8
BLACK
6
CONTINUOUS
10
106.006
20
-89.578
11
106.149
21
-89.3257
0
LINE
8
BLACK
6
CONTINUOUS
10
106.149
20
-89.3257
11
106.321
21
-89.1125
0
LINE
8
BLACK
6
CONTINUOUS
10
106.321
20
-89.1125
11
106.526
21
-88.9342
0
LINE
8
BLACK
6
CONTINUOUS
10
106.526
20
-88.9342
11
106.768
21
-88.7865
0
LINE
8
BLACK
6
CONTINUOUS
10
106.768
20
-88.7865
11
106.803
21
-88.7687
0
LINE
8
BLACK
6
CONTINUOUS
10
106.803
20
-88.7687
11
106.843
21
-88.7486
0
LINE
8
BLACK
6
CONTINUOUS
10
106.843
20
-88.7486
11
106.879
21
-88.73
0
LINE
8
BLACK
6
CONTINUOUS
10
106.879
20
-88.73
11
106.913
21
-88.7131
0
LINE
8
BLACK
6
CONTINUOUS
10
106.913
20
-88.7131
11
106.947
21
-88.6977
0
LINE
8
BLACK
6
CONTINUOUS
10
106.947
20
-88.6977
11
106.983
21
-88.6837
0
LINE
8
BLACK
6
CONTINUOUS
10
106.983
20
-88.6837
11
107.023
21
-88.6711
0
LINE
8
BLACK
6
CONTINUOUS
10
107.023
20
-88.6711
11
107.07
21
-88.6598
0
LINE
8
BLACK
6
CONTINUOUS
10
107.07
20
-88.6598
11
107.125
21
-88.6497
0
LINE
8
BLACK
6
CONTINUOUS
10
107.125
20
-88.6497
11
107.192
21
-88.6408
0
LINE
8
BLACK
6
CONTINUOUS
10
107.192
20
-88.6408
11
107.271
21
-88.6329
0
LINE
8
BLACK
6
CONTINUOUS
10
107.271
20
-88.6329
11
107.366
21
-88.6261
0
LINE
8
BLACK
6
CONTINUOUS
10
107.366
20
-88.6261
11
107.478
21
-88.6202
0
LINE
8
BLACK
6
CONTINUOUS
10
107.478
20
-88.6202
11
107.609
21
-88.6152
0
LINE
8
BLACK
6
CONTINUOUS
10
107.609
20
-88.6152
11
107.762
21
-88.611
0
LINE
8
BLACK
6
CONTINUOUS
10
107.762
20
-88.611
11
107.939
21
-88.6076
0
LINE
8
BLACK
6
CONTINUOUS
10
107.939
20
-88.6076
11
108.141
21
-88.6048
0
LINE
8
BLACK
6
CONTINUOUS
10
108.141
20
-88.6048
11
108.372
21
-88.6026
0
LINE
8
BLACK
6
CONTINUOUS
10
108.372
20
-88.6026
11
108.633
21
-88.6009
0
LINE
8
BLACK
6
CONTINUOUS
10
108.633
20
-88.6009
11
108.927
21
-88.5997
0
LINE
8
BLACK
6
CONTINUOUS
10
108.927
20
-88.5997
11
109.255
21
-88.5988
0
LINE
8
BLACK
6
CONTINUOUS
10
109.255
20
-88.5988
11
109.62
21
-88.5983
0
LINE
8
BLACK
6
CONTINUOUS
10
109.62
20
-88.5983
11
110.024
21
-88.598
0
LINE
8
BLACK
6
CONTINUOUS
10
110.024
20
-88.598
11
110.469
21
-88.5979
0
LINE
8
BLACK
6
CONTINUOUS
10
110.469
20
-88.5979
11
110.957
21
-88.5979
0
LINE
8
BLACK
6
CONTINUOUS
10
110.957
20
-88.5979
11
111.49
21
-88.5979
0
LINE
8
BLACK
6
CONTINUOUS
10
111.49
20
-88.5979
11
112.043
21
-88.5979
0
LINE
8
BLACK
6
CONTINUOUS
10
112.043
20
-88.5979
11
116.737
21
-88.5975
0
LINE
8
BLACK
6
CONTINUOUS
10
116.737
20
-88.5975
11
116.737
21
-88.8207
0
LINE
8
BLACK
6
CONTINUOUS
10
116.737
20
-88.8207
11
116.44
21
-88.8207
0
LINE
8
BLACK
6
CONTINUOUS
10
116.44
20
-88.8207
11
116.44
21
-91.5244
0
LINE
8
BLACK
6
CONTINUOUS
10
116.44
20
-91.5244
11
116.737
21
-91.5244
0
LINE
8
BLACK
6
CONTINUOUS
10
116.737
20
-91.5244
11
116.737
21
-92.5896
0
LINE
8
BLACK
6
CONTINUOUS
10
116.737
20
-92.5896
11
113.866
21
-92.5973
0
LINE
8
BLACK
6
CONTINUOUS
10
113.866
20
-92.5973
11
113.421
21
-92.5985
0
LINE
8
BLACK
6
CONTINUOUS
10
113.421
20
-92.5985
11
113.022
21
-92.5994
0
LINE
8
BLACK
6
CONTINUOUS
10
113.022
20
-92.5994
11
112.667
21
-92.6003
0
LINE
8
BLACK
6
CONTINUOUS
10
112.667
20
-92.6003
11
112.353
21
-92.6014
0
LINE
8
BLACK
6
CONTINUOUS
10
112.353
20
-92.6014
11
112.077
21
-92.6028
0
LINE
8
BLACK
6
CONTINUOUS
10
112.077
20
-92.6028
11
111.836
21
-92.6047
0
LINE
8
BLACK
6
CONTINUOUS
10
111.836
20
-92.6047
11
111.628
21
-92.6073
0
LINE
8
BLACK
6
CONTINUOUS
10
111.628
20
-92.6073
11
111.449
21
-92.6107
0
LINE
8
BLACK
6
CONTINUOUS
10
111.449
20
-92.6107
11
111.296
21
-92.6151
0
LINE
8
BLACK
6
CONTINUOUS
10
111.296
20
-92.6151
11
111.168
21
-92.6206
0
LINE
8
BLACK
6
CONTINUOUS
10
111.168
20
-92.6206
11
111.059
21
-92.6275
0
LINE
8
BLACK
6
CONTINUOUS
10
111.059
20
-92.6275
11
110.969
21
-92.6359
0
LINE
8
BLACK
6
CONTINUOUS
10
110.969
20
-92.6359
11
110.951
21
-92.6384
0
LINE
8
BLACK
6
CONTINUOUS
10
110.951
20
-92.6384
11
110.894
21
-92.646
0
LINE
8
BLACK
6
CONTINUOUS
10
110.894
20
-92.646
11
110.83
21
-92.6579
0
LINE
8
BLACK
6
CONTINUOUS
10
91.7804
20
-73.6079
11
91.7263
21
-73.6218
0
LINE
8
BLACK
6
CONTINUOUS
10
91.7263
20
-73.6218
11
91.6785
21
-73.6379
0
LINE
8
BLACK
6
CONTINUOUS
10
91.6785
20
-73.6379
11
91.6342
21
-73.6563
0
LINE
8
BLACK
6
CONTINUOUS
10
91.6342
20
-73.6563
11
91.5903
21
-73.6772
0
LINE
8
BLACK
6
CONTINUOUS
10
91.5903
20
-73.6772
11
91.5441
21
-73.7008
0
LINE
8
BLACK
6
CONTINUOUS
10
91.5441
20
-73.7008
11
91.4927
21
-73.7273
0
LINE
8
BLACK
6
CONTINUOUS
10
91.4927
20
-73.7273
11
91.4622
21
-73.7425
0
LINE
8
BLACK
6
CONTINUOUS
10
91.4622
20
-73.7425
11
91.3343
21
-73.8124
0
LINE
8
BLACK
6
CONTINUOUS
10
91.3343
20
-73.8124
11
91.2243
21
-73.8895
0
LINE
8
BLACK
6
CONTINUOUS
10
91.2243
20
-73.8895
11
91.1131
21
-73.9882
0
LINE
8
BLACK
6
CONTINUOUS
10
91.1131
20
-73.9882
11
91.0653
21
-74.0354
0
LINE
8
BLACK
6
CONTINUOUS
10
91.0653
20
-74.0354
11
90.8718
21
-74.2616
0
LINE
8
BLACK
6
CONTINUOUS
10
90.8718
20
-74.2616
11
90.7259
21
-74.5006
0
LINE
8
BLACK
6
CONTINUOUS
10
90.7259
20
-74.5006
11
90.6278
21
-74.7518
0
LINE
8
BLACK
6
CONTINUOUS
10
90.6278
20
-74.7518
11
90.5777
21
-75.0147
0
LINE
8
BLACK
6
CONTINUOUS
10
90.5777
20
-75.0147
11
90.575
21
-75.0456
0
LINE
8
BLACK
6
CONTINUOUS
10
90.575
20
-75.0456
11
90.5613
21
-75.2277
0
LINE
8
BLACK
6
CONTINUOUS
10
90.5613
20
-75.2277
11
86.7981
21
-75.2277
0
LINE
8
BLACK
6
CONTINUOUS
10
86.7981
20
-75.2277
11
86.7981
21
-75.0045
0
LINE
8
BLACK
6
CONTINUOUS
10
86.7981
20
-75.0045
11
87.0958
21
-75.0045
0
LINE
8
BLACK
6
CONTINUOUS
10
87.0958
20
-75.0045
11
87.0958
21
-73.6863
0
LINE
8
BLACK
6
CONTINUOUS
10
87.0958
20
-73.6863
11
87.5279
21
-73.6863
0
LINE
8
BLACK
6
CONTINUOUS
10
87.5279
20
-73.6863
11
87.5541
21
-73.9458
0
LINE
8
BLACK
6
CONTINUOUS
10
87.5541
20
-73.9458
11
87.6234
21
-74.1947
0
LINE
8
BLACK
6
CONTINUOUS
10
87.6234
20
-74.1947
11
87.7337
21
-74.4282
0
LINE
8
BLACK
6
CONTINUOUS
10
87.7337
20
-74.4282
11
87.8828
21
-74.6412
0
LINE
8
BLACK
6
CONTINUOUS
10
87.8828
20
-74.6412
11
88.0687
21
-74.8288
0
LINE
8
BLACK
6
CONTINUOUS
10
88.0687
20
-74.8288
11
88.2892
21
-74.9861
0
LINE
8
BLACK
6
CONTINUOUS
10
88.2892
20
-74.9861
11
88.425
21
-75.0581
0
LINE
8
BLACK
6
CONTINUOUS
10
88.425
20
-75.0581
11
88.6715
21
-75.1483
0
LINE
8
BLACK
6
CONTINUOUS
10
88.6715
20
-75.1483
11
88.9255
21
-75.1929
0
LINE
8
BLACK
6
CONTINUOUS
10
88.9255
20
-75.1929
11
89.1811
21
-75.1939
0
LINE
8
BLACK
6
CONTINUOUS
10
89.1811
20
-75.1939
11
89.4326
21
-75.1534
0
LINE
8
BLACK
6
CONTINUOUS
10
89.4326
20
-75.1534
11
89.674
21
-75.0732
0
LINE
8
BLACK
6
CONTINUOUS
10
89.674
20
-75.0732
11
89.8995
21
-74.9555
0
LINE
8
BLACK
6
CONTINUOUS
10
89.8995
20
-74.9555
11
90.1032
21
-74.8023
0
LINE
8
BLACK
6
CONTINUOUS
10
90.1032
20
-74.8023
11
90.2794
21
-74.6155
0
LINE
8
BLACK
6
CONTINUOUS
10
90.2794
20
-74.6155
11
90.4221
21
-74.3972
0
LINE
8
BLACK
6
CONTINUOUS
10
90.4221
20
-74.3972
11
90.4382
21
-74.366
0
LINE
8
BLACK
6
CONTINUOUS
10
90.4382
20
-74.366
11
90.5422
21
-74.1073
0
LINE
8
BLACK
6
CONTINUOUS
10
90.5422
20
-74.1073
11
90.5992
21
-73.8466
0
LINE
8
BLACK
6
CONTINUOUS
10
90.5992
20
-73.8466
11
90.6115
21
-73.5884
0
LINE
8
BLACK
6
CONTINUOUS
10
90.6115
20
-73.5884
11
90.5813
21
-73.3369
0
LINE
8
BLACK
6
CONTINUOUS
10
90.5813
20
-73.3369
11
90.5107
21
-73.0966
0
LINE
8
BLACK
6
CONTINUOUS
10
90.5107
20
-73.0966
11
90.4021
21
-72.872
0
LINE
8
BLACK
6
CONTINUOUS
10
90.4021
20
-72.872
11
90.2576
21
-72.6674
0
LINE
8
BLACK
6
CONTINUOUS
10
90.2576
20
-72.6674
11
90.0795
21
-72.4873
0
LINE
8
BLACK
6
CONTINUOUS
10
90.0795
20
-72.4873
11
89.87
21
-72.336
0
LINE
8
BLACK
6
CONTINUOUS
10
89.87
20
-72.336
11
89.6313
21
-72.2179
0
LINE
8
BLACK
6
CONTINUOUS
10
89.6313
20
-72.2179
11
89.3656
21
-72.1376
0
LINE
8
BLACK
6
CONTINUOUS
10
89.3656
20
-72.1376
11
89.3094
21
-72.1264
0
LINE
8
BLACK
6
CONTINUOUS
10
89.3094
20
-72.1264
11
89.1559
21
-72.1123
0
LINE
8
BLACK
6
CONTINUOUS
10
89.1559
20
-72.1123
11
88.9773
21
-72.1177
0
LINE
8
BLACK
6
CONTINUOUS
10
88.9773
20
-72.1177
11
88.7933
21
-72.1408
0
LINE
8
BLACK
6
CONTINUOUS
10
88.7933
20
-72.1408
11
88.6237
21
-72.1799
0
LINE
8
BLACK
6
CONTINUOUS
10
88.6237
20
-72.1799
11
88.59
21
-72.1905
0
LINE
8
BLACK
6
CONTINUOUS
10
88.59
20
-72.1905
11
88.4139
21
-72.2582
0
LINE
8
BLACK
6
CONTINUOUS
10
88.4139
20
-72.2582
11
88.2658
21
-72.3372
0
LINE
8
BLACK
6
CONTINUOUS
10
88.2658
20
-72.3372
11
88.1263
21
-72.4391
0
LINE
8
BLACK
6
CONTINUOUS
10
88.1263
20
-72.4391
11
88.023
21
-72.5305
0
LINE
8
BLACK
6
CONTINUOUS
10
88.023
20
-72.5305
11
87.8492
21
-72.7173
0
LINE
8
BLACK
6
CONTINUOUS
10
87.8492
20
-72.7173
11
87.7169
21
-72.9169
0
LINE
8
BLACK
6
CONTINUOUS
10
87.7169
20
-72.9169
11
87.6179
21
-73.1418
0
LINE
8
BLACK
6
CONTINUOUS
10
87.6179
20
-73.1418
11
87.6132
21
-73.1554
0
LINE
8
BLACK
6
CONTINUOUS
10
87.6132
20
-73.1554
11
87.5469
21
-73.4212
0
LINE
8
BLACK
6
CONTINUOUS
10
87.5469
20
-73.4212
11
87.5279
21
-73.6863
0
LINE
8
BLACK
6
CONTINUOUS
10
87.5279
20
-73.6863
11
87.0958
21
-73.6863
0
LINE
8
BLACK
6
CONTINUOUS
10
87.0958
20
-73.6863
11
87.0958
21
-72.3008
0
LINE
8
BLACK
6
CONTINUOUS
10
87.0958
20
-72.3008
11
86.7981
21
-72.3008
0
LINE
8
BLACK
6
CONTINUOUS
10
86.7981
20
-72.3008
11
86.7985
21
-71.6745
0
LINE
8
BLACK
6
CONTINUOUS
10
86.7985
20
-71.6745
11
86.7998
21
-71.438
0
LINE
8
BLACK
6
CONTINUOUS
10
86.7998
20
-71.438
11
86.8041
21
-71.2436
0
LINE
8
BLACK
6
CONTINUOUS
10
86.8041
20
-71.2436
11
86.8122
21
-71.0839
0
LINE
8
BLACK
6
CONTINUOUS
10
86.8122
20
-71.0839
11
86.819
21
-71.0151
0
LINE
8
BLACK
6
CONTINUOUS
10
86.819
20
-71.0151
11
93.8737
21
-71.0151
0
LINE
8
BLACK
6
CONTINUOUS
10
93.8737
20
-71.0151
11
93.8776
21
-71.2742
0
LINE
8
BLACK
6
CONTINUOUS
10
93.8776
20
-71.2742
11
93.9252
21
-71.5256
0
LINE
8
BLACK
6
CONTINUOUS
10
93.9252
20
-71.5256
11
94.0133
21
-71.7643
0
LINE
8
BLACK
6
CONTINUOUS
10
94.0133
20
-71.7643
11
94.1392
21
-71.9856
0
LINE
8
BLACK
6
CONTINUOUS
10
94.1392
20
-71.9856
11
94.2996
21
-72.1844
0
LINE
8
BLACK
6
CONTINUOUS
10
94.2996
20
-72.1844
11
94.4918
21
-72.356
0
LINE
8
BLACK
6
CONTINUOUS
10
94.4918
20
-72.356
11
94.7126
21
-72.4954
0
LINE
8
BLACK
6
CONTINUOUS
10
94.7126
20
-72.4954
11
94.9592
21
-72.5977
0
LINE
8
BLACK
6
CONTINUOUS
10
94.9592
20
-72.5977
11
95.0581
21
-72.6256
0
LINE
8
BLACK
6
CONTINUOUS
10
95.0581
20
-72.6256
11
95.1938
21
-72.6479
0
LINE
8
BLACK
6
CONTINUOUS
10
95.1938
20
-72.6479
11
95.3561
21
-72.6575
0
LINE
8
BLACK
6
CONTINUOUS
10
95.3561
20
-72.6575
11
95.5261
21
-72.6547
0
LINE
8
BLACK
6
CONTINUOUS
10
95.5261
20
-72.6547
11
95.6851
21
-72.6398
0
LINE
8
BLACK
6
CONTINUOUS
10
95.6851
20
-72.6398
11
95.8132
21
-72.6134
0
LINE
8
BLACK
6
CONTINUOUS
10
95.8132
20
-72.6134
11
96.0671
21
-72.5139
0
LINE
8
BLACK
6
CONTINUOUS
10
96.0671
20
-72.5139
11
96.302
21
-72.3746
0
LINE
8
BLACK
6
CONTINUOUS
10
96.302
20
-72.3746
11
96.5099
21
-72.2015
0
LINE
8
BLACK
6
CONTINUOUS
10
96.5099
20
-72.2015
11
96.6824
21
-72.0007
0
LINE
8
BLACK
6
CONTINUOUS
10
96.6824
20
-72.0007
11
96.71
21
-71.9606
0
LINE
8
BLACK
6
CONTINUOUS
10
96.71
20
-71.9606
11
96.8303
21
-71.7371
0
LINE
8
BLACK
6
CONTINUOUS
10
96.8303
20
-71.7371
11
96.9124
21
-71.4918
0
LINE
8
BLACK
6
CONTINUOUS
10
96.9124
20
-71.4918
11
96.9541
21
-71.2359
0
LINE
8
BLACK
6
CONTINUOUS
10
96.9541
20
-71.2359
11
96.9532
21
-70.9806
0
LINE
8
BLACK
6
CONTINUOUS
10
96.9532
20
-70.9806
11
96.9325
21
-70.8382
0
LINE
8
BLACK
6
CONTINUOUS
10
96.9325
20
-70.8382
11
96.8551
21
-70.5718
0
LINE
8
BLACK
6
CONTINUOUS
10
96.8551
20
-70.5718
11
96.7383
21
-70.3307
0
LINE
8
BLACK
6
CONTINUOUS
10
96.7383
20
-70.3307
11
96.5867
21
-70.1176
0
LINE
8
BLACK
6
CONTINUOUS
10
96.5867
20
-70.1176
11
96.4045
21
-69.9356
0
LINE
8
BLACK
6
CONTINUOUS
10
96.4045
20
-69.9356
11
96.1961
21
-69.7875
0
LINE
8
BLACK
6
CONTINUOUS
10
96.1961
20
-69.7875
11
95.9659
21
-69.6762
0
LINE
8
BLACK
6
CONTINUOUS
10
95.9659
20
-69.6762
11
95.7182
21
-69.6048
0
LINE
8
BLACK
6
CONTINUOUS
10
95.7182
20
-69.6048
11
95.4574
21
-69.576
0
LINE
8
BLACK
6
CONTINUOUS
10
95.4574
20
-69.576
11
95.1879
21
-69.5929
0
LINE
8
BLACK
6
CONTINUOUS
10
95.1879
20
-69.5929
11
95.0953
21
-69.6095
0
LINE
8
BLACK
6
CONTINUOUS
10
95.0953
20
-69.6095
11
94.8389
21
-69.6877
0
LINE
8
BLACK
6
CONTINUOUS
10
94.8389
20
-69.6877
11
94.603
21
-69.8085
0
LINE
8
BLACK
6
CONTINUOUS
10
94.603
20
-69.8085
11
94.3919
21
-69.9677
0
LINE
8
BLACK
6
CONTINUOUS
10
94.3919
20
-69.9677
11
94.2102
21
-70.1608
0
LINE
8
BLACK
6
CONTINUOUS
10
94.2102
20
-70.1608
11
94.0623
21
-70.3835
0
LINE
8
BLACK
6
CONTINUOUS
10
94.0623
20
-70.3835
11
93.9528
21
-70.6313
0
LINE
8
BLACK
6
CONTINUOUS
10
93.9528
20
-70.6313
11
93.9163
21
-70.7532
0
LINE
8
BLACK
6
CONTINUOUS
10
93.9163
20
-70.7532
11
93.8737
21
-71.0151
0
LINE
8
BLACK
6
CONTINUOUS
10
93.8737
20
-71.0151
11
86.819
21
-71.0151
0
LINE
8
BLACK
6
CONTINUOUS
10
86.819
20
-71.0151
11
86.8254
21
-70.9514
0
LINE
8
BLACK
6
CONTINUOUS
10
86.8254
20
-70.9514
11
86.8445
21
-70.8386
0
LINE
8
BLACK
6
CONTINUOUS
10
86.8445
20
-70.8386
11
86.8706
21
-70.7381
0
LINE
8
BLACK
6
CONTINUOUS
10
86.8706
20
-70.7381
11
86.9048
21
-70.6424
0
LINE
8
BLACK
6
CONTINUOUS
10
86.9048
20
-70.6424
11
86.948
21
-70.5442
0
LINE
8
BLACK
6
CONTINUOUS
10
86.948
20
-70.5442
11
86.9557
21
-70.528
0
LINE
8
BLACK
6
CONTINUOUS
10
86.9557
20
-70.528
11
87.0994
21
-70.2757
0
LINE
8
BLACK
6
CONTINUOUS
10
87.0994
20
-70.2757
11
87.2715
21
-70.0626
0
LINE
8
BLACK
6
CONTINUOUS
10
87.2715
20
-70.0626
11
87.4762
21
-69.8842
0
LINE
8
BLACK
6
CONTINUOUS
10
87.4762
20
-69.8842
11
87.7176
21
-69.7365
0
LINE
8
BLACK
6
CONTINUOUS
10
87.7176
20
-69.7365
11
87.7531
21
-69.7187
0
LINE
8
BLACK
6
CONTINUOUS
10
87.7531
20
-69.7187
11
87.7932
21
-69.6986
0
LINE
8
BLACK
6
CONTINUOUS
10
87.7932
20
-69.6986
11
87.8291
21
-69.68
0
LINE
8
BLACK
6
CONTINUOUS
10
87.8291
20
-69.68
11
87.8629
21
-69.6631
0
LINE
8
BLACK
6
CONTINUOUS
10
87.8629
20
-69.6631
11
87.8966
21
-69.6477
0
LINE
8
BLACK
6
CONTINUOUS
10
87.8966
20
-69.6477
11
87.9326
21
-69.6337
0
LINE
8
BLACK
6
CONTINUOUS
10
87.9326
20
-69.6337
11
87.973
21
-69.6211
0
LINE
8
BLACK
6
CONTINUOUS
10
87.973
20
-69.6211
11
88.0199
21
-69.6098
0
LINE
8
BLACK
6
CONTINUOUS
10
88.0199
20
-69.6098
11
88.0754
21
-69.5997
0
LINE
8
BLACK
6
CONTINUOUS
10
88.0754
20
-69.5997
11
88.1418
21
-69.5908
0
LINE
8
BLACK
6
CONTINUOUS
10
88.1418
20
-69.5908
11
88.2212
21
-69.5829
0
LINE
8
BLACK
6
CONTINUOUS
10
88.2212
20
-69.5829
11
88.3157
21
-69.5761
0
LINE
8
BLACK
6
CONTINUOUS
10
88.3157
20
-69.5761
11
88.4276
21
-69.5702
0
LINE
8
BLACK
6
CONTINUOUS
10
88.4276
20
-69.5702
11
88.5589
21
-69.5652
0
LINE
8
BLACK
6
CONTINUOUS
10
88.5589
20
-69.5652
11
88.7119
21
-69.561
0
LINE
8
BLACK
6
CONTINUOUS
10
88.7119
20
-69.561
11
88.8887
21
-69.5576
0
LINE
8
BLACK
6
CONTINUOUS
10
88.8887
20
-69.5576
11
89.0914
21
-69.5548
0
LINE
8
BLACK
6
CONTINUOUS
10
89.0914
20
-69.5548
11
89.3222
21
-69.5526
0
LINE
8
BLACK
6
CONTINUOUS
10
89.3222
20
-69.5526
11
89.5833
21
-69.5509
0
LINE
8
BLACK
6
CONTINUOUS
10
89.5833
20
-69.5509
11
89.8769
21
-69.5497
0
LINE
8
BLACK
6
CONTINUOUS
10
89.8769
20
-69.5497
11
90.205
21
-69.5488
0
LINE
8
BLACK
6
CONTINUOUS
10
90.205
20
-69.5488
11
90.5699
21
-69.5483
0
LINE
8
BLACK
6
CONTINUOUS
10
90.5699
20
-69.5483
11
90.9737
21
-69.548
0
LINE
8
BLACK
6
CONTINUOUS
10
90.9737
20
-69.548
11
91.4186
21
-69.5479
0
LINE
8
BLACK
6
CONTINUOUS
10
91.4186
20
-69.5479
11
91.9067
21
-69.5479
0
LINE
8
BLACK
6
CONTINUOUS
10
91.9067
20
-69.5479
11
92.4402
21
-69.5479
0
LINE
8
BLACK
6
CONTINUOUS
10
92.4402
20
-69.5479
11
92.9931
21
-69.5479
0
LINE
8
BLACK
6
CONTINUOUS
10
92.9931
20
-69.5479
11
97.6874
21
-69.5475
0
LINE
8
BLACK
6
CONTINUOUS
10
97.6874
20
-69.5475
11
97.6874
21
-69.7707
0
LINE
8
BLACK
6
CONTINUOUS
10
97.6874
20
-69.7707
11
97.3897
21
-69.7707
0
LINE
8
BLACK
6
CONTINUOUS
10
97.3897
20
-69.7707
11
97.3897
21
-72.4744
0
LINE
8
BLACK
6
CONTINUOUS
10
97.3897
20
-72.4744
11
97.6874
21
-72.4744
0
LINE
8
BLACK
6
CONTINUOUS
10
97.6874
20
-72.4744
11
97.6874
21
-73.5396
0
LINE
8
BLACK
6
CONTINUOUS
10
97.6874
20
-73.5396
11
94.8162
21
-73.5473
0
LINE
8
BLACK
6
CONTINUOUS
10
94.8162
20
-73.5473
11
94.3707
21
-73.5485
0
LINE
8
BLACK
6
CONTINUOUS
10
94.3707
20
-73.5485
11
93.972
21
-73.5494
0
LINE
8
BLACK
6
CONTINUOUS
10
93.972
20
-73.5494
11
93.6171
21
-73.5503
0
LINE
8
BLACK
6
CONTINUOUS
10
93.6171
20
-73.5503
11
93.3031
21
-73.5514
0
LINE
8
BLACK
6
CONTINUOUS
10
93.3031
20
-73.5514
11
93.0272
21
-73.5528
0
LINE
8
BLACK
6
CONTINUOUS
10
93.0272
20
-73.5528
11
92.7865
21
-73.5547
0
LINE
8
BLACK
6
CONTINUOUS
10
92.7865
20
-73.5547
11
92.578
21
-73.5573
0
LINE
8
BLACK
6
CONTINUOUS
10
92.578
20
-73.5573
11
92.399
21
-73.5607
0
LINE
8
BLACK
6
CONTINUOUS
10
92.399
20
-73.5607
11
92.2465
21
-73.5651
0
LINE
8
BLACK
6
CONTINUOUS
10
92.2465
20
-73.5651
11
92.1175
21
-73.5706
0
LINE
8
BLACK
6
CONTINUOUS
10
92.1175
20
-73.5706
11
92.0094
21
-73.5775
0
LINE
8
BLACK
6
CONTINUOUS
10
92.0094
20
-73.5775
11
91.919
21
-73.5859
0
LINE
8
BLACK
6
CONTINUOUS
10
91.919
20
-73.5859
11
91.9008
21
-73.5884
0
LINE
8
BLACK
6
CONTINUOUS
10
91.9008
20
-73.5884
11
91.8437
21
-73.596
0
LINE
8
BLACK
6
CONTINUOUS
10
91.8437
20
-73.596
11
91.7804
21
-73.6079
0
LINE
8
BLACK
6
CONTINUOUS
10
110.83
20
-73.6079
11
110.776
21
-73.6218
0
LINE
8
BLACK
6
CONTINUOUS
10
110.776
20
-73.6218
11
110.729
21
-73.6379
0
LINE
8
BLACK
6
CONTINUOUS
10
110.729
20
-73.6379
11
110.684
21
-73.6563
0
LINE
8
BLACK
6
CONTINUOUS
10
110.684
20
-73.6563
11
110.64
21
-73.6772
0
LINE
8
BLACK
6
CONTINUOUS
10
110.64
20
-73.6772
11
110.594
21
-73.7008
0
LINE
8
BLACK
6
CONTINUOUS
10
110.594
20
-73.7008
11
110.543
21
-73.7273
0
LINE
8
BLACK
6
CONTINUOUS
10
110.543
20
-73.7273
11
110.512
21
-73.7425
0
LINE
8
BLACK
6
CONTINUOUS
10
110.512
20
-73.7425
11
110.384
21
-73.8124
0
LINE
8
BLACK
6
CONTINUOUS
10
110.384
20
-73.8124
11
110.274
21
-73.8895
0
LINE
8
BLACK
6
CONTINUOUS
10
110.274
20
-73.8895
11
110.163
21
-73.9882
0
LINE
8
BLACK
6
CONTINUOUS
10
110.163
20
-73.9882
11
110.115
21
-74.0354
0
LINE
8
BLACK
6
CONTINUOUS
10
110.115
20
-74.0354
11
109.922
21
-74.2616
0
LINE
8
BLACK
6
CONTINUOUS
10
109.922
20
-74.2616
11
109.776
21
-74.5006
0
LINE
8
BLACK
6
CONTINUOUS
10
109.776
20
-74.5006
11
109.678
21
-74.7518
0
LINE
8
BLACK
6
CONTINUOUS
10
109.678
20
-74.7518
11
109.628
21
-75.0147
0
LINE
8
BLACK
6
CONTINUOUS
10
109.628
20
-75.0147
11
109.625
21
-75.0456
0
LINE
8
BLACK
6
CONTINUOUS
10
109.625
20
-75.0456
11
109.611
21
-75.2277
0
LINE
8
BLACK
6
CONTINUOUS
10
109.611
20
-75.2277
11
105.848
21
-75.2277
0
LINE
8
BLACK
6
CONTINUOUS
10
105.848
20
-75.2277
11
105.848
21
-75.0045
0
LINE
8
BLACK
6
CONTINUOUS
10
105.848
20
-75.0045
11
106.146
21
-75.0045
0
LINE
8
BLACK
6
CONTINUOUS
10
106.146
20
-75.0045
11
106.146
21
-73.6863
0
LINE
8
BLACK
6
CONTINUOUS
10
106.146
20
-73.6863
11
106.578
21
-73.6863
0
LINE
8
BLACK
6
CONTINUOUS
10
106.578
20
-73.6863
11
106.604
21
-73.9458
0
LINE
8
BLACK
6
CONTINUOUS
10
106.604
20
-73.9458
11
106.673
21
-74.1947
0
LINE
8
BLACK
6
CONTINUOUS
10
106.673
20
-74.1947
11
106.784
21
-74.4282
0
LINE
8
BLACK
6
CONTINUOUS
10
106.784
20
-74.4282
11
106.933
21
-74.6412
0
LINE
8
BLACK
6
CONTINUOUS
10
106.933
20
-74.6412
11
107.119
21
-74.8288
0
LINE
8
BLACK
6
CONTINUOUS
10
107.119
20
-74.8288
11
107.339
21
-74.9861
0
LINE
8
BLACK
6
CONTINUOUS
10
107.339
20
-74.9861
11
107.475
21
-75.0581
0
LINE
8
BLACK
6
CONTINUOUS
10
107.475
20
-75.0581
11
107.721
21
-75.1483
0
LINE
8
BLACK
6
CONTINUOUS
10
107.721
20
-75.1483
11
107.975
21
-75.1929
0
LINE
8
BLACK
6
CONTINUOUS
10
107.975
20
-75.1929
11
108.231
21
-75.1939
0
LINE
8
BLACK
6
CONTINUOUS
10
108.231
20
-75.1939
11
108.483
21
-75.1534
0
LINE
8
BLACK
6
CONTINUOUS
10
108.483
20
-75.1534
11
108.724
21
-75.0732
0
LINE
8
BLACK
6
CONTINUOUS
10
108.724
20
-75.0732
11
108.949
21
-74.9555
0
LINE
8
BLACK
6
CONTINUOUS
10
108.949
20
-74.9555
11
109.153
21
-74.8023
0
LINE
8
BLACK
6
CONTINUOUS
10
109.153
20
-74.8023
11
109.329
21
-74.6155
0
LINE
8
BLACK
6
CONTINUOUS
10
109.329
20
-74.6155
11
109.472
21
-74.3972
0
LINE
8
BLACK
6
CONTINUOUS
10
109.472
20
-74.3972
11
109.488
21
-74.366
0
LINE
8
BLACK
6
CONTINUOUS
10
109.488
20
-74.366
11
109.592
21
-74.1073
0
LINE
8
BLACK
6
CONTINUOUS
10
109.592
20
-74.1073
11
109.649
21
-73.8466
0
LINE
8
BLACK
6
CONTINUOUS
10
109.649
20
-73.8466
11
109.662
21
-73.5884
0
LINE
8
BLACK
6
CONTINUOUS
10
109.662
20
-73.5884
11
109.631
21
-73.3369
0
LINE
8
BLACK
6
CONTINUOUS
10
109.631
20
-73.3369
11
109.561
21
-73.0966
0
LINE
8
BLACK
6
CONTINUOUS
10
109.561
20
-73.0966
11
109.452
21
-72.872
0
LINE
8
BLACK
6
CONTINUOUS
10
109.452
20
-72.872
11
109.308
21
-72.6674
0
LINE
8
BLACK
6
CONTINUOUS
10
109.308
20
-72.6674
11
109.13
21
-72.4873
0
LINE
8
BLACK
6
CONTINUOUS
10
109.13
20
-72.4873
11
108.92
21
-72.336
0
LINE
8
BLACK
6
CONTINUOUS
10
108.92
20
-72.336
11
108.681
21
-72.2179
0
LINE
8
BLACK
6
CONTINUOUS
10
108.681
20
-72.2179
11
108.416
21
-72.1376
0
LINE
8
BLACK
6
CONTINUOUS
10
108.416
20
-72.1376
11
108.359
21
-72.1264
0
LINE
8
BLACK
6
CONTINUOUS
10
108.359
20
-72.1264
11
108.206
21
-72.1123
0
LINE
8
BLACK
6
CONTINUOUS
10
108.206
20
-72.1123
11
108.027
21
-72.1177
0
LINE
8
BLACK
6
CONTINUOUS
10
108.027
20
-72.1177
11
107.843
21
-72.1408
0
LINE
8
BLACK
6
CONTINUOUS
10
107.843
20
-72.1408
11
107.674
21
-72.1799
0
LINE
8
BLACK
6
CONTINUOUS
10
107.674
20
-72.1799
11
107.64
21
-72.1905
0
LINE
8
BLACK
6
CONTINUOUS
10
107.64
20
-72.1905
11
107.464
21
-72.2582
0
LINE
8
BLACK
6
CONTINUOUS
10
107.464
20
-72.2582
11
107.316
21
-72.3372
0
LINE
8
BLACK
6
CONTINUOUS
10
107.316
20
-72.3372
11
107.176
21
-72.4391
0
LINE
8
BLACK
6
CONTINUOUS
10
107.176
20
-72.4391
11
107.073
21
-72.5305
0
LINE
8
BLACK
6
CONTINUOUS
10
107.073
20
-72.5305
11
106.899
21
-72.7173
0
LINE
8
BLACK
6
CONTINUOUS
10
106.899
20
-72.7173
11
106.767
21
-72.9169
0
LINE
8
BLACK
6
CONTINUOUS
10
106.767
20
-72.9169
11
106.668
21
-73.1418
0
LINE
8
BLACK
6
CONTINUOUS
10
106.668
20
-73.1418
11
106.663
21
-73.1554
0
LINE
8
BLACK
6
CONTINUOUS
10
106.663
20
-73.1554
11
106.597
21
-73.4212
0
LINE
8
BLACK
6
CONTINUOUS
10
106.597
20
-73.4212
11
106.578
21
-73.6863
0
LINE
8
BLACK
6
CONTINUOUS
10
106.578
20
-73.6863
11
106.146
21
-73.6863
0
LINE
8
BLACK
6
CONTINUOUS
10
106.146
20
-73.6863
11
106.146
21
-72.3008
0
LINE
8
BLACK
6
CONTINUOUS
10
106.146
20
-72.3008
11
105.848
21
-72.3008
0
LINE
8
BLACK
6
CONTINUOUS
10
105.848
20
-72.3008
11
105.849
21
-71.6745
0
LINE
8
BLACK
6
CONTINUOUS
10
105.849
20
-71.6745
11
105.85
21
-71.438
0
LINE
8
BLACK
6
CONTINUOUS
10
105.85
20
-71.438
11
105.854
21
-71.2436
0
LINE
8
BLACK
6
CONTINUOUS
10
105.854
20
-71.2436
11
105.862
21
-71.0839
0
LINE
8
BLACK
6
CONTINUOUS
10
105.862
20
-71.0839
11
105.869
21
-71.0151
0
LINE
8
BLACK
6
CONTINUOUS
10
105.869
20
-71.0151
11
112.924
21
-71.0151
0
LINE
8
BLACK
6
CONTINUOUS
10
112.924
20
-71.0151
11
112.928
21
-71.2742
0
LINE
8
BLACK
6
CONTINUOUS
10
112.928
20
-71.2742
11
112.975
21
-71.5256
0
LINE
8
BLACK
6
CONTINUOUS
10
112.975
20
-71.5256
11
113.063
21
-71.7643
0
LINE
8
BLACK
6
CONTINUOUS
10
113.063
20
-71.7643
11
113.189
21
-71.9856
0
LINE
8
BLACK
6
CONTINUOUS
10
113.189
20
-71.9856
11
113.35
21
-72.1844
0
LINE
8
BLACK
6
CONTINUOUS
10
113.35
20
-72.1844
11
113.542
21
-72.356
0
LINE
8
BLACK
6
CONTINUOUS
10
113.542
20
-72.356
11
113.763
21
-72.4954
0
LINE
8
BLACK
6
CONTINUOUS
10
113.763
20
-72.4954
11
114.009
21
-72.5977
0
LINE
8
BLACK
6
CONTINUOUS
10
114.009
20
-72.5977
11
114.108
21
-72.6256
0
LINE
8
BLACK
6
CONTINUOUS
10
114.108
20
-72.6256
11
114.244
21
-72.6479
0
LINE
8
BLACK
6
CONTINUOUS
10
114.244
20
-72.6479
11
114.406
21
-72.6575
0
LINE
8
BLACK
6
CONTINUOUS
10
114.406
20
-72.6575
11
114.576
21
-72.6547
0
LINE
8
BLACK
6
CONTINUOUS
10
114.576
20
-72.6547
11
114.735
21
-72.6398
0
LINE
8
BLACK
6
CONTINUOUS
10
114.735
20
-72.6398
11
114.863
21
-72.6134
0
LINE
8
BLACK
6
CONTINUOUS
10
114.863
20
-72.6134
11
115.117
21
-72.5139
0
LINE
8
BLACK
6
CONTINUOUS
10
115.117
20
-72.5139
11
115.352
21
-72.3746
0
LINE
8
BLACK
6
CONTINUOUS
10
115.352
20
-72.3746
11
115.56
21
-72.2015
0
LINE
8
BLACK
6
CONTINUOUS
10
115.56
20
-72.2015
11
115.732
21
-72.0007
0
LINE
8
BLACK
6
CONTINUOUS
10
115.732
20
-72.0007
11
115.76
21
-71.9606
0
LINE
8
BLACK
6
CONTINUOUS
10
115.76
20
-71.9606
11
115.88
21
-71.7371
0
LINE
8
BLACK
6
CONTINUOUS
10
115.88
20
-71.7371
11
115.962
21
-71.4918
0
LINE
8
BLACK
6
CONTINUOUS
10
115.962
20
-71.4918
11
116.004
21
-71.2359
0
LINE
8
BLACK
6
CONTINUOUS
10
116.004
20
-71.2359
11
116.003
21
-70.9806
0
LINE
8
BLACK
6
CONTINUOUS
10
116.003
20
-70.9806
11
115.982
21
-70.8382
0
LINE
8
BLACK
6
CONTINUOUS
10
115.982
20
-70.8382
11
115.905
21
-70.5718
0
LINE
8
BLACK
6
CONTINUOUS
10
115.905
20
-70.5718
11
115.788
21
-70.3307
0
LINE
8
BLACK
6
CONTINUOUS
10
115.788
20
-70.3307
11
115.637
21
-70.1176
0
LINE
8
BLACK
6
CONTINUOUS
10
115.637
20
-70.1176
11
115.455
21
-69.9356
0
LINE
8
BLACK
6
CONTINUOUS
10
115.455
20
-69.9356
11
115.246
21
-69.7875
0
LINE
8
BLACK
6
CONTINUOUS
10
115.246
20
-69.7875
11
115.016
21
-69.6762
0
LINE
8
BLACK
6
CONTINUOUS
10
115.016
20
-69.6762
11
114.768
21
-69.6048
0
LINE
8
BLACK
6
CONTINUOUS
10
114.768
20
-69.6048
11
114.507
21
-69.576
0
LINE
8
BLACK
6
CONTINUOUS
10
114.507
20
-69.576
11
114.238
21
-69.5929
0
LINE
8
BLACK
6
CONTINUOUS
10
114.238
20
-69.5929
11
114.145
21
-69.6095
0
LINE
8
BLACK
6
CONTINUOUS
10
114.145
20
-69.6095
11
113.889
21
-69.6877
0
LINE
8
BLACK
6
CONTINUOUS
10
113.889
20
-69.6877
11
113.653
21
-69.8085
0
LINE
8
BLACK
6
CONTINUOUS
10
113.653
20
-69.8085
11
113.442
21
-69.9677
0
LINE
8
BLACK
6
CONTINUOUS
10
113.442
20
-69.9677
11
113.26
21
-70.1608
0
LINE
8
BLACK
6
CONTINUOUS
10
113.26
20
-70.1608
11
113.112
21
-70.3835
0
LINE
8
BLACK
6
CONTINUOUS
10
113.112
20
-70.3835
11
113.003
21
-70.6313
0
LINE
8
BLACK
6
CONTINUOUS
10
113.003
20
-70.6313
11
112.966
21
-70.7532
0
LINE
8
BLACK
6
CONTINUOUS
10
112.966
20
-70.7532
11
112.924
21
-71.0151
0
LINE
8
BLACK
6
CONTINUOUS
10
112.924
20
-71.0151
11
105.869
21
-71.0151
0
LINE
8
BLACK
6
CONTINUOUS
10
105.869
20
-71.0151
11
105.875
21
-70.9514
0
LINE
8
BLACK
6
CONTINUOUS
10
105.875
20
-70.9514
11
105.894
21
-70.8386
0
LINE
8
BLACK
6
CONTINUOUS
10
105.894
20
-70.8386
11
105.921
21
-70.7381
0
LINE
8
BLACK
6
CONTINUOUS
10
105.921
20
-70.7381
11
105.955
21
-70.6424
0
LINE
8
BLACK
6
CONTINUOUS
10
105.955
20
-70.6424
11
105.998
21
-70.5442
0
LINE
8
BLACK
6
CONTINUOUS
10
105.998
20
-70.5442
11
106.006
21
-70.528
0
LINE
8
BLACK
6
CONTINUOUS
10
106.006
20
-70.528
11
106.149
21
-70.2757
0
LINE
8
BLACK
6
CONTINUOUS
10
106.149
20
-70.2757
11
106.321
21
-70.0626
0
LINE
8
BLACK
6
CONTINUOUS
10
106.321
20
-70.0626
11
106.526
21
-69.8842
0
LINE
8
BLACK
6
CONTINUOUS
10
106.526
20
-69.8842
11
106.768
21
-69.7365
0
LINE
8
BLACK
6
CONTINUOUS
10
106.768
20
-69.7365
11
106.803
21
-69.7187
0
LINE
8
BLACK
6
CONTINUOUS
10
106.803
20
-69.7187
11
106.843
21
-69.6986
0
LINE
8
BLACK
6
CONTINUOUS
10
106.843
20
-69.6986
11
106.879
21
-69.68
0
LINE
8
BLACK
6
CONTINUOUS
10
106.879
20
-69.68
11
106.913
21
-69.6631
0
LINE
8
BLACK
6
CONTINUOUS
10
106.913
20
-69.6631
11
106.947
21
-69.6477
0
LINE
8
BLACK
6
CONTINUOUS
10
106.947
20
-69.6477
11
106.983
21
-69.6337
0
LINE
8
BLACK
6
CONTINUOUS
10
106.983
20
-69.6337
11
107.023
21
-69.6211
0
LINE
8
BLACK
6
CONTINUOUS
10
107.023
20
-69.6211
11
107.07
21
-69.6098
0
LINE
8
BLACK
6
CONTINUOUS
10
107.07
20
-69.6098
11
107.125
21
-69.5997
0
LINE
8
BLACK
6
CONTINUOUS
10
107.125
20
-69.5997
11
107.192
21
-69.5908
0
LINE
8
BLACK
6
CONTINUOUS
10
107.192
20
-69.5908
11
107.271
21
-69.5829
0
LINE
8
BLACK
6
CONTINUOUS
10
107.271
20
-69.5829
11
107.366
21
-69.5761
0
LINE
8
BLACK
6
CONTINUOUS
10
107.366
20
-69.5761
11
107.478
21
-69.5702
0
LINE
8
BLACK
6
CONTINUOUS
10
107.478
20
-69.5702
11
107.609
21
-69.5652
0
LINE
8
BLACK
6
CONTINUOUS
10
107.609
20
-69.5652
11
107.762
21
-69.561
0
LINE
8
BLACK
6
CONTINUOUS
10
107.762
20
-69.561
11
107.939
21
-69.5576
0
LINE
8
BLACK
6
CONTINUOUS
10
107.939
20
-69.5576
11
108.141
21
-69.5548
0
LINE
8
BLACK
6
CONTINUOUS
10
108.141
20
-69.5548
11
108.372
21
-69.5526
0
LINE
8
BLACK
6
CONTINUOUS
10
108.372
20
-69.5526
11
108.633
21
-69.5509
0
LINE
8
BLACK
6
CONTINUOUS
10
108.633
20
-69.5509
11
108.927
21
-69.5497
0
LINE
8
BLACK
6
CONTINUOUS
10
108.927
20
-69.5497
11
109.255
21
-69.5488
0
LINE
8
BLACK
6
CONTINUOUS
10
109.255
20
-69.5488
11
109.62
21
-69.5483
0
LINE
8
BLACK
6
CONTINUOUS
10
109.62
20
-69.5483
11
110.024
21
-69.548
0
LINE
8
BLACK
6
CONTINUOUS
10
110.024
20
-69.548
11
110.469
21
-69.5479
0
LINE
8
BLACK
6
CONTINUOUS
10
110.469
20
-69.5479
11
110.957
21
-69.5479
0
LINE
8
BLACK
6
CONTINUOUS
10
110.957
20
-69.5479
11
111.49
21
-69.5479
0
LINE
8
BLACK
6
CONTINUOUS
10
111.49
20
-69.5479
11
112.043
21
-69.5479
0
LINE
8
BLACK
6
CONTINUOUS
10
112.043
20
-69.5479
11
116.737
21
-69.5475
0
LINE
8
BLACK
6
CONTINUOUS
10
116.737
20
-69.5475
11
116.737
21
-69.7707
0
LINE
8
BLACK
6
CONTINUOUS
10
116.737
20
-69.7707
11
116.44
21
-69.7707
0
LINE
8
BLACK
6
CONTINUOUS
10
116.44
20
-69.7707
11
116.44
21
-72.4744
0
LINE
8
BLACK
6
CONTINUOUS
10
116.44
20
-72.4744
11
116.737
21
-72.4744
0
LINE
8
BLACK
6
CONTINUOUS
10
116.737
20
-72.4744
11
116.737
21
-73.5396
0
LINE
8
BLACK
6
CONTINUOUS
10
116.737
20
-73.5396
11
113.866
21
-73.5473
0
LINE
8
BLACK
6
CONTINUOUS
10
113.866
20
-73.5473
11
113.421
21
-73.5485
0
LINE
8
BLACK
6
CONTINUOUS
10
113.421
20
-73.5485
11
113.022
21
-73.5494
0
LINE
8
BLACK
6
CONTINUOUS
10
113.022
20
-73.5494
11
112.667
21
-73.5503
0
LINE
8
BLACK
6
CONTINUOUS
10
112.667
20
-73.5503
11
112.353
21
-73.5514
0
LINE
8
BLACK
6
CONTINUOUS
10
112.353
20
-73.5514
11
112.077
21
-73.5528
0
LINE
8
BLACK
6
CONTINUOUS
10
112.077
20
-73.5528
11
111.836
21
-73.5547
0
LINE
8
BLACK
6
CONTINUOUS
10
111.836
20
-73.5547
11
111.628
21
-73.5573
0
LINE
8
BLACK
6
CONTINUOUS
10
111.628
20
-73.5573
11
111.449
21
-73.5607
0
LINE
8
BLACK
6
CONTINUOUS
10
111.449
20
-73.5607
11
111.296
21
-73.5651
0
LINE
8
BLACK
6
CONTINUOUS
10
111.296
20
-73.5651
11
111.168
21
-73.5706
0
LINE
8
BLACK
6
CONTINUOUS
10
111.168
20
-73.5706
11
111.059
21
-73.5775
0
LINE
8
BLACK
6
CONTINUOUS
10
111.059
20
-73.5775
11
110.969
21
-73.5859
0
LINE
8
BLACK
6
CONTINUOUS
10
110.969
20
-73.5859
11
110.951
21
-73.5884
0
LINE
8
BLACK
6
CONTINUOUS
10
110.951
20
-73.5884
11
110.894
21
-73.596
0
LINE
8
BLACK
6
CONTINUOUS
10
110.894
20
-73.596
11
110.83
21
-73.6079
0
LINE
8
BLACK
6
CONTINUOUS
10
91.7804
20
-54.5579
11
91.7263
21
-54.5718
0
LINE
8
BLACK
6
CONTINUOUS
10
91.7263
20
-54.5718
11
91.6785
21
-54.5879
0
LINE
8
BLACK
6
CONTINUOUS
10
91.6785
20
-54.5879
11
91.6342
21
-54.6063
0
LINE
8
BLACK
6
CONTINUOUS
10
91.6342
20
-54.6063
11
91.5903
21
-54.6272
0
LINE
8
BLACK
6
CONTINUOUS
10
91.5903
20
-54.6272
11
91.5441
21
-54.6508
0
LINE
8
BLACK
6
CONTINUOUS
10
91.5441
20
-54.6508
11
91.4927
21
-54.6773
0
LINE
8
BLACK
6
CONTINUOUS
10
91.4927
20
-54.6773
11
91.4622
21
-54.6925
0
LINE
8
BLACK
6
CONTINUOUS
10
91.4622
20
-54.6925
11
91.3343
21
-54.7624
0
LINE
8
BLACK
6
CONTINUOUS
10
91.3343
20
-54.7624
11
91.2243
21
-54.8395
0
LINE
8
BLACK
6
CONTINUOUS
10
91.2243
20
-54.8395
11
91.1131
21
-54.9382
0
LINE
8
BLACK
6
CONTINUOUS
10
91.1131
20
-54.9382
11
91.0653
21
-54.9854
0
LINE
8
BLACK
6
CONTINUOUS
10
91.0653
20
-54.9854
11
90.8718
21
-55.2116
0
LINE
8
BLACK
6
CONTINUOUS
10
90.8718
20
-55.2116
11
90.7259
21
-55.4506
0
LINE
8
BLACK
6
CONTINUOUS
10
90.7259
20
-55.4506
11
90.6278
21
-55.7018
0
LINE
8
BLACK
6
CONTINUOUS
10
90.6278
20
-55.7018
11
90.5777
21
-55.9647
0
LINE
8
BLACK
6
CONTINUOUS
10
90.5777
20
-55.9647
11
90.575
21
-55.9956
0
LINE
8
BLACK
6
CONTINUOUS
10
90.575
20
-55.9956
11
90.5613
21
-56.1777
0
LINE
8
BLACK
6
CONTINUOUS
10
90.5613
20
-56.1777
11
86.7981
21
-56.1777
0
LINE
8
BLACK
6
CONTINUOUS
10
86.7981
20
-56.1777
11
86.7981
21
-55.9545
0
LINE
8
BLACK
6
CONTINUOUS
10
86.7981
20
-55.9545
11
87.0958
21
-55.9545
0
LINE
8
BLACK
6
CONTINUOUS
10
87.0958
20
-55.9545
11
87.0958
21
-54.6363
0
LINE
8
BLACK
6
CONTINUOUS
10
87.0958
20
-54.6363
11
87.5279
21
-54.6363
0
LINE
8
BLACK
6
CONTINUOUS
10
87.5279
20
-54.6363
11
87.5541
21
-54.8958
0
LINE
8
BLACK
6
CONTINUOUS
10
87.5541
20
-54.8958
11
87.6234
21
-55.1447
0
LINE
8
BLACK
6
CONTINUOUS
10
87.6234
20
-55.1447
11
87.7337
21
-55.3782
0
LINE
8
BLACK
6
CONTINUOUS
10
87.7337
20
-55.3782
11
87.8828
21
-55.5912
0
LINE
8
BLACK
6
CONTINUOUS
10
87.8828
20
-55.5912
11
88.0687
21
-55.7788
0
LINE
8
BLACK
6
CONTINUOUS
10
88.0687
20
-55.7788
11
88.2892
21
-55.9361
0
LINE
8
BLACK
6
CONTINUOUS
10
88.2892
20
-55.9361
11
88.425
21
-56.0082
0
LINE
8
BLACK
6
CONTINUOUS
10
88.425
20
-56.0082
11
88.6715
21
-56.0983
0
LINE
8
BLACK
6
CONTINUOUS
10
88.6715
20
-56.0983
11
88.9255
21
-56.1429
0
LINE
8
BLACK
6
CONTINUOUS
10
88.9255
20
-56.1429
11
89.1811
21
-56.1439
0
LINE
8
BLACK
6
CONTINUOUS
10
89.1811
20
-56.1439
11
89.4326
21
-56.1033
0
LINE
8
BLACK
6
CONTINUOUS
10
89.4326
20
-56.1033
11
89.674
21
-56.0232
0
LINE
8
BLACK
6
CONTINUOUS
10
89.674
20
-56.0232
11
89.8995
21
-55.9055
0
LINE
8
BLACK
6
CONTINUOUS
10
89.8995
20
-55.9055
11
90.1032
21
-55.7523
0
LINE
8
BLACK
6
CONTINUOUS
10
90.1032
20
-55.7523
11
90.2794
21
-55.5655
0
LINE
8
BLACK
6
CONTINUOUS
10
90.2794
20
-55.5655
11
90.4221
21
-55.3472
0
LINE
8
BLACK
6
CONTINUOUS
10
90.4221
20
-55.3472
11
90.4382
21
-55.316
0
LINE
8
BLACK
6
CONTINUOUS
10
90.4382
20
-55.316
11
90.5422
21
-55.0573
0
LINE
8
BLACK
6
CONTINUOUS
10
90.5422
20
-55.0573
11
90.5992
21
-54.7966
0
LINE
8
BLACK
6
CONTINUOUS
10
90.5992
20
-54.7966
11
90.6115
21
-54.5384
0
LINE
8
BLACK
6
CONTINUOUS
10
90.6115
20
-54.5384
11
90.5813
21
-54.2869
0
LINE
8
BLACK
6
CONTINUOUS
10
90.5813
20
-54.2869
11
90.5107
21
-54.0466
0
LINE
8
BLACK
6
CONTINUOUS
10
90.5107
20
-54.0466
11
90.4021
21
-53.822
0
LINE
8
BLACK
6
CONTINUOUS
10
90.4021
20
-53.822
11
90.2576
21
-53.6174
0
LINE
8
BLACK
6
CONTINUOUS
10
90.2576
20
-53.6174
11
90.0795
21
-53.4373
0
LINE
8
BLACK
6
CONTINUOUS
10
90.0795
20
-53.4373
11
89.87
21
-53.286
0
LINE
8
BLACK
6
CONTINUOUS
10
89.87
20
-53.286
11
89.6313
21
-53.1679
0
LINE
8
BLACK
6
CONTINUOUS
10
89.6313
20
-53.1679
11
89.3656
21
-53.0876
0
LINE
8
BLACK
6
CONTINUOUS
10
89.3656
20
-53.0876
11
89.3094
21
-53.0764
0
LINE
8
BLACK
6
CONTINUOUS
10
89.3094
20
-53.0764
11
89.1559
21
-53.0623
0
LINE
8
BLACK
6
CONTINUOUS
10
89.1559
20
-53.0623
11
88.9773
21
-53.0677
0
LINE
8
BLACK
6
CONTINUOUS
10
88.9773
20
-53.0677
11
88.7933
21
-53.0908
0
LINE
8
BLACK
6
CONTINUOUS
10
88.7933
20
-53.0908
11
88.6237
21
-53.1299
0
LINE
8
BLACK
6
CONTINUOUS
10
88.6237
20
-53.1299
11
88.59
21
-53.1405
0
LINE
8
BLACK
6
CONTINUOUS
10
88.59
20
-53.1405
11
88.4139
21
-53.2082
0
LINE
8
BLACK
6
CONTINUOUS
10
88.4139
20
-53.2082
11
88.2658
21
-53.2872
0
LINE
8
BLACK
6
CONTINUOUS
10
88.2658
20
-53.2872
11
88.1263
21
-53.3891
0
LINE
8
BLACK
6
CONTINUOUS
10
88.1263
20
-53.3891
11
88.023
21
-53.4805
0
LINE
8
BLACK
6
CONTINUOUS
10
88.023
20
-53.4805
11
87.8492
21
-53.6673
0
LINE
8
BLACK
6
CONTINUOUS
10
87.8492
20
-53.6673
11
87.7169
21
-53.8669
0
LINE
8
BLACK
6
CONTINUOUS
10
87.7169
20
-53.8669
11
87.6179
21
-54.0918
0
LINE
8
BLACK
6
CONTINUOUS
10
87.6179
20
-54.0918
11
87.6132
21
-54.1054
0
LINE
8
BLACK
6
CONTINUOUS
10
87.6132
20
-54.1054
11
87.5469
21
-54.3712
0
LINE
8
BLACK
6
CONTINUOUS
10
87.5469
20
-54.3712
11
87.5279
21
-54.6363
0
LINE
8
BLACK
6
CONTINUOUS
10
87.5279
20
-54.6363
11
87.0958
21
-54.6363
0
LINE
8
BLACK
6
CONTINUOUS
10
87.0958
20
-54.6363
11
87.0958
21
-53.2508
0
LINE
8
BLACK
6
CONTINUOUS
10
87.0958
20
-53.2508
11
86.7981
21
-53.2508
0
LINE
8
BLACK
6
CONTINUOUS
10
86.7981
20
-53.2508
11
86.7985
21
-52.6245
0
LINE
8
BLACK
6
CONTINUOUS
10
86.7985
20
-52.6245
11
86.7998
21
-52.388
0
LINE
8
BLACK
6
CONTINUOUS
10
86.7998
20
-52.388
11
86.8041
21
-52.1936
0
LINE
8
BLACK
6
CONTINUOUS
10
86.8041
20
-52.1936
11
86.8122
21
-52.0339
0
LINE
8
BLACK
6
CONTINUOUS
10
86.8122
20
-52.0339
11
86.819
21
-51.9651
0
LINE
8
BLACK
6
CONTINUOUS
10
86.819
20
-51.9651
11
93.8737
21
-51.9651
0
LINE
8
BLACK
6
CONTINUOUS
10
93.8737
20
-51.9651
11
93.8776
21
-52.2242
0
LINE
8
BLACK
6
CONTINUOUS
10
93.8776
20
-52.2242
11
93.9252
21
-52.4756
0
LINE
8
BLACK
6
CONTINUOUS
10
93.9252
20
-52.4756
11
94.0133
21
-52.7143
0
LINE
8
BLACK
6
CONTINUOUS
10
94.0133
20
-52.7143
11
94.1392
21
-52.9356
0
LINE
8
BLACK
6
CONTINUOUS
10
94.1392
20
-52.9356
11
94.2996
21
-53.1344
0
LINE
8
BLACK
6
CONTINUOUS
10
94.2996
20
-53.1344
11
94.4918
21
-53.306
0
LINE
8
BLACK
6
CONTINUOUS
10
94.4918
20
-53.306
11
94.7126
21
-53.4454
0
LINE
8
BLACK
6
CONTINUOUS
10
94.7126
20
-53.4454
11
94.9592
21
-53.5477
0
LINE
8
BLACK
6
CONTINUOUS
10
94.9592
20
-53.5477
11
95.0581
21
-53.5756
0
LINE
8
BLACK
6
CONTINUOUS
10
95.0581
20
-53.5756
11
95.1938
21
-53.5979
0
LINE
8
BLACK
6
CONTINUOUS
10
95.1938
20
-53.5979
11
95.3561
21
-53.6075
0
LINE
8
BLACK
6
CONTINUOUS
10
95.3561
20
-53.6075
11
95.5261
21
-53.6047
0
LINE
8
BLACK
6
CONTINUOUS
10
95.5261
20
-53.6047
11
95.6851
21
-53.5898
0
LINE
8
BLACK
6
CONTINUOUS
10
95.6851
20
-53.5898
11
95.8132
21
-53.5634
0
LINE
8
BLACK
6
CONTINUOUS
10
95.8132
20
-53.5634
11
96.0671
21
-53.4639
0
LINE
8
BLACK
6
CONTINUOUS
10
96.0671
20
-53.4639
11
96.302
21
-53.3246
0
LINE
8
BLACK
6
CONTINUOUS
10
96.302
20
-53.3246
11
96.5099
21
-53.1515
0
LINE
8
BLACK
6
CONTINUOUS
10
96.5099
20
-53.1515
11
96.6824
21
-52.9507
0
LINE
8
BLACK
6
CONTINUOUS
10
96.6824
20
-52.9507
11
96.71
21
-52.9106
0
LINE
8
BLACK
6
CONTINUOUS
10
96.71
20
-52.9106
11
96.8303
21
-52.6871
0
LINE
8
BLACK
6
CONTINUOUS
10
96.8303
20
-52.6871
11
96.9124
21
-52.4418
0
LINE
8
BLACK
6
CONTINUOUS
10
96.9124
20
-52.4418
11
96.9541
21
-52.1859
0
LINE
8
BLACK
6
CONTINUOUS
10
96.9541
20
-52.1859
11
96.9532
21
-51.9306
0
LINE
8
BLACK
6
CONTINUOUS
10
96.9532
20
-51.9306
11
96.9325
21
-51.7882
0
LINE
8
BLACK
6
CONTINUOUS
10
96.9325
20
-51.7882
11
96.8551
21
-51.5218
0
LINE
8
BLACK
6
CONTINUOUS
10
96.8551
20
-51.5218
11
96.7383
21
-51.2807
0
LINE
8
BLACK
6
CONTINUOUS
10
96.7383
20
-51.2807
11
96.5867
21
-51.0676
0
LINE
8
BLACK
6
CONTINUOUS
10
96.5867
20
-51.0676
11
96.4045
21
-50.8856
0
LINE
8
BLACK
6
CONTINUOUS
10
96.4045
20
-50.8856
11
96.1961
21
-50.7375
0
LINE
8
BLACK
6
CONTINUOUS
10
96.1961
20
-50.7375
11
95.9659
21
-50.6262
0
LINE
8
BLACK
6
CONTINUOUS
10
95.9659
20
-50.6262
11
95.7182
21
-50.5548
0
LINE
8
BLACK
6
CONTINUOUS
10
95.7182
20
-50.5548
11
95.4574
21
-50.526
0
LINE
8
BLACK
6
CONTINUOUS
10
95.4574
20
-50.526
11
95.1879
21
-50.5429
0
LINE
8
BLACK
6
CONTINUOUS
10
95.1879
20
-50.5429
11
95.0953
21
-50.5595
0
LINE
8
BLACK
6
CONTINUOUS
10
95.0953
20
-50.5595
11
94.8389
21
-50.6377
0
LINE
8
BLACK
6
CONTINUOUS
10
94.8389
20
-50.6377
11
94.603
21
-50.7585
0
LINE
8
BLACK
6
CONTINUOUS
10
94.603
20
-50.7585
11
94.3919
21
-50.9177
0
LINE
8
BLACK
6
CONTINUOUS
10
94.3919
20
-50.9177
11
94.2102
21
-51.1108
0
LINE
8
BLACK
6
CONTINUOUS
10
94.2102
20
-51.1108
11
94.0623
21
-51.3335
0
LINE
8
BLACK
6
CONTINUOUS
10
94.0623
20
-51.3335
11
93.9528
21
-51.5814
0
LINE
8
BLACK
6
CONTINUOUS
10
93.9528
20
-51.5814
11
93.9163
21
-51.7032
0
LINE
8
BLACK
6
CONTINUOUS
10
93.9163
20
-51.7032
11
93.8737
21
-51.9651
0
LINE
8
BLACK
6
CONTINUOUS
10
93.8737
20
-51.9651
11
86.819
21
-51.9651
0
LINE
8
BLACK
6
CONTINUOUS
10
86.819
20
-51.9651
11
86.8254
21
-51.9014
0
LINE
8
BLACK
6
CONTINUOUS
10
86.8254
20
-51.9014
11
86.8445
21
-51.7886
0
LINE
8
BLACK
6
CONTINUOUS
10
86.8445
20
-51.7886
11
86.8706
21
-51.6881
0
LINE
8
BLACK
6
CONTINUOUS
10
86.8706
20
-51.6881
11
86.9048
21
-51.5924
0
LINE
8
BLACK
6
CONTINUOUS
10
86.9048
20
-51.5924
11
86.948
21
-51.4942
0
LINE
8
BLACK
6
CONTINUOUS
10
86.948
20
-51.4942
11
86.9557
21
-51.478
0
LINE
8
BLACK
6
CONTINUOUS
10
86.9557
20
-51.478
11
87.0994
21
-51.2257
0
LINE
8
BLACK
6
CONTINUOUS
10
87.0994
20
-51.2257
11
87.2715
21
-51.0125
0
LINE
8
BLACK
6
CONTINUOUS
10
87.2715
20
-51.0125
11
87.4762
21
-50.8342
0
LINE
8
BLACK
6
CONTINUOUS
10
87.4762
20
-50.8342
11
87.7176
21
-50.6865
0
LINE
8
BLACK
6
CONTINUOUS
10
87.7176
20
-50.6865
11
87.7531
21
-50.6687
0
LINE
8
BLACK
6
CONTINUOUS
10
87.7531
20
-50.6687
11
87.7932
21
-50.6486
0
LINE
8
BLACK
6
CONTINUOUS
10
87.7932
20
-50.6486
11
87.8291
21
-50.63
0
LINE
8
BLACK
6
CONTINUOUS
10
87.8291
20
-50.63
11
87.8629
21
-50.6131
0
LINE
8
BLACK
6
CONTINUOUS
10
87.8629
20
-50.6131
11
87.8966
21
-50.5977
0
LINE
8
BLACK
6
CONTINUOUS
10
87.8966
20
-50.5977
11
87.9326
21
-50.5837
0
LINE
8
BLACK
6
CONTINUOUS
10
87.9326
20
-50.5837
11
87.973
21
-50.5711
0
LINE
8
BLACK
6
CONTINUOUS
10
87.973
20
-50.5711
11
88.0199
21
-50.5598
0
LINE
8
BLACK
6
CONTINUOUS
10
88.0199
20
-50.5598
11
88.0754
21
-50.5497
0
LINE
8
BLACK
6
CONTINUOUS
10
88.0754
20
-50.5497
11
88.1418
21
-50.5408
0
LINE
8
BLACK
6
CONTINUOUS
10
88.1418
20
-50.5408
11
88.2212
21
-50.5329
0
LINE
8
BLACK
6
CONTINUOUS
10
88.2212
20
-50.5329
11
88.3157
21
-50.5261
0
LINE
8
BLACK
6
CONTINUOUS
10
88.3157
20
-50.5261
11
88.4276
21
-50.5202
0
LINE
8
BLACK
6
CONTINUOUS
10
88.4276
20
-50.5202
11
88.5589
21
-50.5152
0
LINE
8
BLACK
6
CONTINUOUS
10
88.5589
20
-50.5152
11
88.7119
21
-50.511
0
LINE
8
BLACK
6
CONTINUOUS
10
88.7119
20
-50.511
11
88.8887
21
-50.5076
0
LINE
8
BLACK
6
CONTINUOUS
10
88.8887
20
-50.5076
11
89.0914
21
-50.5048
0
LINE
8
BLACK
6
CONTINUOUS
10
89.0914
20
-50.5048
11
89.3222
21
-50.5026
0
LINE
8
BLACK
6
CONTINUOUS
10
89.3222
20
-50.5026
11
89.5833
21
-50.5009
0
LINE
8
BLACK
6
CONTINUOUS
10
89.5833
20
-50.5009
11
89.8769
21
-50.4997
0
LINE
8
BLACK
6
CONTINUOUS
10
89.8769
20
-50.4997
11
90.205
21
-50.4988
0
LINE
8
BLACK
6
CONTINUOUS
10
90.205
20
-50.4988
11
90.5699
21
-50.4983
0
LINE
8
BLACK
6
CONTINUOUS
10
90.5699
20
-50.4983
11
90.9737
21
-50.498
0
LINE
8
BLACK
6
CONTINUOUS
10
90.9737
20
-50.498
11
91.4186
21
-50.4979
0
LINE
8
BLACK
6
CONTINUOUS
10
91.4186
20
-50.4979
11
91.9067
21
-50.4979
0
LINE
8
BLACK
6
CONTINUOUS
10
91.9067
20
-50.4979
11
92.4402
21
-50.4979
0
LINE
8
BLACK
6
CONTINUOUS
10
92.4402
20
-50.4979
11
92.9931
21
-50.4979
0
LINE
8
BLACK
6
CONTINUOUS
10
92.9931
20
-50.4979
11
97.6874
21
-50.4975
0
LINE
8
BLACK
6
CONTINUOUS
10
97.6874
20
-50.4975
11
97.6874
21
-50.7207
0
LINE
8
BLACK
6
CONTINUOUS
10
97.6874
20
-50.7207
11
97.3897
21
-50.7207
0
LINE
8
BLACK
6
CONTINUOUS
10
97.3897
20
-50.7207
11
97.3897
21
-53.4244
0
LINE
8
BLACK
6
CONTINUOUS
10
97.3897
20
-53.4244
11
97.6874
21
-53.4244
0
LINE
8
BLACK
6
CONTINUOUS
10
97.6874
20
-53.4244
11
97.6874
21
-54.4896
0
LINE
8
BLACK
6
CONTINUOUS
10
97.6874
20
-54.4896
11
94.8162
21
-54.4973
0
LINE
8
BLACK
6
CONTINUOUS
10
94.8162
20
-54.4973
11
94.3707
21
-54.4985
0
LINE
8
BLACK
6
CONTINUOUS
10
94.3707
20
-54.4985
11
93.972
21
-54.4994
0
LINE
8
BLACK
6
CONTINUOUS
10
93.972
20
-54.4994
11
93.6171
21
-54.5003
0
LINE
8
BLACK
6
CONTINUOUS
10
93.6171
20
-54.5003
11
93.3031
21
-54.5014
0
LINE
8
BLACK
6
CONTINUOUS
10
93.3031
20
-54.5014
11
93.0272
21
-54.5028
0
LINE
8
BLACK
6
CONTINUOUS
10
93.0272
20
-54.5028
11
92.7865
21
-54.5047
0
LINE
8
BLACK
6
CONTINUOUS
10
92.7865
20
-54.5047
11
92.578
21
-54.5073
0
LINE
8
BLACK
6
CONTINUOUS
10
92.578
20
-54.5073
11
92.399
21
-54.5107
0
LINE
8
BLACK
6
CONTINUOUS
10
92.399
20
-54.5107
11
92.2465
21
-54.5151
0
LINE
8
BLACK
6
CONTINUOUS
10
92.2465
20
-54.5151
11
92.1175
21
-54.5206
0
LINE
8
BLACK
6
CONTINUOUS
10
92.1175
20
-54.5206
11
92.0094
21
-54.5275
0
LINE
8
BLACK
6
CONTINUOUS
10
92.0094
20
-54.5275
11
91.919
21
-54.5359
0
LINE
8
BLACK
6
CONTINUOUS
10
91.919
20
-54.5359
11
91.9008
21
-54.5384
0
LINE
8
BLACK
6
CONTINUOUS
10
91.9008
20
-54.5384
11
91.8437
21
-54.546
0
LINE
8
BLACK
6
CONTINUOUS
10
91.8437
20
-54.546
11
91.7804
21
-54.5579
0
LINE
8
BLACK
6
CONTINUOUS
10
72.7304
20
-92.6579
11
72.6763
21
-92.6718
0
LINE
8
BLACK
6
CONTINUOUS
10
72.6763
20
-92.6718
11
72.6285
21
-92.6879
0
LINE
8
BLACK
6
CONTINUOUS
10
72.6285
20
-92.6879
11
72.5842
21
-92.7063
0
LINE
8
BLACK
6
CONTINUOUS
10
72.5842
20
-92.7063
11
72.5403
21
-92.7272
0
LINE
8
BLACK
6
CONTINUOUS
10
72.5403
20
-92.7272
11
72.4941
21
-92.7508
0
LINE
8
BLACK
6
CONTINUOUS
10
72.4941
20
-92.7508
11
72.4427
21
-92.7773
0
LINE
8
BLACK
6
CONTINUOUS
10
72.4427
20
-92.7773
11
72.4122
21
-92.7925
0
LINE
8
BLACK
6
CONTINUOUS
10
72.4122
20
-92.7925
11
72.2843
21
-92.8624
0
LINE
8
BLACK
6
CONTINUOUS
10
72.2843
20
-92.8624
11
72.1743
21
-92.9395
0
LINE
8
BLACK
6
CONTINUOUS
10
72.1743
20
-92.9395
11
72.0631
21
-93.0382
0
LINE
8
BLACK
6
CONTINUOUS
10
72.0631
20
-93.0382
11
72.0153
21
-93.0854
0
LINE
8
BLACK
6
CONTINUOUS
10
72.0153
20
-93.0854
11
71.8218
21
-93.3116
0
LINE
8
BLACK
6
CONTINUOUS
10
71.8218
20
-93.3116
11
71.6759
21
-93.5506
0
LINE
8
BLACK
6
CONTINUOUS
10
71.6759
20
-93.5506
11
71.5778
21
-93.8018
0
LINE
8
BLACK
6
CONTINUOUS
10
71.5778
20
-93.8018
11
71.5277
21
-94.0647
0
LINE
8
BLACK
6
CONTINUOUS
10
71.5277
20
-94.0647
11
71.525
21
-94.0956
0
LINE
8
BLACK
6
CONTINUOUS
10
71.525
20
-94.0956
11
71.5113
21
-94.2777
0
LINE
8
BLACK
6
CONTINUOUS
10
71.5113
20
-94.2777
11
67.7481
21
-94.2777
0
LINE
8
BLACK
6
CONTINUOUS
10
67.7481
20
-94.2777
11
67.7481
21
-94.0545
0
LINE
8
BLACK
6
CONTINUOUS
10
67.7481
20
-94.0545
11
68.0458
21
-94.0545
0
LINE
8
BLACK
6
CONTINUOUS
10
68.0458
20
-94.0545
11
68.0458
21
-92.7363
0
LINE
8
BLACK
6
CONTINUOUS
10
68.0458
20
-92.7363
11
68.4779
21
-92.7363
0
LINE
8
BLACK
6
CONTINUOUS
10
68.4779
20
-92.7363
11
68.5041
21
-92.9958
0
LINE
8
BLACK
6
CONTINUOUS
10
68.5041
20
-92.9958
11
68.5734
21
-93.2447
0
LINE
8
BLACK
6
CONTINUOUS
10
68.5734
20
-93.2447
11
68.6837
21
-93.4782
0
LINE
8
BLACK
6
CONTINUOUS
10
68.6837
20
-93.4782
11
68.8328
21
-93.6912
0
LINE
8
BLACK
6
CONTINUOUS
10
68.8328
20
-93.6912
11
69.0187
21
-93.8788
0
LINE
8
BLACK
6
CONTINUOUS
10
69.0187
20
-93.8788
11
69.2392
21
-94.0361
0
LINE
8
BLACK
6
CONTINUOUS
10
69.2392
20
-94.0361
11
69.375
21
-94.1081
0
LINE
8
BLACK
6
CONTINUOUS
10
69.375
20
-94.1081
11
69.6215
21
-94.1983
0
LINE
8
BLACK
6
CONTINUOUS
10
69.6215
20
-94.1983
11
69.8755
21
-94.2429
0
LINE
8
BLACK
6
CONTINUOUS
10
69.8755
20
-94.2429
11
70.1311
21
-94.2439
0
LINE
8
BLACK
6
CONTINUOUS
10
70.1311
20
-94.2439
11
70.3826
21
-94.2034
0
LINE
8
BLACK
6
CONTINUOUS
10
70.3826
20
-94.2034
11
70.624
21
-94.1232
0
LINE
8
BLACK
6
CONTINUOUS
10
70.624
20
-94.1232
11
70.8495
21
-94.0055
0
LINE
8
BLACK
6
CONTINUOUS
10
70.8495
20
-94.0055
11
71.0532
21
-93.8523
0
LINE
8
BLACK
6
CONTINUOUS
10
71.0532
20
-93.8523
11
71.2294
21
-93.6655
0
LINE
8
BLACK
6
CONTINUOUS
10
71.2294
20
-93.6655
11
71.3721
21
-93.4472
0
LINE
8
BLACK
6
CONTINUOUS
10
71.3721
20
-93.4472
11
71.3882
21
-93.416
0
LINE
8
BLACK
6
CONTINUOUS
10
71.3882
20
-93.416
11
71.4922
21
-93.1573
0
LINE
8
BLACK
6
CONTINUOUS
10
71.4922
20
-93.1573
11
71.5492
21
-92.8966
0
LINE
8
BLACK
6
CONTINUOUS
10
71.5492
20
-92.8966
11
71.5615
21
-92.6384
0
LINE
8
BLACK
6
CONTINUOUS
10
71.5615
20
-92.6384
11
71.5313
21
-92.3869
0
LINE
8
BLACK
6
CONTINUOUS
10
71.5313
20
-92.3869
11
71.4607
21
-92.1466
0
LINE
8
BLACK
6
CONTINUOUS
10
71.4607
20
-92.1466
11
71.3521
21
-91.922
0
LINE
8
BLACK
6
CONTINUOUS
10
71.3521
20
-91.922
11
71.2076
21
-91.7174
0
LINE
8
BLACK
6
CONTINUOUS
10
71.2076
20
-91.7174
11
71.0295
21
-91.5373
0
LINE
8
BLACK
6
CONTINUOUS
10
71.0295
20
-91.5373
11
70.82
21
-91.386
0
LINE
8
BLACK
6
CONTINUOUS
10
70.82
20
-91.386
11
70.5813
21
-91.2679
0
LINE
8
BLACK
6
CONTINUOUS
10
70.5813
20
-91.2679
11
70.3156
21
-91.1876
0
LINE
8
BLACK
6
CONTINUOUS
10
70.3156
20
-91.1876
11
70.2594
21
-91.1764
0
LINE
8
BLACK
6
CONTINUOUS
10
70.2594
20
-91.1764
11
70.1059
21
-91.1623
0
LINE
8
BLACK
6
CONTINUOUS
10
70.1059
20
-91.1623
11
69.9273
21
-91.1677
0
LINE
8
BLACK
6
CONTINUOUS
10
69.9273
20
-91.1677
11
69.7433
21
-91.1908
0
LINE
8
BLACK
6
CONTINUOUS
10
69.7433
20
-91.1908
11
69.5737
21
-91.2299
0
LINE
8
BLACK
6
CONTINUOUS
10
69.5737
20
-91.2299
11
69.54
21
-91.2405
0
LINE
8
BLACK
6
CONTINUOUS
10
69.54
20
-91.2405
11
69.3639
21
-91.3082
0
LINE
8
BLACK
6
CONTINUOUS
10
69.3639
20
-91.3082
11
69.2158
21
-91.3872
0
LINE
8
BLACK
6
CONTINUOUS
10
69.2158
20
-91.3872
11
69.0763
21
-91.4891
0
LINE
8
BLACK
6
CONTINUOUS
10
69.0763
20
-91.4891
11
68.973
21
-91.5805
0
LINE
8
BLACK
6
CONTINUOUS
10
68.973
20
-91.5805
11
68.7992
21
-91.7673
0
LINE
8
BLACK
6
CONTINUOUS
10
68.7992
20
-91.7673
11
68.6669
21
-91.9669
0
LINE
8
BLACK
6
CONTINUOUS
10
68.6669
20
-91.9669
11
68.5679
21
-92.1918
0
LINE
8
BLACK
6
CONTINUOUS
10
68.5679
20
-92.1918
11
68.5632
21
-92.2054
0
LINE
8
BLACK
6
CONTINUOUS
10
68.5632
20
-92.2054
11
68.4969
21
-92.4712
0
LINE
8
BLACK
6
CONTINUOUS
10
68.4969
20
-92.4712
11
68.4779
21
-92.7363
0
LINE
8
BLACK
6
CONTINUOUS
10
68.4779
20
-92.7363
11
68.0458
21
-92.7363
0
LINE
8
BLACK
6
CONTINUOUS
10
68.0458
20
-92.7363
11
68.0458
21
-91.3508
0
LINE
8
BLACK
6
CONTINUOUS
10
68.0458
20
-91.3508
11
67.7481
21
-91.3508
0
LINE
8
BLACK
6
CONTINUOUS
10
67.7481
20
-91.3508
11
67.7485
21
-90.7245
0
LINE
8
BLACK
6
CONTINUOUS
10
67.7485
20
-90.7245
11
67.7498
21
-90.488
0
LINE
8
BLACK
6
CONTINUOUS
10
67.7498
20
-90.488
11
67.7541
21
-90.2936
0
LINE
8
BLACK
6
CONTINUOUS
10
67.7541
20
-90.2936
11
67.7622
21
-90.1339
0
LINE
8
BLACK
6
CONTINUOUS
10
67.7622
20
-90.1339
11
67.769
21
-90.0651
0
LINE
8
BLACK
6
CONTINUOUS
10
67.769
20
-90.0651
11
74.8237
21
-90.0651
0
LINE
8
BLACK
6
CONTINUOUS
10
74.8237
20
-90.0651
11
74.8276
21
-90.3242
0
LINE
8
BLACK
6
CONTINUOUS
10
74.8276
20
-90.3242
11
74.8752
21
-90.5756
0
LINE
8
BLACK
6
CONTINUOUS
10
74.8752
20
-90.5756
11
74.9633
21
-90.8143
0
LINE
8
BLACK
6
CONTINUOUS
10
74.9633
20
-90.8143
11
75.0892
21
-91.0356
0
LINE
8
BLACK
6
CONTINUOUS
10
75.0892
20
-91.0356
11
75.2496
21
-91.2344
0
LINE
8
BLACK
6
CONTINUOUS
10
75.2496
20
-91.2344
11
75.4418
21
-91.406
0
LINE
8
BLACK
6
CONTINUOUS
10
75.4418
20
-91.406
11
75.6626
21
-91.5454
0
LINE
8
BLACK
6
CONTINUOUS
10
75.6626
20
-91.5454
11
75.9092
21
-91.6477
0
LINE
8
BLACK
6
CONTINUOUS
10
75.9092
20
-91.6477
11
76.0081
21
-91.6756
0
LINE
8
BLACK
6
CONTINUOUS
10
76.0081
20
-91.6756
11
76.1438
21
-91.6979
0
LINE
8
BLACK
6
CONTINUOUS
10
76.1438
20
-91.6979
11
76.3061
21
-91.7075
0
LINE
8
BLACK
6
CONTINUOUS
10
76.3061
20
-91.7075
11
76.4761
21
-91.7047
0
LINE
8
BLACK
6
CONTINUOUS
10
76.4761
20
-91.7047
11
76.6351
21
-91.6898
0
LINE
8
BLACK
6
CONTINUOUS
10
76.6351
20
-91.6898
11
76.7632
21
-91.6634
0
LINE
8
BLACK
6
CONTINUOUS
10
76.7632
20
-91.6634
11
77.0171
21
-91.5639
0
LINE
8
BLACK
6
CONTINUOUS
10
77.0171
20
-91.5639
11
77.252
21
-91.4246
0
LINE
8
BLACK
6
CONTINUOUS
10
77.252
20
-91.4246
11
77.4599
21
-91.2515
0
LINE
8
BLACK
6
CONTINUOUS
10
77.4599
20
-91.2515
11
77.6324
21
-91.0507
0
LINE
8
BLACK
6
CONTINUOUS
10
77.6324
20
-91.0507
11
77.66
21
-91.0106
0
LINE
8
BLACK
6
CONTINUOUS
10
77.66
20
-91.0106
11
77.7803
21
-90.7871
0
LINE
8
BLACK
6
CONTINUOUS
10
77.7803
20
-90.7871
11
77.8624
21
-90.5418
0
LINE
8
BLACK
6
CONTINUOUS
10
77.8624
20
-90.5418
11
77.9041
21
-90.2859
0
LINE
8
BLACK
6
CONTINUOUS
10
77.9041
20
-90.2859
11
77.9032
21
-90.0306
0
LINE
8
BLACK
6
CONTINUOUS
10
77.9032
20
-90.0306
11
77.8825
21
-89.8882
0
LINE
8
BLACK
6
CONTINUOUS
10
77.8825
20
-89.8882
11
77.8051
21
-89.6218
0
LINE
8
BLACK
6
CONTINUOUS
10
77.8051
20
-89.6218
11
77.6883
21
-89.3807
0
LINE
8
BLACK
6
CONTINUOUS
10
77.6883
20
-89.3807
11
77.5367
21
-89.1676
0
LINE
8
BLACK
6
CONTINUOUS
10
77.5367
20
-89.1676
11
77.3545
21
-88.9856
0
LINE
8
BLACK
6
CONTINUOUS
10
77.3545
20
-88.9856
11
77.1461
21
-88.8375
0
LINE
8
BLACK
6
CONTINUOUS
10
77.1461
20
-88.8375
11
76.9159
21
-88.7262
0
LINE
8
BLACK
6
CONTINUOUS
10
76.9159
20
-88.7262
11
76.6682
21
-88.6548
0
LINE
8
BLACK
6
CONTINUOUS
10
76.6682
20
-88.6548
11
76.4074
21
-88.626
0
LINE
8
BLACK
6
CONTINUOUS
10
76.4074
20
-88.626
11
76.1379
21
-88.6429
0
LINE
8
BLACK
6
CONTINUOUS
10
76.1379
20
-88.6429
11
76.0453
21
-88.6595
0
LINE
8
BLACK
6
CONTINUOUS
10
76.0453
20
-88.6595
11
75.7889
21
-88.7377
0
LINE
8
BLACK
6
CONTINUOUS
10
75.7889
20
-88.7377
11
75.553
21
-88.8585
0
LINE
8
BLACK
6
CONTINUOUS
10
75.553
20
-88.8585
11
75.3419
21
-89.0177
0
LINE
8
BLACK
6
CONTINUOUS
10
75.3419
20
-89.0177
11
75.1602
21
-89.2108
0
LINE
8
BLACK
6
CONTINUOUS
10
75.1602
20
-89.2108
11
75.0123
21
-89.4335
0
LINE
8
BLACK
6
CONTINUOUS
10
75.0123
20
-89.4335
11
74.9028
21
-89.6813
0
LINE
8
BLACK
6
CONTINUOUS
10
74.9028
20
-89.6813
11
74.8663
21
-89.8032
0
LINE
8
BLACK
6
CONTINUOUS
10
74.8663
20
-89.8032
11
74.8237
21
-90.0651
0
LINE
8
BLACK
6
CONTINUOUS
10
74.8237
20
-90.0651
11
67.769
21
-90.0651
0
LINE
8
BLACK
6
CONTINUOUS
10
67.769
20
-90.0651
11
67.7754
21
-90.0014
0
LINE
8
BLACK
6
CONTINUOUS
10
67.7754
20
-90.0014
11
67.7945
21
-89.8886
0
LINE
8
BLACK
6
CONTINUOUS
10
67.7945
20
-89.8886
11
67.8206
21
-89.7881
0
LINE
8
BLACK
6
CONTINUOUS
10
67.8206
20
-89.7881
11
67.8548
21
-89.6924
0
LINE
8
BLACK
6
CONTINUOUS
10
67.8548
20
-89.6924
11
67.898
21
-89.5942
0
LINE
8
BLACK
6
CONTINUOUS
10
67.898
20
-89.5942
11
67.9057
21
-89.578
0
LINE
8
BLACK
6
CONTINUOUS
10
67.9057
20
-89.578
11
68.0494
21
-89.3257
0
LINE
8
BLACK
6
CONTINUOUS
10
68.0494
20
-89.3257
11
68.2215
21
-89.1125
0
LINE
8
BLACK
6
CONTINUOUS
10
68.2215
20
-89.1125
11
68.4262
21
-88.9342
0
LINE
8
BLACK
6
CONTINUOUS
10
68.4262
20
-88.9342
11
68.6676
21
-88.7865
0
LINE
8
BLACK
6
CONTINUOUS
10
68.6676
20
-88.7865
11
68.7031
21
-88.7687
0
LINE
8
BLACK
6
CONTINUOUS
10
68.7031
20
-88.7687
11
68.7432
21
-88.7486
0
LINE
8
BLACK
6
CONTINUOUS
10
68.7432
20
-88.7486
11
68.7791
21
-88.73
0
LINE
8
BLACK
6
CONTINUOUS
10
68.7791
20
-88.73
11
68.8129
21
-88.7131
0
LINE
8
BLACK
6
CONTINUOUS
10
68.8129
20
-88.7131
11
68.8466
21
-88.6977
0
LINE
8
BLACK
6
CONTINUOUS
10
68.8466
20
-88.6977
11
68.8826
21
-88.6837
0
LINE
8
BLACK
6
CONTINUOUS
10
68.8826
20
-88.6837
11
68.923
21
-88.6711
0
LINE
8
BLACK
6
CONTINUOUS
10
68.923
20
-88.6711
11
68.9699
21
-88.6598
0
LINE
8
BLACK
6
CONTINUOUS
10
68.9699
20
-88.6598
11
69.0254
21
-88.6497
0
LINE
8
BLACK
6
CONTINUOUS
10
69.0254
20
-88.6497
11
69.0918
21
-88.6408
0
LINE
8
BLACK
6
CONTINUOUS
10
69.0918
20
-88.6408
11
69.1712
21
-88.6329
0
LINE
8
BLACK
6
CONTINUOUS
10
69.1712
20
-88.6329
11
69.2657
21
-88.6261
0
LINE
8
BLACK
6
CONTINUOUS
10
69.2657
20
-88.6261
11
69.3776
21
-88.6202
0
LINE
8
BLACK
6
CONTINUOUS
10
69.3776
20
-88.6202
11
69.5089
21
-88.6152
0
LINE
8
BLACK
6
CONTINUOUS
10
69.5089
20
-88.6152
11
69.6619
21
-88.611
0
LINE
8
BLACK
6
CONTINUOUS
10
69.6619
20
-88.611
11
69.8387
21
-88.6076
0
LINE
8
BLACK
6
CONTINUOUS
10
69.8387
20
-88.6076
11
70.0414
21
-88.6048
0
LINE
8
BLACK
6
CONTINUOUS
10
70.0414
20
-88.6048
11
70.2722
21
-88.6026
0
LINE
8
BLACK
6
CONTINUOUS
10
70.2722
20
-88.6026
11
70.5333
21
-88.6009
0
LINE
8
BLACK
6
CONTINUOUS
10
70.5333
20
-88.6009
11
70.8269
21
-88.5997
0
LINE
8
BLACK
6
CONTINUOUS
10
70.8269
20
-88.5997
11
71.155
21
-88.5988
0
LINE
8
BLACK
6
CONTINUOUS
10
71.155
20
-88.5988
11
71.5199
21
-88.5983
0
LINE
8
BLACK
6
CONTINUOUS
10
71.5199
20
-88.5983
11
71.9237
21
-88.598
0
LINE
8
BLACK
6
CONTINUOUS
10
71.9237
20
-88.598
11
72.3686
21
-88.5979
0
LINE
8
BLACK
6
CONTINUOUS
10
72.3686
20
-88.5979
11
72.8567
21
-88.5979
0
LINE
8
BLACK
6
CONTINUOUS
10
72.8567
20
-88.5979
11
73.3902
21
-88.5979
0
LINE
8
BLACK
6
CONTINUOUS
10
73.3902
20
-88.5979
11
73.9431
21
-88.5979
0
LINE
8
BLACK
6
CONTINUOUS
10
73.9431
20
-88.5979
11
78.6374
21
-88.5975
0
LINE
8
BLACK
6
CONTINUOUS
10
78.6374
20
-88.5975
11
78.6374
21
-88.8207
0
LINE
8
BLACK
6
CONTINUOUS
10
78.6374
20
-88.8207
11
78.3397
21
-88.8207
0
LINE
8
BLACK
6
CONTINUOUS
10
78.3397
20
-88.8207
11
78.3397
21
-91.5244
0
LINE
8
BLACK
6
CONTINUOUS
10
78.3397
20
-91.5244
11
78.6374
21
-91.5244
0
LINE
8
BLACK
6
CONTINUOUS
10
78.6374
20
-91.5244
11
78.6374
21
-92.5896
0
LINE
8
BLACK
6
CONTINUOUS
10
78.6374
20
-92.5896
11
75.7662
21
-92.5973
0
LINE
8
BLACK
6
CONTINUOUS
10
75.7662
20
-92.5973
11
75.3207
21
-92.5985
0
LINE
8
BLACK
6
CONTINUOUS
10
75.3207
20
-92.5985
11
74.922
21
-92.5994
0
LINE
8
BLACK
6
CONTINUOUS
10
74.922
20
-92.5994
11
74.5671
21
-92.6003
0
LINE
8
BLACK
6
CONTINUOUS
10
74.5671
20
-92.6003
11
74.2531
21
-92.6014
0
LINE
8
BLACK
6
CONTINUOUS
10
74.2531
20
-92.6014
11
73.9772
21
-92.6028
0
LINE
8
BLACK
6
CONTINUOUS
10
73.9772
20
-92.6028
11
73.7365
21
-92.6047
0
LINE
8
BLACK
6
CONTINUOUS
10
73.7365
20
-92.6047
11
73.528
21
-92.6073
0
LINE
8
BLACK
6
CONTINUOUS
10
73.528
20
-92.6073
11
73.349
21
-92.6107
0
LINE
8
BLACK
6
CONTINUOUS
10
73.349
20
-92.6107
11
73.1965
21
-92.6151
0
LINE
8
BLACK
6
CONTINUOUS
10
73.1965
20
-92.6151
11
73.0675
21
-92.6206
0
LINE
8
BLACK
6
CONTINUOUS
10
73.0675
20
-92.6206
11
72.9594
21
-92.6275
0
LINE
8
BLACK
6
CONTINUOUS
10
72.9594
20
-92.6275
11
72.8691
21
-92.6359
0
LINE
8
BLACK
6
CONTINUOUS
10
72.8691
20
-92.6359
11
72.8508
21
-92.6384
0
LINE
8
BLACK
6
CONTINUOUS
10
72.8508
20
-92.6384
11
72.7937
21
-92.646
0
LINE
8
BLACK
6
CONTINUOUS
10
72.7937
20
-92.646
11
72.7304
21
-92.6579
0
LINE
8
BLACK
6
CONTINUOUS
10
104.52
20
-32.5408
11
104.52
21
-32.9808
0
LINE
8
BLACK
6
CONTINUOUS
10
79.9703
20
-21.4008
11
79.9703
21
-30.0308
0
LINE
8
BLACK
6
CONTINUOUS
10
88.5603
20
-32.5408
11
88.5603
21
-32.9808
0
LINE
8
BLACK
6
CONTINUOUS
10
88.5603
20
-30.0308
11
88.5603
21
-30.4408
0
LINE
8
BLACK
6
CONTINUOUS
10
86.0203
20
-32.5408
11
86.0203
21
-32.9808
0
LINE
8
BLACK
6
CONTINUOUS
10
97.8103
20
-21.4008
11
97.8103
21
-30.0308
0
LINE
8
BLACK
6
CONTINUOUS
10
92.7303
20
-21.4008
11
92.7303
21
-30.0308
0
LINE
8
BLACK
6
CONTINUOUS
10
84.2003
20
-30.0308
11
84.2003
21
-30.4408
0
LINE
8
BLACK
6
CONTINUOUS
10
101.26
20
-32.5408
11
101.26
21
-32.9808
0
LINE
8
BLACK
6
CONTINUOUS
10
96.9003
20
-30.0308
11
96.9003
21
-30.4408
0
LINE
8
BLACK
6
CONTINUOUS
10
93.6403
20
-30.0308
11
93.6403
21
-30.4408
0
LINE
8
BLACK
6
CONTINUOUS
10
80.2084
20
-21.4008
11
80.2084
21
-30.0308
0
LINE
8
BLACK
6
CONTINUOUS
10
79.9703
20
-30.0308
11
105.49
21
-30.0308
0
LINE
8
BLACK
6
CONTINUOUS
10
103.8
20
-30.0308
11
103.8
21
-30.4408
0
LINE
8
BLACK
6
CONTINUOUS
10
105.49
20
-21.4008
11
105.49
21
-30.0308
0
LINE
8
BLACK
6
CONTINUOUS
10
87.6503
20
-21.4008
11
87.6503
21
-30.0308
0
LINE
8
BLACK
6
CONTINUOUS
10
94.3603
20
-32.5408
11
94.3603
21
-32.9808
0
LINE
8
BLACK
6
CONTINUOUS
10
91.1003
20
-30.0308
11
91.1003
21
-30.4408
0
LINE
8
BLACK
6
CONTINUOUS
10
80.917
20
-21.4008
11
80.917
21
-30.0308
0
LINE
8
BLACK
6
CONTINUOUS
10
81.6603
20
-32.5408
11
81.6603
21
-32.9208
0
LINE
8
BLACK
6
CONTINUOUS
10
81.0351
20
-21.4008
11
81.0351
21
-30.0308
0
LINE
8
BLACK
6
CONTINUOUS
10
82.0979
20
-21.4008
11
82.0979
21
-30.0308
0
LINE
8
BLACK
6
CONTINUOUS
10
98.7203
20
-30.0308
11
98.7203
21
-30.4408
0
LINE
8
BLACK
6
CONTINUOUS
10
93.6403
20
-32.5408
11
93.6403
21
-32.9808
0
LINE
8
BLACK
6
CONTINUOUS
10
81.5074
20
-21.4008
11
81.5074
21
-30.0308
0
LINE
8
BLACK
6
CONTINUOUS
10
80.9403
20
-30.0308
11
80.9403
21
-30.4408
0
LINE
8
BLACK
6
CONTINUOUS
10
80.7989
20
-21.4008
11
80.7989
21
-30.0308
0
LINE
8
BLACK
6
CONTINUOUS
10
101.98
20
-30.0308
11
101.98
21
-30.4408
0
LINE
8
BLACK
6
CONTINUOUS
10
101.26
20
-30.0308
11
101.26
21
-30.4408
0
LINE
8
BLACK
6
CONTINUOUS
10
81.7436
20
-21.4008
11
81.7436
21
-30.0308
0
LINE
8
BLACK
6
CONTINUOUS
10
101.98
20
-32.5408
11
101.98
21
-32.9808
0
LINE
8
BLACK
6
CONTINUOUS
10
81.8617
20
-21.4008
11
81.8617
21
-30.0308
0
LINE
8
BLACK
6
CONTINUOUS
10
80.5627
20
-21.4008
11
80.5627
21
-30.0308
0
LINE
8
BLACK
6
CONTINUOUS
10
83.4803
20
-30.0308
11
83.4803
21
-30.4408
0
LINE
8
BLACK
6
CONTINUOUS
10
100.35
20
-21.4008
11
100.35
21
-30.0308
0
LINE
8
BLACK
6
CONTINUOUS
10
82.4522
20
-21.4008
11
82.4522
21
-30.0308
0
LINE
8
BLACK
6
CONTINUOUS
10
83.4803
20
-32.5408
11
83.4803
21
-32.9808
0
LINE
8
BLACK
6
CONTINUOUS
10
81.2712
20
-21.4008
11
81.2712
21
-30.0308
0
LINE
8
BLACK
6
CONTINUOUS
10
102.89
20
-21.4008
11
102.89
21
-30.0308
0
LINE
8
BLACK
6
CONTINUOUS
10
79.9703
20
-34.0308
11
79.9703
21
-35.1408
0
LINE
8
BLACK
6
CONTINUOUS
10
103.8
20
-32.5408
11
103.8
21
-32.9808
0
LINE
8
BLACK
6
CONTINUOUS
10
86.0203
20
-30.0308
11
86.0203
21
-30.4408
0
LINE
8
BLACK
6
CONTINUOUS
10
99.4403
20
-30.0308
11
99.4403
21
-30.4408
0
LINE
8
BLACK
6
CONTINUOUS
10
81.6603
20
-30.0308
11
81.6603
21
-30.4408
0
LINE
8
BLACK
6
CONTINUOUS
10
80.6808
20
-21.4008
11
80.6808
21
-30.0308
0
LINE
8
BLACK
6
CONTINUOUS
10
91.1003
20
-32.5408
11
91.1003
21
-32.9808
0
LINE
8
BLACK
6
CONTINUOUS
10
89.2803
20
-32.5408
11
89.2803
21
-32.9808
0
LINE
8
BLACK
6
CONTINUOUS
10
95.2703
20
-21.4008
11
95.2703
21
-30.0308
0
LINE
8
BLACK
6
CONTINUOUS
10
82.5703
20
-21.4008
11
82.5703
21
-30.0308
0
LINE
8
BLACK
6
CONTINUOUS
10
96.1803
20
-32.5408
11
96.1803
21
-32.9808
0
LINE
8
BLACK
6
CONTINUOUS
10
99.4403
20
-32.5408
11
99.4403
21
-32.9808
0
LINE
8
BLACK
6
CONTINUOUS
10
98.7203
20
-32.5408
11
98.7203
21
-32.9808
0
LINE
8
BLACK
6
CONTINUOUS
10
91.8203
20
-32.5408
11
91.8203
21
-32.9808
0
LINE
8
BLACK
6
CONTINUOUS
10
104.52
20
-30.0308
11
104.52
21
-30.4408
0
LINE
8
BLACK
6
CONTINUOUS
10
82.216
20
-21.4008
11
82.216
21
-30.0308
0
LINE
8
BLACK
6
CONTINUOUS
10
84.2003
20
-32.5408
11
84.2003
21
-32.9808
0
LINE
8
BLACK
6
CONTINUOUS
10
81.1532
20
-21.4008
11
81.1532
21
-30.0308
0
LINE
8
BLACK
6
CONTINUOUS
10
89.2803
20
-30.0308
11
89.2803
21
-30.4408
0
LINE
8
BLACK
6
CONTINUOUS
10
85.1103
20
-21.4008
11
85.1103
21
-30.0308
0
LINE
8
BLACK
6
CONTINUOUS
10
79.9703
20
-35.1408
11
81.3003
21
-35.1408
0
LINE
8
BLACK
6
CONTINUOUS
10
91.8203
20
-30.0308
11
91.8203
21
-30.4408
0
LINE
8
BLACK
6
CONTINUOUS
10
94.3603
20
-30.0308
11
94.3603
21
-30.4408
0
LINE
8
BLACK
6
CONTINUOUS
10
80.9403
20
-32.5408
11
80.9403
21
-32.9208
0
LINE
8
BLACK
6
CONTINUOUS
10
80.3265
20
-21.4008
11
80.3265
21
-30.0308
0
LINE
8
BLACK
6
CONTINUOUS
10
79.9703
20
-21.4008
11
105.49
21
-21.4008
0
LINE
8
BLACK
6
CONTINUOUS
10
82.3341
20
-21.4008
11
82.3341
21
-30.0308
0
LINE
8
BLACK
6
CONTINUOUS
10
86.7403
20
-32.5408
11
86.7403
21
-32.9808
0
LINE
8
BLACK
6
CONTINUOUS
10
96.1803
20
-30.0308
11
96.1803
21
-30.4408
0
LINE
8
BLACK
6
CONTINUOUS
10
80.4446
20
-21.4008
11
80.4446
21
-30.0308
0
LINE
8
BLACK
6
CONTINUOUS
10
80.0903
20
-21.4008
11
80.0903
21
-30.0308
0
LINE
8
BLACK
6
CONTINUOUS
10
90.1903
20
-21.4008
11
90.1903
21
-30.0308
0
LINE
8
BLACK
6
CONTINUOUS
10
81.6255
20
-21.4008
11
81.6255
21
-30.0308
0
LINE
8
BLACK
6
CONTINUOUS
10
86.7403
20
-30.0308
11
86.7403
21
-30.4408
0
LINE
8
BLACK
6
CONTINUOUS
10
81.3893
20
-21.4008
11
81.3893
21
-30.0308
0
LINE
8
BLACK
6
CONTINUOUS
10
81.9798
20
-21.4008
11
81.9798
21
-30.0308
0
LINE
8
BLACK
6
CONTINUOUS
10
96.9003
20
-32.5408
11
96.9003
21
-32.9808
0
LINE
8
BLACK
6
CONTINUOUS
10
136.7
20
-43.0712
11
129.226
21
-47.3862
0
LINE
8
BLACK
6
CONTINUOUS
10
140.687
20
-49.9771
11
133.213
21
-54.2921
0
LINE
8
BLACK
6
CONTINUOUS
10
130.584
20
-54.7591
11
130.203
21
-54.9791
0
LINE
8
BLACK
6
CONTINUOUS
10
135.932
20
-41.7417
11
128.458
21
-46.0567
0
LINE
8
BLACK
6
CONTINUOUS
10
130.224
20
-54.1355
11
129.843
21
-54.3555
0
LINE
8
BLACK
6
CONTINUOUS
10
130.218
20
-49.1047
11
129.863
21
-49.3097
0
LINE
8
BLACK
6
CONTINUOUS
10
138.147
20
-45.5777
11
130.673
21
-49.8927
0
LINE
8
BLACK
6
CONTINUOUS
10
131.128
20
-50.6808
11
130.773
21
-50.8858
0
LINE
8
BLACK
6
CONTINUOUS
10
129.314
20
-52.5594
11
128.933
21
-52.7794
0
LINE
8
BLACK
6
CONTINUOUS
10
135.637
20
-41.2303
11
128.163
21
-45.5453
0
LINE
8
BLACK
6
CONTINUOUS
10
129.858
20
-48.4811
11
129.503
21
-48.6861
0
LINE
8
BLACK
6
CONTINUOUS
10
139.417
20
-47.7774
11
131.943
21
-52.0924
0
LINE
8
BLACK
6
CONTINUOUS
10
135.814
20
-41.5371
11
128.34
21
-45.8521
0
LINE
8
BLACK
6
CONTINUOUS
10
135.755
20
-41.4348
11
128.281
21
-45.7498
0
LINE
8
BLACK
6
CONTINUOUS
10
136.05
20
-41.9462
11
128.576
21
-46.2612
0
LINE
8
BLACK
6
CONTINUOUS
10
135.298
20
-57.9035
11
134.943
21
-58.1085
0
LINE
8
BLACK
6
CONTINUOUS
10
136.227
20
-42.253
11
128.753
21
-46.568
0
LINE
8
BLACK
6
CONTINUOUS
10
128.588
20
-46.2814
11
128.233
21
-46.4864
0
LINE
8
BLACK
6
CONTINUOUS
10
132.398
20
-52.8805
11
132.043
21
-53.0855
0
LINE
8
BLACK
6
CONTINUOUS
10
135.991
20
-41.8439
11
128.517
21
-46.1589
0
LINE
8
BLACK
6
CONTINUOUS
10
128.044
20
-50.3597
11
127.663
21
-50.5797
0
LINE
8
BLACK
6
CONTINUOUS
10
143.227
20
-54.3766
11
135.753
21
-58.6916
0
LINE
8
BLACK
6
CONTINUOUS
10
144.527
20
-56.6282
11
137.053
21
-60.9432
0
LINE
8
BLACK
6
CONTINUOUS
10
134.034
20
-60.7346
11
133.653
21
-60.9546
0
LINE
8
BLACK
6
CONTINUOUS
10
135.577
20
-41.1264
11
144.527
21
-56.6282
0
LINE
8
BLACK
6
CONTINUOUS
10
127.684
20
-49.7361
11
127.303
21
-49.9561
0
LINE
8
BLACK
6
CONTINUOUS
10
131.488
20
-51.3044
11
131.133
21
-51.5094
0
LINE
8
BLACK
6
CONTINUOUS
10
135.577
20
-41.1264
11
128.103
21
-45.4414
0
LINE
8
BLACK
6
CONTINUOUS
10
134.028
20
-55.7038
11
133.673
21
-55.9088
0
LINE
8
BLACK
6
CONTINUOUS
10
124.639
20
-47.4414
11
123.678
21
-47.9964
0
LINE
8
BLACK
6
CONTINUOUS
10
136.641
20
-42.9689
11
129.167
21
-47.2839
0
LINE
8
BLACK
6
CONTINUOUS
10
123.678
20
-47.9964
11
124.343
21
-49.1482
0
LINE
8
BLACK
6
CONTINUOUS
10
136.582
20
-42.8667
11
129.108
21
-47.1817
0
LINE
8
BLACK
6
CONTINUOUS
10
136.523
20
-42.7644
11
129.049
21
-47.0794
0
LINE
8
BLACK
6
CONTINUOUS
10
128.103
20
-45.4414
11
137.053
21
-60.9432
0
LINE
8
BLACK
6
CONTINUOUS
10
135.696
20
-41.3326
11
128.222
21
-45.6476
0
LINE
8
BLACK
6
CONTINUOUS
10
131.494
20
-56.3352
11
131.113
21
-56.5552
0
LINE
8
BLACK
6
CONTINUOUS
10
136.345
20
-42.4576
11
128.872
21
-46.7726
0
LINE
8
BLACK
6
CONTINUOUS
10
136.818
20
-43.2758
11
129.344
21
-47.5908
0
LINE
8
BLACK
6
CONTINUOUS
10
135.873
20
-41.6394
11
128.399
21
-45.9544
0
LINE
8
BLACK
6
CONTINUOUS
10
126.774
20
-48.1599
11
126.445
21
-48.3499
0
LINE
8
BLACK
6
CONTINUOUS
10
132.764
20
-58.5349
11
132.383
21
-58.7549
0
LINE
8
BLACK
6
CONTINUOUS
10
136.208
20
-59.4796
11
135.853
21
-59.6846
0
LINE
8
BLACK
6
CONTINUOUS
10
136.568
20
-60.1032
11
136.213
21
-60.3082
0
LINE
8
BLACK
6
CONTINUOUS
10
136.286
20
-42.3553
11
128.813
21
-46.6703
0
LINE
8
BLACK
6
CONTINUOUS
10
131.854
20
-56.9588
11
131.473
21
-57.1788
0
LINE
8
BLACK
6
CONTINUOUS
10
136.404
20
-42.5598
11
128.931
21
-46.8748
0
LINE
8
BLACK
6
CONTINUOUS
10
126.414
20
-47.5364
11
126.085
21
-47.7264
0
LINE
8
BLACK
6
CONTINUOUS
10
128.954
20
-51.9358
11
128.573
21
-52.1558
0
LINE
8
BLACK
6
CONTINUOUS
10
136.109
20
-42.0485
11
128.635
21
-46.3635
0
LINE
8
BLACK
6
CONTINUOUS
10
128.948
20
-46.9049
11
128.593
21
-47.1099
0
LINE
8
BLACK
6
CONTINUOUS
10
134.394
20
-61.3582
11
134.013
21
-61.5782
0
LINE
8
BLACK
6
CONTINUOUS
10
133.124
20
-59.1585
11
132.743
21
-59.3785
0
LINE
8
BLACK
6
CONTINUOUS
10
136.759
20
-43.1735
11
129.285
21
-47.4885
0
LINE
8
BLACK
6
CONTINUOUS
10
141.957
20
-52.1768
11
134.483
21
-56.4918
0
LINE
8
BLACK
6
CONTINUOUS
10
133.668
20
-55.0802
11
133.313
21
-55.2852
0
LINE
8
BLACK
6
CONTINUOUS
10
134.938
20
-57.2799
11
134.583
21
-57.4849
0
LINE
8
BLACK
6
CONTINUOUS
10
136.877
20
-43.378
11
129.403
21
-47.693
0
LINE
8
BLACK
6
CONTINUOUS
10
136.168
20
-42.1507
11
128.694
21
-46.4657
0
LINE
8
BLACK
6
CONTINUOUS
10
136.463
20
-42.6621
11
128.99
21
-46.9771
0
LINE
8
BLACK
6
CONTINUOUS
10
132.758
20
-53.5041
11
132.403
21
-53.7091
0
LINE
8
BLACK
6
CONTINUOUS
10
48.8438
20
-43.43
11
56.3176
21
-47.745
0
LINE
8
BLACK
6
CONTINUOUS
10
54.2326
20
-51.3563
11
54.5877
21
-51.5613
0
LINE
8
BLACK
6
CONTINUOUS
10
42.3166
20
-54.7353
11
49.7904
21
-59.0503
0
LINE
8
BLACK
6
CONTINUOUS
10
54.5926
20
-50.7328
11
54.9477
21
-50.9378
0
LINE
8
BLACK
6
CONTINUOUS
10
51.6863
20
-60.7866
11
52.0154
21
-60.9766
0
LINE
8
BLACK
6
CONTINUOUS
10
55.5026
20
-49.1566
11
55.8577
21
-49.3616
0
LINE
8
BLACK
6
CONTINUOUS
10
46.3038
20
-47.8294
11
53.7776
21
-52.1444
0
LINE
8
BLACK
6
CONTINUOUS
10
42.1395
20
-55.0422
11
49.6133
21
-59.3572
0
LINE
8
BLACK
6
CONTINUOUS
10
42.0805
20
-55.1444
11
49.5543
21
-59.4594
0
LINE
8
BLACK
6
CONTINUOUS
10
50.7826
20
-57.3319
11
51.1377
21
-57.5369
0
LINE
8
BLACK
6
CONTINUOUS
10
53.8663
20
-57.0107
11
54.2474
21
-57.2307
0
LINE
8
BLACK
6
CONTINUOUS
10
41.7262
20
-55.7581
11
49.2
21
-60.0731
0
LINE
8
BLACK
6
CONTINUOUS
10
41.1938
20
-56.6802
11
50.1438
21
-41.1783
0
LINE
8
BLACK
6
CONTINUOUS
10
56.4063
20
-52.6113
11
56.7874
21
-52.8313
0
LINE
8
BLACK
6
CONTINUOUS
10
58.0363
20
-49.7881
11
58.4174
21
-50.0081
0
LINE
8
BLACK
6
CONTINUOUS
10
55.8626
20
-48.5331
11
56.2177
21
-48.7381
0
LINE
8
BLACK
6
CONTINUOUS
10
42.0214
20
-55.2467
11
49.4952
21
-59.5617
0
LINE
8
BLACK
6
CONTINUOUS
10
50.1438
20
-41.1783
11
57.6176
21
-45.4933
0
LINE
8
BLACK
6
CONTINUOUS
10
41.2538
20
-56.5763
11
48.7276
21
-60.8913
0
LINE
8
BLACK
6
CONTINUOUS
10
51.6926
20
-55.7557
11
52.0477
21
-55.9607
0
LINE
8
BLACK
6
CONTINUOUS
10
42.4347
20
-54.5308
11
49.9085
21
-58.8458
0
LINE
8
BLACK
6
CONTINUOUS
10
51.3263
20
-61.4101
11
51.6554
21
-61.6001
0
LINE
8
BLACK
6
CONTINUOUS
10
47.5738
20
-45.6297
11
55.0476
21
-49.9447
0
LINE
8
BLACK
6
CONTINUOUS
10
57.6763
20
-50.4116
11
58.0574
21
-50.6316
0
LINE
8
BLACK
6
CONTINUOUS
10
55.1363
20
-54.811
11
55.5174
21
-55.031
0
LINE
8
BLACK
6
CONTINUOUS
10
53.3226
20
-52.9325
11
53.6777
21
-53.1375
0
LINE
8
BLACK
6
CONTINUOUS
10
41.549
20
-56.0649
11
49.0228
21
-60.3799
0
LINE
8
BLACK
6
CONTINUOUS
10
41.6081
20
-55.9626
11
49.0819
21
-60.2776
0
LINE
8
BLACK
6
CONTINUOUS
10
41.49
20
-56.1672
11
48.9638
21
-60.4822
0
LINE
8
BLACK
6
CONTINUOUS
10
52.9563
20
-58.5869
11
53.3374
21
-58.8069
0
LINE
8
BLACK
6
CONTINUOUS
10
41.6671
20
-55.8603
11
49.1409
21
-60.1753
0
LINE
8
BLACK
6
CONTINUOUS
10
41.3128
20
-56.474
11
48.7866
21
-60.789
0
LINE
8
BLACK
6
CONTINUOUS
10
42.2576
20
-54.8376
11
49.7314
21
-59.1526
0
LINE
8
BLACK
6
CONTINUOUS
10
41.9033
20
-55.4513
11
49.3771
21
-59.7663
0
LINE
8
BLACK
6
CONTINUOUS
10
41.3719
20
-56.3717
11
48.8457
21
-60.6867
0
LINE
8
BLACK
6
CONTINUOUS
10
41.8443
20
-55.5535
11
49.3181
21
-59.8685
0
LINE
8
BLACK
6
CONTINUOUS
10
42.3757
20
-54.6331
11
49.8495
21
-58.9481
0
LINE
8
BLACK
6
CONTINUOUS
10
41.7852
20
-55.6558
11
49.259
21
-59.9708
0
LINE
8
BLACK
6
CONTINUOUS
10
42.1985
20
-54.9399
11
49.6723
21
-59.2549
0
LINE
8
BLACK
6
CONTINUOUS
10
41.9624
20
-55.349
11
49.4362
21
-59.664
0
LINE
8
BLACK
6
CONTINUOUS
10
54.2263
20
-56.3872
11
54.6074
21
-56.6072
0
LINE
8
BLACK
6
CONTINUOUS
10
50.4226
20
-57.9554
11
50.7777
21
-58.1604
0
LINE
8
BLACK
6
CONTINUOUS
10
57.1326
20
-46.3334
11
57.4877
21
-46.5384
0
LINE
8
BLACK
6
CONTINUOUS
10
59.3063
20
-47.5884
11
59.6874
21
-47.8084
0
LINE
8
BLACK
6
CONTINUOUS
10
52.5963
20
-59.2104
11
52.9774
21
-59.4304
0
LINE
8
BLACK
6
CONTINUOUS
10
48.6676
20
-60.9952
11
57.6176
21
-45.4933
0
LINE
8
BLACK
6
CONTINUOUS
10
41.1938
20
-56.6802
11
48.6676
21
-60.9952
0
LINE
8
BLACK
6
CONTINUOUS
10
52.1317
20
-62.9952
11
53.093
21
-63.5502
0
LINE
8
BLACK
6
CONTINUOUS
10
52.9626
20
-53.556
11
53.3177
21
-53.761
0
LINE
8
BLACK
6
CONTINUOUS
10
45.0338
20
-50.0291
11
52.5076
21
-54.3441
0
LINE
8
BLACK
6
CONTINUOUS
10
58.9463
20
-48.2119
11
59.3274
21
-48.4319
0
LINE
8
BLACK
6
CONTINUOUS
10
42.4938
20
-54.4285
11
49.9676
21
-58.7435
0
LINE
8
BLACK
6
CONTINUOUS
10
49.5126
20
-59.5316
11
49.8677
21
-59.7366
0
LINE
8
BLACK
6
CONTINUOUS
10
49.1526
20
-60.1551
11
49.5077
21
-60.3601
0
LINE
8
BLACK
6
CONTINUOUS
10
53.093
20
-63.5502
11
53.758
21
-62.3984
0
LINE
8
BLACK
6
CONTINUOUS
10
41.4309
20
-56.2694
11
48.9047
21
-60.5844
0
LINE
8
BLACK
6
CONTINUOUS
10
52.0526
20
-55.1322
11
52.4077
21
-55.3372
0
LINE
8
BLACK
6
CONTINUOUS
10
43.7638
20
-52.2288
11
51.2376
21
-56.5438
0
LINE
8
BLACK
6
CONTINUOUS
10
56.7663
20
-51.9878
11
57.1474
21
-52.2078
0
LINE
8
BLACK
6
CONTINUOUS
10
56.7726
20
-46.9569
11
57.1277
21
-47.1619
0
LINE
8
BLACK
6
CONTINUOUS
10
55.4963
20
-54.1875
11
55.8774
21
-54.4075
0
LINE
8
BLACK
6
CONTINUOUS
10
45.0296
20
-103.326
11
39.8334
21
-106.326
0
LINE
8
BLACK
6
CONTINUOUS
10
40.2134
20
-106.985
11
45.4096
21
-103.985
0
LINE
8
BLACK
6
CONTINUOUS
10
41.4834
20
-109.184
11
46.6796
21
-106.184
0
LINE
8
BLACK
6
CONTINUOUS
10
48.8396
20
-109.925
11
43.6434
21
-112.925
0
LINE
8
BLACK
6
CONTINUOUS
10
41.3696
20
-96.9871
11
36.1734
21
-99.9871
0
LINE
8
BLACK
6
CONTINUOUS
10
36.0234
20
-99.7273
11
36.4034
21
-100.385
0
LINE
8
BLACK
6
CONTINUOUS
10
36.4034
20
-100.385
11
41.5996
21
-97.3855
0
LINE
8
BLACK
6
CONTINUOUS
10
41.1034
20
-108.526
11
41.4834
21
-109.184
0
LINE
8
BLACK
6
CONTINUOUS
10
49.3271
20
-104.656
11
48.9832
21
-104.854
0
LINE
8
BLACK
6
CONTINUOUS
10
42.3734
20
-110.726
11
42.7534
21
-111.384
0
LINE
8
BLACK
6
CONTINUOUS
10
50.2568
20
-101.186
11
49.8635
21
-101.413
0
LINE
8
BLACK
6
CONTINUOUS
10
46.3887
20
-94.6205
11
46.0535
21
-94.814
0
LINE
8
BLACK
6
CONTINUOUS
10
42.4896
20
-98.927
11
37.2934
21
-101.927
0
LINE
8
BLACK
6
CONTINUOUS
10
38.9434
20
-104.785
11
44.1396
21
-101.785
0
LINE
8
BLACK
6
CONTINUOUS
10
44.2471
20
-95.8569
11
43.9032
21
-96.0555
0
LINE
8
BLACK
6
CONTINUOUS
10
37.6734
20
-102.585
11
42.8696
21
-99.5852
0
LINE
8
BLACK
6
CONTINUOUS
10
46.0087
20
-93.9623
11
45.6735
21
-94.1558
0
LINE
8
BLACK
6
CONTINUOUS
10
47.7168
20
-96.7866
11
47.3235
21
-97.0137
0
LINE
8
BLACK
6
CONTINUOUS
10
44.0234
20
-113.584
11
49.2196
21
-110.584
0
LINE
8
BLACK
6
CONTINUOUS
10
43.7596
20
-101.127
11
38.5634
21
-104.127
0
LINE
8
BLACK
6
CONTINUOUS
10
46.2996
20
-105.526
11
41.1034
21
-108.526
0
LINE
8
BLACK
6
CONTINUOUS
10
44.3482
20
-96.8262
11
42.0446
21
-98.1562
0
LINE
8
BLACK
6
CONTINUOUS
10
50.5971
20
-106.855
11
50.2532
21
-107.054
0
LINE
8
BLACK
6
CONTINUOUS
10
43.6434
20
-112.925
11
44.0234
21
-113.584
0
LINE
8
BLACK
6
CONTINUOUS
10
45.5171
20
-98.0566
11
45.1732
21
-98.2552
0
LINE
8
BLACK
6
CONTINUOUS
10
52.7968
20
-105.585
11
52.4035
21
-105.813
0
LINE
8
BLACK
6
CONTINUOUS
10
47.6249
20
-92.0015
11
46.525
21
-92.6365
0
LINE
8
BLACK
6
CONTINUOUS
10
50.2171
20
-106.197
11
49.8732
21
-106.396
0
LINE
8
BLACK
6
CONTINUOUS
10
43.8671
20
-95.1987
11
43.5232
21
-95.3973
0
LINE
8
BLACK
6
CONTINUOUS
10
38.5634
20
-104.127
11
38.9434
21
-104.785
0
LINE
8
BLACK
6
CONTINUOUS
10
48.2599
20
-93.1014
11
47.6249
21
-92.0015
0
LINE
8
BLACK
6
CONTINUOUS
10
51.5268
20
-103.386
11
51.1335
21
-103.613
0
LINE
8
BLACK
6
CONTINUOUS
10
48.1582
20
-103.425
11
45.8546
21
-104.755
0
LINE
8
BLACK
6
CONTINUOUS
10
42.7534
20
-111.384
11
47.9496
21
-108.384
0
LINE
8
BLACK
6
CONTINUOUS
10
40.7446
20
-95.9045
11
43.0482
21
-94.5745
0
LINE
8
BLACK
6
CONTINUOUS
10
37.2934
20
-101.927
11
37.6734
21
-102.585
0
LINE
8
BLACK
6
CONTINUOUS
10
48.6068
20
-98.3281
11
48.2135
21
-98.5552
0
LINE
8
BLACK
6
CONTINUOUS
10
49.6946
20
-111.406
11
40.7446
21
-95.9045
0
LINE
8
BLACK
6
CONTINUOUS
10
46.7871
20
-100.256
11
46.4432
21
-100.455
0
LINE
8
BLACK
6
CONTINUOUS
10
48.9471
20
-103.998
11
48.6032
21
-104.196
0
LINE
8
BLACK
6
CONTINUOUS
10
39.8334
20
-106.326
11
40.2134
21
-106.985
0
LINE
8
BLACK
6
CONTINUOUS
10
45.1371
20
-97.3984
11
44.7932
21
-97.597
0
LINE
8
BLACK
6
CONTINUOUS
10
53.6868
20
-107.127
11
53.2935
21
-107.354
0
LINE
8
BLACK
6
CONTINUOUS
10
41.4296
20
-97.091
11
36.2334
21
-100.091
0
LINE
8
BLACK
6
CONTINUOUS
10
48.0571
20
-102.456
11
47.7132
21
-102.655
0
LINE
8
BLACK
6
CONTINUOUS
10
41.5496
20
-97.2988
11
36.3534
21
-100.299
0
LINE
8
BLACK
6
CONTINUOUS
10
51.1468
20
-102.728
11
50.7535
21
-102.955
0
LINE
8
BLACK
6
CONTINUOUS
10
47.3368
20
-96.1284
11
46.9435
21
-96.3555
0
LINE
8
BLACK
6
CONTINUOUS
10
51.4871
20
-108.397
11
51.1432
21
-108.596
0
LINE
8
BLACK
6
CONTINUOUS
10
41.2496
20
-96.7792
11
36.0534
21
-99.7792
0
LINE
8
BLACK
6
CONTINUOUS
10
52.4168
20
-104.927
11
52.0235
21
-105.154
0
LINE
8
BLACK
6
CONTINUOUS
10
41.2196
20
-96.7273
11
36.0234
21
-99.7273
0
LINE
8
BLACK
6
CONTINUOUS
10
49.4282
20
-105.625
11
47.1246
21
-106.955
0
LINE
8
BLACK
6
CONTINUOUS
10
47.5696
20
-107.726
11
42.3734
21
-110.726
0
LINE
8
BLACK
6
CONTINUOUS
10
45.6182
20
-99.0259
11
43.3146
21
-100.356
0
LINE
8
BLACK
6
CONTINUOUS
10
47.6771
20
-101.798
11
47.3332
21
-101.996
0
LINE
8
BLACK
6
CONTINUOUS
10
46.4071
20
-99.5981
11
46.0632
21
-99.7967
0
LINE
8
BLACK
6
CONTINUOUS
10
49.8768
20
-100.528
11
49.4835
21
-100.755
0
LINE
8
BLACK
6
CONTINUOUS
10
50.6982
20
-107.825
11
48.3946
21
-109.155
0
LINE
8
BLACK
6
CONTINUOUS
10
43.0482
20
-94.5745
11
51.9982
21
-110.076
0
LINE
8
BLACK
6
CONTINUOUS
10
51.9982
20
-110.076
11
49.6946
21
-111.406
0
LINE
8
BLACK
6
CONTINUOUS
10
41.4896
20
-97.1949
11
36.2934
21
-100.195
0
LINE
8
BLACK
6
CONTINUOUS
10
41.3096
20
-96.8832
11
36.1134
21
-99.8832
0
LINE
8
BLACK
6
CONTINUOUS
10
46.8882
20
-101.226
11
44.5846
21
-102.556
0
LINE
8
BLACK
6
CONTINUOUS
10
48.9868
20
-98.9863
11
48.5935
21
-99.2134
0
LINE
8
BLACK
6
CONTINUOUS
10
51.8671
20
-109.055
11
51.5232
21
-109.254
0
LINE
8
BLACK
6
CONTINUOUS
10
54.0668
20
-107.785
11
53.6735
21
-108.012
0
LINE
8
BLACK
6
CONTINUOUS
10
142.527
20
-94.5742
11
144.83
21
-95.9042
0
LINE
8
BLACK
6
CONTINUOUS
10
129.695
20
-106.299
11
129.06
21
-107.399
0
LINE
8
BLACK
6
CONTINUOUS
10
141.931
20
-112.925
11
136.735
21
-109.925
0
LINE
8
BLACK
6
CONTINUOUS
10
142.705
20
-99.5848
11
147.901
21
-102.585
0
LINE
8
BLACK
6
CONTINUOUS
10
137.417
20
-103.425
11
139.72
21
-104.755
0
LINE
8
BLACK
6
CONTINUOUS
10
136.355
20
-110.583
11
141.551
21
-113.583
0
LINE
8
BLACK
6
CONTINUOUS
10
141.708
20
-95.1984
11
142.052
21
-95.3969
0
LINE
8
BLACK
6
CONTINUOUS
10
136.248
20
-104.655
11
136.592
21
-104.854
0
LINE
8
BLACK
6
CONTINUOUS
10
146.631
20
-104.784
11
147.011
21
-104.126
0
LINE
8
BLACK
6
CONTINUOUS
10
134.978
20
-106.855
11
135.322
21
-107.054
0
LINE
8
BLACK
6
CONTINUOUS
10
136.685
20
-110.012
11
141.881
21
-113.012
0
LINE
8
BLACK
6
CONTINUOUS
10
136.625
20
-110.116
11
141.821
21
-113.116
0
LINE
8
BLACK
6
CONTINUOUS
10
131.946
20
-107.16
11
132.281
21
-107.354
0
LINE
8
BLACK
6
CONTINUOUS
10
136.588
20
-98.986
11
136.981
21
-99.213
0
LINE
8
BLACK
6
CONTINUOUS
10
136.445
20
-110.427
11
141.641
21
-113.427
0
LINE
8
BLACK
6
CONTINUOUS
10
145.741
20
-106.326
11
140.545
21
-103.326
0
LINE
8
BLACK
6
CONTINUOUS
10
147.901
20
-102.585
11
148.281
21
-101.927
0
LINE
8
BLACK
6
CONTINUOUS
10
137.858
20
-96.7862
11
138.251
21
-97.0133
0
LINE
8
BLACK
6
CONTINUOUS
10
141.227
20
-96.8258
11
143.53
21
-98.1558
0
LINE
8
BLACK
6
CONTINUOUS
10
140.438
20
-97.3981
11
140.782
21
-97.5966
0
LINE
8
BLACK
6
CONTINUOUS
10
133.577
20
-110.076
11
142.527
21
-94.5742
0
LINE
8
BLACK
6
CONTINUOUS
10
143.201
20
-110.725
11
138.005
21
-107.725
0
LINE
8
BLACK
6
CONTINUOUS
10
141.435
20
-101.784
11
146.631
21
-104.784
0
LINE
8
BLACK
6
CONTINUOUS
10
133.158
20
-104.927
11
133.551
21
-105.154
0
LINE
8
BLACK
6
CONTINUOUS
10
136.385
20
-110.531
11
141.581
21
-113.531
0
LINE
8
BLACK
6
CONTINUOUS
10
144.091
20
-109.184
11
144.471
21
-108.526
0
LINE
8
BLACK
6
CONTINUOUS
10
147.011
20
-104.126
11
141.815
21
-101.126
0
LINE
8
BLACK
6
CONTINUOUS
10
133.708
20
-109.055
11
134.052
21
-109.253
0
LINE
8
BLACK
6
CONTINUOUS
10
134.877
20
-107.824
11
137.18
21
-109.154
0
LINE
8
BLACK
6
CONTINUOUS
10
137.625
20
-108.384
11
142.821
21
-111.384
0
LINE
8
BLACK
6
CONTINUOUS
10
137.898
20
-101.797
11
138.242
21
-101.996
0
LINE
8
BLACK
6
CONTINUOUS
10
140.058
20
-98.0562
11
140.402
21
-98.2548
0
LINE
8
BLACK
6
CONTINUOUS
10
136.505
20
-110.323
11
141.701
21
-113.323
0
LINE
8
BLACK
6
CONTINUOUS
10
134.428
20
-102.727
11
134.821
21
-102.954
0
LINE
8
BLACK
6
CONTINUOUS
10
139.957
20
-99.0255
11
142.26
21
-100.356
0
LINE
8
BLACK
6
CONTINUOUS
10
139.128
20
-94.5865
11
139.521
21
-94.8136
0
LINE
8
BLACK
6
CONTINUOUS
10
129.06
20
-107.399
11
130.16
21
-108.034
0
LINE
8
BLACK
6
CONTINUOUS
10
138.238
20
-96.1281
11
138.631
21
-96.3551
0
LINE
8
BLACK
6
CONTINUOUS
10
140.165
20
-103.984
11
145.361
21
-106.984
0
LINE
8
BLACK
6
CONTINUOUS
10
143.975
20
-97.3851
11
149.171
21
-100.385
0
LINE
8
BLACK
6
CONTINUOUS
10
144.471
20
-108.526
11
139.275
21
-105.526
0
LINE
8
BLACK
6
CONTINUOUS
10
141.328
20
-95.8565
11
141.672
21
-96.0551
0
LINE
8
BLACK
6
CONTINUOUS
10
138.687
20
-101.225
11
140.99
21
-102.555
0
LINE
8
BLACK
6
CONTINUOUS
10
134.048
20
-103.385
11
134.441
21
-103.612
0
LINE
8
BLACK
6
CONTINUOUS
10
135.698
20
-100.527
11
136.091
21
-100.755
0
LINE
8
BLACK
6
CONTINUOUS
10
136.968
20
-98.3278
11
137.361
21
-98.5548
0
LINE
8
BLACK
6
CONTINUOUS
10
136.628
20
-103.997
11
136.972
21
-104.196
0
LINE
8
BLACK
6
CONTINUOUS
10
145.361
20
-106.984
11
145.741
21
-106.326
0
LINE
8
BLACK
6
CONTINUOUS
10
136.147
20
-105.625
11
138.45
21
-106.955
0
LINE
8
BLACK
6
CONTINUOUS
10
149.551
20
-99.7269
11
144.355
21
-96.7269
0
LINE
8
BLACK
6
CONTINUOUS
10
132.778
20
-105.585
11
133.171
21
-105.812
0
LINE
8
BLACK
6
CONTINUOUS
10
131.566
20
-107.818
11
131.901
21
-108.012
0
LINE
8
BLACK
6
CONTINUOUS
10
139.508
20
-93.9284
11
139.901
21
-94.1554
0
LINE
8
BLACK
6
CONTINUOUS
10
138.788
20
-100.256
11
139.132
21
-100.454
0
LINE
8
BLACK
6
CONTINUOUS
10
136.565
20
-110.22
11
141.761
21
-113.22
0
LINE
8
BLACK
6
CONTINUOUS
10
141.551
20
-113.583
11
141.931
21
-112.925
0
LINE
8
BLACK
6
CONTINUOUS
10
139.168
20
-99.5978
11
139.512
21
-99.7963
0
LINE
8
BLACK
6
CONTINUOUS
10
149.171
20
-100.385
11
149.551
21
-99.7269
0
LINE
8
BLACK
6
CONTINUOUS
10
135.318
20
-101.186
11
135.711
21
-101.413
0
LINE
8
BLACK
6
CONTINUOUS
10
142.821
20
-111.384
11
143.201
21
-110.725
0
LINE
8
BLACK
6
CONTINUOUS
10
135.88
20
-111.406
11
133.577
21
-110.076
0
LINE
8
BLACK
6
CONTINUOUS
10
144.83
20
-95.9042
11
135.88
21
-111.406
0
LINE
8
BLACK
6
CONTINUOUS
10
134.088
20
-108.397
11
134.432
21
-108.595
0
LINE
8
BLACK
6
CONTINUOUS
10
148.281
20
-101.927
11
143.085
21
-98.9266
0
LINE
8
BLACK
6
CONTINUOUS
10
138.895
20
-106.184
11
144.091
21
-109.184
0
LINE
8
BLACK
6
CONTINUOUS
10
135.358
20
-106.197
11
135.702
21
-106.395
0
LINE
8
BLACK
6
CONTINUOUS
10
137.518
20
-102.456
11
137.862
21
-102.654
  0
ENDSEC
  0
EOF
