  0
SECTION
  2
HEADER
  9
$ANGBASE
  50
0.0
  9
$ANGDIR
  70
1
  9
$MEASUREMENT
  70
1
  0
ENDSEC
  0
SECTION
  2
TABLES
  0
TABLE
  2
LTYPE
  70
4
  0
LTYPE
  5
40F
  2
CONTINUOUS
  70
0
  3
Solid line
  72
65
  73
0
  40
0.0
  0
LTYPE
  5
410
  2
DASHDOT
 70
0
  3
Dash Dot ____ _ ____ _
 72
65
 73
4
 40
2.0
 49
1.25
 49
-0.25
 49
0.25
 49
-0.25
  0
LTYPE
  5
411
  2
DASHED
 70
0
  3
Dashed __ __ __ __ __
 72
65
 73
2
 40
0.75
 49
0.5
 49
-0.25
  0
LTYPE
  5
43B
  2
DOTTED
 70
0
  3
Dotted .  .  .  .
 72
65
 73
2
 40
0.2
 49
0.0
 49
-0.2
  0
ENDTAB
  0
TABLE
  2
STYLE
  70
4
  0
STYLE
  2
KICAD
  70
0
  40
0
  41
1
  42
1
  50
0
  71
0
  3
isocp.shx
  0
STYLE
  2
KICADB
  70
0
  40
0
  41
1
  42
1
  50
0
  71
0
  3
isocp.shx
  0
STYLE
  2
KICADI
  70
0
  40
0
  41
1
  42
1
  50
15
  71
0
  3
isocp.shx
  0
STYLE
  2
KICADBI
  70
0
  40
0
  41
1
  42
1
  50
15
  71
0
  3
isocp.shx
  0
ENDTAB
  0
TABLE
  2
LAYER
  70
1
  0
LAYER
  2
BLACK
  70
0
  62
7
  6
CONTINUOUS
  0
ENDTAB
  0
ENDSEC
  0
SECTION
  2
ENTITIES
0
LINE
8
BLACK
6
CONTINUOUS
10
119.802
20
-122.286
11
118.002
21
-122.286
0
LINE
8
BLACK
6
CONTINUOUS
10
118.002
20
-122.286
11
118.002
21
-121.466
0
LINE
8
BLACK
6
CONTINUOUS
10
118.002
20
-121.466
11
119.802
21
-121.466
0
LINE
8
BLACK
6
CONTINUOUS
10
119.802
20
-121.466
11
119.802
21
-122.286
0
LINE
8
BLACK
6
CONTINUOUS
10
125.203
20
-122.286
11
123.402
21
-122.286
0
LINE
8
BLACK
6
CONTINUOUS
10
123.402
20
-122.286
11
123.402
21
-121.466
0
LINE
8
BLACK
6
CONTINUOUS
10
123.402
20
-121.466
11
125.203
21
-121.466
0
LINE
8
BLACK
6
CONTINUOUS
10
125.203
20
-121.466
11
125.203
21
-122.286
0
LINE
8
BLACK
6
CONTINUOUS
10
65.0337
20
-122.286
11
63.2338
21
-122.286
0
LINE
8
BLACK
6
CONTINUOUS
10
63.2338
20
-122.286
11
63.2338
21
-121.466
0
LINE
8
BLACK
6
CONTINUOUS
10
63.2338
20
-121.466
11
65.0337
21
-121.466
0
LINE
8
BLACK
6
CONTINUOUS
10
65.0337
20
-121.466
11
65.0337
21
-122.286
0
LINE
8
BLACK
6
CONTINUOUS
10
70.4338
20
-122.286
11
68.6337
21
-122.286
0
LINE
8
BLACK
6
CONTINUOUS
10
68.6337
20
-122.286
11
68.6337
21
-121.466
0
LINE
8
BLACK
6
CONTINUOUS
10
68.6337
20
-121.466
11
70.4338
21
-121.466
0
LINE
8
BLACK
6
CONTINUOUS
10
70.4338
20
-121.466
11
70.4338
21
-122.286
0
LINE
8
BLACK
6
CONTINUOUS
10
119.802
20
-120.786
11
118.002
21
-120.786
0
LINE
8
BLACK
6
CONTINUOUS
10
118.002
20
-120.786
11
118.002
21
-119.966
0
LINE
8
BLACK
6
CONTINUOUS
10
118.002
20
-119.966
11
119.802
21
-119.966
0
LINE
8
BLACK
6
CONTINUOUS
10
119.802
20
-119.966
11
119.802
21
-120.786
0
LINE
8
BLACK
6
CONTINUOUS
10
125.203
20
-120.786
11
123.402
21
-120.786
0
LINE
8
BLACK
6
CONTINUOUS
10
123.402
20
-120.786
11
123.402
21
-119.966
0
LINE
8
BLACK
6
CONTINUOUS
10
123.402
20
-119.966
11
125.203
21
-119.966
0
LINE
8
BLACK
6
CONTINUOUS
10
125.203
20
-119.966
11
125.203
21
-120.786
0
LINE
8
BLACK
6
CONTINUOUS
10
65.0337
20
-120.786
11
63.2338
21
-120.786
0
LINE
8
BLACK
6
CONTINUOUS
10
63.2338
20
-120.786
11
63.2338
21
-119.966
0
LINE
8
BLACK
6
CONTINUOUS
10
63.2338
20
-119.966
11
65.0337
21
-119.966
0
LINE
8
BLACK
6
CONTINUOUS
10
65.0337
20
-119.966
11
65.0337
21
-120.786
0
LINE
8
BLACK
6
CONTINUOUS
10
70.4338
20
-120.786
11
68.6337
21
-120.786
0
LINE
8
BLACK
6
CONTINUOUS
10
68.6337
20
-120.786
11
68.6337
21
-119.966
0
LINE
8
BLACK
6
CONTINUOUS
10
68.6337
20
-119.966
11
70.4338
21
-119.966
0
LINE
8
BLACK
6
CONTINUOUS
10
70.4338
20
-119.966
11
70.4338
21
-120.786
0
LINE
8
BLACK
6
CONTINUOUS
10
72.6187
20
-100.612
11
71.7188
21
-100.612
0
LINE
8
BLACK
6
CONTINUOUS
10
71.7188
20
-100.612
11
71.7188
21
-99.4125
0
LINE
8
BLACK
6
CONTINUOUS
10
71.7188
20
-99.4125
11
72.6187
21
-99.4125
0
LINE
8
BLACK
6
CONTINUOUS
10
72.6187
20
-99.4125
11
72.6187
21
-100.612
0
LINE
8
BLACK
6
CONTINUOUS
10
75.9188
20
-100.612
11
75.0187
21
-100.612
0
LINE
8
BLACK
6
CONTINUOUS
10
75.0187
20
-100.612
11
75.0187
21
-99.4125
0
LINE
8
BLACK
6
CONTINUOUS
10
75.0187
20
-99.4125
11
75.9188
21
-99.4125
0
LINE
8
BLACK
6
CONTINUOUS
10
75.9188
20
-99.4125
11
75.9188
21
-100.612
0
LINE
8
BLACK
6
CONTINUOUS
10
91.6688
20
-100.612
11
90.7687
21
-100.612
0
LINE
8
BLACK
6
CONTINUOUS
10
90.7687
20
-100.612
11
90.7687
21
-99.4125
0
LINE
8
BLACK
6
CONTINUOUS
10
90.7687
20
-99.4125
11
91.6688
21
-99.4125
0
LINE
8
BLACK
6
CONTINUOUS
10
91.6688
20
-99.4125
11
91.6688
21
-100.612
0
LINE
8
BLACK
6
CONTINUOUS
10
94.9688
20
-100.612
11
94.0687
21
-100.612
0
LINE
8
BLACK
6
CONTINUOUS
10
94.0687
20
-100.612
11
94.0687
21
-99.4125
0
LINE
8
BLACK
6
CONTINUOUS
10
94.0687
20
-99.4125
11
94.9688
21
-99.4125
0
LINE
8
BLACK
6
CONTINUOUS
10
94.9688
20
-99.4125
11
94.9688
21
-100.612
0
LINE
8
BLACK
6
CONTINUOUS
10
110.719
20
-100.612
11
109.819
21
-100.612
0
LINE
8
BLACK
6
CONTINUOUS
10
109.819
20
-100.612
11
109.819
21
-99.4125
0
LINE
8
BLACK
6
CONTINUOUS
10
109.819
20
-99.4125
11
110.719
21
-99.4125
0
LINE
8
BLACK
6
CONTINUOUS
10
110.719
20
-99.4125
11
110.719
21
-100.612
0
LINE
8
BLACK
6
CONTINUOUS
10
114.019
20
-100.612
11
113.119
21
-100.612
0
LINE
8
BLACK
6
CONTINUOUS
10
113.119
20
-100.612
11
113.119
21
-99.4125
0
LINE
8
BLACK
6
CONTINUOUS
10
113.119
20
-99.4125
11
114.019
21
-99.4125
0
LINE
8
BLACK
6
CONTINUOUS
10
114.019
20
-99.4125
11
114.019
21
-100.612
0
LINE
8
BLACK
6
CONTINUOUS
10
46.94
20
-82.555
11
45.14
21
-82.555
0
LINE
8
BLACK
6
CONTINUOUS
10
45.14
20
-82.555
11
45.14
21
-81.735
0
LINE
8
BLACK
6
CONTINUOUS
10
45.14
20
-81.735
11
46.94
21
-81.735
0
LINE
8
BLACK
6
CONTINUOUS
10
46.94
20
-81.735
11
46.94
21
-82.555
0
LINE
8
BLACK
6
CONTINUOUS
10
41.54
20
-82.555
11
39.74
21
-82.555
0
LINE
8
BLACK
6
CONTINUOUS
10
39.74
20
-82.555
11
39.74
21
-81.735
0
LINE
8
BLACK
6
CONTINUOUS
10
39.74
20
-81.735
11
41.54
21
-81.735
0
LINE
8
BLACK
6
CONTINUOUS
10
41.54
20
-81.735
11
41.54
21
-82.555
0
LINE
8
BLACK
6
CONTINUOUS
10
146.634
20
-81.805
11
144.834
21
-81.805
0
LINE
8
BLACK
6
CONTINUOUS
10
144.834
20
-81.805
11
144.834
21
-80.985
0
LINE
8
BLACK
6
CONTINUOUS
10
144.834
20
-80.985
11
146.634
21
-80.985
0
LINE
8
BLACK
6
CONTINUOUS
10
146.634
20
-80.985
11
146.634
21
-81.805
0
LINE
8
BLACK
6
CONTINUOUS
10
141.234
20
-81.805
11
139.434
21
-81.805
0
LINE
8
BLACK
6
CONTINUOUS
10
139.434
20
-81.805
11
139.434
21
-80.985
0
LINE
8
BLACK
6
CONTINUOUS
10
139.434
20
-80.985
11
141.234
21
-80.985
0
LINE
8
BLACK
6
CONTINUOUS
10
141.234
20
-80.985
11
141.234
21
-81.805
0
LINE
8
BLACK
6
CONTINUOUS
10
94.9688
20
-81.5625
11
94.0687
21
-81.5625
0
LINE
8
BLACK
6
CONTINUOUS
10
94.0687
20
-81.5625
11
94.0687
21
-80.3625
0
LINE
8
BLACK
6
CONTINUOUS
10
94.0687
20
-80.3625
11
94.9688
21
-80.3625
0
LINE
8
BLACK
6
CONTINUOUS
10
94.9688
20
-80.3625
11
94.9688
21
-81.5625
0
LINE
8
BLACK
6
CONTINUOUS
10
91.6688
20
-81.5625
11
90.7687
21
-81.5625
0
LINE
8
BLACK
6
CONTINUOUS
10
90.7687
20
-81.5625
11
90.7687
21
-80.3625
0
LINE
8
BLACK
6
CONTINUOUS
10
90.7687
20
-80.3625
11
91.6688
21
-80.3625
0
LINE
8
BLACK
6
CONTINUOUS
10
91.6688
20
-80.3625
11
91.6688
21
-81.5625
0
LINE
8
BLACK
6
CONTINUOUS
10
72.6187
20
-81.5625
11
71.7188
21
-81.5625
0
LINE
8
BLACK
6
CONTINUOUS
10
71.7188
20
-81.5625
11
71.7188
21
-80.3625
0
LINE
8
BLACK
6
CONTINUOUS
10
71.7188
20
-80.3625
11
72.6187
21
-80.3625
0
LINE
8
BLACK
6
CONTINUOUS
10
72.6187
20
-80.3625
11
72.6187
21
-81.5625
0
LINE
8
BLACK
6
CONTINUOUS
10
75.9188
20
-81.5625
11
75.0187
21
-81.5625
0
LINE
8
BLACK
6
CONTINUOUS
10
75.0187
20
-81.5625
11
75.0187
21
-80.3625
0
LINE
8
BLACK
6
CONTINUOUS
10
75.0187
20
-80.3625
11
75.9188
21
-80.3625
0
LINE
8
BLACK
6
CONTINUOUS
10
75.9188
20
-80.3625
11
75.9188
21
-81.5625
0
LINE
8
BLACK
6
CONTINUOUS
10
110.719
20
-81.5625
11
109.819
21
-81.5625
0
LINE
8
BLACK
6
CONTINUOUS
10
109.819
20
-81.5625
11
109.819
21
-80.3625
0
LINE
8
BLACK
6
CONTINUOUS
10
109.819
20
-80.3625
11
110.719
21
-80.3625
0
LINE
8
BLACK
6
CONTINUOUS
10
110.719
20
-80.3625
11
110.719
21
-81.5625
0
LINE
8
BLACK
6
CONTINUOUS
10
114.019
20
-81.5625
11
113.119
21
-81.5625
0
LINE
8
BLACK
6
CONTINUOUS
10
113.119
20
-81.5625
11
113.119
21
-80.3625
0
LINE
8
BLACK
6
CONTINUOUS
10
113.119
20
-80.3625
11
114.019
21
-80.3625
0
LINE
8
BLACK
6
CONTINUOUS
10
114.019
20
-80.3625
11
114.019
21
-81.5625
0
LINE
8
BLACK
6
CONTINUOUS
10
41.54
20
-81.055
11
39.74
21
-81.055
0
LINE
8
BLACK
6
CONTINUOUS
10
39.74
20
-81.055
11
39.74
21
-80.235
0
LINE
8
BLACK
6
CONTINUOUS
10
39.74
20
-80.235
11
41.54
21
-80.235
0
LINE
8
BLACK
6
CONTINUOUS
10
41.54
20
-80.235
11
41.54
21
-81.055
0
LINE
8
BLACK
6
CONTINUOUS
10
46.94
20
-81.055
11
45.14
21
-81.055
0
LINE
8
BLACK
6
CONTINUOUS
10
45.14
20
-81.055
11
45.14
21
-80.235
0
LINE
8
BLACK
6
CONTINUOUS
10
45.14
20
-80.235
11
46.94
21
-80.235
0
LINE
8
BLACK
6
CONTINUOUS
10
46.94
20
-80.235
11
46.94
21
-81.055
0
LINE
8
BLACK
6
CONTINUOUS
10
146.634
20
-80.305
11
144.834
21
-80.305
0
LINE
8
BLACK
6
CONTINUOUS
10
144.834
20
-80.305
11
144.834
21
-79.485
0
LINE
8
BLACK
6
CONTINUOUS
10
144.834
20
-79.485
11
146.634
21
-79.485
0
LINE
8
BLACK
6
CONTINUOUS
10
146.634
20
-79.485
11
146.634
21
-80.305
0
LINE
8
BLACK
6
CONTINUOUS
10
141.234
20
-80.305
11
139.434
21
-80.305
0
LINE
8
BLACK
6
CONTINUOUS
10
139.434
20
-80.305
11
139.434
21
-79.485
0
LINE
8
BLACK
6
CONTINUOUS
10
139.434
20
-79.485
11
141.234
21
-79.485
0
LINE
8
BLACK
6
CONTINUOUS
10
141.234
20
-79.485
11
141.234
21
-80.305
0
LINE
8
BLACK
6
CONTINUOUS
10
91.6688
20
-62.5125
11
90.7687
21
-62.5125
0
LINE
8
BLACK
6
CONTINUOUS
10
90.7687
20
-62.5125
11
90.7687
21
-61.3125
0
LINE
8
BLACK
6
CONTINUOUS
10
90.7687
20
-61.3125
11
91.6688
21
-61.3125
0
LINE
8
BLACK
6
CONTINUOUS
10
91.6688
20
-61.3125
11
91.6688
21
-62.5125
0
LINE
8
BLACK
6
CONTINUOUS
10
94.9688
20
-62.5125
11
94.0687
21
-62.5125
0
LINE
8
BLACK
6
CONTINUOUS
10
94.0687
20
-62.5125
11
94.0687
21
-61.3125
0
LINE
8
BLACK
6
CONTINUOUS
10
94.0687
20
-61.3125
11
94.9688
21
-61.3125
0
LINE
8
BLACK
6
CONTINUOUS
10
94.9688
20
-61.3125
11
94.9688
21
-62.5125
0
LINE
8
BLACK
6
CONTINUOUS
10
75.9188
20
-62.5125
11
75.0187
21
-62.5125
0
LINE
8
BLACK
6
CONTINUOUS
10
75.0187
20
-62.5125
11
75.0187
21
-61.3125
0
LINE
8
BLACK
6
CONTINUOUS
10
75.0187
20
-61.3125
11
75.9188
21
-61.3125
0
LINE
8
BLACK
6
CONTINUOUS
10
75.9188
20
-61.3125
11
75.9188
21
-62.5125
0
LINE
8
BLACK
6
CONTINUOUS
10
110.719
20
-62.5125
11
109.819
21
-62.5125
0
LINE
8
BLACK
6
CONTINUOUS
10
109.819
20
-62.5125
11
109.819
21
-61.3125
0
LINE
8
BLACK
6
CONTINUOUS
10
109.819
20
-61.3125
11
110.719
21
-61.3125
0
LINE
8
BLACK
6
CONTINUOUS
10
110.719
20
-61.3125
11
110.719
21
-62.5125
0
LINE
8
BLACK
6
CONTINUOUS
10
114.019
20
-62.5125
11
113.119
21
-62.5125
0
LINE
8
BLACK
6
CONTINUOUS
10
113.119
20
-62.5125
11
113.119
21
-61.3125
0
LINE
8
BLACK
6
CONTINUOUS
10
113.119
20
-61.3125
11
114.019
21
-61.3125
0
LINE
8
BLACK
6
CONTINUOUS
10
114.019
20
-61.3125
11
114.019
21
-62.5125
0
LINE
8
BLACK
6
CONTINUOUS
10
72.6187
20
-62.5125
11
71.7188
21
-62.5125
0
LINE
8
BLACK
6
CONTINUOUS
10
71.7188
20
-62.5125
11
71.7188
21
-61.3125
0
LINE
8
BLACK
6
CONTINUOUS
10
71.7188
20
-61.3125
11
72.6187
21
-61.3125
0
LINE
8
BLACK
6
CONTINUOUS
10
72.6187
20
-61.3125
11
72.6187
21
-62.5125
0
LINE
8
BLACK
6
CONTINUOUS
10
125.203
20
-38.9425
11
123.402
21
-38.9425
0
LINE
8
BLACK
6
CONTINUOUS
10
123.402
20
-38.9425
11
123.402
21
-38.1225
0
LINE
8
BLACK
6
CONTINUOUS
10
123.402
20
-38.1225
11
125.203
21
-38.1225
0
LINE
8
BLACK
6
CONTINUOUS
10
125.203
20
-38.1225
11
125.203
21
-38.9425
0
LINE
8
BLACK
6
CONTINUOUS
10
119.802
20
-38.9425
11
118.002
21
-38.9425
0
LINE
8
BLACK
6
CONTINUOUS
10
118.002
20
-38.9425
11
118.002
21
-38.1225
0
LINE
8
BLACK
6
CONTINUOUS
10
118.002
20
-38.1225
11
119.802
21
-38.1225
0
LINE
8
BLACK
6
CONTINUOUS
10
119.802
20
-38.1225
11
119.802
21
-38.9425
0
LINE
8
BLACK
6
CONTINUOUS
10
125.203
20
-37.4425
11
123.402
21
-37.4425
0
LINE
8
BLACK
6
CONTINUOUS
10
123.402
20
-37.4425
11
123.402
21
-36.6225
0
LINE
8
BLACK
6
CONTINUOUS
10
123.402
20
-36.6225
11
125.203
21
-36.6225
0
LINE
8
BLACK
6
CONTINUOUS
10
125.203
20
-36.6225
11
125.203
21
-37.4425
0
LINE
8
BLACK
6
CONTINUOUS
10
119.802
20
-37.4425
11
118.002
21
-37.4425
0
LINE
8
BLACK
6
CONTINUOUS
10
118.002
20
-37.4425
11
118.002
21
-36.6225
0
LINE
8
BLACK
6
CONTINUOUS
10
118.002
20
-36.6225
11
119.802
21
-36.6225
0
LINE
8
BLACK
6
CONTINUOUS
10
119.802
20
-36.6225
11
119.802
21
-37.4425
0
LINE
8
BLACK
6
CONTINUOUS
10
72.815
20
-36.5613
11
71.015
21
-36.5613
0
LINE
8
BLACK
6
CONTINUOUS
10
71.015
20
-36.5613
11
71.015
21
-35.7413
0
LINE
8
BLACK
6
CONTINUOUS
10
71.015
20
-35.7413
11
72.815
21
-35.7413
0
LINE
8
BLACK
6
CONTINUOUS
10
72.815
20
-35.7413
11
72.815
21
-36.5613
0
LINE
8
BLACK
6
CONTINUOUS
10
67.415
20
-36.5613
11
65.615
21
-36.5613
0
LINE
8
BLACK
6
CONTINUOUS
10
65.615
20
-36.5613
11
65.615
21
-35.7413
0
LINE
8
BLACK
6
CONTINUOUS
10
65.615
20
-35.7413
11
67.415
21
-35.7413
0
LINE
8
BLACK
6
CONTINUOUS
10
67.415
20
-35.7413
11
67.415
21
-36.5613
0
LINE
8
BLACK
6
CONTINUOUS
10
72.815
20
-35.0613
11
71.015
21
-35.0613
0
LINE
8
BLACK
6
CONTINUOUS
10
71.015
20
-35.0613
11
71.015
21
-34.2413
0
LINE
8
BLACK
6
CONTINUOUS
10
71.015
20
-34.2413
11
72.815
21
-34.2413
0
LINE
8
BLACK
6
CONTINUOUS
10
72.815
20
-34.2413
11
72.815
21
-35.0613
0
LINE
8
BLACK
6
CONTINUOUS
10
67.415
20
-35.0613
11
65.615
21
-35.0613
0
LINE
8
BLACK
6
CONTINUOUS
10
65.615
20
-35.0613
11
65.615
21
-34.2413
0
LINE
8
BLACK
6
CONTINUOUS
10
65.615
20
-34.2413
11
67.415
21
-34.2413
0
LINE
8
BLACK
6
CONTINUOUS
10
67.415
20
-34.2413
11
67.415
21
-35.0613
  0
ENDSEC
  0
EOF
