  0
SECTION
  2
HEADER
  9
$ANGBASE
  50
0.0
  9
$ANGDIR
  70
1
  9
$MEASUREMENT
  70
1
  0
ENDSEC
  0
SECTION
  2
TABLES
  0
TABLE
  2
LTYPE
  70
4
  0
LTYPE
  5
40F
  2
CONTINUOUS
  70
0
  3
Solid line
  72
65
  73
0
  40
0.0
  0
LTYPE
  5
410
  2
DASHDOT
 70
0
  3
Dash Dot ____ _ ____ _
 72
65
 73
4
 40
2.0
 49
1.25
 49
-0.25
 49
0.25
 49
-0.25
  0
LTYPE
  5
411
  2
DASHED
 70
0
  3
Dashed __ __ __ __ __
 72
65
 73
2
 40
0.75
 49
0.5
 49
-0.25
  0
LTYPE
  5
43B
  2
DOTTED
 70
0
  3
Dotted .  .  .  .
 72
65
 73
2
 40
0.2
 49
0.0
 49
-0.2
  0
ENDTAB
  0
TABLE
  2
STYLE
  70
4
  0
STYLE
  2
KICAD
  70
0
  40
0
  41
1
  42
1
  50
0
  71
0
  3
isocp.shx
  0
STYLE
  2
KICADB
  70
0
  40
0
  41
1
  42
1
  50
0
  71
0
  3
isocp.shx
  0
STYLE
  2
KICADI
  70
0
  40
0
  41
1
  42
1
  50
15
  71
0
  3
isocp.shx
  0
STYLE
  2
KICADBI
  70
0
  40
0
  41
1
  42
1
  50
15
  71
0
  3
isocp.shx
  0
ENDTAB
  0
TABLE
  2
LAYER
  70
1
  0
LAYER
  2
BLACK
  70
0
  62
7
  6
CONTINUOUS
  0
ENDTAB
  0
ENDSEC
  0
SECTION
  2
ENTITIES
0
LINE
8
BLACK
6
CONTINUOUS
10
92.1307
20
-79.4149
11
92.1307
21
-78.4149
0
LINE
8
BLACK
6
CONTINUOUS
10
92.1307
20
-78.4149
11
92.3687
21
-78.4149
0
LINE
8
BLACK
6
CONTINUOUS
10
92.3687
20
-78.4149
11
92.5116
21
-78.4625
0
LINE
8
BLACK
6
CONTINUOUS
10
92.5116
20
-78.4625
11
92.6068
21
-78.5577
0
LINE
8
BLACK
6
CONTINUOUS
10
92.6068
20
-78.5577
11
92.6545
21
-78.653
0
LINE
8
BLACK
6
CONTINUOUS
10
92.6545
20
-78.653
11
92.7021
21
-78.8435
0
LINE
8
BLACK
6
CONTINUOUS
10
92.7021
20
-78.8435
11
92.7021
21
-78.9863
0
LINE
8
BLACK
6
CONTINUOUS
10
92.7021
20
-78.9863
11
92.6545
21
-79.1768
0
LINE
8
BLACK
6
CONTINUOUS
10
92.6545
20
-79.1768
11
92.6068
21
-79.272
0
LINE
8
BLACK
6
CONTINUOUS
10
92.6068
20
-79.272
11
92.5116
21
-79.3673
0
LINE
8
BLACK
6
CONTINUOUS
10
92.5116
20
-79.3673
11
92.3687
21
-79.4149
0
LINE
8
BLACK
6
CONTINUOUS
10
92.3687
20
-79.4149
11
92.1307
21
-79.4149
0
LINE
8
BLACK
6
CONTINUOUS
10
93.6068
20
-78.4149
11
93.1307
21
-78.4149
0
LINE
8
BLACK
6
CONTINUOUS
10
93.1307
20
-78.4149
11
93.083
21
-78.8911
0
LINE
8
BLACK
6
CONTINUOUS
10
93.083
20
-78.8911
11
93.1307
21
-78.8435
0
LINE
8
BLACK
6
CONTINUOUS
10
93.1307
20
-78.8435
11
93.2259
21
-78.7958
0
LINE
8
BLACK
6
CONTINUOUS
10
93.2259
20
-78.7958
11
93.464
21
-78.7958
0
LINE
8
BLACK
6
CONTINUOUS
10
93.464
20
-78.7958
11
93.5592
21
-78.8435
0
LINE
8
BLACK
6
CONTINUOUS
10
93.5592
20
-78.8435
11
93.6068
21
-78.8911
0
LINE
8
BLACK
6
CONTINUOUS
10
93.6068
20
-78.8911
11
93.6545
21
-78.9863
0
LINE
8
BLACK
6
CONTINUOUS
10
93.6545
20
-78.9863
11
93.6545
21
-79.2244
0
LINE
8
BLACK
6
CONTINUOUS
10
93.6545
20
-79.2244
11
93.6068
21
-79.3196
0
LINE
8
BLACK
6
CONTINUOUS
10
93.6068
20
-79.3196
11
93.5592
21
-79.3673
0
LINE
8
BLACK
6
CONTINUOUS
10
93.5592
20
-79.3673
11
93.464
21
-79.4149
0
LINE
8
BLACK
6
CONTINUOUS
10
93.464
20
-79.4149
11
93.2259
21
-79.4149
0
LINE
8
BLACK
6
CONTINUOUS
10
93.2259
20
-79.4149
11
93.1307
21
-79.3673
0
LINE
8
BLACK
6
CONTINUOUS
10
93.1307
20
-79.3673
11
93.083
21
-79.3196
0
LINE
8
BLACK
6
CONTINUOUS
10
73.0807
20
-79.4149
11
73.0807
21
-78.4149
0
LINE
8
BLACK
6
CONTINUOUS
10
73.0807
20
-78.4149
11
73.3187
21
-78.4149
0
LINE
8
BLACK
6
CONTINUOUS
10
73.3187
20
-78.4149
11
73.4616
21
-78.4625
0
LINE
8
BLACK
6
CONTINUOUS
10
73.4616
20
-78.4625
11
73.5568
21
-78.5577
0
LINE
8
BLACK
6
CONTINUOUS
10
73.5568
20
-78.5577
11
73.6045
21
-78.653
0
LINE
8
BLACK
6
CONTINUOUS
10
73.6045
20
-78.653
11
73.6521
21
-78.8435
0
LINE
8
BLACK
6
CONTINUOUS
10
73.6521
20
-78.8435
11
73.6521
21
-78.9863
0
LINE
8
BLACK
6
CONTINUOUS
10
73.6521
20
-78.9863
11
73.6045
21
-79.1768
0
LINE
8
BLACK
6
CONTINUOUS
10
73.6045
20
-79.1768
11
73.5568
21
-79.272
0
LINE
8
BLACK
6
CONTINUOUS
10
73.5568
20
-79.272
11
73.4616
21
-79.3673
0
LINE
8
BLACK
6
CONTINUOUS
10
73.4616
20
-79.3673
11
73.3187
21
-79.4149
0
LINE
8
BLACK
6
CONTINUOUS
10
73.3187
20
-79.4149
11
73.0807
21
-79.4149
0
LINE
8
BLACK
6
CONTINUOUS
10
74.5092
20
-78.7482
11
74.5092
21
-79.4149
0
LINE
8
BLACK
6
CONTINUOUS
10
74.2711
20
-78.3673
11
74.033
21
-79.0815
0
LINE
8
BLACK
6
CONTINUOUS
10
74.033
20
-79.0815
11
74.6521
21
-79.0815
0
LINE
8
BLACK
6
CONTINUOUS
10
111.181
20
-79.4149
11
111.181
21
-78.4149
0
LINE
8
BLACK
6
CONTINUOUS
10
111.181
20
-78.4149
11
111.419
21
-78.4149
0
LINE
8
BLACK
6
CONTINUOUS
10
111.419
20
-78.4149
11
111.562
21
-78.4625
0
LINE
8
BLACK
6
CONTINUOUS
10
111.562
20
-78.4625
11
111.657
21
-78.5577
0
LINE
8
BLACK
6
CONTINUOUS
10
111.657
20
-78.5577
11
111.704
21
-78.653
0
LINE
8
BLACK
6
CONTINUOUS
10
111.704
20
-78.653
11
111.752
21
-78.8435
0
LINE
8
BLACK
6
CONTINUOUS
10
111.752
20
-78.8435
11
111.752
21
-78.9863
0
LINE
8
BLACK
6
CONTINUOUS
10
111.752
20
-78.9863
11
111.704
21
-79.1768
0
LINE
8
BLACK
6
CONTINUOUS
10
111.704
20
-79.1768
11
111.657
21
-79.272
0
LINE
8
BLACK
6
CONTINUOUS
10
111.657
20
-79.272
11
111.562
21
-79.3673
0
LINE
8
BLACK
6
CONTINUOUS
10
111.562
20
-79.3673
11
111.419
21
-79.4149
0
LINE
8
BLACK
6
CONTINUOUS
10
111.419
20
-79.4149
11
111.181
21
-79.4149
0
LINE
8
BLACK
6
CONTINUOUS
10
112.609
20
-78.4149
11
112.419
21
-78.4149
0
LINE
8
BLACK
6
CONTINUOUS
10
112.419
20
-78.4149
11
112.324
21
-78.4625
0
LINE
8
BLACK
6
CONTINUOUS
10
112.324
20
-78.4625
11
112.276
21
-78.5101
0
LINE
8
BLACK
6
CONTINUOUS
10
112.276
20
-78.5101
11
112.181
21
-78.653
0
LINE
8
BLACK
6
CONTINUOUS
10
112.181
20
-78.653
11
112.133
21
-78.8435
0
LINE
8
BLACK
6
CONTINUOUS
10
112.133
20
-78.8435
11
112.133
21
-79.2244
0
LINE
8
BLACK
6
CONTINUOUS
10
112.133
20
-79.2244
11
112.181
21
-79.3196
0
LINE
8
BLACK
6
CONTINUOUS
10
112.181
20
-79.3196
11
112.228
21
-79.3673
0
LINE
8
BLACK
6
CONTINUOUS
10
112.228
20
-79.3673
11
112.324
21
-79.4149
0
LINE
8
BLACK
6
CONTINUOUS
10
112.324
20
-79.4149
11
112.514
21
-79.4149
0
LINE
8
BLACK
6
CONTINUOUS
10
112.514
20
-79.4149
11
112.609
21
-79.3673
0
LINE
8
BLACK
6
CONTINUOUS
10
112.609
20
-79.3673
11
112.657
21
-79.3196
0
LINE
8
BLACK
6
CONTINUOUS
10
112.657
20
-79.3196
11
112.704
21
-79.2244
0
LINE
8
BLACK
6
CONTINUOUS
10
112.704
20
-79.2244
11
112.704
21
-78.9863
0
LINE
8
BLACK
6
CONTINUOUS
10
112.704
20
-78.9863
11
112.657
21
-78.8911
0
LINE
8
BLACK
6
CONTINUOUS
10
112.657
20
-78.8911
11
112.609
21
-78.8435
0
LINE
8
BLACK
6
CONTINUOUS
10
112.609
20
-78.8435
11
112.514
21
-78.7958
0
LINE
8
BLACK
6
CONTINUOUS
10
112.514
20
-78.7958
11
112.324
21
-78.7958
0
LINE
8
BLACK
6
CONTINUOUS
10
112.324
20
-78.7958
11
112.228
21
-78.8435
0
LINE
8
BLACK
6
CONTINUOUS
10
112.228
20
-78.8435
11
112.181
21
-78.8911
0
LINE
8
BLACK
6
CONTINUOUS
10
112.181
20
-78.8911
11
112.133
21
-78.9863
0
LINE
8
BLACK
6
CONTINUOUS
10
121.436
20
-41.0349
11
120.96
21
-41.0349
0
LINE
8
BLACK
6
CONTINUOUS
10
120.96
20
-41.0349
11
120.96
21
-40.0349
0
LINE
8
BLACK
6
CONTINUOUS
10
121.722
20
-40.1301
11
121.769
21
-40.0825
0
LINE
8
BLACK
6
CONTINUOUS
10
121.769
20
-40.0825
11
121.864
21
-40.0349
0
LINE
8
BLACK
6
CONTINUOUS
10
121.864
20
-40.0349
11
122.102
21
-40.0349
0
LINE
8
BLACK
6
CONTINUOUS
10
122.102
20
-40.0349
11
122.198
21
-40.0825
0
LINE
8
BLACK
6
CONTINUOUS
10
122.198
20
-40.0825
11
122.245
21
-40.1301
0
LINE
8
BLACK
6
CONTINUOUS
10
122.245
20
-40.1301
11
122.293
21
-40.2254
0
LINE
8
BLACK
6
CONTINUOUS
10
122.293
20
-40.2254
11
122.293
21
-40.3206
0
LINE
8
BLACK
6
CONTINUOUS
10
122.293
20
-40.3206
11
122.245
21
-40.4635
0
LINE
8
BLACK
6
CONTINUOUS
10
122.245
20
-40.4635
11
121.674
21
-41.0349
0
LINE
8
BLACK
6
CONTINUOUS
10
121.674
20
-41.0349
11
122.293
21
-41.0349
0
LINE
8
BLACK
6
CONTINUOUS
10
43.1733
20
-84.6474
11
42.6971
21
-84.6474
0
LINE
8
BLACK
6
CONTINUOUS
10
42.6971
20
-84.6474
11
42.6971
21
-83.6474
0
LINE
8
BLACK
6
CONTINUOUS
10
43.9829
20
-83.6474
11
43.5067
21
-83.6474
0
LINE
8
BLACK
6
CONTINUOUS
10
43.5067
20
-83.6474
11
43.459
21
-84.1236
0
LINE
8
BLACK
6
CONTINUOUS
10
43.459
20
-84.1236
11
43.5067
21
-84.076
0
LINE
8
BLACK
6
CONTINUOUS
10
43.5067
20
-84.076
11
43.6019
21
-84.0283
0
LINE
8
BLACK
6
CONTINUOUS
10
43.6019
20
-84.0283
11
43.84
21
-84.0283
0
LINE
8
BLACK
6
CONTINUOUS
10
43.84
20
-84.0283
11
43.9352
21
-84.076
0
LINE
8
BLACK
6
CONTINUOUS
10
43.9352
20
-84.076
11
43.9829
21
-84.1236
0
LINE
8
BLACK
6
CONTINUOUS
10
43.9829
20
-84.1236
11
44.0305
21
-84.2188
0
LINE
8
BLACK
6
CONTINUOUS
10
44.0305
20
-84.2188
11
44.0305
21
-84.4569
0
LINE
8
BLACK
6
CONTINUOUS
10
44.0305
20
-84.4569
11
43.9829
21
-84.5521
0
LINE
8
BLACK
6
CONTINUOUS
10
43.9829
20
-84.5521
11
43.9352
21
-84.5998
0
LINE
8
BLACK
6
CONTINUOUS
10
43.9352
20
-84.5998
11
43.84
21
-84.6474
0
LINE
8
BLACK
6
CONTINUOUS
10
43.84
20
-84.6474
11
43.6019
21
-84.6474
0
LINE
8
BLACK
6
CONTINUOUS
10
43.6019
20
-84.6474
11
43.5067
21
-84.5998
0
LINE
8
BLACK
6
CONTINUOUS
10
43.5067
20
-84.5998
11
43.459
21
-84.5521
0
LINE
8
BLACK
6
CONTINUOUS
10
66.6671
20
-124.379
11
66.1909
21
-124.379
0
LINE
8
BLACK
6
CONTINUOUS
10
66.1909
20
-124.379
11
66.1909
21
-123.379
0
LINE
8
BLACK
6
CONTINUOUS
10
67.429
20
-123.379
11
67.2385
21
-123.379
0
LINE
8
BLACK
6
CONTINUOUS
10
67.2385
20
-123.379
11
67.1433
21
-123.426
0
LINE
8
BLACK
6
CONTINUOUS
10
67.1433
20
-123.426
11
67.0957
21
-123.474
0
LINE
8
BLACK
6
CONTINUOUS
10
67.0957
20
-123.474
11
67.0004
21
-123.617
0
LINE
8
BLACK
6
CONTINUOUS
10
67.0004
20
-123.617
11
66.9528
21
-123.807
0
LINE
8
BLACK
6
CONTINUOUS
10
66.9528
20
-123.807
11
66.9528
21
-124.188
0
LINE
8
BLACK
6
CONTINUOUS
10
66.9528
20
-124.188
11
67.0004
21
-124.283
0
LINE
8
BLACK
6
CONTINUOUS
10
67.0004
20
-124.283
11
67.048
21
-124.331
0
LINE
8
BLACK
6
CONTINUOUS
10
67.048
20
-124.331
11
67.1433
21
-124.379
0
LINE
8
BLACK
6
CONTINUOUS
10
67.1433
20
-124.379
11
67.3337
21
-124.379
0
LINE
8
BLACK
6
CONTINUOUS
10
67.3337
20
-124.379
11
67.429
21
-124.331
0
LINE
8
BLACK
6
CONTINUOUS
10
67.429
20
-124.331
11
67.4766
21
-124.283
0
LINE
8
BLACK
6
CONTINUOUS
10
67.4766
20
-124.283
11
67.5242
21
-124.188
0
LINE
8
BLACK
6
CONTINUOUS
10
67.5242
20
-124.188
11
67.5242
21
-123.95
0
LINE
8
BLACK
6
CONTINUOUS
10
67.5242
20
-123.95
11
67.4766
21
-123.855
0
LINE
8
BLACK
6
CONTINUOUS
10
67.4766
20
-123.855
11
67.429
21
-123.807
0
LINE
8
BLACK
6
CONTINUOUS
10
67.429
20
-123.807
11
67.3337
21
-123.76
0
LINE
8
BLACK
6
CONTINUOUS
10
67.3337
20
-123.76
11
67.1433
21
-123.76
0
LINE
8
BLACK
6
CONTINUOUS
10
67.1433
20
-123.76
11
67.048
21
-123.807
0
LINE
8
BLACK
6
CONTINUOUS
10
67.048
20
-123.807
11
67.0004
21
-123.855
0
LINE
8
BLACK
6
CONTINUOUS
10
67.0004
20
-123.855
11
66.9528
21
-123.95
0
LINE
8
BLACK
6
CONTINUOUS
10
69.0483
20
-38.6536
11
68.5721
21
-38.6536
0
LINE
8
BLACK
6
CONTINUOUS
10
68.5721
20
-38.6536
11
68.5721
21
-37.6536
0
LINE
8
BLACK
6
CONTINUOUS
10
69.9055
20
-38.6536
11
69.334
21
-38.6536
0
LINE
8
BLACK
6
CONTINUOUS
10
69.6198
20
-38.6536
11
69.6198
21
-37.6536
0
LINE
8
BLACK
6
CONTINUOUS
10
69.6198
20
-37.6536
11
69.5245
21
-37.7965
0
LINE
8
BLACK
6
CONTINUOUS
10
69.5245
20
-37.7965
11
69.4293
21
-37.8917
0
LINE
8
BLACK
6
CONTINUOUS
10
69.4293
20
-37.8917
11
69.334
21
-37.9393
0
LINE
8
BLACK
6
CONTINUOUS
10
92.1307
20
-60.3649
11
92.1307
21
-59.3649
0
LINE
8
BLACK
6
CONTINUOUS
10
92.1307
20
-59.3649
11
92.3687
21
-59.3649
0
LINE
8
BLACK
6
CONTINUOUS
10
92.3687
20
-59.3649
11
92.5116
21
-59.4125
0
LINE
8
BLACK
6
CONTINUOUS
10
92.5116
20
-59.4125
11
92.6068
21
-59.5077
0
LINE
8
BLACK
6
CONTINUOUS
10
92.6068
20
-59.5077
11
92.6545
21
-59.603
0
LINE
8
BLACK
6
CONTINUOUS
10
92.6545
20
-59.603
11
92.7021
21
-59.7935
0
LINE
8
BLACK
6
CONTINUOUS
10
92.7021
20
-59.7935
11
92.7021
21
-59.9363
0
LINE
8
BLACK
6
CONTINUOUS
10
92.7021
20
-59.9363
11
92.6545
21
-60.1268
0
LINE
8
BLACK
6
CONTINUOUS
10
92.6545
20
-60.1268
11
92.6068
21
-60.222
0
LINE
8
BLACK
6
CONTINUOUS
10
92.6068
20
-60.222
11
92.5116
21
-60.3173
0
LINE
8
BLACK
6
CONTINUOUS
10
92.5116
20
-60.3173
11
92.3687
21
-60.3649
0
LINE
8
BLACK
6
CONTINUOUS
10
92.3687
20
-60.3649
11
92.1307
21
-60.3649
0
LINE
8
BLACK
6
CONTINUOUS
10
93.083
20
-59.4601
11
93.1307
21
-59.4125
0
LINE
8
BLACK
6
CONTINUOUS
10
93.1307
20
-59.4125
11
93.2259
21
-59.3649
0
LINE
8
BLACK
6
CONTINUOUS
10
93.2259
20
-59.3649
11
93.464
21
-59.3649
0
LINE
8
BLACK
6
CONTINUOUS
10
93.464
20
-59.3649
11
93.5592
21
-59.4125
0
LINE
8
BLACK
6
CONTINUOUS
10
93.5592
20
-59.4125
11
93.6068
21
-59.4601
0
LINE
8
BLACK
6
CONTINUOUS
10
93.6068
20
-59.4601
11
93.6545
21
-59.5554
0
LINE
8
BLACK
6
CONTINUOUS
10
93.6545
20
-59.5554
11
93.6545
21
-59.6506
0
LINE
8
BLACK
6
CONTINUOUS
10
93.6545
20
-59.6506
11
93.6068
21
-59.7935
0
LINE
8
BLACK
6
CONTINUOUS
10
93.6068
20
-59.7935
11
93.0354
21
-60.3649
0
LINE
8
BLACK
6
CONTINUOUS
10
93.0354
20
-60.3649
11
93.6545
21
-60.3649
0
LINE
8
BLACK
6
CONTINUOUS
10
73.0807
20
-98.4649
11
73.0807
21
-97.4649
0
LINE
8
BLACK
6
CONTINUOUS
10
73.0807
20
-97.4649
11
73.3187
21
-97.4649
0
LINE
8
BLACK
6
CONTINUOUS
10
73.3187
20
-97.4649
11
73.4616
21
-97.5125
0
LINE
8
BLACK
6
CONTINUOUS
10
73.4616
20
-97.5125
11
73.5568
21
-97.6077
0
LINE
8
BLACK
6
CONTINUOUS
10
73.5568
20
-97.6077
11
73.6045
21
-97.703
0
LINE
8
BLACK
6
CONTINUOUS
10
73.6045
20
-97.703
11
73.6521
21
-97.8935
0
LINE
8
BLACK
6
CONTINUOUS
10
73.6521
20
-97.8935
11
73.6521
21
-98.0363
0
LINE
8
BLACK
6
CONTINUOUS
10
73.6521
20
-98.0363
11
73.6045
21
-98.2268
0
LINE
8
BLACK
6
CONTINUOUS
10
73.6045
20
-98.2268
11
73.5568
21
-98.322
0
LINE
8
BLACK
6
CONTINUOUS
10
73.5568
20
-98.322
11
73.4616
21
-98.4173
0
LINE
8
BLACK
6
CONTINUOUS
10
73.4616
20
-98.4173
11
73.3187
21
-98.4649
0
LINE
8
BLACK
6
CONTINUOUS
10
73.3187
20
-98.4649
11
73.0807
21
-98.4649
0
LINE
8
BLACK
6
CONTINUOUS
10
73.9854
20
-97.4649
11
74.6521
21
-97.4649
0
LINE
8
BLACK
6
CONTINUOUS
10
74.6521
20
-97.4649
11
74.2235
21
-98.4649
0
LINE
8
BLACK
6
CONTINUOUS
10
92.1307
20
-98.4649
11
92.1307
21
-97.4649
0
LINE
8
BLACK
6
CONTINUOUS
10
92.1307
20
-97.4649
11
92.3687
21
-97.4649
0
LINE
8
BLACK
6
CONTINUOUS
10
92.3687
20
-97.4649
11
92.5116
21
-97.5125
0
LINE
8
BLACK
6
CONTINUOUS
10
92.5116
20
-97.5125
11
92.6068
21
-97.6077
0
LINE
8
BLACK
6
CONTINUOUS
10
92.6068
20
-97.6077
11
92.6545
21
-97.703
0
LINE
8
BLACK
6
CONTINUOUS
10
92.6545
20
-97.703
11
92.7021
21
-97.8935
0
LINE
8
BLACK
6
CONTINUOUS
10
92.7021
20
-97.8935
11
92.7021
21
-98.0363
0
LINE
8
BLACK
6
CONTINUOUS
10
92.7021
20
-98.0363
11
92.6545
21
-98.2268
0
LINE
8
BLACK
6
CONTINUOUS
10
92.6545
20
-98.2268
11
92.6068
21
-98.322
0
LINE
8
BLACK
6
CONTINUOUS
10
92.6068
20
-98.322
11
92.5116
21
-98.4173
0
LINE
8
BLACK
6
CONTINUOUS
10
92.5116
20
-98.4173
11
92.3687
21
-98.4649
0
LINE
8
BLACK
6
CONTINUOUS
10
92.3687
20
-98.4649
11
92.1307
21
-98.4649
0
LINE
8
BLACK
6
CONTINUOUS
10
93.2735
20
-97.8935
11
93.1783
21
-97.8458
0
LINE
8
BLACK
6
CONTINUOUS
10
93.1783
20
-97.8458
11
93.1307
21
-97.7982
0
LINE
8
BLACK
6
CONTINUOUS
10
93.1307
20
-97.7982
11
93.083
21
-97.703
0
LINE
8
BLACK
6
CONTINUOUS
10
93.083
20
-97.703
11
93.083
21
-97.6554
0
LINE
8
BLACK
6
CONTINUOUS
10
93.083
20
-97.6554
11
93.1307
21
-97.5601
0
LINE
8
BLACK
6
CONTINUOUS
10
93.1307
20
-97.5601
11
93.1783
21
-97.5125
0
LINE
8
BLACK
6
CONTINUOUS
10
93.1783
20
-97.5125
11
93.2735
21
-97.4649
0
LINE
8
BLACK
6
CONTINUOUS
10
93.2735
20
-97.4649
11
93.464
21
-97.4649
0
LINE
8
BLACK
6
CONTINUOUS
10
93.464
20
-97.4649
11
93.5592
21
-97.5125
0
LINE
8
BLACK
6
CONTINUOUS
10
93.5592
20
-97.5125
11
93.6068
21
-97.5601
0
LINE
8
BLACK
6
CONTINUOUS
10
93.6068
20
-97.5601
11
93.6545
21
-97.6554
0
LINE
8
BLACK
6
CONTINUOUS
10
93.6545
20
-97.6554
11
93.6545
21
-97.703
0
LINE
8
BLACK
6
CONTINUOUS
10
93.6545
20
-97.703
11
93.6068
21
-97.7982
0
LINE
8
BLACK
6
CONTINUOUS
10
93.6068
20
-97.7982
11
93.5592
21
-97.8458
0
LINE
8
BLACK
6
CONTINUOUS
10
93.5592
20
-97.8458
11
93.464
21
-97.8935
0
LINE
8
BLACK
6
CONTINUOUS
10
93.464
20
-97.8935
11
93.2735
21
-97.8935
0
LINE
8
BLACK
6
CONTINUOUS
10
93.2735
20
-97.8935
11
93.1783
21
-97.9411
0
LINE
8
BLACK
6
CONTINUOUS
10
93.1783
20
-97.9411
11
93.1307
21
-97.9887
0
LINE
8
BLACK
6
CONTINUOUS
10
93.1307
20
-97.9887
11
93.083
21
-98.0839
0
LINE
8
BLACK
6
CONTINUOUS
10
93.083
20
-98.0839
11
93.083
21
-98.2744
0
LINE
8
BLACK
6
CONTINUOUS
10
93.083
20
-98.2744
11
93.1307
21
-98.3696
0
LINE
8
BLACK
6
CONTINUOUS
10
93.1307
20
-98.3696
11
93.1783
21
-98.4173
0
LINE
8
BLACK
6
CONTINUOUS
10
93.1783
20
-98.4173
11
93.2735
21
-98.4649
0
LINE
8
BLACK
6
CONTINUOUS
10
93.2735
20
-98.4649
11
93.464
21
-98.4649
0
LINE
8
BLACK
6
CONTINUOUS
10
93.464
20
-98.4649
11
93.5592
21
-98.4173
0
LINE
8
BLACK
6
CONTINUOUS
10
93.5592
20
-98.4173
11
93.6068
21
-98.3696
0
LINE
8
BLACK
6
CONTINUOUS
10
93.6068
20
-98.3696
11
93.6545
21
-98.2744
0
LINE
8
BLACK
6
CONTINUOUS
10
93.6545
20
-98.2744
11
93.6545
21
-98.0839
0
LINE
8
BLACK
6
CONTINUOUS
10
93.6545
20
-98.0839
11
93.6068
21
-97.9887
0
LINE
8
BLACK
6
CONTINUOUS
10
93.6068
20
-97.9887
11
93.5592
21
-97.9411
0
LINE
8
BLACK
6
CONTINUOUS
10
93.5592
20
-97.9411
11
93.464
21
-97.8935
0
LINE
8
BLACK
6
CONTINUOUS
10
142.867
20
-83.8974
11
142.391
21
-83.8974
0
LINE
8
BLACK
6
CONTINUOUS
10
142.391
20
-83.8974
11
142.391
21
-82.8974
0
LINE
8
BLACK
6
CONTINUOUS
10
143.105
20
-82.8974
11
143.724
21
-82.8974
0
LINE
8
BLACK
6
CONTINUOUS
10
143.724
20
-82.8974
11
143.391
21
-83.2783
0
LINE
8
BLACK
6
CONTINUOUS
10
143.391
20
-83.2783
11
143.534
21
-83.2783
0
LINE
8
BLACK
6
CONTINUOUS
10
143.534
20
-83.2783
11
143.629
21
-83.326
0
LINE
8
BLACK
6
CONTINUOUS
10
143.629
20
-83.326
11
143.677
21
-83.3736
0
LINE
8
BLACK
6
CONTINUOUS
10
143.677
20
-83.3736
11
143.724
21
-83.4688
0
LINE
8
BLACK
6
CONTINUOUS
10
143.724
20
-83.4688
11
143.724
21
-83.7069
0
LINE
8
BLACK
6
CONTINUOUS
10
143.724
20
-83.7069
11
143.677
21
-83.8021
0
LINE
8
BLACK
6
CONTINUOUS
10
143.677
20
-83.8021
11
143.629
21
-83.8498
0
LINE
8
BLACK
6
CONTINUOUS
10
143.629
20
-83.8498
11
143.534
21
-83.8974
0
LINE
8
BLACK
6
CONTINUOUS
10
143.534
20
-83.8974
11
143.248
21
-83.8974
0
LINE
8
BLACK
6
CONTINUOUS
10
143.248
20
-83.8974
11
143.153
21
-83.8498
0
LINE
8
BLACK
6
CONTINUOUS
10
143.153
20
-83.8498
11
143.105
21
-83.8021
0
LINE
8
BLACK
6
CONTINUOUS
10
111.181
20
-60.3649
11
111.181
21
-59.3649
0
LINE
8
BLACK
6
CONTINUOUS
10
111.181
20
-59.3649
11
111.419
21
-59.3649
0
LINE
8
BLACK
6
CONTINUOUS
10
111.419
20
-59.3649
11
111.562
21
-59.4125
0
LINE
8
BLACK
6
CONTINUOUS
10
111.562
20
-59.4125
11
111.657
21
-59.5077
0
LINE
8
BLACK
6
CONTINUOUS
10
111.657
20
-59.5077
11
111.704
21
-59.603
0
LINE
8
BLACK
6
CONTINUOUS
10
111.704
20
-59.603
11
111.752
21
-59.7935
0
LINE
8
BLACK
6
CONTINUOUS
10
111.752
20
-59.7935
11
111.752
21
-59.9363
0
LINE
8
BLACK
6
CONTINUOUS
10
111.752
20
-59.9363
11
111.704
21
-60.1268
0
LINE
8
BLACK
6
CONTINUOUS
10
111.704
20
-60.1268
11
111.657
21
-60.222
0
LINE
8
BLACK
6
CONTINUOUS
10
111.657
20
-60.222
11
111.562
21
-60.3173
0
LINE
8
BLACK
6
CONTINUOUS
10
111.562
20
-60.3173
11
111.419
21
-60.3649
0
LINE
8
BLACK
6
CONTINUOUS
10
111.419
20
-60.3649
11
111.181
21
-60.3649
0
LINE
8
BLACK
6
CONTINUOUS
10
112.085
20
-59.3649
11
112.704
21
-59.3649
0
LINE
8
BLACK
6
CONTINUOUS
10
112.704
20
-59.3649
11
112.371
21
-59.7458
0
LINE
8
BLACK
6
CONTINUOUS
10
112.371
20
-59.7458
11
112.514
21
-59.7458
0
LINE
8
BLACK
6
CONTINUOUS
10
112.514
20
-59.7458
11
112.609
21
-59.7935
0
LINE
8
BLACK
6
CONTINUOUS
10
112.609
20
-59.7935
11
112.657
21
-59.8411
0
LINE
8
BLACK
6
CONTINUOUS
10
112.657
20
-59.8411
11
112.704
21
-59.9363
0
LINE
8
BLACK
6
CONTINUOUS
10
112.704
20
-59.9363
11
112.704
21
-60.1744
0
LINE
8
BLACK
6
CONTINUOUS
10
112.704
20
-60.1744
11
112.657
21
-60.2696
0
LINE
8
BLACK
6
CONTINUOUS
10
112.657
20
-60.2696
11
112.609
21
-60.3173
0
LINE
8
BLACK
6
CONTINUOUS
10
112.609
20
-60.3173
11
112.514
21
-60.3649
0
LINE
8
BLACK
6
CONTINUOUS
10
112.514
20
-60.3649
11
112.228
21
-60.3649
0
LINE
8
BLACK
6
CONTINUOUS
10
112.228
20
-60.3649
11
112.133
21
-60.3173
0
LINE
8
BLACK
6
CONTINUOUS
10
112.133
20
-60.3173
11
112.085
21
-60.2696
0
LINE
8
BLACK
6
CONTINUOUS
10
73.0807
20
-60.3649
11
73.0807
21
-59.3649
0
LINE
8
BLACK
6
CONTINUOUS
10
73.0807
20
-59.3649
11
73.3187
21
-59.3649
0
LINE
8
BLACK
6
CONTINUOUS
10
73.3187
20
-59.3649
11
73.4616
21
-59.4125
0
LINE
8
BLACK
6
CONTINUOUS
10
73.4616
20
-59.4125
11
73.5568
21
-59.5077
0
LINE
8
BLACK
6
CONTINUOUS
10
73.5568
20
-59.5077
11
73.6045
21
-59.603
0
LINE
8
BLACK
6
CONTINUOUS
10
73.6045
20
-59.603
11
73.6521
21
-59.7935
0
LINE
8
BLACK
6
CONTINUOUS
10
73.6521
20
-59.7935
11
73.6521
21
-59.9363
0
LINE
8
BLACK
6
CONTINUOUS
10
73.6521
20
-59.9363
11
73.6045
21
-60.1268
0
LINE
8
BLACK
6
CONTINUOUS
10
73.6045
20
-60.1268
11
73.5568
21
-60.222
0
LINE
8
BLACK
6
CONTINUOUS
10
73.5568
20
-60.222
11
73.4616
21
-60.3173
0
LINE
8
BLACK
6
CONTINUOUS
10
73.4616
20
-60.3173
11
73.3187
21
-60.3649
0
LINE
8
BLACK
6
CONTINUOUS
10
73.3187
20
-60.3649
11
73.0807
21
-60.3649
0
LINE
8
BLACK
6
CONTINUOUS
10
74.6045
20
-60.3649
11
74.033
21
-60.3649
0
LINE
8
BLACK
6
CONTINUOUS
10
74.3187
20
-60.3649
11
74.3187
21
-59.3649
0
LINE
8
BLACK
6
CONTINUOUS
10
74.3187
20
-59.3649
11
74.2235
21
-59.5077
0
LINE
8
BLACK
6
CONTINUOUS
10
74.2235
20
-59.5077
11
74.1283
21
-59.603
0
LINE
8
BLACK
6
CONTINUOUS
10
74.1283
20
-59.603
11
74.033
21
-59.6506
0
LINE
8
BLACK
6
CONTINUOUS
10
111.181
20
-98.4649
11
111.181
21
-97.4649
0
LINE
8
BLACK
6
CONTINUOUS
10
111.181
20
-97.4649
11
111.419
21
-97.4649
0
LINE
8
BLACK
6
CONTINUOUS
10
111.419
20
-97.4649
11
111.562
21
-97.5125
0
LINE
8
BLACK
6
CONTINUOUS
10
111.562
20
-97.5125
11
111.657
21
-97.6077
0
LINE
8
BLACK
6
CONTINUOUS
10
111.657
20
-97.6077
11
111.704
21
-97.703
0
LINE
8
BLACK
6
CONTINUOUS
10
111.704
20
-97.703
11
111.752
21
-97.8935
0
LINE
8
BLACK
6
CONTINUOUS
10
111.752
20
-97.8935
11
111.752
21
-98.0363
0
LINE
8
BLACK
6
CONTINUOUS
10
111.752
20
-98.0363
11
111.704
21
-98.2268
0
LINE
8
BLACK
6
CONTINUOUS
10
111.704
20
-98.2268
11
111.657
21
-98.322
0
LINE
8
BLACK
6
CONTINUOUS
10
111.657
20
-98.322
11
111.562
21
-98.4173
0
LINE
8
BLACK
6
CONTINUOUS
10
111.562
20
-98.4173
11
111.419
21
-98.4649
0
LINE
8
BLACK
6
CONTINUOUS
10
111.419
20
-98.4649
11
111.181
21
-98.4649
0
LINE
8
BLACK
6
CONTINUOUS
10
112.228
20
-98.4649
11
112.419
21
-98.4649
0
LINE
8
BLACK
6
CONTINUOUS
10
112.419
20
-98.4649
11
112.514
21
-98.4173
0
LINE
8
BLACK
6
CONTINUOUS
10
112.514
20
-98.4173
11
112.562
21
-98.3696
0
LINE
8
BLACK
6
CONTINUOUS
10
112.562
20
-98.3696
11
112.657
21
-98.2268
0
LINE
8
BLACK
6
CONTINUOUS
10
112.657
20
-98.2268
11
112.704
21
-98.0363
0
LINE
8
BLACK
6
CONTINUOUS
10
112.704
20
-98.0363
11
112.704
21
-97.6554
0
LINE
8
BLACK
6
CONTINUOUS
10
112.704
20
-97.6554
11
112.657
21
-97.5601
0
LINE
8
BLACK
6
CONTINUOUS
10
112.657
20
-97.5601
11
112.609
21
-97.5125
0
LINE
8
BLACK
6
CONTINUOUS
10
112.609
20
-97.5125
11
112.514
21
-97.4649
0
LINE
8
BLACK
6
CONTINUOUS
10
112.514
20
-97.4649
11
112.324
21
-97.4649
0
LINE
8
BLACK
6
CONTINUOUS
10
112.324
20
-97.4649
11
112.228
21
-97.5125
0
LINE
8
BLACK
6
CONTINUOUS
10
112.228
20
-97.5125
11
112.181
21
-97.5601
0
LINE
8
BLACK
6
CONTINUOUS
10
112.181
20
-97.5601
11
112.133
21
-97.6554
0
LINE
8
BLACK
6
CONTINUOUS
10
112.133
20
-97.6554
11
112.133
21
-97.8935
0
LINE
8
BLACK
6
CONTINUOUS
10
112.133
20
-97.8935
11
112.181
21
-97.9887
0
LINE
8
BLACK
6
CONTINUOUS
10
112.181
20
-97.9887
11
112.228
21
-98.0363
0
LINE
8
BLACK
6
CONTINUOUS
10
112.228
20
-98.0363
11
112.324
21
-98.0839
0
LINE
8
BLACK
6
CONTINUOUS
10
112.324
20
-98.0839
11
112.514
21
-98.0839
0
LINE
8
BLACK
6
CONTINUOUS
10
112.514
20
-98.0839
11
112.609
21
-98.0363
0
LINE
8
BLACK
6
CONTINUOUS
10
112.609
20
-98.0363
11
112.657
21
-97.9887
0
LINE
8
BLACK
6
CONTINUOUS
10
112.657
20
-97.9887
11
112.704
21
-97.8935
0
LINE
8
BLACK
6
CONTINUOUS
10
121.436
20
-124.379
11
120.96
21
-124.379
0
LINE
8
BLACK
6
CONTINUOUS
10
120.96
20
-124.379
11
120.96
21
-123.379
0
LINE
8
BLACK
6
CONTINUOUS
10
122.198
20
-123.712
11
122.198
21
-124.379
0
LINE
8
BLACK
6
CONTINUOUS
10
121.96
20
-123.331
11
121.722
21
-124.045
0
LINE
8
BLACK
6
CONTINUOUS
10
121.722
20
-124.045
11
122.341
21
-124.045
0
LINE
8
BLACK
6
CONTINUOUS
10
90.6187
20
-79.9625
11
94.5187
21
-79.9625
0
LINE
8
BLACK
6
CONTINUOUS
10
90.6187
20
-81.9625
11
94.5187
21
-81.9625
0
LINE
8
BLACK
6
CONTINUOUS
10
90.6187
20
-79.9625
11
90.6187
21
-81.9625
0
LINE
8
BLACK
6
CONTINUOUS
10
71.5687
20
-81.9625
11
75.4688
21
-81.9625
0
LINE
8
BLACK
6
CONTINUOUS
10
71.5687
20
-79.9625
11
75.4688
21
-79.9625
0
LINE
8
BLACK
6
CONTINUOUS
10
71.5687
20
-79.9625
11
71.5687
21
-81.9625
0
LINE
8
BLACK
6
CONTINUOUS
10
109.669
20
-79.9625
11
109.669
21
-81.9625
0
LINE
8
BLACK
6
CONTINUOUS
10
109.669
20
-79.9625
11
113.569
21
-79.9625
0
LINE
8
BLACK
6
CONTINUOUS
10
109.669
20
-81.9625
11
113.569
21
-81.9625
0
LINE
8
BLACK
6
CONTINUOUS
10
117.64
20
-38.7135
11
118.656
21
-39.7295
0
LINE
8
BLACK
6
CONTINUOUS
10
118.656
20
-39.7295
11
118.677
21
-39.7825
0
LINE
8
BLACK
6
CONTINUOUS
10
118.677
20
-39.7825
11
118.656
21
-39.8355
0
LINE
8
BLACK
6
CONTINUOUS
10
118.656
20
-39.8355
11
118.602
21
-39.8575
0
LINE
8
BLACK
6
CONTINUOUS
10
118.602
20
-39.8575
11
117.587
21
-39.8575
0
LINE
8
BLACK
6
CONTINUOUS
10
117.587
20
-39.8575
11
117.533
21
-39.8355
0
LINE
8
BLACK
6
CONTINUOUS
10
117.533
20
-39.8355
11
117.511
21
-39.7825
0
LINE
8
BLACK
6
CONTINUOUS
10
117.511
20
-39.7825
11
117.511
21
-38.7665
0
LINE
8
BLACK
6
CONTINUOUS
10
117.511
20
-38.7665
11
117.533
21
-38.7135
0
LINE
8
BLACK
6
CONTINUOUS
10
117.533
20
-38.7135
11
117.587
21
-38.6915
0
LINE
8
BLACK
6
CONTINUOUS
10
117.587
20
-38.6915
11
117.64
21
-38.7135
0
LINE
8
BLACK
6
CONTINUOUS
10
39.377
20
-82.326
11
40.393
21
-83.342
0
LINE
8
BLACK
6
CONTINUOUS
10
40.393
20
-83.342
11
40.415
21
-83.395
0
LINE
8
BLACK
6
CONTINUOUS
10
40.415
20
-83.395
11
40.393
21
-83.448
0
LINE
8
BLACK
6
CONTINUOUS
10
40.393
20
-83.448
11
40.34
21
-83.47
0
LINE
8
BLACK
6
CONTINUOUS
10
40.34
20
-83.47
11
39.324
21
-83.47
0
LINE
8
BLACK
6
CONTINUOUS
10
39.324
20
-83.47
11
39.271
21
-83.448
0
LINE
8
BLACK
6
CONTINUOUS
10
39.271
20
-83.448
11
39.249
21
-83.395
0
LINE
8
BLACK
6
CONTINUOUS
10
39.249
20
-83.395
11
39.249
21
-82.379
0
LINE
8
BLACK
6
CONTINUOUS
10
39.249
20
-82.379
11
39.271
21
-82.326
0
LINE
8
BLACK
6
CONTINUOUS
10
39.271
20
-82.326
11
39.324
21
-82.304
0
LINE
8
BLACK
6
CONTINUOUS
10
39.324
20
-82.304
11
39.377
21
-82.326
0
LINE
8
BLACK
6
CONTINUOUS
10
62.8708
20
-122.057
11
63.8868
21
-123.073
0
LINE
8
BLACK
6
CONTINUOUS
10
63.8868
20
-123.073
11
63.9087
21
-123.126
0
LINE
8
BLACK
6
CONTINUOUS
10
63.9087
20
-123.126
11
63.8868
21
-123.179
0
LINE
8
BLACK
6
CONTINUOUS
10
63.8868
20
-123.179
11
63.8337
21
-123.201
0
LINE
8
BLACK
6
CONTINUOUS
10
63.8337
20
-123.201
11
62.8177
21
-123.201
0
LINE
8
BLACK
6
CONTINUOUS
10
62.8177
20
-123.201
11
62.7647
21
-123.179
0
LINE
8
BLACK
6
CONTINUOUS
10
62.7647
20
-123.179
11
62.7427
21
-123.126
0
LINE
8
BLACK
6
CONTINUOUS
10
62.7427
20
-123.126
11
62.7427
21
-122.11
0
LINE
8
BLACK
6
CONTINUOUS
10
62.7427
20
-122.11
11
62.7647
21
-122.057
0
LINE
8
BLACK
6
CONTINUOUS
10
62.7647
20
-122.057
11
62.8177
21
-122.035
0
LINE
8
BLACK
6
CONTINUOUS
10
62.8177
20
-122.035
11
62.8708
21
-122.057
0
LINE
8
BLACK
6
CONTINUOUS
10
65.252
20
-36.3322
11
66.268
21
-37.3482
0
LINE
8
BLACK
6
CONTINUOUS
10
66.268
20
-37.3482
11
66.29
21
-37.4012
0
LINE
8
BLACK
6
CONTINUOUS
10
66.29
20
-37.4012
11
66.268
21
-37.4543
0
LINE
8
BLACK
6
CONTINUOUS
10
66.268
20
-37.4543
11
66.215
21
-37.4763
0
LINE
8
BLACK
6
CONTINUOUS
10
66.215
20
-37.4763
11
65.199
21
-37.4763
0
LINE
8
BLACK
6
CONTINUOUS
10
65.199
20
-37.4763
11
65.146
21
-37.4543
0
LINE
8
BLACK
6
CONTINUOUS
10
65.146
20
-37.4543
11
65.124
21
-37.4012
0
LINE
8
BLACK
6
CONTINUOUS
10
65.124
20
-37.4012
11
65.124
21
-36.3852
0
LINE
8
BLACK
6
CONTINUOUS
10
65.124
20
-36.3852
11
65.146
21
-36.3322
0
LINE
8
BLACK
6
CONTINUOUS
10
65.146
20
-36.3322
11
65.199
21
-36.3102
0
LINE
8
BLACK
6
CONTINUOUS
10
65.199
20
-36.3102
11
65.252
21
-36.3322
0
LINE
8
BLACK
6
CONTINUOUS
10
90.6187
20
-60.9125
11
90.6187
21
-62.9125
0
LINE
8
BLACK
6
CONTINUOUS
10
90.6187
20
-60.9125
11
94.5187
21
-60.9125
0
LINE
8
BLACK
6
CONTINUOUS
10
90.6187
20
-62.9125
11
94.5187
21
-62.9125
0
LINE
8
BLACK
6
CONTINUOUS
10
66.4709
20
-81.0957
11
66.4709
21
-70.4
0
LINE
8
BLACK
6
CONTINUOUS
10
68.4709
20
-68.4
11
79.1666
21
-68.4
0
LINE
8
BLACK
6
CONTINUOUS
10
79.1666
20
-83.0957
11
68.4709
21
-83.0957
0
LINE
8
BLACK
6
CONTINUOUS
10
81.1666
20
-70.4
11
81.1666
21
-81.0957
0
ARC
8
BLACK
10
79.1666
20
-81.0957
40
2
50
-89.9999
51
-0
0
ARC
8
BLACK
10
68.4709
20
-81.0957
40
2
50
-180
51
-90
0
ARC
8
BLACK
10
79.1666
20
-70.4
40
1.99999
50
-0.00028648
51
90.0001
0
ARC
8
BLACK
10
68.4709
20
-70.4
40
2
50
-270
51
-180
0
LINE
8
BLACK
6
CONTINUOUS
10
71.5687
20
-101.012
11
75.4688
21
-101.012
0
LINE
8
BLACK
6
CONTINUOUS
10
71.5687
20
-99.0125
11
71.5687
21
-101.012
0
LINE
8
BLACK
6
CONTINUOUS
10
71.5687
20
-99.0125
11
75.4688
21
-99.0125
0
LINE
8
BLACK
6
CONTINUOUS
10
79.1666
20
-64.0457
11
68.4709
21
-64.0457
0
LINE
8
BLACK
6
CONTINUOUS
10
68.4709
20
-49.35
11
79.1666
21
-49.35
0
LINE
8
BLACK
6
CONTINUOUS
10
66.4709
20
-62.0457
11
66.4709
21
-51.35
0
LINE
8
BLACK
6
CONTINUOUS
10
81.1666
20
-51.35
11
81.1666
21
-62.0457
0
ARC
8
BLACK
10
68.4709
20
-51.35
40
2
50
-270
51
-180
0
ARC
8
BLACK
10
68.4709
20
-62.0457
40
2
50
-180
51
-90
0
ARC
8
BLACK
10
79.1666
20
-51.35
40
1.99999
50
-0.00028648
51
90.0001
0
ARC
8
BLACK
10
79.1666
20
-62.0457
40
2
50
-89.9999
51
-0
0
LINE
8
BLACK
6
CONTINUOUS
10
98.2166
20
-102.146
11
87.5209
21
-102.146
0
LINE
8
BLACK
6
CONTINUOUS
10
85.5209
20
-100.146
11
85.5209
21
-89.45
0
LINE
8
BLACK
6
CONTINUOUS
10
100.217
20
-89.45
11
100.217
21
-100.146
0
LINE
8
BLACK
6
CONTINUOUS
10
87.5209
20
-87.45
11
98.2166
21
-87.45
0
ARC
8
BLACK
10
87.5209
20
-89.45
40
2
50
-270
51
-180
0
ARC
8
BLACK
10
98.2166
20
-100.146
40
2
50
-89.9999
51
-0
0
ARC
8
BLACK
10
98.2166
20
-89.45
40
1.99999
50
-0.00028648
51
90.0001
0
ARC
8
BLACK
10
87.5209
20
-100.146
40
2
50
-180
51
-90
0
LINE
8
BLACK
6
CONTINUOUS
10
90.6187
20
-99.0125
11
94.5187
21
-99.0125
0
LINE
8
BLACK
6
CONTINUOUS
10
90.6187
20
-99.0125
11
90.6187
21
-101.012
0
LINE
8
BLACK
6
CONTINUOUS
10
90.6187
20
-101.012
11
94.5187
21
-101.012
0
LINE
8
BLACK
6
CONTINUOUS
10
106.571
20
-49.35
11
117.267
21
-49.35
0
LINE
8
BLACK
6
CONTINUOUS
10
104.571
20
-62.0457
11
104.571
21
-51.35
0
LINE
8
BLACK
6
CONTINUOUS
10
119.267
20
-51.35
11
119.267
21
-62.0457
0
LINE
8
BLACK
6
CONTINUOUS
10
117.267
20
-64.0457
11
106.571
21
-64.0457
0
ARC
8
BLACK
10
117.267
20
-62.0457
40
2
50
-89.9999
51
-0
0
ARC
8
BLACK
10
117.267
20
-51.35
40
1.99999
50
-0.00028648
51
90.0001
0
ARC
8
BLACK
10
106.571
20
-62.0457
40
2
50
-180
51
-90
0
ARC
8
BLACK
10
106.571
20
-51.35
40
2
50
-270
51
-180
0
LINE
8
BLACK
6
CONTINUOUS
10
106.571
20
-87.45
11
117.267
21
-87.45
0
LINE
8
BLACK
6
CONTINUOUS
10
104.571
20
-100.146
11
104.571
21
-89.45
0
LINE
8
BLACK
6
CONTINUOUS
10
119.267
20
-89.45
11
119.267
21
-100.146
0
LINE
8
BLACK
6
CONTINUOUS
10
117.267
20
-102.146
11
106.571
21
-102.146
0
ARC
8
BLACK
10
106.571
20
-89.45
40
2
50
-270
51
-180
0
ARC
8
BLACK
10
106.571
20
-100.146
40
2
50
-180
51
-90
0
ARC
8
BLACK
10
117.267
20
-100.146
40
2
50
-89.9999
51
-0
0
ARC
8
BLACK
10
117.267
20
-89.45
40
1.99999
50
-0.00028648
51
90.0001
0
LINE
8
BLACK
6
CONTINUOUS
10
85.5209
20
-81.0957
11
85.5209
21
-70.4
0
LINE
8
BLACK
6
CONTINUOUS
10
100.217
20
-70.4
11
100.217
21
-81.0957
0
LINE
8
BLACK
6
CONTINUOUS
10
98.2166
20
-83.0957
11
87.5209
21
-83.0957
0
LINE
8
BLACK
6
CONTINUOUS
10
87.5209
20
-68.4
11
98.2166
21
-68.4
0
ARC
8
BLACK
10
98.2166
20
-70.4
40
1.99999
50
-0.00028648
51
90.0001
0
ARC
8
BLACK
10
87.5209
20
-70.4
40
2
50
-270
51
-180
0
ARC
8
BLACK
10
98.2166
20
-81.0957
40
2
50
-89.9999
51
-0
0
ARC
8
BLACK
10
87.5209
20
-81.0957
40
2
50
-180
51
-90
0
LINE
8
BLACK
6
CONTINUOUS
10
139.071
20
-81.576
11
140.087
21
-82.592
0
LINE
8
BLACK
6
CONTINUOUS
10
140.087
20
-82.592
11
140.109
21
-82.645
0
LINE
8
BLACK
6
CONTINUOUS
10
140.109
20
-82.645
11
140.087
21
-82.698
0
LINE
8
BLACK
6
CONTINUOUS
10
140.087
20
-82.698
11
140.034
21
-82.72
0
LINE
8
BLACK
6
CONTINUOUS
10
140.034
20
-82.72
11
139.018
21
-82.72
0
LINE
8
BLACK
6
CONTINUOUS
10
139.018
20
-82.72
11
138.965
21
-82.698
0
LINE
8
BLACK
6
CONTINUOUS
10
138.965
20
-82.698
11
138.943
21
-82.645
0
LINE
8
BLACK
6
CONTINUOUS
10
138.943
20
-82.645
11
138.943
21
-81.629
0
LINE
8
BLACK
6
CONTINUOUS
10
138.943
20
-81.629
11
138.965
21
-81.576
0
LINE
8
BLACK
6
CONTINUOUS
10
138.965
20
-81.576
11
139.018
21
-81.554
0
LINE
8
BLACK
6
CONTINUOUS
10
139.018
20
-81.554
11
139.071
21
-81.576
0
LINE
8
BLACK
6
CONTINUOUS
10
106.571
20
-68.4
11
117.267
21
-68.4
0
LINE
8
BLACK
6
CONTINUOUS
10
104.571
20
-81.0957
11
104.571
21
-70.4
0
LINE
8
BLACK
6
CONTINUOUS
10
119.267
20
-70.4
11
119.267
21
-81.0957
0
LINE
8
BLACK
6
CONTINUOUS
10
117.267
20
-83.0957
11
106.571
21
-83.0957
0
ARC
8
BLACK
10
106.571
20
-70.4
40
2
50
-270
51
-180
0
ARC
8
BLACK
10
117.267
20
-70.4
40
1.99999
50
-0.00028648
51
90.0001
0
ARC
8
BLACK
10
117.267
20
-81.0957
40
2
50
-89.9999
51
-0
0
ARC
8
BLACK
10
106.571
20
-81.0957
40
2
50
-180
51
-90
0
LINE
8
BLACK
6
CONTINUOUS
10
100.217
20
-51.35
11
100.217
21
-62.0457
0
LINE
8
BLACK
6
CONTINUOUS
10
87.5209
20
-49.35
11
98.2166
21
-49.35
0
LINE
8
BLACK
6
CONTINUOUS
10
85.5209
20
-62.0457
11
85.5209
21
-51.35
0
LINE
8
BLACK
6
CONTINUOUS
10
98.2166
20
-64.0457
11
87.5209
21
-64.0457
0
ARC
8
BLACK
10
98.2166
20
-51.35
40
1.99999
50
-0.00028648
51
90.0001
0
ARC
8
BLACK
10
87.5209
20
-51.35
40
2
50
-270
51
-180
0
ARC
8
BLACK
10
98.2166
20
-62.0457
40
2
50
-89.9999
51
-0
0
ARC
8
BLACK
10
87.5209
20
-62.0457
40
2
50
-180
51
-90
0
LINE
8
BLACK
6
CONTINUOUS
10
109.669
20
-60.9125
11
113.569
21
-60.9125
0
LINE
8
BLACK
6
CONTINUOUS
10
109.669
20
-60.9125
11
109.669
21
-62.9125
0
LINE
8
BLACK
6
CONTINUOUS
10
109.669
20
-62.9125
11
113.569
21
-62.9125
0
LINE
8
BLACK
6
CONTINUOUS
10
71.5687
20
-60.9125
11
75.4688
21
-60.9125
0
LINE
8
BLACK
6
CONTINUOUS
10
71.5687
20
-62.9125
11
75.4688
21
-62.9125
0
LINE
8
BLACK
6
CONTINUOUS
10
71.5687
20
-60.9125
11
71.5687
21
-62.9125
0
LINE
8
BLACK
6
CONTINUOUS
10
66.4709
20
-100.146
11
66.4709
21
-89.45
0
LINE
8
BLACK
6
CONTINUOUS
10
68.4709
20
-87.45
11
79.1666
21
-87.45
0
LINE
8
BLACK
6
CONTINUOUS
10
81.1666
20
-89.45
11
81.1666
21
-100.146
0
LINE
8
BLACK
6
CONTINUOUS
10
79.1666
20
-102.146
11
68.4709
21
-102.146
0
ARC
8
BLACK
10
79.1666
20
-100.146
40
2
50
-89.9999
51
-0
0
ARC
8
BLACK
10
68.4709
20
-89.45
40
2
50
-270
51
-180
0
ARC
8
BLACK
10
68.4709
20
-100.146
40
2
50
-180
51
-90
0
ARC
8
BLACK
10
79.1666
20
-89.45
40
1.99999
50
-0.00028648
51
90.0001
0
LINE
8
BLACK
6
CONTINUOUS
10
109.669
20
-99.0125
11
113.569
21
-99.0125
0
LINE
8
BLACK
6
CONTINUOUS
10
109.669
20
-101.012
11
113.569
21
-101.012
0
LINE
8
BLACK
6
CONTINUOUS
10
109.669
20
-99.0125
11
109.669
21
-101.012
0
LINE
8
BLACK
6
CONTINUOUS
10
117.64
20
-122.057
11
118.656
21
-123.073
0
LINE
8
BLACK
6
CONTINUOUS
10
118.656
20
-123.073
11
118.677
21
-123.126
0
LINE
8
BLACK
6
CONTINUOUS
10
118.677
20
-123.126
11
118.656
21
-123.179
0
LINE
8
BLACK
6
CONTINUOUS
10
118.656
20
-123.179
11
118.602
21
-123.201
0
LINE
8
BLACK
6
CONTINUOUS
10
118.602
20
-123.201
11
117.587
21
-123.201
0
LINE
8
BLACK
6
CONTINUOUS
10
117.587
20
-123.201
11
117.533
21
-123.179
0
LINE
8
BLACK
6
CONTINUOUS
10
117.533
20
-123.179
11
117.511
21
-123.126
0
LINE
8
BLACK
6
CONTINUOUS
10
117.511
20
-123.126
11
117.511
21
-122.11
0
LINE
8
BLACK
6
CONTINUOUS
10
117.511
20
-122.11
11
117.533
21
-122.057
0
LINE
8
BLACK
6
CONTINUOUS
10
117.533
20
-122.057
11
117.587
21
-122.035
0
LINE
8
BLACK
6
CONTINUOUS
10
117.587
20
-122.035
11
117.64
21
-122.057
  0
ENDSEC
  0
EOF
