0
SECTION
2
HEADER
9
$INSUNITS
70
4
9
$INSBASE
10
0.0
20
0.0
30
0.0
9
$EXTMIN
10
0
20
0
9
$EXTMAX
10
62.125
20
62.125
0
ENDSEC
0
SECTION
2
TABLES
0
TABLE
2
LTYPE
70
1
0
LTYPE
2
CONTINUOUS
70
64
3
Solid line
72
65
73
0
40
0.0
0
ENDTAB
0
TABLE
2
LAYER
70
1
0
LAYER
2
Layer1
70
64
62
7
6
CONTINUOUS
0
ENDTAB
0
TABLE
2
STYLE
70
0
0
ENDTAB
0
TABLE
2
VIEW
70
0
0
ENDTAB
0
ENDSEC
0
SECTION
2
BLOCKS
0
ENDSEC
0
SECTION
2
ENTITIES
0
POLYLINE
5
10
8
Layer1
66
1
10
0.0
20
0.0
30
0.0
70
1
0
VERTEX
5
11
8
Layer1
10
0.0000
20
0.0000
30
0.0
0
VERTEX
5
12
8
Layer1
10
62.1250
20
0.0000
30
0.0
0
VERTEX
5
13
8
Layer1
10
62.1250
20
62.1250
30
0.0
0
VERTEX
5
14
8
Layer1
10
0.0000
20
62.1250
30
0.0
0
VERTEX
5
15
8
Layer1
10
0.0000
20
0.0000
30
0.0
0
SEQEND
5
16
8
Layer1
0
POLYLINE
5
17
8
Layer1
66
1
10
0.0
20
0.0
30
0.0
70
1
0
VERTEX
5
18
8
Layer1
10
19.0250
20
57.1000
30
0.0
0
VERTEX
5
19
8
Layer1
10
5.0250
20
57.1000
30
0.0
0
VERTEX
5
1a
8
Layer1
10
5.0250
20
43.1000
30
0.0
0
VERTEX
5
1b
8
Layer1
10
19.0250
20
43.1000
30
0.0
0
VERTEX
5
1c
8
Layer1
10
19.0250
20
57.1000
30
0.0
0
SEQEND
5
1d
8
Layer1
0
POLYLINE
5
1e
8
Layer1
66
1
10
0.0
20
0.0
30
0.0
70
1
0
VERTEX
5
1f
8
Layer1
10
38.0750
20
57.1000
30
0.0
0
VERTEX
5
20
8
Layer1
10
24.0750
20
57.1000
30
0.0
0
VERTEX
5
21
8
Layer1
10
24.0750
20
43.1000
30
0.0
0
VERTEX
5
22
8
Layer1
10
38.0750
20
43.1000
30
0.0
0
VERTEX
5
23
8
Layer1
10
38.0750
20
57.1000
30
0.0
0
SEQEND
5
24
8
Layer1
0
POLYLINE
5
25
8
Layer1
66
1
10
0.0
20
0.0
30
0.0
70
1
0
VERTEX
5
26
8
Layer1
10
57.1250
20
57.1000
30
0.0
0
VERTEX
5
27
8
Layer1
10
43.1250
20
57.1000
30
0.0
0
VERTEX
5
28
8
Layer1
10
43.1250
20
43.1000
30
0.0
0
VERTEX
5
29
8
Layer1
10
57.1250
20
43.1000
30
0.0
0
VERTEX
5
2a
8
Layer1
10
57.1250
20
57.1000
30
0.0
0
SEQEND
5
2b
8
Layer1
0
POLYLINE
5
2c
8
Layer1
66
1
10
0.0
20
0.0
30
0.0
70
1
0
VERTEX
5
2d
8
Layer1
10
19.0250
20
38.0500
30
0.0
0
VERTEX
5
2e
8
Layer1
10
5.0250
20
38.0500
30
0.0
0
VERTEX
5
2f
8
Layer1
10
5.0250
20
24.0500
30
0.0
0
VERTEX
5
30
8
Layer1
10
19.0250
20
24.0500
30
0.0
0
VERTEX
5
31
8
Layer1
10
19.0250
20
38.0500
30
0.0
0
SEQEND
5
32
8
Layer1
0
POLYLINE
5
33
8
Layer1
66
1
10
0.0
20
0.0
30
0.0
70
1
0
VERTEX
5
34
8
Layer1
10
38.0750
20
38.0500
30
0.0
0
VERTEX
5
35
8
Layer1
10
24.0750
20
38.0500
30
0.0
0
VERTEX
5
36
8
Layer1
10
24.0750
20
24.0500
30
0.0
0
VERTEX
5
37
8
Layer1
10
38.0750
20
24.0500
30
0.0
0
VERTEX
5
38
8
Layer1
10
38.0750
20
38.0500
30
0.0
0
SEQEND
5
39
8
Layer1
0
POLYLINE
5
3a
8
Layer1
66
1
10
0.0
20
0.0
30
0.0
70
1
0
VERTEX
5
3b
8
Layer1
10
57.1250
20
38.0500
30
0.0
0
VERTEX
5
3c
8
Layer1
10
43.1250
20
38.0500
30
0.0
0
VERTEX
5
3d
8
Layer1
10
43.1250
20
24.0500
30
0.0
0
VERTEX
5
3e
8
Layer1
10
57.1250
20
24.0500
30
0.0
0
VERTEX
5
3f
8
Layer1
10
57.1250
20
38.0500
30
0.0
0
SEQEND
5
40
8
Layer1
0
POLYLINE
5
41
8
Layer1
66
1
10
0.0
20
0.0
30
0.0
70
1
0
VERTEX
5
42
8
Layer1
10
19.0250
20
19.0000
30
0.0
0
VERTEX
5
43
8
Layer1
10
5.0250
20
19.0000
30
0.0
0
VERTEX
5
44
8
Layer1
10
5.0250
20
5.0000
30
0.0
0
VERTEX
5
45
8
Layer1
10
19.0250
20
5.0000
30
0.0
0
VERTEX
5
46
8
Layer1
10
19.0250
20
19.0000
30
0.0
0
SEQEND
5
47
8
Layer1
0
POLYLINE
5
48
8
Layer1
66
1
10
0.0
20
0.0
30
0.0
70
1
0
VERTEX
5
49
8
Layer1
10
38.0750
20
19.0000
30
0.0
0
VERTEX
5
4a
8
Layer1
10
24.0750
20
19.0000
30
0.0
0
VERTEX
5
4b
8
Layer1
10
24.0750
20
5.0000
30
0.0
0
VERTEX
5
4c
8
Layer1
10
38.0750
20
5.0000
30
0.0
0
VERTEX
5
4d
8
Layer1
10
38.0750
20
19.0000
30
0.0
0
SEQEND
5
4e
8
Layer1
0
POLYLINE
5
4f
8
Layer1
66
1
10
0.0
20
0.0
30
0.0
70
1
0
VERTEX
5
50
8
Layer1
10
57.1250
20
19.0000
30
0.0
0
VERTEX
5
51
8
Layer1
10
43.1250
20
19.0000
30
0.0
0
VERTEX
5
52
8
Layer1
10
43.1250
20
5.0000
30
0.0
0
VERTEX
5
53
8
Layer1
10
57.1250
20
5.0000
30
0.0
0
VERTEX
5
54
8
Layer1
10
57.1250
20
19.0000
30
0.0
0
SEQEND
5
55
8
Layer1
0
ENDSEC
0
EOF
