  0
SECTION
  2
HEADER
  9
$ANGBASE
  50
0.0
  9
$ANGDIR
  70
1
  9
$MEASUREMENT
  70
1
  0
ENDSEC
  0
SECTION
  2
TABLES
  0
TABLE
  2
LTYPE
  70
4
  0
LTYPE
  5
40F
  2
CONTINUOUS
  70
0
  3
Solid line
  72
65
  73
0
  40
0.0
  0
LTYPE
  5
410
  2
DASHDOT
 70
0
  3
Dash Dot ____ _ ____ _
 72
65
 73
4
 40
2.0
 49
1.25
 49
-0.25
 49
0.25
 49
-0.25
  0
LTYPE
  5
411
  2
DASHED
 70
0
  3
Dashed __ __ __ __ __
 72
65
 73
2
 40
0.75
 49
0.5
 49
-0.25
  0
LTYPE
  5
43B
  2
DOTTED
 70
0
  3
Dotted .  .  .  .
 72
65
 73
2
 40
0.2
 49
0.0
 49
-0.2
  0
ENDTAB
  0
TABLE
  2
STYLE
  70
4
  0
STYLE
  2
KICAD
  70
0
  40
0
  41
1
  42
1
  50
0
  71
0
  3
isocp.shx
  0
STYLE
  2
KICADB
  70
0
  40
0
  41
1
  42
1
  50
0
  71
0
  3
isocp.shx
  0
STYLE
  2
KICADI
  70
0
  40
0
  41
1
  42
1
  50
15
  71
0
  3
isocp.shx
  0
STYLE
  2
KICADBI
  70
0
  40
0
  41
1
  42
1
  50
15
  71
0
  3
isocp.shx
  0
ENDTAB
  0
TABLE
  2
LAYER
  70
1
  0
LAYER
  2
BLACK
  70
0
  62
7
  6
CONTINUOUS
  0
ENDTAB
  0
ENDSEC
  0
SECTION
  2
ENTITIES
0
LINE
8
BLACK
6
CONTINUOUS
10
147.338
20
-73.1474
11
147.338
21
-73.8617
0
LINE
8
BLACK
6
CONTINUOUS
10
147.338
20
-73.8617
11
147.386
21
-74.0045
0
LINE
8
BLACK
6
CONTINUOUS
10
147.386
20
-74.0045
11
147.481
21
-74.0998
0
LINE
8
BLACK
6
CONTINUOUS
10
147.481
20
-74.0998
11
147.624
21
-74.1474
0
LINE
8
BLACK
6
CONTINUOUS
10
147.624
20
-74.1474
11
147.719
21
-74.1474
0
LINE
8
BLACK
6
CONTINUOUS
10
146.338
20
-74.1474
11
146.91
21
-74.1474
0
LINE
8
BLACK
6
CONTINUOUS
10
146.624
20
-74.1474
11
146.624
21
-73.1474
0
LINE
8
BLACK
6
CONTINUOUS
10
146.624
20
-73.1474
11
146.719
21
-73.2902
0
LINE
8
BLACK
6
CONTINUOUS
10
146.719
20
-73.2902
11
146.815
21
-73.3855
0
LINE
8
BLACK
6
CONTINUOUS
10
146.815
20
-73.3855
11
146.91
21
-73.4331
0
LINE
8
BLACK
6
CONTINUOUS
10
153.99
20
-51.485
11
153.99
21
-50.725
0
LINE
8
BLACK
6
CONTINUOUS
10
145.33
20
-54.915
11
147.99
21
-54.915
0
LINE
8
BLACK
6
CONTINUOUS
10
147.99
20
-71.145
11
153.99
21
-71.145
0
LINE
8
BLACK
6
CONTINUOUS
10
144.933
20
-71.805
11
145.33
21
-71.805
0
LINE
8
BLACK
6
CONTINUOUS
10
144.933
20
-55.805
11
145.33
21
-55.805
0
LINE
8
BLACK
6
CONTINUOUS
10
144.933
20
-56.565
11
145.33
21
-56.565
0
LINE
8
BLACK
6
CONTINUOUS
10
142.393
20
-48.945
11
142.847
21
-48.945
0
LINE
8
BLACK
6
CONTINUOUS
10
153.99
20
-48.185
11
147.99
21
-48.185
0
LINE
8
BLACK
6
CONTINUOUS
10
145.33
20
-52.375
11
147.99
21
-52.375
0
LINE
8
BLACK
6
CONTINUOUS
10
153.99
20
-59.105
11
153.99
21
-58.345
0
LINE
8
BLACK
6
CONTINUOUS
10
145.33
20
-65.075
11
147.99
21
-65.075
0
LINE
8
BLACK
6
CONTINUOUS
10
142.393
20
-48.185
11
142.847
21
-48.185
0
LINE
8
BLACK
6
CONTINUOUS
10
153.99
20
-50.725
11
147.99
21
-50.725
0
LINE
8
BLACK
6
CONTINUOUS
10
147.99
20
-47.235
11
147.99
21
-72.755
0
LINE
8
BLACK
6
CONTINUOUS
10
142.393
20
-64.185
11
142.847
21
-64.185
0
LINE
8
BLACK
6
CONTINUOUS
10
145.33
20
-62.535
11
147.99
21
-62.535
0
LINE
8
BLACK
6
CONTINUOUS
10
142.393
20
-51.485
11
142.847
21
-51.485
0
LINE
8
BLACK
6
CONTINUOUS
10
147.99
20
-71.745
11
153.99
21
-71.745
0
LINE
8
BLACK
6
CONTINUOUS
10
153.99
20
-54.025
11
153.99
21
-53.265
0
LINE
8
BLACK
6
CONTINUOUS
10
144.933
20
-50.725
11
145.33
21
-50.725
0
LINE
8
BLACK
6
CONTINUOUS
10
144.933
20
-58.345
11
145.33
21
-58.345
0
LINE
8
BLACK
6
CONTINUOUS
10
147.99
20
-54.025
11
153.99
21
-54.025
0
LINE
8
BLACK
6
CONTINUOUS
10
153.99
20
-64.185
11
153.99
21
-63.425
0
LINE
8
BLACK
6
CONTINUOUS
10
153.99
20
-58.345
11
147.99
21
-58.345
0
LINE
8
BLACK
6
CONTINUOUS
10
153.99
20
-65.965
11
147.99
21
-65.965
0
LINE
8
BLACK
6
CONTINUOUS
10
153.99
20
-71.045
11
147.99
21
-71.045
0
LINE
8
BLACK
6
CONTINUOUS
10
144.933
20
-48.185
11
145.33
21
-48.185
0
LINE
8
BLACK
6
CONTINUOUS
10
153.99
20
-71.805
11
153.99
21
-71.045
0
LINE
8
BLACK
6
CONTINUOUS
10
147.99
20
-72.755
11
145.33
21
-72.755
0
LINE
8
BLACK
6
CONTINUOUS
10
142.393
20
-59.105
11
142.847
21
-59.105
0
LINE
8
BLACK
6
CONTINUOUS
10
147.99
20
-48.945
11
153.99
21
-48.945
0
LINE
8
BLACK
6
CONTINUOUS
10
147.99
20
-69.265
11
153.99
21
-69.265
0
LINE
8
BLACK
6
CONTINUOUS
10
145.33
20
-47.235
11
147.99
21
-47.235
0
LINE
8
BLACK
6
CONTINUOUS
10
153.99
20
-68.505
11
147.99
21
-68.505
0
LINE
8
BLACK
6
CONTINUOUS
10
147.99
20
-71.805
11
153.99
21
-71.805
0
LINE
8
BLACK
6
CONTINUOUS
10
147.99
20
-64.185
11
153.99
21
-64.185
0
LINE
8
BLACK
6
CONTINUOUS
10
140.08
20
-71.425
11
140.08
21
-72.695
0
LINE
8
BLACK
6
CONTINUOUS
10
144.933
20
-66.725
11
145.33
21
-66.725
0
LINE
8
BLACK
6
CONTINUOUS
10
144.933
20
-60.885
11
145.33
21
-60.885
0
LINE
8
BLACK
6
CONTINUOUS
10
140.08
20
-72.695
11
141.35
21
-72.695
0
LINE
8
BLACK
6
CONTINUOUS
10
142.393
20
-66.725
11
142.847
21
-66.725
0
LINE
8
BLACK
6
CONTINUOUS
10
153.99
20
-66.725
11
153.99
21
-65.965
0
LINE
8
BLACK
6
CONTINUOUS
10
144.933
20
-61.645
11
145.33
21
-61.645
0
LINE
8
BLACK
6
CONTINUOUS
10
153.99
20
-60.885
11
147.99
21
-60.885
0
LINE
8
BLACK
6
CONTINUOUS
10
153.99
20
-69.265
11
153.99
21
-68.505
0
LINE
8
BLACK
6
CONTINUOUS
10
153.99
20
-61.645
11
153.99
21
-60.885
0
LINE
8
BLACK
6
CONTINUOUS
10
142.393
20
-56.565
11
142.847
21
-56.565
0
LINE
8
BLACK
6
CONTINUOUS
10
142.393
20
-60.885
11
142.847
21
-60.885
0
LINE
8
BLACK
6
CONTINUOUS
10
142.393
20
-50.725
11
142.847
21
-50.725
0
LINE
8
BLACK
6
CONTINUOUS
10
144.933
20
-63.425
11
145.33
21
-63.425
0
LINE
8
BLACK
6
CONTINUOUS
10
144.933
20
-54.025
11
145.33
21
-54.025
0
LINE
8
BLACK
6
CONTINUOUS
10
144.933
20
-69.265
11
145.33
21
-69.265
0
LINE
8
BLACK
6
CONTINUOUS
10
147.99
20
-71.385
11
153.99
21
-71.385
0
LINE
8
BLACK
6
CONTINUOUS
10
145.33
20
-67.615
11
147.99
21
-67.615
0
LINE
8
BLACK
6
CONTINUOUS
10
147.99
20
-61.645
11
153.99
21
-61.645
0
LINE
8
BLACK
6
CONTINUOUS
10
147.99
20
-66.725
11
153.99
21
-66.725
0
LINE
8
BLACK
6
CONTINUOUS
10
142.393
20
-53.265
11
142.847
21
-53.265
0
LINE
8
BLACK
6
CONTINUOUS
10
145.33
20
-57.455
11
147.99
21
-57.455
0
LINE
8
BLACK
6
CONTINUOUS
10
145.33
20
-72.755
11
145.33
21
-47.235
0
LINE
8
BLACK
6
CONTINUOUS
10
142.393
20
-55.805
11
142.847
21
-55.805
0
LINE
8
BLACK
6
CONTINUOUS
10
144.933
20
-59.105
11
145.33
21
-59.105
0
LINE
8
BLACK
6
CONTINUOUS
10
144.933
20
-51.485
11
145.33
21
-51.485
0
LINE
8
BLACK
6
CONTINUOUS
10
147.99
20
-71.505
11
153.99
21
-71.505
0
LINE
8
BLACK
6
CONTINUOUS
10
144.933
20
-68.505
11
145.33
21
-68.505
0
LINE
8
BLACK
6
CONTINUOUS
10
142.46
20
-71.805
11
142.847
21
-71.805
0
LINE
8
BLACK
6
CONTINUOUS
10
153.99
20
-63.425
11
147.99
21
-63.425
0
LINE
8
BLACK
6
CONTINUOUS
10
147.99
20
-51.485
11
153.99
21
-51.485
0
LINE
8
BLACK
6
CONTINUOUS
10
142.393
20
-68.505
11
142.847
21
-68.505
0
LINE
8
BLACK
6
CONTINUOUS
10
153.99
20
-56.565
11
153.99
21
-55.805
0
LINE
8
BLACK
6
CONTINUOUS
10
144.933
20
-65.965
11
145.33
21
-65.965
0
LINE
8
BLACK
6
CONTINUOUS
10
142.393
20
-65.965
11
142.847
21
-65.965
0
LINE
8
BLACK
6
CONTINUOUS
10
153.99
20
-48.945
11
153.99
21
-48.185
0
LINE
8
BLACK
6
CONTINUOUS
10
147.99
20
-59.105
11
153.99
21
-59.105
0
LINE
8
BLACK
6
CONTINUOUS
10
142.393
20
-63.425
11
142.847
21
-63.425
0
LINE
8
BLACK
6
CONTINUOUS
10
144.933
20
-48.945
11
145.33
21
-48.945
0
LINE
8
BLACK
6
CONTINUOUS
10
142.393
20
-69.265
11
142.847
21
-69.265
0
LINE
8
BLACK
6
CONTINUOUS
10
144.933
20
-71.045
11
145.33
21
-71.045
0
LINE
8
BLACK
6
CONTINUOUS
10
147.99
20
-56.565
11
153.99
21
-56.565
0
LINE
8
BLACK
6
CONTINUOUS
10
142.393
20
-54.025
11
142.847
21
-54.025
0
LINE
8
BLACK
6
CONTINUOUS
10
147.99
20
-71.265
11
153.99
21
-71.265
0
LINE
8
BLACK
6
CONTINUOUS
10
147.99
20
-71.625
11
153.99
21
-71.625
0
LINE
8
BLACK
6
CONTINUOUS
10
142.393
20
-58.345
11
142.847
21
-58.345
0
LINE
8
BLACK
6
CONTINUOUS
10
142.393
20
-61.645
11
142.847
21
-61.645
0
LINE
8
BLACK
6
CONTINUOUS
10
153.99
20
-55.805
11
147.99
21
-55.805
0
LINE
8
BLACK
6
CONTINUOUS
10
142.46
20
-71.045
11
142.847
21
-71.045
0
LINE
8
BLACK
6
CONTINUOUS
10
145.33
20
-70.155
11
147.99
21
-70.155
0
LINE
8
BLACK
6
CONTINUOUS
10
144.933
20
-64.185
11
145.33
21
-64.185
0
LINE
8
BLACK
6
CONTINUOUS
10
153.99
20
-53.265
11
147.99
21
-53.265
0
LINE
8
BLACK
6
CONTINUOUS
10
145.33
20
-49.835
11
147.99
21
-49.835
0
LINE
8
BLACK
6
CONTINUOUS
10
145.33
20
-59.995
11
147.99
21
-59.995
0
LINE
8
BLACK
6
CONTINUOUS
10
144.933
20
-53.265
11
145.33
21
-53.265
  0
ENDSEC
  0
EOF
