  0
SECTION
  2
HEADER
  9
$ANGBASE
  50
0.0
  9
$ANGDIR
  70
1
  9
$MEASUREMENT
  70
1
  0
ENDSEC
  0
SECTION
  2
TABLES
  0
TABLE
  2
LTYPE
  70
4
  0
LTYPE
  5
40F
  2
CONTINUOUS
  70
0
  3
Solid line
  72
65
  73
0
  40
0.0
  0
LTYPE
  5
410
  2
DASHDOT
 70
0
  3
Dash Dot ____ _ ____ _
 72
65
 73
4
 40
2.0
 49
1.25
 49
-0.25
 49
0.25
 49
-0.25
  0
LTYPE
  5
411
  2
DASHED
 70
0
  3
Dashed __ __ __ __ __
 72
65
 73
2
 40
0.75
 49
0.5
 49
-0.25
  0
LTYPE
  5
43B
  2
DOTTED
 70
0
  3
Dotted .  .  .  .
 72
65
 73
2
 40
0.2
 49
0.0
 49
-0.2
  0
ENDTAB
  0
TABLE
  2
STYLE
  70
4
  0
STYLE
  2
KICAD
  70
0
  40
0
  41
1
  42
1
  50
0
  71
0
  3
isocp.shx
  0
STYLE
  2
KICADB
  70
0
  40
0
  41
1
  42
1
  50
0
  71
0
  3
isocp.shx
  0
STYLE
  2
KICADI
  70
0
  40
0
  41
1
  42
1
  50
15
  71
0
  3
isocp.shx
  0
STYLE
  2
KICADBI
  70
0
  40
0
  41
1
  42
1
  50
15
  71
0
  3
isocp.shx
  0
ENDTAB
  0
TABLE
  2
LAYER
  70
1
  0
LAYER
  2
BLACK
  70
0
  62
7
  6
CONTINUOUS
  0
ENDTAB
  0
ENDSEC
  0
SECTION
  2
ENTITIES
0
LINE
8
BLACK
6
CONTINUOUS
10
123.762
20
-60.5476
11
123.762
21
-59.7381
0
LINE
8
BLACK
6
CONTINUOUS
10
123.762
20
-59.7381
11
123.714
21
-59.6429
0
LINE
8
BLACK
6
CONTINUOUS
10
123.714
20
-59.6429
11
123.667
21
-59.5952
0
LINE
8
BLACK
6
CONTINUOUS
10
123.667
20
-59.5952
11
123.571
21
-59.5476
0
LINE
8
BLACK
6
CONTINUOUS
10
123.571
20
-59.5476
11
123.381
21
-59.5476
0
LINE
8
BLACK
6
CONTINUOUS
10
123.381
20
-59.5476
11
123.286
21
-59.5952
0
LINE
8
BLACK
6
CONTINUOUS
10
123.286
20
-59.5952
11
123.238
21
-59.6429
0
LINE
8
BLACK
6
CONTINUOUS
10
123.238
20
-59.6429
11
123.19
21
-59.7381
0
LINE
8
BLACK
6
CONTINUOUS
10
123.19
20
-59.7381
11
123.19
21
-60.5476
0
LINE
8
BLACK
6
CONTINUOUS
10
122.19
20
-59.5476
11
122.762
21
-59.5476
0
LINE
8
BLACK
6
CONTINUOUS
10
122.476
20
-59.5476
11
122.476
21
-60.5476
0
LINE
8
BLACK
6
CONTINUOUS
10
122.476
20
-60.5476
11
122.571
21
-60.4048
0
LINE
8
BLACK
6
CONTINUOUS
10
122.571
20
-60.4048
11
122.667
21
-60.3095
0
LINE
8
BLACK
6
CONTINUOUS
10
122.667
20
-60.3095
11
122.762
21
-60.2619
0
LINE
8
BLACK
6
CONTINUOUS
10
126.262
20
-85.7476
11
126.262
21
-86.7476
0
LINE
8
BLACK
6
CONTINUOUS
10
126.262
20
-86.7476
11
125.929
21
-86.0333
0
LINE
8
BLACK
6
CONTINUOUS
10
125.929
20
-86.0333
11
125.595
21
-86.7476
0
LINE
8
BLACK
6
CONTINUOUS
10
125.595
20
-86.7476
11
125.595
21
-85.7476
0
LINE
8
BLACK
6
CONTINUOUS
10
125.119
20
-85.7476
11
125.119
21
-86.4143
0
LINE
8
BLACK
6
CONTINUOUS
10
125.119
20
-86.7476
11
125.167
21
-86.7
0
LINE
8
BLACK
6
CONTINUOUS
10
125.167
20
-86.7
11
125.119
21
-86.6524
0
LINE
8
BLACK
6
CONTINUOUS
10
125.119
20
-86.6524
11
125.071
21
-86.7
0
LINE
8
BLACK
6
CONTINUOUS
10
125.071
20
-86.7
11
125.119
21
-86.7476
0
LINE
8
BLACK
6
CONTINUOUS
10
125.119
20
-86.7476
11
125.119
21
-86.6524
0
LINE
8
BLACK
6
CONTINUOUS
10
124.214
20
-85.7952
11
124.31
21
-85.7476
0
LINE
8
BLACK
6
CONTINUOUS
10
124.31
20
-85.7476
11
124.5
21
-85.7476
0
LINE
8
BLACK
6
CONTINUOUS
10
124.5
20
-85.7476
11
124.595
21
-85.7952
0
LINE
8
BLACK
6
CONTINUOUS
10
124.595
20
-85.7952
11
124.643
21
-85.8429
0
LINE
8
BLACK
6
CONTINUOUS
10
124.643
20
-85.8429
11
124.69
21
-85.9381
0
LINE
8
BLACK
6
CONTINUOUS
10
124.69
20
-85.9381
11
124.69
21
-86.2238
0
LINE
8
BLACK
6
CONTINUOUS
10
124.69
20
-86.2238
11
124.643
21
-86.319
0
LINE
8
BLACK
6
CONTINUOUS
10
124.643
20
-86.319
11
124.595
21
-86.3667
0
LINE
8
BLACK
6
CONTINUOUS
10
124.595
20
-86.3667
11
124.5
21
-86.4143
0
LINE
8
BLACK
6
CONTINUOUS
10
124.5
20
-86.4143
11
124.31
21
-86.4143
0
LINE
8
BLACK
6
CONTINUOUS
10
124.31
20
-86.4143
11
124.214
21
-86.3667
0
LINE
8
BLACK
6
CONTINUOUS
10
123.786
20
-85.7476
11
123.786
21
-86.4143
0
LINE
8
BLACK
6
CONTINUOUS
10
123.786
20
-86.2238
11
123.738
21
-86.319
0
LINE
8
BLACK
6
CONTINUOUS
10
123.738
20
-86.319
11
123.69
21
-86.3667
0
LINE
8
BLACK
6
CONTINUOUS
10
123.69
20
-86.3667
11
123.595
21
-86.4143
0
LINE
8
BLACK
6
CONTINUOUS
10
123.595
20
-86.4143
11
123.5
21
-86.4143
0
LINE
8
BLACK
6
CONTINUOUS
10
123.024
20
-85.7476
11
123.119
21
-85.7952
0
LINE
8
BLACK
6
CONTINUOUS
10
123.119
20
-85.7952
11
123.167
21
-85.8429
0
LINE
8
BLACK
6
CONTINUOUS
10
123.167
20
-85.8429
11
123.214
21
-85.9381
0
LINE
8
BLACK
6
CONTINUOUS
10
123.214
20
-85.9381
11
123.214
21
-86.2238
0
LINE
8
BLACK
6
CONTINUOUS
10
123.214
20
-86.2238
11
123.167
21
-86.319
0
LINE
8
BLACK
6
CONTINUOUS
10
123.167
20
-86.319
11
123.119
21
-86.3667
0
LINE
8
BLACK
6
CONTINUOUS
10
123.119
20
-86.3667
11
123.024
21
-86.4143
0
LINE
8
BLACK
6
CONTINUOUS
10
123.024
20
-86.4143
11
122.881
21
-86.4143
0
LINE
8
BLACK
6
CONTINUOUS
10
122.881
20
-86.4143
11
122.786
21
-86.3667
0
LINE
8
BLACK
6
CONTINUOUS
10
122.786
20
-86.3667
11
122.738
21
-86.319
0
LINE
8
BLACK
6
CONTINUOUS
10
122.738
20
-86.319
11
122.69
21
-86.2238
0
LINE
8
BLACK
6
CONTINUOUS
10
122.69
20
-86.2238
11
122.69
21
-85.9381
0
LINE
8
BLACK
6
CONTINUOUS
10
122.69
20
-85.9381
11
122.738
21
-85.8429
0
LINE
8
BLACK
6
CONTINUOUS
10
122.738
20
-85.8429
11
122.786
21
-85.7952
0
LINE
8
BLACK
6
CONTINUOUS
10
122.786
20
-85.7952
11
122.881
21
-85.7476
0
LINE
8
BLACK
6
CONTINUOUS
10
122.881
20
-85.7476
11
123.024
21
-85.7476
0
LINE
8
BLACK
6
CONTINUOUS
10
122.262
20
-86.7476
11
122.262
21
-85.9381
0
LINE
8
BLACK
6
CONTINUOUS
10
122.262
20
-85.9381
11
122.214
21
-85.8429
0
LINE
8
BLACK
6
CONTINUOUS
10
122.214
20
-85.8429
11
122.167
21
-85.7952
0
LINE
8
BLACK
6
CONTINUOUS
10
122.167
20
-85.7952
11
122.071
21
-85.7476
0
LINE
8
BLACK
6
CONTINUOUS
10
122.071
20
-85.7476
11
121.881
21
-85.7476
0
LINE
8
BLACK
6
CONTINUOUS
10
121.881
20
-85.7476
11
121.786
21
-85.7952
0
LINE
8
BLACK
6
CONTINUOUS
10
121.786
20
-85.7952
11
121.738
21
-85.8429
0
LINE
8
BLACK
6
CONTINUOUS
10
121.738
20
-85.8429
11
121.69
21
-85.9381
0
LINE
8
BLACK
6
CONTINUOUS
10
121.69
20
-85.9381
11
121.69
21
-86.7476
0
LINE
8
BLACK
6
CONTINUOUS
10
121.262
20
-85.7952
11
121.119
21
-85.7476
0
LINE
8
BLACK
6
CONTINUOUS
10
121.119
20
-85.7476
11
120.881
21
-85.7476
0
LINE
8
BLACK
6
CONTINUOUS
10
120.881
20
-85.7476
11
120.786
21
-85.7952
0
LINE
8
BLACK
6
CONTINUOUS
10
120.786
20
-85.7952
11
120.738
21
-85.8429
0
LINE
8
BLACK
6
CONTINUOUS
10
120.738
20
-85.8429
11
120.69
21
-85.9381
0
LINE
8
BLACK
6
CONTINUOUS
10
120.69
20
-85.9381
11
120.69
21
-86.0333
0
LINE
8
BLACK
6
CONTINUOUS
10
120.69
20
-86.0333
11
120.738
21
-86.1286
0
LINE
8
BLACK
6
CONTINUOUS
10
120.738
20
-86.1286
11
120.786
21
-86.1762
0
LINE
8
BLACK
6
CONTINUOUS
10
120.786
20
-86.1762
11
120.881
21
-86.2238
0
LINE
8
BLACK
6
CONTINUOUS
10
120.881
20
-86.2238
11
121.071
21
-86.2714
0
LINE
8
BLACK
6
CONTINUOUS
10
121.071
20
-86.2714
11
121.167
21
-86.319
0
LINE
8
BLACK
6
CONTINUOUS
10
121.167
20
-86.319
11
121.214
21
-86.3667
0
LINE
8
BLACK
6
CONTINUOUS
10
121.214
20
-86.3667
11
121.262
21
-86.4619
0
LINE
8
BLACK
6
CONTINUOUS
10
121.262
20
-86.4619
11
121.262
21
-86.5571
0
LINE
8
BLACK
6
CONTINUOUS
10
121.262
20
-86.5571
11
121.214
21
-86.6524
0
LINE
8
BLACK
6
CONTINUOUS
10
121.214
20
-86.6524
11
121.167
21
-86.7
0
LINE
8
BLACK
6
CONTINUOUS
10
121.167
20
-86.7
11
121.071
21
-86.7476
0
LINE
8
BLACK
6
CONTINUOUS
10
121.071
20
-86.7476
11
120.833
21
-86.7476
0
LINE
8
BLACK
6
CONTINUOUS
10
120.833
20
-86.7476
11
120.69
21
-86.7
0
LINE
8
BLACK
6
CONTINUOUS
10
119.929
20
-86.2714
11
119.786
21
-86.2238
0
LINE
8
BLACK
6
CONTINUOUS
10
119.786
20
-86.2238
11
119.738
21
-86.1762
0
LINE
8
BLACK
6
CONTINUOUS
10
119.738
20
-86.1762
11
119.69
21
-86.081
0
LINE
8
BLACK
6
CONTINUOUS
10
119.69
20
-86.081
11
119.69
21
-85.9381
0
LINE
8
BLACK
6
CONTINUOUS
10
119.69
20
-85.9381
11
119.738
21
-85.8429
0
LINE
8
BLACK
6
CONTINUOUS
10
119.738
20
-85.8429
11
119.786
21
-85.7952
0
LINE
8
BLACK
6
CONTINUOUS
10
119.786
20
-85.7952
11
119.881
21
-85.7476
0
LINE
8
BLACK
6
CONTINUOUS
10
119.881
20
-85.7476
11
120.262
21
-85.7476
0
LINE
8
BLACK
6
CONTINUOUS
10
120.262
20
-85.7476
11
120.262
21
-86.7476
0
LINE
8
BLACK
6
CONTINUOUS
10
120.262
20
-86.7476
11
119.929
21
-86.7476
0
LINE
8
BLACK
6
CONTINUOUS
10
119.929
20
-86.7476
11
119.833
21
-86.7
0
LINE
8
BLACK
6
CONTINUOUS
10
119.833
20
-86.7
11
119.786
21
-86.6524
0
LINE
8
BLACK
6
CONTINUOUS
10
119.786
20
-86.6524
11
119.738
21
-86.5571
0
LINE
8
BLACK
6
CONTINUOUS
10
119.738
20
-86.5571
11
119.738
21
-86.4619
0
LINE
8
BLACK
6
CONTINUOUS
10
119.738
20
-86.4619
11
119.786
21
-86.3667
0
LINE
8
BLACK
6
CONTINUOUS
10
119.786
20
-86.3667
11
119.833
21
-86.319
0
LINE
8
BLACK
6
CONTINUOUS
10
119.833
20
-86.319
11
119.929
21
-86.2714
0
LINE
8
BLACK
6
CONTINUOUS
10
119.929
20
-86.2714
11
120.262
21
-86.2714
0
LINE
8
BLACK
6
CONTINUOUS
10
133.5
20
-85.5
11
112.5
21
-85.5
0
LINE
8
BLACK
6
CONTINUOUS
10
112.5
20
-85.5
11
112.5
21
-34.5
0
LINE
8
BLACK
6
CONTINUOUS
10
112.5
20
-34.5
11
133.5
21
-34.5
0
LINE
8
BLACK
6
CONTINUOUS
10
133.5
20
-34.5
11
133.5
21
-85.5
0
LINE
8
BLACK
6
CONTINUOUS
10
132.9
20
-34.5
11
130.9
21
-34.5
0
LINE
8
BLACK
6
CONTINUOUS
10
130.9
20
-34.5
11
130.9
21
-85.5
0
LINE
8
BLACK
6
CONTINUOUS
10
130.9
20
-85.5
11
132.9
21
-85.5
0
LINE
8
BLACK
6
CONTINUOUS
10
132.9
20
-85.5
11
132.9
21
-34.5
0
LINE
8
BLACK
6
CONTINUOUS
10
127
20
-86.9
11
119
21
-86.9
0
LINE
8
BLACK
6
CONTINUOUS
10
119
20
-86.9
11
119
21
-85.5
0
LINE
8
BLACK
6
CONTINUOUS
10
119
20
-85.5
11
127
21
-85.5
0
LINE
8
BLACK
6
CONTINUOUS
10
127
20
-85.5
11
127
21
-86.9
0
LINE
8
BLACK
6
CONTINUOUS
10
115.1
20
-34.5
11
113.1
21
-34.5
0
LINE
8
BLACK
6
CONTINUOUS
10
113.1
20
-34.5
11
113.1
21
-85.5
0
LINE
8
BLACK
6
CONTINUOUS
10
113.1
20
-85.5
11
115.1
21
-85.5
0
LINE
8
BLACK
6
CONTINUOUS
10
115.1
20
-85.5
11
115.1
21
-34.5
  0
ENDSEC
  0
EOF
