  0
SECTION
  2
HEADER
  9
$ANGBASE
  50
0.0
  9
$ANGDIR
  70
1
  9
$MEASUREMENT
  70
1
  0
ENDSEC
  0
SECTION
  2
TABLES
  0
TABLE
  2
LTYPE
  70
4
  0
LTYPE
  5
40F
  2
CONTINUOUS
  70
0
  3
Solid line
  72
65
  73
0
  40
0.0
  0
LTYPE
  5
410
  2
DASHDOT
 70
0
  3
Dash Dot ____ _ ____ _
 72
65
 73
4
 40
2.0
 49
1.25
 49
-0.25
 49
0.25
 49
-0.25
  0
LTYPE
  5
411
  2
DASHED
 70
0
  3
Dashed __ __ __ __ __
 72
65
 73
2
 40
0.75
 49
0.5
 49
-0.25
  0
LTYPE
  5
43B
  2
DOTTED
 70
0
  3
Dotted .  .  .  .
 72
65
 73
2
 40
0.2
 49
0.0
 49
-0.2
  0
ENDTAB
  0
TABLE
  2
STYLE
  70
4
  0
STYLE
  2
KICAD
  70
0
  40
0
  41
1
  42
1
  50
0
  71
0
  3
isocp.shx
  0
STYLE
  2
KICADB
  70
0
  40
0
  41
1
  42
1
  50
0
  71
0
  3
isocp.shx
  0
STYLE
  2
KICADI
  70
0
  40
0
  41
1
  42
1
  50
15
  71
0
  3
isocp.shx
  0
STYLE
  2
KICADBI
  70
0
  40
0
  41
1
  42
1
  50
15
  71
0
  3
isocp.shx
  0
ENDTAB
  0
TABLE
  2
LAYER
  70
1
  0
LAYER
  2
BLACK
  70
0
  62
7
  6
CONTINUOUS
  0
ENDTAB
  0
ENDSEC
  0
SECTION
  2
ENTITIES
0
LINE
8
BLACK
6
CONTINUOUS
10
114.286
20
-83.3803
11
114.448
21
-83.4379
0
LINE
8
BLACK
6
CONTINUOUS
10
114.448
20
-83.4379
11
114.592
21
-83.5299
0
LINE
8
BLACK
6
CONTINUOUS
10
114.592
20
-83.5299
11
114.713
21
-83.6517
0
LINE
8
BLACK
6
CONTINUOUS
10
114.713
20
-83.6517
11
114.804
21
-83.7973
0
LINE
8
BLACK
6
CONTINUOUS
10
114.804
20
-83.7973
11
114.861
21
-83.9594
0
LINE
8
BLACK
6
CONTINUOUS
10
114.861
20
-83.9594
11
114.88
21
-84.13
0
LINE
8
BLACK
6
CONTINUOUS
10
114.88
20
-84.13
11
114.88
21
-84.1515
0
LINE
8
BLACK
6
CONTINUOUS
10
114.88
20
-84.1515
11
114.856
21
-84.3215
0
LINE
8
BLACK
6
CONTINUOUS
10
114.856
20
-84.3215
11
114.795
21
-84.482
0
LINE
8
BLACK
6
CONTINUOUS
10
114.795
20
-84.482
11
114.7
21
-84.6249
0
LINE
8
BLACK
6
CONTINUOUS
10
114.7
20
-84.6249
11
114.576
21
-84.7433
0
LINE
8
BLACK
6
CONTINUOUS
10
114.576
20
-84.7433
11
114.428
21
-84.8312
0
LINE
8
BLACK
6
CONTINUOUS
10
114.428
20
-84.8312
11
114.265
21
-84.8843
0
LINE
8
BLACK
6
CONTINUOUS
10
114.265
20
-84.8843
11
114.094
21
-84.8998
0
LINE
8
BLACK
6
CONTINUOUS
10
114.094
20
-84.8998
11
113.924
21
-84.8771
0
LINE
8
BLACK
6
CONTINUOUS
10
113.924
20
-84.8771
11
113.763
21
-84.8173
0
LINE
8
BLACK
6
CONTINUOUS
10
113.763
20
-84.8173
11
113.619
21
-84.7233
0
LINE
8
BLACK
6
CONTINUOUS
10
113.619
20
-84.7233
11
113.5
21
-84.5998
0
LINE
8
BLACK
6
CONTINUOUS
10
113.5
20
-84.5998
11
113.411
21
-84.453
0
LINE
8
BLACK
6
CONTINUOUS
10
113.411
20
-84.453
11
113.357
21
-84.2901
0
LINE
8
BLACK
6
CONTINUOUS
10
113.357
20
-84.2901
11
113.34
21
-84.1192
0
LINE
8
BLACK
6
CONTINUOUS
10
113.34
20
-84.1192
11
113.362
21
-83.9489
0
LINE
8
BLACK
6
CONTINUOUS
10
113.362
20
-83.9489
11
113.42
21
-83.7876
0
LINE
8
BLACK
6
CONTINUOUS
10
113.42
20
-83.7876
11
113.513
21
-83.6433
0
LINE
8
BLACK
6
CONTINUOUS
10
113.513
20
-83.6433
11
113.636
21
-83.5232
0
LINE
8
BLACK
6
CONTINUOUS
10
113.636
20
-83.5232
11
113.782
21
-83.4333
0
LINE
8
BLACK
6
CONTINUOUS
10
113.782
20
-83.4333
11
113.945
21
-83.378
0
LINE
8
BLACK
6
CONTINUOUS
10
113.945
20
-83.378
11
114.115
21
-83.36
0
LINE
8
BLACK
6
CONTINUOUS
10
114.115
20
-83.36
11
114.286
21
-83.3803
0
LINE
8
BLACK
6
CONTINUOUS
10
132.066
20
-83.3803
11
132.228
21
-83.4379
0
LINE
8
BLACK
6
CONTINUOUS
10
132.228
20
-83.4379
11
132.372
21
-83.5299
0
LINE
8
BLACK
6
CONTINUOUS
10
132.372
20
-83.5299
11
132.493
21
-83.6517
0
LINE
8
BLACK
6
CONTINUOUS
10
132.493
20
-83.6517
11
132.584
21
-83.7973
0
LINE
8
BLACK
6
CONTINUOUS
10
132.584
20
-83.7973
11
132.641
21
-83.9594
0
LINE
8
BLACK
6
CONTINUOUS
10
132.641
20
-83.9594
11
132.66
21
-84.13
0
LINE
8
BLACK
6
CONTINUOUS
10
132.66
20
-84.13
11
132.66
21
-84.1515
0
LINE
8
BLACK
6
CONTINUOUS
10
132.66
20
-84.1515
11
132.636
21
-84.3215
0
LINE
8
BLACK
6
CONTINUOUS
10
132.636
20
-84.3215
11
132.575
21
-84.482
0
LINE
8
BLACK
6
CONTINUOUS
10
132.575
20
-84.482
11
132.48
21
-84.6249
0
LINE
8
BLACK
6
CONTINUOUS
10
132.48
20
-84.6249
11
132.356
21
-84.7433
0
LINE
8
BLACK
6
CONTINUOUS
10
132.356
20
-84.7433
11
132.208
21
-84.8312
0
LINE
8
BLACK
6
CONTINUOUS
10
132.208
20
-84.8312
11
132.045
21
-84.8843
0
LINE
8
BLACK
6
CONTINUOUS
10
132.045
20
-84.8843
11
131.874
21
-84.8998
0
LINE
8
BLACK
6
CONTINUOUS
10
131.874
20
-84.8998
11
131.704
21
-84.8771
0
LINE
8
BLACK
6
CONTINUOUS
10
131.704
20
-84.8771
11
131.543
21
-84.8173
0
LINE
8
BLACK
6
CONTINUOUS
10
131.543
20
-84.8173
11
131.399
21
-84.7233
0
LINE
8
BLACK
6
CONTINUOUS
10
131.399
20
-84.7233
11
131.28
21
-84.5998
0
LINE
8
BLACK
6
CONTINUOUS
10
131.28
20
-84.5998
11
131.191
21
-84.453
0
LINE
8
BLACK
6
CONTINUOUS
10
131.191
20
-84.453
11
131.137
21
-84.2901
0
LINE
8
BLACK
6
CONTINUOUS
10
131.137
20
-84.2901
11
131.12
21
-84.1192
0
LINE
8
BLACK
6
CONTINUOUS
10
131.12
20
-84.1192
11
131.142
21
-83.9489
0
LINE
8
BLACK
6
CONTINUOUS
10
131.142
20
-83.9489
11
131.2
21
-83.7876
0
LINE
8
BLACK
6
CONTINUOUS
10
131.2
20
-83.7876
11
131.293
21
-83.6433
0
LINE
8
BLACK
6
CONTINUOUS
10
131.293
20
-83.6433
11
131.416
21
-83.5232
0
LINE
8
BLACK
6
CONTINUOUS
10
131.416
20
-83.5232
11
131.562
21
-83.4333
0
LINE
8
BLACK
6
CONTINUOUS
10
131.562
20
-83.4333
11
131.725
21
-83.378
0
LINE
8
BLACK
6
CONTINUOUS
10
131.725
20
-83.378
11
131.895
21
-83.36
0
LINE
8
BLACK
6
CONTINUOUS
10
131.895
20
-83.36
11
132.066
21
-83.3803
0
LINE
8
BLACK
6
CONTINUOUS
10
114.286
20
-80.8403
11
114.448
21
-80.8979
0
LINE
8
BLACK
6
CONTINUOUS
10
114.448
20
-80.8979
11
114.592
21
-80.9899
0
LINE
8
BLACK
6
CONTINUOUS
10
114.592
20
-80.9899
11
114.713
21
-81.1117
0
LINE
8
BLACK
6
CONTINUOUS
10
114.713
20
-81.1117
11
114.804
21
-81.2573
0
LINE
8
BLACK
6
CONTINUOUS
10
114.804
20
-81.2573
11
114.861
21
-81.4194
0
LINE
8
BLACK
6
CONTINUOUS
10
114.861
20
-81.4194
11
114.88
21
-81.59
0
LINE
8
BLACK
6
CONTINUOUS
10
114.88
20
-81.59
11
114.88
21
-81.6115
0
LINE
8
BLACK
6
CONTINUOUS
10
114.88
20
-81.6115
11
114.856
21
-81.7815
0
LINE
8
BLACK
6
CONTINUOUS
10
114.856
20
-81.7815
11
114.795
21
-81.942
0
LINE
8
BLACK
6
CONTINUOUS
10
114.795
20
-81.942
11
114.7
21
-82.0849
0
LINE
8
BLACK
6
CONTINUOUS
10
114.7
20
-82.0849
11
114.576
21
-82.2033
0
LINE
8
BLACK
6
CONTINUOUS
10
114.576
20
-82.2033
11
114.428
21
-82.2912
0
LINE
8
BLACK
6
CONTINUOUS
10
114.428
20
-82.2912
11
114.265
21
-82.3443
0
LINE
8
BLACK
6
CONTINUOUS
10
114.265
20
-82.3443
11
114.094
21
-82.3598
0
LINE
8
BLACK
6
CONTINUOUS
10
114.094
20
-82.3598
11
113.924
21
-82.3371
0
LINE
8
BLACK
6
CONTINUOUS
10
113.924
20
-82.3371
11
113.763
21
-82.2773
0
LINE
8
BLACK
6
CONTINUOUS
10
113.763
20
-82.2773
11
113.619
21
-82.1833
0
LINE
8
BLACK
6
CONTINUOUS
10
113.619
20
-82.1833
11
113.5
21
-82.0598
0
LINE
8
BLACK
6
CONTINUOUS
10
113.5
20
-82.0598
11
113.411
21
-81.913
0
LINE
8
BLACK
6
CONTINUOUS
10
113.411
20
-81.913
11
113.357
21
-81.7501
0
LINE
8
BLACK
6
CONTINUOUS
10
113.357
20
-81.7501
11
113.34
21
-81.5792
0
LINE
8
BLACK
6
CONTINUOUS
10
113.34
20
-81.5792
11
113.362
21
-81.4089
0
LINE
8
BLACK
6
CONTINUOUS
10
113.362
20
-81.4089
11
113.42
21
-81.2476
0
LINE
8
BLACK
6
CONTINUOUS
10
113.42
20
-81.2476
11
113.513
21
-81.1033
0
LINE
8
BLACK
6
CONTINUOUS
10
113.513
20
-81.1033
11
113.636
21
-80.9832
0
LINE
8
BLACK
6
CONTINUOUS
10
113.636
20
-80.9832
11
113.782
21
-80.8933
0
LINE
8
BLACK
6
CONTINUOUS
10
113.782
20
-80.8933
11
113.945
21
-80.838
0
LINE
8
BLACK
6
CONTINUOUS
10
113.945
20
-80.838
11
114.115
21
-80.82
0
LINE
8
BLACK
6
CONTINUOUS
10
114.115
20
-80.82
11
114.286
21
-80.8403
0
LINE
8
BLACK
6
CONTINUOUS
10
132.066
20
-80.8403
11
132.228
21
-80.8979
0
LINE
8
BLACK
6
CONTINUOUS
10
132.228
20
-80.8979
11
132.372
21
-80.9899
0
LINE
8
BLACK
6
CONTINUOUS
10
132.372
20
-80.9899
11
132.493
21
-81.1117
0
LINE
8
BLACK
6
CONTINUOUS
10
132.493
20
-81.1117
11
132.584
21
-81.2573
0
LINE
8
BLACK
6
CONTINUOUS
10
132.584
20
-81.2573
11
132.641
21
-81.4194
0
LINE
8
BLACK
6
CONTINUOUS
10
132.641
20
-81.4194
11
132.66
21
-81.59
0
LINE
8
BLACK
6
CONTINUOUS
10
132.66
20
-81.59
11
132.66
21
-81.6115
0
LINE
8
BLACK
6
CONTINUOUS
10
132.66
20
-81.6115
11
132.636
21
-81.7815
0
LINE
8
BLACK
6
CONTINUOUS
10
132.636
20
-81.7815
11
132.575
21
-81.942
0
LINE
8
BLACK
6
CONTINUOUS
10
132.575
20
-81.942
11
132.48
21
-82.0849
0
LINE
8
BLACK
6
CONTINUOUS
10
132.48
20
-82.0849
11
132.356
21
-82.2033
0
LINE
8
BLACK
6
CONTINUOUS
10
132.356
20
-82.2033
11
132.208
21
-82.2912
0
LINE
8
BLACK
6
CONTINUOUS
10
132.208
20
-82.2912
11
132.045
21
-82.3443
0
LINE
8
BLACK
6
CONTINUOUS
10
132.045
20
-82.3443
11
131.874
21
-82.3598
0
LINE
8
BLACK
6
CONTINUOUS
10
131.874
20
-82.3598
11
131.704
21
-82.3371
0
LINE
8
BLACK
6
CONTINUOUS
10
131.704
20
-82.3371
11
131.543
21
-82.2773
0
LINE
8
BLACK
6
CONTINUOUS
10
131.543
20
-82.2773
11
131.399
21
-82.1833
0
LINE
8
BLACK
6
CONTINUOUS
10
131.399
20
-82.1833
11
131.28
21
-82.0598
0
LINE
8
BLACK
6
CONTINUOUS
10
131.28
20
-82.0598
11
131.191
21
-81.913
0
LINE
8
BLACK
6
CONTINUOUS
10
131.191
20
-81.913
11
131.137
21
-81.7501
0
LINE
8
BLACK
6
CONTINUOUS
10
131.137
20
-81.7501
11
131.12
21
-81.5792
0
LINE
8
BLACK
6
CONTINUOUS
10
131.12
20
-81.5792
11
131.142
21
-81.4089
0
LINE
8
BLACK
6
CONTINUOUS
10
131.142
20
-81.4089
11
131.2
21
-81.2476
0
LINE
8
BLACK
6
CONTINUOUS
10
131.2
20
-81.2476
11
131.293
21
-81.1033
0
LINE
8
BLACK
6
CONTINUOUS
10
131.293
20
-81.1033
11
131.416
21
-80.9832
0
LINE
8
BLACK
6
CONTINUOUS
10
131.416
20
-80.9832
11
131.562
21
-80.8933
0
LINE
8
BLACK
6
CONTINUOUS
10
131.562
20
-80.8933
11
131.725
21
-80.838
0
LINE
8
BLACK
6
CONTINUOUS
10
131.725
20
-80.838
11
131.895
21
-80.82
0
LINE
8
BLACK
6
CONTINUOUS
10
131.895
20
-80.82
11
132.066
21
-80.8403
0
LINE
8
BLACK
6
CONTINUOUS
10
114.286
20
-78.3003
11
114.448
21
-78.3579
0
LINE
8
BLACK
6
CONTINUOUS
10
114.448
20
-78.3579
11
114.592
21
-78.4499
0
LINE
8
BLACK
6
CONTINUOUS
10
114.592
20
-78.4499
11
114.713
21
-78.5717
0
LINE
8
BLACK
6
CONTINUOUS
10
114.713
20
-78.5717
11
114.804
21
-78.7173
0
LINE
8
BLACK
6
CONTINUOUS
10
114.804
20
-78.7173
11
114.861
21
-78.8794
0
LINE
8
BLACK
6
CONTINUOUS
10
114.861
20
-78.8794
11
114.88
21
-79.05
0
LINE
8
BLACK
6
CONTINUOUS
10
114.88
20
-79.05
11
114.88
21
-79.0715
0
LINE
8
BLACK
6
CONTINUOUS
10
114.88
20
-79.0715
11
114.856
21
-79.2415
0
LINE
8
BLACK
6
CONTINUOUS
10
114.856
20
-79.2415
11
114.795
21
-79.402
0
LINE
8
BLACK
6
CONTINUOUS
10
114.795
20
-79.402
11
114.7
21
-79.5449
0
LINE
8
BLACK
6
CONTINUOUS
10
114.7
20
-79.5449
11
114.576
21
-79.6633
0
LINE
8
BLACK
6
CONTINUOUS
10
114.576
20
-79.6633
11
114.428
21
-79.7512
0
LINE
8
BLACK
6
CONTINUOUS
10
114.428
20
-79.7512
11
114.265
21
-79.8043
0
LINE
8
BLACK
6
CONTINUOUS
10
114.265
20
-79.8043
11
114.094
21
-79.8198
0
LINE
8
BLACK
6
CONTINUOUS
10
114.094
20
-79.8198
11
113.924
21
-79.7971
0
LINE
8
BLACK
6
CONTINUOUS
10
113.924
20
-79.7971
11
113.763
21
-79.7373
0
LINE
8
BLACK
6
CONTINUOUS
10
113.763
20
-79.7373
11
113.619
21
-79.6433
0
LINE
8
BLACK
6
CONTINUOUS
10
113.619
20
-79.6433
11
113.5
21
-79.5198
0
LINE
8
BLACK
6
CONTINUOUS
10
113.5
20
-79.5198
11
113.411
21
-79.373
0
LINE
8
BLACK
6
CONTINUOUS
10
113.411
20
-79.373
11
113.357
21
-79.2101
0
LINE
8
BLACK
6
CONTINUOUS
10
113.357
20
-79.2101
11
113.34
21
-79.0392
0
LINE
8
BLACK
6
CONTINUOUS
10
113.34
20
-79.0392
11
113.362
21
-78.8689
0
LINE
8
BLACK
6
CONTINUOUS
10
113.362
20
-78.8689
11
113.42
21
-78.7076
0
LINE
8
BLACK
6
CONTINUOUS
10
113.42
20
-78.7076
11
113.513
21
-78.5633
0
LINE
8
BLACK
6
CONTINUOUS
10
113.513
20
-78.5633
11
113.636
21
-78.4432
0
LINE
8
BLACK
6
CONTINUOUS
10
113.636
20
-78.4432
11
113.782
21
-78.3533
0
LINE
8
BLACK
6
CONTINUOUS
10
113.782
20
-78.3533
11
113.945
21
-78.298
0
LINE
8
BLACK
6
CONTINUOUS
10
113.945
20
-78.298
11
114.115
21
-78.28
0
LINE
8
BLACK
6
CONTINUOUS
10
114.115
20
-78.28
11
114.286
21
-78.3003
0
LINE
8
BLACK
6
CONTINUOUS
10
132.066
20
-78.3003
11
132.228
21
-78.3579
0
LINE
8
BLACK
6
CONTINUOUS
10
132.228
20
-78.3579
11
132.372
21
-78.4499
0
LINE
8
BLACK
6
CONTINUOUS
10
132.372
20
-78.4499
11
132.493
21
-78.5717
0
LINE
8
BLACK
6
CONTINUOUS
10
132.493
20
-78.5717
11
132.584
21
-78.7173
0
LINE
8
BLACK
6
CONTINUOUS
10
132.584
20
-78.7173
11
132.641
21
-78.8794
0
LINE
8
BLACK
6
CONTINUOUS
10
132.641
20
-78.8794
11
132.66
21
-79.05
0
LINE
8
BLACK
6
CONTINUOUS
10
132.66
20
-79.05
11
132.66
21
-79.0715
0
LINE
8
BLACK
6
CONTINUOUS
10
132.66
20
-79.0715
11
132.636
21
-79.2415
0
LINE
8
BLACK
6
CONTINUOUS
10
132.636
20
-79.2415
11
132.575
21
-79.402
0
LINE
8
BLACK
6
CONTINUOUS
10
132.575
20
-79.402
11
132.48
21
-79.5449
0
LINE
8
BLACK
6
CONTINUOUS
10
132.48
20
-79.5449
11
132.356
21
-79.6633
0
LINE
8
BLACK
6
CONTINUOUS
10
132.356
20
-79.6633
11
132.208
21
-79.7512
0
LINE
8
BLACK
6
CONTINUOUS
10
132.208
20
-79.7512
11
132.045
21
-79.8043
0
LINE
8
BLACK
6
CONTINUOUS
10
132.045
20
-79.8043
11
131.874
21
-79.8198
0
LINE
8
BLACK
6
CONTINUOUS
10
131.874
20
-79.8198
11
131.704
21
-79.7971
0
LINE
8
BLACK
6
CONTINUOUS
10
131.704
20
-79.7971
11
131.543
21
-79.7373
0
LINE
8
BLACK
6
CONTINUOUS
10
131.543
20
-79.7373
11
131.399
21
-79.6433
0
LINE
8
BLACK
6
CONTINUOUS
10
131.399
20
-79.6433
11
131.28
21
-79.5198
0
LINE
8
BLACK
6
CONTINUOUS
10
131.28
20
-79.5198
11
131.191
21
-79.373
0
LINE
8
BLACK
6
CONTINUOUS
10
131.191
20
-79.373
11
131.137
21
-79.2101
0
LINE
8
BLACK
6
CONTINUOUS
10
131.137
20
-79.2101
11
131.12
21
-79.0392
0
LINE
8
BLACK
6
CONTINUOUS
10
131.12
20
-79.0392
11
131.142
21
-78.8689
0
LINE
8
BLACK
6
CONTINUOUS
10
131.142
20
-78.8689
11
131.2
21
-78.7076
0
LINE
8
BLACK
6
CONTINUOUS
10
131.2
20
-78.7076
11
131.293
21
-78.5633
0
LINE
8
BLACK
6
CONTINUOUS
10
131.293
20
-78.5633
11
131.416
21
-78.4432
0
LINE
8
BLACK
6
CONTINUOUS
10
131.416
20
-78.4432
11
131.562
21
-78.3533
0
LINE
8
BLACK
6
CONTINUOUS
10
131.562
20
-78.3533
11
131.725
21
-78.298
0
LINE
8
BLACK
6
CONTINUOUS
10
131.725
20
-78.298
11
131.895
21
-78.28
0
LINE
8
BLACK
6
CONTINUOUS
10
131.895
20
-78.28
11
132.066
21
-78.3003
0
LINE
8
BLACK
6
CONTINUOUS
10
114.286
20
-75.7603
11
114.448
21
-75.8179
0
LINE
8
BLACK
6
CONTINUOUS
10
114.448
20
-75.8179
11
114.592
21
-75.9099
0
LINE
8
BLACK
6
CONTINUOUS
10
114.592
20
-75.9099
11
114.713
21
-76.0317
0
LINE
8
BLACK
6
CONTINUOUS
10
114.713
20
-76.0317
11
114.804
21
-76.1773
0
LINE
8
BLACK
6
CONTINUOUS
10
114.804
20
-76.1773
11
114.861
21
-76.3394
0
LINE
8
BLACK
6
CONTINUOUS
10
114.861
20
-76.3394
11
114.88
21
-76.51
0
LINE
8
BLACK
6
CONTINUOUS
10
114.88
20
-76.51
11
114.88
21
-76.5315
0
LINE
8
BLACK
6
CONTINUOUS
10
114.88
20
-76.5315
11
114.856
21
-76.7015
0
LINE
8
BLACK
6
CONTINUOUS
10
114.856
20
-76.7015
11
114.795
21
-76.862
0
LINE
8
BLACK
6
CONTINUOUS
10
114.795
20
-76.862
11
114.7
21
-77.0049
0
LINE
8
BLACK
6
CONTINUOUS
10
114.7
20
-77.0049
11
114.576
21
-77.1233
0
LINE
8
BLACK
6
CONTINUOUS
10
114.576
20
-77.1233
11
114.428
21
-77.2112
0
LINE
8
BLACK
6
CONTINUOUS
10
114.428
20
-77.2112
11
114.265
21
-77.2643
0
LINE
8
BLACK
6
CONTINUOUS
10
114.265
20
-77.2643
11
114.094
21
-77.2798
0
LINE
8
BLACK
6
CONTINUOUS
10
114.094
20
-77.2798
11
113.924
21
-77.2571
0
LINE
8
BLACK
6
CONTINUOUS
10
113.924
20
-77.2571
11
113.763
21
-77.1973
0
LINE
8
BLACK
6
CONTINUOUS
10
113.763
20
-77.1973
11
113.619
21
-77.1033
0
LINE
8
BLACK
6
CONTINUOUS
10
113.619
20
-77.1033
11
113.5
21
-76.9798
0
LINE
8
BLACK
6
CONTINUOUS
10
113.5
20
-76.9798
11
113.411
21
-76.833
0
LINE
8
BLACK
6
CONTINUOUS
10
113.411
20
-76.833
11
113.357
21
-76.6701
0
LINE
8
BLACK
6
CONTINUOUS
10
113.357
20
-76.6701
11
113.34
21
-76.4992
0
LINE
8
BLACK
6
CONTINUOUS
10
113.34
20
-76.4992
11
113.362
21
-76.3289
0
LINE
8
BLACK
6
CONTINUOUS
10
113.362
20
-76.3289
11
113.42
21
-76.1676
0
LINE
8
BLACK
6
CONTINUOUS
10
113.42
20
-76.1676
11
113.513
21
-76.0233
0
LINE
8
BLACK
6
CONTINUOUS
10
113.513
20
-76.0233
11
113.636
21
-75.9032
0
LINE
8
BLACK
6
CONTINUOUS
10
113.636
20
-75.9032
11
113.782
21
-75.8133
0
LINE
8
BLACK
6
CONTINUOUS
10
113.782
20
-75.8133
11
113.945
21
-75.758
0
LINE
8
BLACK
6
CONTINUOUS
10
113.945
20
-75.758
11
114.115
21
-75.74
0
LINE
8
BLACK
6
CONTINUOUS
10
114.115
20
-75.74
11
114.286
21
-75.7603
0
LINE
8
BLACK
6
CONTINUOUS
10
132.066
20
-75.7603
11
132.228
21
-75.8179
0
LINE
8
BLACK
6
CONTINUOUS
10
132.228
20
-75.8179
11
132.372
21
-75.9099
0
LINE
8
BLACK
6
CONTINUOUS
10
132.372
20
-75.9099
11
132.493
21
-76.0317
0
LINE
8
BLACK
6
CONTINUOUS
10
132.493
20
-76.0317
11
132.584
21
-76.1773
0
LINE
8
BLACK
6
CONTINUOUS
10
132.584
20
-76.1773
11
132.641
21
-76.3394
0
LINE
8
BLACK
6
CONTINUOUS
10
132.641
20
-76.3394
11
132.66
21
-76.51
0
LINE
8
BLACK
6
CONTINUOUS
10
132.66
20
-76.51
11
132.66
21
-76.5315
0
LINE
8
BLACK
6
CONTINUOUS
10
132.66
20
-76.5315
11
132.636
21
-76.7015
0
LINE
8
BLACK
6
CONTINUOUS
10
132.636
20
-76.7015
11
132.575
21
-76.862
0
LINE
8
BLACK
6
CONTINUOUS
10
132.575
20
-76.862
11
132.48
21
-77.0049
0
LINE
8
BLACK
6
CONTINUOUS
10
132.48
20
-77.0049
11
132.356
21
-77.1233
0
LINE
8
BLACK
6
CONTINUOUS
10
132.356
20
-77.1233
11
132.208
21
-77.2112
0
LINE
8
BLACK
6
CONTINUOUS
10
132.208
20
-77.2112
11
132.045
21
-77.2643
0
LINE
8
BLACK
6
CONTINUOUS
10
132.045
20
-77.2643
11
131.874
21
-77.2798
0
LINE
8
BLACK
6
CONTINUOUS
10
131.874
20
-77.2798
11
131.704
21
-77.2571
0
LINE
8
BLACK
6
CONTINUOUS
10
131.704
20
-77.2571
11
131.543
21
-77.1973
0
LINE
8
BLACK
6
CONTINUOUS
10
131.543
20
-77.1973
11
131.399
21
-77.1033
0
LINE
8
BLACK
6
CONTINUOUS
10
131.399
20
-77.1033
11
131.28
21
-76.9798
0
LINE
8
BLACK
6
CONTINUOUS
10
131.28
20
-76.9798
11
131.191
21
-76.833
0
LINE
8
BLACK
6
CONTINUOUS
10
131.191
20
-76.833
11
131.137
21
-76.6701
0
LINE
8
BLACK
6
CONTINUOUS
10
131.137
20
-76.6701
11
131.12
21
-76.4992
0
LINE
8
BLACK
6
CONTINUOUS
10
131.12
20
-76.4992
11
131.142
21
-76.3289
0
LINE
8
BLACK
6
CONTINUOUS
10
131.142
20
-76.3289
11
131.2
21
-76.1676
0
LINE
8
BLACK
6
CONTINUOUS
10
131.2
20
-76.1676
11
131.293
21
-76.0233
0
LINE
8
BLACK
6
CONTINUOUS
10
131.293
20
-76.0233
11
131.416
21
-75.9032
0
LINE
8
BLACK
6
CONTINUOUS
10
131.416
20
-75.9032
11
131.562
21
-75.8133
0
LINE
8
BLACK
6
CONTINUOUS
10
131.562
20
-75.8133
11
131.725
21
-75.758
0
LINE
8
BLACK
6
CONTINUOUS
10
131.725
20
-75.758
11
131.895
21
-75.74
0
LINE
8
BLACK
6
CONTINUOUS
10
131.895
20
-75.74
11
132.066
21
-75.7603
0
LINE
8
BLACK
6
CONTINUOUS
10
114.286
20
-73.2203
11
114.448
21
-73.2779
0
LINE
8
BLACK
6
CONTINUOUS
10
114.448
20
-73.2779
11
114.592
21
-73.3699
0
LINE
8
BLACK
6
CONTINUOUS
10
114.592
20
-73.3699
11
114.713
21
-73.4917
0
LINE
8
BLACK
6
CONTINUOUS
10
114.713
20
-73.4917
11
114.804
21
-73.6373
0
LINE
8
BLACK
6
CONTINUOUS
10
114.804
20
-73.6373
11
114.861
21
-73.7994
0
LINE
8
BLACK
6
CONTINUOUS
10
114.861
20
-73.7994
11
114.88
21
-73.97
0
LINE
8
BLACK
6
CONTINUOUS
10
114.88
20
-73.97
11
114.88
21
-73.9915
0
LINE
8
BLACK
6
CONTINUOUS
10
114.88
20
-73.9915
11
114.856
21
-74.1615
0
LINE
8
BLACK
6
CONTINUOUS
10
114.856
20
-74.1615
11
114.795
21
-74.322
0
LINE
8
BLACK
6
CONTINUOUS
10
114.795
20
-74.322
11
114.7
21
-74.4649
0
LINE
8
BLACK
6
CONTINUOUS
10
114.7
20
-74.4649
11
114.576
21
-74.5833
0
LINE
8
BLACK
6
CONTINUOUS
10
114.576
20
-74.5833
11
114.428
21
-74.6712
0
LINE
8
BLACK
6
CONTINUOUS
10
114.428
20
-74.6712
11
114.265
21
-74.7243
0
LINE
8
BLACK
6
CONTINUOUS
10
114.265
20
-74.7243
11
114.094
21
-74.7398
0
LINE
8
BLACK
6
CONTINUOUS
10
114.094
20
-74.7398
11
113.924
21
-74.7171
0
LINE
8
BLACK
6
CONTINUOUS
10
113.924
20
-74.7171
11
113.763
21
-74.6573
0
LINE
8
BLACK
6
CONTINUOUS
10
113.763
20
-74.6573
11
113.619
21
-74.5633
0
LINE
8
BLACK
6
CONTINUOUS
10
113.619
20
-74.5633
11
113.5
21
-74.4398
0
LINE
8
BLACK
6
CONTINUOUS
10
113.5
20
-74.4398
11
113.411
21
-74.293
0
LINE
8
BLACK
6
CONTINUOUS
10
113.411
20
-74.293
11
113.357
21
-74.1301
0
LINE
8
BLACK
6
CONTINUOUS
10
113.357
20
-74.1301
11
113.34
21
-73.9592
0
LINE
8
BLACK
6
CONTINUOUS
10
113.34
20
-73.9592
11
113.362
21
-73.7889
0
LINE
8
BLACK
6
CONTINUOUS
10
113.362
20
-73.7889
11
113.42
21
-73.6276
0
LINE
8
BLACK
6
CONTINUOUS
10
113.42
20
-73.6276
11
113.513
21
-73.4833
0
LINE
8
BLACK
6
CONTINUOUS
10
113.513
20
-73.4833
11
113.636
21
-73.3632
0
LINE
8
BLACK
6
CONTINUOUS
10
113.636
20
-73.3632
11
113.782
21
-73.2733
0
LINE
8
BLACK
6
CONTINUOUS
10
113.782
20
-73.2733
11
113.945
21
-73.218
0
LINE
8
BLACK
6
CONTINUOUS
10
113.945
20
-73.218
11
114.115
21
-73.2
0
LINE
8
BLACK
6
CONTINUOUS
10
114.115
20
-73.2
11
114.286
21
-73.2203
0
LINE
8
BLACK
6
CONTINUOUS
10
132.066
20
-73.2203
11
132.228
21
-73.2779
0
LINE
8
BLACK
6
CONTINUOUS
10
132.228
20
-73.2779
11
132.372
21
-73.3699
0
LINE
8
BLACK
6
CONTINUOUS
10
132.372
20
-73.3699
11
132.493
21
-73.4917
0
LINE
8
BLACK
6
CONTINUOUS
10
132.493
20
-73.4917
11
132.584
21
-73.6373
0
LINE
8
BLACK
6
CONTINUOUS
10
132.584
20
-73.6373
11
132.641
21
-73.7994
0
LINE
8
BLACK
6
CONTINUOUS
10
132.641
20
-73.7994
11
132.66
21
-73.97
0
LINE
8
BLACK
6
CONTINUOUS
10
132.66
20
-73.97
11
132.66
21
-73.9915
0
LINE
8
BLACK
6
CONTINUOUS
10
132.66
20
-73.9915
11
132.636
21
-74.1615
0
LINE
8
BLACK
6
CONTINUOUS
10
132.636
20
-74.1615
11
132.575
21
-74.322
0
LINE
8
BLACK
6
CONTINUOUS
10
132.575
20
-74.322
11
132.48
21
-74.4649
0
LINE
8
BLACK
6
CONTINUOUS
10
132.48
20
-74.4649
11
132.356
21
-74.5833
0
LINE
8
BLACK
6
CONTINUOUS
10
132.356
20
-74.5833
11
132.208
21
-74.6712
0
LINE
8
BLACK
6
CONTINUOUS
10
132.208
20
-74.6712
11
132.045
21
-74.7243
0
LINE
8
BLACK
6
CONTINUOUS
10
132.045
20
-74.7243
11
131.874
21
-74.7398
0
LINE
8
BLACK
6
CONTINUOUS
10
131.874
20
-74.7398
11
131.704
21
-74.7171
0
LINE
8
BLACK
6
CONTINUOUS
10
131.704
20
-74.7171
11
131.543
21
-74.6573
0
LINE
8
BLACK
6
CONTINUOUS
10
131.543
20
-74.6573
11
131.399
21
-74.5633
0
LINE
8
BLACK
6
CONTINUOUS
10
131.399
20
-74.5633
11
131.28
21
-74.4398
0
LINE
8
BLACK
6
CONTINUOUS
10
131.28
20
-74.4398
11
131.191
21
-74.293
0
LINE
8
BLACK
6
CONTINUOUS
10
131.191
20
-74.293
11
131.137
21
-74.1301
0
LINE
8
BLACK
6
CONTINUOUS
10
131.137
20
-74.1301
11
131.12
21
-73.9592
0
LINE
8
BLACK
6
CONTINUOUS
10
131.12
20
-73.9592
11
131.142
21
-73.7889
0
LINE
8
BLACK
6
CONTINUOUS
10
131.142
20
-73.7889
11
131.2
21
-73.6276
0
LINE
8
BLACK
6
CONTINUOUS
10
131.2
20
-73.6276
11
131.293
21
-73.4833
0
LINE
8
BLACK
6
CONTINUOUS
10
131.293
20
-73.4833
11
131.416
21
-73.3632
0
LINE
8
BLACK
6
CONTINUOUS
10
131.416
20
-73.3632
11
131.562
21
-73.2733
0
LINE
8
BLACK
6
CONTINUOUS
10
131.562
20
-73.2733
11
131.725
21
-73.218
0
LINE
8
BLACK
6
CONTINUOUS
10
131.725
20
-73.218
11
131.895
21
-73.2
0
LINE
8
BLACK
6
CONTINUOUS
10
131.895
20
-73.2
11
132.066
21
-73.2203
0
LINE
8
BLACK
6
CONTINUOUS
10
142.2
20
-72.275
11
140.5
21
-72.275
0
LINE
8
BLACK
6
CONTINUOUS
10
140.5
20
-72.275
11
140.5
21
-70.575
0
LINE
8
BLACK
6
CONTINUOUS
10
140.5
20
-70.575
11
142.2
21
-70.575
0
LINE
8
BLACK
6
CONTINUOUS
10
142.2
20
-70.575
11
142.2
21
-72.275
0
LINE
8
BLACK
6
CONTINUOUS
10
144.153
20
-70.6166
11
144.315
21
-70.6889
0
LINE
8
BLACK
6
CONTINUOUS
10
144.315
20
-70.6889
11
144.459
21
-70.7933
0
LINE
8
BLACK
6
CONTINUOUS
10
144.459
20
-70.7933
11
144.578
21
-70.9254
0
LINE
8
BLACK
6
CONTINUOUS
10
144.578
20
-70.9254
11
144.667
21
-71.0793
0
LINE
8
BLACK
6
CONTINUOUS
10
144.667
20
-71.0793
11
144.721
21
-71.2483
0
LINE
8
BLACK
6
CONTINUOUS
10
144.721
20
-71.2483
11
144.74
21
-71.425
0
LINE
8
BLACK
6
CONTINUOUS
10
144.74
20
-71.425
11
144.721
21
-71.6017
0
LINE
8
BLACK
6
CONTINUOUS
10
144.721
20
-71.6017
11
144.667
21
-71.7707
0
LINE
8
BLACK
6
CONTINUOUS
10
144.667
20
-71.7707
11
144.578
21
-71.9246
0
LINE
8
BLACK
6
CONTINUOUS
10
144.578
20
-71.9246
11
144.459
21
-72.0567
0
LINE
8
BLACK
6
CONTINUOUS
10
144.459
20
-72.0567
11
144.315
21
-72.1611
0
LINE
8
BLACK
6
CONTINUOUS
10
144.315
20
-72.1611
11
144.153
21
-72.2334
0
LINE
8
BLACK
6
CONTINUOUS
10
144.153
20
-72.2334
11
143.979
21
-72.2703
0
LINE
8
BLACK
6
CONTINUOUS
10
143.979
20
-72.2703
11
143.801
21
-72.2703
0
LINE
8
BLACK
6
CONTINUOUS
10
143.801
20
-72.2703
11
143.627
21
-72.2334
0
LINE
8
BLACK
6
CONTINUOUS
10
143.627
20
-72.2334
11
143.465
21
-72.1611
0
LINE
8
BLACK
6
CONTINUOUS
10
143.465
20
-72.1611
11
143.321
21
-72.0567
0
LINE
8
BLACK
6
CONTINUOUS
10
143.321
20
-72.0567
11
143.202
21
-71.9246
0
LINE
8
BLACK
6
CONTINUOUS
10
143.202
20
-71.9246
11
143.113
21
-71.7707
0
LINE
8
BLACK
6
CONTINUOUS
10
143.113
20
-71.7707
11
143.059
21
-71.6017
0
LINE
8
BLACK
6
CONTINUOUS
10
143.059
20
-71.6017
11
143.04
21
-71.425
0
LINE
8
BLACK
6
CONTINUOUS
10
143.04
20
-71.425
11
143.059
21
-71.2483
0
LINE
8
BLACK
6
CONTINUOUS
10
143.059
20
-71.2483
11
143.113
21
-71.0793
0
LINE
8
BLACK
6
CONTINUOUS
10
143.113
20
-71.0793
11
143.202
21
-70.9254
0
LINE
8
BLACK
6
CONTINUOUS
10
143.202
20
-70.9254
11
143.321
21
-70.7933
0
LINE
8
BLACK
6
CONTINUOUS
10
143.321
20
-70.7933
11
143.465
21
-70.6889
0
LINE
8
BLACK
6
CONTINUOUS
10
143.465
20
-70.6889
11
143.627
21
-70.6166
0
LINE
8
BLACK
6
CONTINUOUS
10
143.627
20
-70.6166
11
143.801
21
-70.5797
0
LINE
8
BLACK
6
CONTINUOUS
10
143.801
20
-70.5797
11
143.979
21
-70.5797
0
LINE
8
BLACK
6
CONTINUOUS
10
143.979
20
-70.5797
11
144.153
21
-70.6166
0
LINE
8
BLACK
6
CONTINUOUS
10
114.286
20
-70.6803
11
114.448
21
-70.7379
0
LINE
8
BLACK
6
CONTINUOUS
10
114.448
20
-70.7379
11
114.592
21
-70.8299
0
LINE
8
BLACK
6
CONTINUOUS
10
114.592
20
-70.8299
11
114.713
21
-70.9517
0
LINE
8
BLACK
6
CONTINUOUS
10
114.713
20
-70.9517
11
114.804
21
-71.0973
0
LINE
8
BLACK
6
CONTINUOUS
10
114.804
20
-71.0973
11
114.861
21
-71.2594
0
LINE
8
BLACK
6
CONTINUOUS
10
114.861
20
-71.2594
11
114.88
21
-71.43
0
LINE
8
BLACK
6
CONTINUOUS
10
114.88
20
-71.43
11
114.88
21
-71.4515
0
LINE
8
BLACK
6
CONTINUOUS
10
114.88
20
-71.4515
11
114.856
21
-71.6215
0
LINE
8
BLACK
6
CONTINUOUS
10
114.856
20
-71.6215
11
114.795
21
-71.782
0
LINE
8
BLACK
6
CONTINUOUS
10
114.795
20
-71.782
11
114.7
21
-71.9249
0
LINE
8
BLACK
6
CONTINUOUS
10
114.7
20
-71.9249
11
114.576
21
-72.0433
0
LINE
8
BLACK
6
CONTINUOUS
10
114.576
20
-72.0433
11
114.428
21
-72.1312
0
LINE
8
BLACK
6
CONTINUOUS
10
114.428
20
-72.1312
11
114.265
21
-72.1843
0
LINE
8
BLACK
6
CONTINUOUS
10
114.265
20
-72.1843
11
114.094
21
-72.1998
0
LINE
8
BLACK
6
CONTINUOUS
10
114.094
20
-72.1998
11
113.924
21
-72.1771
0
LINE
8
BLACK
6
CONTINUOUS
10
113.924
20
-72.1771
11
113.763
21
-72.1173
0
LINE
8
BLACK
6
CONTINUOUS
10
113.763
20
-72.1173
11
113.619
21
-72.0233
0
LINE
8
BLACK
6
CONTINUOUS
10
113.619
20
-72.0233
11
113.5
21
-71.8998
0
LINE
8
BLACK
6
CONTINUOUS
10
113.5
20
-71.8998
11
113.411
21
-71.753
0
LINE
8
BLACK
6
CONTINUOUS
10
113.411
20
-71.753
11
113.357
21
-71.5901
0
LINE
8
BLACK
6
CONTINUOUS
10
113.357
20
-71.5901
11
113.34
21
-71.4192
0
LINE
8
BLACK
6
CONTINUOUS
10
113.34
20
-71.4192
11
113.362
21
-71.2489
0
LINE
8
BLACK
6
CONTINUOUS
10
113.362
20
-71.2489
11
113.42
21
-71.0876
0
LINE
8
BLACK
6
CONTINUOUS
10
113.42
20
-71.0876
11
113.513
21
-70.9433
0
LINE
8
BLACK
6
CONTINUOUS
10
113.513
20
-70.9433
11
113.636
21
-70.8232
0
LINE
8
BLACK
6
CONTINUOUS
10
113.636
20
-70.8232
11
113.782
21
-70.7333
0
LINE
8
BLACK
6
CONTINUOUS
10
113.782
20
-70.7333
11
113.945
21
-70.678
0
LINE
8
BLACK
6
CONTINUOUS
10
113.945
20
-70.678
11
114.115
21
-70.66
0
LINE
8
BLACK
6
CONTINUOUS
10
114.115
20
-70.66
11
114.286
21
-70.6803
0
LINE
8
BLACK
6
CONTINUOUS
10
132.066
20
-70.6803
11
132.228
21
-70.7379
0
LINE
8
BLACK
6
CONTINUOUS
10
132.228
20
-70.7379
11
132.372
21
-70.8299
0
LINE
8
BLACK
6
CONTINUOUS
10
132.372
20
-70.8299
11
132.493
21
-70.9517
0
LINE
8
BLACK
6
CONTINUOUS
10
132.493
20
-70.9517
11
132.584
21
-71.0973
0
LINE
8
BLACK
6
CONTINUOUS
10
132.584
20
-71.0973
11
132.641
21
-71.2594
0
LINE
8
BLACK
6
CONTINUOUS
10
132.641
20
-71.2594
11
132.66
21
-71.43
0
LINE
8
BLACK
6
CONTINUOUS
10
132.66
20
-71.43
11
132.66
21
-71.4515
0
LINE
8
BLACK
6
CONTINUOUS
10
132.66
20
-71.4515
11
132.636
21
-71.6215
0
LINE
8
BLACK
6
CONTINUOUS
10
132.636
20
-71.6215
11
132.575
21
-71.782
0
LINE
8
BLACK
6
CONTINUOUS
10
132.575
20
-71.782
11
132.48
21
-71.9249
0
LINE
8
BLACK
6
CONTINUOUS
10
132.48
20
-71.9249
11
132.356
21
-72.0433
0
LINE
8
BLACK
6
CONTINUOUS
10
132.356
20
-72.0433
11
132.208
21
-72.1312
0
LINE
8
BLACK
6
CONTINUOUS
10
132.208
20
-72.1312
11
132.045
21
-72.1843
0
LINE
8
BLACK
6
CONTINUOUS
10
132.045
20
-72.1843
11
131.874
21
-72.1998
0
LINE
8
BLACK
6
CONTINUOUS
10
131.874
20
-72.1998
11
131.704
21
-72.1771
0
LINE
8
BLACK
6
CONTINUOUS
10
131.704
20
-72.1771
11
131.543
21
-72.1173
0
LINE
8
BLACK
6
CONTINUOUS
10
131.543
20
-72.1173
11
131.399
21
-72.0233
0
LINE
8
BLACK
6
CONTINUOUS
10
131.399
20
-72.0233
11
131.28
21
-71.8998
0
LINE
8
BLACK
6
CONTINUOUS
10
131.28
20
-71.8998
11
131.191
21
-71.753
0
LINE
8
BLACK
6
CONTINUOUS
10
131.191
20
-71.753
11
131.137
21
-71.5901
0
LINE
8
BLACK
6
CONTINUOUS
10
131.137
20
-71.5901
11
131.12
21
-71.4192
0
LINE
8
BLACK
6
CONTINUOUS
10
131.12
20
-71.4192
11
131.142
21
-71.2489
0
LINE
8
BLACK
6
CONTINUOUS
10
131.142
20
-71.2489
11
131.2
21
-71.0876
0
LINE
8
BLACK
6
CONTINUOUS
10
131.2
20
-71.0876
11
131.293
21
-70.9433
0
LINE
8
BLACK
6
CONTINUOUS
10
131.293
20
-70.9433
11
131.416
21
-70.8232
0
LINE
8
BLACK
6
CONTINUOUS
10
131.416
20
-70.8232
11
131.562
21
-70.7333
0
LINE
8
BLACK
6
CONTINUOUS
10
131.562
20
-70.7333
11
131.725
21
-70.678
0
LINE
8
BLACK
6
CONTINUOUS
10
131.725
20
-70.678
11
131.895
21
-70.66
0
LINE
8
BLACK
6
CONTINUOUS
10
131.895
20
-70.66
11
132.066
21
-70.6803
0
LINE
8
BLACK
6
CONTINUOUS
10
141.613
20
-68.0766
11
141.775
21
-68.1489
0
LINE
8
BLACK
6
CONTINUOUS
10
141.775
20
-68.1489
11
141.919
21
-68.2533
0
LINE
8
BLACK
6
CONTINUOUS
10
141.919
20
-68.2533
11
142.038
21
-68.3854
0
LINE
8
BLACK
6
CONTINUOUS
10
142.038
20
-68.3854
11
142.127
21
-68.5393
0
LINE
8
BLACK
6
CONTINUOUS
10
142.127
20
-68.5393
11
142.181
21
-68.7083
0
LINE
8
BLACK
6
CONTINUOUS
10
142.181
20
-68.7083
11
142.2
21
-68.885
0
LINE
8
BLACK
6
CONTINUOUS
10
142.2
20
-68.885
11
142.181
21
-69.0617
0
LINE
8
BLACK
6
CONTINUOUS
10
142.181
20
-69.0617
11
142.127
21
-69.2307
0
LINE
8
BLACK
6
CONTINUOUS
10
142.127
20
-69.2307
11
142.038
21
-69.3846
0
LINE
8
BLACK
6
CONTINUOUS
10
142.038
20
-69.3846
11
141.919
21
-69.5167
0
LINE
8
BLACK
6
CONTINUOUS
10
141.919
20
-69.5167
11
141.775
21
-69.6211
0
LINE
8
BLACK
6
CONTINUOUS
10
141.775
20
-69.6211
11
141.613
21
-69.6934
0
LINE
8
BLACK
6
CONTINUOUS
10
141.613
20
-69.6934
11
141.439
21
-69.7303
0
LINE
8
BLACK
6
CONTINUOUS
10
141.439
20
-69.7303
11
141.261
21
-69.7303
0
LINE
8
BLACK
6
CONTINUOUS
10
141.261
20
-69.7303
11
141.087
21
-69.6934
0
LINE
8
BLACK
6
CONTINUOUS
10
141.087
20
-69.6934
11
140.925
21
-69.6211
0
LINE
8
BLACK
6
CONTINUOUS
10
140.925
20
-69.6211
11
140.781
21
-69.5167
0
LINE
8
BLACK
6
CONTINUOUS
10
140.781
20
-69.5167
11
140.662
21
-69.3846
0
LINE
8
BLACK
6
CONTINUOUS
10
140.662
20
-69.3846
11
140.573
21
-69.2307
0
LINE
8
BLACK
6
CONTINUOUS
10
140.573
20
-69.2307
11
140.519
21
-69.0617
0
LINE
8
BLACK
6
CONTINUOUS
10
140.519
20
-69.0617
11
140.5
21
-68.885
0
LINE
8
BLACK
6
CONTINUOUS
10
140.5
20
-68.885
11
140.519
21
-68.7083
0
LINE
8
BLACK
6
CONTINUOUS
10
140.519
20
-68.7083
11
140.573
21
-68.5393
0
LINE
8
BLACK
6
CONTINUOUS
10
140.573
20
-68.5393
11
140.662
21
-68.3854
0
LINE
8
BLACK
6
CONTINUOUS
10
140.662
20
-68.3854
11
140.781
21
-68.2533
0
LINE
8
BLACK
6
CONTINUOUS
10
140.781
20
-68.2533
11
140.925
21
-68.1489
0
LINE
8
BLACK
6
CONTINUOUS
10
140.925
20
-68.1489
11
141.087
21
-68.0766
0
LINE
8
BLACK
6
CONTINUOUS
10
141.087
20
-68.0766
11
141.261
21
-68.0397
0
LINE
8
BLACK
6
CONTINUOUS
10
141.261
20
-68.0397
11
141.439
21
-68.0397
0
LINE
8
BLACK
6
CONTINUOUS
10
141.439
20
-68.0397
11
141.613
21
-68.0766
0
LINE
8
BLACK
6
CONTINUOUS
10
144.153
20
-68.0766
11
144.315
21
-68.1489
0
LINE
8
BLACK
6
CONTINUOUS
10
144.315
20
-68.1489
11
144.459
21
-68.2533
0
LINE
8
BLACK
6
CONTINUOUS
10
144.459
20
-68.2533
11
144.578
21
-68.3854
0
LINE
8
BLACK
6
CONTINUOUS
10
144.578
20
-68.3854
11
144.667
21
-68.5393
0
LINE
8
BLACK
6
CONTINUOUS
10
144.667
20
-68.5393
11
144.721
21
-68.7083
0
LINE
8
BLACK
6
CONTINUOUS
10
144.721
20
-68.7083
11
144.74
21
-68.885
0
LINE
8
BLACK
6
CONTINUOUS
10
144.74
20
-68.885
11
144.721
21
-69.0617
0
LINE
8
BLACK
6
CONTINUOUS
10
144.721
20
-69.0617
11
144.667
21
-69.2307
0
LINE
8
BLACK
6
CONTINUOUS
10
144.667
20
-69.2307
11
144.578
21
-69.3846
0
LINE
8
BLACK
6
CONTINUOUS
10
144.578
20
-69.3846
11
144.459
21
-69.5167
0
LINE
8
BLACK
6
CONTINUOUS
10
144.459
20
-69.5167
11
144.315
21
-69.6211
0
LINE
8
BLACK
6
CONTINUOUS
10
144.315
20
-69.6211
11
144.153
21
-69.6934
0
LINE
8
BLACK
6
CONTINUOUS
10
144.153
20
-69.6934
11
143.979
21
-69.7303
0
LINE
8
BLACK
6
CONTINUOUS
10
143.979
20
-69.7303
11
143.801
21
-69.7303
0
LINE
8
BLACK
6
CONTINUOUS
10
143.801
20
-69.7303
11
143.627
21
-69.6934
0
LINE
8
BLACK
6
CONTINUOUS
10
143.627
20
-69.6934
11
143.465
21
-69.6211
0
LINE
8
BLACK
6
CONTINUOUS
10
143.465
20
-69.6211
11
143.321
21
-69.5167
0
LINE
8
BLACK
6
CONTINUOUS
10
143.321
20
-69.5167
11
143.202
21
-69.3846
0
LINE
8
BLACK
6
CONTINUOUS
10
143.202
20
-69.3846
11
143.113
21
-69.2307
0
LINE
8
BLACK
6
CONTINUOUS
10
143.113
20
-69.2307
11
143.059
21
-69.0617
0
LINE
8
BLACK
6
CONTINUOUS
10
143.059
20
-69.0617
11
143.04
21
-68.885
0
LINE
8
BLACK
6
CONTINUOUS
10
143.04
20
-68.885
11
143.059
21
-68.7083
0
LINE
8
BLACK
6
CONTINUOUS
10
143.059
20
-68.7083
11
143.113
21
-68.5393
0
LINE
8
BLACK
6
CONTINUOUS
10
143.113
20
-68.5393
11
143.202
21
-68.3854
0
LINE
8
BLACK
6
CONTINUOUS
10
143.202
20
-68.3854
11
143.321
21
-68.2533
0
LINE
8
BLACK
6
CONTINUOUS
10
143.321
20
-68.2533
11
143.465
21
-68.1489
0
LINE
8
BLACK
6
CONTINUOUS
10
143.465
20
-68.1489
11
143.627
21
-68.0766
0
LINE
8
BLACK
6
CONTINUOUS
10
143.627
20
-68.0766
11
143.801
21
-68.0397
0
LINE
8
BLACK
6
CONTINUOUS
10
143.801
20
-68.0397
11
143.979
21
-68.0397
0
LINE
8
BLACK
6
CONTINUOUS
10
143.979
20
-68.0397
11
144.153
21
-68.0766
0
LINE
8
BLACK
6
CONTINUOUS
10
114.286
20
-68.1403
11
114.448
21
-68.1979
0
LINE
8
BLACK
6
CONTINUOUS
10
114.448
20
-68.1979
11
114.592
21
-68.2899
0
LINE
8
BLACK
6
CONTINUOUS
10
114.592
20
-68.2899
11
114.713
21
-68.4117
0
LINE
8
BLACK
6
CONTINUOUS
10
114.713
20
-68.4117
11
114.804
21
-68.5573
0
LINE
8
BLACK
6
CONTINUOUS
10
114.804
20
-68.5573
11
114.861
21
-68.7194
0
LINE
8
BLACK
6
CONTINUOUS
10
114.861
20
-68.7194
11
114.88
21
-68.89
0
LINE
8
BLACK
6
CONTINUOUS
10
114.88
20
-68.89
11
114.88
21
-68.9115
0
LINE
8
BLACK
6
CONTINUOUS
10
114.88
20
-68.9115
11
114.856
21
-69.0815
0
LINE
8
BLACK
6
CONTINUOUS
10
114.856
20
-69.0815
11
114.795
21
-69.242
0
LINE
8
BLACK
6
CONTINUOUS
10
114.795
20
-69.242
11
114.7
21
-69.3849
0
LINE
8
BLACK
6
CONTINUOUS
10
114.7
20
-69.3849
11
114.576
21
-69.5033
0
LINE
8
BLACK
6
CONTINUOUS
10
114.576
20
-69.5033
11
114.428
21
-69.5912
0
LINE
8
BLACK
6
CONTINUOUS
10
114.428
20
-69.5912
11
114.265
21
-69.6443
0
LINE
8
BLACK
6
CONTINUOUS
10
114.265
20
-69.6443
11
114.094
21
-69.6598
0
LINE
8
BLACK
6
CONTINUOUS
10
114.094
20
-69.6598
11
113.924
21
-69.6371
0
LINE
8
BLACK
6
CONTINUOUS
10
113.924
20
-69.6371
11
113.763
21
-69.5773
0
LINE
8
BLACK
6
CONTINUOUS
10
113.763
20
-69.5773
11
113.619
21
-69.4833
0
LINE
8
BLACK
6
CONTINUOUS
10
113.619
20
-69.4833
11
113.5
21
-69.3598
0
LINE
8
BLACK
6
CONTINUOUS
10
113.5
20
-69.3598
11
113.411
21
-69.213
0
LINE
8
BLACK
6
CONTINUOUS
10
113.411
20
-69.213
11
113.357
21
-69.0501
0
LINE
8
BLACK
6
CONTINUOUS
10
113.357
20
-69.0501
11
113.34
21
-68.8792
0
LINE
8
BLACK
6
CONTINUOUS
10
113.34
20
-68.8792
11
113.362
21
-68.7089
0
LINE
8
BLACK
6
CONTINUOUS
10
113.362
20
-68.7089
11
113.42
21
-68.5476
0
LINE
8
BLACK
6
CONTINUOUS
10
113.42
20
-68.5476
11
113.513
21
-68.4033
0
LINE
8
BLACK
6
CONTINUOUS
10
113.513
20
-68.4033
11
113.636
21
-68.2832
0
LINE
8
BLACK
6
CONTINUOUS
10
113.636
20
-68.2832
11
113.782
21
-68.1933
0
LINE
8
BLACK
6
CONTINUOUS
10
113.782
20
-68.1933
11
113.945
21
-68.138
0
LINE
8
BLACK
6
CONTINUOUS
10
113.945
20
-68.138
11
114.115
21
-68.12
0
LINE
8
BLACK
6
CONTINUOUS
10
114.115
20
-68.12
11
114.286
21
-68.1403
0
LINE
8
BLACK
6
CONTINUOUS
10
132.066
20
-68.1403
11
132.228
21
-68.1979
0
LINE
8
BLACK
6
CONTINUOUS
10
132.228
20
-68.1979
11
132.372
21
-68.2899
0
LINE
8
BLACK
6
CONTINUOUS
10
132.372
20
-68.2899
11
132.493
21
-68.4117
0
LINE
8
BLACK
6
CONTINUOUS
10
132.493
20
-68.4117
11
132.584
21
-68.5573
0
LINE
8
BLACK
6
CONTINUOUS
10
132.584
20
-68.5573
11
132.641
21
-68.7194
0
LINE
8
BLACK
6
CONTINUOUS
10
132.641
20
-68.7194
11
132.66
21
-68.89
0
LINE
8
BLACK
6
CONTINUOUS
10
132.66
20
-68.89
11
132.66
21
-68.9115
0
LINE
8
BLACK
6
CONTINUOUS
10
132.66
20
-68.9115
11
132.636
21
-69.0815
0
LINE
8
BLACK
6
CONTINUOUS
10
132.636
20
-69.0815
11
132.575
21
-69.242
0
LINE
8
BLACK
6
CONTINUOUS
10
132.575
20
-69.242
11
132.48
21
-69.3849
0
LINE
8
BLACK
6
CONTINUOUS
10
132.48
20
-69.3849
11
132.356
21
-69.5033
0
LINE
8
BLACK
6
CONTINUOUS
10
132.356
20
-69.5033
11
132.208
21
-69.5912
0
LINE
8
BLACK
6
CONTINUOUS
10
132.208
20
-69.5912
11
132.045
21
-69.6443
0
LINE
8
BLACK
6
CONTINUOUS
10
132.045
20
-69.6443
11
131.874
21
-69.6598
0
LINE
8
BLACK
6
CONTINUOUS
10
131.874
20
-69.6598
11
131.704
21
-69.6371
0
LINE
8
BLACK
6
CONTINUOUS
10
131.704
20
-69.6371
11
131.543
21
-69.5773
0
LINE
8
BLACK
6
CONTINUOUS
10
131.543
20
-69.5773
11
131.399
21
-69.4833
0
LINE
8
BLACK
6
CONTINUOUS
10
131.399
20
-69.4833
11
131.28
21
-69.3598
0
LINE
8
BLACK
6
CONTINUOUS
10
131.28
20
-69.3598
11
131.191
21
-69.213
0
LINE
8
BLACK
6
CONTINUOUS
10
131.191
20
-69.213
11
131.137
21
-69.0501
0
LINE
8
BLACK
6
CONTINUOUS
10
131.137
20
-69.0501
11
131.12
21
-68.8792
0
LINE
8
BLACK
6
CONTINUOUS
10
131.12
20
-68.8792
11
131.142
21
-68.7089
0
LINE
8
BLACK
6
CONTINUOUS
10
131.142
20
-68.7089
11
131.2
21
-68.5476
0
LINE
8
BLACK
6
CONTINUOUS
10
131.2
20
-68.5476
11
131.293
21
-68.4033
0
LINE
8
BLACK
6
CONTINUOUS
10
131.293
20
-68.4033
11
131.416
21
-68.2832
0
LINE
8
BLACK
6
CONTINUOUS
10
131.416
20
-68.2832
11
131.562
21
-68.1933
0
LINE
8
BLACK
6
CONTINUOUS
10
131.562
20
-68.1933
11
131.725
21
-68.138
0
LINE
8
BLACK
6
CONTINUOUS
10
131.725
20
-68.138
11
131.895
21
-68.12
0
LINE
8
BLACK
6
CONTINUOUS
10
131.895
20
-68.12
11
132.066
21
-68.1403
0
LINE
8
BLACK
6
CONTINUOUS
10
141.613
20
-65.5366
11
141.775
21
-65.6089
0
LINE
8
BLACK
6
CONTINUOUS
10
141.775
20
-65.6089
11
141.919
21
-65.7133
0
LINE
8
BLACK
6
CONTINUOUS
10
141.919
20
-65.7133
11
142.038
21
-65.8454
0
LINE
8
BLACK
6
CONTINUOUS
10
142.038
20
-65.8454
11
142.127
21
-65.9993
0
LINE
8
BLACK
6
CONTINUOUS
10
142.127
20
-65.9993
11
142.181
21
-66.1683
0
LINE
8
BLACK
6
CONTINUOUS
10
142.181
20
-66.1683
11
142.2
21
-66.345
0
LINE
8
BLACK
6
CONTINUOUS
10
142.2
20
-66.345
11
142.181
21
-66.5217
0
LINE
8
BLACK
6
CONTINUOUS
10
142.181
20
-66.5217
11
142.127
21
-66.6907
0
LINE
8
BLACK
6
CONTINUOUS
10
142.127
20
-66.6907
11
142.038
21
-66.8446
0
LINE
8
BLACK
6
CONTINUOUS
10
142.038
20
-66.8446
11
141.919
21
-66.9767
0
LINE
8
BLACK
6
CONTINUOUS
10
141.919
20
-66.9767
11
141.775
21
-67.0811
0
LINE
8
BLACK
6
CONTINUOUS
10
141.775
20
-67.0811
11
141.613
21
-67.1534
0
LINE
8
BLACK
6
CONTINUOUS
10
141.613
20
-67.1534
11
141.439
21
-67.1903
0
LINE
8
BLACK
6
CONTINUOUS
10
141.439
20
-67.1903
11
141.261
21
-67.1903
0
LINE
8
BLACK
6
CONTINUOUS
10
141.261
20
-67.1903
11
141.087
21
-67.1534
0
LINE
8
BLACK
6
CONTINUOUS
10
141.087
20
-67.1534
11
140.925
21
-67.0811
0
LINE
8
BLACK
6
CONTINUOUS
10
140.925
20
-67.0811
11
140.781
21
-66.9767
0
LINE
8
BLACK
6
CONTINUOUS
10
140.781
20
-66.9767
11
140.662
21
-66.8446
0
LINE
8
BLACK
6
CONTINUOUS
10
140.662
20
-66.8446
11
140.573
21
-66.6907
0
LINE
8
BLACK
6
CONTINUOUS
10
140.573
20
-66.6907
11
140.519
21
-66.5217
0
LINE
8
BLACK
6
CONTINUOUS
10
140.519
20
-66.5217
11
140.5
21
-66.345
0
LINE
8
BLACK
6
CONTINUOUS
10
140.5
20
-66.345
11
140.519
21
-66.1683
0
LINE
8
BLACK
6
CONTINUOUS
10
140.519
20
-66.1683
11
140.573
21
-65.9993
0
LINE
8
BLACK
6
CONTINUOUS
10
140.573
20
-65.9993
11
140.662
21
-65.8454
0
LINE
8
BLACK
6
CONTINUOUS
10
140.662
20
-65.8454
11
140.781
21
-65.7133
0
LINE
8
BLACK
6
CONTINUOUS
10
140.781
20
-65.7133
11
140.925
21
-65.6089
0
LINE
8
BLACK
6
CONTINUOUS
10
140.925
20
-65.6089
11
141.087
21
-65.5366
0
LINE
8
BLACK
6
CONTINUOUS
10
141.087
20
-65.5366
11
141.261
21
-65.4997
0
LINE
8
BLACK
6
CONTINUOUS
10
141.261
20
-65.4997
11
141.439
21
-65.4997
0
LINE
8
BLACK
6
CONTINUOUS
10
141.439
20
-65.4997
11
141.613
21
-65.5366
0
LINE
8
BLACK
6
CONTINUOUS
10
144.153
20
-65.5366
11
144.315
21
-65.6089
0
LINE
8
BLACK
6
CONTINUOUS
10
144.315
20
-65.6089
11
144.459
21
-65.7133
0
LINE
8
BLACK
6
CONTINUOUS
10
144.459
20
-65.7133
11
144.578
21
-65.8454
0
LINE
8
BLACK
6
CONTINUOUS
10
144.578
20
-65.8454
11
144.667
21
-65.9993
0
LINE
8
BLACK
6
CONTINUOUS
10
144.667
20
-65.9993
11
144.721
21
-66.1683
0
LINE
8
BLACK
6
CONTINUOUS
10
144.721
20
-66.1683
11
144.74
21
-66.345
0
LINE
8
BLACK
6
CONTINUOUS
10
144.74
20
-66.345
11
144.721
21
-66.5217
0
LINE
8
BLACK
6
CONTINUOUS
10
144.721
20
-66.5217
11
144.667
21
-66.6907
0
LINE
8
BLACK
6
CONTINUOUS
10
144.667
20
-66.6907
11
144.578
21
-66.8446
0
LINE
8
BLACK
6
CONTINUOUS
10
144.578
20
-66.8446
11
144.459
21
-66.9767
0
LINE
8
BLACK
6
CONTINUOUS
10
144.459
20
-66.9767
11
144.315
21
-67.0811
0
LINE
8
BLACK
6
CONTINUOUS
10
144.315
20
-67.0811
11
144.153
21
-67.1534
0
LINE
8
BLACK
6
CONTINUOUS
10
144.153
20
-67.1534
11
143.979
21
-67.1903
0
LINE
8
BLACK
6
CONTINUOUS
10
143.979
20
-67.1903
11
143.801
21
-67.1903
0
LINE
8
BLACK
6
CONTINUOUS
10
143.801
20
-67.1903
11
143.627
21
-67.1534
0
LINE
8
BLACK
6
CONTINUOUS
10
143.627
20
-67.1534
11
143.465
21
-67.0811
0
LINE
8
BLACK
6
CONTINUOUS
10
143.465
20
-67.0811
11
143.321
21
-66.9767
0
LINE
8
BLACK
6
CONTINUOUS
10
143.321
20
-66.9767
11
143.202
21
-66.8446
0
LINE
8
BLACK
6
CONTINUOUS
10
143.202
20
-66.8446
11
143.113
21
-66.6907
0
LINE
8
BLACK
6
CONTINUOUS
10
143.113
20
-66.6907
11
143.059
21
-66.5217
0
LINE
8
BLACK
6
CONTINUOUS
10
143.059
20
-66.5217
11
143.04
21
-66.345
0
LINE
8
BLACK
6
CONTINUOUS
10
143.04
20
-66.345
11
143.059
21
-66.1683
0
LINE
8
BLACK
6
CONTINUOUS
10
143.059
20
-66.1683
11
143.113
21
-65.9993
0
LINE
8
BLACK
6
CONTINUOUS
10
143.113
20
-65.9993
11
143.202
21
-65.8454
0
LINE
8
BLACK
6
CONTINUOUS
10
143.202
20
-65.8454
11
143.321
21
-65.7133
0
LINE
8
BLACK
6
CONTINUOUS
10
143.321
20
-65.7133
11
143.465
21
-65.6089
0
LINE
8
BLACK
6
CONTINUOUS
10
143.465
20
-65.6089
11
143.627
21
-65.5366
0
LINE
8
BLACK
6
CONTINUOUS
10
143.627
20
-65.5366
11
143.801
21
-65.4997
0
LINE
8
BLACK
6
CONTINUOUS
10
143.801
20
-65.4997
11
143.979
21
-65.4997
0
LINE
8
BLACK
6
CONTINUOUS
10
143.979
20
-65.4997
11
144.153
21
-65.5366
0
LINE
8
BLACK
6
CONTINUOUS
10
114.286
20
-65.6003
11
114.448
21
-65.6579
0
LINE
8
BLACK
6
CONTINUOUS
10
114.448
20
-65.6579
11
114.592
21
-65.7499
0
LINE
8
BLACK
6
CONTINUOUS
10
114.592
20
-65.7499
11
114.713
21
-65.8717
0
LINE
8
BLACK
6
CONTINUOUS
10
114.713
20
-65.8717
11
114.804
21
-66.0173
0
LINE
8
BLACK
6
CONTINUOUS
10
114.804
20
-66.0173
11
114.861
21
-66.1794
0
LINE
8
BLACK
6
CONTINUOUS
10
114.861
20
-66.1794
11
114.88
21
-66.35
0
LINE
8
BLACK
6
CONTINUOUS
10
114.88
20
-66.35
11
114.88
21
-66.3715
0
LINE
8
BLACK
6
CONTINUOUS
10
114.88
20
-66.3715
11
114.856
21
-66.5415
0
LINE
8
BLACK
6
CONTINUOUS
10
114.856
20
-66.5415
11
114.795
21
-66.702
0
LINE
8
BLACK
6
CONTINUOUS
10
114.795
20
-66.702
11
114.7
21
-66.8449
0
LINE
8
BLACK
6
CONTINUOUS
10
114.7
20
-66.8449
11
114.576
21
-66.9633
0
LINE
8
BLACK
6
CONTINUOUS
10
114.576
20
-66.9633
11
114.428
21
-67.0512
0
LINE
8
BLACK
6
CONTINUOUS
10
114.428
20
-67.0512
11
114.265
21
-67.1043
0
LINE
8
BLACK
6
CONTINUOUS
10
114.265
20
-67.1043
11
114.094
21
-67.1198
0
LINE
8
BLACK
6
CONTINUOUS
10
114.094
20
-67.1198
11
113.924
21
-67.0971
0
LINE
8
BLACK
6
CONTINUOUS
10
113.924
20
-67.0971
11
113.763
21
-67.0373
0
LINE
8
BLACK
6
CONTINUOUS
10
113.763
20
-67.0373
11
113.619
21
-66.9433
0
LINE
8
BLACK
6
CONTINUOUS
10
113.619
20
-66.9433
11
113.5
21
-66.8198
0
LINE
8
BLACK
6
CONTINUOUS
10
113.5
20
-66.8198
11
113.411
21
-66.673
0
LINE
8
BLACK
6
CONTINUOUS
10
113.411
20
-66.673
11
113.357
21
-66.5101
0
LINE
8
BLACK
6
CONTINUOUS
10
113.357
20
-66.5101
11
113.34
21
-66.3392
0
LINE
8
BLACK
6
CONTINUOUS
10
113.34
20
-66.3392
11
113.362
21
-66.1689
0
LINE
8
BLACK
6
CONTINUOUS
10
113.362
20
-66.1689
11
113.42
21
-66.0076
0
LINE
8
BLACK
6
CONTINUOUS
10
113.42
20
-66.0076
11
113.513
21
-65.8633
0
LINE
8
BLACK
6
CONTINUOUS
10
113.513
20
-65.8633
11
113.636
21
-65.7432
0
LINE
8
BLACK
6
CONTINUOUS
10
113.636
20
-65.7432
11
113.782
21
-65.6533
0
LINE
8
BLACK
6
CONTINUOUS
10
113.782
20
-65.6533
11
113.945
21
-65.598
0
LINE
8
BLACK
6
CONTINUOUS
10
113.945
20
-65.598
11
114.115
21
-65.58
0
LINE
8
BLACK
6
CONTINUOUS
10
114.115
20
-65.58
11
114.286
21
-65.6003
0
LINE
8
BLACK
6
CONTINUOUS
10
132.066
20
-65.6003
11
132.228
21
-65.6579
0
LINE
8
BLACK
6
CONTINUOUS
10
132.228
20
-65.6579
11
132.372
21
-65.7499
0
LINE
8
BLACK
6
CONTINUOUS
10
132.372
20
-65.7499
11
132.493
21
-65.8717
0
LINE
8
BLACK
6
CONTINUOUS
10
132.493
20
-65.8717
11
132.584
21
-66.0173
0
LINE
8
BLACK
6
CONTINUOUS
10
132.584
20
-66.0173
11
132.641
21
-66.1794
0
LINE
8
BLACK
6
CONTINUOUS
10
132.641
20
-66.1794
11
132.66
21
-66.35
0
LINE
8
BLACK
6
CONTINUOUS
10
132.66
20
-66.35
11
132.66
21
-66.3715
0
LINE
8
BLACK
6
CONTINUOUS
10
132.66
20
-66.3715
11
132.636
21
-66.5415
0
LINE
8
BLACK
6
CONTINUOUS
10
132.636
20
-66.5415
11
132.575
21
-66.702
0
LINE
8
BLACK
6
CONTINUOUS
10
132.575
20
-66.702
11
132.48
21
-66.8449
0
LINE
8
BLACK
6
CONTINUOUS
10
132.48
20
-66.8449
11
132.356
21
-66.9633
0
LINE
8
BLACK
6
CONTINUOUS
10
132.356
20
-66.9633
11
132.208
21
-67.0512
0
LINE
8
BLACK
6
CONTINUOUS
10
132.208
20
-67.0512
11
132.045
21
-67.1043
0
LINE
8
BLACK
6
CONTINUOUS
10
132.045
20
-67.1043
11
131.874
21
-67.1198
0
LINE
8
BLACK
6
CONTINUOUS
10
131.874
20
-67.1198
11
131.704
21
-67.0971
0
LINE
8
BLACK
6
CONTINUOUS
10
131.704
20
-67.0971
11
131.543
21
-67.0373
0
LINE
8
BLACK
6
CONTINUOUS
10
131.543
20
-67.0373
11
131.399
21
-66.9433
0
LINE
8
BLACK
6
CONTINUOUS
10
131.399
20
-66.9433
11
131.28
21
-66.8198
0
LINE
8
BLACK
6
CONTINUOUS
10
131.28
20
-66.8198
11
131.191
21
-66.673
0
LINE
8
BLACK
6
CONTINUOUS
10
131.191
20
-66.673
11
131.137
21
-66.5101
0
LINE
8
BLACK
6
CONTINUOUS
10
131.137
20
-66.5101
11
131.12
21
-66.3392
0
LINE
8
BLACK
6
CONTINUOUS
10
131.12
20
-66.3392
11
131.142
21
-66.1689
0
LINE
8
BLACK
6
CONTINUOUS
10
131.142
20
-66.1689
11
131.2
21
-66.0076
0
LINE
8
BLACK
6
CONTINUOUS
10
131.2
20
-66.0076
11
131.293
21
-65.8633
0
LINE
8
BLACK
6
CONTINUOUS
10
131.293
20
-65.8633
11
131.416
21
-65.7432
0
LINE
8
BLACK
6
CONTINUOUS
10
131.416
20
-65.7432
11
131.562
21
-65.6533
0
LINE
8
BLACK
6
CONTINUOUS
10
131.562
20
-65.6533
11
131.725
21
-65.598
0
LINE
8
BLACK
6
CONTINUOUS
10
131.725
20
-65.598
11
131.895
21
-65.58
0
LINE
8
BLACK
6
CONTINUOUS
10
131.895
20
-65.58
11
132.066
21
-65.6003
0
LINE
8
BLACK
6
CONTINUOUS
10
141.613
20
-62.9966
11
141.775
21
-63.0689
0
LINE
8
BLACK
6
CONTINUOUS
10
141.775
20
-63.0689
11
141.919
21
-63.1733
0
LINE
8
BLACK
6
CONTINUOUS
10
141.919
20
-63.1733
11
142.038
21
-63.3054
0
LINE
8
BLACK
6
CONTINUOUS
10
142.038
20
-63.3054
11
142.127
21
-63.4593
0
LINE
8
BLACK
6
CONTINUOUS
10
142.127
20
-63.4593
11
142.181
21
-63.6283
0
LINE
8
BLACK
6
CONTINUOUS
10
142.181
20
-63.6283
11
142.2
21
-63.805
0
LINE
8
BLACK
6
CONTINUOUS
10
142.2
20
-63.805
11
142.181
21
-63.9817
0
LINE
8
BLACK
6
CONTINUOUS
10
142.181
20
-63.9817
11
142.127
21
-64.1507
0
LINE
8
BLACK
6
CONTINUOUS
10
142.127
20
-64.1507
11
142.038
21
-64.3046
0
LINE
8
BLACK
6
CONTINUOUS
10
142.038
20
-64.3046
11
141.919
21
-64.4367
0
LINE
8
BLACK
6
CONTINUOUS
10
141.919
20
-64.4367
11
141.775
21
-64.5411
0
LINE
8
BLACK
6
CONTINUOUS
10
141.775
20
-64.5411
11
141.613
21
-64.6134
0
LINE
8
BLACK
6
CONTINUOUS
10
141.613
20
-64.6134
11
141.439
21
-64.6503
0
LINE
8
BLACK
6
CONTINUOUS
10
141.439
20
-64.6503
11
141.261
21
-64.6503
0
LINE
8
BLACK
6
CONTINUOUS
10
141.261
20
-64.6503
11
141.087
21
-64.6134
0
LINE
8
BLACK
6
CONTINUOUS
10
141.087
20
-64.6134
11
140.925
21
-64.5411
0
LINE
8
BLACK
6
CONTINUOUS
10
140.925
20
-64.5411
11
140.781
21
-64.4367
0
LINE
8
BLACK
6
CONTINUOUS
10
140.781
20
-64.4367
11
140.662
21
-64.3046
0
LINE
8
BLACK
6
CONTINUOUS
10
140.662
20
-64.3046
11
140.573
21
-64.1507
0
LINE
8
BLACK
6
CONTINUOUS
10
140.573
20
-64.1507
11
140.519
21
-63.9817
0
LINE
8
BLACK
6
CONTINUOUS
10
140.519
20
-63.9817
11
140.5
21
-63.805
0
LINE
8
BLACK
6
CONTINUOUS
10
140.5
20
-63.805
11
140.519
21
-63.6283
0
LINE
8
BLACK
6
CONTINUOUS
10
140.519
20
-63.6283
11
140.573
21
-63.4593
0
LINE
8
BLACK
6
CONTINUOUS
10
140.573
20
-63.4593
11
140.662
21
-63.3054
0
LINE
8
BLACK
6
CONTINUOUS
10
140.662
20
-63.3054
11
140.781
21
-63.1733
0
LINE
8
BLACK
6
CONTINUOUS
10
140.781
20
-63.1733
11
140.925
21
-63.0689
0
LINE
8
BLACK
6
CONTINUOUS
10
140.925
20
-63.0689
11
141.087
21
-62.9966
0
LINE
8
BLACK
6
CONTINUOUS
10
141.087
20
-62.9966
11
141.261
21
-62.9597
0
LINE
8
BLACK
6
CONTINUOUS
10
141.261
20
-62.9597
11
141.439
21
-62.9597
0
LINE
8
BLACK
6
CONTINUOUS
10
141.439
20
-62.9597
11
141.613
21
-62.9966
0
LINE
8
BLACK
6
CONTINUOUS
10
144.153
20
-62.9966
11
144.315
21
-63.0689
0
LINE
8
BLACK
6
CONTINUOUS
10
144.315
20
-63.0689
11
144.459
21
-63.1733
0
LINE
8
BLACK
6
CONTINUOUS
10
144.459
20
-63.1733
11
144.578
21
-63.3054
0
LINE
8
BLACK
6
CONTINUOUS
10
144.578
20
-63.3054
11
144.667
21
-63.4593
0
LINE
8
BLACK
6
CONTINUOUS
10
144.667
20
-63.4593
11
144.721
21
-63.6283
0
LINE
8
BLACK
6
CONTINUOUS
10
144.721
20
-63.6283
11
144.74
21
-63.805
0
LINE
8
BLACK
6
CONTINUOUS
10
144.74
20
-63.805
11
144.721
21
-63.9817
0
LINE
8
BLACK
6
CONTINUOUS
10
144.721
20
-63.9817
11
144.667
21
-64.1507
0
LINE
8
BLACK
6
CONTINUOUS
10
144.667
20
-64.1507
11
144.578
21
-64.3046
0
LINE
8
BLACK
6
CONTINUOUS
10
144.578
20
-64.3046
11
144.459
21
-64.4367
0
LINE
8
BLACK
6
CONTINUOUS
10
144.459
20
-64.4367
11
144.315
21
-64.5411
0
LINE
8
BLACK
6
CONTINUOUS
10
144.315
20
-64.5411
11
144.153
21
-64.6134
0
LINE
8
BLACK
6
CONTINUOUS
10
144.153
20
-64.6134
11
143.979
21
-64.6503
0
LINE
8
BLACK
6
CONTINUOUS
10
143.979
20
-64.6503
11
143.801
21
-64.6503
0
LINE
8
BLACK
6
CONTINUOUS
10
143.801
20
-64.6503
11
143.627
21
-64.6134
0
LINE
8
BLACK
6
CONTINUOUS
10
143.627
20
-64.6134
11
143.465
21
-64.5411
0
LINE
8
BLACK
6
CONTINUOUS
10
143.465
20
-64.5411
11
143.321
21
-64.4367
0
LINE
8
BLACK
6
CONTINUOUS
10
143.321
20
-64.4367
11
143.202
21
-64.3046
0
LINE
8
BLACK
6
CONTINUOUS
10
143.202
20
-64.3046
11
143.113
21
-64.1507
0
LINE
8
BLACK
6
CONTINUOUS
10
143.113
20
-64.1507
11
143.059
21
-63.9817
0
LINE
8
BLACK
6
CONTINUOUS
10
143.059
20
-63.9817
11
143.04
21
-63.805
0
LINE
8
BLACK
6
CONTINUOUS
10
143.04
20
-63.805
11
143.059
21
-63.6283
0
LINE
8
BLACK
6
CONTINUOUS
10
143.059
20
-63.6283
11
143.113
21
-63.4593
0
LINE
8
BLACK
6
CONTINUOUS
10
143.113
20
-63.4593
11
143.202
21
-63.3054
0
LINE
8
BLACK
6
CONTINUOUS
10
143.202
20
-63.3054
11
143.321
21
-63.1733
0
LINE
8
BLACK
6
CONTINUOUS
10
143.321
20
-63.1733
11
143.465
21
-63.0689
0
LINE
8
BLACK
6
CONTINUOUS
10
143.465
20
-63.0689
11
143.627
21
-62.9966
0
LINE
8
BLACK
6
CONTINUOUS
10
143.627
20
-62.9966
11
143.801
21
-62.9597
0
LINE
8
BLACK
6
CONTINUOUS
10
143.801
20
-62.9597
11
143.979
21
-62.9597
0
LINE
8
BLACK
6
CONTINUOUS
10
143.979
20
-62.9597
11
144.153
21
-62.9966
0
LINE
8
BLACK
6
CONTINUOUS
10
114.286
20
-63.0603
11
114.448
21
-63.1179
0
LINE
8
BLACK
6
CONTINUOUS
10
114.448
20
-63.1179
11
114.592
21
-63.2099
0
LINE
8
BLACK
6
CONTINUOUS
10
114.592
20
-63.2099
11
114.713
21
-63.3317
0
LINE
8
BLACK
6
CONTINUOUS
10
114.713
20
-63.3317
11
114.804
21
-63.4773
0
LINE
8
BLACK
6
CONTINUOUS
10
114.804
20
-63.4773
11
114.861
21
-63.6394
0
LINE
8
BLACK
6
CONTINUOUS
10
114.861
20
-63.6394
11
114.88
21
-63.81
0
LINE
8
BLACK
6
CONTINUOUS
10
114.88
20
-63.81
11
114.88
21
-63.8315
0
LINE
8
BLACK
6
CONTINUOUS
10
114.88
20
-63.8315
11
114.856
21
-64.0015
0
LINE
8
BLACK
6
CONTINUOUS
10
114.856
20
-64.0015
11
114.795
21
-64.162
0
LINE
8
BLACK
6
CONTINUOUS
10
114.795
20
-64.162
11
114.7
21
-64.3049
0
LINE
8
BLACK
6
CONTINUOUS
10
114.7
20
-64.3049
11
114.576
21
-64.4233
0
LINE
8
BLACK
6
CONTINUOUS
10
114.576
20
-64.4233
11
114.428
21
-64.5112
0
LINE
8
BLACK
6
CONTINUOUS
10
114.428
20
-64.5112
11
114.265
21
-64.5643
0
LINE
8
BLACK
6
CONTINUOUS
10
114.265
20
-64.5643
11
114.094
21
-64.5798
0
LINE
8
BLACK
6
CONTINUOUS
10
114.094
20
-64.5798
11
113.924
21
-64.5571
0
LINE
8
BLACK
6
CONTINUOUS
10
113.924
20
-64.5571
11
113.763
21
-64.4973
0
LINE
8
BLACK
6
CONTINUOUS
10
113.763
20
-64.4973
11
113.619
21
-64.4033
0
LINE
8
BLACK
6
CONTINUOUS
10
113.619
20
-64.4033
11
113.5
21
-64.2798
0
LINE
8
BLACK
6
CONTINUOUS
10
113.5
20
-64.2798
11
113.411
21
-64.133
0
LINE
8
BLACK
6
CONTINUOUS
10
113.411
20
-64.133
11
113.357
21
-63.9701
0
LINE
8
BLACK
6
CONTINUOUS
10
113.357
20
-63.9701
11
113.34
21
-63.7992
0
LINE
8
BLACK
6
CONTINUOUS
10
113.34
20
-63.7992
11
113.362
21
-63.6289
0
LINE
8
BLACK
6
CONTINUOUS
10
113.362
20
-63.6289
11
113.42
21
-63.4676
0
LINE
8
BLACK
6
CONTINUOUS
10
113.42
20
-63.4676
11
113.513
21
-63.3233
0
LINE
8
BLACK
6
CONTINUOUS
10
113.513
20
-63.3233
11
113.636
21
-63.2032
0
LINE
8
BLACK
6
CONTINUOUS
10
113.636
20
-63.2032
11
113.782
21
-63.1133
0
LINE
8
BLACK
6
CONTINUOUS
10
113.782
20
-63.1133
11
113.945
21
-63.058
0
LINE
8
BLACK
6
CONTINUOUS
10
113.945
20
-63.058
11
114.115
21
-63.04
0
LINE
8
BLACK
6
CONTINUOUS
10
114.115
20
-63.04
11
114.286
21
-63.0603
0
LINE
8
BLACK
6
CONTINUOUS
10
132.066
20
-63.0603
11
132.228
21
-63.1179
0
LINE
8
BLACK
6
CONTINUOUS
10
132.228
20
-63.1179
11
132.372
21
-63.2099
0
LINE
8
BLACK
6
CONTINUOUS
10
132.372
20
-63.2099
11
132.493
21
-63.3317
0
LINE
8
BLACK
6
CONTINUOUS
10
132.493
20
-63.3317
11
132.584
21
-63.4773
0
LINE
8
BLACK
6
CONTINUOUS
10
132.584
20
-63.4773
11
132.641
21
-63.6394
0
LINE
8
BLACK
6
CONTINUOUS
10
132.641
20
-63.6394
11
132.66
21
-63.81
0
LINE
8
BLACK
6
CONTINUOUS
10
132.66
20
-63.81
11
132.66
21
-63.8315
0
LINE
8
BLACK
6
CONTINUOUS
10
132.66
20
-63.8315
11
132.636
21
-64.0015
0
LINE
8
BLACK
6
CONTINUOUS
10
132.636
20
-64.0015
11
132.575
21
-64.162
0
LINE
8
BLACK
6
CONTINUOUS
10
132.575
20
-64.162
11
132.48
21
-64.3049
0
LINE
8
BLACK
6
CONTINUOUS
10
132.48
20
-64.3049
11
132.356
21
-64.4233
0
LINE
8
BLACK
6
CONTINUOUS
10
132.356
20
-64.4233
11
132.208
21
-64.5112
0
LINE
8
BLACK
6
CONTINUOUS
10
132.208
20
-64.5112
11
132.045
21
-64.5643
0
LINE
8
BLACK
6
CONTINUOUS
10
132.045
20
-64.5643
11
131.874
21
-64.5798
0
LINE
8
BLACK
6
CONTINUOUS
10
131.874
20
-64.5798
11
131.704
21
-64.5571
0
LINE
8
BLACK
6
CONTINUOUS
10
131.704
20
-64.5571
11
131.543
21
-64.4973
0
LINE
8
BLACK
6
CONTINUOUS
10
131.543
20
-64.4973
11
131.399
21
-64.4033
0
LINE
8
BLACK
6
CONTINUOUS
10
131.399
20
-64.4033
11
131.28
21
-64.2798
0
LINE
8
BLACK
6
CONTINUOUS
10
131.28
20
-64.2798
11
131.191
21
-64.133
0
LINE
8
BLACK
6
CONTINUOUS
10
131.191
20
-64.133
11
131.137
21
-63.9701
0
LINE
8
BLACK
6
CONTINUOUS
10
131.137
20
-63.9701
11
131.12
21
-63.7992
0
LINE
8
BLACK
6
CONTINUOUS
10
131.12
20
-63.7992
11
131.142
21
-63.6289
0
LINE
8
BLACK
6
CONTINUOUS
10
131.142
20
-63.6289
11
131.2
21
-63.4676
0
LINE
8
BLACK
6
CONTINUOUS
10
131.2
20
-63.4676
11
131.293
21
-63.3233
0
LINE
8
BLACK
6
CONTINUOUS
10
131.293
20
-63.3233
11
131.416
21
-63.2032
0
LINE
8
BLACK
6
CONTINUOUS
10
131.416
20
-63.2032
11
131.562
21
-63.1133
0
LINE
8
BLACK
6
CONTINUOUS
10
131.562
20
-63.1133
11
131.725
21
-63.058
0
LINE
8
BLACK
6
CONTINUOUS
10
131.725
20
-63.058
11
131.895
21
-63.04
0
LINE
8
BLACK
6
CONTINUOUS
10
131.895
20
-63.04
11
132.066
21
-63.0603
0
LINE
8
BLACK
6
CONTINUOUS
10
141.613
20
-60.4566
11
141.775
21
-60.5289
0
LINE
8
BLACK
6
CONTINUOUS
10
141.775
20
-60.5289
11
141.919
21
-60.6333
0
LINE
8
BLACK
6
CONTINUOUS
10
141.919
20
-60.6333
11
142.038
21
-60.7654
0
LINE
8
BLACK
6
CONTINUOUS
10
142.038
20
-60.7654
11
142.127
21
-60.9193
0
LINE
8
BLACK
6
CONTINUOUS
10
142.127
20
-60.9193
11
142.181
21
-61.0883
0
LINE
8
BLACK
6
CONTINUOUS
10
142.181
20
-61.0883
11
142.2
21
-61.265
0
LINE
8
BLACK
6
CONTINUOUS
10
142.2
20
-61.265
11
142.181
21
-61.4417
0
LINE
8
BLACK
6
CONTINUOUS
10
142.181
20
-61.4417
11
142.127
21
-61.6107
0
LINE
8
BLACK
6
CONTINUOUS
10
142.127
20
-61.6107
11
142.038
21
-61.7646
0
LINE
8
BLACK
6
CONTINUOUS
10
142.038
20
-61.7646
11
141.919
21
-61.8967
0
LINE
8
BLACK
6
CONTINUOUS
10
141.919
20
-61.8967
11
141.775
21
-62.0011
0
LINE
8
BLACK
6
CONTINUOUS
10
141.775
20
-62.0011
11
141.613
21
-62.0734
0
LINE
8
BLACK
6
CONTINUOUS
10
141.613
20
-62.0734
11
141.439
21
-62.1103
0
LINE
8
BLACK
6
CONTINUOUS
10
141.439
20
-62.1103
11
141.261
21
-62.1103
0
LINE
8
BLACK
6
CONTINUOUS
10
141.261
20
-62.1103
11
141.087
21
-62.0734
0
LINE
8
BLACK
6
CONTINUOUS
10
141.087
20
-62.0734
11
140.925
21
-62.0011
0
LINE
8
BLACK
6
CONTINUOUS
10
140.925
20
-62.0011
11
140.781
21
-61.8967
0
LINE
8
BLACK
6
CONTINUOUS
10
140.781
20
-61.8967
11
140.662
21
-61.7646
0
LINE
8
BLACK
6
CONTINUOUS
10
140.662
20
-61.7646
11
140.573
21
-61.6107
0
LINE
8
BLACK
6
CONTINUOUS
10
140.573
20
-61.6107
11
140.519
21
-61.4417
0
LINE
8
BLACK
6
CONTINUOUS
10
140.519
20
-61.4417
11
140.5
21
-61.265
0
LINE
8
BLACK
6
CONTINUOUS
10
140.5
20
-61.265
11
140.519
21
-61.0883
0
LINE
8
BLACK
6
CONTINUOUS
10
140.519
20
-61.0883
11
140.573
21
-60.9193
0
LINE
8
BLACK
6
CONTINUOUS
10
140.573
20
-60.9193
11
140.662
21
-60.7654
0
LINE
8
BLACK
6
CONTINUOUS
10
140.662
20
-60.7654
11
140.781
21
-60.6333
0
LINE
8
BLACK
6
CONTINUOUS
10
140.781
20
-60.6333
11
140.925
21
-60.5289
0
LINE
8
BLACK
6
CONTINUOUS
10
140.925
20
-60.5289
11
141.087
21
-60.4566
0
LINE
8
BLACK
6
CONTINUOUS
10
141.087
20
-60.4566
11
141.261
21
-60.4197
0
LINE
8
BLACK
6
CONTINUOUS
10
141.261
20
-60.4197
11
141.439
21
-60.4197
0
LINE
8
BLACK
6
CONTINUOUS
10
141.439
20
-60.4197
11
141.613
21
-60.4566
0
LINE
8
BLACK
6
CONTINUOUS
10
144.153
20
-60.4566
11
144.315
21
-60.5289
0
LINE
8
BLACK
6
CONTINUOUS
10
144.315
20
-60.5289
11
144.459
21
-60.6333
0
LINE
8
BLACK
6
CONTINUOUS
10
144.459
20
-60.6333
11
144.578
21
-60.7654
0
LINE
8
BLACK
6
CONTINUOUS
10
144.578
20
-60.7654
11
144.667
21
-60.9193
0
LINE
8
BLACK
6
CONTINUOUS
10
144.667
20
-60.9193
11
144.721
21
-61.0883
0
LINE
8
BLACK
6
CONTINUOUS
10
144.721
20
-61.0883
11
144.74
21
-61.265
0
LINE
8
BLACK
6
CONTINUOUS
10
144.74
20
-61.265
11
144.721
21
-61.4417
0
LINE
8
BLACK
6
CONTINUOUS
10
144.721
20
-61.4417
11
144.667
21
-61.6107
0
LINE
8
BLACK
6
CONTINUOUS
10
144.667
20
-61.6107
11
144.578
21
-61.7646
0
LINE
8
BLACK
6
CONTINUOUS
10
144.578
20
-61.7646
11
144.459
21
-61.8967
0
LINE
8
BLACK
6
CONTINUOUS
10
144.459
20
-61.8967
11
144.315
21
-62.0011
0
LINE
8
BLACK
6
CONTINUOUS
10
144.315
20
-62.0011
11
144.153
21
-62.0734
0
LINE
8
BLACK
6
CONTINUOUS
10
144.153
20
-62.0734
11
143.979
21
-62.1103
0
LINE
8
BLACK
6
CONTINUOUS
10
143.979
20
-62.1103
11
143.801
21
-62.1103
0
LINE
8
BLACK
6
CONTINUOUS
10
143.801
20
-62.1103
11
143.627
21
-62.0734
0
LINE
8
BLACK
6
CONTINUOUS
10
143.627
20
-62.0734
11
143.465
21
-62.0011
0
LINE
8
BLACK
6
CONTINUOUS
10
143.465
20
-62.0011
11
143.321
21
-61.8967
0
LINE
8
BLACK
6
CONTINUOUS
10
143.321
20
-61.8967
11
143.202
21
-61.7646
0
LINE
8
BLACK
6
CONTINUOUS
10
143.202
20
-61.7646
11
143.113
21
-61.6107
0
LINE
8
BLACK
6
CONTINUOUS
10
143.113
20
-61.6107
11
143.059
21
-61.4417
0
LINE
8
BLACK
6
CONTINUOUS
10
143.059
20
-61.4417
11
143.04
21
-61.265
0
LINE
8
BLACK
6
CONTINUOUS
10
143.04
20
-61.265
11
143.059
21
-61.0883
0
LINE
8
BLACK
6
CONTINUOUS
10
143.059
20
-61.0883
11
143.113
21
-60.9193
0
LINE
8
BLACK
6
CONTINUOUS
10
143.113
20
-60.9193
11
143.202
21
-60.7654
0
LINE
8
BLACK
6
CONTINUOUS
10
143.202
20
-60.7654
11
143.321
21
-60.6333
0
LINE
8
BLACK
6
CONTINUOUS
10
143.321
20
-60.6333
11
143.465
21
-60.5289
0
LINE
8
BLACK
6
CONTINUOUS
10
143.465
20
-60.5289
11
143.627
21
-60.4566
0
LINE
8
BLACK
6
CONTINUOUS
10
143.627
20
-60.4566
11
143.801
21
-60.4197
0
LINE
8
BLACK
6
CONTINUOUS
10
143.801
20
-60.4197
11
143.979
21
-60.4197
0
LINE
8
BLACK
6
CONTINUOUS
10
143.979
20
-60.4197
11
144.153
21
-60.4566
0
LINE
8
BLACK
6
CONTINUOUS
10
132.066
20
-60.5203
11
132.228
21
-60.5779
0
LINE
8
BLACK
6
CONTINUOUS
10
132.228
20
-60.5779
11
132.372
21
-60.6699
0
LINE
8
BLACK
6
CONTINUOUS
10
132.372
20
-60.6699
11
132.493
21
-60.7917
0
LINE
8
BLACK
6
CONTINUOUS
10
132.493
20
-60.7917
11
132.584
21
-60.9373
0
LINE
8
BLACK
6
CONTINUOUS
10
132.584
20
-60.9373
11
132.641
21
-61.0994
0
LINE
8
BLACK
6
CONTINUOUS
10
132.641
20
-61.0994
11
132.66
21
-61.27
0
LINE
8
BLACK
6
CONTINUOUS
10
132.66
20
-61.27
11
132.66
21
-61.2915
0
LINE
8
BLACK
6
CONTINUOUS
10
132.66
20
-61.2915
11
132.636
21
-61.4615
0
LINE
8
BLACK
6
CONTINUOUS
10
132.636
20
-61.4615
11
132.575
21
-61.622
0
LINE
8
BLACK
6
CONTINUOUS
10
132.575
20
-61.622
11
132.48
21
-61.7649
0
LINE
8
BLACK
6
CONTINUOUS
10
132.48
20
-61.7649
11
132.356
21
-61.8833
0
LINE
8
BLACK
6
CONTINUOUS
10
132.356
20
-61.8833
11
132.208
21
-61.9712
0
LINE
8
BLACK
6
CONTINUOUS
10
132.208
20
-61.9712
11
132.045
21
-62.0243
0
LINE
8
BLACK
6
CONTINUOUS
10
132.045
20
-62.0243
11
131.874
21
-62.0398
0
LINE
8
BLACK
6
CONTINUOUS
10
131.874
20
-62.0398
11
131.704
21
-62.0171
0
LINE
8
BLACK
6
CONTINUOUS
10
131.704
20
-62.0171
11
131.543
21
-61.9573
0
LINE
8
BLACK
6
CONTINUOUS
10
131.543
20
-61.9573
11
131.399
21
-61.8633
0
LINE
8
BLACK
6
CONTINUOUS
10
131.399
20
-61.8633
11
131.28
21
-61.7398
0
LINE
8
BLACK
6
CONTINUOUS
10
131.28
20
-61.7398
11
131.191
21
-61.593
0
LINE
8
BLACK
6
CONTINUOUS
10
131.191
20
-61.593
11
131.137
21
-61.4301
0
LINE
8
BLACK
6
CONTINUOUS
10
131.137
20
-61.4301
11
131.12
21
-61.2592
0
LINE
8
BLACK
6
CONTINUOUS
10
131.12
20
-61.2592
11
131.142
21
-61.0889
0
LINE
8
BLACK
6
CONTINUOUS
10
131.142
20
-61.0889
11
131.2
21
-60.9276
0
LINE
8
BLACK
6
CONTINUOUS
10
131.2
20
-60.9276
11
131.293
21
-60.7833
0
LINE
8
BLACK
6
CONTINUOUS
10
131.293
20
-60.7833
11
131.416
21
-60.6632
0
LINE
8
BLACK
6
CONTINUOUS
10
131.416
20
-60.6632
11
131.562
21
-60.5733
0
LINE
8
BLACK
6
CONTINUOUS
10
131.562
20
-60.5733
11
131.725
21
-60.518
0
LINE
8
BLACK
6
CONTINUOUS
10
131.725
20
-60.518
11
131.895
21
-60.5
0
LINE
8
BLACK
6
CONTINUOUS
10
131.895
20
-60.5
11
132.066
21
-60.5203
0
LINE
8
BLACK
6
CONTINUOUS
10
114.286
20
-60.5203
11
114.448
21
-60.5779
0
LINE
8
BLACK
6
CONTINUOUS
10
114.448
20
-60.5779
11
114.592
21
-60.6699
0
LINE
8
BLACK
6
CONTINUOUS
10
114.592
20
-60.6699
11
114.713
21
-60.7917
0
LINE
8
BLACK
6
CONTINUOUS
10
114.713
20
-60.7917
11
114.804
21
-60.9373
0
LINE
8
BLACK
6
CONTINUOUS
10
114.804
20
-60.9373
11
114.861
21
-61.0994
0
LINE
8
BLACK
6
CONTINUOUS
10
114.861
20
-61.0994
11
114.88
21
-61.27
0
LINE
8
BLACK
6
CONTINUOUS
10
114.88
20
-61.27
11
114.88
21
-61.2915
0
LINE
8
BLACK
6
CONTINUOUS
10
114.88
20
-61.2915
11
114.856
21
-61.4615
0
LINE
8
BLACK
6
CONTINUOUS
10
114.856
20
-61.4615
11
114.795
21
-61.622
0
LINE
8
BLACK
6
CONTINUOUS
10
114.795
20
-61.622
11
114.7
21
-61.7649
0
LINE
8
BLACK
6
CONTINUOUS
10
114.7
20
-61.7649
11
114.576
21
-61.8833
0
LINE
8
BLACK
6
CONTINUOUS
10
114.576
20
-61.8833
11
114.428
21
-61.9712
0
LINE
8
BLACK
6
CONTINUOUS
10
114.428
20
-61.9712
11
114.265
21
-62.0243
0
LINE
8
BLACK
6
CONTINUOUS
10
114.265
20
-62.0243
11
114.094
21
-62.0398
0
LINE
8
BLACK
6
CONTINUOUS
10
114.094
20
-62.0398
11
113.924
21
-62.0171
0
LINE
8
BLACK
6
CONTINUOUS
10
113.924
20
-62.0171
11
113.763
21
-61.9573
0
LINE
8
BLACK
6
CONTINUOUS
10
113.763
20
-61.9573
11
113.619
21
-61.8633
0
LINE
8
BLACK
6
CONTINUOUS
10
113.619
20
-61.8633
11
113.5
21
-61.7398
0
LINE
8
BLACK
6
CONTINUOUS
10
113.5
20
-61.7398
11
113.411
21
-61.593
0
LINE
8
BLACK
6
CONTINUOUS
10
113.411
20
-61.593
11
113.357
21
-61.4301
0
LINE
8
BLACK
6
CONTINUOUS
10
113.357
20
-61.4301
11
113.34
21
-61.2592
0
LINE
8
BLACK
6
CONTINUOUS
10
113.34
20
-61.2592
11
113.362
21
-61.0889
0
LINE
8
BLACK
6
CONTINUOUS
10
113.362
20
-61.0889
11
113.42
21
-60.9276
0
LINE
8
BLACK
6
CONTINUOUS
10
113.42
20
-60.9276
11
113.513
21
-60.7833
0
LINE
8
BLACK
6
CONTINUOUS
10
113.513
20
-60.7833
11
113.636
21
-60.6632
0
LINE
8
BLACK
6
CONTINUOUS
10
113.636
20
-60.6632
11
113.782
21
-60.5733
0
LINE
8
BLACK
6
CONTINUOUS
10
113.782
20
-60.5733
11
113.945
21
-60.518
0
LINE
8
BLACK
6
CONTINUOUS
10
113.945
20
-60.518
11
114.115
21
-60.5
0
LINE
8
BLACK
6
CONTINUOUS
10
114.115
20
-60.5
11
114.286
21
-60.5203
0
LINE
8
BLACK
6
CONTINUOUS
10
141.613
20
-57.9166
11
141.775
21
-57.9889
0
LINE
8
BLACK
6
CONTINUOUS
10
141.775
20
-57.9889
11
141.919
21
-58.0933
0
LINE
8
BLACK
6
CONTINUOUS
10
141.919
20
-58.0933
11
142.038
21
-58.2254
0
LINE
8
BLACK
6
CONTINUOUS
10
142.038
20
-58.2254
11
142.127
21
-58.3793
0
LINE
8
BLACK
6
CONTINUOUS
10
142.127
20
-58.3793
11
142.181
21
-58.5483
0
LINE
8
BLACK
6
CONTINUOUS
10
142.181
20
-58.5483
11
142.2
21
-58.725
0
LINE
8
BLACK
6
CONTINUOUS
10
142.2
20
-58.725
11
142.181
21
-58.9017
0
LINE
8
BLACK
6
CONTINUOUS
10
142.181
20
-58.9017
11
142.127
21
-59.0707
0
LINE
8
BLACK
6
CONTINUOUS
10
142.127
20
-59.0707
11
142.038
21
-59.2246
0
LINE
8
BLACK
6
CONTINUOUS
10
142.038
20
-59.2246
11
141.919
21
-59.3567
0
LINE
8
BLACK
6
CONTINUOUS
10
141.919
20
-59.3567
11
141.775
21
-59.4611
0
LINE
8
BLACK
6
CONTINUOUS
10
141.775
20
-59.4611
11
141.613
21
-59.5334
0
LINE
8
BLACK
6
CONTINUOUS
10
141.613
20
-59.5334
11
141.439
21
-59.5703
0
LINE
8
BLACK
6
CONTINUOUS
10
141.439
20
-59.5703
11
141.261
21
-59.5703
0
LINE
8
BLACK
6
CONTINUOUS
10
141.261
20
-59.5703
11
141.087
21
-59.5334
0
LINE
8
BLACK
6
CONTINUOUS
10
141.087
20
-59.5334
11
140.925
21
-59.4611
0
LINE
8
BLACK
6
CONTINUOUS
10
140.925
20
-59.4611
11
140.781
21
-59.3567
0
LINE
8
BLACK
6
CONTINUOUS
10
140.781
20
-59.3567
11
140.662
21
-59.2246
0
LINE
8
BLACK
6
CONTINUOUS
10
140.662
20
-59.2246
11
140.573
21
-59.0707
0
LINE
8
BLACK
6
CONTINUOUS
10
140.573
20
-59.0707
11
140.519
21
-58.9017
0
LINE
8
BLACK
6
CONTINUOUS
10
140.519
20
-58.9017
11
140.5
21
-58.725
0
LINE
8
BLACK
6
CONTINUOUS
10
140.5
20
-58.725
11
140.519
21
-58.5483
0
LINE
8
BLACK
6
CONTINUOUS
10
140.519
20
-58.5483
11
140.573
21
-58.3793
0
LINE
8
BLACK
6
CONTINUOUS
10
140.573
20
-58.3793
11
140.662
21
-58.2254
0
LINE
8
BLACK
6
CONTINUOUS
10
140.662
20
-58.2254
11
140.781
21
-58.0933
0
LINE
8
BLACK
6
CONTINUOUS
10
140.781
20
-58.0933
11
140.925
21
-57.9889
0
LINE
8
BLACK
6
CONTINUOUS
10
140.925
20
-57.9889
11
141.087
21
-57.9166
0
LINE
8
BLACK
6
CONTINUOUS
10
141.087
20
-57.9166
11
141.261
21
-57.8797
0
LINE
8
BLACK
6
CONTINUOUS
10
141.261
20
-57.8797
11
141.439
21
-57.8797
0
LINE
8
BLACK
6
CONTINUOUS
10
141.439
20
-57.8797
11
141.613
21
-57.9166
0
LINE
8
BLACK
6
CONTINUOUS
10
144.153
20
-57.9166
11
144.315
21
-57.9889
0
LINE
8
BLACK
6
CONTINUOUS
10
144.315
20
-57.9889
11
144.459
21
-58.0933
0
LINE
8
BLACK
6
CONTINUOUS
10
144.459
20
-58.0933
11
144.578
21
-58.2254
0
LINE
8
BLACK
6
CONTINUOUS
10
144.578
20
-58.2254
11
144.667
21
-58.3793
0
LINE
8
BLACK
6
CONTINUOUS
10
144.667
20
-58.3793
11
144.721
21
-58.5483
0
LINE
8
BLACK
6
CONTINUOUS
10
144.721
20
-58.5483
11
144.74
21
-58.725
0
LINE
8
BLACK
6
CONTINUOUS
10
144.74
20
-58.725
11
144.721
21
-58.9017
0
LINE
8
BLACK
6
CONTINUOUS
10
144.721
20
-58.9017
11
144.667
21
-59.0707
0
LINE
8
BLACK
6
CONTINUOUS
10
144.667
20
-59.0707
11
144.578
21
-59.2246
0
LINE
8
BLACK
6
CONTINUOUS
10
144.578
20
-59.2246
11
144.459
21
-59.3567
0
LINE
8
BLACK
6
CONTINUOUS
10
144.459
20
-59.3567
11
144.315
21
-59.4611
0
LINE
8
BLACK
6
CONTINUOUS
10
144.315
20
-59.4611
11
144.153
21
-59.5334
0
LINE
8
BLACK
6
CONTINUOUS
10
144.153
20
-59.5334
11
143.979
21
-59.5703
0
LINE
8
BLACK
6
CONTINUOUS
10
143.979
20
-59.5703
11
143.801
21
-59.5703
0
LINE
8
BLACK
6
CONTINUOUS
10
143.801
20
-59.5703
11
143.627
21
-59.5334
0
LINE
8
BLACK
6
CONTINUOUS
10
143.627
20
-59.5334
11
143.465
21
-59.4611
0
LINE
8
BLACK
6
CONTINUOUS
10
143.465
20
-59.4611
11
143.321
21
-59.3567
0
LINE
8
BLACK
6
CONTINUOUS
10
143.321
20
-59.3567
11
143.202
21
-59.2246
0
LINE
8
BLACK
6
CONTINUOUS
10
143.202
20
-59.2246
11
143.113
21
-59.0707
0
LINE
8
BLACK
6
CONTINUOUS
10
143.113
20
-59.0707
11
143.059
21
-58.9017
0
LINE
8
BLACK
6
CONTINUOUS
10
143.059
20
-58.9017
11
143.04
21
-58.725
0
LINE
8
BLACK
6
CONTINUOUS
10
143.04
20
-58.725
11
143.059
21
-58.5483
0
LINE
8
BLACK
6
CONTINUOUS
10
143.059
20
-58.5483
11
143.113
21
-58.3793
0
LINE
8
BLACK
6
CONTINUOUS
10
143.113
20
-58.3793
11
143.202
21
-58.2254
0
LINE
8
BLACK
6
CONTINUOUS
10
143.202
20
-58.2254
11
143.321
21
-58.0933
0
LINE
8
BLACK
6
CONTINUOUS
10
143.321
20
-58.0933
11
143.465
21
-57.9889
0
LINE
8
BLACK
6
CONTINUOUS
10
143.465
20
-57.9889
11
143.627
21
-57.9166
0
LINE
8
BLACK
6
CONTINUOUS
10
143.627
20
-57.9166
11
143.801
21
-57.8797
0
LINE
8
BLACK
6
CONTINUOUS
10
143.801
20
-57.8797
11
143.979
21
-57.8797
0
LINE
8
BLACK
6
CONTINUOUS
10
143.979
20
-57.8797
11
144.153
21
-57.9166
0
LINE
8
BLACK
6
CONTINUOUS
10
132.066
20
-57.9803
11
132.228
21
-58.0379
0
LINE
8
BLACK
6
CONTINUOUS
10
132.228
20
-58.0379
11
132.372
21
-58.1299
0
LINE
8
BLACK
6
CONTINUOUS
10
132.372
20
-58.1299
11
132.493
21
-58.2517
0
LINE
8
BLACK
6
CONTINUOUS
10
132.493
20
-58.2517
11
132.584
21
-58.3973
0
LINE
8
BLACK
6
CONTINUOUS
10
132.584
20
-58.3973
11
132.641
21
-58.5594
0
LINE
8
BLACK
6
CONTINUOUS
10
132.641
20
-58.5594
11
132.66
21
-58.73
0
LINE
8
BLACK
6
CONTINUOUS
10
132.66
20
-58.73
11
132.66
21
-58.7515
0
LINE
8
BLACK
6
CONTINUOUS
10
132.66
20
-58.7515
11
132.636
21
-58.9215
0
LINE
8
BLACK
6
CONTINUOUS
10
132.636
20
-58.9215
11
132.575
21
-59.082
0
LINE
8
BLACK
6
CONTINUOUS
10
132.575
20
-59.082
11
132.48
21
-59.2249
0
LINE
8
BLACK
6
CONTINUOUS
10
132.48
20
-59.2249
11
132.356
21
-59.3433
0
LINE
8
BLACK
6
CONTINUOUS
10
132.356
20
-59.3433
11
132.208
21
-59.4312
0
LINE
8
BLACK
6
CONTINUOUS
10
132.208
20
-59.4312
11
132.045
21
-59.4843
0
LINE
8
BLACK
6
CONTINUOUS
10
132.045
20
-59.4843
11
131.874
21
-59.4998
0
LINE
8
BLACK
6
CONTINUOUS
10
131.874
20
-59.4998
11
131.704
21
-59.4771
0
LINE
8
BLACK
6
CONTINUOUS
10
131.704
20
-59.4771
11
131.543
21
-59.4173
0
LINE
8
BLACK
6
CONTINUOUS
10
131.543
20
-59.4173
11
131.399
21
-59.3233
0
LINE
8
BLACK
6
CONTINUOUS
10
131.399
20
-59.3233
11
131.28
21
-59.1998
0
LINE
8
BLACK
6
CONTINUOUS
10
131.28
20
-59.1998
11
131.191
21
-59.053
0
LINE
8
BLACK
6
CONTINUOUS
10
131.191
20
-59.053
11
131.137
21
-58.8901
0
LINE
8
BLACK
6
CONTINUOUS
10
131.137
20
-58.8901
11
131.12
21
-58.7192
0
LINE
8
BLACK
6
CONTINUOUS
10
131.12
20
-58.7192
11
131.142
21
-58.5489
0
LINE
8
BLACK
6
CONTINUOUS
10
131.142
20
-58.5489
11
131.2
21
-58.3876
0
LINE
8
BLACK
6
CONTINUOUS
10
131.2
20
-58.3876
11
131.293
21
-58.2433
0
LINE
8
BLACK
6
CONTINUOUS
10
131.293
20
-58.2433
11
131.416
21
-58.1232
0
LINE
8
BLACK
6
CONTINUOUS
10
131.416
20
-58.1232
11
131.562
21
-58.0333
0
LINE
8
BLACK
6
CONTINUOUS
10
131.562
20
-58.0333
11
131.725
21
-57.978
0
LINE
8
BLACK
6
CONTINUOUS
10
131.725
20
-57.978
11
131.895
21
-57.96
0
LINE
8
BLACK
6
CONTINUOUS
10
131.895
20
-57.96
11
132.066
21
-57.9803
0
LINE
8
BLACK
6
CONTINUOUS
10
114.286
20
-57.9803
11
114.448
21
-58.0379
0
LINE
8
BLACK
6
CONTINUOUS
10
114.448
20
-58.0379
11
114.592
21
-58.1299
0
LINE
8
BLACK
6
CONTINUOUS
10
114.592
20
-58.1299
11
114.713
21
-58.2517
0
LINE
8
BLACK
6
CONTINUOUS
10
114.713
20
-58.2517
11
114.804
21
-58.3973
0
LINE
8
BLACK
6
CONTINUOUS
10
114.804
20
-58.3973
11
114.861
21
-58.5594
0
LINE
8
BLACK
6
CONTINUOUS
10
114.861
20
-58.5594
11
114.88
21
-58.73
0
LINE
8
BLACK
6
CONTINUOUS
10
114.88
20
-58.73
11
114.88
21
-58.7515
0
LINE
8
BLACK
6
CONTINUOUS
10
114.88
20
-58.7515
11
114.856
21
-58.9215
0
LINE
8
BLACK
6
CONTINUOUS
10
114.856
20
-58.9215
11
114.795
21
-59.082
0
LINE
8
BLACK
6
CONTINUOUS
10
114.795
20
-59.082
11
114.7
21
-59.2249
0
LINE
8
BLACK
6
CONTINUOUS
10
114.7
20
-59.2249
11
114.576
21
-59.3433
0
LINE
8
BLACK
6
CONTINUOUS
10
114.576
20
-59.3433
11
114.428
21
-59.4312
0
LINE
8
BLACK
6
CONTINUOUS
10
114.428
20
-59.4312
11
114.265
21
-59.4843
0
LINE
8
BLACK
6
CONTINUOUS
10
114.265
20
-59.4843
11
114.094
21
-59.4998
0
LINE
8
BLACK
6
CONTINUOUS
10
114.094
20
-59.4998
11
113.924
21
-59.4771
0
LINE
8
BLACK
6
CONTINUOUS
10
113.924
20
-59.4771
11
113.763
21
-59.4173
0
LINE
8
BLACK
6
CONTINUOUS
10
113.763
20
-59.4173
11
113.619
21
-59.3233
0
LINE
8
BLACK
6
CONTINUOUS
10
113.619
20
-59.3233
11
113.5
21
-59.1998
0
LINE
8
BLACK
6
CONTINUOUS
10
113.5
20
-59.1998
11
113.411
21
-59.053
0
LINE
8
BLACK
6
CONTINUOUS
10
113.411
20
-59.053
11
113.357
21
-58.8901
0
LINE
8
BLACK
6
CONTINUOUS
10
113.357
20
-58.8901
11
113.34
21
-58.7192
0
LINE
8
BLACK
6
CONTINUOUS
10
113.34
20
-58.7192
11
113.362
21
-58.5489
0
LINE
8
BLACK
6
CONTINUOUS
10
113.362
20
-58.5489
11
113.42
21
-58.3876
0
LINE
8
BLACK
6
CONTINUOUS
10
113.42
20
-58.3876
11
113.513
21
-58.2433
0
LINE
8
BLACK
6
CONTINUOUS
10
113.513
20
-58.2433
11
113.636
21
-58.1232
0
LINE
8
BLACK
6
CONTINUOUS
10
113.636
20
-58.1232
11
113.782
21
-58.0333
0
LINE
8
BLACK
6
CONTINUOUS
10
113.782
20
-58.0333
11
113.945
21
-57.978
0
LINE
8
BLACK
6
CONTINUOUS
10
113.945
20
-57.978
11
114.115
21
-57.96
0
LINE
8
BLACK
6
CONTINUOUS
10
114.115
20
-57.96
11
114.286
21
-57.9803
0
LINE
8
BLACK
6
CONTINUOUS
10
144.153
20
-55.3766
11
144.315
21
-55.4489
0
LINE
8
BLACK
6
CONTINUOUS
10
144.315
20
-55.4489
11
144.459
21
-55.5533
0
LINE
8
BLACK
6
CONTINUOUS
10
144.459
20
-55.5533
11
144.578
21
-55.6854
0
LINE
8
BLACK
6
CONTINUOUS
10
144.578
20
-55.6854
11
144.667
21
-55.8393
0
LINE
8
BLACK
6
CONTINUOUS
10
144.667
20
-55.8393
11
144.721
21
-56.0083
0
LINE
8
BLACK
6
CONTINUOUS
10
144.721
20
-56.0083
11
144.74
21
-56.185
0
LINE
8
BLACK
6
CONTINUOUS
10
144.74
20
-56.185
11
144.721
21
-56.3617
0
LINE
8
BLACK
6
CONTINUOUS
10
144.721
20
-56.3617
11
144.667
21
-56.5307
0
LINE
8
BLACK
6
CONTINUOUS
10
144.667
20
-56.5307
11
144.578
21
-56.6846
0
LINE
8
BLACK
6
CONTINUOUS
10
144.578
20
-56.6846
11
144.459
21
-56.8167
0
LINE
8
BLACK
6
CONTINUOUS
10
144.459
20
-56.8167
11
144.315
21
-56.9211
0
LINE
8
BLACK
6
CONTINUOUS
10
144.315
20
-56.9211
11
144.153
21
-56.9934
0
LINE
8
BLACK
6
CONTINUOUS
10
144.153
20
-56.9934
11
143.979
21
-57.0303
0
LINE
8
BLACK
6
CONTINUOUS
10
143.979
20
-57.0303
11
143.801
21
-57.0303
0
LINE
8
BLACK
6
CONTINUOUS
10
143.801
20
-57.0303
11
143.627
21
-56.9934
0
LINE
8
BLACK
6
CONTINUOUS
10
143.627
20
-56.9934
11
143.465
21
-56.9211
0
LINE
8
BLACK
6
CONTINUOUS
10
143.465
20
-56.9211
11
143.321
21
-56.8167
0
LINE
8
BLACK
6
CONTINUOUS
10
143.321
20
-56.8167
11
143.202
21
-56.6846
0
LINE
8
BLACK
6
CONTINUOUS
10
143.202
20
-56.6846
11
143.113
21
-56.5307
0
LINE
8
BLACK
6
CONTINUOUS
10
143.113
20
-56.5307
11
143.059
21
-56.3617
0
LINE
8
BLACK
6
CONTINUOUS
10
143.059
20
-56.3617
11
143.04
21
-56.185
0
LINE
8
BLACK
6
CONTINUOUS
10
143.04
20
-56.185
11
143.059
21
-56.0083
0
LINE
8
BLACK
6
CONTINUOUS
10
143.059
20
-56.0083
11
143.113
21
-55.8393
0
LINE
8
BLACK
6
CONTINUOUS
10
143.113
20
-55.8393
11
143.202
21
-55.6854
0
LINE
8
BLACK
6
CONTINUOUS
10
143.202
20
-55.6854
11
143.321
21
-55.5533
0
LINE
8
BLACK
6
CONTINUOUS
10
143.321
20
-55.5533
11
143.465
21
-55.4489
0
LINE
8
BLACK
6
CONTINUOUS
10
143.465
20
-55.4489
11
143.627
21
-55.3766
0
LINE
8
BLACK
6
CONTINUOUS
10
143.627
20
-55.3766
11
143.801
21
-55.3397
0
LINE
8
BLACK
6
CONTINUOUS
10
143.801
20
-55.3397
11
143.979
21
-55.3397
0
LINE
8
BLACK
6
CONTINUOUS
10
143.979
20
-55.3397
11
144.153
21
-55.3766
0
LINE
8
BLACK
6
CONTINUOUS
10
141.613
20
-55.3766
11
141.775
21
-55.4489
0
LINE
8
BLACK
6
CONTINUOUS
10
141.775
20
-55.4489
11
141.919
21
-55.5533
0
LINE
8
BLACK
6
CONTINUOUS
10
141.919
20
-55.5533
11
142.038
21
-55.6854
0
LINE
8
BLACK
6
CONTINUOUS
10
142.038
20
-55.6854
11
142.127
21
-55.8393
0
LINE
8
BLACK
6
CONTINUOUS
10
142.127
20
-55.8393
11
142.181
21
-56.0083
0
LINE
8
BLACK
6
CONTINUOUS
10
142.181
20
-56.0083
11
142.2
21
-56.185
0
LINE
8
BLACK
6
CONTINUOUS
10
142.2
20
-56.185
11
142.181
21
-56.3617
0
LINE
8
BLACK
6
CONTINUOUS
10
142.181
20
-56.3617
11
142.127
21
-56.5307
0
LINE
8
BLACK
6
CONTINUOUS
10
142.127
20
-56.5307
11
142.038
21
-56.6846
0
LINE
8
BLACK
6
CONTINUOUS
10
142.038
20
-56.6846
11
141.919
21
-56.8167
0
LINE
8
BLACK
6
CONTINUOUS
10
141.919
20
-56.8167
11
141.775
21
-56.9211
0
LINE
8
BLACK
6
CONTINUOUS
10
141.775
20
-56.9211
11
141.613
21
-56.9934
0
LINE
8
BLACK
6
CONTINUOUS
10
141.613
20
-56.9934
11
141.439
21
-57.0303
0
LINE
8
BLACK
6
CONTINUOUS
10
141.439
20
-57.0303
11
141.261
21
-57.0303
0
LINE
8
BLACK
6
CONTINUOUS
10
141.261
20
-57.0303
11
141.087
21
-56.9934
0
LINE
8
BLACK
6
CONTINUOUS
10
141.087
20
-56.9934
11
140.925
21
-56.9211
0
LINE
8
BLACK
6
CONTINUOUS
10
140.925
20
-56.9211
11
140.781
21
-56.8167
0
LINE
8
BLACK
6
CONTINUOUS
10
140.781
20
-56.8167
11
140.662
21
-56.6846
0
LINE
8
BLACK
6
CONTINUOUS
10
140.662
20
-56.6846
11
140.573
21
-56.5307
0
LINE
8
BLACK
6
CONTINUOUS
10
140.573
20
-56.5307
11
140.519
21
-56.3617
0
LINE
8
BLACK
6
CONTINUOUS
10
140.519
20
-56.3617
11
140.5
21
-56.185
0
LINE
8
BLACK
6
CONTINUOUS
10
140.5
20
-56.185
11
140.519
21
-56.0083
0
LINE
8
BLACK
6
CONTINUOUS
10
140.519
20
-56.0083
11
140.573
21
-55.8393
0
LINE
8
BLACK
6
CONTINUOUS
10
140.573
20
-55.8393
11
140.662
21
-55.6854
0
LINE
8
BLACK
6
CONTINUOUS
10
140.662
20
-55.6854
11
140.781
21
-55.5533
0
LINE
8
BLACK
6
CONTINUOUS
10
140.781
20
-55.5533
11
140.925
21
-55.4489
0
LINE
8
BLACK
6
CONTINUOUS
10
140.925
20
-55.4489
11
141.087
21
-55.3766
0
LINE
8
BLACK
6
CONTINUOUS
10
141.087
20
-55.3766
11
141.261
21
-55.3397
0
LINE
8
BLACK
6
CONTINUOUS
10
141.261
20
-55.3397
11
141.439
21
-55.3397
0
LINE
8
BLACK
6
CONTINUOUS
10
141.439
20
-55.3397
11
141.613
21
-55.3766
0
LINE
8
BLACK
6
CONTINUOUS
10
132.066
20
-55.4403
11
132.228
21
-55.4979
0
LINE
8
BLACK
6
CONTINUOUS
10
132.228
20
-55.4979
11
132.372
21
-55.5899
0
LINE
8
BLACK
6
CONTINUOUS
10
132.372
20
-55.5899
11
132.493
21
-55.7117
0
LINE
8
BLACK
6
CONTINUOUS
10
132.493
20
-55.7117
11
132.584
21
-55.8573
0
LINE
8
BLACK
6
CONTINUOUS
10
132.584
20
-55.8573
11
132.641
21
-56.0194
0
LINE
8
BLACK
6
CONTINUOUS
10
132.641
20
-56.0194
11
132.66
21
-56.19
0
LINE
8
BLACK
6
CONTINUOUS
10
132.66
20
-56.19
11
132.66
21
-56.2115
0
LINE
8
BLACK
6
CONTINUOUS
10
132.66
20
-56.2115
11
132.636
21
-56.3815
0
LINE
8
BLACK
6
CONTINUOUS
10
132.636
20
-56.3815
11
132.575
21
-56.542
0
LINE
8
BLACK
6
CONTINUOUS
10
132.575
20
-56.542
11
132.48
21
-56.6849
0
LINE
8
BLACK
6
CONTINUOUS
10
132.48
20
-56.6849
11
132.356
21
-56.8033
0
LINE
8
BLACK
6
CONTINUOUS
10
132.356
20
-56.8033
11
132.208
21
-56.8912
0
LINE
8
BLACK
6
CONTINUOUS
10
132.208
20
-56.8912
11
132.045
21
-56.9443
0
LINE
8
BLACK
6
CONTINUOUS
10
132.045
20
-56.9443
11
131.874
21
-56.9598
0
LINE
8
BLACK
6
CONTINUOUS
10
131.874
20
-56.9598
11
131.704
21
-56.9371
0
LINE
8
BLACK
6
CONTINUOUS
10
131.704
20
-56.9371
11
131.543
21
-56.8773
0
LINE
8
BLACK
6
CONTINUOUS
10
131.543
20
-56.8773
11
131.399
21
-56.7833
0
LINE
8
BLACK
6
CONTINUOUS
10
131.399
20
-56.7833
11
131.28
21
-56.6598
0
LINE
8
BLACK
6
CONTINUOUS
10
131.28
20
-56.6598
11
131.191
21
-56.513
0
LINE
8
BLACK
6
CONTINUOUS
10
131.191
20
-56.513
11
131.137
21
-56.3501
0
LINE
8
BLACK
6
CONTINUOUS
10
131.137
20
-56.3501
11
131.12
21
-56.1792
0
LINE
8
BLACK
6
CONTINUOUS
10
131.12
20
-56.1792
11
131.142
21
-56.0089
0
LINE
8
BLACK
6
CONTINUOUS
10
131.142
20
-56.0089
11
131.2
21
-55.8476
0
LINE
8
BLACK
6
CONTINUOUS
10
131.2
20
-55.8476
11
131.293
21
-55.7033
0
LINE
8
BLACK
6
CONTINUOUS
10
131.293
20
-55.7033
11
131.416
21
-55.5832
0
LINE
8
BLACK
6
CONTINUOUS
10
131.416
20
-55.5832
11
131.562
21
-55.4933
0
LINE
8
BLACK
6
CONTINUOUS
10
131.562
20
-55.4933
11
131.725
21
-55.438
0
LINE
8
BLACK
6
CONTINUOUS
10
131.725
20
-55.438
11
131.895
21
-55.42
0
LINE
8
BLACK
6
CONTINUOUS
10
131.895
20
-55.42
11
132.066
21
-55.4403
0
LINE
8
BLACK
6
CONTINUOUS
10
114.286
20
-55.4403
11
114.448
21
-55.4979
0
LINE
8
BLACK
6
CONTINUOUS
10
114.448
20
-55.4979
11
114.592
21
-55.5899
0
LINE
8
BLACK
6
CONTINUOUS
10
114.592
20
-55.5899
11
114.713
21
-55.7117
0
LINE
8
BLACK
6
CONTINUOUS
10
114.713
20
-55.7117
11
114.804
21
-55.8573
0
LINE
8
BLACK
6
CONTINUOUS
10
114.804
20
-55.8573
11
114.861
21
-56.0194
0
LINE
8
BLACK
6
CONTINUOUS
10
114.861
20
-56.0194
11
114.88
21
-56.19
0
LINE
8
BLACK
6
CONTINUOUS
10
114.88
20
-56.19
11
114.88
21
-56.2115
0
LINE
8
BLACK
6
CONTINUOUS
10
114.88
20
-56.2115
11
114.856
21
-56.3815
0
LINE
8
BLACK
6
CONTINUOUS
10
114.856
20
-56.3815
11
114.795
21
-56.542
0
LINE
8
BLACK
6
CONTINUOUS
10
114.795
20
-56.542
11
114.7
21
-56.6849
0
LINE
8
BLACK
6
CONTINUOUS
10
114.7
20
-56.6849
11
114.576
21
-56.8033
0
LINE
8
BLACK
6
CONTINUOUS
10
114.576
20
-56.8033
11
114.428
21
-56.8912
0
LINE
8
BLACK
6
CONTINUOUS
10
114.428
20
-56.8912
11
114.265
21
-56.9443
0
LINE
8
BLACK
6
CONTINUOUS
10
114.265
20
-56.9443
11
114.094
21
-56.9598
0
LINE
8
BLACK
6
CONTINUOUS
10
114.094
20
-56.9598
11
113.924
21
-56.9371
0
LINE
8
BLACK
6
CONTINUOUS
10
113.924
20
-56.9371
11
113.763
21
-56.8773
0
LINE
8
BLACK
6
CONTINUOUS
10
113.763
20
-56.8773
11
113.619
21
-56.7833
0
LINE
8
BLACK
6
CONTINUOUS
10
113.619
20
-56.7833
11
113.5
21
-56.6598
0
LINE
8
BLACK
6
CONTINUOUS
10
113.5
20
-56.6598
11
113.411
21
-56.513
0
LINE
8
BLACK
6
CONTINUOUS
10
113.411
20
-56.513
11
113.357
21
-56.3501
0
LINE
8
BLACK
6
CONTINUOUS
10
113.357
20
-56.3501
11
113.34
21
-56.1792
0
LINE
8
BLACK
6
CONTINUOUS
10
113.34
20
-56.1792
11
113.362
21
-56.0089
0
LINE
8
BLACK
6
CONTINUOUS
10
113.362
20
-56.0089
11
113.42
21
-55.8476
0
LINE
8
BLACK
6
CONTINUOUS
10
113.42
20
-55.8476
11
113.513
21
-55.7033
0
LINE
8
BLACK
6
CONTINUOUS
10
113.513
20
-55.7033
11
113.636
21
-55.5832
0
LINE
8
BLACK
6
CONTINUOUS
10
113.636
20
-55.5832
11
113.782
21
-55.4933
0
LINE
8
BLACK
6
CONTINUOUS
10
113.782
20
-55.4933
11
113.945
21
-55.438
0
LINE
8
BLACK
6
CONTINUOUS
10
113.945
20
-55.438
11
114.115
21
-55.42
0
LINE
8
BLACK
6
CONTINUOUS
10
114.115
20
-55.42
11
114.286
21
-55.4403
0
LINE
8
BLACK
6
CONTINUOUS
10
141.613
20
-52.8366
11
141.775
21
-52.9089
0
LINE
8
BLACK
6
CONTINUOUS
10
141.775
20
-52.9089
11
141.919
21
-53.0133
0
LINE
8
BLACK
6
CONTINUOUS
10
141.919
20
-53.0133
11
142.038
21
-53.1454
0
LINE
8
BLACK
6
CONTINUOUS
10
142.038
20
-53.1454
11
142.127
21
-53.2993
0
LINE
8
BLACK
6
CONTINUOUS
10
142.127
20
-53.2993
11
142.181
21
-53.4683
0
LINE
8
BLACK
6
CONTINUOUS
10
142.181
20
-53.4683
11
142.2
21
-53.645
0
LINE
8
BLACK
6
CONTINUOUS
10
142.2
20
-53.645
11
142.181
21
-53.8217
0
LINE
8
BLACK
6
CONTINUOUS
10
142.181
20
-53.8217
11
142.127
21
-53.9907
0
LINE
8
BLACK
6
CONTINUOUS
10
142.127
20
-53.9907
11
142.038
21
-54.1446
0
LINE
8
BLACK
6
CONTINUOUS
10
142.038
20
-54.1446
11
141.919
21
-54.2767
0
LINE
8
BLACK
6
CONTINUOUS
10
141.919
20
-54.2767
11
141.775
21
-54.3811
0
LINE
8
BLACK
6
CONTINUOUS
10
141.775
20
-54.3811
11
141.613
21
-54.4534
0
LINE
8
BLACK
6
CONTINUOUS
10
141.613
20
-54.4534
11
141.439
21
-54.4903
0
LINE
8
BLACK
6
CONTINUOUS
10
141.439
20
-54.4903
11
141.261
21
-54.4903
0
LINE
8
BLACK
6
CONTINUOUS
10
141.261
20
-54.4903
11
141.087
21
-54.4534
0
LINE
8
BLACK
6
CONTINUOUS
10
141.087
20
-54.4534
11
140.925
21
-54.3811
0
LINE
8
BLACK
6
CONTINUOUS
10
140.925
20
-54.3811
11
140.781
21
-54.2767
0
LINE
8
BLACK
6
CONTINUOUS
10
140.781
20
-54.2767
11
140.662
21
-54.1446
0
LINE
8
BLACK
6
CONTINUOUS
10
140.662
20
-54.1446
11
140.573
21
-53.9907
0
LINE
8
BLACK
6
CONTINUOUS
10
140.573
20
-53.9907
11
140.519
21
-53.8217
0
LINE
8
BLACK
6
CONTINUOUS
10
140.519
20
-53.8217
11
140.5
21
-53.645
0
LINE
8
BLACK
6
CONTINUOUS
10
140.5
20
-53.645
11
140.519
21
-53.4683
0
LINE
8
BLACK
6
CONTINUOUS
10
140.519
20
-53.4683
11
140.573
21
-53.2993
0
LINE
8
BLACK
6
CONTINUOUS
10
140.573
20
-53.2993
11
140.662
21
-53.1454
0
LINE
8
BLACK
6
CONTINUOUS
10
140.662
20
-53.1454
11
140.781
21
-53.0133
0
LINE
8
BLACK
6
CONTINUOUS
10
140.781
20
-53.0133
11
140.925
21
-52.9089
0
LINE
8
BLACK
6
CONTINUOUS
10
140.925
20
-52.9089
11
141.087
21
-52.8366
0
LINE
8
BLACK
6
CONTINUOUS
10
141.087
20
-52.8366
11
141.261
21
-52.7997
0
LINE
8
BLACK
6
CONTINUOUS
10
141.261
20
-52.7997
11
141.439
21
-52.7997
0
LINE
8
BLACK
6
CONTINUOUS
10
141.439
20
-52.7997
11
141.613
21
-52.8366
0
LINE
8
BLACK
6
CONTINUOUS
10
144.153
20
-52.8366
11
144.315
21
-52.9089
0
LINE
8
BLACK
6
CONTINUOUS
10
144.315
20
-52.9089
11
144.459
21
-53.0133
0
LINE
8
BLACK
6
CONTINUOUS
10
144.459
20
-53.0133
11
144.578
21
-53.1454
0
LINE
8
BLACK
6
CONTINUOUS
10
144.578
20
-53.1454
11
144.667
21
-53.2993
0
LINE
8
BLACK
6
CONTINUOUS
10
144.667
20
-53.2993
11
144.721
21
-53.4683
0
LINE
8
BLACK
6
CONTINUOUS
10
144.721
20
-53.4683
11
144.74
21
-53.645
0
LINE
8
BLACK
6
CONTINUOUS
10
144.74
20
-53.645
11
144.721
21
-53.8217
0
LINE
8
BLACK
6
CONTINUOUS
10
144.721
20
-53.8217
11
144.667
21
-53.9907
0
LINE
8
BLACK
6
CONTINUOUS
10
144.667
20
-53.9907
11
144.578
21
-54.1446
0
LINE
8
BLACK
6
CONTINUOUS
10
144.578
20
-54.1446
11
144.459
21
-54.2767
0
LINE
8
BLACK
6
CONTINUOUS
10
144.459
20
-54.2767
11
144.315
21
-54.3811
0
LINE
8
BLACK
6
CONTINUOUS
10
144.315
20
-54.3811
11
144.153
21
-54.4534
0
LINE
8
BLACK
6
CONTINUOUS
10
144.153
20
-54.4534
11
143.979
21
-54.4903
0
LINE
8
BLACK
6
CONTINUOUS
10
143.979
20
-54.4903
11
143.801
21
-54.4903
0
LINE
8
BLACK
6
CONTINUOUS
10
143.801
20
-54.4903
11
143.627
21
-54.4534
0
LINE
8
BLACK
6
CONTINUOUS
10
143.627
20
-54.4534
11
143.465
21
-54.3811
0
LINE
8
BLACK
6
CONTINUOUS
10
143.465
20
-54.3811
11
143.321
21
-54.2767
0
LINE
8
BLACK
6
CONTINUOUS
10
143.321
20
-54.2767
11
143.202
21
-54.1446
0
LINE
8
BLACK
6
CONTINUOUS
10
143.202
20
-54.1446
11
143.113
21
-53.9907
0
LINE
8
BLACK
6
CONTINUOUS
10
143.113
20
-53.9907
11
143.059
21
-53.8217
0
LINE
8
BLACK
6
CONTINUOUS
10
143.059
20
-53.8217
11
143.04
21
-53.645
0
LINE
8
BLACK
6
CONTINUOUS
10
143.04
20
-53.645
11
143.059
21
-53.4683
0
LINE
8
BLACK
6
CONTINUOUS
10
143.059
20
-53.4683
11
143.113
21
-53.2993
0
LINE
8
BLACK
6
CONTINUOUS
10
143.113
20
-53.2993
11
143.202
21
-53.1454
0
LINE
8
BLACK
6
CONTINUOUS
10
143.202
20
-53.1454
11
143.321
21
-53.0133
0
LINE
8
BLACK
6
CONTINUOUS
10
143.321
20
-53.0133
11
143.465
21
-52.9089
0
LINE
8
BLACK
6
CONTINUOUS
10
143.465
20
-52.9089
11
143.627
21
-52.8366
0
LINE
8
BLACK
6
CONTINUOUS
10
143.627
20
-52.8366
11
143.801
21
-52.7997
0
LINE
8
BLACK
6
CONTINUOUS
10
143.801
20
-52.7997
11
143.979
21
-52.7997
0
LINE
8
BLACK
6
CONTINUOUS
10
143.979
20
-52.7997
11
144.153
21
-52.8366
0
LINE
8
BLACK
6
CONTINUOUS
10
114.286
20
-52.9003
11
114.448
21
-52.9579
0
LINE
8
BLACK
6
CONTINUOUS
10
114.448
20
-52.9579
11
114.592
21
-53.0499
0
LINE
8
BLACK
6
CONTINUOUS
10
114.592
20
-53.0499
11
114.713
21
-53.1717
0
LINE
8
BLACK
6
CONTINUOUS
10
114.713
20
-53.1717
11
114.804
21
-53.3173
0
LINE
8
BLACK
6
CONTINUOUS
10
114.804
20
-53.3173
11
114.861
21
-53.4794
0
LINE
8
BLACK
6
CONTINUOUS
10
114.861
20
-53.4794
11
114.88
21
-53.65
0
LINE
8
BLACK
6
CONTINUOUS
10
114.88
20
-53.65
11
114.88
21
-53.6715
0
LINE
8
BLACK
6
CONTINUOUS
10
114.88
20
-53.6715
11
114.856
21
-53.8415
0
LINE
8
BLACK
6
CONTINUOUS
10
114.856
20
-53.8415
11
114.795
21
-54.002
0
LINE
8
BLACK
6
CONTINUOUS
10
114.795
20
-54.002
11
114.7
21
-54.1449
0
LINE
8
BLACK
6
CONTINUOUS
10
114.7
20
-54.1449
11
114.576
21
-54.2633
0
LINE
8
BLACK
6
CONTINUOUS
10
114.576
20
-54.2633
11
114.428
21
-54.3512
0
LINE
8
BLACK
6
CONTINUOUS
10
114.428
20
-54.3512
11
114.265
21
-54.4043
0
LINE
8
BLACK
6
CONTINUOUS
10
114.265
20
-54.4043
11
114.094
21
-54.4198
0
LINE
8
BLACK
6
CONTINUOUS
10
114.094
20
-54.4198
11
113.924
21
-54.3971
0
LINE
8
BLACK
6
CONTINUOUS
10
113.924
20
-54.3971
11
113.763
21
-54.3373
0
LINE
8
BLACK
6
CONTINUOUS
10
113.763
20
-54.3373
11
113.619
21
-54.2433
0
LINE
8
BLACK
6
CONTINUOUS
10
113.619
20
-54.2433
11
113.5
21
-54.1198
0
LINE
8
BLACK
6
CONTINUOUS
10
113.5
20
-54.1198
11
113.411
21
-53.973
0
LINE
8
BLACK
6
CONTINUOUS
10
113.411
20
-53.973
11
113.357
21
-53.8101
0
LINE
8
BLACK
6
CONTINUOUS
10
113.357
20
-53.8101
11
113.34
21
-53.6392
0
LINE
8
BLACK
6
CONTINUOUS
10
113.34
20
-53.6392
11
113.362
21
-53.4689
0
LINE
8
BLACK
6
CONTINUOUS
10
113.362
20
-53.4689
11
113.42
21
-53.3076
0
LINE
8
BLACK
6
CONTINUOUS
10
113.42
20
-53.3076
11
113.513
21
-53.1633
0
LINE
8
BLACK
6
CONTINUOUS
10
113.513
20
-53.1633
11
113.636
21
-53.0432
0
LINE
8
BLACK
6
CONTINUOUS
10
113.636
20
-53.0432
11
113.782
21
-52.9533
0
LINE
8
BLACK
6
CONTINUOUS
10
113.782
20
-52.9533
11
113.945
21
-52.898
0
LINE
8
BLACK
6
CONTINUOUS
10
113.945
20
-52.898
11
114.115
21
-52.88
0
LINE
8
BLACK
6
CONTINUOUS
10
114.115
20
-52.88
11
114.286
21
-52.9003
0
LINE
8
BLACK
6
CONTINUOUS
10
132.066
20
-52.9003
11
132.228
21
-52.9579
0
LINE
8
BLACK
6
CONTINUOUS
10
132.228
20
-52.9579
11
132.372
21
-53.0499
0
LINE
8
BLACK
6
CONTINUOUS
10
132.372
20
-53.0499
11
132.493
21
-53.1717
0
LINE
8
BLACK
6
CONTINUOUS
10
132.493
20
-53.1717
11
132.584
21
-53.3173
0
LINE
8
BLACK
6
CONTINUOUS
10
132.584
20
-53.3173
11
132.641
21
-53.4794
0
LINE
8
BLACK
6
CONTINUOUS
10
132.641
20
-53.4794
11
132.66
21
-53.65
0
LINE
8
BLACK
6
CONTINUOUS
10
132.66
20
-53.65
11
132.66
21
-53.6715
0
LINE
8
BLACK
6
CONTINUOUS
10
132.66
20
-53.6715
11
132.636
21
-53.8415
0
LINE
8
BLACK
6
CONTINUOUS
10
132.636
20
-53.8415
11
132.575
21
-54.002
0
LINE
8
BLACK
6
CONTINUOUS
10
132.575
20
-54.002
11
132.48
21
-54.1449
0
LINE
8
BLACK
6
CONTINUOUS
10
132.48
20
-54.1449
11
132.356
21
-54.2633
0
LINE
8
BLACK
6
CONTINUOUS
10
132.356
20
-54.2633
11
132.208
21
-54.3512
0
LINE
8
BLACK
6
CONTINUOUS
10
132.208
20
-54.3512
11
132.045
21
-54.4043
0
LINE
8
BLACK
6
CONTINUOUS
10
132.045
20
-54.4043
11
131.874
21
-54.4198
0
LINE
8
BLACK
6
CONTINUOUS
10
131.874
20
-54.4198
11
131.704
21
-54.3971
0
LINE
8
BLACK
6
CONTINUOUS
10
131.704
20
-54.3971
11
131.543
21
-54.3373
0
LINE
8
BLACK
6
CONTINUOUS
10
131.543
20
-54.3373
11
131.399
21
-54.2433
0
LINE
8
BLACK
6
CONTINUOUS
10
131.399
20
-54.2433
11
131.28
21
-54.1198
0
LINE
8
BLACK
6
CONTINUOUS
10
131.28
20
-54.1198
11
131.191
21
-53.973
0
LINE
8
BLACK
6
CONTINUOUS
10
131.191
20
-53.973
11
131.137
21
-53.8101
0
LINE
8
BLACK
6
CONTINUOUS
10
131.137
20
-53.8101
11
131.12
21
-53.6392
0
LINE
8
BLACK
6
CONTINUOUS
10
131.12
20
-53.6392
11
131.142
21
-53.4689
0
LINE
8
BLACK
6
CONTINUOUS
10
131.142
20
-53.4689
11
131.2
21
-53.3076
0
LINE
8
BLACK
6
CONTINUOUS
10
131.2
20
-53.3076
11
131.293
21
-53.1633
0
LINE
8
BLACK
6
CONTINUOUS
10
131.293
20
-53.1633
11
131.416
21
-53.0432
0
LINE
8
BLACK
6
CONTINUOUS
10
131.416
20
-53.0432
11
131.562
21
-52.9533
0
LINE
8
BLACK
6
CONTINUOUS
10
131.562
20
-52.9533
11
131.725
21
-52.898
0
LINE
8
BLACK
6
CONTINUOUS
10
131.725
20
-52.898
11
131.895
21
-52.88
0
LINE
8
BLACK
6
CONTINUOUS
10
131.895
20
-52.88
11
132.066
21
-52.9003
0
LINE
8
BLACK
6
CONTINUOUS
10
141.613
20
-50.2966
11
141.775
21
-50.3689
0
LINE
8
BLACK
6
CONTINUOUS
10
141.775
20
-50.3689
11
141.919
21
-50.4733
0
LINE
8
BLACK
6
CONTINUOUS
10
141.919
20
-50.4733
11
142.038
21
-50.6054
0
LINE
8
BLACK
6
CONTINUOUS
10
142.038
20
-50.6054
11
142.127
21
-50.7593
0
LINE
8
BLACK
6
CONTINUOUS
10
142.127
20
-50.7593
11
142.181
21
-50.9283
0
LINE
8
BLACK
6
CONTINUOUS
10
142.181
20
-50.9283
11
142.2
21
-51.105
0
LINE
8
BLACK
6
CONTINUOUS
10
142.2
20
-51.105
11
142.181
21
-51.2817
0
LINE
8
BLACK
6
CONTINUOUS
10
142.181
20
-51.2817
11
142.127
21
-51.4507
0
LINE
8
BLACK
6
CONTINUOUS
10
142.127
20
-51.4507
11
142.038
21
-51.6046
0
LINE
8
BLACK
6
CONTINUOUS
10
142.038
20
-51.6046
11
141.919
21
-51.7367
0
LINE
8
BLACK
6
CONTINUOUS
10
141.919
20
-51.7367
11
141.775
21
-51.8411
0
LINE
8
BLACK
6
CONTINUOUS
10
141.775
20
-51.8411
11
141.613
21
-51.9134
0
LINE
8
BLACK
6
CONTINUOUS
10
141.613
20
-51.9134
11
141.439
21
-51.9503
0
LINE
8
BLACK
6
CONTINUOUS
10
141.439
20
-51.9503
11
141.261
21
-51.9503
0
LINE
8
BLACK
6
CONTINUOUS
10
141.261
20
-51.9503
11
141.087
21
-51.9134
0
LINE
8
BLACK
6
CONTINUOUS
10
141.087
20
-51.9134
11
140.925
21
-51.8411
0
LINE
8
BLACK
6
CONTINUOUS
10
140.925
20
-51.8411
11
140.781
21
-51.7367
0
LINE
8
BLACK
6
CONTINUOUS
10
140.781
20
-51.7367
11
140.662
21
-51.6046
0
LINE
8
BLACK
6
CONTINUOUS
10
140.662
20
-51.6046
11
140.573
21
-51.4507
0
LINE
8
BLACK
6
CONTINUOUS
10
140.573
20
-51.4507
11
140.519
21
-51.2817
0
LINE
8
BLACK
6
CONTINUOUS
10
140.519
20
-51.2817
11
140.5
21
-51.105
0
LINE
8
BLACK
6
CONTINUOUS
10
140.5
20
-51.105
11
140.519
21
-50.9283
0
LINE
8
BLACK
6
CONTINUOUS
10
140.519
20
-50.9283
11
140.573
21
-50.7593
0
LINE
8
BLACK
6
CONTINUOUS
10
140.573
20
-50.7593
11
140.662
21
-50.6054
0
LINE
8
BLACK
6
CONTINUOUS
10
140.662
20
-50.6054
11
140.781
21
-50.4733
0
LINE
8
BLACK
6
CONTINUOUS
10
140.781
20
-50.4733
11
140.925
21
-50.3689
0
LINE
8
BLACK
6
CONTINUOUS
10
140.925
20
-50.3689
11
141.087
21
-50.2966
0
LINE
8
BLACK
6
CONTINUOUS
10
141.087
20
-50.2966
11
141.261
21
-50.2597
0
LINE
8
BLACK
6
CONTINUOUS
10
141.261
20
-50.2597
11
141.439
21
-50.2597
0
LINE
8
BLACK
6
CONTINUOUS
10
141.439
20
-50.2597
11
141.613
21
-50.2966
0
LINE
8
BLACK
6
CONTINUOUS
10
144.153
20
-50.2966
11
144.315
21
-50.3689
0
LINE
8
BLACK
6
CONTINUOUS
10
144.315
20
-50.3689
11
144.459
21
-50.4733
0
LINE
8
BLACK
6
CONTINUOUS
10
144.459
20
-50.4733
11
144.578
21
-50.6054
0
LINE
8
BLACK
6
CONTINUOUS
10
144.578
20
-50.6054
11
144.667
21
-50.7593
0
LINE
8
BLACK
6
CONTINUOUS
10
144.667
20
-50.7593
11
144.721
21
-50.9283
0
LINE
8
BLACK
6
CONTINUOUS
10
144.721
20
-50.9283
11
144.74
21
-51.105
0
LINE
8
BLACK
6
CONTINUOUS
10
144.74
20
-51.105
11
144.721
21
-51.2817
0
LINE
8
BLACK
6
CONTINUOUS
10
144.721
20
-51.2817
11
144.667
21
-51.4507
0
LINE
8
BLACK
6
CONTINUOUS
10
144.667
20
-51.4507
11
144.578
21
-51.6046
0
LINE
8
BLACK
6
CONTINUOUS
10
144.578
20
-51.6046
11
144.459
21
-51.7367
0
LINE
8
BLACK
6
CONTINUOUS
10
144.459
20
-51.7367
11
144.315
21
-51.8411
0
LINE
8
BLACK
6
CONTINUOUS
10
144.315
20
-51.8411
11
144.153
21
-51.9134
0
LINE
8
BLACK
6
CONTINUOUS
10
144.153
20
-51.9134
11
143.979
21
-51.9503
0
LINE
8
BLACK
6
CONTINUOUS
10
143.979
20
-51.9503
11
143.801
21
-51.9503
0
LINE
8
BLACK
6
CONTINUOUS
10
143.801
20
-51.9503
11
143.627
21
-51.9134
0
LINE
8
BLACK
6
CONTINUOUS
10
143.627
20
-51.9134
11
143.465
21
-51.8411
0
LINE
8
BLACK
6
CONTINUOUS
10
143.465
20
-51.8411
11
143.321
21
-51.7367
0
LINE
8
BLACK
6
CONTINUOUS
10
143.321
20
-51.7367
11
143.202
21
-51.6046
0
LINE
8
BLACK
6
CONTINUOUS
10
143.202
20
-51.6046
11
143.113
21
-51.4507
0
LINE
8
BLACK
6
CONTINUOUS
10
143.113
20
-51.4507
11
143.059
21
-51.2817
0
LINE
8
BLACK
6
CONTINUOUS
10
143.059
20
-51.2817
11
143.04
21
-51.105
0
LINE
8
BLACK
6
CONTINUOUS
10
143.04
20
-51.105
11
143.059
21
-50.9283
0
LINE
8
BLACK
6
CONTINUOUS
10
143.059
20
-50.9283
11
143.113
21
-50.7593
0
LINE
8
BLACK
6
CONTINUOUS
10
143.113
20
-50.7593
11
143.202
21
-50.6054
0
LINE
8
BLACK
6
CONTINUOUS
10
143.202
20
-50.6054
11
143.321
21
-50.4733
0
LINE
8
BLACK
6
CONTINUOUS
10
143.321
20
-50.4733
11
143.465
21
-50.3689
0
LINE
8
BLACK
6
CONTINUOUS
10
143.465
20
-50.3689
11
143.627
21
-50.2966
0
LINE
8
BLACK
6
CONTINUOUS
10
143.627
20
-50.2966
11
143.801
21
-50.2597
0
LINE
8
BLACK
6
CONTINUOUS
10
143.801
20
-50.2597
11
143.979
21
-50.2597
0
LINE
8
BLACK
6
CONTINUOUS
10
143.979
20
-50.2597
11
144.153
21
-50.2966
0
LINE
8
BLACK
6
CONTINUOUS
10
114.286
20
-50.3603
11
114.448
21
-50.4179
0
LINE
8
BLACK
6
CONTINUOUS
10
114.448
20
-50.4179
11
114.592
21
-50.5099
0
LINE
8
BLACK
6
CONTINUOUS
10
114.592
20
-50.5099
11
114.713
21
-50.6317
0
LINE
8
BLACK
6
CONTINUOUS
10
114.713
20
-50.6317
11
114.804
21
-50.7773
0
LINE
8
BLACK
6
CONTINUOUS
10
114.804
20
-50.7773
11
114.861
21
-50.9394
0
LINE
8
BLACK
6
CONTINUOUS
10
114.861
20
-50.9394
11
114.88
21
-51.11
0
LINE
8
BLACK
6
CONTINUOUS
10
114.88
20
-51.11
11
114.88
21
-51.1315
0
LINE
8
BLACK
6
CONTINUOUS
10
114.88
20
-51.1315
11
114.856
21
-51.3015
0
LINE
8
BLACK
6
CONTINUOUS
10
114.856
20
-51.3015
11
114.795
21
-51.462
0
LINE
8
BLACK
6
CONTINUOUS
10
114.795
20
-51.462
11
114.7
21
-51.6049
0
LINE
8
BLACK
6
CONTINUOUS
10
114.7
20
-51.6049
11
114.576
21
-51.7233
0
LINE
8
BLACK
6
CONTINUOUS
10
114.576
20
-51.7233
11
114.428
21
-51.8112
0
LINE
8
BLACK
6
CONTINUOUS
10
114.428
20
-51.8112
11
114.265
21
-51.8643
0
LINE
8
BLACK
6
CONTINUOUS
10
114.265
20
-51.8643
11
114.094
21
-51.8798
0
LINE
8
BLACK
6
CONTINUOUS
10
114.094
20
-51.8798
11
113.924
21
-51.8571
0
LINE
8
BLACK
6
CONTINUOUS
10
113.924
20
-51.8571
11
113.763
21
-51.7973
0
LINE
8
BLACK
6
CONTINUOUS
10
113.763
20
-51.7973
11
113.619
21
-51.7033
0
LINE
8
BLACK
6
CONTINUOUS
10
113.619
20
-51.7033
11
113.5
21
-51.5798
0
LINE
8
BLACK
6
CONTINUOUS
10
113.5
20
-51.5798
11
113.411
21
-51.433
0
LINE
8
BLACK
6
CONTINUOUS
10
113.411
20
-51.433
11
113.357
21
-51.2701
0
LINE
8
BLACK
6
CONTINUOUS
10
113.357
20
-51.2701
11
113.34
21
-51.0992
0
LINE
8
BLACK
6
CONTINUOUS
10
113.34
20
-51.0992
11
113.362
21
-50.9289
0
LINE
8
BLACK
6
CONTINUOUS
10
113.362
20
-50.9289
11
113.42
21
-50.7676
0
LINE
8
BLACK
6
CONTINUOUS
10
113.42
20
-50.7676
11
113.513
21
-50.6233
0
LINE
8
BLACK
6
CONTINUOUS
10
113.513
20
-50.6233
11
113.636
21
-50.5032
0
LINE
8
BLACK
6
CONTINUOUS
10
113.636
20
-50.5032
11
113.782
21
-50.4133
0
LINE
8
BLACK
6
CONTINUOUS
10
113.782
20
-50.4133
11
113.945
21
-50.358
0
LINE
8
BLACK
6
CONTINUOUS
10
113.945
20
-50.358
11
114.115
21
-50.34
0
LINE
8
BLACK
6
CONTINUOUS
10
114.115
20
-50.34
11
114.286
21
-50.3603
0
LINE
8
BLACK
6
CONTINUOUS
10
132.066
20
-50.3603
11
132.228
21
-50.4179
0
LINE
8
BLACK
6
CONTINUOUS
10
132.228
20
-50.4179
11
132.372
21
-50.5099
0
LINE
8
BLACK
6
CONTINUOUS
10
132.372
20
-50.5099
11
132.493
21
-50.6317
0
LINE
8
BLACK
6
CONTINUOUS
10
132.493
20
-50.6317
11
132.584
21
-50.7773
0
LINE
8
BLACK
6
CONTINUOUS
10
132.584
20
-50.7773
11
132.641
21
-50.9394
0
LINE
8
BLACK
6
CONTINUOUS
10
132.641
20
-50.9394
11
132.66
21
-51.11
0
LINE
8
BLACK
6
CONTINUOUS
10
132.66
20
-51.11
11
132.66
21
-51.1315
0
LINE
8
BLACK
6
CONTINUOUS
10
132.66
20
-51.1315
11
132.636
21
-51.3015
0
LINE
8
BLACK
6
CONTINUOUS
10
132.636
20
-51.3015
11
132.575
21
-51.462
0
LINE
8
BLACK
6
CONTINUOUS
10
132.575
20
-51.462
11
132.48
21
-51.6049
0
LINE
8
BLACK
6
CONTINUOUS
10
132.48
20
-51.6049
11
132.356
21
-51.7233
0
LINE
8
BLACK
6
CONTINUOUS
10
132.356
20
-51.7233
11
132.208
21
-51.8112
0
LINE
8
BLACK
6
CONTINUOUS
10
132.208
20
-51.8112
11
132.045
21
-51.8643
0
LINE
8
BLACK
6
CONTINUOUS
10
132.045
20
-51.8643
11
131.874
21
-51.8798
0
LINE
8
BLACK
6
CONTINUOUS
10
131.874
20
-51.8798
11
131.704
21
-51.8571
0
LINE
8
BLACK
6
CONTINUOUS
10
131.704
20
-51.8571
11
131.543
21
-51.7973
0
LINE
8
BLACK
6
CONTINUOUS
10
131.543
20
-51.7973
11
131.399
21
-51.7033
0
LINE
8
BLACK
6
CONTINUOUS
10
131.399
20
-51.7033
11
131.28
21
-51.5798
0
LINE
8
BLACK
6
CONTINUOUS
10
131.28
20
-51.5798
11
131.191
21
-51.433
0
LINE
8
BLACK
6
CONTINUOUS
10
131.191
20
-51.433
11
131.137
21
-51.2701
0
LINE
8
BLACK
6
CONTINUOUS
10
131.137
20
-51.2701
11
131.12
21
-51.0992
0
LINE
8
BLACK
6
CONTINUOUS
10
131.12
20
-51.0992
11
131.142
21
-50.9289
0
LINE
8
BLACK
6
CONTINUOUS
10
131.142
20
-50.9289
11
131.2
21
-50.7676
0
LINE
8
BLACK
6
CONTINUOUS
10
131.2
20
-50.7676
11
131.293
21
-50.6233
0
LINE
8
BLACK
6
CONTINUOUS
10
131.293
20
-50.6233
11
131.416
21
-50.5032
0
LINE
8
BLACK
6
CONTINUOUS
10
131.416
20
-50.5032
11
131.562
21
-50.4133
0
LINE
8
BLACK
6
CONTINUOUS
10
131.562
20
-50.4133
11
131.725
21
-50.358
0
LINE
8
BLACK
6
CONTINUOUS
10
131.725
20
-50.358
11
131.895
21
-50.34
0
LINE
8
BLACK
6
CONTINUOUS
10
131.895
20
-50.34
11
132.066
21
-50.3603
0
LINE
8
BLACK
6
CONTINUOUS
10
141.613
20
-47.7566
11
141.775
21
-47.8289
0
LINE
8
BLACK
6
CONTINUOUS
10
141.775
20
-47.8289
11
141.919
21
-47.9333
0
LINE
8
BLACK
6
CONTINUOUS
10
141.919
20
-47.9333
11
142.038
21
-48.0654
0
LINE
8
BLACK
6
CONTINUOUS
10
142.038
20
-48.0654
11
142.127
21
-48.2193
0
LINE
8
BLACK
6
CONTINUOUS
10
142.127
20
-48.2193
11
142.181
21
-48.3883
0
LINE
8
BLACK
6
CONTINUOUS
10
142.181
20
-48.3883
11
142.2
21
-48.565
0
LINE
8
BLACK
6
CONTINUOUS
10
142.2
20
-48.565
11
142.181
21
-48.7417
0
LINE
8
BLACK
6
CONTINUOUS
10
142.181
20
-48.7417
11
142.127
21
-48.9107
0
LINE
8
BLACK
6
CONTINUOUS
10
142.127
20
-48.9107
11
142.038
21
-49.0646
0
LINE
8
BLACK
6
CONTINUOUS
10
142.038
20
-49.0646
11
141.919
21
-49.1967
0
LINE
8
BLACK
6
CONTINUOUS
10
141.919
20
-49.1967
11
141.775
21
-49.3011
0
LINE
8
BLACK
6
CONTINUOUS
10
141.775
20
-49.3011
11
141.613
21
-49.3734
0
LINE
8
BLACK
6
CONTINUOUS
10
141.613
20
-49.3734
11
141.439
21
-49.4103
0
LINE
8
BLACK
6
CONTINUOUS
10
141.439
20
-49.4103
11
141.261
21
-49.4103
0
LINE
8
BLACK
6
CONTINUOUS
10
141.261
20
-49.4103
11
141.087
21
-49.3734
0
LINE
8
BLACK
6
CONTINUOUS
10
141.087
20
-49.3734
11
140.925
21
-49.3011
0
LINE
8
BLACK
6
CONTINUOUS
10
140.925
20
-49.3011
11
140.781
21
-49.1967
0
LINE
8
BLACK
6
CONTINUOUS
10
140.781
20
-49.1967
11
140.662
21
-49.0646
0
LINE
8
BLACK
6
CONTINUOUS
10
140.662
20
-49.0646
11
140.573
21
-48.9107
0
LINE
8
BLACK
6
CONTINUOUS
10
140.573
20
-48.9107
11
140.519
21
-48.7417
0
LINE
8
BLACK
6
CONTINUOUS
10
140.519
20
-48.7417
11
140.5
21
-48.565
0
LINE
8
BLACK
6
CONTINUOUS
10
140.5
20
-48.565
11
140.519
21
-48.3883
0
LINE
8
BLACK
6
CONTINUOUS
10
140.519
20
-48.3883
11
140.573
21
-48.2193
0
LINE
8
BLACK
6
CONTINUOUS
10
140.573
20
-48.2193
11
140.662
21
-48.0654
0
LINE
8
BLACK
6
CONTINUOUS
10
140.662
20
-48.0654
11
140.781
21
-47.9333
0
LINE
8
BLACK
6
CONTINUOUS
10
140.781
20
-47.9333
11
140.925
21
-47.8289
0
LINE
8
BLACK
6
CONTINUOUS
10
140.925
20
-47.8289
11
141.087
21
-47.7566
0
LINE
8
BLACK
6
CONTINUOUS
10
141.087
20
-47.7566
11
141.261
21
-47.7197
0
LINE
8
BLACK
6
CONTINUOUS
10
141.261
20
-47.7197
11
141.439
21
-47.7197
0
LINE
8
BLACK
6
CONTINUOUS
10
141.439
20
-47.7197
11
141.613
21
-47.7566
0
LINE
8
BLACK
6
CONTINUOUS
10
144.153
20
-47.7566
11
144.315
21
-47.8289
0
LINE
8
BLACK
6
CONTINUOUS
10
144.315
20
-47.8289
11
144.459
21
-47.9333
0
LINE
8
BLACK
6
CONTINUOUS
10
144.459
20
-47.9333
11
144.578
21
-48.0654
0
LINE
8
BLACK
6
CONTINUOUS
10
144.578
20
-48.0654
11
144.667
21
-48.2193
0
LINE
8
BLACK
6
CONTINUOUS
10
144.667
20
-48.2193
11
144.721
21
-48.3883
0
LINE
8
BLACK
6
CONTINUOUS
10
144.721
20
-48.3883
11
144.74
21
-48.565
0
LINE
8
BLACK
6
CONTINUOUS
10
144.74
20
-48.565
11
144.721
21
-48.7417
0
LINE
8
BLACK
6
CONTINUOUS
10
144.721
20
-48.7417
11
144.667
21
-48.9107
0
LINE
8
BLACK
6
CONTINUOUS
10
144.667
20
-48.9107
11
144.578
21
-49.0646
0
LINE
8
BLACK
6
CONTINUOUS
10
144.578
20
-49.0646
11
144.459
21
-49.1967
0
LINE
8
BLACK
6
CONTINUOUS
10
144.459
20
-49.1967
11
144.315
21
-49.3011
0
LINE
8
BLACK
6
CONTINUOUS
10
144.315
20
-49.3011
11
144.153
21
-49.3734
0
LINE
8
BLACK
6
CONTINUOUS
10
144.153
20
-49.3734
11
143.979
21
-49.4103
0
LINE
8
BLACK
6
CONTINUOUS
10
143.979
20
-49.4103
11
143.801
21
-49.4103
0
LINE
8
BLACK
6
CONTINUOUS
10
143.801
20
-49.4103
11
143.627
21
-49.3734
0
LINE
8
BLACK
6
CONTINUOUS
10
143.627
20
-49.3734
11
143.465
21
-49.3011
0
LINE
8
BLACK
6
CONTINUOUS
10
143.465
20
-49.3011
11
143.321
21
-49.1967
0
LINE
8
BLACK
6
CONTINUOUS
10
143.321
20
-49.1967
11
143.202
21
-49.0646
0
LINE
8
BLACK
6
CONTINUOUS
10
143.202
20
-49.0646
11
143.113
21
-48.9107
0
LINE
8
BLACK
6
CONTINUOUS
10
143.113
20
-48.9107
11
143.059
21
-48.7417
0
LINE
8
BLACK
6
CONTINUOUS
10
143.059
20
-48.7417
11
143.04
21
-48.565
0
LINE
8
BLACK
6
CONTINUOUS
10
143.04
20
-48.565
11
143.059
21
-48.3883
0
LINE
8
BLACK
6
CONTINUOUS
10
143.059
20
-48.3883
11
143.113
21
-48.2193
0
LINE
8
BLACK
6
CONTINUOUS
10
143.113
20
-48.2193
11
143.202
21
-48.0654
0
LINE
8
BLACK
6
CONTINUOUS
10
143.202
20
-48.0654
11
143.321
21
-47.9333
0
LINE
8
BLACK
6
CONTINUOUS
10
143.321
20
-47.9333
11
143.465
21
-47.8289
0
LINE
8
BLACK
6
CONTINUOUS
10
143.465
20
-47.8289
11
143.627
21
-47.7566
0
LINE
8
BLACK
6
CONTINUOUS
10
143.627
20
-47.7566
11
143.801
21
-47.7197
0
LINE
8
BLACK
6
CONTINUOUS
10
143.801
20
-47.7197
11
143.979
21
-47.7197
0
LINE
8
BLACK
6
CONTINUOUS
10
143.979
20
-47.7197
11
144.153
21
-47.7566
0
LINE
8
BLACK
6
CONTINUOUS
10
114.286
20
-47.8203
11
114.448
21
-47.8779
0
LINE
8
BLACK
6
CONTINUOUS
10
114.448
20
-47.8779
11
114.592
21
-47.9699
0
LINE
8
BLACK
6
CONTINUOUS
10
114.592
20
-47.9699
11
114.713
21
-48.0917
0
LINE
8
BLACK
6
CONTINUOUS
10
114.713
20
-48.0917
11
114.804
21
-48.2373
0
LINE
8
BLACK
6
CONTINUOUS
10
114.804
20
-48.2373
11
114.861
21
-48.3994
0
LINE
8
BLACK
6
CONTINUOUS
10
114.861
20
-48.3994
11
114.88
21
-48.57
0
LINE
8
BLACK
6
CONTINUOUS
10
114.88
20
-48.57
11
114.88
21
-48.5915
0
LINE
8
BLACK
6
CONTINUOUS
10
114.88
20
-48.5915
11
114.856
21
-48.7615
0
LINE
8
BLACK
6
CONTINUOUS
10
114.856
20
-48.7615
11
114.795
21
-48.922
0
LINE
8
BLACK
6
CONTINUOUS
10
114.795
20
-48.922
11
114.7
21
-49.0649
0
LINE
8
BLACK
6
CONTINUOUS
10
114.7
20
-49.0649
11
114.576
21
-49.1833
0
LINE
8
BLACK
6
CONTINUOUS
10
114.576
20
-49.1833
11
114.428
21
-49.2712
0
LINE
8
BLACK
6
CONTINUOUS
10
114.428
20
-49.2712
11
114.265
21
-49.3243
0
LINE
8
BLACK
6
CONTINUOUS
10
114.265
20
-49.3243
11
114.094
21
-49.3398
0
LINE
8
BLACK
6
CONTINUOUS
10
114.094
20
-49.3398
11
113.924
21
-49.3171
0
LINE
8
BLACK
6
CONTINUOUS
10
113.924
20
-49.3171
11
113.763
21
-49.2573
0
LINE
8
BLACK
6
CONTINUOUS
10
113.763
20
-49.2573
11
113.619
21
-49.1633
0
LINE
8
BLACK
6
CONTINUOUS
10
113.619
20
-49.1633
11
113.5
21
-49.0398
0
LINE
8
BLACK
6
CONTINUOUS
10
113.5
20
-49.0398
11
113.411
21
-48.893
0
LINE
8
BLACK
6
CONTINUOUS
10
113.411
20
-48.893
11
113.357
21
-48.7301
0
LINE
8
BLACK
6
CONTINUOUS
10
113.357
20
-48.7301
11
113.34
21
-48.5592
0
LINE
8
BLACK
6
CONTINUOUS
10
113.34
20
-48.5592
11
113.362
21
-48.3889
0
LINE
8
BLACK
6
CONTINUOUS
10
113.362
20
-48.3889
11
113.42
21
-48.2276
0
LINE
8
BLACK
6
CONTINUOUS
10
113.42
20
-48.2276
11
113.513
21
-48.0833
0
LINE
8
BLACK
6
CONTINUOUS
10
113.513
20
-48.0833
11
113.636
21
-47.9632
0
LINE
8
BLACK
6
CONTINUOUS
10
113.636
20
-47.9632
11
113.782
21
-47.8733
0
LINE
8
BLACK
6
CONTINUOUS
10
113.782
20
-47.8733
11
113.945
21
-47.818
0
LINE
8
BLACK
6
CONTINUOUS
10
113.945
20
-47.818
11
114.115
21
-47.8
0
LINE
8
BLACK
6
CONTINUOUS
10
114.115
20
-47.8
11
114.286
21
-47.8203
0
LINE
8
BLACK
6
CONTINUOUS
10
132.066
20
-47.8203
11
132.228
21
-47.8779
0
LINE
8
BLACK
6
CONTINUOUS
10
132.228
20
-47.8779
11
132.372
21
-47.9699
0
LINE
8
BLACK
6
CONTINUOUS
10
132.372
20
-47.9699
11
132.493
21
-48.0917
0
LINE
8
BLACK
6
CONTINUOUS
10
132.493
20
-48.0917
11
132.584
21
-48.2373
0
LINE
8
BLACK
6
CONTINUOUS
10
132.584
20
-48.2373
11
132.641
21
-48.3994
0
LINE
8
BLACK
6
CONTINUOUS
10
132.641
20
-48.3994
11
132.66
21
-48.57
0
LINE
8
BLACK
6
CONTINUOUS
10
132.66
20
-48.57
11
132.66
21
-48.5915
0
LINE
8
BLACK
6
CONTINUOUS
10
132.66
20
-48.5915
11
132.636
21
-48.7615
0
LINE
8
BLACK
6
CONTINUOUS
10
132.636
20
-48.7615
11
132.575
21
-48.922
0
LINE
8
BLACK
6
CONTINUOUS
10
132.575
20
-48.922
11
132.48
21
-49.0649
0
LINE
8
BLACK
6
CONTINUOUS
10
132.48
20
-49.0649
11
132.356
21
-49.1833
0
LINE
8
BLACK
6
CONTINUOUS
10
132.356
20
-49.1833
11
132.208
21
-49.2712
0
LINE
8
BLACK
6
CONTINUOUS
10
132.208
20
-49.2712
11
132.045
21
-49.3243
0
LINE
8
BLACK
6
CONTINUOUS
10
132.045
20
-49.3243
11
131.874
21
-49.3398
0
LINE
8
BLACK
6
CONTINUOUS
10
131.874
20
-49.3398
11
131.704
21
-49.3171
0
LINE
8
BLACK
6
CONTINUOUS
10
131.704
20
-49.3171
11
131.543
21
-49.2573
0
LINE
8
BLACK
6
CONTINUOUS
10
131.543
20
-49.2573
11
131.399
21
-49.1633
0
LINE
8
BLACK
6
CONTINUOUS
10
131.399
20
-49.1633
11
131.28
21
-49.0398
0
LINE
8
BLACK
6
CONTINUOUS
10
131.28
20
-49.0398
11
131.191
21
-48.893
0
LINE
8
BLACK
6
CONTINUOUS
10
131.191
20
-48.893
11
131.137
21
-48.7301
0
LINE
8
BLACK
6
CONTINUOUS
10
131.137
20
-48.7301
11
131.12
21
-48.5592
0
LINE
8
BLACK
6
CONTINUOUS
10
131.12
20
-48.5592
11
131.142
21
-48.3889
0
LINE
8
BLACK
6
CONTINUOUS
10
131.142
20
-48.3889
11
131.2
21
-48.2276
0
LINE
8
BLACK
6
CONTINUOUS
10
131.2
20
-48.2276
11
131.293
21
-48.0833
0
LINE
8
BLACK
6
CONTINUOUS
10
131.293
20
-48.0833
11
131.416
21
-47.9632
0
LINE
8
BLACK
6
CONTINUOUS
10
131.416
20
-47.9632
11
131.562
21
-47.8733
0
LINE
8
BLACK
6
CONTINUOUS
10
131.562
20
-47.8733
11
131.725
21
-47.818
0
LINE
8
BLACK
6
CONTINUOUS
10
131.725
20
-47.818
11
131.895
21
-47.8
0
LINE
8
BLACK
6
CONTINUOUS
10
131.895
20
-47.8
11
132.066
21
-47.8203
0
LINE
8
BLACK
6
CONTINUOUS
10
114.286
20
-45.2803
11
114.448
21
-45.3379
0
LINE
8
BLACK
6
CONTINUOUS
10
114.448
20
-45.3379
11
114.592
21
-45.4299
0
LINE
8
BLACK
6
CONTINUOUS
10
114.592
20
-45.4299
11
114.713
21
-45.5517
0
LINE
8
BLACK
6
CONTINUOUS
10
114.713
20
-45.5517
11
114.804
21
-45.6973
0
LINE
8
BLACK
6
CONTINUOUS
10
114.804
20
-45.6973
11
114.861
21
-45.8594
0
LINE
8
BLACK
6
CONTINUOUS
10
114.861
20
-45.8594
11
114.88
21
-46.03
0
LINE
8
BLACK
6
CONTINUOUS
10
114.88
20
-46.03
11
114.88
21
-46.0515
0
LINE
8
BLACK
6
CONTINUOUS
10
114.88
20
-46.0515
11
114.856
21
-46.2215
0
LINE
8
BLACK
6
CONTINUOUS
10
114.856
20
-46.2215
11
114.795
21
-46.382
0
LINE
8
BLACK
6
CONTINUOUS
10
114.795
20
-46.382
11
114.7
21
-46.5249
0
LINE
8
BLACK
6
CONTINUOUS
10
114.7
20
-46.5249
11
114.576
21
-46.6433
0
LINE
8
BLACK
6
CONTINUOUS
10
114.576
20
-46.6433
11
114.428
21
-46.7312
0
LINE
8
BLACK
6
CONTINUOUS
10
114.428
20
-46.7312
11
114.265
21
-46.7843
0
LINE
8
BLACK
6
CONTINUOUS
10
114.265
20
-46.7843
11
114.094
21
-46.7998
0
LINE
8
BLACK
6
CONTINUOUS
10
114.094
20
-46.7998
11
113.924
21
-46.7771
0
LINE
8
BLACK
6
CONTINUOUS
10
113.924
20
-46.7771
11
113.763
21
-46.7173
0
LINE
8
BLACK
6
CONTINUOUS
10
113.763
20
-46.7173
11
113.619
21
-46.6233
0
LINE
8
BLACK
6
CONTINUOUS
10
113.619
20
-46.6233
11
113.5
21
-46.4998
0
LINE
8
BLACK
6
CONTINUOUS
10
113.5
20
-46.4998
11
113.411
21
-46.353
0
LINE
8
BLACK
6
CONTINUOUS
10
113.411
20
-46.353
11
113.357
21
-46.1901
0
LINE
8
BLACK
6
CONTINUOUS
10
113.357
20
-46.1901
11
113.34
21
-46.0192
0
LINE
8
BLACK
6
CONTINUOUS
10
113.34
20
-46.0192
11
113.362
21
-45.8489
0
LINE
8
BLACK
6
CONTINUOUS
10
113.362
20
-45.8489
11
113.42
21
-45.6876
0
LINE
8
BLACK
6
CONTINUOUS
10
113.42
20
-45.6876
11
113.513
21
-45.5433
0
LINE
8
BLACK
6
CONTINUOUS
10
113.513
20
-45.5433
11
113.636
21
-45.4232
0
LINE
8
BLACK
6
CONTINUOUS
10
113.636
20
-45.4232
11
113.782
21
-45.3333
0
LINE
8
BLACK
6
CONTINUOUS
10
113.782
20
-45.3333
11
113.945
21
-45.278
0
LINE
8
BLACK
6
CONTINUOUS
10
113.945
20
-45.278
11
114.115
21
-45.26
0
LINE
8
BLACK
6
CONTINUOUS
10
114.115
20
-45.26
11
114.286
21
-45.2803
0
LINE
8
BLACK
6
CONTINUOUS
10
132.066
20
-45.2803
11
132.228
21
-45.3379
0
LINE
8
BLACK
6
CONTINUOUS
10
132.228
20
-45.3379
11
132.372
21
-45.4299
0
LINE
8
BLACK
6
CONTINUOUS
10
132.372
20
-45.4299
11
132.493
21
-45.5517
0
LINE
8
BLACK
6
CONTINUOUS
10
132.493
20
-45.5517
11
132.584
21
-45.6973
0
LINE
8
BLACK
6
CONTINUOUS
10
132.584
20
-45.6973
11
132.641
21
-45.8594
0
LINE
8
BLACK
6
CONTINUOUS
10
132.641
20
-45.8594
11
132.66
21
-46.03
0
LINE
8
BLACK
6
CONTINUOUS
10
132.66
20
-46.03
11
132.66
21
-46.0515
0
LINE
8
BLACK
6
CONTINUOUS
10
132.66
20
-46.0515
11
132.636
21
-46.2215
0
LINE
8
BLACK
6
CONTINUOUS
10
132.636
20
-46.2215
11
132.575
21
-46.382
0
LINE
8
BLACK
6
CONTINUOUS
10
132.575
20
-46.382
11
132.48
21
-46.5249
0
LINE
8
BLACK
6
CONTINUOUS
10
132.48
20
-46.5249
11
132.356
21
-46.6433
0
LINE
8
BLACK
6
CONTINUOUS
10
132.356
20
-46.6433
11
132.208
21
-46.7312
0
LINE
8
BLACK
6
CONTINUOUS
10
132.208
20
-46.7312
11
132.045
21
-46.7843
0
LINE
8
BLACK
6
CONTINUOUS
10
132.045
20
-46.7843
11
131.874
21
-46.7998
0
LINE
8
BLACK
6
CONTINUOUS
10
131.874
20
-46.7998
11
131.704
21
-46.7771
0
LINE
8
BLACK
6
CONTINUOUS
10
131.704
20
-46.7771
11
131.543
21
-46.7173
0
LINE
8
BLACK
6
CONTINUOUS
10
131.543
20
-46.7173
11
131.399
21
-46.6233
0
LINE
8
BLACK
6
CONTINUOUS
10
131.399
20
-46.6233
11
131.28
21
-46.4998
0
LINE
8
BLACK
6
CONTINUOUS
10
131.28
20
-46.4998
11
131.191
21
-46.353
0
LINE
8
BLACK
6
CONTINUOUS
10
131.191
20
-46.353
11
131.137
21
-46.1901
0
LINE
8
BLACK
6
CONTINUOUS
10
131.137
20
-46.1901
11
131.12
21
-46.0192
0
LINE
8
BLACK
6
CONTINUOUS
10
131.12
20
-46.0192
11
131.142
21
-45.8489
0
LINE
8
BLACK
6
CONTINUOUS
10
131.142
20
-45.8489
11
131.2
21
-45.6876
0
LINE
8
BLACK
6
CONTINUOUS
10
131.2
20
-45.6876
11
131.293
21
-45.5433
0
LINE
8
BLACK
6
CONTINUOUS
10
131.293
20
-45.5433
11
131.416
21
-45.4232
0
LINE
8
BLACK
6
CONTINUOUS
10
131.416
20
-45.4232
11
131.562
21
-45.3333
0
LINE
8
BLACK
6
CONTINUOUS
10
131.562
20
-45.3333
11
131.725
21
-45.278
0
LINE
8
BLACK
6
CONTINUOUS
10
131.725
20
-45.278
11
131.895
21
-45.26
0
LINE
8
BLACK
6
CONTINUOUS
10
131.895
20
-45.26
11
132.066
21
-45.2803
0
LINE
8
BLACK
6
CONTINUOUS
10
114.286
20
-42.7403
11
114.448
21
-42.7979
0
LINE
8
BLACK
6
CONTINUOUS
10
114.448
20
-42.7979
11
114.592
21
-42.8899
0
LINE
8
BLACK
6
CONTINUOUS
10
114.592
20
-42.8899
11
114.713
21
-43.0117
0
LINE
8
BLACK
6
CONTINUOUS
10
114.713
20
-43.0117
11
114.804
21
-43.1573
0
LINE
8
BLACK
6
CONTINUOUS
10
114.804
20
-43.1573
11
114.861
21
-43.3194
0
LINE
8
BLACK
6
CONTINUOUS
10
114.861
20
-43.3194
11
114.88
21
-43.49
0
LINE
8
BLACK
6
CONTINUOUS
10
114.88
20
-43.49
11
114.88
21
-43.5115
0
LINE
8
BLACK
6
CONTINUOUS
10
114.88
20
-43.5115
11
114.856
21
-43.6815
0
LINE
8
BLACK
6
CONTINUOUS
10
114.856
20
-43.6815
11
114.795
21
-43.842
0
LINE
8
BLACK
6
CONTINUOUS
10
114.795
20
-43.842
11
114.7
21
-43.9849
0
LINE
8
BLACK
6
CONTINUOUS
10
114.7
20
-43.9849
11
114.576
21
-44.1033
0
LINE
8
BLACK
6
CONTINUOUS
10
114.576
20
-44.1033
11
114.428
21
-44.1912
0
LINE
8
BLACK
6
CONTINUOUS
10
114.428
20
-44.1912
11
114.265
21
-44.2443
0
LINE
8
BLACK
6
CONTINUOUS
10
114.265
20
-44.2443
11
114.094
21
-44.2598
0
LINE
8
BLACK
6
CONTINUOUS
10
114.094
20
-44.2598
11
113.924
21
-44.2371
0
LINE
8
BLACK
6
CONTINUOUS
10
113.924
20
-44.2371
11
113.763
21
-44.1773
0
LINE
8
BLACK
6
CONTINUOUS
10
113.763
20
-44.1773
11
113.619
21
-44.0833
0
LINE
8
BLACK
6
CONTINUOUS
10
113.619
20
-44.0833
11
113.5
21
-43.9598
0
LINE
8
BLACK
6
CONTINUOUS
10
113.5
20
-43.9598
11
113.411
21
-43.813
0
LINE
8
BLACK
6
CONTINUOUS
10
113.411
20
-43.813
11
113.357
21
-43.6501
0
LINE
8
BLACK
6
CONTINUOUS
10
113.357
20
-43.6501
11
113.34
21
-43.4792
0
LINE
8
BLACK
6
CONTINUOUS
10
113.34
20
-43.4792
11
113.362
21
-43.3089
0
LINE
8
BLACK
6
CONTINUOUS
10
113.362
20
-43.3089
11
113.42
21
-43.1476
0
LINE
8
BLACK
6
CONTINUOUS
10
113.42
20
-43.1476
11
113.513
21
-43.0033
0
LINE
8
BLACK
6
CONTINUOUS
10
113.513
20
-43.0033
11
113.636
21
-42.8832
0
LINE
8
BLACK
6
CONTINUOUS
10
113.636
20
-42.8832
11
113.782
21
-42.7933
0
LINE
8
BLACK
6
CONTINUOUS
10
113.782
20
-42.7933
11
113.945
21
-42.738
0
LINE
8
BLACK
6
CONTINUOUS
10
113.945
20
-42.738
11
114.115
21
-42.72
0
LINE
8
BLACK
6
CONTINUOUS
10
114.115
20
-42.72
11
114.286
21
-42.7403
0
LINE
8
BLACK
6
CONTINUOUS
10
132.066
20
-42.7403
11
132.228
21
-42.7979
0
LINE
8
BLACK
6
CONTINUOUS
10
132.228
20
-42.7979
11
132.372
21
-42.8899
0
LINE
8
BLACK
6
CONTINUOUS
10
132.372
20
-42.8899
11
132.493
21
-43.0117
0
LINE
8
BLACK
6
CONTINUOUS
10
132.493
20
-43.0117
11
132.584
21
-43.1573
0
LINE
8
BLACK
6
CONTINUOUS
10
132.584
20
-43.1573
11
132.641
21
-43.3194
0
LINE
8
BLACK
6
CONTINUOUS
10
132.641
20
-43.3194
11
132.66
21
-43.49
0
LINE
8
BLACK
6
CONTINUOUS
10
132.66
20
-43.49
11
132.66
21
-43.5115
0
LINE
8
BLACK
6
CONTINUOUS
10
132.66
20
-43.5115
11
132.636
21
-43.6815
0
LINE
8
BLACK
6
CONTINUOUS
10
132.636
20
-43.6815
11
132.575
21
-43.842
0
LINE
8
BLACK
6
CONTINUOUS
10
132.575
20
-43.842
11
132.48
21
-43.9849
0
LINE
8
BLACK
6
CONTINUOUS
10
132.48
20
-43.9849
11
132.356
21
-44.1033
0
LINE
8
BLACK
6
CONTINUOUS
10
132.356
20
-44.1033
11
132.208
21
-44.1912
0
LINE
8
BLACK
6
CONTINUOUS
10
132.208
20
-44.1912
11
132.045
21
-44.2443
0
LINE
8
BLACK
6
CONTINUOUS
10
132.045
20
-44.2443
11
131.874
21
-44.2598
0
LINE
8
BLACK
6
CONTINUOUS
10
131.874
20
-44.2598
11
131.704
21
-44.2371
0
LINE
8
BLACK
6
CONTINUOUS
10
131.704
20
-44.2371
11
131.543
21
-44.1773
0
LINE
8
BLACK
6
CONTINUOUS
10
131.543
20
-44.1773
11
131.399
21
-44.0833
0
LINE
8
BLACK
6
CONTINUOUS
10
131.399
20
-44.0833
11
131.28
21
-43.9598
0
LINE
8
BLACK
6
CONTINUOUS
10
131.28
20
-43.9598
11
131.191
21
-43.813
0
LINE
8
BLACK
6
CONTINUOUS
10
131.191
20
-43.813
11
131.137
21
-43.6501
0
LINE
8
BLACK
6
CONTINUOUS
10
131.137
20
-43.6501
11
131.12
21
-43.4792
0
LINE
8
BLACK
6
CONTINUOUS
10
131.12
20
-43.4792
11
131.142
21
-43.3089
0
LINE
8
BLACK
6
CONTINUOUS
10
131.142
20
-43.3089
11
131.2
21
-43.1476
0
LINE
8
BLACK
6
CONTINUOUS
10
131.2
20
-43.1476
11
131.293
21
-43.0033
0
LINE
8
BLACK
6
CONTINUOUS
10
131.293
20
-43.0033
11
131.416
21
-42.8832
0
LINE
8
BLACK
6
CONTINUOUS
10
131.416
20
-42.8832
11
131.562
21
-42.7933
0
LINE
8
BLACK
6
CONTINUOUS
10
131.562
20
-42.7933
11
131.725
21
-42.738
0
LINE
8
BLACK
6
CONTINUOUS
10
131.725
20
-42.738
11
131.895
21
-42.72
0
LINE
8
BLACK
6
CONTINUOUS
10
131.895
20
-42.72
11
132.066
21
-42.7403
0
LINE
8
BLACK
6
CONTINUOUS
10
132.066
20
-40.2003
11
132.228
21
-40.2579
0
LINE
8
BLACK
6
CONTINUOUS
10
132.228
20
-40.2579
11
132.372
21
-40.3499
0
LINE
8
BLACK
6
CONTINUOUS
10
132.372
20
-40.3499
11
132.493
21
-40.4717
0
LINE
8
BLACK
6
CONTINUOUS
10
132.493
20
-40.4717
11
132.584
21
-40.6173
0
LINE
8
BLACK
6
CONTINUOUS
10
132.584
20
-40.6173
11
132.641
21
-40.7794
0
LINE
8
BLACK
6
CONTINUOUS
10
132.641
20
-40.7794
11
132.66
21
-40.95
0
LINE
8
BLACK
6
CONTINUOUS
10
132.66
20
-40.95
11
132.66
21
-40.9715
0
LINE
8
BLACK
6
CONTINUOUS
10
132.66
20
-40.9715
11
132.636
21
-41.1415
0
LINE
8
BLACK
6
CONTINUOUS
10
132.636
20
-41.1415
11
132.575
21
-41.302
0
LINE
8
BLACK
6
CONTINUOUS
10
132.575
20
-41.302
11
132.48
21
-41.4449
0
LINE
8
BLACK
6
CONTINUOUS
10
132.48
20
-41.4449
11
132.356
21
-41.5633
0
LINE
8
BLACK
6
CONTINUOUS
10
132.356
20
-41.5633
11
132.208
21
-41.6512
0
LINE
8
BLACK
6
CONTINUOUS
10
132.208
20
-41.6512
11
132.045
21
-41.7043
0
LINE
8
BLACK
6
CONTINUOUS
10
132.045
20
-41.7043
11
131.874
21
-41.7198
0
LINE
8
BLACK
6
CONTINUOUS
10
131.874
20
-41.7198
11
131.704
21
-41.6971
0
LINE
8
BLACK
6
CONTINUOUS
10
131.704
20
-41.6971
11
131.543
21
-41.6373
0
LINE
8
BLACK
6
CONTINUOUS
10
131.543
20
-41.6373
11
131.399
21
-41.5433
0
LINE
8
BLACK
6
CONTINUOUS
10
131.399
20
-41.5433
11
131.28
21
-41.4198
0
LINE
8
BLACK
6
CONTINUOUS
10
131.28
20
-41.4198
11
131.191
21
-41.273
0
LINE
8
BLACK
6
CONTINUOUS
10
131.191
20
-41.273
11
131.137
21
-41.1101
0
LINE
8
BLACK
6
CONTINUOUS
10
131.137
20
-41.1101
11
131.12
21
-40.9392
0
LINE
8
BLACK
6
CONTINUOUS
10
131.12
20
-40.9392
11
131.142
21
-40.7689
0
LINE
8
BLACK
6
CONTINUOUS
10
131.142
20
-40.7689
11
131.2
21
-40.6076
0
LINE
8
BLACK
6
CONTINUOUS
10
131.2
20
-40.6076
11
131.293
21
-40.4633
0
LINE
8
BLACK
6
CONTINUOUS
10
131.293
20
-40.4633
11
131.416
21
-40.3432
0
LINE
8
BLACK
6
CONTINUOUS
10
131.416
20
-40.3432
11
131.562
21
-40.2533
0
LINE
8
BLACK
6
CONTINUOUS
10
131.562
20
-40.2533
11
131.725
21
-40.198
0
LINE
8
BLACK
6
CONTINUOUS
10
131.725
20
-40.198
11
131.895
21
-40.18
0
LINE
8
BLACK
6
CONTINUOUS
10
131.895
20
-40.18
11
132.066
21
-40.2003
0
LINE
8
BLACK
6
CONTINUOUS
10
114.286
20
-40.2003
11
114.448
21
-40.2579
0
LINE
8
BLACK
6
CONTINUOUS
10
114.448
20
-40.2579
11
114.592
21
-40.3499
0
LINE
8
BLACK
6
CONTINUOUS
10
114.592
20
-40.3499
11
114.713
21
-40.4717
0
LINE
8
BLACK
6
CONTINUOUS
10
114.713
20
-40.4717
11
114.804
21
-40.6173
0
LINE
8
BLACK
6
CONTINUOUS
10
114.804
20
-40.6173
11
114.861
21
-40.7794
0
LINE
8
BLACK
6
CONTINUOUS
10
114.861
20
-40.7794
11
114.88
21
-40.95
0
LINE
8
BLACK
6
CONTINUOUS
10
114.88
20
-40.95
11
114.88
21
-40.9715
0
LINE
8
BLACK
6
CONTINUOUS
10
114.88
20
-40.9715
11
114.856
21
-41.1415
0
LINE
8
BLACK
6
CONTINUOUS
10
114.856
20
-41.1415
11
114.795
21
-41.302
0
LINE
8
BLACK
6
CONTINUOUS
10
114.795
20
-41.302
11
114.7
21
-41.4449
0
LINE
8
BLACK
6
CONTINUOUS
10
114.7
20
-41.4449
11
114.576
21
-41.5633
0
LINE
8
BLACK
6
CONTINUOUS
10
114.576
20
-41.5633
11
114.428
21
-41.6512
0
LINE
8
BLACK
6
CONTINUOUS
10
114.428
20
-41.6512
11
114.265
21
-41.7043
0
LINE
8
BLACK
6
CONTINUOUS
10
114.265
20
-41.7043
11
114.094
21
-41.7198
0
LINE
8
BLACK
6
CONTINUOUS
10
114.094
20
-41.7198
11
113.924
21
-41.6971
0
LINE
8
BLACK
6
CONTINUOUS
10
113.924
20
-41.6971
11
113.763
21
-41.6373
0
LINE
8
BLACK
6
CONTINUOUS
10
113.763
20
-41.6373
11
113.619
21
-41.5433
0
LINE
8
BLACK
6
CONTINUOUS
10
113.619
20
-41.5433
11
113.5
21
-41.4198
0
LINE
8
BLACK
6
CONTINUOUS
10
113.5
20
-41.4198
11
113.411
21
-41.273
0
LINE
8
BLACK
6
CONTINUOUS
10
113.411
20
-41.273
11
113.357
21
-41.1101
0
LINE
8
BLACK
6
CONTINUOUS
10
113.357
20
-41.1101
11
113.34
21
-40.9392
0
LINE
8
BLACK
6
CONTINUOUS
10
113.34
20
-40.9392
11
113.362
21
-40.7689
0
LINE
8
BLACK
6
CONTINUOUS
10
113.362
20
-40.7689
11
113.42
21
-40.6076
0
LINE
8
BLACK
6
CONTINUOUS
10
113.42
20
-40.6076
11
113.513
21
-40.4633
0
LINE
8
BLACK
6
CONTINUOUS
10
113.513
20
-40.4633
11
113.636
21
-40.3432
0
LINE
8
BLACK
6
CONTINUOUS
10
113.636
20
-40.3432
11
113.782
21
-40.2533
0
LINE
8
BLACK
6
CONTINUOUS
10
113.782
20
-40.2533
11
113.945
21
-40.198
0
LINE
8
BLACK
6
CONTINUOUS
10
113.945
20
-40.198
11
114.115
21
-40.18
0
LINE
8
BLACK
6
CONTINUOUS
10
114.115
20
-40.18
11
114.286
21
-40.2003
0
LINE
8
BLACK
6
CONTINUOUS
10
114.286
20
-37.6603
11
114.448
21
-37.7179
0
LINE
8
BLACK
6
CONTINUOUS
10
114.448
20
-37.7179
11
114.592
21
-37.8099
0
LINE
8
BLACK
6
CONTINUOUS
10
114.592
20
-37.8099
11
114.713
21
-37.9317
0
LINE
8
BLACK
6
CONTINUOUS
10
114.713
20
-37.9317
11
114.804
21
-38.0773
0
LINE
8
BLACK
6
CONTINUOUS
10
114.804
20
-38.0773
11
114.861
21
-38.2394
0
LINE
8
BLACK
6
CONTINUOUS
10
114.861
20
-38.2394
11
114.88
21
-38.41
0
LINE
8
BLACK
6
CONTINUOUS
10
114.88
20
-38.41
11
114.88
21
-38.4315
0
LINE
8
BLACK
6
CONTINUOUS
10
114.88
20
-38.4315
11
114.856
21
-38.6015
0
LINE
8
BLACK
6
CONTINUOUS
10
114.856
20
-38.6015
11
114.795
21
-38.762
0
LINE
8
BLACK
6
CONTINUOUS
10
114.795
20
-38.762
11
114.7
21
-38.9049
0
LINE
8
BLACK
6
CONTINUOUS
10
114.7
20
-38.9049
11
114.576
21
-39.0233
0
LINE
8
BLACK
6
CONTINUOUS
10
114.576
20
-39.0233
11
114.428
21
-39.1112
0
LINE
8
BLACK
6
CONTINUOUS
10
114.428
20
-39.1112
11
114.265
21
-39.1643
0
LINE
8
BLACK
6
CONTINUOUS
10
114.265
20
-39.1643
11
114.094
21
-39.1798
0
LINE
8
BLACK
6
CONTINUOUS
10
114.094
20
-39.1798
11
113.924
21
-39.1571
0
LINE
8
BLACK
6
CONTINUOUS
10
113.924
20
-39.1571
11
113.763
21
-39.0973
0
LINE
8
BLACK
6
CONTINUOUS
10
113.763
20
-39.0973
11
113.619
21
-39.0033
0
LINE
8
BLACK
6
CONTINUOUS
10
113.619
20
-39.0033
11
113.5
21
-38.8798
0
LINE
8
BLACK
6
CONTINUOUS
10
113.5
20
-38.8798
11
113.411
21
-38.733
0
LINE
8
BLACK
6
CONTINUOUS
10
113.411
20
-38.733
11
113.357
21
-38.5701
0
LINE
8
BLACK
6
CONTINUOUS
10
113.357
20
-38.5701
11
113.34
21
-38.3992
0
LINE
8
BLACK
6
CONTINUOUS
10
113.34
20
-38.3992
11
113.362
21
-38.2289
0
LINE
8
BLACK
6
CONTINUOUS
10
113.362
20
-38.2289
11
113.42
21
-38.0676
0
LINE
8
BLACK
6
CONTINUOUS
10
113.42
20
-38.0676
11
113.513
21
-37.9233
0
LINE
8
BLACK
6
CONTINUOUS
10
113.513
20
-37.9233
11
113.636
21
-37.8032
0
LINE
8
BLACK
6
CONTINUOUS
10
113.636
20
-37.8032
11
113.782
21
-37.7133
0
LINE
8
BLACK
6
CONTINUOUS
10
113.782
20
-37.7133
11
113.945
21
-37.658
0
LINE
8
BLACK
6
CONTINUOUS
10
113.945
20
-37.658
11
114.115
21
-37.64
0
LINE
8
BLACK
6
CONTINUOUS
10
114.115
20
-37.64
11
114.286
21
-37.6603
0
LINE
8
BLACK
6
CONTINUOUS
10
132.066
20
-37.6603
11
132.228
21
-37.7179
0
LINE
8
BLACK
6
CONTINUOUS
10
132.228
20
-37.7179
11
132.372
21
-37.8099
0
LINE
8
BLACK
6
CONTINUOUS
10
132.372
20
-37.8099
11
132.493
21
-37.9317
0
LINE
8
BLACK
6
CONTINUOUS
10
132.493
20
-37.9317
11
132.584
21
-38.0773
0
LINE
8
BLACK
6
CONTINUOUS
10
132.584
20
-38.0773
11
132.641
21
-38.2394
0
LINE
8
BLACK
6
CONTINUOUS
10
132.641
20
-38.2394
11
132.66
21
-38.41
0
LINE
8
BLACK
6
CONTINUOUS
10
132.66
20
-38.41
11
132.66
21
-38.4315
0
LINE
8
BLACK
6
CONTINUOUS
10
132.66
20
-38.4315
11
132.636
21
-38.6015
0
LINE
8
BLACK
6
CONTINUOUS
10
132.636
20
-38.6015
11
132.575
21
-38.762
0
LINE
8
BLACK
6
CONTINUOUS
10
132.575
20
-38.762
11
132.48
21
-38.9049
0
LINE
8
BLACK
6
CONTINUOUS
10
132.48
20
-38.9049
11
132.356
21
-39.0233
0
LINE
8
BLACK
6
CONTINUOUS
10
132.356
20
-39.0233
11
132.208
21
-39.1112
0
LINE
8
BLACK
6
CONTINUOUS
10
132.208
20
-39.1112
11
132.045
21
-39.1643
0
LINE
8
BLACK
6
CONTINUOUS
10
132.045
20
-39.1643
11
131.874
21
-39.1798
0
LINE
8
BLACK
6
CONTINUOUS
10
131.874
20
-39.1798
11
131.704
21
-39.1571
0
LINE
8
BLACK
6
CONTINUOUS
10
131.704
20
-39.1571
11
131.543
21
-39.0973
0
LINE
8
BLACK
6
CONTINUOUS
10
131.543
20
-39.0973
11
131.399
21
-39.0033
0
LINE
8
BLACK
6
CONTINUOUS
10
131.399
20
-39.0033
11
131.28
21
-38.8798
0
LINE
8
BLACK
6
CONTINUOUS
10
131.28
20
-38.8798
11
131.191
21
-38.733
0
LINE
8
BLACK
6
CONTINUOUS
10
131.191
20
-38.733
11
131.137
21
-38.5701
0
LINE
8
BLACK
6
CONTINUOUS
10
131.137
20
-38.5701
11
131.12
21
-38.3992
0
LINE
8
BLACK
6
CONTINUOUS
10
131.12
20
-38.3992
11
131.142
21
-38.2289
0
LINE
8
BLACK
6
CONTINUOUS
10
131.142
20
-38.2289
11
131.2
21
-38.0676
0
LINE
8
BLACK
6
CONTINUOUS
10
131.2
20
-38.0676
11
131.293
21
-37.9233
0
LINE
8
BLACK
6
CONTINUOUS
10
131.293
20
-37.9233
11
131.416
21
-37.8032
0
LINE
8
BLACK
6
CONTINUOUS
10
131.416
20
-37.8032
11
131.562
21
-37.7133
0
LINE
8
BLACK
6
CONTINUOUS
10
131.562
20
-37.7133
11
131.725
21
-37.658
0
LINE
8
BLACK
6
CONTINUOUS
10
131.725
20
-37.658
11
131.895
21
-37.64
0
LINE
8
BLACK
6
CONTINUOUS
10
131.895
20
-37.64
11
132.066
21
-37.6603
0
LINE
8
BLACK
6
CONTINUOUS
10
132.066
20
-35.1203
11
132.228
21
-35.1779
0
LINE
8
BLACK
6
CONTINUOUS
10
132.228
20
-35.1779
11
132.372
21
-35.2699
0
LINE
8
BLACK
6
CONTINUOUS
10
132.372
20
-35.2699
11
132.493
21
-35.3917
0
LINE
8
BLACK
6
CONTINUOUS
10
132.493
20
-35.3917
11
132.584
21
-35.5373
0
LINE
8
BLACK
6
CONTINUOUS
10
132.584
20
-35.5373
11
132.641
21
-35.6994
0
LINE
8
BLACK
6
CONTINUOUS
10
132.641
20
-35.6994
11
132.66
21
-35.87
0
LINE
8
BLACK
6
CONTINUOUS
10
132.66
20
-35.87
11
132.66
21
-35.8915
0
LINE
8
BLACK
6
CONTINUOUS
10
132.66
20
-35.8915
11
132.636
21
-36.0615
0
LINE
8
BLACK
6
CONTINUOUS
10
132.636
20
-36.0615
11
132.575
21
-36.222
0
LINE
8
BLACK
6
CONTINUOUS
10
132.575
20
-36.222
11
132.48
21
-36.3649
0
LINE
8
BLACK
6
CONTINUOUS
10
132.48
20
-36.3649
11
132.356
21
-36.4833
0
LINE
8
BLACK
6
CONTINUOUS
10
132.356
20
-36.4833
11
132.208
21
-36.5712
0
LINE
8
BLACK
6
CONTINUOUS
10
132.208
20
-36.5712
11
132.045
21
-36.6243
0
LINE
8
BLACK
6
CONTINUOUS
10
132.045
20
-36.6243
11
131.874
21
-36.6398
0
LINE
8
BLACK
6
CONTINUOUS
10
131.874
20
-36.6398
11
131.704
21
-36.6171
0
LINE
8
BLACK
6
CONTINUOUS
10
131.704
20
-36.6171
11
131.543
21
-36.5573
0
LINE
8
BLACK
6
CONTINUOUS
10
131.543
20
-36.5573
11
131.399
21
-36.4633
0
LINE
8
BLACK
6
CONTINUOUS
10
131.399
20
-36.4633
11
131.28
21
-36.3398
0
LINE
8
BLACK
6
CONTINUOUS
10
131.28
20
-36.3398
11
131.191
21
-36.193
0
LINE
8
BLACK
6
CONTINUOUS
10
131.191
20
-36.193
11
131.137
21
-36.0301
0
LINE
8
BLACK
6
CONTINUOUS
10
131.137
20
-36.0301
11
131.12
21
-35.8592
0
LINE
8
BLACK
6
CONTINUOUS
10
131.12
20
-35.8592
11
131.142
21
-35.6889
0
LINE
8
BLACK
6
CONTINUOUS
10
131.142
20
-35.6889
11
131.2
21
-35.5276
0
LINE
8
BLACK
6
CONTINUOUS
10
131.2
20
-35.5276
11
131.293
21
-35.3833
0
LINE
8
BLACK
6
CONTINUOUS
10
131.293
20
-35.3833
11
131.416
21
-35.2632
0
LINE
8
BLACK
6
CONTINUOUS
10
131.416
20
-35.2632
11
131.562
21
-35.1733
0
LINE
8
BLACK
6
CONTINUOUS
10
131.562
20
-35.1733
11
131.725
21
-35.118
0
LINE
8
BLACK
6
CONTINUOUS
10
131.725
20
-35.118
11
131.895
21
-35.1
0
LINE
8
BLACK
6
CONTINUOUS
10
131.895
20
-35.1
11
132.066
21
-35.1203
0
LINE
8
BLACK
6
CONTINUOUS
10
114.286
20
-35.1203
11
114.448
21
-35.1779
0
LINE
8
BLACK
6
CONTINUOUS
10
114.448
20
-35.1779
11
114.592
21
-35.2699
0
LINE
8
BLACK
6
CONTINUOUS
10
114.592
20
-35.2699
11
114.713
21
-35.3917
0
LINE
8
BLACK
6
CONTINUOUS
10
114.713
20
-35.3917
11
114.804
21
-35.5373
0
LINE
8
BLACK
6
CONTINUOUS
10
114.804
20
-35.5373
11
114.861
21
-35.6994
0
LINE
8
BLACK
6
CONTINUOUS
10
114.861
20
-35.6994
11
114.88
21
-35.87
0
LINE
8
BLACK
6
CONTINUOUS
10
114.88
20
-35.87
11
114.88
21
-35.8915
0
LINE
8
BLACK
6
CONTINUOUS
10
114.88
20
-35.8915
11
114.856
21
-36.0615
0
LINE
8
BLACK
6
CONTINUOUS
10
114.856
20
-36.0615
11
114.795
21
-36.222
0
LINE
8
BLACK
6
CONTINUOUS
10
114.795
20
-36.222
11
114.7
21
-36.3649
0
LINE
8
BLACK
6
CONTINUOUS
10
114.7
20
-36.3649
11
114.576
21
-36.4833
0
LINE
8
BLACK
6
CONTINUOUS
10
114.576
20
-36.4833
11
114.428
21
-36.5712
0
LINE
8
BLACK
6
CONTINUOUS
10
114.428
20
-36.5712
11
114.265
21
-36.6243
0
LINE
8
BLACK
6
CONTINUOUS
10
114.265
20
-36.6243
11
114.094
21
-36.6398
0
LINE
8
BLACK
6
CONTINUOUS
10
114.094
20
-36.6398
11
113.924
21
-36.6171
0
LINE
8
BLACK
6
CONTINUOUS
10
113.924
20
-36.6171
11
113.763
21
-36.5573
0
LINE
8
BLACK
6
CONTINUOUS
10
113.763
20
-36.5573
11
113.619
21
-36.4633
0
LINE
8
BLACK
6
CONTINUOUS
10
113.619
20
-36.4633
11
113.5
21
-36.3398
0
LINE
8
BLACK
6
CONTINUOUS
10
113.5
20
-36.3398
11
113.411
21
-36.193
0
LINE
8
BLACK
6
CONTINUOUS
10
113.411
20
-36.193
11
113.357
21
-36.0301
0
LINE
8
BLACK
6
CONTINUOUS
10
113.357
20
-36.0301
11
113.34
21
-35.8592
0
LINE
8
BLACK
6
CONTINUOUS
10
113.34
20
-35.8592
11
113.362
21
-35.6889
0
LINE
8
BLACK
6
CONTINUOUS
10
113.362
20
-35.6889
11
113.42
21
-35.5276
0
LINE
8
BLACK
6
CONTINUOUS
10
113.42
20
-35.5276
11
113.513
21
-35.3833
0
LINE
8
BLACK
6
CONTINUOUS
10
113.513
20
-35.3833
11
113.636
21
-35.2632
0
LINE
8
BLACK
6
CONTINUOUS
10
113.636
20
-35.2632
11
113.782
21
-35.1733
0
LINE
8
BLACK
6
CONTINUOUS
10
113.782
20
-35.1733
11
113.945
21
-35.118
0
LINE
8
BLACK
6
CONTINUOUS
10
113.945
20
-35.118
11
114.115
21
-35.1
0
LINE
8
BLACK
6
CONTINUOUS
10
114.115
20
-35.1
11
114.286
21
-35.1203
  0
ENDSEC
  0
EOF
